<?xml version="1.0" encoding="UTF-8" standalone="no"?>
<svg
   version="1.0"
   width="1024.000000pt"
   height="1024.000000pt"
   viewBox="0 0 1024.000000 1024.000000"
   preserveAspectRatio="xMidYMid meet"
   id="svg824"
   sodipodi:docname="2024-12-04_16-39-36_8198-BearLogo-0047.svg"
   inkscape:version="1.2.2 (b0a8486541, 2022-12-01)"
   xmlns:inkscape="http://www.inkscape.org/namespaces/inkscape"
   xmlns:sodipodi="http://sodipodi.sourceforge.net/DTD/sodipodi-0.dtd"
   xmlns="http://www.w3.org/2000/svg"
   xmlns:svg="http://www.w3.org/2000/svg">
  <defs
     id="defs828" />
  <sodipodi:namedview
     id="namedview826"
     pagecolor="#ffffff"
     bordercolor="#000000"
     borderopacity="0.25"
     inkscape:showpageshadow="2"
     inkscape:pageopacity="0.0"
     inkscape:pagecheckerboard="0"
     inkscape:deskcolor="#d1d1d1"
     inkscape:document-units="pt"
     showgrid="false"
     inkscape:zoom="0.53188379"
     inkscape:cx="958.85607"
     inkscape:cy="426.78496"
     inkscape:current-layer="svg824" />
  <metadata
     id="metadata792">
Created by potrace 1.16, written by Peter Selinger 2001-2019
</metadata>
  <g
     transform="translate(0.000000,1024.000000) scale(0.100000,-0.100000)"
     fill="#000000"
     stroke="none"
     id="g822">
    <path
       d="M3164 8240 c-261 -37 -503 -220 -604 -457 -51 -121 -64 -187 -64 -323 0 -174 37 -294 135 -437 80 -116 226 -221 363 -262 42 -13 76 -27 76 -33 0 -6 -16 -67 -35 -137 -61 -220 -76 -330 -82 -588 -6 -244 2 -351 38 -526 59 -291 198 -574 378 -768 l70 -77 -35 -87 c-70 -174 -129 -414 -155 -635 -8 -72 -18 -107 -39 -145 -16 -27 -46 -95 -68 -150 -37 -93 -53 -144 -82 -252 l-11 -43 -49 0 c-28 0 -50 -4 -50 -9 0 -18 -41 -23 -63 -8 -72 46 -107 25 -107 -64 0 -50 -3 -59 -18 -59 -10 0 -28 -7 -41 -17 -22 -15 -23 -20 -18 -92 11 -141 58 -287 138 -428 53 -93 186 -234 247 -261 l43 -19 -53 -6 c-29 -4 -100 -7 -158 -8 -58 0 -130 -4 -160 -9 -37 -5 15 -8 160 -9 167 -1 243 -6 340 -22 108 -18 149 -20 302 -15 l178 6 63 -35 c124 -68 138 -70 467 -64 19 0 52 -3 73 -7 83 -14 246 29 327 86 29 20 34 21 152 9 152 -15 544 -15 656 0 81 10 85 10 115 -13 81 -59 265 -104 316 -76 18 9 29 9 51 0 22 -9 37 -9 65 0 28 9 39 9 51 -1 11 -9 44 -10 122 -6 115 6 195 27 316 80 68 31 74 32 151 24 100 -10 264 -3 375 18 56 10 156 16 290 17 149 1 186 3 135 8 -38 4 -110 8 -160 9 -49 1 -114 4 -143 8 l-53 6 42 21 c189 94 378 431 382 681 l2 90 -35 11 c-33 11 -35 14 -42 70 -11 83 -22 91 -98 70 -58 -17 -63 -17 -81 0 -13 11 -28 15 -48 11 -29 -6 -31 -4 -41 36 -49 190 -86 293 -150 417 -22 42 -30 75 -34 140 -12 161 -58 349 -138 563 l-41 108 75 72 c248 240 400 584 448 1012 13 117 13 390 0 513 -17 154 -58 351 -116 543 -3 11 8 18 43 27 150 39 332 196 415 357 63 124 82 203 82 345 0 132 -15 198 -75 328 -115 249 -320 412 -574 457 -102 18 -156 19 -245 5 -228 -36 -416 -159 -525 -341 -21 -35 -39 -65 -41 -67 -1 -2 -31 11 -65 29 -262 132 -624 213 -1009 226 -443 15 -868 -68 -1211 -236 l-80 -39 -28 57 c-84 165 -267 306 -461 354 -82 21 -216 28 -296 17z m300 -82 c124 -34 229 -103 327 -213 38 -43 115 -163 108 -169 -6 -5 -67 -36 -72 -36 -3 0 -24 25 -47 55 -44 57 -157 149 -225 183 -129 64 -307 84 -430 48 -137 -41 -269 -134 -335 -235 -56 -89 -92 -211 -97 -336 -6 -124 9 -202 54 -292 31 -63 125 -163 173 -187 l35 -17 -30 22 c-52 39 -131 124 -159 171 -56 96 -79 261 -55 394 15 80 23 84 27 12 10 -237 162 -481 354 -571 68 -32 75 -40 58 -67 -7 -12 -17 -13 -62 -3 -29 6 -62 14 -73 17 -11 4 -6 0 10 -9 17 -8 47 -17 68 -21 20 -4 37 -8 37 -11 0 -2 -5 -25 -11 -49 -12 -45 -12 -46 -47 -39 -103 19 -249 103 -333 191 -218 228 -248 555 -78 841 103 173 308 313 500 342 84 13 215 4 303 -21z m3742 -7 c120 -41 186 -84 289 -186 77 -76 98 -105 138 -185 25 -52 54 -126 63 -165 20 -91 21 -241 0 -329 -36 -152 -145 -306 -284 -400 -82 -56 -196 -101 -210 -83 -7 10 -32 73 -32 82 0 1 27 12 59 24 71 26 160 89 219 156 81 92 130 237 112 330 -7 38 -8 37 -9 -20 -3 -180 -117 -354 -283 -434 -94 -44 -103 -46 -116 -16 -16 35 -15 43 8 50 45 14 140 88 182 142 54 68 120 196 143 277 9 31 20 105 24 164 5 59 9 95 10 81 0 -14 9 -50 20 -80 10 -31 22 -83 26 -118 4 -34 9 -60 12 -57 12 11 -20 184 -47 259 -60 163 -163 281 -305 348 -169 81 -345 74 -540 -21 -81 -40 -137 -86 -211 -174 l-42 -49 -31 19 c-17 10 -31 21 -31 24 0 15 79 134 118 180 81 94 236 179 377 206 106 20 238 11 341 -25z m-3791 -136 c81 -21 189 -76 252 -128 52 -42 143 -142 143 -156 0 -4 -34 -31 -75 -59 l-74 -52 -46 35 c-191 146 -490 36 -520 -192 -16 -123 70 -263 162 -263 l32 0 -57 -110 c-39 -74 -63 -110 -74 -110 -47 0 -133 53 -208 127 -63 64 -85 95 -123 173 -121 255 -97 460 72 611 133 118 343 169 516 124z m2140 -13 c172 -27 275 -52 420 -102 131 -45 265 -98 278 -110 5 -5 -85 -10 -200 -12 -170 -4 -224 -9 -298 -27 -225 -55 -347 -122 -481 -263 -66 -70 -88 -104 -132 -208 l-20 -45 -18 45 c-74 183 -200 313 -384 398 -162 75 -331 106 -553 100 -80 -1 -143 0 -141 4 9 14 315 128 420 157 132 37 290 68 404 80 145 16 556 6 705 -17z m1570 14 c147 -39 271 -138 333 -265 35 -72 37 -81 37 -171 -1 -125 -15 -182 -81 -317 -65 -133 -142 -219 -231 -260 -30 -14 -56 -23 -57 -22 -2 2 -13 24 -25 47 -13 24 -40 72 -61 107 l-39 63 30 12 c16 7 43 28 60 48 154 175 37 433 -208 458 -72 8 -170 -15 -233 -55 l-45 -28 -72 50 c-40 27 -73 57 -73 65 0 9 37 53 83 97 90 89 167 134 284 165 82 23 227 25 298 6z m-2760 -257 c201 -25 369 -85 496 -180 96 -71 152 -138 206 -247 46 -91 47 -94 35 -139 -32 -118 -255 -465 -478 -743 -91 -114 -154 -212 -153 -239 1 -26 1 -25 11 4 14 39 19 45 238 340 215 288 239 324 332 500 58 109 69 124 64 90 -3 -22 -6 -96 -7 -164 -2 -149 -18 -206 -91 -319 -69 -105 -253 -286 -418 -409 -175 -131 -205 -165 -323 -363 -162 -274 -178 -528 -47 -750 219 -372 817 -542 1317 -375 262 88 442 228 537 418 48 96 66 173 66 283 0 214 -85 388 -340 694 -52 63 -113 137 -135 166 -22 28 -78 96 -123 150 -167 197 -337 479 -397 657 l-25 75 20 57 c65 188 236 348 457 428 155 56 261 72 478 72 225 -1 206 4 360 -93 275 -174 473 -407 635 -745 122 -256 145 -357 137 -620 -5 -194 -26 -337 -88 -586 -80 -323 -212 -591 -398 -804 -245 -282 -681 -496 -1201 -591 -352 -64 -545 -58 -902 27 -313 76 -645 231 -855 401 -333 269 -511 611 -622 1196 -56 297 -72 552 -42 670 38 153 164 441 247 566 142 215 384 441 569 534 86 43 270 60 440 39z m-855 -71 c46 -14 120 -65 120 -83 0 -24 -36 -26 -86 -4 -71 30 -141 35 -204 14 -145 -48 -190 -206 -99 -350 34 -54 34 -55 12 -55 -34 0 -82 40 -112 92 -59 102 -35 250 50 322 89 76 204 98 319 64z m3480 -16 c155 -81 204 -251 109 -381 -27 -38 -85 -78 -96 -68 -2 3 8 29 23 59 22 42 28 67 28 124 1 62 -3 77 -29 119 -66 107 -195 134 -345 71 -8 -3 -22 -2 -30 3 -12 8 -11 13 5 31 45 50 108 70 210 67 61 -2 90 -7 125 -25z m-3508 -92 c20 -6 47 -19 60 -29 l23 -19 -60 -64 c-34 -34 -88 -98 -120 -140 -33 -43 -63 -78 -68 -78 -18 0 -67 63 -77 98 -21 78 -6 145 44 192 52 48 120 61 198 40z m3435 -11 c66 -32 96 -78 101 -154 3 -48 0 -70 -17 -103 -11 -22 -25 -43 -30 -46 -5 -4 -31 22 -57 56 -26 35 -86 102 -133 151 -47 48 -83 87 -81 87 3 0 23 7 45 15 58 21 122 18 172 -6z m-1682 -649 c45 -90 191 -308 274 -409 42 -51 105 -130 139 -175 35 -44 96 -118 135 -164 86 -100 103 -127 56 -89 -67 54 -245 194 -309 242 -184 139 -285 251 -354 395 l-41 85 -3 175 -2 175 38 -90 c22 -49 51 -115 67 -145z m-105 -118 c0 -25 54 -134 98 -199 46 -68 189 -208 282 -278 137 -103 278 -228 333 -294 31 -38 57 -73 57 -76 0 -4 -23 14 -51 39 -104 94 -314 210 -456 252 -120 36 -327 45 -453 19 -199 -40 -381 -130 -514 -254 -44 -41 -42 -35 25 64 52 78 77 102 231 223 192 150 385 376 419 493 12 38 29 44 29 11z m-2015 -706 c59 -375 130 -625 243 -851 247 -496 753 -817 1507 -956 263 -49 574 -19 956 91 739 214 1137 614 1318 1327 60 235 104 533 99 665 -1 47 0 84 3 82 4 -2 14 -43 23 -91 52 -296 49 -645 -11 -913 -110 -497 -373 -839 -768 -995 -577 -228 -1484 -281 -2210 -129 -242 51 -523 164 -698 281 -232 156 -419 451 -513 812 -71 274 -74 653 -6 1006 l17 90 7 -125 c3 -69 18 -201 33 -294z m2244 144 c174 -42 387 -166 527 -305 78 -76 98 -104 138 -185 72 -148 89 -255 61 -392 -41 -199 -186 -366 -417 -482 -176 -87 -355 -122 -578 -113 -417 18 -746 212 -859 507 -22 57 -25 81 -25 190 0 109 3 135 27 205 89 266 319 476 617 561 47 13 112 28 145 34 87 13 267 4 364 -20z m-1791 -1698 c191 -130 502 -243 832 -301 272 -48 359 -55 735 -55 389 -1 543 11 815 60 315 58 609 156 760 253 l64 42 19 -48 c10 -26 16 -57 13 -69 -6 -24 -185 -193 -311 -295 -116 -93 -193 -147 -434 -305 l-216 -141 -6 34 c-8 43 -20 56 -50 51 -21 -3 -24 -8 -24 -49 0 -44 -4 -51 -72 -122 -98 -103 -166 -202 -229 -332 -111 -230 -149 -462 -105 -638 23 -88 49 -143 102 -214 30 -39 35 -52 24 -57 -8 -3 -75 -10 -147 -17 -103 -9 -182 -8 -351 2 -201 12 -217 14 -199 28 28 23 88 120 125 204 32 71 32 74 32 232 0 131 -4 174 -22 240 -46 174 -142 357 -271 519 -72 90 -73 92 -68 137 7 50 -8 75 -36 64 -18 -7 -38 -47 -38 -75 0 -24 -8 -25 -29 -6 -9 8 -104 73 -211 146 -305 207 -412 292 -601 478 -98 95 -179 169 -182 165 -7 -11 42 -75 52 -69 4 3 8 0 8 -7 0 -21 160 -253 245 -355 44 -53 198 -214 342 -357 144 -143 289 -296 322 -341 137 -183 214 -336 260 -516 23 -87 25 -114 21 -216 -7 -187 -31 -236 -146 -295 -40 -20 -83 -37 -96 -37 l-24 0 24 36 c54 79 18 98 -63 34 -27 -22 -52 -40 -55 -40 -3 0 -8 16 -11 35 -6 29 -11 35 -31 35 -17 0 -29 -9 -39 -27 -19 -38 -62 -77 -75 -68 -6 3 -11 16 -11 28 0 34 -28 67 -56 67 -13 0 -25 -6 -25 -12 -1 -7 -2 -20 -3 -28 -2 -21 -32 -14 -87 21 -53 33 -64 35 -73 13 -4 -11 7 -29 34 -55 22 -21 40 -40 40 -41 0 -2 -26 -1 -58 2 -92 9 -143 45 -214 154 -72 110 -182 335 -232 471 -75 206 -156 527 -190 750 -10 64 -14 78 -15 48 -1 -53 49 -307 94 -479 89 -336 234 -673 360 -839 40 -51 34 -56 -21 -19 -133 88 -262 288 -353 547 -91 259 -132 563 -116 860 4 76 9 136 11 134 3 -2 9 -40 14 -83 9 -78 9 -77 4 27 -6 130 15 280 62 441 44 153 59 189 77 182 23 -8 31 15 13 35 -13 14 -14 22 -4 49 14 37 17 37 96 -16z m3282 -199 c61 -161 100 -383 100 -568 0 -106 -6 -151 -36 -291 -91 -425 -210 -744 -372 -1004 -49 -78 -119 -158 -154 -176 -25 -13 -159 -44 -191 -44 -6 0 10 22 36 48 86 87 51 110 -58 38 -68 -47 -72 -46 -77 9 -6 61 -66 35 -75 -33 -3 -24 -11 -42 -18 -42 -13 0 -65 54 -84 87 -14 25 -45 6 -49 -31 -2 -14 -7 -26 -12 -26 -5 0 -27 21 -49 47 -37 43 -42 46 -56 32 -19 -19 -7 -59 28 -98 l22 -23 -35 7 c-56 11 -153 63 -177 94 -55 71 -55 315 1 501 23 76 84 211 133 295 91 158 182 260 418 471 278 247 406 386 583 632 52 72 96 132 98 132 1 0 12 -26 24 -57z m-2902 -300 c73 -56 220 -161 326 -233 151 -101 212 -149 272 -213 185 -197 318 -467 345 -704 16 -139 3 -222 -51 -329 -37 -73 -134 -190 -116 -139 4 11 15 56 23 100 37 192 -48 483 -210 725 -84 125 -155 205 -397 445 -127 127 -266 271 -309 320 -70 81 -237 309 -263 360 -6 11 47 -36 118 -105 71 -69 189 -171 262 -227z m2803 280 c-12 -15 -63 -84 -114 -153 -115 -156 -225 -271 -492 -515 -276 -252 -355 -343 -447 -515 -115 -214 -161 -393 -156 -603 l3 -128 -23 28 c-39 48 -90 145 -107 207 -14 48 -16 84 -12 175 17 352 232 709 557 922 63 42 167 110 230 151 197 130 479 352 546 431 34 40 46 40 15 0z m-3507 -954 l5 -55 -63 9 -64 10 25 91 c14 50 37 120 52 156 l26 65 7 -110 c3 -60 9 -135 12 -166z m3857 57 c11 -43 18 -85 15 -92 -4 -9 -22 -14 -52 -14 -38 0 -45 3 -40 16 3 9 6 82 7 162 l0 147 25 -70 c14 -38 34 -105 45 -149z m-140 -41 c-29 -400 -152 -732 -354 -953 -44 -47 -121 -102 -145 -102 -8 0 0 17 21 43 98 120 238 399 318 635 32 94 103 356 141 517 21 93 23 97 26 55 2 -24 -1 -112 -7 -195z m-3759 -137 c29 -6 55 -13 57 -14 4 -4 39 -174 36 -174 -2 0 -34 29 -72 65 -37 37 -77 71 -88 76 -11 6 13 -21 54 -59 l73 -69 -51 -5 c-70 -7 -127 -48 -164 -119 -24 -46 -28 -63 -25 -119 7 -120 93 -242 215 -302 61 -30 75 -32 188 -36 l123 -4 63 -64 63 -64 -84 -2 c-152 -3 -274 3 -334 18 -106 26 -219 109 -309 227 -53 69 -139 232 -153 289 -6 29 -11 26 71 43 44 9 41 33 -11 86 -27 28 -42 49 -34 49 8 0 27 6 42 14 15 8 52 14 85 13 72 -2 77 10 29 81 -39 59 -36 65 35 66 26 1 51 5 55 9 11 11 75 9 136 -5z m3983 2 c26 -10 25 -11 -58 -79 -85 -70 -117 -91 -136 -91 -6 0 -9 6 -6 13 2 6 9 44 15 84 8 52 16 73 28 76 33 9 131 7 157 -3z m106 -20 c19 -11 19 -12 -6 -54 -14 -23 -25 -52 -25 -64 0 -21 5 -22 81 -22 79 0 80 0 73 -22 -3 -13 -19 -34 -35 -48 -16 -14 -31 -37 -34 -51 -7 -29 11 -39 68 -39 23 0 27 -4 27 -27 0 -35 -53 -158 -105 -244 -79 -132 -236 -259 -355 -287 -64 -15 -237 -24 -293 -15 l-47 8 44 60 45 60 98 5 c85 4 108 9 164 37 80 39 150 111 187 191 35 74 37 176 5 237 -21 40 -67 88 -111 117 l-23 16 63 55 c34 31 75 59 90 62 15 4 27 10 27 13 -4 25 27 30 62 12z m-4397 -40 l17 -35 -21 24 c-11 13 -20 30 -20 39 0 19 3 15 24 -28z m4216 -160 c52 -41 82 -109 83 -187 1 -117 -94 -253 -216 -308 -59 -26 -149 -40 -196 -30 l-31 7 19 26 c56 81 146 292 181 429 20 74 28 93 45 97 37 8 77 -4 115 -34z m-3843 24 c29 -6 33 -14 78 -137 49 -136 114 -281 160 -354 l26 -42 -26 -7 c-14 -3 -67 -5 -118 -2 -116 5 -181 33 -256 113 -69 73 -95 132 -96 215 0 84 30 142 99 188 48 32 76 37 133 26z m-463 -44 c-6 -5 -24 21 -24 34 0 6 6 1 14 -10 8 -10 12 -21 10 -24z"
       id="path794" />
    <path
       d="M2967 6949 c7 -7 15 -10 18 -7 3 3 -2 9 -12 12 -14 6 -15 5 -6 -5z"
       id="path796" />
    <path
       d="M4193 6799 c-55 -10 -123 -46 -123 -65 0 -25 29 -27 86 -5 31 11 75 21 99 21 47 0 65 14 44 35 -20 18 -58 23 -106 14z"
       id="path798" />
    <path
       d="M5937 6783 c-22 -25 -13 -33 39 -33 24 0 73 -10 108 -21 101 -33 131 -7 47 40 -61 34 -169 41 -194 14z"
       id="path800" />
    <path
       d="M4119 6517 c-93 -49 -134 -168 -95 -272 31 -80 124 -145 209 -145 59 0 153 57 188 114 21 35 25 118 9 178 -33 118 -198 184 -311 125z m130 -95 c16 -34 -3 -80 -36 -88 -55 -14 -97 37 -77 94 17 49 90 45 113 -6z m121 -156 c0 -8 -5 -18 -11 -22 -14 -8 -33 11 -25 25 10 16 36 13 36 -3z"
       id="path802" />
    <path
       d="M5935 6516 c-59 -27 -82 -51 -101 -103 -53 -149 46 -312 191 -313 54 0 135 40 172 84 99 121 47 297 -101 341 -68 21 -103 19 -161 -9z m99 -78 c33 -46 7 -108 -44 -108 -48 0 -76 61 -50 111 15 28 74 26 94 -3z m123 -164 c8 -20 -17 -36 -34 -22 -10 8 -10 14 -2 24 15 18 28 18 36 -2z"
       id="path804" />
    <path
       d="M4970 6025 c-111 -20 -216 -77 -257 -139 -57 -84 -38 -183 48 -261 44 -40 191 -115 276 -142 l53 -17 0 -96 c0 -114 -4 -120 -113 -171 -60 -28 -75 -31 -120 -25 -106 14 -179 69 -193 147 -10 52 -22 69 -49 69 -22 0 -25 -4 -25 -35 0 -54 53 -150 102 -185 118 -86 298 -73 406 28 l30 28 33 -29 c98 -82 240 -109 351 -67 73 27 140 99 164 175 18 56 15 82 -11 91 -24 9 -43 -13 -53 -62 -21 -96 -93 -154 -202 -162 -69 -5 -150 24 -209 74 l-42 36 3 92 3 91 55 20 c196 71 273 117 328 199 61 91 37 196 -61 261 -125 83 -327 114 -517 80z m332 -81 c37 -9 71 -20 74 -26 5 -8 -1 -9 -17 -4 -13 4 -89 10 -169 13 -163 6 -239 -4 -315 -42 -52 -26 -66 -26 -45 0 28 34 97 59 220 79 41 7 180 -4 252 -20z m-384 -250 c24 -7 30 -29 10 -37 -18 -6 -70 22 -63 33 7 11 21 12 53 4z m467 -13 c0 -21 -55 -37 -66 -20 -13 20 -11 27 9 32 30 8 57 3 57 -12z"
       id="path806" />
  </g>
</svg>
