<?xml version="1.0" standalone="no"?>
<!DOCTYPE svg PUBLIC "-//W3C//DTD SVG 20010904//EN"
 "http://www.w3.org/TR/2001/REC-SVG-20010904/DTD/svg10.dtd">
<svg version="1.0" xmlns="http://www.w3.org/2000/svg"
 width="1024.000000pt" height="1024.000000pt" viewBox="0 0 1024.000000 1024.000000"
 preserveAspectRatio="xMidYMid meet">
<metadata>
Created by potrace 1.16, written by Peter Selinger 2001-2019
</metadata>
<g transform="translate(0.000000,1024.000000) scale(0.100000,-0.100000)"
fill="#000000" stroke="none">
<path d="M3816 9124 c-34 -35 -44 -73 -57 -223 -19 -208 9 -436 90 -729 33
-119 41 -165 46 -270 7 -153 28 -296 59 -417 l24 -90 -43 -85 c-23 -47 -68
-159 -100 -250 -32 -91 -67 -175 -78 -187 l-20 -23 25 0 c13 0 27 -2 30 -5 2
-3 1 -28 -3 -57 -6 -49 3 -178 17 -220 4 -14 0 -18 -20 -18 -14 0 -26 -4 -26
-9 0 -9 28 -74 91 -206 60 -129 151 -265 277 -414 29 -35 50 -67 45 -71 -4 -4
-37 -17 -73 -30 -117 -40 -323 -148 -412 -215 -48 -36 -121 -98 -161 -138 -41
-40 -51 -52 -23 -27 144 129 273 219 411 287 98 49 253 108 262 100 3 -4 -4
-30 -15 -59 -11 -29 -26 -70 -34 -92 -10 -29 -29 -50 -77 -85 -210 -152 -267
-198 -352 -281 -67 -66 -72 -73 -19 -24 136 125 393 314 407 300 10 -10 -28
-96 -64 -144 -20 -26 -54 -67 -78 -92 -128 -135 -294 -383 -487 -725 -155
-276 -277 -509 -336 -645 -23 -52 -70 -133 -104 -180 -101 -140 -189 -351
-224 -537 -25 -128 -30 -447 -9 -577 9 -59 14 -110 12 -112 -2 -3 -58 -7 -123
-10 -165 -8 -256 10 -391 76 -91 44 -118 64 -193 138 -127 126 -190 254 -224
449 -8 46 -21 95 -28 110 -21 42 -64 68 -111 67 -123 -3 -246 -148 -313 -369
-24 -79 -27 -107 -28 -230 0 -233 55 -407 192 -605 70 -100 117 -153 200 -222
101 -85 149 -116 273 -182 148 -78 284 -123 529 -175 81 -18 281 -32 475 -34
l190 -2 95 -42 c84 -37 202 -67 342 -88 29 -5 39 -11 44 -30 8 -31 82 -81 149
-100 170 -51 355 -56 569 -16 l109 21 16 -22 c23 -31 23 -32 54 -52 142 -90
525 -98 690 -15 51 25 69 29 155 31 l97 2 -94 5 c-92 6 -93 6 -72 25 22 20 61
113 61 146 0 18 7 20 60 20 34 0 60 -4 60 -10 0 -21 43 -99 74 -136 l33 -39
-61 2 -61 1 60 -8 c33 -4 63 -6 66 -4 9 5 90 -31 84 -38 -12 -12 172 -28 318
-28 133 0 167 3 220 21 85 29 131 56 151 90 14 24 24 29 54 29 54 0 180 54
234 100 58 50 82 113 82 220 0 98 -32 170 -110 246 -55 54 -56 56 -36 70 31
22 178 200 227 274 98 151 191 385 232 585 26 129 25 445 -1 565 -26 123 -89
307 -141 417 l-45 96 29 81 c59 161 109 366 112 460 1 27 3 25 17 -21 22 -69
27 -72 40 -21 23 91 34 225 28 321 -3 53 -4 97 -1 97 3 0 11 -12 17 -27 19
-48 21 -1 3 89 -32 158 -87 341 -131 441 -25 54 -43 101 -40 104 15 16 209
-148 282 -240 67 -83 80 -98 69 -77 -17 31 -105 137 -152 182 -26 25 -88 76
-137 112 -60 45 -99 83 -122 119 -18 28 -34 57 -34 63 0 31 40 23 145 -30 173
-86 338 -200 471 -328 73 -70 98 -89 64 -52 -131 146 -286 261 -535 394 -44
24 -82 45 -84 47 -5 4 91 91 115 106 17 10 178 -50 298 -110 160 -79 263 -153
411 -292 l70 -66 -65 68 c-152 159 -358 293 -582 377 -49 19 -88 38 -88 43 0
5 25 37 56 70 102 113 214 295 338 554 l45 93 -25 6 c-20 5 -24 11 -20 28 17
71 28 165 24 212 -4 51 -3 54 19 54 25 0 31 14 10 27 -27 16 -46 59 -76 168
-16 61 -43 142 -60 182 -17 40 -31 82 -31 94 0 12 14 65 30 117 60 187 81 284
90 417 7 111 14 149 50 260 99 310 124 455 125 705 0 275 -20 320 -139 320
-163 0 -388 -112 -766 -380 -63 -45 -146 -97 -185 -115 -108 -52 -311 -125
-347 -125 -18 0 -112 11 -208 25 -215 31 -481 42 -640 26 -63 -7 -158 -15
-210 -18 l-95 -5 -176 85 c-187 90 -260 134 -404 247 -282 222 -516 340 -671
340 -42 0 -56 -5 -78 -26z m223 -64 c97 -38 279 -141 379 -216 365 -273 639
-540 669 -650 7 -28 8 -27 14 16 8 45 2 107 -10 114 -3 2 -4 -17 -3 -42 l4
-47 -32 50 c-18 28 -87 105 -153 173 -67 67 -116 122 -110 122 7 0 15 -5 18
-10 9 -14 138 -78 250 -125 99 -41 88 -41 360 -15 222 21 457 11 708 -31 70
-11 149 -19 175 -17 57 6 236 72 354 132 l88 44 -118 -124 c-120 -128 -192
-223 -191 -253 0 -14 2 -13 12 3 67 106 108 155 235 276 323 311 716 550 904
550 75 0 82 -18 86 -218 6 -294 -10 -371 -198 -949 -28 -83 -50 -162 -50 -175
0 -13 -9 -41 -20 -63 -24 -48 -26 -57 -3 -26 22 32 72 178 74 216 1 25 3 23 8
-12 10 -60 -4 -176 -32 -268 -13 -44 -35 -116 -48 -160 -13 -44 -25 -82 -26
-84 -2 -3 -33 24 -68 59 l-64 64 37 24 c20 13 29 21 20 18 -48 -16 -50 -15
-12 5 40 21 75 59 54 59 -5 0 -10 -4 -10 -10 0 -5 -6 -7 -14 -4 -8 3 -43 -5
-78 -18 -35 -12 -56 -24 -47 -26 9 -1 40 6 69 18 29 11 55 19 57 16 3 -2 -23
-14 -56 -27 -53 -19 -80 -39 -52 -39 17 0 141 -173 175 -245 27 -57 94 -251
100 -289 0 -5 -23 -8 -52 -7 l-52 2 54 -54 c71 -70 83 -110 67 -209 -12 -77
-55 -180 -97 -235 -29 -38 -19 -43 21 -11 27 21 27 21 17 1 -11 -20 -89 -99
-127 -127 -26 -20 -14 -20 32 -1 20 8 38 13 41 11 20 -20 -137 -200 -259 -296
-28 -22 -48 -40 -45 -40 16 0 80 32 123 61 l47 33 -21 -30 c-37 -51 -194 -196
-207 -191 -44 17 -249 61 -360 78 -166 25 -408 35 -456 20 -30 -9 -21 -10 58
-7 106 5 292 -8 432 -30 126 -20 310 -64 310 -74 0 -14 -114 -100 -133 -100
-10 0 -68 13 -130 30 -252 66 -520 106 -562 83 -13 -7 16 -12 106 -16 126 -6
324 -42 484 -88 l77 -23 -24 -18 c-38 -30 -126 -70 -137 -63 -6 3 -11 2 -11
-3 0 -9 -109 -62 -128 -62 -5 0 -36 16 -68 35 -60 36 -234 108 -292 120 -18 4
-51 4 -74 0 l-41 -7 84 -47 c119 -67 231 -143 222 -151 -9 -8 -86 -24 -238
-50 -93 -15 -125 -26 -205 -68 -114 -59 -200 -77 -335 -69 -111 6 -164 25
-298 110 -83 52 -112 66 -157 70 -30 4 -88 14 -127 24 -58 13 -70 19 -61 30
19 23 150 101 208 123 30 12 62 28 70 36 13 13 10 14 -20 8 -19 -3 -46 -14
-60 -23 -154 -107 -293 -170 -276 -125 5 14 4 15 -8 5 -15 -13 -58 2 -170 56
l-58 29 61 28 c50 22 156 50 301 80 14 3 -3 3 -38 0 -77 -6 -194 -36 -268 -69
-74 -33 -91 -32 -159 10 -32 19 -62 36 -69 38 -76 28 398 107 647 107 38 0 56
4 52 10 -4 7 -35 8 -83 5 -242 -20 -392 -38 -510 -62 -148 -31 -127 -34 -231
37 -28 19 -51 38 -51 41 0 15 299 64 480 78 69 5 168 8 220 6 l95 -4 -90 11
c-113 14 -321 -1 -520 -38 -233 -43 -197 -52 -306 71 -90 103 -155 185 -146
185 3 0 25 -12 51 -26 82 -46 72 -20 -23 62 -79 68 -171 177 -171 204 0 5 21
-3 47 -18 l47 -26 -46 65 c-25 35 -51 75 -58 88 -20 38 -40 139 -42 205 -3 81
35 152 114 215 31 25 56 47 54 48 -1 1 -37 -8 -79 -21 -42 -13 -77 -20 -77
-16 0 16 80 238 108 300 39 85 114 195 180 264 35 37 49 58 40 60 -7 3 -22 7
-33 10 -11 3 -1 3 23 1 60 -7 53 12 -8 20 -27 4 -53 11 -56 17 -4 6 1 8 12 5
35 -10 104 -19 104 -13 0 3 -27 10 -60 17 -33 6 -60 15 -60 19 0 7 71 -7 130
-25 17 -5 22 -4 15 3 -5 5 -36 17 -69 26 -73 21 -69 30 4 11 62 -17 109 -20
94 -6 -5 4 -28 13 -51 20 -24 6 -61 16 -83 22 -22 6 -48 8 -57 4 -17 -6 -17
-7 1 -21 11 -8 14 -14 7 -14 -8 0 -10 -7 -5 -22 6 -21 5 -22 -12 -8 -10 8 -3
-4 16 -25 19 -22 39 -42 44 -46 13 -10 -10 -44 -61 -89 l-48 -42 -23 74 c-13
40 -29 106 -37 146 -17 84 -20 282 -5 282 6 0 10 -10 10 -21 0 -26 42 -181 47
-175 7 7 -14 93 -116 461 -85 312 -107 462 -98 670 13 258 35 279 226 205z
m259 -3304 l43 -34 -73 -35 c-40 -20 -74 -34 -75 -33 -4 4 52 136 57 136 3 0
24 -16 48 -34z m87 -72 c14 -9 25 -20 25 -24 0 -4 -28 -24 -62 -46 -35 -21
-99 -64 -143 -95 -44 -32 -82 -56 -84 -53 -5 5 2 22 45 109 25 53 36 64 89 92
68 37 95 40 130 17z m1857 -43 c74 -25 215 -88 257 -113 l34 -21 -44 -18 c-24
-10 -52 -18 -62 -18 -9 -1 -59 28 -110 63 -50 35 -113 74 -139 87 -27 13 -48
27 -48 31 0 14 55 9 112 -11z m-1756 -23 c30 -18 54 -35 54 -38 0 -3 -18 -17
-39 -32 -70 -50 -190 -169 -251 -249 -66 -88 -116 -187 -151 -299 l-24 -75 -3
135 c-4 164 10 280 41 340 15 30 50 66 104 110 66 54 197 140 211 140 2 0 28
-15 58 -32z m132 -73 l42 -17 -108 -107 c-130 -128 -257 -314 -286 -421 -4
-14 12 13 36 60 86 167 233 353 337 424 l41 29 117 -42 c65 -22 181 -55 257
-71 150 -33 180 -44 268 -101 31 -19 71 -41 90 -48 18 -7 42 -17 53 -21 39
-17 127 -30 193 -30 99 0 192 24 306 76 73 34 112 46 141 45 23 -1 35 2 28 7
-7 5 23 13 75 21 48 7 147 29 221 48 74 18 140 32 147 29 8 -3 13 0 11 6 -1 6
20 17 46 23 26 7 54 19 63 26 21 17 49 -6 152 -122 114 -128 187 -241 234
-360 35 -90 40 -112 45 -218 9 -174 -5 -184 -52 -35 -36 117 -55 158 -55 119
0 -11 5 -39 10 -61 22 -96 30 -224 20 -316 -16 -143 -97 -420 -203 -698 -13
-36 -28 -85 -32 -110 -19 -120 -144 -582 -235 -865 -132 -413 -228 -792 -237
-937 -3 -47 -8 -91 -12 -96 -4 -6 -27 -6 -66 0 -69 11 -191 3 -272 -18 -57
-15 -156 -54 -150 -60 1 -2 45 11 97 28 117 38 257 43 355 14 73 -22 137 -81
154 -141 15 -55 14 -159 -3 -198 -20 -49 -71 -94 -124 -110 -26 -7 -48 -13
-50 -12 -1 1 5 15 13 32 8 16 17 52 20 79 l5 49 -23 -68 c-35 -101 -36 -101
-183 -106 l-126 -3 31 42 c24 33 31 53 31 89 0 73 -16 82 -25 15 -8 -67 -27
-109 -54 -124 -49 -26 -179 5 -242 57 -16 14 -42 49 -57 77 -26 50 -27 55 -30
257 -12 728 188 1247 754 1964 l47 60 -72 -70 c-189 -182 -403 -479 -530 -733
-183 -366 -265 -736 -263 -1184 l0 -167 -36 -7 c-20 -3 -45 -8 -54 -11 -10 -2
-18 -2 -18 1 0 4 -13 57 -29 119 -25 94 -29 127 -26 207 2 76 2 81 -4 28 -3
-36 -9 -69 -12 -72 -3 -4 -14 31 -23 76 -10 46 -33 153 -53 238 -86 386 -131
626 -154 830 -13 120 -17 376 -7 530 9 126 -4 98 -29 -65 -21 -136 -23 -459
-5 -595 51 -373 174 -955 257 -1214 63 -198 -2 -329 -174 -352 l-51 -7 6 56
c7 58 -1 111 -15 103 -4 -3 -11 -30 -14 -59 -3 -30 -11 -64 -19 -76 -29 -47
-186 -53 -219 -8 -19 26 -49 112 -49 141 -1 19 -2 19 -10 4 -10 -17 3 -106 22
-140 8 -16 3 -18 -44 -18 -65 0 -143 34 -180 78 -51 61 -54 90 -32 312 12 125
-88 452 -303 985 -253 626 -317 845 -382 1310 -8 58 -9 39 -6 -105 6 -241 36
-414 121 -688 28 -90 234 -623 309 -802 13 -29 2 -21 -65 50 -171 180 -325
380 -440 570 -91 150 -203 387 -250 526 -22 65 -37 103 -34 84 14 -80 83 -264
150 -400 139 -279 311 -524 525 -745 64 -67 127 -141 139 -166 l22 -44 -43 40
c-41 37 -42 37 -13 5 38 -43 64 -84 87 -134 l18 -39 -28 18 -28 18 29 -31 c15
-17 25 -35 22 -40 -4 -6 -2 -13 4 -17 5 -3 15 -15 21 -26 10 -19 9 -20 -13 -8
-13 6 -41 24 -63 39 -52 35 -169 100 -181 100 -5 0 37 -27 94 -59 102 -59 193
-121 178 -121 -5 0 -3 -7 4 -16 10 -11 -3 -9 -52 10 -86 32 -203 50 -280 43
-81 -6 -210 -48 -270 -86 -89 -56 -171 -194 -177 -298 -1 -7 -26 1 -63 19 -35
17 -73 34 -86 39 -49 19 -182 111 -207 145 -14 19 -31 32 -36 28 -5 -3 -18 0
-27 6 -9 7 3 -7 28 -30 65 -61 164 -123 284 -180 68 -31 106 -55 106 -65 0
-12 -7 -14 -27 -9 -47 11 -215 73 -263 97 -61 30 -188 149 -234 220 -76 114
-161 330 -221 557 -19 69 -34 118 -34 110 -1 -19 43 -197 68 -275 33 -105 90
-245 133 -327 46 -89 163 -224 237 -274 42 -28 238 -102 314 -118 15 -4 27
-11 27 -16 0 -5 -30 0 -67 11 -38 10 -88 24 -113 30 -62 15 -124 45 -200 97
-35 25 -58 37 -51 28 25 -30 1 -16 -29 17 -73 79 -206 329 -264 496 -170 489
-175 952 -14 1316 111 251 239 383 428 441 128 40 133 43 70 43 -59 1 -178
-26 -229 -52 -17 -8 -31 -14 -31 -11 0 18 223 442 330 629 189 330 331 541
466 695 l49 55 0 -175 c0 -164 2 -180 28 -262 29 -91 43 -114 31 -53 -17 90
61 295 164 431 89 117 279 290 307 280 6 -2 29 -12 53 -21z m2269 3 c33 -37
36 -47 11 -41 -17 4 -14 0 12 -18 19 -14 47 -47 62 -74 55 -100 141 -346 126
-361 -3 -2 -22 22 -43 53 -54 83 -160 218 -225 288 -102 111 -98 103 -59 117
19 7 39 11 44 9 6 -2 21 -5 35 -7 23 -4 24 -3 5 7 -29 17 -29 17 -15 34 17 20
23 19 47 -7z m81 -1806 c91 -236 115 -327 132 -508 17 -182 -9 -372 -81 -589
-74 -221 -173 -386 -334 -553 -64 -66 -72 -72 -98 -64 l-28 7 40 30 c21 17 45
39 51 50 11 18 10 17 -12 -2 -53 -50 -36 -19 29 50 44 48 85 106 117 166 56
108 58 131 1 33 -21 -37 -41 -69 -45 -72 -4 -3 -14 -18 -23 -35 -26 -51 -122
-149 -174 -177 -59 -33 -103 -42 -103 -23 0 28 14 46 64 82 114 84 193 162
224 222 12 23 21 41 19 41 -1 0 -25 -30 -52 -66 -45 -60 -220 -212 -231 -201
-3 2 0 24 6 48 45 184 94 357 176 627 101 332 207 725 225 832 11 65 49 190
59 190 3 0 20 -40 38 -88z m-5208 -392 c20 -11 44 -79 55 -160 48 -338 280
-592 613 -671 73 -18 112 -20 236 -17 l149 3 19 -80 c37 -162 98 -322 197
-524 28 -58 38 -88 31 -96 -18 -22 -194 -104 -235 -110 -35 -5 -37 -4 -15 6
67 29 153 76 178 97 l27 24 -35 -20 c-19 -11 -56 -31 -82 -46 -48 -28 -167
-66 -203 -66 -11 1 20 14 69 30 49 16 94 34 100 41 8 9 6 10 -9 4 -95 -38
-183 -55 -274 -54 l-96 2 85 7 c47 4 110 15 140 25 60 20 229 100 245 116 11
11 -49 -13 -110 -44 -119 -60 -264 -87 -398 -73 -76 9 -86 20 -26 30 23 4 40
9 37 11 -3 3 -31 0 -63 -6 -47 -8 -70 -7 -124 6 -37 9 -73 21 -81 26 -13 9
-12 10 2 5 83 -26 273 -29 373 -7 70 17 177 49 220 67 70 29 29 24 -84 -11
-159 -49 -343 -65 -456 -41 -82 18 -209 56 -203 61 2 2 68 -10 148 -26 122
-25 159 -28 233 -23 156 12 153 19 -10 19 -202 0 -383 36 -427 84 -14 16 -9
15 30 -5 26 -13 58 -24 70 -24 12 0 51 -8 86 -17 88 -23 272 -23 356 2 34 10
61 19 59 21 -2 2 -37 -3 -78 -12 -91 -20 -236 -12 -354 17 -129 33 -328 130
-425 208 -45 37 -13 22 57 -26 113 -77 295 -150 418 -168 79 -11 42 9 -74 39
-57 15 -130 40 -163 57 -32 16 -63 27 -68 24 -5 -3 -12 0 -16 6 -5 8 -2 10 7
5 8 -4 6 -1 -4 8 -11 8 -26 12 -35 9 -10 -4 -13 -2 -8 5 4 8 -3 16 -20 22 -41
16 -143 92 -189 141 -40 42 -40 42 -5 15 106 -82 150 -112 228 -153 48 -25
102 -54 120 -65 48 -29 280 -100 337 -104 l50 -2 -45 7 c-126 22 -476 169
-545 230 -11 10 -38 30 -60 45 -59 39 -144 126 -166 169 -24 45 -40 87 -35 87
8 0 51 -75 48 -83 -1 -5 3 -5 9 -1 7 4 9 3 6 -4 -8 -12 134 -161 174 -183 187
-102 411 -197 442 -186 6 2 -13 9 -43 16 -30 7 -133 51 -228 98 -162 81 -177
90 -252 166 -43 45 -77 83 -74 86 2 3 42 -31 87 -76 45 -45 98 -88 117 -97 19
-9 26 -11 16 -4 -87 58 -248 217 -283 278 -38 67 -93 227 -92 266 1 25 2 23
10 -11 6 -22 33 -92 60 -155 50 -112 54 -118 160 -222 60 -59 131 -120 157
-135 26 -15 66 -40 90 -56 24 -16 45 -27 47 -25 4 3 -19 19 -145 100 -30 20
-94 72 -142 117 -70 66 -94 96 -121 154 -19 40 -38 82 -42 95 -13 45 5 20 41
-55 38 -79 115 -167 219 -250 62 -49 148 -107 140 -93 -3 5 -27 24 -53 41 -48
33 -192 157 -225 194 -28 32 -110 185 -131 245 -12 36 -21 99 -26 180 l-7 125
-1 -117 c-2 -91 2 -130 18 -179 21 -70 19 -92 -5 -36 -37 88 -43 251 -13 350
l13 42 6 -35 c6 -30 7 -28 6 16 0 28 5 59 11 70 9 16 11 10 12 -36 0 -78 25
-208 55 -292 25 -70 98 -192 131 -219 9 -7 -4 16 -29 51 -64 93 -86 141 -113
248 -28 111 -32 242 -9 318 36 117 139 199 205 164z m4835 -1270 c-8 -12 -76
-42 -82 -36 -5 5 66 45 80 46 5 0 5 -5 2 -10z m-4639 -118 c-5 -4 -126 56
-126 63 0 3 29 -10 65 -27 35 -18 63 -34 61 -36z m4556 7 c72 -15 115 -39 165
-91 62 -64 87 -120 91 -204 5 -83 -23 -162 -68 -194 l-27 -19 -6 75 c-4 41
-14 87 -22 102 -14 26 -15 24 -9 -38 10 -116 -24 -179 -96 -180 -25 0 -26 1
-25 78 0 95 -21 158 -76 231 l-40 53 7 92 c8 113 10 115 106 95z m-4572 -19
c8 -5 11 -10 5 -10 -5 0 -17 5 -25 10 -8 5 -10 10 -5 10 6 0 17 -5 25 -10z
m2360 -25 c156 -36 201 -68 226 -161 16 -60 17 -79 6 -189 -7 -67 -10 -129 -6
-139 10 -25 -12 -43 -71 -61 -83 -24 -87 -23 -70 26 18 49 19 104 4 148 -15
43 -28 39 -22 -8 15 -112 -28 -189 -117 -209 -28 -7 -56 -12 -61 -12 -16 0
-37 61 -49 136 -14 97 -19 114 -30 114 -12 0 -13 -85 0 -170 5 -35 8 -65 7
-66 -1 -1 -25 2 -52 7 -88 16 -134 67 -155 171 -12 60 -13 61 -22 33 -9 -33
-2 -109 14 -138 13 -26 8 -28 -37 -16 -87 24 -129 121 -106 247 33 187 184
300 401 301 41 0 104 -6 140 -14z m-1205 -134 c11 -20 -220 -129 -249 -117 -6
2 -4 5 4 5 19 1 138 62 188 96 40 27 48 30 57 16z m15 -30 c0 -14 -48 -49 -98
-71 -64 -29 -63 -25 5 19 33 21 64 44 67 50 9 13 26 15 26 2z m16 -27 c-3 -8
-2 -12 3 -9 5 3 12 1 16 -4 7 -12 -52 -44 -66 -36 -5 4 -16 1 -24 -5 -8 -7
-20 -10 -27 -8 -8 3 -1 11 17 20 17 9 39 25 49 37 22 25 41 28 32 5z m-679
-10 c-3 -3 -12 -4 -19 -1 -8 3 -5 6 6 6 11 1 17 -2 13 -5z m719 -33 c-6 -9
-66 -33 -66 -26 0 6 52 34 63 35 5 0 6 -4 3 -9z m239 -78 c22 -11 96 -35 163
-54 68 -18 120 -35 115 -36 -15 -5 -240 55 -276 73 -53 28 -137 85 -137 95 0
5 21 -6 48 -25 26 -18 65 -42 87 -53z"/>
<path d="M3952 8959 c-34 -13 -53 -65 -64 -173 -17 -180 12 -443 76 -666 13
-47 34 -130 46 -185 32 -147 41 -172 34 -100 -3 33 -29 148 -58 255 -72 265
-81 327 -81 570 0 185 2 209 20 245 25 50 56 55 141 22 51 -20 184 -100 184
-111 0 -1 -30 8 -67 20 -38 13 -93 25 -123 28 -48 5 -42 2 45 -22 55 -15 123
-40 151 -56 53 -29 184 -153 149 -140 -11 4 -24 10 -30 14 -42 31 -251 81
-325 79 -27 -1 -29 -3 -10 -6 232 -40 344 -79 424 -148 30 -26 54 -50 53 -54
-1 -4 12 -19 28 -34 24 -21 14 -18 -55 18 -99 51 -196 79 -328 95 -132 17
-125 6 10 -15 62 -9 147 -28 188 -42 83 -27 207 -92 248 -129 23 -21 17 -19
-38 10 -123 64 -351 115 -431 96 -14 -4 14 -9 66 -13 50 -4 113 -14 140 -22
154 -47 314 -125 347 -170 14 -18 4 -15 -57 20 -101 57 -296 106 -452 113 -63
3 -113 1 -113 -4 0 -5 37 -10 83 -11 106 -2 220 -26 304 -64 90 -41 113 -50
113 -43 0 3 -21 14 -46 25 -25 12 -43 23 -41 26 9 8 100 -36 120 -58 11 -11
26 -18 34 -15 8 3 12 2 9 -3 -4 -5 20 -26 52 -47 31 -20 63 -41 70 -47 6 -5
12 -7 12 -3 0 3 -24 22 -54 41 -60 38 -89 70 -37 39 44 -26 113 -85 107 -92
-3 -2 7 -21 23 -41 34 -44 47 -68 72 -135 18 -47 19 -41 3 24 -4 19 0 16 17
-12 13 -21 27 -38 31 -38 33 0 -38 160 -117 265 -52 69 -270 308 -395 433 -98
98 -222 195 -295 228 -58 27 -153 44 -183 33z"/>
<path d="M7394 8852 c-107 -53 -214 -136 -369 -289 -306 -300 -485 -539 -485
-647 0 -14 15 0 50 49 71 99 111 147 118 141 3 -4 -5 -18 -19 -34 -15 -17 -10
-15 14 7 36 34 47 48 27 36 -5 -3 -10 -2 -10 3 0 13 109 83 215 137 50 26 81
44 70 41 -11 -3 -33 -8 -50 -12 -38 -9 -120 -49 -160 -78 -50 -37 -62 -41 -25
-7 121 107 352 190 600 214 19 2 4 4 -35 5 -134 3 -300 -40 -433 -113 -65 -37
-66 -37 -37 -8 38 37 117 86 175 109 25 10 54 23 65 30 18 11 145 40 263 59
78 13 36 17 -50 5 -155 -22 -307 -74 -387 -134 -19 -14 -37 -26 -39 -26 -8 0
83 79 91 80 4 0 7 6 7 14 0 16 93 59 178 81 34 8 113 22 175 30 l112 15 -90
-5 c-105 -5 -267 -36 -316 -59 l-34 -17 32 29 c21 17 59 35 103 46 39 10 69
21 66 23 -4 4 -69 -11 -102 -24 -8 -3 -14 0 -14 5 0 6 8 13 18 16 120 35 225
70 217 73 -6 2 -53 -10 -105 -26 -52 -17 -96 -28 -98 -27 -2 2 12 15 30 29 42
31 133 64 229 83 l74 14 -71 -4 c-39 -3 -96 -13 -127 -24 -40 -13 -54 -15 -46
-6 24 30 82 56 161 74 46 10 74 19 63 19 -11 0 -46 -6 -79 -13 -76 -18 -59 2
34 39 l65 26 -45 -6 c-42 -5 -44 -4 -25 10 23 18 108 45 142 45 18 0 28 -9 40
-37 22 -50 21 -251 -2 -426 -9 -71 -15 -131 -12 -133 8 -8 38 225 44 347 6
134 -4 208 -34 242 -27 29 -89 22 -179 -21z"/>
<path d="M4065 8800 c3 -4 28 -10 57 -14 28 -4 84 -18 122 -31 47 -16 64 -19
51 -9 -35 26 -243 75 -230 54z"/>
<path d="M4152 8659 c120 -21 252 -66 311 -105 21 -14 41 -24 43 -21 8 8 -71
53 -146 84 -79 33 -218 64 -279 62 -21 -1 9 -9 71 -20z"/>
<path d="M7296 8599 c-32 -5 -61 -11 -64 -14 -8 -8 121 7 138 16 19 10 10 10
-74 -2z"/>
<path d="M4275 8344 c100 -12 293 -69 353 -104 24 -13 -4 -13 -29 1 -11 6 -25
9 -31 7 -6 -2 18 -14 53 -27 50 -18 77 -36 122 -82 32 -32 53 -50 47 -38 -7
11 -9 23 -7 26 7 6 22 -24 31 -62 7 -27 2 -24 -56 36 -61 63 -154 120 -196
119 -9 -1 15 -16 55 -35 86 -40 142 -89 194 -169 40 -61 51 -68 23 -15 -22 44
-9 48 17 5 11 -20 23 -36 25 -36 7 0 -6 72 -16 89 -8 12 -9 10 -4 -11 3 -16 4
-28 0 -28 -11 0 -33 56 -31 80 3 28 -31 83 -46 75 -5 -4 -9 0 -9 7 0 13 -97
82 -157 112 -51 25 -39 11 20 -23 69 -42 117 -77 112 -83 -3 -3 4 -13 15 -23
11 -10 20 -23 20 -29 0 -6 -26 15 -57 46 -63 62 -150 113 -228 134 -100 28
-198 44 -263 43 -64 -1 -62 -2 43 -15z m545 -229 c0 -5 -9 1 -20 15 -11 14
-20 30 -20 35 0 6 9 -1 20 -15 11 -14 20 -29 20 -35z"/>
<path d="M7140 8315 c-55 -10 -109 -31 -206 -80 -72 -37 -144 -78 -160 -92
l-29 -25 36 21 c20 12 40 21 45 21 13 0 -49 -49 -62 -50 -12 0 -64 -52 -64
-64 0 -5 7 -3 15 4 22 19 18 3 -9 -33 -30 -40 -90 -147 -82 -147 3 0 24 31 46
69 23 39 48 75 56 82 8 6 14 19 15 28 0 10 2 12 6 3 3 -9 15 -3 39 18 81 71
222 123 374 140 161 17 163 17 85 18 -178 3 -348 -46 -449 -130 -40 -33 -66
-44 -66 -27 0 5 12 15 28 21 38 17 94 66 79 71 -17 5 187 103 258 123 33 9
103 22 155 29 94 12 94 12 30 13 -36 0 -99 -6 -140 -13z"/>
<path d="M6412 8240 c0 -55 12 -126 18 -110 5 14 4 157 -2 154 -3 -2 -9 2 -11
8 -3 7 -5 -16 -5 -52z"/>
<path d="M7552 8250 c0 -14 2 -19 5 -12 2 6 2 18 0 25 -3 6 -5 1 -5 -13z"/>
<path d="M4175 8251 c-19 -4 1 -7 55 -8 47 0 117 -8 156 -16 79 -17 197 -61
223 -84 9 -7 45 -33 81 -56 35 -23 79 -61 97 -85 18 -24 33 -39 33 -34 0 11
-50 80 -76 105 -65 61 -89 77 -176 115 -140 62 -291 86 -393 63z"/>
<path d="M5472 8220 c0 -14 2 -19 5 -12 2 6 2 18 0 25 -3 6 -5 1 -5 -13z"/>
<path d="M5990 8143 c-16 -109 -8 -267 19 -383 19 -79 57 -205 46 -150 -3 14
-17 81 -31 150 -23 112 -25 142 -22 298 2 94 3 172 2 172 -1 0 -8 -39 -14 -87z"/>
<path d="M7542 8200 c0 -14 2 -19 5 -12 2 6 2 18 0 25 -3 6 -5 1 -5 -13z"/>
<path d="M5485 8111 c6 -112 -11 -261 -45 -396 -15 -60 -26 -112 -25 -113 8
-9 56 168 70 251 17 102 19 241 5 302 -7 31 -8 22 -5 -44z"/>
<path d="M4178 8172 c-10 -4 24 -7 73 -7 50 -1 83 2 72 6 -23 10 -122 10 -145
1z"/>
<path d="M4450 8160 c112 -29 252 -103 301 -159 34 -39 38 -41 25 -15 -34 70
-164 149 -293 178 -100 22 -125 19 -33 -4z"/>
<path d="M6970 8156 c-97 -41 -142 -67 -193 -114 -49 -46 -127 -154 -127 -176
0 -6 18 16 39 49 61 92 125 148 236 205 130 67 142 77 45 36z"/>
<path d="M4358 8153 c7 -3 16 -2 19 1 4 3 -2 6 -13 5 -11 0 -14 -3 -6 -6z"/>
<path d="M7531 8144 c0 -11 3 -14 6 -6 3 7 2 16 -1 19 -3 4 -6 -2 -5 -13z"/>
<path d="M4438 8133 c7 -3 16 -2 19 1 4 3 -2 6 -13 5 -11 0 -14 -3 -6 -6z"/>
<path d="M7082 8129 c-115 -19 -270 -107 -319 -180 -10 -15 -2 -10 23 14 57
53 67 46 14 -10 -25 -26 -31 -35 -14 -20 49 44 49 31 0 -25 -25 -29 -46 -59
-46 -68 0 -9 6 -5 17 10 36 55 81 94 138 121 50 24 54 27 25 22 -19 -3 -46
-12 -58 -20 -13 -8 -26 -12 -29 -10 -7 8 42 38 69 42 13 2 50 11 83 20 33 9
101 17 150 18 78 1 85 2 50 10 -71 16 -226 -7 -329 -49 -40 -16 -4 17 47 43
102 51 156 65 285 70 74 4 118 9 110 14 -17 11 -146 9 -216 -2z"/>
<path d="M4496 8109 c4 -7 -8 -8 -33 -5 -29 4 -32 4 -13 -3 14 -5 36 -9 50
-10 38 -1 220 -82 220 -97 0 -4 -8 -3 -17 0 -13 5 -11 0 7 -20 l25 -28 -32 23
c-18 12 -33 26 -33 31 0 18 -295 111 -347 109 -27 -2 -27 -2 -3 -6 107 -18
310 -98 377 -149 41 -31 44 -30 39 8 -2 23 -14 41 -38 61 -35 28 -214 104
-202 86z"/>
<path d="M7521 8104 c0 -11 3 -14 6 -6 3 7 2 16 -1 19 -3 4 -6 -2 -5 -13z"/>
<path d="M6834 8052 c-45 -33 -94 -87 -129 -143 -40 -62 -29 -55 25 16 28 37
64 78 80 92 17 14 41 34 53 44 34 28 15 22 -29 -9z"/>
<path d="M7511 8064 c0 -11 3 -14 6 -6 3 7 2 16 -1 19 -3 4 -6 -2 -5 -13z"/>
<path d="M4250 8043 c65 -7 216 -41 250 -57 l35 -15 -40 4 c-39 5 -39 4 10
-11 28 -8 60 -15 72 -16 13 0 20 -4 18 -9 -3 -4 0 -11 6 -15 8 -4 9 -3 5 4
-13 21 7 13 36 -15 28 -27 51 -26 28 2 -18 22 -118 74 -175 90 -77 22 -206 45
-245 43 l-35 -1 35 -4z"/>
<path d="M4470 8027 c41 -12 111 -42 154 -65 44 -23 81 -40 83 -38 2 2 -18 17
-44 34 -59 38 -162 77 -223 86 -35 5 -29 1 30 -17z"/>
<path d="M7013 7990 c-144 -38 -224 -82 -206 -114 8 -15 11 -14 29 6 15 18 16
20 1 9 -9 -8 -20 -12 -22 -9 -15 15 141 85 223 100 31 6 66 14 77 19 39 16
-26 9 -102 -11z"/>
<path d="M6604 7960 c-14 -21 -24 -44 -22 -49 1 -6 15 12 29 39 32 60 29 65
-7 10z"/>
<path d="M6636 7950 c-15 -27 -25 -50 -23 -50 8 0 59 91 54 96 -2 2 -16 -18
-31 -46z"/>
<path d="M4428 7983 c7 -3 16 -2 19 1 4 3 -2 6 -13 5 -11 0 -14 -3 -6 -6z"/>
<path d="M7481 7954 c0 -11 3 -14 6 -6 3 7 2 16 -1 19 -3 4 -6 -2 -5 -13z"/>
<path d="M4295 7950 c102 -9 236 -46 281 -77 20 -13 34 -18 32 -11 -14 43
-198 99 -317 97 l-76 -2 80 -7z"/>
<path d="M7075 7953 c-16 -2 -52 -11 -80 -20 -27 -9 -57 -17 -66 -18 -25 -2
-80 -45 -73 -57 5 -7 2 -8 -5 -3 -7 4 -22 -2 -37 -16 -25 -23 -35 -50 -11 -31
38 32 214 114 273 128 96 22 96 30 -1 17z m-150 -59 c-38 -30 -61 -36 -32 -10
15 14 33 26 40 26 7 0 3 -8 -8 -16z"/>
<path d="M4450 7891 c58 -21 114 -42 124 -46 31 -13 10 13 -25 31 -30 15 -172
54 -193 53 -6 0 36 -17 94 -38z"/>
<path d="M7238 7923 c12 -2 30 -2 40 0 9 3 -1 5 -23 4 -22 0 -30 -2 -17 -4z"/>
<path d="M7113 7913 c15 -2 37 -2 50 0 12 2 0 4 -28 4 -27 0 -38 -2 -22 -4z"/>
<path d="M6721 7884 c-16 -37 -9 -39 11 -3 9 16 14 29 9 29 -4 0 -13 -12 -20
-26z"/>
<path d="M7012 7885 c-62 -14 -158 -61 -182 -91 -7 -8 28 6 78 31 51 26 121
52 159 60 37 7 55 13 38 13 -16 0 -58 -6 -93 -13z"/>
<path d="M4288 7883 c6 -2 18 -2 25 0 6 3 1 5 -13 5 -14 0 -19 -2 -12 -5z"/>
<path d="M4338 7873 c6 -2 18 -2 25 0 6 3 1 5 -13 5 -14 0 -19 -2 -12 -5z"/>
<path d="M4300 7844 c52 -14 111 -29 131 -33 19 -4 41 -11 47 -15 7 -4 12 -3
12 1 0 12 -39 35 -50 28 -5 -3 -35 3 -67 14 -32 11 -83 22 -113 26 -48 5 -43
2 40 -21z"/>
<path d="M4410 7861 c19 -4 55 -18 80 -31 41 -21 43 -21 27 -3 -19 22 -81 44
-118 42 -17 -1 -14 -3 11 -8z"/>
<path d="M7168 7863 c7 -3 16 -2 19 1 4 3 -2 6 -13 5 -11 0 -14 -3 -6 -6z"/>
<path d="M6776 7844 c-5 -14 -4 -15 9 -4 17 14 19 20 6 20 -5 0 -12 -7 -15
-16z"/>
<path d="M7050 7844 c-30 -8 -66 -16 -80 -18 -30 -3 -112 -45 -90 -46 9 0 26
7 38 16 13 9 25 14 28 11 3 -2 -14 -16 -38 -30 -24 -15 -37 -26 -31 -27 7 0
36 14 65 32 29 18 86 42 128 55 83 24 67 30 -20 7z"/>
<path d="M4230 7817 c47 -13 111 -33 144 -45 50 -19 57 -20 52 -7 -5 14 -1 16
27 10 24 -4 28 -3 16 4 -9 6 -29 10 -45 9 -16 0 -63 8 -105 20 -41 11 -97 23
-125 26 -38 5 -31 1 36 -17z"/>
<path d="M7085 7816 c-58 -14 -129 -47 -164 -76 -41 -35 -17 -32 36 3 55 37
129 63 218 76 l60 9 -50 0 c-27 0 -73 -5 -100 -12z"/>
<path d="M4168 7803 c7 -3 16 -2 19 1 4 3 -2 6 -13 5 -11 0 -14 -3 -6 -6z"/>
<path d="M4242 7751 c42 -9 84 -23 92 -31 9 -7 19 -10 22 -7 14 14 -116 58
-166 56 -14 0 10 -9 52 -18z"/>
<path d="M4330 7751 c24 -13 77 -24 65 -13 -5 5 -26 12 -45 16 -21 3 -29 2
-20 -3z"/>
<path d="M7016 7729 c-32 -17 -56 -32 -53 -35 5 -6 41 10 92 41 55 34 32 30
-39 -6z"/>
<path d="M7160 7749 c-45 -12 -151 -60 -168 -76 -21 -20 -1 -15 48 11 55 28
134 55 198 66 l47 8 -45 0 c-25 0 -61 -4 -80 -9z"/>
<path d="M4215 7719 c44 -11 91 -22 105 -25 l25 -5 -25 15 c-26 15 -128 37
-164 35 -12 0 15 -10 59 -20z"/>
<path d="M4130 7716 c0 -3 15 -10 33 -15 17 -6 59 -19 91 -30 68 -24 66 -24
66 -13 0 7 -54 25 -172 58 -10 3 -18 3 -18 0z"/>
<path d="M7150 7706 c-19 -8 -52 -23 -72 -36 -21 -12 -42 -19 -47 -16 -13 8
-22 -7 -13 -21 5 -8 26 0 64 22 31 19 76 41 100 49 24 8 34 15 23 15 -11 0
-36 -6 -55 -13z"/>
<path d="M7238 7693 c7 -3 16 -2 19 1 4 3 -2 6 -13 5 -11 0 -14 -3 -6 -6z"/>
<path d="M7165 7680 l-20 -9 20 0 c11 0 29 4 40 9 l20 9 -20 0 c-11 0 -29 -4
-40 -9z"/>
<path d="M7260 7670 l-45 -7 42 -1 c23 -1 45 3 48 8 3 6 5 9 3 8 -2 0 -23 -4
-48 -8z"/>
<path d="M7082 7634 c-53 -32 -48 -44 5 -15 21 12 52 26 68 30 l30 9 -30 1
c-16 0 -49 -11 -73 -25z"/>
<path d="M7180 7634 c-40 -13 -110 -48 -110 -55 0 -5 15 0 33 11 18 11 57 26
87 34 30 8 44 15 30 15 -14 -1 -32 -3 -40 -5z"/>
<path d="M7240 7619 c-67 -18 -150 -51 -150 -60 0 -12 1 -12 61 15 30 14 71
28 92 31 20 4 37 11 37 16 0 5 -1 9 -2 8 -2 0 -19 -5 -38 -10z"/>
<path d="M7308 7623 c6 -2 18 -2 25 0 6 3 1 5 -13 5 -14 0 -19 -2 -12 -5z"/>
<path d="M7200 7574 c-78 -26 -87 -31 -78 -39 2 -3 18 2 35 10 17 8 64 24 104
35 45 11 62 19 44 19 -16 0 -64 -11 -105 -25z"/>
<path d="M7242 7554 c-54 -14 -116 -43 -95 -44 7 0 52 13 100 30 91 31 88 39
-5 14z"/>
<path d="M7355 7560 c-3 -5 -15 -10 -26 -10 -31 0 -142 -40 -159 -57 -13 -14
-13 -15 0 -10 8 3 51 17 96 31 75 24 134 55 107 56 -6 0 -15 -4 -18 -10z"/>
<path d="M7374 7540 c-5 -5 -48 -21 -94 -35 -46 -14 -89 -30 -95 -37 -7 -8 -6
-10 5 -6 8 3 52 17 97 32 45 15 87 34 93 42 14 16 9 19 -6 4z"/>
<path d="M5255 7313 c11 -47 26 -145 22 -149 -2 -3 -14 19 -27 48 -12 29 -24
47 -27 41 -4 -12 50 -129 69 -148 13 -14 1 114 -18 183 -15 53 -32 75 -19 25z"/>
<path d="M6131 7255 c-12 -37 -21 -91 -21 -123 l0 -57 31 49 c35 56 54 104 45
113 -3 3 -19 -23 -35 -58 -35 -75 -39 -55 -11 56 11 43 18 80 16 82 -1 2 -13
-26 -25 -62z"/>
<path d="M4725 6891 c-44 -16 -107 -39 -140 -51 -37 -14 -72 -20 -92 -17 -18
3 -33 3 -33 -1 0 -7 65 -50 115 -75 24 -12 31 -23 33 -49 13 -166 86 -289 209
-350 58 -28 76 -32 137 -31 39 0 94 8 121 17 57 18 157 21 186 6 10 -6 28 -27
38 -48 l20 -37 1 72 c0 141 -57 339 -125 432 -109 148 -287 198 -470 132z m8
-143 c-31 -76 -27 -135 14 -210 58 -106 168 -151 287 -116 52 16 154 113 162
157 9 42 24 39 24 -4 0 -75 -55 -156 -135 -198 -62 -33 -183 -30 -251 5 -125
66 -198 213 -165 335 10 37 58 93 81 93 4 0 -4 -28 -17 -62z m364 47 c29 -20
38 -62 18 -91 -31 -47 -95 -14 -95 49 0 54 34 72 77 42z"/>
<path d="M6373 6856 c-101 -33 -198 -117 -247 -215 -31 -60 -72 -207 -81 -289
-3 -31 -8 -67 -11 -79 -6 -29 12 -30 21 -2 8 25 61 49 110 49 19 0 74 -12 122
-26 152 -45 255 -24 363 73 60 54 104 141 119 233 6 36 17 70 25 75 8 6 40 26
72 45 l56 35 -33 3 c-63 5 -124 23 -214 65 -80 36 -100 41 -175 44 -53 2 -101
-2 -127 -11z m205 -80 c47 -24 95 -102 100 -161 9 -114 -51 -228 -148 -278
-50 -26 -62 -28 -135 -25 -92 5 -145 27 -193 82 -49 56 -69 169 -37 212 13 18
14 16 15 -21 0 -59 52 -141 113 -179 67 -41 148 -47 211 -16 88 42 146 141
146 248 0 43 -1 44 -18 29 -22 -20 -61 -22 -85 -4 -22 15 -33 93 -16 113 14
17 14 17 47 0z m165 -148 c-7 -60 -30 -139 -47 -163 -8 -12 -5 8 10 50 13 39
24 82 24 97 0 25 9 58 15 58 2 0 1 -19 -2 -42z"/>
<path d="M5484 6080 c-17 -6 -37 -16 -43 -24 -20 -24 12 -74 60 -92 38 -16 69
-55 69 -88 0 -8 14 -31 31 -51 30 -34 31 -38 20 -75 -6 -22 -22 -52 -35 -67
-51 -61 -179 -100 -294 -89 -68 6 -76 -6 -14 -24 101 -28 229 -1 318 66 l45
34 32 -30 c95 -91 254 -132 372 -96 39 12 37 12 -65 19 -58 3 -122 11 -142 17
-82 24 -181 114 -194 175 -5 27 -1 33 32 55 37 24 48 39 76 105 10 23 21 31
51 36 24 4 51 18 70 37 29 30 30 32 14 50 -9 10 -34 24 -55 31 -47 16 -307 24
-348 11z m341 -40 c46 -23 38 -44 -20 -52 -60 -8 -81 -31 -91 -94 -10 -72 -52
-71 -55 1 -1 29 -2 29 -12 -8 -18 -63 -44 -44 -62 45 -7 36 -28 55 -75 68 -43
11 -52 32 -22 50 27 16 300 8 337 -10z"/>
<path d="M5136 5944 c-9 -23 -8 -24 19 -24 18 0 25 5 25 20 0 24 -35 28 -44 4z"/>
<path d="M5240 5939 c0 -11 5 -17 10 -14 6 3 10 13 10 21 0 8 -4 14 -10 14 -5
0 -10 -9 -10 -21z"/>
<path d="M6010 5875 c0 -8 5 -15 10 -15 6 0 10 7 10 15 0 8 -4 15 -10 15 -5 0
-10 -7 -10 -15z"/>
<path d="M6110 5874 c0 -9 7 -14 17 -12 25 5 28 28 4 28 -12 0 -21 -6 -21 -16z"/>
<path d="M5245 5821 c-7 -12 12 -24 25 -16 11 7 4 25 -10 25 -5 0 -11 -4 -15
-9z"/>
<path d="M5330 5820 c0 -5 5 -10 10 -10 6 0 10 5 10 10 0 6 -4 10 -10 10 -5 0
-10 -4 -10 -10z"/>
<path d="M5940 5791 c0 -5 5 -13 10 -16 6 -3 10 -2 10 4 0 5 -4 13 -10 16 -5
3 -10 2 -10 -4z"/>
<path d="M6025 5770 c-3 -5 -1 -10 4 -10 6 0 11 5 11 10 0 6 -2 10 -4 10 -3 0
-8 -4 -11 -10z"/>
<path d="M6115 5767 c-4 -10 -5 -21 -1 -24 10 -10 18 4 13 24 -4 17 -4 17 -12
0z"/>
<path d="M5068 5733 c12 -2 30 -2 40 0 9 3 -1 5 -23 4 -22 0 -30 -2 -17 -4z"/>
<path d="M4995 5682 c-127 -45 -210 -80 -203 -87 3 -3 36 9 74 26 38 17 114
46 169 64 55 19 93 34 85 34 -8 1 -64 -16 -125 -37z"/>
<path d="M6195 5710 c3 -5 17 -10 30 -10 33 0 268 -55 339 -80 75 -26 97 -25
31 1 -58 22 -162 51 -292 79 -106 23 -117 24 -108 10z"/>
<path d="M5098 5662 c-100 -40 -104 -55 -4 -18 47 18 89 36 93 39 13 13 -23 5
-89 -21z"/>
<path d="M6035 5630 c-3 -5 -1 -10 4 -10 6 0 11 5 11 10 0 6 -2 10 -4 10 -3 0
-8 -4 -11 -10z"/>
<path d="M4969 5589 l-24 -20 28 17 c15 9 27 18 27 20 0 8 -8 4 -31 -17z"/>
<path d="M6125 5600 c-3 -5 1 -10 9 -10 9 0 16 5 16 10 0 6 -4 10 -9 10 -6 0
-13 -4 -16 -10z"/>
<path d="M4828 5400 c-36 -52 -29 -51 12 0 17 22 28 40 23 40 -4 -1 -20 -19
-35 -40z"/>
<path d="M6651 5344 c46 -52 107 -142 153 -224 20 -36 36 -60 36 -55 0 15 -87
161 -130 220 -21 28 -50 61 -66 75 -22 19 -20 15 7 -16z"/>
<path d="M4736 4685 c14 -39 92 -151 145 -209 56 -61 241 -227 247 -222 2 2
-25 30 -60 62 -135 125 -225 222 -277 299 -61 92 -65 97 -55 70z"/>
<path d="M6668 4520 c-9 -53 -44 -140 -83 -206 -27 -46 -29 -52 -9 -29 50 59
111 209 102 253 -2 9 -7 2 -10 -18z"/>
<path d="M5391 4089 c100 -98 161 -187 189 -273 15 -50 19 -55 19 -30 1 43
-22 105 -58 158 -35 51 -132 149 -193 197 -24 18 -4 -5 43 -52z"/>
<path d="M6359 4097 c-117 -97 -257 -260 -298 -347 -10 -22 -9 -22 11 4 133
169 206 249 302 334 79 69 67 76 -15 9z"/>
<path d="M5601 4035 c-1 -5 11 -44 24 -85 16 -47 23 -61 20 -36 -6 38 -44 141
-44 121z"/>
<path d="M5665 3930 c9 -16 18 -30 21 -30 2 0 -2 14 -11 30 -9 17 -18 30 -21
30 -2 0 2 -13 11 -30z"/>
<path d="M6045 3858 c-20 -81 -57 -156 -141 -290 -31 -49 -54 -91 -52 -94 7
-6 110 151 152 230 32 60 75 211 63 222 -2 3 -13 -28 -22 -68z"/>
<path d="M5694 3874 c18 -44 64 -215 70 -260 6 -44 -6 -135 -28 -209 -4 -11 1
-4 10 15 29 62 39 152 26 229 -14 86 -59 228 -74 237 -8 5 -9 1 -4 -12z"/>
<path d="M5651 3844 c0 -11 3 -14 6 -6 3 7 2 16 -1 19 -3 4 -6 -2 -5 -13z"/>
<path d="M2872 2810 c0 -14 2 -19 5 -12 2 6 2 18 0 25 -3 6 -5 1 -5 -13z"/>
<path d="M2882 2735 c0 -16 2 -22 5 -12 2 9 2 23 0 30 -3 6 -5 -1 -5 -18z"/>
<path d="M2892 2660 c0 -14 2 -19 5 -12 2 6 2 18 0 25 -3 6 -5 1 -5 -13z"/>
<path d="M2902 2610 c0 -14 2 -19 5 -12 2 6 2 18 0 25 -3 6 -5 1 -5 -13z"/>
<path d="M5391 2484 c0 -11 3 -14 6 -6 3 7 2 16 -1 19 -3 4 -6 -2 -5 -13z"/>
<path d="M5331 2464 c0 -11 3 -14 6 -6 3 7 2 16 -1 19 -3 4 -6 -2 -5 -13z"/>
<path d="M5382 2440 c0 -14 2 -19 5 -12 2 6 2 18 0 25 -3 6 -5 1 -5 -13z"/>
<path d="M3096 2401 c10 -37 33 -88 33 -71 0 8 -9 33 -20 55 -10 22 -16 29
-13 16z"/>
<path d="M3277 2305 c114 -133 220 -218 347 -275 94 -43 94 -37 1 13 -122 64
-171 100 -289 216 -79 77 -95 89 -59 46z"/>
<path d="M5313 2260 c0 -25 2 -35 4 -22 2 12 2 32 0 45 -2 12 -4 2 -4 -23z"/>
<path d="M5392 2270 c0 -19 2 -27 5 -17 2 9 2 25 0 35 -3 9 -5 1 -5 -18z"/>
<path d="M3221 2223 c40 -75 195 -230 269 -267 16 -8 8 -1 -98 87 -54 44 -129
128 -180 203 -7 11 -3 0 9 -23z"/>
<path d="M5382 2205 c0 -16 2 -22 5 -12 2 9 2 23 0 30 -3 6 -5 -1 -5 -18z"/>
<path d="M3170 2215 c0 -5 5 -17 10 -25 5 -8 10 -10 10 -5 0 6 -5 17 -10 25
-5 8 -10 11 -10 5z"/>
<path d="M3110 2193 c0 -13 152 -283 172 -305 l20 -23 -19 30 c-22 34 -98 173
-138 253 -24 48 -35 62 -35 45z"/>
<path d="M5401 2154 c0 -11 3 -14 6 -6 3 7 2 16 -1 19 -3 4 -6 -2 -5 -13z"/>
<path d="M5474 2080 c0 -52 1 -74 3 -47 2 26 2 68 0 95 -2 26 -3 4 -3 -48z"/>
<path d="M3221 2110 c37 -60 115 -146 173 -189 50 -37 255 -146 261 -139 2 2
-49 30 -112 63 -128 66 -246 165 -305 256 -38 59 -50 66 -17 9z"/>
<path d="M5392 2100 c0 -14 2 -19 5 -12 2 6 2 18 0 25 -3 6 -5 1 -5 -13z"/>
<path d="M3100 2105 c0 -5 5 -17 10 -25 5 -8 10 -10 10 -5 0 6 -5 17 -10 25
-5 8 -10 11 -10 5z"/>
<path d="M5421 2074 c0 -11 3 -14 6 -6 3 7 2 16 -1 19 -3 4 -6 -2 -5 -13z"/>
<path d="M5382 2045 c0 -16 2 -22 5 -12 2 9 2 23 0 30 -3 6 -5 -1 -5 -18z"/>
<path d="M5351 2034 c0 -11 3 -14 6 -6 3 7 2 16 -1 19 -3 4 -6 -2 -5 -13z"/>
<path d="M3130 2036 c0 -14 78 -144 91 -152 7 -4 7 0 0 12 -7 11 -30 48 -51
84 -22 36 -40 61 -40 56z"/>
<path d="M5412 2010 c0 -19 2 -27 5 -17 2 9 2 25 0 35 -3 9 -5 1 -5 -18z"/>
<path d="M5373 1955 c0 -27 2 -38 4 -22 2 15 2 37 0 50 -2 12 -4 0 -4 -28z"/>
<path d="M5452 1975 c0 -16 2 -22 5 -12 2 9 2 23 0 30 -3 6 -5 -1 -5 -18z"/>
<path d="M5522 1955 c-1 -22 -5 -85 -8 -140 -4 -74 -2 -96 6 -83 7 11 9 63 7
140 -1 68 -4 105 -5 83z"/>
<path d="M3287 1945 c69 -91 190 -183 331 -254 85 -43 78 -31 -10 18 -112 61
-217 138 -287 210 -41 42 -53 51 -34 26z"/>
<path d="M3510 1946 c0 -3 9 -10 20 -16 11 -6 20 -8 20 -6 0 3 -9 10 -20 16
-11 6 -20 8 -20 6z"/>
<path d="M5482 1905 c0 -16 2 -22 5 -12 2 9 2 23 0 30 -3 6 -5 -1 -5 -18z"/>
<path d="M5436 1809 c-4 -33 -5 -63 -3 -66 3 -2 8 23 12 57 4 34 5 63 2 66 -2
3 -7 -23 -11 -57z"/>
<path d="M5473 1780 c0 -30 2 -43 4 -27 2 15 2 39 0 55 -2 15 -4 2 -4 -28z"/>
<path d="M3280 1786 c36 -38 158 -131 165 -124 3 3 -134 116 -179 147 -12 8
-5 -2 14 -23z"/>
<path d="M3210 1772 c18 -24 35 -40 38 -37 3 3 -11 22 -33 43 l-38 37 33 -43z"/>
<path d="M4890 1757 c-46 -13 -93 -36 -75 -37 6 0 28 7 50 15 52 19 185 19
255 0 71 -19 75 -18 20 7 -56 26 -185 33 -250 15z"/>
<path d="M3430 1706 c0 -7 93 -66 104 -66 6 0 -7 11 -29 25 -22 13 -48 29 -57
35 -10 6 -18 9 -18 6z"/>
<path d="M6923 3290 c-7 -63 -26 -162 -42 -220 -16 -58 -28 -106 -26 -108 2
-2 15 33 29 78 34 106 58 246 54 312 -2 43 -5 31 -15 -62z"/>
<path d="M6935 2588 c-26 -67 -51 -119 -137 -278 -17 -30 -25 -50 -20 -45 42
40 212 395 189 395 -2 0 -16 -33 -32 -72z"/>
<path d="M6835 2459 c-4 -6 -5 -12 -2 -15 2 -3 7 2 10 11 7 17 1 20 -8 4z"/>
<path d="M6585 2298 l-70 -73 73 70 c39 38 72 71 72 72 0 8 -11 -2 -75 -69z"/>
<path d="M6645 2209 c-22 -22 -67 -61 -100 -87 -75 -57 -87 -68 -55 -52 41 20
156 117 180 150 29 41 22 38 -25 -11z"/>
<path d="M1561 3003 c-2 -48 53 -252 66 -240 2 3 -4 23 -13 46 -9 24 -25 81
-34 129 -10 48 -18 77 -19 65z"/>
<path d="M1505 2915 c2 -48 13 -94 34 -145 35 -88 40 -80 9 16 -12 38 -27 98
-34 134 l-13 65 4 -70z"/>
<path d="M1505 2790 c13 -79 105 -272 162 -337 76 -89 340 -279 359 -260 2 2
-24 17 -57 33 -36 17 -109 70 -178 129 -96 84 -125 115 -167 185 -29 47 -55
96 -59 110 -5 20 -2 18 16 -10 72 -115 116 -172 176 -225 61 -55 162 -135 170
-135 9 0 -2 10 -44 41 -122 87 -222 198 -293 327 -13 23 -27 38 -30 32 -3 -5
-19 25 -34 68 -15 42 -25 61 -21 42z"/>
<path d="M1938 2197 c13 -16 121 -72 126 -66 3 2 -28 21 -66 42 -39 21 -66 32
-60 24z"/>
<path d="M1840 2196 c0 -3 9 -10 20 -16 11 -6 20 -8 20 -6 0 3 -9 10 -20 16
-11 6 -20 8 -20 6z"/>
<path d="M2095 2120 c27 -12 43 -12 25 0 -8 5 -22 9 -30 9 -10 0 -8 -3 5 -9z"/>
<path d="M2228 2013 c6 -2 18 -2 25 0 6 3 1 5 -13 5 -14 0 -19 -2 -12 -5z"/>
<path d="M2258 1983 c6 -2 18 -2 25 0 6 3 1 5 -13 5 -14 0 -19 -2 -12 -5z"/>
<path d="M2318 1973 c12 -2 30 -2 40 0 9 3 -1 5 -23 4 -22 0 -30 -2 -17 -4z"/>
<path d="M2740 1824 c-52 -18 -131 -38 -175 -44 -107 -16 -138 -30 -50 -23 76
6 247 53 304 83 49 26 32 23 -79 -16z"/>
<path d="M2995 1851 c-6 -6 -37 -24 -70 -41 -38 -20 -49 -29 -31 -25 36 8 137
75 113 75 -2 0 -7 -4 -12 -9z"/>
<path d="M6845 1540 c3 -5 8 -10 11 -10 2 0 4 5 4 10 0 6 -5 10 -11 10 -5 0
-7 -4 -4 -10z"/>
<path d="M6811 1477 l-34 -42 38 37 c22 21 37 39 34 42 -2 2 -19 -14 -38 -37z"/>
<path d="M6871 1504 c0 -11 3 -14 6 -6 3 7 2 16 -1 19 -3 4 -6 -2 -5 -13z"/>
<path d="M6744 1424 c-18 -14 -18 -15 4 -4 12 6 22 13 22 15 0 8 -5 6 -26 -11z"/>
</g>
</svg>
