<?xml version="1.0" standalone="no"?>
<!DOCTYPE svg PUBLIC "-//W3C//DTD SVG 20010904//EN"
 "http://www.w3.org/TR/2001/REC-SVG-20010904/DTD/svg10.dtd">
<svg version="1.0" xmlns="http://www.w3.org/2000/svg"
 width="1024.000000pt" height="1024.000000pt" viewBox="0 0 1024.000000 1024.000000"
 preserveAspectRatio="xMidYMid meet">
<metadata>
Created by potrace 1.16, written by Peter Selinger 2001-2019
</metadata>
<g transform="translate(0.000000,1024.000000) scale(0.100000,-0.100000)"
fill="#000000" stroke="none">
<path d="M4526 7935 c-49 -51 -82 -77 -100 -79 -30 -4 -99 -49 -127 -84 -17
-22 -19 -22 -19 -6 0 11 7 44 15 74 20 76 20 139 -1 147 -17 6 -53 -27 -192
-181 l-62 -69 3 79 c2 68 0 79 -16 82 -21 4 -70 -47 -155 -160 -31 -42 -60
-77 -63 -78 -3 0 -7 37 -7 82 -1 84 -14 115 -43 103 -18 -7 -66 -74 -100 -139
-30 -56 -39 -48 -39 38 0 29 -6 61 -14 71 -13 18 -15 18 -39 2 -15 -9 -50 -64
-85 -134 l-61 -118 2 102 c2 106 -6 131 -38 119 -19 -7 -82 -138 -121 -253
l-29 -82 -11 57 c-29 140 -66 232 -94 232 -19 0 -41 -51 -51 -117 -5 -37 -14
-77 -19 -88 -4 -11 -14 -41 -20 -67 -7 -27 -16 -48 -20 -48 -4 0 -11 17 -15
38 -7 42 -53 162 -66 177 -26 27 -72 -95 -94 -247 -4 -27 -10 -48 -14 -48 -4
0 -17 28 -30 63 -12 34 -36 89 -54 122 -26 48 -37 60 -56 60 -32 0 -44 -40
-36 -115 6 -59 -4 -220 -14 -220 -3 0 -19 19 -36 43 -45 64 -105 135 -121 141
-19 7 -41 -2 -48 -21 -4 -9 4 -60 16 -114 12 -54 19 -101 15 -105 -3 -4 -18 8
-33 25 -21 25 -29 29 -40 20 -8 -6 -14 -26 -14 -44 0 -42 33 -150 64 -206 13
-24 33 -82 45 -129 33 -126 42 -151 52 -145 5 4 9 -1 9 -9 0 -17 16 -30 23
-19 3 5 -5 40 -18 80 -12 40 -26 94 -30 120 -3 26 -15 82 -26 125 -23 93 -26
146 -5 129 13 -11 38 -95 76 -261 30 -131 15 -8 -21 164 -16 77 -31 167 -35
200 -4 34 -13 73 -21 89 -7 15 -12 27 -9 27 12 0 148 -192 170 -240 23 -50 44
-154 61 -302 3 -32 17 -95 30 -140 25 -91 34 -90 11 1 -24 91 -48 288 -49 396
-1 95 12 387 17 393 2 1 26 -58 54 -131 56 -143 60 -170 41 -292 -6 -38 -11
-110 -11 -160 -1 -72 -2 -81 -8 -45 -6 37 -7 39 -8 14 -1 -17 -4 -51 -6 -75
-3 -35 -2 -38 4 -14 4 17 9 -59 11 -180 2 -132 4 -167 6 -95 5 223 23 506 38
620 23 162 74 410 86 410 9 0 43 -81 63 -150 9 -30 22 -112 28 -182 11 -119
11 -132 -11 -225 -72 -315 -93 -410 -112 -525 -11 -70 -19 -133 -17 -140 2 -6
12 35 22 93 41 239 112 543 166 713 35 110 52 207 48 266 -3 38 -6 28 -21 -62
-10 -59 -24 -124 -32 -145 -14 -36 -15 -34 -11 67 3 81 11 128 34 204 17 55
34 123 38 152 8 64 24 62 24 -4 0 -40 2 -44 13 -28 13 17 14 17 25 -10 6 -16
14 -47 18 -69 3 -22 12 -62 20 -89 16 -58 19 -150 4 -141 -5 3 -11 30 -12 58
-1 29 -5 -36 -9 -143 -4 -111 -14 -221 -22 -255 -67 -276 -120 -534 -112 -544
5 -5 18 50 60 254 21 99 44 197 51 218 7 20 22 85 33 144 22 114 61 210 113
276 45 57 42 53 94 132 25 39 52 77 60 85 12 12 14 11 14 -10 0 -14 -11 -99
-25 -190 -14 -91 -25 -183 -25 -206 0 -53 -15 -96 -56 -161 -18 -29 -45 -74
-58 -101 -32 -62 -106 -277 -106 -306 0 -11 17 29 38 90 40 114 125 296 148
314 7 7 3 -19 -12 -65 -29 -92 -58 -275 -46 -287 5 -5 12 12 15 40 3 27 17 89
31 138 13 49 28 114 32 144 7 59 30 112 101 228 24 41 59 106 78 145 18 40 45
92 60 117 19 32 20 38 6 20 -12 -14 -44 -70 -72 -125 -66 -128 -133 -225 -138
-199 -6 34 21 129 56 194 20 36 73 117 118 181 46 64 90 131 100 148 9 18 19
31 22 28 2 -3 -1 -15 -7 -27 -11 -20 -10 -21 12 -15 12 4 33 13 46 21 34 22
27 11 -33 -57 -31 -34 -53 -64 -50 -67 3 -3 6 -3 8 -1 2 2 25 31 53 64 28 33
58 71 67 85 35 51 15 2 -28 -70 -25 -41 -50 -93 -56 -115 -22 -89 -72 -200
-115 -256 -89 -115 -189 -332 -224 -486 -11 -48 -23 -96 -26 -107 -4 -11 -2
-16 4 -12 5 3 20 43 32 88 31 117 87 272 120 337 47 92 160 257 160 233 0 -11
-4 -24 -10 -27 -5 -3 -10 -17 -10 -31 0 -14 -34 -91 -76 -172 -87 -167 -157
-327 -152 -344 2 -6 21 30 42 80 21 50 67 144 102 208 36 64 81 154 101 200
29 68 48 96 97 142 33 31 75 80 93 107 l33 50 -38 -44 c-20 -25 -62 -69 -92
-99 -60 -58 -71 -54 -46 18 8 24 12 48 9 53 -4 6 -1 7 7 2 10 -6 12 -3 7 14
-3 13 -3 20 0 17 3 -3 16 23 28 57 12 34 35 89 52 122 69 138 104 205 107 205
12 0 -22 -374 -39 -430 -7 -25 -17 -65 -20 -90 -4 -25 -13 -58 -20 -75 -7 -16
-22 -57 -33 -90 -35 -102 -71 -191 -71 -175 0 8 13 69 29 135 17 66 30 134 30
152 0 17 5 35 10 38 6 3 10 18 10 33 0 26 0 26 -20 -8 -33 -58 -80 -150 -80
-155 1 -12 -32 -62 -61 -95 l-31 -35 23 40 c12 22 29 49 38 60 10 13 6 11 -12
-5 -16 -14 -56 -81 -89 -150 -33 -69 -84 -175 -114 -235 -43 -87 -53 -115 -47
-133 8 -21 11 -17 26 32 32 100 144 323 185 368 22 24 54 70 71 103 18 33 36
64 42 70 11 11 -27 -102 -40 -119 -4 -6 -14 -27 -20 -47 -7 -21 -20 -47 -30
-58 -37 -43 -130 -324 -102 -306 6 3 11 13 11 22 0 48 131 360 159 377 17 11
-20 -154 -70 -313 -31 -97 -32 -138 -2 -60 38 97 173 320 240 398 27 30 56 66
65 80 23 34 23 17 -2 -70 -14 -53 -43 -109 -113 -218 -86 -135 -117 -191 -117
-209 0 -4 13 16 28 43 15 28 54 86 87 130 32 44 69 95 82 113 13 17 30 32 37
32 7 0 33 24 58 53 43 49 112 97 123 85 3 -3 0 -18 -7 -34 -14 -33 -144 -240
-185 -294 -19 -26 -15 -24 16 10 61 66 239 346 227 358 -3 2 -17 -3 -30 -12
-60 -39 -40 -8 69 107 64 67 121 131 127 142 5 11 -50 -42 -122 -117 -127
-133 -157 -158 -146 -120 3 9 10 37 16 61 19 73 154 202 247 237 22 9 27 13
13 11 -14 -3 -34 -8 -45 -12 -11 -5 -2 8 20 28 22 20 44 36 50 37 5 0 26 17
48 38 l38 37 -7 -45 c-9 -61 -28 -104 -64 -150 -17 -21 -46 -73 -66 -116 -19
-43 -49 -95 -65 -116 -17 -21 -28 -42 -25 -46 3 -5 -1 -18 -10 -28 -14 -18
-14 -17 -3 6 23 49 -18 -2 -52 -65 -50 -93 -77 -134 -119 -179 -28 -30 -49
-70 -74 -140 -20 -54 -36 -108 -35 -120 0 -14 2 -16 6 -6 3 8 12 31 21 50 8
19 15 40 16 45 4 30 39 115 53 127 15 11 16 11 8 -7 -4 -11 -16 -45 -26 -75
-10 -30 -23 -63 -29 -72 -16 -28 -12 -45 6 -20 8 12 29 64 45 115 16 50 34 99
40 107 11 15 10 10 -7 -52 -11 -39 11 -7 29 43 12 31 34 60 71 92 30 26 60 47
67 47 6 0 60 50 118 110 59 61 110 110 114 110 23 0 -100 -197 -143 -229 -32
-23 -198 -219 -243 -286 -15 -22 -27 -51 -27 -66 0 -24 5 -21 69 40 38 36 77
80 87 96 10 17 -10 -1 -45 -38 -35 -37 -66 -66 -68 -63 -15 14 131 212 211
286 35 31 33 28 -55 -157 -74 -153 -88 -193 -70 -193 6 0 11 3 11 8 0 4 28 42
63 85 128 158 302 235 504 225 166 -9 288 -71 381 -194 84 -111 119 -228 109
-369 -7 -95 -32 -173 -81 -249 -94 -146 -223 -236 -377 -261 -24 -4 -55 -14
-69 -23 l-25 -16 30 -8 c41 -12 138 0 205 25 109 40 247 162 304 269 22 42 24
43 87 50 35 4 124 15 198 24 74 9 218 19 320 24 102 4 241 16 308 25 116 17
126 17 192 1 46 -11 76 -14 87 -8 67 37 -212 46 -395 12 -30 -5 -95 -10 -145
-10 -90 -1 -204 -10 -381 -30 -49 -6 -122 -13 -162 -17 -70 -6 -72 -5 -66 16
3 12 9 23 13 26 28 17 926 106 1085 107 55 0 82 4 70 9 -18 7 -18 8 5 9 32 1
117 23 126 33 4 4 -11 7 -34 7 -22 0 -64 5 -92 11 -27 6 -89 14 -138 18 l-87
6 120 59 c133 64 245 106 284 106 22 0 18 -5 -26 -29 -28 -16 -64 -38 -79 -50
-32 -25 -112 -50 -168 -53 -23 0 11 -4 74 -8 63 -4 135 -15 159 -24 25 -9 74
-21 111 -27 81 -12 151 -35 130 -43 -8 -2 -48 -12 -89 -21 -40 -9 -100 -27
-133 -40 -33 -14 -77 -27 -97 -31 -54 -10 -60 -18 -21 -25 19 -4 75 -15 124
-24 84 -17 96 -17 205 -1 64 9 136 21 161 26 60 13 266 30 363 30 83 0 96 -13
25 -24 -24 -4 -90 -23 -147 -42 -57 -19 -135 -41 -172 -50 -77 -17 -92 -29
-26 -19 46 7 292 -19 345 -36 106 -35 -105 -36 -316 -2 -70 11 -99 19 -90 26
9 6 7 6 -7 1 -21 -8 -55 -13 -296 -44 -133 -18 -167 -19 -225 -9 -38 6 -130
11 -204 11 l-135 0 95 8 c133 11 463 63 501 80 31 14 9 11 -261 -29 -215 -31
-289 -37 -590 -46 -206 -6 -412 -24 -405 -34 2 -4 37 -4 77 0 137 13 512 14
673 2 488 -38 492 -38 583 -74 28 -12 52 -25 52 -29 0 -10 -44 -17 -155 -25
-60 -5 -107 -1 -190 14 -101 19 -258 34 -635 62 -80 5 -172 14 -205 19 -85 14
-107 12 -60 -5 22 -8 112 -19 200 -25 416 -26 776 -65 810 -88 5 -4 70 -7 144
-7 98 0 135 3 138 13 3 8 -8 12 -34 13 -38 1 -38 1 -8 10 23 6 73 -3 230 -43
198 -50 348 -105 295 -108 -14 0 -61 -5 -105 -10 -71 -8 -187 -20 -353 -35
-66 -6 -60 8 10 24 60 13 241 30 279 26 13 -1 16 0 6 2 -11 3 -16 10 -13 19 7
17 9 17 -89 0 -44 -8 -145 -20 -225 -27 -151 -13 -248 -7 -565 36 -55 7 -125
16 -155 20 -92 10 -313 45 -343 55 -36 11 -85 -1 -66 -17 62 -49 325 -173 369
-173 6 0 55 -18 108 -39 53 -22 120 -42 147 -45 41 -4 45 -3 25 6 -14 5 -41
17 -60 26 -19 9 -44 17 -55 18 -64 5 -443 156 -459 183 -6 9 114 -11 173 -30
20 -6 88 -34 151 -61 63 -27 142 -61 175 -75 33 -14 79 -39 103 -54 24 -16 50
-29 58 -29 9 0 43 -26 77 -58 73 -69 165 -141 264 -206 39 -26 80 -57 90 -68
18 -21 18 -21 -7 -15 -14 3 -59 13 -101 22 -89 18 -167 48 -300 115 -55 28
-142 61 -205 78 -104 28 -184 62 -229 96 -18 13 -13 14 45 0 36 -8 76 -19 90
-24 39 -15 202 -51 207 -46 3 3 -21 12 -53 21 -365 100 -454 137 -356 148 20
2 11 3 -20 2 -55 -3 -58 -2 -135 57 -102 79 -334 233 -387 257 -73 34 -196 81
-209 81 -6 -1 31 -19 83 -40 93 -39 210 -97 220 -109 3 -3 57 -41 120 -83 130
-87 242 -173 235 -180 -2 -2 21 -19 53 -38 31 -19 89 -55 127 -81 39 -25 88
-51 110 -57 121 -32 159 -44 241 -80 235 -105 261 -122 432 -290 105 -104 233
-201 378 -290 187 -114 119 -100 -157 32 -42 21 -221 151 -280 203 -76 69
-139 116 -145 110 -3 -3 20 -23 52 -46 31 -23 52 -41 46 -41 -14 0 -61 34
-159 114 -81 67 -90 87 -16 34 64 -46 73 -51 73 -41 0 5 -15 17 -32 28 -36 21
-239 163 -275 192 -12 10 -28 18 -35 19 -7 1 -34 11 -61 23 -26 12 -61 24 -78
26 -17 2 -38 9 -47 16 -9 7 1 -6 23 -30 45 -47 198 -172 296 -241 35 -24 132
-113 215 -197 154 -157 225 -210 106 -80 -128 139 -215 220 -331 305 -101 75
-235 183 -266 215 -5 5 19 -5 55 -24 36 -19 67 -37 70 -40 10 -12 72 -40 66
-30 -4 6 -4 11 -1 11 12 0 165 -113 160 -118 -3 -3 -16 5 -30 18 -14 13 -27
21 -30 18 -3 -3 26 -31 65 -63 53 -43 68 -61 58 -68 -10 -6 -9 -8 4 -4 9 3 29
-5 45 -19 15 -14 43 -34 61 -45 33 -21 43 -49 17 -49 -9 0 0 -14 23 -34 21
-19 58 -60 82 -92 25 -31 58 -73 74 -93 17 -20 24 -30 16 -23 -23 20 -34 13
-14 -9 10 -12 53 -38 94 -59 67 -34 115 -66 339 -226 35 -25 61 -47 58 -50
-15 -16 -326 165 -466 270 -51 39 -107 81 -123 92 -16 12 -32 24 -35 28 -12
12 62 -6 85 -21 29 -18 42 -9 20 13 -9 9 -37 18 -62 20 -64 5 -157 53 -250
128 -44 36 -84 62 -89 59 -6 -3 -7 -1 -3 5 3 5 -9 19 -26 31 -18 11 -132 121
-254 243 -167 170 -244 239 -315 288 -52 35 -137 92 -189 128 -105 71 -236
140 -385 201 -141 59 -141 50 0 -13 180 -79 248 -116 380 -203 235 -156 435
-348 640 -618 37 -49 83 -106 101 -125 34 -37 128 -190 121 -197 -3 -2 -19 22
-37 53 -92 163 -370 481 -540 617 -198 158 -495 319 -712 387 -34 11 -64 18
-66 16 -2 -2 21 -12 50 -21 196 -65 494 -223 671 -357 184 -138 331 -293 468
-492 138 -200 248 -373 283 -443 14 -29 44 -80 66 -114 22 -34 44 -77 49 -96
11 -39 127 -247 147 -264 20 -16 17 -5 -12 52 -14 28 -26 65 -27 83 -1 18 -10
44 -20 59 -9 14 -17 30 -17 34 0 12 -50 57 -50 45 0 -6 5 -14 11 -18 12 -7 69
-127 69 -141 -1 -5 -15 19 -32 52 -16 33 -37 68 -45 77 -9 10 -13 25 -9 33 4
11 -21 61 -65 136 -40 66 -70 122 -67 124 3 3 34 -25 69 -63 51 -54 70 -84 91
-143 24 -66 35 -81 90 -129 35 -30 111 -102 170 -161 59 -60 133 -125 164
-146 67 -44 92 -86 123 -208 11 -43 19 -80 18 -82 -6 -5 -158 177 -273 327
-117 154 -154 200 -142 175 28 -55 113 -183 119 -180 8 5 49 -47 49 -62 -1 -4
-12 6 -26 22 -15 17 -23 23 -18 15 14 -26 87 -110 92 -105 2 2 25 -22 51 -54
112 -141 147 -180 165 -180 23 -1 129 -111 164 -170 15 -25 45 -64 67 -86 22
-22 32 -29 22 -15 -27 40 -59 102 -54 106 9 9 87 -91 99 -126 6 -19 28 -67 49
-107 36 -67 37 -74 24 -100 -8 -16 -30 -84 -50 -152 -61 -211 -123 -308 -233
-358 -47 -22 -72 -26 -193 -30 l-141 -5 18 27 c9 14 39 37 66 51 63 32 64 54
3 54 -60 0 -103 -19 -141 -62 -28 -32 -38 -36 -97 -42 -37 -4 -71 -5 -77 -1
-6 4 -2 20 12 44 12 21 19 45 15 54 -9 24 -73 22 -122 -3 -48 -24 -56 -20 -16
9 44 32 122 64 241 101 107 33 146 34 214 5 14 -6 17 -4 15 10 -3 11 -36 31
-94 57 -93 40 -339 128 -359 128 -6 0 16 -16 49 -34 68 -39 76 -34 -85 -60
-196 -32 -416 -39 -995 -32 -522 5 -746 14 -760 28 -4 3 5 58 19 121 42 184
32 426 -23 592 -18 53 -20 55 -16 20 3 -22 9 -90 15 -152 38 -453 -165 -925
-419 -973 -63 -12 -311 -14 -311 -2 0 24 37 53 85 68 42 12 55 20 55 35 0 40
-125 17 -194 -36 -23 -18 -45 -25 -76 -25 l-43 0 27 21 c17 14 26 29 24 43 -3
19 -9 21 -60 19 -32 -1 -58 0 -58 3 0 16 115 54 185 61 79 8 79 8 89 41 6 23
4 54 -8 110 -48 222 -217 429 -429 528 -58 26 -99 32 -52 7 54 -29 174 -133
235 -203 86 -100 172 -241 156 -257 -11 -12 -348 68 -521 124 -60 20 -193 71
-295 115 -522 224 -805 430 -1006 735 -61 92 -167 303 -152 303 5 0 22 -7 38
-15 47 -24 190 -55 250 -54 30 1 46 3 35 6 -61 14 -212 66 -263 92 -86 43
-228 141 -299 206 -83 74 -297 365 -281 380 3 3 25 -4 50 -15 103 -45 256 -66
378 -51 90 12 242 60 237 75 -9 26 -38 30 -85 13 -72 -25 -196 -40 -277 -32
-126 11 -290 62 -349 108 -19 14 -18 15 20 35 55 28 127 108 149 165 21 56 16
110 -17 183 -12 27 -26 57 -30 67 -7 17 -2 18 57 15 35 -1 67 1 71 5 4 4 -13
7 -37 7 l-44 1 34 14 c19 9 71 52 116 98 123 123 178 218 245 416 45 135 52
183 16 105 -24 -52 -54 -72 -75 -51 -15 15 -14 132 3 219 30 152 109 327 197
434 51 61 51 89 -6 256 -49 142 -106 240 -144 246 -18 3 -21 -2 -21 -30 0 -18
12 -58 26 -88 16 -34 21 -56 14 -58 -34 -12 -110 -74 -142 -117 -50 -66 -71
-133 -72 -225 0 -90 21 -165 68 -243 l35 -58 -15 -72 c-9 -40 -16 -122 -17
-182 -2 -98 -5 -114 -24 -139 -27 -34 -31 -115 -8 -159 18 -35 11 -54 -49
-133 -55 -73 -142 -148 -211 -180 -61 -29 -76 -29 -143 -4 -125 48 -242 6
-293 -105 -22 -48 -25 -152 -5 -207 22 -61 84 -135 149 -178 95 -62 105 -73
142 -161 71 -165 247 -380 398 -486 84 -60 85 -61 152 -218 26 -59 53 -119 62
-134 82 -131 141 -209 232 -303 161 -168 298 -268 541 -396 l115 -61 73 -143
c48 -95 74 -156 75 -182 l2 -38 -82 -28 c-143 -48 -233 -139 -233 -236 0 -33
2 -36 23 -30 65 19 85 19 91 -2 7 -20 14 -20 254 -19 272 2 282 4 386 72 60
40 166 161 206 237 17 32 35 60 40 63 13 8 233 -37 242 -49 4 -6 8 -23 8 -38
0 -23 -5 -28 -35 -33 -19 -3 -52 -8 -72 -11 -61 -9 -165 -62 -211 -107 -50
-48 -67 -76 -76 -131 l-7 -38 48 4 c36 3 52 0 63 -13 14 -16 20 -16 85 -3 38
8 85 14 105 12 30 -3 35 -7 38 -31 l3 -27 112 6 c336 17 387 29 476 109 45 41
135 170 173 249 l23 48 90 -6 c50 -4 207 -11 350 -16 143 -5 261 -9 263 -10 1
0 -5 -14 -14 -32 -17 -33 -24 -101 -12 -114 4 -3 30 1 57 10 63 20 61 20 61
-8 0 -24 1 -24 85 -18 56 3 85 1 85 -6 0 -15 350 -4 423 14 72 17 135 61 172
119 21 33 35 46 59 50 94 15 349 45 382 44 34 -1 27 -5 -56 -32 -195 -65 -252
-121 -284 -278 -8 -37 13 -53 50 -38 60 24 92 28 99 12 4 -13 23 -14 125 -8
110 6 120 5 120 -10 0 -15 6 -17 48 -11 26 4 117 11 202 15 142 7 160 10 215
37 120 57 189 159 254 374 18 58 37 120 42 138 6 17 16 32 22 32 7 0 37 -20
67 -45 88 -72 124 -56 88 38 -34 90 -21 100 34 27 48 -62 87 -85 114 -65 16
11 19 26 18 86 l-2 73 62 -67 c93 -102 116 -89 116 65 0 51 -4 120 -10 152 -5
33 -8 62 -5 64 2 3 28 -15 57 -40 74 -62 93 -72 109 -52 10 12 11 31 2 93 -7
42 -18 96 -26 119 -8 23 -11 42 -7 42 4 0 25 -20 48 -45 45 -50 72 -52 72 -5
0 29 -64 207 -81 225 -26 27 -1 22 64 -12 40 -22 84 -43 99 -46 34 -9 61 16
53 47 -11 39 -76 160 -108 200 -16 21 -24 36 -16 33 66 -27 211 -68 224 -64
36 14 6 95 -62 168 l-24 26 38 -1 c26 -1 38 4 40 14 5 23 -53 106 -122 175
l-60 60 117 -3 c104 -3 119 -2 125 14 9 24 -7 45 -60 79 -52 34 -57 42 -26 47
30 4 47 33 33 56 -18 28 -85 55 -149 60 -54 4 -58 3 -45 -11 8 -9 41 -30 74
-46 l58 -31 -51 0 c-29 0 -66 7 -83 16 -38 20 -69 54 -63 71 2 7 -2 10 -8 7
-18 -6 -188 120 -176 130 2 2 36 0 74 -5 39 -4 100 -8 136 -8 69 -1 163 -24
175 -43 9 -15 -147 -4 -178 13 -11 6 -35 13 -52 14 -17 2 -44 6 -61 10 -51 11
-8 -12 78 -41 67 -24 76 -30 71 -47 -6 -19 -2 -19 67 -13 179 17 233 51 155
97 -32 18 -33 22 -29 63 5 44 5 44 -48 79 -30 20 -85 48 -124 64 l-70 28 70 6
c99 8 115 15 115 49 0 27 -6 31 -85 61 -47 18 -82 35 -80 38 3 3 38 14 78 26
61 17 73 24 75 44 2 13 0 27 -5 32 -5 5 -55 26 -110 47 -117 45 -212 101 -191
113 7 5 38 11 68 14 135 15 135 74 0 110 -29 8 -54 16 -56 18 -2 2 32 11 77
20 95 18 132 39 127 70 -5 33 -68 62 -195 91 -159 35 -161 37 -78 78 57 27 71
38 73 59 2 14 -3 31 -10 37 -15 12 -166 52 -199 52 -32 0 -13 14 37 28 49 14
67 32 62 64 -3 23 -33 37 -113 54 l-30 6 25 17 c56 37 90 74 90 97 0 36 -22
39 -134 21 -119 -20 -131 -21 -91 -2 17 7 23 14 15 14 -12 1 -11 4 3 12 9 5
17 21 17 33 0 32 -18 38 -140 43 -58 2 -112 7 -120 9 -9 3 14 17 52 34 73 30
162 91 172 116 17 45 1 64 -52 64 -29 0 -264 -37 -297 -47 -11 -3 20 35 68 86
73 76 88 96 85 119 l-3 27 -115 0 c-63 0 -137 -3 -165 -8 l-50 -7 61 62 c93
97 126 143 122 175 -3 28 -3 28 -73 26 -59 -1 -226 -30 -340 -59 l-30 -7 34
29 c49 41 91 103 91 134 0 52 -66 54 -169 5 -40 -19 -75 -35 -77 -35 -11 0 39
80 80 128 38 44 44 57 36 73 -6 10 -16 19 -23 19 -14 0 -113 -25 -140 -35 -10
-4 7 18 38 49 40 42 55 64 55 85 0 65 -57 63 -180 -9 -36 -21 -75 -41 -87 -44
l-22 -7 19 57 c39 114 24 126 -100 83 -30 -10 -56 -19 -58 -19 -2 0 14 33 37
74 46 85 62 152 38 162 -13 5 -95 -29 -107 -45 -28 -36 -262 -132 -274 -112
-2 3 17 56 44 116 50 113 53 123 51 164 -1 20 -5 23 -28 18 -16 -3 -86 -37
-157 -76 -72 -39 -132 -71 -134 -71 -2 0 -30 -16 -63 -35 -32 -19 -59 -31 -59
-26 0 4 16 52 35 107 63 180 36 232 -70 134 -16 -16 -77 -60 -135 -98 -59 -38
-114 -82 -124 -97 -36 -55 -24 -15 23 77 59 115 89 204 74 219 -24 24 -125
-43 -255 -170 -43 -41 -78 -73 -78 -70 0 2 13 42 29 87 23 64 28 89 21 108
-12 30 -18 27 -132 -57 -104 -77 -105 -77 -87 0 15 66 14 152 -2 162 -23 14
-36 10 -83 -26 -26 -19 -57 -35 -70 -35 -23 0 -70 -32 -179 -122 -32 -26 -62
-48 -66 -48 -10 0 -1 44 23 113 21 61 21 116 1 123 -22 9 -81 -35 -175 -131
-45 -47 -83 -85 -84 -85 -1 0 0 40 2 89 4 89 -6 131 -31 131 -14 0 -35 -15
-151 -104 -42 -32 -79 -56 -83 -53 -3 4 2 40 12 81 18 77 13 125 -14 134 -6 2
-45 -31 -85 -73z m20 -109 c-16 -38 -76 -119 -84 -112 -5 6 33 91 66 146 22
38 27 42 30 24 2 -12 -4 -38 -12 -58z m-314 32 c-7 -7 -12 -8 -12 -2 0 14 12
26 19 19 2 -3 -1 -11 -7 -17z m588 -4 c0 -27 -79 -142 -147 -215 -46 -49 -83
-92 -83 -95 0 -8 55 47 133 133 32 35 57 61 57 59 0 -8 -92 -180 -113 -211
-30 -44 -109 -125 -118 -119 -4 2 -10 -5 -14 -16 -3 -11 -11 -20 -16 -20 -6 0
-6 7 1 19 11 22 60 167 84 251 14 49 25 64 106 138 82 74 110 94 110 76z m638
-83 c-14 -99 -42 -145 -123 -196 -62 -40 -70 -42 -55 -16 20 38 10 33 -31 -13
-23 -26 -79 -69 -128 -97 -47 -28 -101 -60 -120 -72 l-33 -20 7 44 c9 56 31
92 94 152 28 27 51 57 51 67 0 15 98 111 137 134 22 13 -5 -44 -48 -101 -76
-102 7 -45 155 106 55 55 101 99 103 97 2 -1 -2 -40 -9 -85z m-1231 -8 c-78
-225 -86 -241 -137 -278 -26 -19 -55 -35 -64 -35 -9 0 -16 -4 -16 -10 0 -5 -5
-10 -11 -10 -24 0 21 199 56 245 12 17 50 59 85 95 64 68 49 42 -31 -51 -26
-30 -54 -70 -63 -89 -16 -33 -14 -32 26 14 24 27 43 53 43 58 0 4 3 7 6 6 11
-5 39 24 32 35 -3 6 -1 7 5 3 7 -4 26 16 49 50 20 31 39 52 41 46 2 -6 -8 -41
-21 -79z m824 -21 c-17 -49 -31 -108 -31 -130 0 -28 -7 -49 -22 -66 -21 -23
-233 -136 -255 -136 -16 0 -206 -209 -293 -322 -24 -32 -46 -55 -49 -53 -2 3
6 16 19 30 19 20 20 25 7 25 -9 0 -19 -4 -22 -10 -3 -5 -12 -10 -18 -10 -8 0
-8 3 -2 8 6 4 19 24 29 45 11 20 44 61 75 90 30 28 54 54 52 55 -2 2 10 17 25
33 52 55 -9 26 -73 -34 -37 -35 -40 -31 -17 19 10 21 32 43 55 54 94 48 205
149 439 400 57 61 106 107 108 101 2 -5 -11 -50 -27 -99z m-496 -39 c-6 -91
-9 -100 -38 -130 -16 -18 -33 -30 -37 -28 -9 5 -94 -84 -87 -91 2 -3 20 7 38
22 32 24 32 24 -3 -8 -20 -18 -46 -34 -57 -35 -18 -2 -14 7 26 52 27 29 56 69
66 87 l19 33 -32 -35 c-18 -19 -56 -63 -87 -97 -30 -35 -58 -63 -63 -63 -5 0
8 28 29 63 21 34 50 87 65 117 44 91 56 109 74 115 9 3 33 26 52 50 19 25 36
45 38 45 2 0 1 -44 -3 -97z m1370 58 c-7 -21 -29 -72 -48 -113 -82 -179 -180
-290 -318 -362 -52 -27 -112 -61 -134 -75 -58 -37 -98 -54 -91 -38 2 6 13 37
22 67 31 94 49 113 184 187 69 37 172 105 167 110 -2 1 -52 -22 -110 -53 -59
-30 -107 -53 -107 -50 0 3 11 17 24 31 15 16 30 50 37 83 7 32 21 74 31 96 35
69 2 29 -56 -71 -32 -54 -62 -107 -68 -118 -21 -40 -73 -104 -83 -101 -5 2
-24 -9 -41 -24 -17 -14 -66 -46 -110 -69 -43 -24 -88 -51 -98 -60 -17 -14 -16
-10 4 24 47 79 93 125 219 219 71 53 134 103 142 113 20 24 6 15 -126 -82
-198 -145 -204 -147 -135 -27 30 52 53 78 93 104 60 40 131 78 146 78 13 0
127 71 169 105 17 15 32 23 32 17 0 -27 -55 -171 -76 -199 -13 -17 -24 -34
-24 -37 0 -15 218 149 310 233 30 28 56 51 57 51 1 0 -4 -17 -12 -39z m-1529
-50 c-15 -33 -26 -68 -26 -76 0 -27 -69 -184 -105 -241 -34 -52 -46 -92 -25
-79 21 13 8 -13 -20 -40 l-30 -29 0 28 c0 25 15 64 29 76 7 6 43 142 38 146
-2 2 -15 -19 -29 -46 -15 -28 -28 -45 -30 -39 -2 7 -18 -7 -35 -30 -51 -70
-231 -252 -238 -241 -9 15 24 170 43 203 9 15 21 27 27 27 6 0 60 37 121 81
60 45 119 86 131 91 12 6 24 17 27 24 7 19 -1 17 -36 -7 -32 -23 -45 -20 -30
7 14 25 207 220 210 212 2 -3 -8 -33 -22 -67z m417 -79 c-10 -27 -34 -57 -64
-83 -27 -23 -49 -38 -49 -35 0 3 26 60 57 128 l58 122 7 -45 c6 -32 3 -56 -9
-87z m1389 52 c-11 -27 -25 -75 -32 -107 -6 -33 -21 -74 -32 -93 -11 -19 -18
-37 -15 -40 5 -6 158 69 287 141 44 24 80 41 80 38 0 -4 -15 -21 -32 -38 -18
-17 -57 -60 -87 -96 -55 -67 -112 -109 -146 -109 -14 0 -16 -3 -7 -8 13 -9 13
-9 -83 -89 -72 -59 -211 -141 -275 -160 -41 -13 -49 -18 -32 -21 23 -4 23 -4
6 -25 -10 -12 -12 -16 -4 -9 8 6 19 12 25 12 5 0 2 -7 -8 -15 -11 -7 -24 -12
-30 -9 -12 4 -57 -37 -123 -114 -40 -46 -111 -89 -239 -147 -56 -24 -71 -29
-50 -14 17 12 73 65 125 118 90 90 220 191 245 191 7 0 20 9 30 20 10 11 23
20 29 20 42 0 120 91 129 150 5 31 24 40 92 41 33 1 74 5 90 10 19 5 0 6 -53
3 l-83 -5 44 43 c30 31 51 65 70 117 15 41 25 76 22 79 -3 3 -5 1 -5 -5 0 -6
-11 -27 -25 -47 -14 -21 -23 -42 -19 -47 3 -5 0 -8 -7 -7 -7 2 -23 -12 -36
-31 -12 -19 -23 -31 -23 -27 0 4 -18 -8 -40 -27 -25 -21 -74 -45 -134 -66 -51
-18 -135 -52 -187 -76 -51 -25 -95 -43 -97 -41 -11 12 87 136 107 136 9 0 32
11 51 24 19 13 105 58 192 100 179 87 259 152 258 208 -1 7 -10 -4 -21 -25
-13 -26 -43 -53 -90 -83 -72 -47 -301 -164 -320 -164 -20 0 106 97 152 118 26
11 93 58 150 104 117 94 163 128 167 123 1 -1 -6 -24 -16 -51z m-2641 -99 c-9
-104 -49 -300 -59 -291 -2 3 3 39 12 81 18 87 20 131 7 140 -12 7 -31 -13 -89
-93 -39 -56 -48 -63 -50 -44 -6 38 18 94 69 165 27 37 63 95 81 130 39 76 43
65 29 -88z m175 93 c-4 -29 -16 -74 -28 -100 -21 -48 -156 -249 -144 -213 4
11 16 58 27 104 17 72 27 93 65 137 24 29 51 69 59 88 21 51 29 45 21 -16z
m493 -36 c-6 -18 -15 -32 -20 -32 -5 0 -9 -8 -9 -17 0 -10 -9 -31 -20 -48 -11
-16 -20 -25 -20 -19 0 15 30 87 39 94 3 3 12 18 19 34 17 38 25 28 11 -12z
m2331 24 c0 -2 -8 -10 -17 -17 -16 -13 -17 -12 -4 4 13 16 21 21 21 13z
m-3202 -348 c-18 -37 -47 -67 -35 -35 3 8 9 33 12 54 6 37 5 36 -15 -12 -11
-27 -20 -59 -20 -70 0 -11 -6 -28 -13 -37 -11 -14 -12 -1 -10 75 5 110 13 154
56 272 l32 90 5 -150 c4 -129 3 -155 -12 -187z m3188 260 c-70 -152 -64 -145
-127 -168 -32 -11 -61 -25 -64 -30 -10 -16 -25 -11 -25 7 0 13 234 262 247
263 1 0 -13 -33 -31 -72z m-1500 24 c-18 -16 -18 -16 -6 6 6 13 14 21 18 18 3
-4 -2 -14 -12 -24z m934 -27 c0 -2 -10 -9 -22 -15 -22 -11 -22 -10 -4 4 21 17
26 19 26 11z m-55 -35 c-3 -5 -16 -15 -28 -21 -21 -10 -21 -9 2 10 25 23 36
27 26 11z m-925 -40 c-5 -10 -27 -33 -48 -49 -20 -17 -84 -70 -142 -117 -121
-99 -189 -148 -196 -141 -11 10 28 81 73 134 41 48 67 65 183 124 74 37 136
67 138 68 1 1 -2 -8 -8 -19z m1880 11 c0 -25 -104 -164 -147 -195 -45 -33
-103 -48 -103 -27 0 11 231 231 243 231 4 0 7 -4 7 -9z m-1674 -72 c-58 -89
-66 -99 -94 -105 -15 -4 -36 -15 -47 -24 -11 -10 -41 -31 -66 -47 -60 -38
-109 -79 -109 -93 0 -41 -126 -224 -158 -228 -22 -3 -21 -2 9 50 17 29 52 81
78 116 25 35 46 67 46 72 0 4 12 17 26 29 15 11 38 45 52 75 18 37 39 63 64
80 58 37 228 134 231 131 1 -1 -13 -27 -32 -56z m1544 24 c0 -5 -16 -18 -35
-31 -19 -12 -35 -27 -35 -34 0 -6 10 -3 23 8 l22 19 -19 -22 c-10 -13 -22 -20
-26 -18 -5 3 -27 -18 -51 -46 -24 -29 -58 -58 -77 -66 -19 -8 -47 -29 -64 -46
l-29 -32 11 30 c6 16 16 35 21 41 7 9 4 16 -10 24 -23 12 -136 -17 -261 -66
-73 -28 -176 -95 -173 -112 3 -11 -119 -84 -195 -117 -77 -33 -36 -27 52 9 47
19 86 30 86 24 0 -6 21 12 48 40 61 65 179 135 267 160 39 11 83 25 98 31 37
15 37 15 37 -12 0 -31 -51 -109 -88 -136 -17 -12 -54 -29 -81 -37 -72 -21
-270 -64 -296 -64 -13 0 -26 -7 -29 -16 -4 -10 -13 -13 -25 -9 -13 4 -23 0
-30 -12 -6 -10 -11 -13 -11 -7 0 6 -20 1 -47 -12 -27 -13 -64 -26 -83 -30
l-35 -6 28 26 c16 15 33 24 38 21 5 -3 7 0 5 7 -6 16 118 124 220 193 41 27
117 83 169 124 53 41 98 71 101 68 7 -7 -23 -66 -50 -96 -14 -16 -16 -22 -6
-19 28 9 80 88 74 112 -3 15 1 28 12 37 16 13 17 11 11 -18 -4 -18 -4 -33 -2
-33 3 0 23 12 45 26 34 22 53 27 132 30 95 5 155 20 218 54 41 22 40 22 40 13z
m-2141 -43 c-12 -16 -29 -32 -38 -35 -9 -3 0 10 18 29 42 44 49 46 20 6z m335
-66 c-14 -44 -30 -86 -35 -96 -5 -9 -57 -53 -116 -97 -60 -45 -146 -113 -191
-152 -66 -56 -81 -65 -69 -43 8 16 18 45 22 64 19 90 42 122 138 192 51 37
133 100 182 141 50 41 91 73 93 72 1 -1 -9 -38 -24 -81z m1127 58 c-5 -10 -18
-25 -28 -33 -12 -10 -11 -5 6 19 24 35 38 43 22 14z m-1746 -30 c-22 -20 -39
-40 -37 -44 1 -5 -5 -8 -13 -8 -28 0 -15 30 27 60 57 42 71 37 23 -8z m-154
-44 c-5 -13 -14 -54 -20 -93 -7 -41 -25 -92 -42 -122 -17 -29 -26 -53 -21 -53
5 0 17 16 27 35 11 19 21 33 23 31 7 -7 -28 -72 -55 -103 l-29 -32 -2 96 c-3
89 -2 98 24 137 26 39 95 126 101 126 1 0 -1 -10 -6 -22z m2749 -3 c-12 -15
-71 -47 -76 -42 -7 6 13 23 46 39 44 21 45 21 30 3z m-1763 -22 c-5 -29 -34
-77 -87 -148 -28 -37 -48 -70 -46 -74 9 -13 -13 -35 -36 -36 -13 0 -55 -17
-94 -37 l-71 -37 42 74 c45 80 98 142 157 188 40 30 57 35 38 12 -20 -24 12
-19 44 6 31 24 28 36 -3 19 -31 -16 -26 5 7 29 33 25 53 27 49 4z m1808 -48
c-24 -92 -62 -134 -181 -193 -57 -29 -174 -63 -212 -62 -24 1 153 167 186 175
35 9 162 88 192 120 13 14 25 23 27 21 2 -2 -3 -29 -12 -61z m-1075 15 c-24
-46 -181 -153 -290 -199 -30 -13 -81 -36 -114 -52 -73 -36 -77 -36 -41 1 16
17 36 30 44 30 13 0 13 2 2 9 -10 6 -3 19 31 54 46 48 158 108 284 152 88 31
98 31 84 5z m60 7 c0 -8 -14 -34 -31 -60 -25 -38 -45 -54 -112 -86 -45 -22
-111 -63 -145 -91 -35 -28 -65 -50 -67 -48 -8 8 74 81 150 134 44 30 103 80
132 110 51 54 73 66 73 41z m870 3 c0 -25 -31 -68 -52 -73 -13 -3 -50 -9 -83
-12 -33 -4 -94 -15 -137 -26 -94 -23 -105 -24 -89 -5 7 8 44 24 84 36 40 12
90 32 113 45 22 13 63 28 90 33 68 13 74 13 74 2z m-1500 -4 c0 -8 -211 -139
-215 -134 -10 9 47 52 123 94 73 41 92 49 92 40z m1565 -15 c-8 -15 -65 -44
-65 -34 1 16 26 41 45 45 24 5 29 3 20 -11z m314 2 c-31 -43 -106 -116 -131
-129 -41 -22 -45 -17 -12 17 l29 31 -49 -31 c-56 -35 -94 -43 -53 -11 14 11
28 20 32 20 6 0 39 21 135 87 51 36 68 41 49 16z m-1849 4 c0 -16 -49 -122
-56 -122 -5 0 -25 -13 -44 -29 -19 -15 -28 -25 -20 -21 8 5 25 17 38 28 12 11
22 17 22 13 0 -12 -39 -42 -120 -93 -41 -26 -76 -51 -78 -55 -2 -5 -9 -8 -17
-8 -7 0 -19 -7 -26 -17 -13 -14 -11 -14 20 1 18 10 56 32 85 50 28 18 62 39
75 46 23 12 23 11 17 -16 -4 -16 -27 -58 -52 -94 -24 -36 -44 -71 -44 -77 0
-25 -23 -24 -88 3 -37 15 -69 30 -72 32 -3 2 6 12 20 23 l25 20 -32 -15 c-18
-9 -42 -16 -55 -16 l-23 0 25 20 c14 11 29 20 33 20 12 0 198 113 193 117 -2
2 -47 -21 -100 -51 -53 -30 -96 -51 -96 -46 0 27 91 116 155 152 39 22 99 61
135 88 58 43 80 56 80 47z m240 -6 c0 -4 -20 -29 -45 -54 -45 -46 -63 -84 -27
-56 9 8 -11 -16 -45 -54 -34 -37 -81 -92 -103 -121 -23 -30 -56 -66 -73 -79
-41 -31 -135 -72 -145 -63 -3 4 -2 10 3 14 6 4 36 50 68 103 68 113 165 207
285 275 84 49 82 47 82 35z m-1000 -54 c0 -2 -10 -12 -22 -23 l-23 -19 19 23
c18 21 26 27 26 19z m-563 -59 c-8 -19 -48 -79 -90 -134 -41 -54 -93 -133
-116 -174 -24 -41 -47 -79 -52 -85 -12 -12 47 128 89 210 28 56 170 231 179
221 2 -2 -2 -19 -10 -38z m370 -3 c-6 -19 -14 -35 -19 -35 -4 0 -8 -7 -8 -15
0 -8 -7 -15 -17 -15 -14 0 -15 2 -1 18 9 9 23 32 32 50 21 42 27 41 13 -3z
m2273 17 c0 -4 -48 -52 -106 -105 -71 -65 -114 -97 -129 -97 -37 0 -236 -54
-389 -105 -76 -25 -140 -44 -143 -42 -2 3 12 10 32 17 34 11 58 29 182 136 58
49 108 74 150 74 25 0 110 28 323 106 72 26 80 28 80 16z m-1839 -29 c-12 -16
-49 -67 -82 -115 -33 -47 -66 -91 -72 -96 -7 -5 -50 -24 -96 -43 -47 -19 -89
-36 -94 -38 -5 -2 -1 11 9 29 23 39 320 287 347 289 5 1 -1 -11 -12 -26z
m2426 -30 c-20 -16 -36 -34 -37 -42 0 -7 -14 -40 -32 -73 -33 -63 -90 -118
-121 -118 -16 0 -14 5 10 37 22 29 24 35 9 30 -14 -6 -17 -4 -12 10 6 14 3 14
-16 -4 -42 -38 -150 -85 -263 -113 -60 -16 -146 -38 -189 -49 -44 -12 -102
-21 -130 -20 l-51 0 45 21 c25 11 85 33 135 50 49 16 114 41 145 55 30 13 101
35 158 48 104 25 185 59 257 110 37 25 38 27 11 21 -15 -4 -40 -15 -55 -26
-23 -17 -190 -71 -216 -69 -18 1 149 58 172 59 12 0 25 5 29 11 4 8 -1 9 -16
4 -16 -5 -20 -4 -15 5 4 6 -7 4 -26 -5 -29 -16 -165 -65 -177 -65 -14 0 49 56
101 91 58 39 114 55 110 32 -4 -16 -4 -16 87 6 41 11 86 19 99 20 22 1 21 -1
-12 -26z m-293 -24 c-27 -18 -73 -54 -102 -80 -50 -45 -93 -66 -76 -36 53 91
92 126 152 138 72 13 77 9 26 -22z m-1069 11 c-3 -5 -11 -10 -16 -10 -6 0 -7
5 -4 10 3 6 11 10 16 10 6 0 7 -4 4 -10z m922 -52 c-77 -107 -102 -138 -110
-138 -5 0 -22 -9 -38 -20 -27 -20 -139 -63 -145 -57 -2 2 21 21 51 43 41 29
55 45 55 64 l0 25 -23 -29 c-16 -20 -28 -27 -37 -21 -8 5 -11 4 -7 -3 10 -15
-146 -117 -238 -154 -61 -25 -74 -33 -59 -39 10 -4 29 -8 42 -8 12 -1 22 -5
22 -10 0 -5 -36 -10 -81 -10 l-81 -1 107 113 c59 61 119 119 133 128 15 9 58
22 97 29 38 6 74 15 80 19 5 4 46 20 90 35 44 16 96 37 115 47 50 26 54 23 27
-13z m-2291 -54 c-37 -106 -60 -151 -89 -174 -15 -12 -27 -20 -27 -17 0 2 22
52 50 111 78 167 109 205 66 80z m1095 58 c-5 -10 -17 -24 -25 -31 -8 -7 -13
-18 -10 -25 6 -14 -197 -206 -264 -251 l-40 -27 -36 39 c-19 21 -36 40 -36 43
0 4 16 12 35 19 19 7 47 23 63 35 30 25 49 36 175 96 49 23 86 44 84 46 -3 3
-27 -6 -53 -20 -63 -33 -174 -76 -174 -67 0 18 61 62 125 91 39 17 88 39 110
50 51 24 58 24 46 2z m-1290 -49 c-11 -21 -61 -70 -61 -60 0 7 60 77 66 77 3
0 0 -8 -5 -17z m637 -8 c-17 -37 -92 -64 -162 -56 -31 3 108 80 146 81 26 0
27 -2 16 -25z m1075 -40 c-161 -125 -179 -136 -301 -171 -129 -38 -164 -54
-296 -132 -67 -40 -91 -50 -98 -40 -20 32 -10 41 135 117 46 24 69 41 57 41
-12 0 -45 -15 -73 -33 -138 -88 -135 -87 -146 -73 -8 10 -8 16 2 24 18 16 140
72 155 72 6 0 12 4 12 9 0 5 15 15 33 22 17 7 53 26 79 41 26 16 118 54 205
85 217 76 234 82 266 82 27 1 25 -2 -30 -44z m1367 27 c0 -5 -12 -15 -27 -22
-37 -17 -266 -90 -271 -86 -5 6 264 115 286 115 6 1 12 -3 12 -7z m-20 -48 c0
-4 -9 -22 -21 -40 -11 -19 -17 -34 -13 -34 20 0 -32 -40 -60 -46 -59 -12 -311
-107 -349 -131 -22 -14 -41 -22 -43 -20 -5 4 97 105 151 150 47 38 106 64 217
96 114 33 118 34 118 25z m-1059 -41 c-41 -57 -230 -233 -322 -301 -53 -39
-136 -90 -185 -113 -139 -65 -244 -109 -262 -109 -10 0 -47 -11 -84 -24 l-66
-23 -6 21 c-3 11 -6 36 -6 53 0 28 6 35 43 54 23 12 68 39 100 61 31 21 88 53
124 69 37 17 70 34 73 39 3 5 19 14 35 20 35 13 37 15 -83 -84 -51 -42 -133
-103 -182 -136 -50 -33 -90 -63 -90 -66 0 -16 166 98 300 207 52 42 133 102
180 134 76 52 80 65 8 29 -15 -8 -118 -48 -230 -89 -112 -42 -220 -82 -241
-90 -49 -20 -52 -19 -65 9 -13 29 -16 27 104 94 108 60 265 117 378 137 45 7
97 21 117 29 49 20 339 105 362 106 17 0 17 -2 -2 -27z m-1091 -53 c-34 -30
-50 -37 -50 -22 0 9 61 51 75 51 6 0 -6 -13 -25 -29z m1750 26 c0 -11 -66 -36
-92 -36 -17 0 -27 -4 -23 -10 3 -5 17 -10 31 -10 40 0 19 -19 -70 -61 -82 -40
-66 -43 34 -6 53 19 144 93 134 108 -2 4 0 10 6 14 5 3 10 1 10 -6 0 -8 11 -9
36 -4 l36 6 -54 -44 c-66 -54 -103 -78 -109 -73 -3 3 -16 -16 -29 -41 -14 -26
-32 -56 -42 -67 -78 -96 -81 -97 -107 -91 -14 4 -82 6 -151 6 -117 0 -122 0
-87 13 20 8 62 33 93 57 31 24 65 52 77 61 12 9 18 20 14 24 -12 13 -129 22
-177 14 -37 -6 -28 -8 48 -9 50 0 92 -5 92 -9 0 -11 -192 -24 -199 -14 -13 16
-64 32 -109 32 -86 1 -18 22 97 30 99 8 400 66 411 80 11 13 130 46 130 36z
m-4550 -101 c16 -52 30 -100 30 -106 0 -5 -14 -24 -31 -42 -34 -36 -147 -220
-155 -254 -4 -13 -9 -23 -13 -23 -4 0 -20 33 -35 73 -56 142 -42 269 39 364
29 35 104 83 127 83 4 0 21 -43 38 -95z m5190 74 c-48 -17 -211 -37 -198 -24
9 9 182 44 218 44 33 0 32 -1 -20 -20z m70 -36 c-12 -16 -55 -63 -96 -105 -59
-61 -81 -78 -103 -78 -44 0 -121 12 -121 19 0 3 70 42 156 86 85 44 160 86
166 93 21 24 19 11 -2 -15z m-145 -27 c-48 -32 -187 -107 -245 -130 -80 -33
-112 -33 -45 0 28 13 43 24 35 24 -8 -1 -26 -7 -40 -15 -14 -8 -29 -14 -33
-15 -8 0 10 40 22 50 3 3 19 24 35 47 15 23 35 44 44 46 10 3 69 5 132 6 99 1
112 -1 95 -13z m-3175 -4 c0 -5 -7 -17 -15 -28 -14 -18 -14 -17 -4 9 12 27 19
34 19 19z m2855 -32 c-27 -16 -67 -32 -87 -35 -21 -4 -38 -10 -38 -14 0 -4
-22 -18 -50 -31 -52 -24 -63 -38 -16 -21 16 7 26 7 26 1 0 -17 -53 -37 -115
-44 -32 -4 -71 -10 -84 -13 -25 -6 -24 -5 9 31 42 45 130 88 243 117 45 11 96
24 112 29 52 14 52 11 0 -20z m-1880 -6 c-31 -24 -55 -35 -55 -26 0 5 15 16
33 25 41 20 47 20 22 1z m1899 -19 c-10 -16 -26 -25 -42 -25 -24 0 -24 1 9 24
44 32 53 32 33 1z m-877 -21 c-3 -3 -12 -4 -19 -1 -8 3 -5 6 6 6 11 1 17 -2
13 -5z m73 -14 c0 -5 -10 -10 -23 -10 -13 0 -91 -22 -173 -49 -224 -73 -319
-101 -308 -92 5 4 56 39 113 76 l104 68 136 7 c75 4 139 8 144 8 4 1 7 -2 7
-8z m126 -51 c-103 -68 -167 -92 -306 -119 -63 -12 -182 -41 -265 -65 -82 -24
-208 -55 -279 -70 -106 -21 -239 -58 -303 -82 -7 -3 -13 0 -13 5 0 14 104 53
153 58 20 2 106 32 190 68 189 80 556 197 702 224 61 12 119 23 130 25 70 15
68 5 -9 -44z m648 38 c-6 -16 -46 -47 -91 -70 -35 -19 -88 -22 -98 -8 -7 12
71 59 128 76 55 18 67 18 61 2z m220 -59 c19 -10 49 -8 155 11 30 6 109 10
175 10 119 0 121 0 99 -19 -13 -10 -23 -23 -23 -28 0 -18 -90 -122 -118 -136
-15 -8 -41 -12 -57 -10 -30 5 -30 5 -6 -9 l23 -14 -47 -26 c-26 -15 -53 -27
-59 -27 -6 0 -4 -5 4 -10 8 -5 69 -9 135 -8 90 1 106 3 65 7 -41 5 -49 8 -30
12 16 4 6 7 -30 8 -82 3 -34 18 119 37 203 25 234 28 228 17 -9 -14 -73 -44
-127 -59 -40 -11 -42 -12 -15 -14 l30 -1 -28 -15 c-16 -8 -61 -22 -100 -30
-40 -8 -112 -29 -162 -47 -85 -30 -97 -31 -218 -29 -93 2 -178 -4 -305 -22
-190 -26 -502 -43 -502 -26 0 19 245 83 365 95 39 3 147 20 242 36 238 40 246
39 150 -17 -43 -25 -77 -48 -74 -50 11 -12 207 100 207 117 0 18 -140 0 -435
-55 -146 -28 -152 -16 -17 33 45 17 118 46 161 65 43 20 86 36 95 36 10 0 15
4 11 9 -6 10 6 13 125 31 73 11 186 47 245 78 l40 21 -55 1 c-30 0 -81 4 -114
10 -46 7 -64 6 -87 -5 -15 -8 -37 -15 -47 -15 -11 0 -41 -17 -68 -37 -47 -37
-52 -38 -132 -38 -81 0 -97 6 -66 23 11 6 7 9 -18 9 -18 0 -27 -2 -20 -4 34
-12 -6 -34 -133 -74 -79 -25 -86 -24 -50 6 44 36 137 86 152 81 6 -3 13 -2 15
3 2 4 39 22 83 40 44 19 89 37 100 42 23 9 90 2 119 -13z m-1799 -21 c-17 -7
-77 -40 -133 -74 -57 -35 -107 -63 -112 -63 -6 0 -10 11 -10 26 0 21 9 29 58
51 67 31 191 72 212 72 8 0 1 -6 -15 -12z m1372 -3 c-3 -3 -12 -4 -19 -1 -8 3
-5 6 6 6 11 1 17 -2 13 -5z m8 -24 c82 5 84 4 62 -12 -12 -10 -34 -23 -49 -29
-16 -6 -28 -15 -28 -20 0 -4 -21 -20 -46 -35 -34 -20 -42 -29 -32 -36 9 -7 8
-8 -5 -4 -17 6 -88 -39 -108 -68 -4 -5 -57 4 -122 20 l-116 28 52 34 c73 48
116 68 162 77 31 6 36 9 21 14 -15 6 -17 9 -6 16 22 14 73 21 103 16 15 -3 66
-4 112 -1z m663 5 c-21 -22 -292 -83 -306 -70 -11 10 78 60 117 66 58 8 196
11 189 4z m-1093 -57 c-44 -16 -134 -55 -200 -85 -103 -48 -228 -83 -242 -69
-6 6 170 87 257 118 182 64 339 95 185 36z m-125 -2 c-14 -8 -53 -21 -87 -30
-34 -8 -106 -37 -160 -64 -116 -58 -97 -53 -387 -102 -127 -21 -274 -48 -326
-59 -116 -26 -124 -26 -112 -5 12 21 211 90 317 110 71 14 181 42 410 106 39
11 122 23 185 27 63 4 124 12 135 19 11 6 27 11 35 11 8 0 4 -6 -10 -13z m822
-48 c-6 -6 -61 -17 -123 -25 -87 -10 -127 -21 -186 -48 -52 -24 -89 -35 -117
-34 l-41 2 40 7 c26 5 31 8 16 9 -50 2 -4 21 149 60 155 40 288 55 262 29z
m-63 -48 c-17 -10 -239 -90 -248 -90 -3 0 5 9 19 20 14 11 20 20 14 20 -6 0
-23 -9 -37 -21 -20 -15 -31 -18 -44 -11 -14 8 -11 13 23 30 78 39 155 58 244
60 32 1 40 -1 29 -8z m-662 -99 c15 -9 13 -10 -17 -11 -19 0 -75 -7 -125 -15
-49 -7 -162 -21 -250 -29 -480 -46 -599 -58 -690 -70 -55 -8 -101 -13 -103
-11 -9 8 13 34 31 38 216 46 302 62 462 87 179 28 204 29 432 26 146 -3 248
-8 260 -15z m1258 -40 c-6 -5 -28 -12 -50 -15 l-40 -6 35 14 c41 17 68 20 55
7z m128 -22 c31 -7 57 -15 57 -18 0 -4 -29 -14 -65 -24 -37 -9 -97 -30 -135
-47 -76 -33 -147 -40 -157 -15 -3 9 -22 24 -42 34 l-36 19 40 11 c22 6 73 16
113 22 41 6 84 14 95 19 31 12 65 12 130 -1z m147 -44 c0 -8 -6 -15 -12 -15
-10 0 -10 -2 0 -9 17 -10 -5 -20 -58 -27 -19 -2 -72 -13 -117 -25 -46 -11 -98
-19 -115 -17 l-33 3 50 26 c28 15 79 36 115 47 36 12 72 23 80 26 8 2 32 5 53
5 27 1 37 -3 37 -14z m-501 -36 c32 -11 45 -34 14 -25 -10 3 -35 8 -55 12 -21
3 -38 10 -38 15 0 12 41 11 79 -2z m-781 -16 c-10 -2 -26 -2 -35 0 -10 3 -2 5
17 5 19 0 27 -2 18 -5z m718 -18 c36 -14 76 -25 87 -25 11 0 58 -12 104 -27
69 -23 85 -25 95 -14 7 8 8 11 2 8 -6 -4 -31 0 -55 7 l-44 14 45 0 c25 0 81
-3 125 -7 44 -4 103 -4 131 1 78 12 263 24 258 17 -14 -22 -85 -40 -196 -48
-93 -7 -147 -17 -223 -41 -91 -30 -110 -32 -220 -31 -72 1 -123 6 -130 12 -7
8 4 9 40 4 77 -10 41 10 -45 26 l-75 14 65 5 c36 3 74 11 85 18 19 12 19 13
-4 6 -35 -9 -321 -9 -351 1 -21 7 -14 11 55 32 44 13 103 30 130 38 28 7 51
14 52 14 2 1 32 -10 69 -24z m514 -20 c-24 -14 -140 -22 -127 -9 10 10 69 22
112 23 40 0 40 0 15 -14z m94 -94 c-67 -49 -120 -61 -271 -61 -75 0 -134 2
-132 5 3 2 56 20 119 39 115 35 153 41 264 44 l60 2 -40 -29z m-999 -22 c5 -5
-33 -9 -100 -10 -61 -1 -120 -4 -133 -7 -13 -4 73 -7 190 -7 190 0 222 -3 298
-23 113 -31 213 -63 224 -72 10 -10 -82 -20 -214 -24 -52 -2 -122 -7 -155 -11
-71 -9 -206 20 -295 62 -30 15 -67 28 -83 30 -15 1 -43 10 -63 18 -20 8 -49
15 -65 15 -15 0 -31 5 -34 10 -4 6 16 10 52 11 32 0 96 7 143 14 88 14 218 11
235 -6z m1160 -19 l30 -11 -70 -33 c-38 -18 -76 -39 -83 -48 -7 -9 -22 -13
-35 -11 -15 3 -49 -9 -91 -33 l-68 -37 -112 32 c-62 17 -128 31 -146 31 -55 0
-22 16 68 34 53 10 140 16 245 17 163 1 165 3 35 27 l-43 7 55 22 c60 24 159
26 215 3z m-598 -25 c43 -8 103 -16 133 -16 l55 -2 -55 -7 c-30 -4 -73 -12
-95 -19 -61 -17 -101 -13 -155 14 -51 26 -76 33 -50 14 12 -9 11 -10 -5 -4
-11 4 -47 13 -80 20 l-60 13 117 1 c65 1 150 -6 195 -14z m51 -114 c48 -11
111 -22 140 -26 28 -4 52 -10 52 -14 0 -10 -156 -46 -297 -68 l-111 -17 -111
44 c-61 24 -111 46 -111 50 0 4 12 7 28 7 31 -1 255 33 261 39 9 9 65 3 149
-15z m550 -9 c61 -14 112 -29 112 -33 0 -17 -342 -53 -404 -42 l-50 8 80 47
c93 55 103 56 262 20z m-6028 -13 c0 -10 -4 -19 -10 -19 -5 0 -10 12 -10 26 0
14 4 23 10 19 6 -3 10 -15 10 -26z m5000 2 c0 -5 -9 -7 -20 -4 -11 3 -20 7
-20 9 0 2 9 4 20 4 11 0 20 -4 20 -9z m-1130 -62 c19 -5 96 -14 170 -20 173
-12 264 -24 425 -56 72 -14 140 -25 153 -24 13 0 21 -3 18 -8 -3 -4 59 -29
137 -55 172 -56 191 -66 122 -65 -51 0 -154 15 -122 18 9 0 17 6 17 11 0 6
-32 10 -77 10 -63 0 -130 13 -354 70 -153 39 -294 69 -316 69 l-38 -1 47 -8
c26 -5 69 -15 95 -24 27 -8 131 -36 233 -62 102 -25 214 -57 250 -69 47 -17
107 -27 215 -35 345 -26 367 -29 473 -65 97 -33 162 -61 162 -69 0 -3 -16 0
-36 5 -59 17 -74 5 -22 -16 27 -11 48 -23 48 -27 0 -19 -186 -27 -217 -9 -16
9 -16 11 7 12 17 0 9 5 -25 14 -27 8 -51 12 -53 10 -2 -2 41 -37 95 -79 123
-95 153 -120 153 -129 0 -17 -41 -3 -115 39 -44 25 -120 66 -170 91 -49 25
-121 66 -158 91 -62 40 -265 138 -272 130 -2 -2 49 -30 113 -63 100 -51 113
-60 88 -63 -15 -2 -63 4 -105 13 -124 28 -510 160 -622 213 -161 76 -238 110
-309 136 -67 25 -73 34 -10 15z m2253 0 c-14 -14 -104 -37 -175 -45 -32 -4
-58 -11 -58 -15 0 -5 8 -9 19 -9 10 0 47 -11 82 -24 62 -23 63 -24 34 -31 -16
-4 -64 -16 -105 -26 -41 -11 -108 -22 -148 -26 -45 -4 -68 -9 -60 -14 7 -5 8
-9 2 -9 -6 0 -14 3 -18 7 -8 8 -13 9 -63 11 -35 2 -47 22 -13 22 34 0 132 38
157 62 31 29 21 34 -106 49 -152 18 -101 31 139 35 107 2 213 7 235 12 58 14
91 14 78 1z m-640 -26 c-7 -2 -19 -2 -25 0 -7 3 -2 5 12 5 14 0 19 -2 13 -5z
m197 -41 l95 -18 -60 -21 c-116 -42 -190 -54 -197 -32 -2 7 -12 7 -29 1 -21
-9 -41 -3 -115 33 -103 49 -105 49 91 52 82 2 150 -3 215 -15z m-332 -44 c122
-60 121 -63 -35 -83 -58 -8 -108 -17 -111 -19 -2 -3 -21 2 -41 10 -76 33 -228
82 -276 89 -71 10 -54 1 51 -29 83 -23 333 -135 274 -122 -14 3 -65 10 -115
16 -66 8 -106 19 -150 42 -33 17 -92 39 -132 49 -40 10 -89 27 -110 37 l-37
19 158 8 c87 4 195 13 239 20 150 23 169 21 285 -37z m778 -25 c16 -6 16 -7
-2 -14 -12 -5 1 -8 38 -8 70 -1 215 -32 196 -41 -7 -4 -47 -15 -88 -25 -108
-26 -128 -34 -110 -45 10 -7 4 -8 -20 -5 -19 2 -62 6 -95 9 -33 3 -75 10 -93
17 -26 9 -30 14 -21 25 8 9 8 14 1 14 -6 0 -14 -5 -18 -11 -3 -6 -17 -8 -29
-5 -13 3 -26 2 -29 -3 -6 -9 98 -39 244 -71 47 -10 108 -27 135 -38 l50 -20
-40 -11 c-52 -14 -163 -14 -204 0 -61 21 -42 2 21 -22 35 -13 77 -32 93 -44
49 -33 88 -65 84 -69 -2 -1 -38 1 -79 5 -104 11 -140 11 -140 -1 0 -5 12 -10
27 -10 48 0 11 -18 -80 -40 -48 -11 -107 -20 -130 -20 -35 -1 -39 -2 -23 -12
11 -6 43 -8 80 -4 33 3 126 8 206 12 80 3 151 7 157 9 16 5 164 -32 176 -44 8
-8 -85 -37 -217 -67 -75 -17 -84 -17 -162 -1 -46 10 -117 31 -158 47 -41 17
-80 30 -88 30 -16 0 119 -75 153 -85 13 -3 39 -13 57 -22 26 -11 54 -13 130
-8 106 8 144 1 239 -42 l58 -27 -45 -11 c-25 -7 -54 -16 -65 -22 -29 -15 -98
-26 -91 -15 7 11 -55 23 -66 13 -7 -6 118 -65 202 -95 25 -9 73 -33 108 -53
58 -35 61 -38 40 -46 -13 -5 -86 -11 -163 -14 -111 -4 -151 -2 -195 11 -72 21
-95 36 -57 36 15 0 27 5 27 10 0 6 -10 10 -22 10 -33 0 -141 39 -169 62 l-24
19 30 -6 c28 -5 28 -4 -5 8 -52 21 -125 55 -212 98 -43 22 -78 37 -78 34 0 -3
39 -25 88 -49 48 -24 98 -54 112 -66 l25 -21 -29 6 c-46 10 -229 101 -250 124
l-19 21 65 0 c51 0 93 -9 184 -41 121 -42 264 -108 290 -134 9 -8 28 -15 43
-15 16 0 34 -7 41 -15 7 -8 21 -15 32 -15 10 0 17 -3 15 -7 -3 -5 6 -8 19 -8
32 0 30 5 -14 38 -20 15 -55 42 -78 60 -97 76 -152 115 -199 141 -49 27 -50
27 -21 3 16 -14 41 -31 55 -39 13 -7 34 -22 45 -33 12 -11 39 -35 61 -53 40
-33 40 -33 10 -26 -16 4 -92 36 -168 71 -76 35 -142 63 -147 63 -23 0 -8 19
17 22 14 2 29 9 31 17 4 11 -6 12 -52 7 -30 -4 -100 -2 -153 4 -78 9 -106 17
-137 38 l-39 27 29 6 c22 5 24 7 7 8 -12 0 -63 31 -112 69 -50 37 -97 72 -106
77 -24 15 180 12 231 -3 22 -6 72 -34 110 -61 82 -60 177 -146 149 -136 -69
23 -198 44 -183 30 5 -5 141 -32 207 -41 27 -4 31 -2 19 8 -7 7 -36 34 -64 59
l-51 47 56 10 c31 6 76 14 101 18 39 6 42 8 22 15 -14 5 -53 3 -102 -7 -74
-14 -83 -13 -116 2 -20 9 -41 25 -47 36 -7 10 -22 18 -34 18 -13 0 -23 4 -23
9 0 5 59 10 130 10 72 1 130 -2 130 -6 0 -5 14 -14 31 -20 20 -8 28 -16 23
-24 -5 -9 -2 -10 12 -5 10 5 39 14 64 21 l45 13 -48 1 c-31 1 -59 8 -75 20
-15 10 -43 25 -62 33 -19 9 -43 25 -54 36 -18 21 -18 22 10 33 40 16 156 24
131 9 -9 -6 -27 -8 -40 -4 -12 3 -19 3 -14 -2 10 -10 88 -14 82 -4 -7 12 25
21 49 14 19 -6 19 -5 6 11 -12 14 -25 16 -85 11 -64 -6 -75 -4 -130 22 -33 16
-71 41 -84 56 l-24 26 30 0 c36 0 194 32 260 53 83 27 127 32 159 20z m-547
-52 c20 -11 57 -36 81 -56 24 -20 62 -46 84 -58 l41 -22 -37 -3 c-24 -2 -53 5
-85 21 -26 13 -95 42 -153 63 l-104 38 39 18 c52 23 87 23 134 -1z m-89 -74
c182 -71 221 -90 260 -121 21 -17 39 -34 39 -38 1 -5 -33 -8 -75 -8 -91 0
-215 26 -208 44 5 12 -117 78 -211 114 -96 36 -94 35 -55 43 71 15 152 4 250
-34z m-1043 -21 c66 -21 122 -35 268 -69 17 -4 16 -5 -5 -6 -17 -2 -7 -8 35
-22 117 -38 209 -59 230 -52 19 6 19 7 -5 14 -22 6 -22 7 -4 8 19 1 271 -126
421 -212 84 -48 223 -148 218 -157 -6 -9 -238 28 -415 66 -87 19 -205 75 -272
130 -38 31 -45 41 -35 53 10 12 8 13 -12 8 -18 -4 -40 3 -80 27 -31 18 -89 50
-129 71 -51 26 -69 41 -60 46 10 7 8 9 -5 9 -10 0 -40 12 -68 26 -62 31 -75
27 -16 -6 23 -13 62 -38 87 -56 25 -17 77 -48 115 -69 111 -60 175 -106 175
-125 0 -4 -28 1 -63 9 -46 12 -78 28 -113 57 -27 23 -62 48 -79 57 -16 9 -49
31 -72 49 -23 18 -77 60 -120 92 -120 91 -120 90 4 52z m1094 -151 c19 -8 27
-14 19 -14 -18 0 -79 27 -64 28 7 1 27 -6 45 -14z m-6049 -32 c50 -30 90 -119
69 -152 -7 -11 -13 -6 -25 24 -9 20 -16 41 -16 45 0 4 -18 28 -41 54 -42 48
-38 58 13 29z m4502 -58 c37 -47 29 -44 -24 11 -25 26 -36 42 -24 36 11 -6 33
-27 48 -47z m2176 -14 c20 -6 13 -9 -35 -15 -116 -14 -160 -10 -95 9 51 15 93
17 130 6z m-1626 -26 c11 -8 29 -12 40 -10 15 4 46 -13 105 -55 47 -33 107
-71 135 -85 58 -28 122 -72 297 -207 68 -52 140 -104 159 -115 46 -28 89 -73
69 -73 -8 0 -27 9 -44 21 -37 25 -85 51 -85 46 0 -2 22 -19 50 -38 27 -19 50
-37 50 -40 0 -4 -33 2 -72 13 -55 15 -80 27 -103 52 -17 19 -64 50 -104 71
-117 59 -228 141 -336 250 -55 56 -121 120 -147 143 -45 40 -54 57 -14 27z
m206 -31 c79 -8 156 -33 264 -84 l81 -39 -93 0 c-112 -1 -184 20 -275 81 -76
51 -89 62 -62 55 11 -3 49 -9 85 -13z m-685 -14 c10 -11 16 -20 13 -20 -3 0
-13 9 -23 20 -10 11 -16 20 -13 20 3 0 13 -9 23 -20z m1425 -41 c32 -17 82
-37 111 -44 l54 -13 -44 -1 c-34 -1 -60 8 -117 40 -68 37 -84 49 -68 49 3 0
32 -14 64 -31z m-1349 -16 c13 -16 12 -17 -3 -4 -17 13 -22 21 -14 21 2 0 10
-8 17 -17z m29 -67 c35 -41 67 -73 70 -71 4 2 33 -25 64 -60 32 -36 63 -65 70
-65 19 0 93 -105 142 -202 48 -95 52 -113 28 -122 -8 -3 -13 -2 -10 2 3 5 -8
16 -24 25 -15 9 -56 55 -91 102 -34 47 -64 85 -66 85 -5 0 2 -12 47 -80 47
-71 52 -80 46 -80 -13 0 -106 145 -101 158 6 17 -78 166 -125 217 -39 44 -120
151 -120 160 0 11 9 2 70 -69z m1175 -31 c39 -7 122 -19 185 -25 63 -7 129
-18 145 -25 17 -8 67 -29 113 -49 97 -40 180 -100 222 -158 17 -23 29 -43 27
-44 -6 -6 -155 25 -250 52 -67 20 -104 37 -137 64 -63 51 -140 103 -146 97 -3
-3 36 -36 87 -73 76 -57 89 -70 70 -72 -22 -3 -191 73 -243 110 -16 11 -32 16
-38 13 -5 -3 -8 0 -5 7 6 15 -65 65 -148 104 -76 35 -79 44 -9 27 31 -8 89
-20 127 -28z m-266 -26 c51 -16 101 -29 110 -28 9 0 -26 14 -77 30 -94 30
-111 49 -43 49 27 0 55 -12 106 -46 38 -25 109 -66 157 -91 48 -26 86 -48 84
-50 -2 -2 -54 5 -116 17 -62 12 -115 19 -118 16 -3 -3 0 -6 6 -6 15 0 133 -58
260 -128 84 -47 307 -210 298 -219 -1 -1 -36 11 -76 27 -41 16 -110 41 -152
55 -88 30 -184 97 -293 203 -50 48 -103 86 -185 131 -63 35 -124 72 -134 82
-19 18 -18 18 30 2 27 -8 91 -28 143 -44z m-457 -54 c73 -58 163 -148 180
-179 13 -25 -70 46 -186 157 -91 88 -89 97 6 22z m56 -6 c37 -29 81 -64 97
-79 17 -15 45 -36 63 -46 17 -10 32 -21 32 -25 0 -9 130 -72 137 -66 3 3 -13
15 -36 27 -23 11 -41 23 -41 26 0 9 185 -95 209 -118 35 -33 203 -292 192
-296 -15 -5 -91 37 -98 53 -3 8 -11 15 -18 15 -7 0 -18 7 -25 15 -10 12 -10
15 0 15 6 0 1 13 -13 30 -14 16 -42 56 -62 90 -20 33 -39 60 -42 60 -2 0 14
-34 36 -76 23 -42 40 -78 38 -80 -2 -2 -65 41 -139 95 -111 82 -142 111 -175
163 -23 35 -84 105 -136 156 -52 50 -93 92 -90 92 2 0 34 -23 71 -51z m633 14
c27 -14 48 -28 46 -30 -2 -2 -28 10 -58 27 -30 16 -50 30 -45 30 4 0 30 -12
57 -27z m-941 -66 c0 -14 -17 1 -51 46 l-33 42 42 -40 c23 -21 42 -43 42 -48z
m1625 -37 c22 -11 46 -20 55 -21 8 0 3 -5 -12 -11 -24 -8 -32 -6 -60 21 -39
36 -36 38 17 11z m-545 -21 c41 -11 104 -32 140 -46 36 -14 83 -32 105 -40 21
-8 69 -35 105 -61 164 -116 281 -192 306 -198 19 -5 25 -4 20 5 -4 6 -13 11
-20 11 -7 0 -35 16 -62 35 -27 19 -45 35 -40 35 6 0 -21 19 -60 41 -149 89
-244 159 -216 159 15 0 202 -46 272 -66 46 -13 66 -28 121 -85 37 -38 70 -69
74 -69 8 0 -80 104 -113 133 -11 11 -18 25 -16 32 3 7 -6 26 -20 43 -15 16
-26 33 -26 36 0 15 38 4 64 -19 16 -14 32 -25 35 -25 7 0 99 -108 153 -177 15
-20 25 -40 22 -44 -12 -19 -147 -3 -204 24 -30 14 -56 25 -57 23 -2 -2 23 -19
55 -39 32 -19 79 -56 105 -80 27 -24 73 -61 103 -82 30 -21 88 -74 129 -117
68 -72 86 -98 69 -98 -16 0 -135 94 -188 148 -45 46 -74 66 -126 86 -43 17
-71 35 -79 50 -11 20 -23 24 -76 28 -85 7 -152 41 -260 132 -77 65 -147 114
-264 183 -19 11 -16 6 9 -16 33 -29 33 -31 8 -22 -43 16 -130 62 -126 67 3 2
19 -1 37 -7 18 -6 35 -9 38 -6 3 3 -20 13 -51 22 -31 9 -56 18 -56 21 0 7 13
5 90 -17z m-871 -154 c135 -181 211 -292 211 -311 0 -3 -25 17 -57 45 -31 28
-60 48 -65 45 -5 -3 -7 -2 -6 3 2 5 -11 31 -29 58 -17 28 -48 82 -70 121 -21
39 -55 95 -75 125 -21 29 -38 58 -38 62 0 10 75 -76 129 -148z m-14 112 c66
-46 162 -128 188 -162 16 -19 32 -33 37 -30 6 3 7 0 4 -8 -3 -8 3 -20 13 -28
17 -13 17 -13 3 6 -12 17 -10 16 11 -3 31 -27 83 -115 55 -92 -11 8 5 -33 38
-98 31 -62 54 -112 51 -112 -3 0 -24 9 -46 20 -22 12 -43 19 -47 16 -8 -5 -34
31 -125 166 -110 165 -196 284 -217 303 -12 11 -26 28 -32 38 -8 17 -7 18 14
12 12 -4 37 -17 53 -28z m253 -57 c4 0 13 -10 21 -22 8 -14 -6 -6 -38 21 -28
23 -54 48 -58 54 -4 7 10 -3 30 -20 21 -18 41 -33 45 -33z m825 -53 c29 -19
73 -51 98 -73 25 -21 59 -49 75 -62 l29 -22 -42 20 c-55 26 -161 101 -197 139
-38 40 -28 39 37 -2z m-1093 -37 c17 -33 28 -60 25 -60 -2 0 -18 27 -35 60
-17 33 -28 60 -25 60 2 0 18 -27 35 -60z m663 14 c4 -1 13 -2 20 -3 27 -2 225
-286 264 -378 12 -30 12 -33 -5 -33 -23 0 -114 78 -106 91 3 5 1 9 -5 9 -13 0
-42 55 -34 64 4 3 -3 16 -14 29 -25 26 -173 235 -173 242 0 3 10 0 23 -7 12
-7 25 -13 30 -14z m260 -28 c45 -19 114 -44 152 -55 39 -11 84 -30 100 -41
l30 -20 -39 0 c-21 0 -66 7 -100 16 -61 15 -223 89 -261 118 -19 15 -19 15 8
16 16 0 65 -15 110 -34z m-140 0 c30 -13 58 -29 62 -36 4 -7 -5 -5 -24 4 -17
9 -31 15 -31 13 0 -2 34 -30 75 -62 42 -32 80 -66 86 -76 5 -10 15 -16 22 -14
6 3 32 -13 57 -35 24 -22 40 -40 36 -40 -5 0 -1 -10 10 -22 l19 -22 -30 18
c-16 10 -43 28 -60 41 -49 35 -62 40 -40 15 11 -12 54 -47 96 -76 42 -29 88
-71 104 -93 56 -81 98 -250 63 -252 -7 0 -3 -5 9 -11 20 -10 56 -77 47 -87 -2
-3 -14 5 -27 16 -12 11 -27 19 -33 17 -11 -5 -234 218 -234 234 0 26 45 -7
103 -76 36 -43 80 -90 98 -107 19 -16 25 -20 15 -7 -15 17 -16 22 -5 22 8 0 0
8 -17 19 -37 23 -146 157 -178 220 -14 25 -56 93 -94 151 -38 58 -68 107 -67
109 2 2 16 -6 32 -16 15 -11 35 -23 43 -27 8 -4 4 1 -10 11 -28 19 -190 180
-190 188 0 8 7 6 63 -19z m1022 -86 c-2 -3 16 -15 41 -25 58 -24 49 -32 -11
-10 -25 10 -44 23 -42 29 3 6 -3 20 -12 31 -16 20 -16 20 6 1 13 -10 21 -22
18 -26z m-1364 -62 c26 -21 52 -38 58 -38 6 0 11 -5 11 -11 0 -5 -6 -7 -12 -3
-7 5 -1 -8 13 -27 15 -19 52 -85 83 -148 32 -62 73 -138 93 -167 20 -30 34
-57 31 -60 -8 -7 -203 142 -235 180 -14 17 -45 72 -69 121 -23 50 -57 122 -75
160 -18 39 -35 74 -37 79 -8 15 89 -44 139 -86z m673 22 c93 -23 122 -43 219
-155 71 -82 85 -108 40 -76 -16 10 -61 38 -101 61 -40 22 -103 64 -140 92 -37
28 -58 41 -47 28 34 -38 126 -103 228 -160 152 -86 122 -92 -58 -12 -55 24
-106 44 -112 45 -7 0 -11 3 -8 5 7 8 -16 32 -25 27 -5 -3 -12 0 -16 6 -4 8 -3
9 4 5 7 -4 12 -3 12 1 0 5 -28 33 -61 63 -34 30 -75 72 -91 93 l-30 38 53 -21
c29 -12 89 -30 133 -40z m-1034 -10 c6 -11 8 -20 6 -20 -3 0 -10 9 -16 20 -6
11 -8 20 -6 20 3 0 10 -9 16 -20z m1247 14 c-3 -3 -12 -4 -19 -1 -8 3 -5 6 6
6 11 1 17 -2 13 -5z m552 -36 c55 -24 95 -45 90 -48 -18 -12 -160 12 -239 39
-91 32 -108 42 -59 35 19 -3 48 0 64 5 17 5 33 10 37 10 3 1 51 -18 107 -41z
m-537 8 c103 -33 134 -50 185 -103 24 -25 43 -42 43 -38 0 4 7 2 15 -5 8 -7
15 -17 15 -23 0 -6 -7 -2 -15 9 -8 10 -15 15 -15 11 0 -5 11 -23 25 -41 22
-29 105 -173 105 -183 0 -17 -102 70 -207 176 -89 89 -149 140 -195 167 -105
59 -87 71 44 30z m-1095 -142 c31 -26 60 -59 67 -73 13 -30 49 -93 114 -198
24 -40 42 -78 40 -84 -2 -7 -54 37 -115 97 -61 60 -131 126 -156 147 -48 39
-107 131 -112 173 -1 14 -12 35 -24 48 -11 12 -21 25 -21 29 0 11 150 -89 207
-139z m1653 75 c52 -7 86 -15 76 -17 -29 -6 -207 18 -241 33 -69 30 -68 43 1
20 38 -13 112 -30 164 -36z m-1227 -31 c56 -30 139 -111 200 -196 37 -52 67
-99 67 -106 0 -6 28 -41 63 -77 55 -59 117 -149 103 -149 -3 0 -21 21 -41 48
-53 69 -147 173 -152 168 -6 -6 44 -74 110 -148 50 -57 124 -151 199 -255 30
-41 83 -148 113 -226 15 -40 16 -50 5 -57 -21 -13 -5 -35 54 -80 57 -41 94
-85 82 -97 -8 -9 -40 22 -168 162 -60 65 -127 149 -149 185 -21 36 -39 61 -39
56 0 -5 9 -25 21 -45 l21 -36 -24 27 c-44 50 -85 103 -127 165 -75 111 -145
157 -271 177 l-35 6 33 -15 c17 -8 32 -18 32 -21 0 -3 -4 -2 -10 1 -19 12 -10
-2 17 -26 25 -22 26 -22 9 -1 -27 31 -12 28 74 -19 91 -49 111 -67 163 -144
22 -33 67 -94 98 -137 43 -55 55 -78 44 -81 -15 -7 -79 36 -145 97 -33 31 -33
19 0 -14 18 -18 43 -52 35 -47 -14 7 -159 140 -210 192 -22 22 -70 78 -108
125 -57 72 -65 86 -50 92 17 6 12 10 -19 12 -13 1 -28 20 -117 148 -52 75 -91
118 -105 118 -6 -1 -2 -8 10 -18 43 -36 114 -155 114 -192 0 -19 5 -42 11 -50
9 -12 10 -11 4 5 -9 28 57 -37 158 -155 45 -52 115 -131 157 -175 66 -70 78
-88 94 -145 10 -36 21 -73 24 -84 4 -14 -8 -10 -54 20 -129 84 -171 122 -207
187 -19 35 -53 88 -75 117 -22 29 -50 79 -62 111 -13 36 -39 79 -69 111 -27
29 -76 101 -110 160 -71 124 -81 145 -60 133 8 -5 -1 6 -19 24 -18 19 -31 35
-29 37 2 2 26 -3 53 -11 38 -11 54 -23 72 -52 13 -21 43 -50 65 -65 23 -15 77
-52 120 -83 43 -30 83 -53 87 -50 5 3 22 -2 37 -12 l27 -18 -24 33 c-13 17
-27 32 -30 32 -4 0 -7 6 -7 13 0 10 -153 265 -205 340 -10 15 -14 27 -9 27 6
0 17 -10 24 -22 72 -120 111 -172 167 -226 90 -88 119 -99 39 -16 -64 67 -127
144 -144 174 -14 26 158 -161 202 -219 100 -133 153 -211 190 -280 39 -73 63
-99 63 -67 0 8 -20 43 -44 78 -24 35 -63 95 -86 133 -43 70 -106 147 -230 281
-36 38 -84 94 -108 122 l-43 52 52 -20 c28 -12 61 -26 72 -32z m697 -7 c58
-44 107 -92 205 -201 l29 -32 -39 20 c-58 31 -102 62 -87 62 7 0 23 -5 35 -11
19 -9 18 -7 -3 10 -14 11 -42 29 -63 40 -20 10 -56 41 -79 67 -23 27 -51 59
-62 72 -32 36 -5 25 64 -27z m265 -6 c22 -9 47 -18 55 -20 8 -1 14 -8 13 -14
-2 -6 14 -22 35 -35 20 -13 64 -49 97 -80 l60 -56 -60 26 c-32 14 -71 34 -86
45 -15 10 -31 19 -36 19 -4 0 -26 12 -46 26 -21 14 -41 23 -44 20 -5 -5 48
-40 117 -79 37 -20 35 -35 -2 -17 -16 9 -20 9 -12 1 6 -6 41 -24 78 -40 38
-16 74 -35 81 -42 8 -8 29 -30 48 -50 42 -44 72 -88 64 -95 -6 -7 -141 33
-179 52 -18 9 -42 12 -72 8 -41 -6 -44 -8 -35 -26 7 -13 16 -17 27 -13 9 3 13
3 10 0 -4 -4 8 -20 27 -36 25 -23 92 -132 123 -201 7 -16 -15 -7 -64 24 -27
18 -53 31 -59 29 -5 -1 -7 0 -4 4 6 5 -80 129 -143 205 -23 29 -59 102 -52
109 2 2 42 -14 88 -37 105 -53 133 -55 89 -9 -17 17 -42 57 -57 87 -14 30 -41
72 -61 92 -19 20 -30 38 -24 40 6 2 -8 24 -31 50 -40 46 -40 47 -13 39 15 -5
46 -16 68 -26z m-809 -53 c11 -9 28 -27 39 -41 18 -26 18 -26 -11 2 -17 15
-34 27 -38 27 -4 0 -20 10 -34 21 l-27 21 25 -7 c14 -4 34 -15 46 -23z m458
-61 c50 -21 102 -42 115 -46 17 -5 34 -29 61 -89 21 -44 36 -83 34 -85 -5 -6
-84 43 -153 95 -100 77 -111 81 -46 20 33 -31 92 -76 132 -101 71 -46 94 -72
73 -85 -19 -12 -8 -65 12 -64 11 1 47 -37 99 -107 45 -60 84 -107 86 -105 8 8
-19 49 -72 114 -29 35 -58 82 -65 105 -7 23 -22 57 -34 76 -19 34 -19 34 0 26
10 -4 33 -10 49 -13 17 -2 46 -18 65 -36 19 -17 27 -22 19 -11 -24 30 -31 45
-22 45 5 0 17 -15 28 -32 10 -18 37 -58 59 -88 22 -30 33 -50 25 -44 -8 7 -47
25 -86 42 -52 21 -73 26 -73 17 0 -17 50 -76 59 -71 4 3 15 -10 24 -27 20 -39
77 -180 74 -183 -9 -9 -148 95 -184 137 -23 28 -43 46 -43 40 0 -42 -71 28
-113 111 -30 60 -31 66 -13 56 12 -5 36 -26 54 -46 17 -20 32 -31 32 -25 0 7
-21 34 -46 60 -26 27 -60 68 -78 93 -17 25 -36 46 -41 48 -31 10 -95 100 -95
133 0 7 -11 27 -26 46 -14 18 -20 33 -13 33 6 0 53 -17 103 -39z m-319 -38
c19 -9 35 -20 35 -25 0 -13 -9 -10 -48 17 -43 29 -38 32 13 8z m-36 -17 c15
-8 40 -34 55 -57 40 -60 223 -236 267 -257 20 -9 45 -29 55 -44 19 -28 93 -91
79 -67 -5 8 -19 28 -31 44 -37 51 -64 112 -79 182 -9 38 -18 79 -21 93 l-6 25
27 -25 c40 -38 97 -118 91 -129 -3 -5 8 -41 24 -79 17 -39 30 -79 30 -90 0
-20 75 -198 93 -222 7 -8 -3 -3 -21 12 -18 15 -68 46 -111 68 -53 28 -104 66
-160 120 -45 44 -79 74 -75 68 5 -7 3 -8 -5 -4 -7 5 -10 15 -7 22 5 14 -37 94
-50 94 -3 0 -2 -6 1 -12 4 -7 -7 2 -24 20 -18 18 -29 38 -25 44 4 6 3 8 -3 5
-6 -4 -34 26 -62 66 -28 39 -59 83 -70 97 -34 42 -23 52 28 26z m584 -29 c22
-15 97 -140 97 -162 0 -13 -36 -2 -66 20 -22 17 -40 45 -55 85 -12 34 -26 63
-30 66 -5 3 -9 9 -9 14 0 12 27 2 63 -23z m-905 -217 c7 -11 11 -20 9 -20 -2
0 -12 9 -22 20 -10 11 -14 20 -9 20 5 0 15 -9 22 -20z m-198 -80 c12 -16 19
-30 16 -30 -2 0 -14 14 -26 30 -12 17 -19 30 -16 30 2 0 14 -13 26 -30z m760
-84 c0 -5 -13 3 -30 19 -16 16 -30 30 -30 32 0 2 14 -6 30 -19 17 -12 30 -26
30 -32z m48 -66 c12 -16 22 -32 22 -36 0 -8 32 -33 43 -34 5 0 5 6 1 13 -4 6
2 4 14 -7 12 -10 19 -22 17 -26 -3 -5 10 -34 27 -65 18 -31 34 -51 36 -46 2 6
-10 32 -28 57 -17 26 -28 49 -25 52 3 3 27 -14 53 -39 62 -59 95 -82 57 -40
-23 26 -25 31 -9 23 35 -18 127 -106 115 -110 -6 -2 -11 -11 -11 -20 0 -15 -2
-15 -10 -2 -5 8 -10 11 -10 5 0 -5 -18 10 -41 35 l-41 45 38 -54 c41 -59 74
-161 74 -230 l0 -45 -44 84 c-94 183 -148 270 -91 149 13 -29 22 -55 19 -58
-12 -12 -56 53 -100 149 -26 57 -56 114 -67 125 -31 32 -79 105 -69 105 4 0
18 -13 30 -30z m354 -35 c52 -57 130 -265 101 -265 -11 0 -76 119 -88 160 -12
44 -57 140 -65 140 -4 0 1 -27 11 -61 28 -89 24 -90 -21 -5 -22 41 -40 78 -40
81 0 4 10 3 21 0 16 -6 20 -4 14 6 -9 15 39 -24 67 -56z m-890 -15 c58 -81 77
-142 28 -95 -31 30 -54 72 -66 120 -7 33 -2 30 38 -25z m778 -86 c0 -2 -9 0
-20 6 -11 6 -20 13 -20 16 0 2 9 0 20 -6 11 -6 20 -13 20 -16z m-371 -149 c47
-39 56 -42 47 -20 -4 12 -2 13 12 6 41 -24 118 -90 155 -134 36 -42 41 -55 45
-108 l4 -60 -33 23 c-80 54 -124 97 -169 163 -26 39 -58 79 -70 90 -13 11 -4
-4 19 -34 43 -56 76 -111 66 -111 -4 0 -25 13 -48 30 -76 54 -83 60 -70 68 9
6 7 18 -6 47 -10 22 -21 53 -25 68 -6 25 -5 27 12 18 11 -6 38 -26 61 -46z
m142 -22 c38 -31 89 -88 103 -112 5 -9 -11 3 -36 25 -25 23 -64 54 -87 69 -22
15 -41 32 -41 36 0 17 29 9 61 -18z m-154 -130 c73 -55 74 -56 111 -170 6 -18
7 -33 3 -33 -4 0 -39 27 -77 60 -60 52 -164 185 -164 211 0 15 53 -13 127 -68z
m381 11 c17 -21 30 -39 28 -42 -5 -4 -126 85 -126 93 0 2 15 0 33 -5 17 -5 47
-26 65 -46z m52 -108 c0 -15 -3 -16 -14 -7 -8 7 -12 21 -9 32 5 16 8 18 14 7
5 -7 9 -21 9 -32z m-4860 -96 c144 -64 293 -118 420 -152 63 -16 121 -33 128
-37 10 -6 0 -27 -37 -82 -66 -98 -148 -179 -219 -215 -55 -28 -62 -29 -229
-32 -186 -4 -200 0 -150 45 35 32 62 43 111 43 51 0 64 11 39 35 -13 14 -33
16 -113 13 -86 -3 -101 -6 -138 -31 -23 -15 -42 -23 -42 -17 0 16 89 69 135
81 22 6 47 12 56 15 20 6 39 46 39 84 0 40 -43 150 -91 233 -45 79 -49 79 91
17z m3099 -316 c-39 -42 -100 -72 -169 -83 -73 -12 -290 -15 -290 -4 0 4 17
24 37 45 31 32 35 40 23 48 -10 6 45 10 155 12 94 2 192 5 219 6 l49 2 -24
-26z m-670 13 c-2 -1 -13 -9 -24 -17 -19 -14 -19 -14 -6 3 7 9 18 17 24 17 6
0 8 -1 6 -3z m194 -12 c-17 -7 -39 -26 -49 -42 -10 -15 -19 -30 -20 -31 -2 -2
-17 -1 -34 3 -28 6 -31 10 -28 38 3 36 24 44 113 45 l50 1 -32 -14z"/>
<path d="M4887 7614 c-16 -9 -27 -18 -24 -20 3 -3 20 4 38 15 39 24 28 28 -14
5z"/>
<path d="M6168 7363 c6 -2 18 -2 25 0 6 3 1 5 -13 5 -14 0 -19 -2 -12 -5z"/>
<path d="M4989 7073 c-13 -15 -12 -15 9 -4 23 12 28 21 13 21 -5 0 -15 -7 -22
-17z"/>
<path d="M7383 6593 c9 -2 23 -2 30 0 6 3 -1 5 -18 5 -16 0 -22 -2 -12 -5z"/>
<path d="M7275 6578 c-61 -16 -68 -18 -64 -23 3 -2 38 4 79 14 41 10 64 19 50
19 -14 0 -43 -5 -65 -10z"/>
<path d="M7531 6456 c2 -2 29 -6 59 -9 34 -3 47 -2 35 3 -19 8 -103 14 -94 6z"/>
<path d="M7390 6433 c-25 -3 -49 -8 -54 -14 -15 -14 63 -10 104 6 36 14 30 15
-50 8z"/>
<path d="M6900 6526 l-35 -13 63 -8 c35 -4 66 -4 69 -1 4 3 -9 6 -28 6 l-34 1
25 14 25 14 -25 0 c-14 0 -41 -6 -60 -13z"/>
<path d="M7309 5463 c37 -27 106 -44 196 -49 94 -6 84 8 -20 25 -122 21 -159
28 -180 35 -16 6 -15 3 4 -11z"/>
<path d="M7701 5686 c2 -3 26 -14 52 -25 54 -23 56 -12 3 13 -31 15 -65 22
-55 12z"/>
<path d="M8358 5593 c7 -3 16 -2 19 1 4 3 -2 6 -13 5 -11 0 -14 -3 -6 -6z"/>
<path d="M8053 5543 c9 -2 23 -2 30 0 6 3 -1 5 -18 5 -16 0 -22 -2 -12 -5z"/>
<path d="M8038 5183 c6 -2 18 -2 25 0 6 3 1 5 -13 5 -14 0 -19 -2 -12 -5z"/>
<path d="M8305 4855 c17 -8 39 -14 50 -14 11 0 0 7 -25 15 -56 17 -64 17 -25
-1z"/>
<path d="M8598 4753 c7 -3 16 -2 19 1 4 3 -2 6 -13 5 -11 0 -14 -3 -6 -6z"/>
<path d="M6945 5360 c28 -10 113 -46 190 -80 161 -71 175 -76 175 -63 0 12
-234 119 -313 145 -77 24 -119 23 -52 -2z"/>
<path d="M6880 5159 c14 -12 52 -47 85 -78 34 -31 92 -79 130 -106 39 -28 104
-81 145 -118 76 -70 130 -106 130 -87 0 5 -4 10 -10 10 -5 0 -48 36 -94 80
-47 44 -110 95 -140 115 -31 20 -56 40 -56 45 0 5 -8 11 -17 14 -10 3 -38 24
-63 47 -88 81 -111 99 -123 99 -7 -1 -1 -10 13 -21z"/>
<path d="M7725 4938 c24 -13 63 -23 100 -24 33 -2 70 -6 83 -9 19 -5 23 -2 20
12 -2 13 -21 20 -88 30 -47 6 -101 12 -120 12 l-35 0 40 -21z"/>
<path d="M8090 4702 c0 -5 11 -14 25 -20 14 -6 25 -10 25 -8 0 2 -11 11 -25
20 -14 9 -25 13 -25 8z"/>
<path d="M8150 4666 c0 -2 8 -10 18 -17 15 -13 16 -12 3 4 -13 16 -21 21 -21
13z"/>
<path d="M8205 4620 c8 -13 96 -62 101 -57 3 3 -20 18 -50 35 -31 17 -54 26
-51 22z"/>
<path d="M6935 4334 c39 -62 114 -153 137 -165 20 -11 19 -8 -7 23 -16 19 -50
61 -74 92 -53 68 -85 96 -56 50z"/>
<path d="M7780 3786 c0 -2 14 -14 30 -26 17 -12 30 -18 30 -13 0 5 -13 17 -30
26 -16 10 -30 16 -30 13z"/>
<path d="M7910 3636 c17 -25 34 -46 36 -46 10 0 -41 84 -54 88 -7 2 1 -17 18
-42z"/>
<path d="M7730 3666 c0 -2 8 -10 18 -17 15 -13 16 -12 3 4 -13 16 -21 21 -21
13z"/>
<path d="M7760 3626 c0 -2 8 -10 18 -17 15 -13 16 -12 3 4 -13 16 -21 21 -21
13z"/>
<path d="M7880 3956 c0 -2 8 -10 18 -17 15 -13 16 -12 3 4 -13 16 -21 21 -21
13z"/>
<path d="M2926 7375 c-4 -33 -18 -107 -31 -165 -26 -115 -46 -254 -44 -310 1
-19 7 10 14 65 7 55 27 171 44 258 18 87 31 170 29 185 -3 18 -7 6 -12 -33z"/>
<path d="M3146 7180 c-17 -114 -60 -309 -111 -506 -62 -234 -79 -317 -72 -336
3 -7 6 -2 6 12 1 14 17 84 36 155 107 396 158 630 153 692 -3 36 -4 35 -12
-17z"/>
<path d="M2554 7175 c12 -32 76 -267 107 -390 32 -132 84 -293 99 -309 5 -5
-7 40 -26 100 -19 60 -50 174 -70 254 -37 153 -101 360 -111 360 -3 0 -3 -7 1
-15z"/>
<path d="M3325 7150 c-4 -17 -5 -34 -2 -36 2 -3 7 10 11 27 8 42 0 50 -9 9z"/>
<path d="M3287 7008 c-9 -37 -17 -73 -16 -80 0 -7 9 19 20 57 10 39 17 74 16
80 -2 5 -11 -21 -20 -57z"/>
<path d="M3261 6894 c0 -11 3 -14 6 -6 3 7 2 16 -1 19 -3 4 -6 -2 -5 -13z"/>
<path d="M4010 6853 c-6 -27 -25 -77 -42 -113 -37 -79 -58 -137 -58 -159 0
-16 48 85 89 185 20 51 38 134 28 134 -2 0 -10 -21 -17 -47z"/>
<path d="M3250 6868 c0 -8 -78 -341 -85 -363 -6 -17 -5 -18 4 -3 14 22 94 358
87 366 -3 3 -6 3 -6 0z"/>
<path d="M2844 6735 c0 -71 1 -99 3 -62 2 37 2 96 0 130 -2 34 -3 4 -3 -68z"/>
<path d="M2591 6764 c0 -11 3 -14 6 -6 3 7 2 16 -1 19 -3 4 -6 -2 -5 -13z"/>
<path d="M2607 6680 c3 -30 10 -66 14 -80 5 -15 5 -2 2 30 -3 30 -10 66 -14
80 -5 15 -5 2 -2 -30z"/>
<path d="M4029 6703 l-24 -28 28 24 c25 23 32 31 24 31 -2 0 -14 -12 -28 -27z"/>
<path d="M4795 6561 c-54 -14 -131 -59 -162 -95 -41 -46 -73 -135 -80 -221 -3
-41 -12 -77 -21 -87 -28 -33 10 -20 83 27 37 25 70 43 73 40 6 -6 -17 -86 -30
-102 -14 -17 11 -28 27 -12 18 20 48 117 41 134 -8 23 -30 18 -93 -20 -32 -19
-62 -35 -66 -35 -13 0 3 100 23 147 25 56 103 133 165 162 32 16 75 26 120 28
63 4 76 2 128 -25 70 -35 51 -8 -22 31 -51 29 -136 41 -186 28z"/>
<path d="M2828 6438 c-2 -57 -2 -125 1 -153 4 -33 8 -1 11 95 3 80 2 149 -1
153 -4 5 -8 -38 -11 -95z"/>
<path d="M2872 6260 c0 -14 2 -19 5 -12 2 6 2 18 0 25 -3 6 -5 1 -5 -13z"/>
<path d="M4750 6180 c-19 -16 -30 -29 -25 -30 16 0 75 39 75 50 0 17 -14 11
-50 -20z"/>
<path d="M6150 6119 c-85 -4 -211 -15 -280 -23 -187 -24 -327 -36 -363 -31
-20 3 -11 -2 23 -14 30 -10 73 -21 95 -24 l40 -6 -40 13 -40 13 60 7 c380 45
511 51 650 30 25 -4 26 -3 10 5 -16 8 -10 10 30 11 28 1 61 5 75 9 21 6 18 8
-24 14 -27 4 -56 6 -65 5 -9 0 -86 -5 -171 -9z"/>
<path d="M6918 6123 c6 -2 18 -2 25 0 6 3 1 5 -13 5 -14 0 -19 -2 -12 -5z"/>
<path d="M6851 6085 c-84 -27 -165 -42 -301 -55 l-95 -9 125 4 c100 2 148 9
241 34 64 17 127 35 140 40 53 21 -36 10 -110 -14z"/>
<path d="M4735 6093 c-44 -11 -38 -23 11 -23 28 0 54 -3 57 -7 4 -4 -5 -19
-20 -35 -26 -27 -26 -28 -6 -28 12 0 34 5 48 10 20 8 26 7 23 -2 -3 -7 -30
-21 -61 -31 -31 -10 -57 -21 -57 -25 0 -4 37 -25 82 -47 l81 -40 -47 -9 c-52
-10 -58 -21 -21 -38 29 -13 69 3 80 30 7 19 -56 78 -93 88 -22 6 -23 7 -4 18
67 39 102 62 102 68 0 4 -20 10 -45 14 -43 6 -56 16 -35 29 5 3 7 12 3 20 -5
15 -54 19 -98 8z"/>
<path d="M6858 6043 c7 -3 16 -2 19 1 4 3 -2 6 -13 5 -11 0 -14 -3 -6 -6z"/>
<path d="M5670 5912 c0 -11 38 -18 145 -27 91 -8 677 -88 872 -120 186 -31
202 -30 93 1 -82 23 -172 37 -455 70 -71 8 -200 26 -285 39 -85 13 -191 27
-235 30 -44 3 -92 9 -107 11 -16 3 -28 1 -28 -4z"/>
<path d="M3432 5787 c-86 -32 -132 -99 -132 -194 0 -117 82 -194 209 -196 85
0 152 44 185 125 70 166 -90 327 -262 265z m148 -107 c39 -39 12 -100 -44
-100 -45 0 -69 21 -69 60 0 57 71 82 113 40z"/>
<path d="M5150 5726 c3 -2 56 -23 118 -45 147 -52 237 -96 340 -165 46 -31 80
-51 77 -46 -12 19 -149 107 -230 148 -97 48 -327 130 -305 108z"/>
<path d="M5205 5615 c102 -35 258 -115 350 -179 106 -74 335 -285 443 -409 90
-102 339 -421 477 -613 44 -60 120 -161 170 -225 127 -165 214 -280 291 -384
73 -101 96 -127 65 -75 -39 64 -155 228 -229 322 -134 171 -241 311 -414 543
-237 318 -319 417 -493 591 -168 169 -307 278 -454 353 -92 47 -234 102 -263
100 -7 0 19 -11 57 -24z"/>
<path d="M6138 5593 c7 -3 16 -2 19 1 4 3 -2 6 -13 5 -11 0 -14 -3 -6 -6z"/>
<path d="M6178 5583 c7 -3 16 -2 19 1 4 3 -2 6 -13 5 -11 0 -14 -3 -6 -6z"/>
<path d="M6228 5573 c7 -3 16 -2 19 1 4 3 -2 6 -13 5 -11 0 -14 -3 -6 -6z"/>
<path d="M6340 5536 c116 -61 233 -116 248 -116 21 0 -227 125 -265 134 -21 5
-17 0 17 -18z"/>
<path d="M5180 5527 c3 -2 57 -26 120 -52 137 -55 188 -83 341 -186 223 -151
544 -521 954 -1100 116 -164 310 -421 430 -569 66 -81 143 -178 170 -214 28
-36 56 -67 63 -70 13 -6 -67 98 -259 336 -63 79 -147 188 -186 243 -39 55
-104 144 -144 198 -41 53 -94 125 -119 160 -116 163 -347 466 -450 592 -250
307 -489 496 -768 609 -108 44 -161 63 -152 53z"/>
<path d="M2239 5484 c-14 -18 -115 -89 -164 -116 -44 -25 -17 -22 30 3 51 28
125 84 142 109 17 24 11 27 -8 4z"/>
<path d="M2555 5455 c-22 -13 -51 -29 -63 -35 -13 -6 -54 -28 -91 -49 -37 -22
-95 -48 -129 -58 -56 -16 -81 -33 -49 -33 51 0 295 121 354 176 33 30 28 30
-22 -1z"/>
<path d="M5080 5470 c8 -5 20 -10 25 -10 6 0 3 5 -5 10 -8 5 -19 10 -25 10 -5
0 -3 -5 5 -10z"/>
<path d="M2305 5440 c-24 -26 -143 -105 -174 -115 -25 -7 -27 -20 -6 -29 9 -3
15 0 15 9 0 16 35 30 65 26 16 -1 17 0 6 8 -11 7 -4 16 35 40 76 46 87 56 83
70 -3 9 -11 6 -24 -9z"/>
<path d="M2395 5450 c-3 -5 -2 -10 4 -10 5 0 13 5 16 10 3 6 2 10 -4 10 -5 0
-13 -4 -16 -10z"/>
<path d="M5290 5372 c260 -129 359 -202 560 -408 190 -195 383 -431 707 -864
105 -140 201 -264 213 -275 13 -11 -5 16 -39 60 -33 44 -145 192 -247 329
-528 708 -794 975 -1150 1154 -77 39 -201 92 -213 92 -3 0 73 -40 169 -88z"/>
<path d="M5700 5456 c0 -2 8 -10 18 -17 15 -13 16 -12 3 4 -13 16 -21 21 -21
13z"/>
<path d="M2310 5400 c-9 -6 -10 -10 -3 -10 6 0 15 5 18 10 8 12 4 12 -15 0z"/>
<path d="M2628 5375 c-129 -67 -270 -117 -308 -111 -21 3 -30 2 -21 -3 7 -5
10 -14 6 -21 -5 -8 -2 -11 11 -7 11 3 33 8 51 12 69 14 312 129 328 155 8 13
9 14 -67 -25z"/>
<path d="M5820 5364 c88 -74 284 -271 373 -374 151 -175 496 -651 579 -800 14
-25 39 -67 56 -95 17 -27 50 -83 73 -123 23 -41 67 -108 97 -150 31 -43 121
-171 200 -287 165 -240 196 -281 224 -296 26 -14 21 -5 -47 81 -28 36 -90 121
-137 190 -47 69 -126 181 -176 250 -50 69 -130 190 -178 270 -178 297 -315
500 -506 754 -170 224 -445 513 -570 596 -21 14 -17 8 12 -16z"/>
<path d="M2720 5320 c-30 -16 -113 -47 -185 -70 -71 -23 -137 -44 -145 -47
-11 -4 -11 -7 -3 -10 28 -10 369 113 393 142 17 20 4 17 -60 -15z"/>
<path d="M2805 5258 c-49 -16 -155 -47 -235 -68 -103 -27 -140 -40 -126 -45
12 -5 61 4 135 25 143 41 363 119 336 119 -11 0 -60 -14 -110 -31z"/>
<path d="M2255 5220 c3 -5 13 -10 21 -10 8 0 12 5 9 10 -3 6 -13 10 -21 10 -8
0 -12 -4 -9 -10z"/>
<path d="M2300 5190 c0 -5 5 -10 11 -10 5 0 7 5 4 10 -3 6 -8 10 -11 10 -2 0
-4 -4 -4 -10z"/>
<path d="M2240 5160 c0 -5 5 -10 10 -10 6 0 10 5 10 10 0 6 -4 10 -10 10 -5 0
-10 -4 -10 -10z"/>
<path d="M2834 5154 c-126 -15 -356 -53 -363 -60 -9 -9 88 -3 174 10 100 16
312 42 450 55 l90 8 -120 1 c-66 0 -170 -6 -231 -14z"/>
<path d="M2495 5041 l-30 -7 25 -7 c14 -4 106 -7 205 -7 151 0 270 -8 478 -33
15 -2 24 0 20 4 -11 10 -138 35 -243 48 -91 12 -406 13 -455 2z"/>
<path d="M2460 4980 c0 -5 19 -10 43 -10 80 0 332 -55 507 -111 52 -17 101
-32 108 -34 25 -8 11 5 -25 24 -70 35 -287 101 -402 121 -123 21 -231 26 -231
10z"/>
<path d="M2467 4929 c5 -5 73 -25 149 -44 147 -35 301 -90 371 -131 46 -26 53
-28 53 -15 0 32 -275 141 -454 180 -109 24 -135 26 -119 10z"/>
<path d="M2320 4910 c0 -5 5 -10 11 -10 5 0 7 5 4 10 -3 6 -8 10 -11 10 -2 0
-4 -4 -4 -10z"/>
<path d="M2441 4876 c2 -2 60 -23 129 -46 69 -23 162 -58 208 -76 95 -39 111
-42 62 -13 -47 29 -238 105 -310 124 -54 14 -99 20 -89 11z"/>
<path d="M6978 4120 c6 -14 22 -51 36 -83 14 -32 26 -62 26 -68 0 -36 229
-430 267 -460 11 -9 10 -4 -5 15 -26 34 -29 54 -5 35 15 -13 15 -12 5 8 -15
28 -34 40 -25 16 13 -37 -13 2 -104 154 -51 87 -101 183 -109 213 -17 57 -68
167 -85 185 -7 7 -7 2 -1 -15z"/>
<path d="M7170 3826 c0 -8 141 -248 172 -293 32 -47 36 -62 11 -42 -26 21 20
-42 115 -159 46 -57 87 -101 89 -98 3 3 1 12 -5 19 -7 8 -8 18 -4 22 4 5 1 5
-6 1 -7 -5 -15 2 -21 17 -6 14 -14 28 -20 31 -6 4 -20 21 -32 39 -13 19 5 6
47 -35 75 -73 201 -164 154 -112 -14 15 -38 39 -55 53 -199 172 -228 207 -364
439 -65 109 -81 133 -81 118z m221 -368 c11 -21 11 -22 -4 -9 -10 7 -17 17
-17 22 0 15 9 10 21 -13z"/>
<path d="M7445 3550 c3 -5 8 -10 11 -10 2 0 4 5 4 10 0 6 -5 10 -11 10 -5 0
-7 -4 -4 -10z"/>
<path d="M7320 3486 c0 -2 8 -10 18 -17 15 -13 16 -12 3 4 -13 16 -21 21 -21
13z"/>
<path d="M7695 3210 c9 -31 49 -75 93 -102 51 -31 47 -17 -6 22 -25 19 -57 51
-70 70 -20 29 -23 30 -17 10z"/>
</g>
</svg>
