<?xml version="1.0" standalone="no"?>
<!DOCTYPE svg PUBLIC "-//W3C//DTD SVG 20010904//EN"
 "http://www.w3.org/TR/2001/REC-SVG-20010904/DTD/svg10.dtd">
<svg version="1.0" xmlns="http://www.w3.org/2000/svg"
 width="1024.000000pt" height="1024.000000pt" viewBox="0 0 1024.000000 1024.000000"
 preserveAspectRatio="xMidYMid meet">
<metadata>
Created by potrace 1.16, written by Peter Selinger 2001-2019
</metadata>
<g transform="translate(0.000000,1024.000000) scale(0.100000,-0.100000)"
fill="#000000" stroke="none">
<path d="M3250 8015 c-98 -18 -215 -77 -410 -206 -125 -83 -178 -125 -276
-223 -214 -214 -280 -342 -388 -753 -48 -182 -85 -290 -122 -365 -33 -65 -31
-108 9 -181 41 -79 107 -145 233 -234 143 -101 196 -150 257 -231 29 -39 86
-99 127 -135 123 -105 191 -184 245 -287 l50 -95 52 -7 c68 -10 173 -50 227
-87 24 -17 74 -65 112 -107 64 -72 76 -80 197 -137 l129 -61 -6 -51 c-53 -456
-22 -769 119 -1191 56 -167 95 -256 146 -331 16 -23 29 -44 29 -48 0 -3 9 -18
20 -33 32 -43 43 -175 37 -427 -6 -230 -6 -234 -73 -488 l-28 -107 -120 0
c-65 0 -117 -2 -115 -4 2 -2 55 -6 117 -9 61 -3 113 -9 114 -13 1 -12 -65 -23
-132 -22 l-55 1 45 7 45 7 -61 1 c-33 1 -64 -1 -68 -6 -4 -4 -64 -12 -134 -18
l-127 -12 243 2 c133 0 242 -2 242 -5 0 -6 -416 -23 -543 -22 -38 0 -63 -3
-57 -7 7 -4 145 -6 308 -5 320 3 251 -5 -173 -21 -178 -6 -211 -10 -175 -17
29 -7 102 -6 210 2 205 14 430 15 430 1 0 -6 -67 -10 -177 -11 -275 -2 -342
-15 -93 -19 113 -1 194 -5 180 -9 -16 -4 0 -7 45 -11 39 -3 -110 -5 -330 -4
-220 1 -371 0 -335 -2 36 -2 128 -9 205 -15 77 -6 232 -12 345 -12 l205 0
-170 -7 c-93 -4 -281 -5 -416 -2 -185 4 -248 2 -253 -7 -6 -9 6 -11 46 -7 29
3 155 1 280 -5 133 -6 240 -7 260 -2 18 5 87 7 153 4 l120 -6 -130 -6 -130 -5
143 -1 c79 -1 145 -3 148 -6 8 -8 -119 -16 -201 -12 -155 6 -626 7 -632 1 -4
-3 108 -7 248 -8 140 -1 352 -2 472 -3 119 -1 220 -5 225 -9 4 -5 -123 -6
-282 -4 -158 2 -278 0 -265 -3 13 -4 110 -8 214 -8 105 -1 298 -8 430 -15 183
-11 311 -12 540 -4 293 9 664 5 875 -10 167 -11 -1599 -5 -1865 7 -132 6 -265
13 -295 16 -42 4 -48 3 -27 -4 15 -5 143 -17 285 -26 203 -13 411 -16 989 -14
402 0 735 -1 740 -3 28 -16 1026 12 1168 32 83 12 -461 2 -645 -11 -80 -6
-167 -9 -195 -7 -43 4 -40 5 22 6 39 1 130 9 202 17 72 9 225 17 342 20 116 2
214 6 217 9 6 7 -163 11 -318 8 -89 -1 -100 0 -70 9 24 8 108 9 275 4 326 -11
376 -11 480 -5 l90 6 -130 3 c-71 1 -215 6 -320 12 -104 5 -228 9 -275 10
-188 1 26 23 425 43 39 2 -51 3 -200 1 -157 -1 -247 1 -215 6 30 4 191 9 357
11 167 2 303 7 303 11 0 4 -155 6 -345 5 -190 -2 -345 0 -345 5 0 4 82 8 183
8 313 3 366 15 77 19 l-255 3 150 9 c83 5 240 7 350 5 135 -3 173 -2 115 3
-47 5 -201 8 -342 9 -159 1 -259 5 -263 11 -4 7 94 10 287 11 162 1 282 5 268
9 -14 4 -146 8 -294 9 -185 1 -267 4 -260 11 6 6 86 11 197 13 103 1 187 5
187 10 0 4 -13 7 -29 7 -17 0 -33 5 -36 10 -3 6 -14 10 -23 9 -16 0 -16 -1 0
-7 16 -6 -165 -9 -269 -4 -79 4 -44 21 50 25 l92 3 -92 2 -92 2 -6 38 c-4 20
-20 82 -36 137 -51 176 -52 189 -45 485 7 338 12 375 60 433 96 118 245 536
281 789 26 181 16 640 -15 757 -5 19 -8 36 -7 38 2 1 62 31 134 67 109 54 137
72 169 112 22 27 54 63 72 81 55 54 185 110 324 138 22 4 34 19 64 80 41 85
130 187 221 255 91 69 131 109 184 188 51 74 122 137 284 251 97 68 149 120
193 194 51 85 51 116 4 259 -22 68 -55 179 -73 248 -90 356 -206 590 -381 771
-92 95 -180 166 -339 271 -183 122 -295 176 -404 195 -129 22 -229 9 -485 -67
-113 -33 -243 -70 -290 -82 -86 -21 -151 -48 -182 -75 -16 -14 -26 -11 -106
30 -123 64 -214 88 -338 88 -73 0 -112 -4 -140 -16 -33 -14 -80 -17 -322 -17
-221 0 -286 3 -299 14 -11 8 -54 14 -128 17 -155 4 -283 -29 -416 -109 l-36
-22 -44 31 c-29 21 -77 39 -145 56 -55 13 -172 47 -260 74 -87 28 -188 57
-224 65 -99 23 -233 28 -320 11z m229 -55 c48 -6 157 -34 255 -66 94 -30 218
-66 276 -80 145 -34 139 -32 158 -71 l17 -36 -49 -41 c-27 -22 -77 -68 -111
-101 -73 -72 -96 -131 -104 -274 l-6 -94 -65 88 c-141 193 -264 271 -487 310
-98 17 -338 21 -328 5 3 -5 32 -10 63 -10 68 0 199 -30 262 -60 37 -17 39 -20
15 -16 -247 44 -451 14 -651 -95 -89 -49 -93 -64 -5 -20 174 88 296 116 485
109 117 -5 154 -10 221 -33 78 -26 199 -84 191 -92 -2 -2 -19 5 -37 15 -54 31
-261 84 -275 70 -4 -5 135 -48 156 -48 15 0 170 -75 195 -94 11 -9 -11 -3 -50
13 -71 30 -159 54 -229 65 -63 9 -29 -9 79 -42 55 -17 130 -41 167 -55 71 -25
103 -44 55 -32 -41 11 -33 -2 21 -29 26 -13 58 -36 72 -51 16 -17 -6 -6 -60
30 -66 45 -107 64 -184 86 -55 16 -101 27 -103 25 -2 -2 36 -17 85 -33 139
-46 281 -135 314 -196 7 -13 -13 -1 -48 29 -60 51 -124 86 -203 111 -70 21
-58 10 27 -25 106 -44 137 -65 167 -112 14 -22 34 -49 44 -59 59 -59 76 -273
32 -385 -13 -33 -36 -71 -50 -84 -25 -23 -25 -24 -3 -18 22 7 28 0 14 -20 -4
-6 -30 -23 -57 -38 -28 -15 -64 -38 -80 -52 -23 -19 -12 -16 46 15 86 46 89
47 89 26 0 -8 -17 -23 -37 -34 -41 -21 -142 -91 -132 -91 4 0 42 20 85 45 43
24 80 42 82 40 12 -11 -13 -37 -77 -79 -39 -26 -74 -52 -77 -58 -8 -13 -7 -12
84 45 35 22 66 36 69 33 4 -4 -20 -34 -53 -68 -56 -59 -45 -57 23 5 57 53 72
8 21 -64 l-32 -44 37 34 c46 43 47 35 2 -34 -43 -69 -38 -71 10 -5 35 48 55
62 55 39 0 -6 -14 -41 -31 -77 -17 -37 -33 -83 -35 -102 l-4 -35 14 40 c22 65
57 137 63 131 3 -3 -5 -46 -17 -95 -12 -50 -20 -95 -18 -102 2 -7 12 25 21 69
10 45 22 84 27 87 14 8 12 -17 -4 -84 -20 -84 -39 -191 -34 -196 2 -2 15 39
28 93 13 53 27 104 32 112 12 25 9 -58 -7 -145 -19 -103 -19 -110 -2 -93 7 7
20 49 27 92 21 116 27 64 24 -202 -1 -122 1 -224 6 -227 8 -5 19 96 21 190 1
33 4 71 8 85 17 59 28 -133 12 -205 -5 -22 -13 -71 -16 -110 -10 -101 8 -70
29 50 24 138 28 149 37 101 3 -21 0 -73 -7 -115 -8 -42 -13 -96 -12 -121 0
-32 6 -11 19 70 l18 115 -5 -145 c-3 -80 -3 -142 1 -138 6 6 13 34 43 178 4
19 10 30 14 25 6 -10 2 -67 -18 -270 -4 -38 -4 -67 0 -64 11 10 56 221 56 262
0 20 5 37 10 37 18 0 -5 -220 -37 -360 -4 -17 -2 -22 5 -15 9 8 36 122 55 235
9 54 7 -58 -4 -145 -12 -106 -46 -185 -116 -264 -86 -98 -124 -103 -232 -27
-43 30 -138 82 -212 116 -130 60 -136 64 -226 156 -76 79 -105 101 -167 130
-42 19 -106 41 -144 50 l-67 15 -38 73 c-44 85 -160 218 -266 305 -45 36 -90
84 -112 119 -40 63 -124 138 -299 269 -109 81 -169 148 -196 220 l-17 43 51
133 c28 74 69 206 91 293 22 87 52 195 66 238 34 104 113 257 177 343 110 146
308 311 538 447 199 118 284 139 469 116z m3497 -1 c73 -12 249 -97 364 -174
213 -143 367 -281 464 -418 89 -124 217 -421 220 -509 1 -15 4 -28 7 -28 3 0
18 -42 33 -92 16 -51 43 -143 62 -204 19 -62 34 -122 34 -135 0 -37 -44 -122
-86 -169 -21 -23 -89 -78 -152 -123 -148 -105 -242 -193 -287 -267 -25 -42
-60 -78 -119 -124 -112 -87 -204 -182 -245 -253 -19 -32 -40 -68 -47 -79 -9
-15 -34 -27 -86 -39 -40 -10 -112 -38 -159 -62 -74 -37 -99 -56 -163 -127 -73
-80 -80 -85 -198 -137 -68 -30 -159 -78 -205 -107 -102 -66 -138 -74 -181 -37
-37 31 -115 153 -136 213 -13 35 -48 244 -45 270 0 4 16 -49 35 -117 52 -188
54 -178 19 84 -18 132 -19 167 -5 145 5 -8 10 -26 10 -40 0 -34 25 -130 45
-172 l15 -33 -6 45 c-17 134 -22 219 -15 250 6 31 8 27 14 -39 4 -41 11 -79
16 -85 5 -6 12 -26 16 -44 15 -70 16 -18 4 122 -10 113 -10 149 -1 158 9 9 12
4 12 -26 0 -47 29 -178 42 -191 7 -7 9 0 5 20 -19 103 -29 235 -22 280 l9 50
11 -80 c7 -44 21 -102 33 -130 25 -60 28 -37 8 66 -18 94 -30 281 -14 229 6
-19 19 -62 28 -95 18 -60 18 -60 19 -20 0 22 -4 60 -10 85 -17 73 -26 150 -17
150 4 0 8 -11 8 -24 0 -24 40 -129 47 -123 2 2 -4 23 -12 47 -8 24 -13 45 -10
48 3 3 10 -9 16 -27 6 -18 13 -30 16 -27 3 2 -4 30 -16 61 -13 33 -21 77 -20
108 1 29 3 43 6 32 11 -51 57 -176 66 -182 7 -4 8 1 3 13 -10 22 -56 205 -56
218 0 17 12 -2 36 -61 13 -32 24 -51 24 -42 0 8 -11 43 -25 77 -28 69 -29 72
-16 72 5 0 20 -24 35 -52 14 -29 26 -47 26 -39 0 8 -12 34 -26 58 -14 24 -24
51 -22 61 2 11 17 -6 41 -48 20 -36 37 -59 37 -52 0 7 -14 37 -31 67 -38 67
-33 96 6 37 36 -55 44 -54 11 2 -26 45 -35 83 -16 71 10 -6 14 7 11 33 -3 19
7 15 75 -34 35 -25 64 -43 64 -41 0 2 -29 27 -65 55 -36 29 -65 59 -65 67 0
21 8 19 47 -11 18 -14 33 -20 33 -14 0 10 -16 26 -55 54 -11 8 -16 18 -12 23
5 4 41 -9 80 -30 40 -21 68 -34 62 -29 -20 18 -117 82 -126 82 -5 0 -9 9 -9
19 0 19 2 19 60 -4 33 -13 60 -22 60 -19 0 2 -27 17 -60 34 -57 29 -77 50 -46
50 7 0 40 -14 72 -31 46 -25 55 -27 41 -11 -10 11 -45 32 -78 46 -35 16 -59
33 -59 43 0 10 6 13 17 9 16 -6 16 -6 0 11 -35 39 -69 154 -74 253 -5 91 -4
98 26 160 58 121 137 187 296 244 22 8 33 15 24 15 -8 1 -60 -17 -115 -39 -78
-31 -105 -47 -129 -77 -52 -64 -69 -81 -45 -46 11 18 25 35 30 38 21 13 9 25
-12 15 -15 -7 -10 0 12 20 45 40 154 96 255 131 44 15 72 28 61 28 -30 1 -197
-58 -256 -91 -47 -26 -52 -28 -35 -8 25 28 177 101 273 130 40 13 70 25 67 28
-6 7 -132 -27 -167 -44 -35 -18 -59 -18 -33 -1 35 24 178 71 235 77 l55 7 -50
2 c-47 1 -204 -41 -257 -70 -16 -8 -19 -8 -16 2 5 14 177 80 278 106 35 9 59
18 52 21 -15 5 -174 -26 -227 -45 -22 -8 -35 -9 -29 -3 5 5 57 27 115 47 l104
37 170 0 c160 0 175 -1 249 -27 43 -15 113 -43 155 -62 97 -44 62 -16 -45 36
-96 47 -199 74 -314 83 -76 7 -112 4 -240 -19 l-35 -6 25 15 c51 32 156 57
258 63 142 8 108 23 -55 23 -319 0 -508 -87 -659 -304 l-59 -85 -6 102 c-7
117 -6 110 -18 103 -5 -4 -7 2 -4 13 3 10 0 22 -6 25 -7 5 -9 0 -6 -11 3 -10
-5 3 -17 29 -22 45 -71 106 -97 123 -8 4 7 -18 33 -49 25 -31 46 -62 46 -68 0
-6 -14 9 -30 34 -30 45 -82 97 -153 151 -21 15 -37 36 -37 47 0 36 90 90 151
90 19 0 265 68 397 111 151 48 247 58 358 38z m-2228 -125 c31 -14 85 -17 342
-19 168 -2 318 -3 333 -4 16 0 46 8 67 19 28 14 59 20 108 20 179 0 356 -93
539 -283 158 -165 206 -321 171 -566 -13 -97 -23 -94 -58 18 -21 65 -46 126
-76 186 -8 17 -12 21 -9 10 4 -11 24 -90 45 -175 44 -176 77 -274 128 -375 89
-177 83 -286 -22 -425 -49 -65 -111 -218 -152 -377 -43 -168 -81 -242 -155
-302 l-54 -45 -3 33 c-3 28 4 40 47 82 28 28 60 68 71 89 26 51 63 150 47 126
-6 -10 -30 -46 -53 -79 -44 -68 -113 -123 -139 -114 -9 4 -32 41 -52 84 -32
66 -37 87 -37 147 l0 71 -19 -60 c-12 -39 -17 -76 -13 -106 4 -41 112 -351
153 -439 8 -19 19 -49 23 -66 l7 -32 -53 -4 c-67 -6 -145 -56 -201 -129 -20
-27 -41 -49 -46 -49 -9 0 -7 38 7 148 2 17 1 53 -4 80 l-8 47 -2 -70 c-2 -80
-7 -75 -19 16 l-8 64 -2 -69 c-2 -106 -33 -275 -60 -326 -5 -9 -11 -31 -15
-50 -4 -19 -19 -77 -33 -128 -30 -104 -31 -105 -133 -134 -61 -17 -62 -18 -19
-14 26 3 63 13 83 22 20 10 38 15 41 12 10 -10 -35 -161 -52 -174 -17 -13 -17
-14 0 -8 16 6 17 3 11 -22 -4 -16 -16 -40 -28 -53 -11 -13 -15 -21 -7 -16 11
6 12 2 7 -21 -5 -16 -10 -42 -12 -58 -5 -39 -16 -49 -84 -80 -109 -49 -305
-51 -487 -5 -143 35 -139 31 -147 146 -4 54 -9 122 -12 151 -2 28 0 52 5 52 5
0 3 14 -6 30 -22 45 -12 61 29 49 56 -16 66 -9 13 9 -38 13 -51 22 -53 40 -4
27 -13 27 133 -3 150 -32 319 -41 445 -26 98 12 227 46 245 64 7 7 4 7 -10 2
-11 -4 -56 -16 -100 -27 -110 -26 -407 -29 -550 -5 -169 29 -170 29 -173 60
-3 20 1 27 15 28 16 1 16 2 1 6 -10 2 -22 21 -28 45 -10 36 -9 43 12 67 20 23
20 24 1 8 -25 -21 -30 -15 -39 44 -3 24 -12 58 -19 74 -21 46 -44 166 -52 269
-7 88 -7 89 -16 46 -4 -25 -6 -81 -3 -125 4 -58 3 -76 -5 -65 -9 12 -9 11 -4
-5 13 -34 22 -105 14 -105 -4 0 -35 32 -70 71 -70 79 -119 109 -180 109 l-41
0 5 38 c3 20 33 118 66 217 87 258 97 303 83 378 -14 74 -28 93 -23 30 4 -50
-39 -199 -68 -235 -16 -19 -19 -19 -51 -6 -41 17 -93 78 -145 168 -48 86 -34
37 21 -70 44 -85 76 -128 117 -155 19 -12 22 -22 19 -55 l-4 -41 -22 20 c-12
12 -27 21 -32 21 -13 0 -63 62 -97 120 -14 25 -47 119 -73 210 -80 283 -85
297 -121 357 -79 131 -87 162 -73 264 8 53 24 96 65 177 47 91 64 139 110 321
31 118 54 216 51 218 -4 4 -45 -99 -86 -220 -14 -38 -28 -63 -32 -59 -28 28
-35 236 -12 332 45 193 235 416 441 519 111 56 269 76 341 45z m-714 -299 c-9
-14 -18 -25 -21 -25 -5 0 5 18 20 38 17 22 18 13 1 -13z m-474 -140 c14 -8 21
-14 15 -14 -5 0 -21 6 -35 14 -14 8 -20 14 -15 14 6 0 21 -6 35 -14z m3110 10
c0 -2 -10 -9 -22 -15 -22 -11 -22 -10 -4 4 21 17 26 19 26 11z m-2989 -72 c13
-16 12 -17 -3 -4 -10 7 -18 15 -18 17 0 8 8 3 21 -13z m2919 -18 c0 -2 -13
-11 -30 -20 -38 -19 -40 -11 -2 9 31 17 32 18 32 11z m-2176 -2197 c101 -102
100 -98 69 -203 -22 -77 -26 -110 -27 -235 -1 -136 1 -149 27 -215 15 -38 47
-99 72 -135 56 -83 77 -133 69 -165 -3 -14 -9 -25 -14 -25 -4 0 -39 23 -79 51
-200 140 -312 443 -271 739 20 152 52 250 81 250 6 0 39 -28 73 -62z m1515 35
c24 -53 52 -191 57 -288 15 -261 -108 -478 -314 -555 -71 -27 -106 -24 -109
10 -2 20 8 32 47 60 59 41 120 115 152 186 20 43 23 65 23 174 -1 106 -4 134
-24 185 -41 109 -42 106 37 185 79 79 110 89 131 43z m-1749 -297 c0 -2 -8
-10 -17 -17 -16 -13 -17 -12 -4 4 13 16 21 21 21 13z m2251 -109 c-6 -6 -14
-7 -18 -3 -4 4 -1 11 7 16 8 5 12 12 8 15 -3 3 -13 -1 -22 -11 -14 -13 -19
-14 -33 -2 -12 9 -15 9 -9 1 9 -16 -3 -16 -33 1 l-24 14 24 8 c13 4 32 7 43 5
12 -2 16 1 11 10 -6 9 -1 10 17 6 17 -5 25 -2 25 7 0 9 -7 12 -16 8 -12 -4
-11 0 4 17 l20 23 3 -52 c2 -29 -2 -58 -7 -63z m-2631 63 c11 -7 11 -10 2 -10
-7 0 -10 -4 -7 -10 3 -5 0 -10 -7 -10 -8 0 -14 9 -15 20 -2 22 5 25 27 10z
m306 -22 c-4 -27 -116 -122 -116 -99 0 6 -20 -10 -45 -36 -25 -25 -45 -49 -45
-51 0 -2 19 11 43 30 23 19 53 41 67 48 14 7 35 21 46 32 12 11 29 21 38 22 9
1 32 17 51 36 19 19 35 30 35 24 0 -5 -25 -34 -55 -64 -30 -29 -52 -56 -50
-59 3 -3 30 19 60 49 54 53 54 53 53 24 -1 -51 33 -207 59 -274 14 -35 42 -91
61 -125 36 -61 168 -200 234 -245 20 -14 34 -28 31 -32 -2 -4 7 -19 21 -33 32
-32 20 -32 -24 0 -43 32 -50 32 -21 1 13 -14 20 -29 17 -35 -4 -5 16 -33 44
-62 52 -54 70 -92 23 -47 -16 14 -41 34 -58 43 -24 15 -20 8 20 -33 27 -29 45
-52 40 -52 -6 0 -3 -6 6 -13 9 -7 16 -28 16 -51 l1 -38 -46 43 c-37 36 -40 38
-18 10 15 -18 36 -52 47 -74 17 -33 18 -39 5 -34 -17 7 -22 -8 -6 -18 6 -3 10
-28 10 -54 0 -123 -89 -345 -175 -434 -39 -41 -51 -48 -78 -45 l-32 3 -5 95
c-7 138 -28 160 -150 160 l-69 0 -5 33 c-41 258 -133 703 -143 693 -2 -2 16
-107 41 -232 25 -126 52 -278 61 -339 9 -60 19 -120 22 -132 3 -16 1 -23 -9
-23 -11 0 -19 29 -32 119 -9 65 -37 205 -62 312 -57 248 -74 343 -75 438 l-1
76 -12 -47 c-6 -25 -14 -50 -18 -54 -9 -9 -10 5 -10 101 1 69 1 70 -11 32
l-13 -38 -33 135 c-19 75 -32 138 -30 140 17 14 101 58 104 54 3 -3 -15 -19
-40 -37 -25 -18 -45 -34 -45 -37 0 -11 88 55 155 117 32 29 113 89 121 89 1 0
1 -6 0 -12z m-294 -30 c-17 -8 -26 -8 -34 0 -9 9 -4 12 23 11 32 0 33 -1 11
-11z m2547 -28 c32 -16 62 -26 66 -22 18 17 -6 -126 -45 -269 -23 -85 -44
-156 -47 -159 -2 -2 -1 30 3 71 4 53 3 78 -5 83 -8 5 -11 -9 -12 -46 -1 -29
-4 -64 -8 -78 -6 -20 -10 -10 -17 45 -8 67 -9 62 -15 -95 -4 -91 -14 -201 -22
-245 -81 -422 -104 -617 -118 -996 -14 -376 -6 -504 41 -615 17 -41 33 -104
39 -154 16 -123 13 -146 -10 -75 -10 33 -32 77 -49 98 -26 31 -38 37 -70 37
-49 0 -76 -23 -99 -84 l-18 -49 -13 37 c-30 92 -97 124 -177 85 -36 -18 -50
-32 -69 -73 -13 -28 -24 -58 -24 -66 -1 -8 -9 7 -20 34 -31 79 -77 116 -144
116 -41 0 -87 -35 -106 -80 l-13 -31 -17 39 c-10 22 -34 52 -54 68 -20 16 -36
35 -36 43 0 8 11 46 24 85 53 156 86 404 116 892 6 94 19 205 30 250 20 86 75
241 92 261 17 21 -4 15 -30 -9 -39 -35 -15 0 51 75 32 37 54 67 48 67 -24 0
-68 -30 -109 -74 -59 -64 -52 -46 11 30 37 46 69 72 112 93 63 32 56 41 -14
16 -22 -8 -41 -11 -41 -6 0 10 66 46 115 61 58 19 26 24 -36 6 -67 -20 -74
-13 -15 15 62 29 52 35 -15 10 -61 -24 -79 -21 -20 3 46 18 141 76 126 76 -6
0 -28 -9 -49 -21 -48 -26 -58 -19 -14 10 24 16 27 21 11 16 -36 -10 -27 1 30
35 28 17 44 29 35 26 -30 -9 -20 0 41 38 116 71 209 212 247 370 10 42 21 76
26 76 4 0 8 -3 8 -8 0 -4 10 -12 23 -17 14 -7 21 -17 19 -30 -2 -16 -1 -17 7
-5 9 12 17 8 51 -25 55 -54 51 -36 -6 25 -67 71 -42 61 50 -20 43 -39 81 -70
84 -70 3 0 -23 29 -57 65 -34 36 -60 69 -56 75 8 13 91 -48 153 -114 29 -30
52 -51 52 -46 0 4 -34 45 -76 89 -42 45 -73 81 -69 81 4 0 37 -23 73 -51 63
-50 64 -51 37 -15 -15 20 -39 45 -54 56 -38 28 -19 24 48 -10z m-2502 13 c-9
-2 -15 -8 -12 -13 7 -11 -50 -42 -59 -33 -3 4 -6 14 -6 24 0 19 18 27 65 27
17 0 22 -2 12 -5z m76 -17 c-9 -16 -123 -99 -128 -94 -2 2 -5 11 -7 22 -3 20
1 23 77 60 60 29 68 30 58 12z m37 -1 c-7 -9 -15 -13 -17 -11 -7 7 7 26 19 26
6 0 6 -6 -2 -15z m-140 -504 c17 -57 35 -112 40 -122 11 -20 40 -162 35 -168
-2 -2 -18 12 -34 30 -17 18 -31 29 -31 24 0 -5 19 -29 42 -52 23 -24 37 -43
31 -43 -8 0 -7 -8 2 -27 8 -16 12 -35 10 -44 -3 -9 1 -29 10 -45 19 -38 19
-45 -2 -37 -16 6 -16 4 1 -16 11 -12 21 -29 22 -39 1 -9 5 -28 9 -42 6 -22 2
-20 -30 15 -36 40 -36 39 9 -32 27 -43 48 -90 52 -115 l6 -43 -42 58 c-23 31
-44 57 -47 57 -2 0 12 -30 33 -67 57 -101 77 -143 71 -149 -8 -8 -65 79 -94
144 -39 87 -118 335 -143 447 -40 189 -69 482 -55 572 l7 48 33 -125 c19 -69
48 -172 65 -229z m2666 177 c-10 -251 -49 -466 -126 -698 -29 -88 -100 -242
-121 -265 -19 -19 4 61 34 125 77 159 82 180 21 72 -27 -45 -33 -52 -34 -33 0
14 10 36 23 49 l22 25 -22 -12 c-13 -6 -23 -9 -23 -6 0 13 25 52 60 95 59 72
67 100 12 40 -41 -44 -51 -51 -52 -35 0 20 13 49 59 130 l23 40 -31 -33 c-27
-28 -31 -30 -31 -12 0 29 24 83 59 133 16 23 32 56 35 72 l6 30 -16 -30 c-9
-16 -28 -43 -42 -60 l-25 -30 8 35 c4 19 36 121 71 226 35 105 64 199 64 210
0 26 20 94 27 94 3 0 3 -73 -1 -162z m-1676 -175 c187 -72 396 -70 532 4 26
14 50 24 52 22 2 -2 -5 -38 -15 -79 -10 -41 -21 -90 -23 -109 -3 -18 -7 -41
-10 -50 -2 -9 -7 -28 -10 -43 -5 -23 -15 -30 -59 -43 -99 -30 -307 -30 -414 0
-10 3 -4 -1 13 -9 84 -40 316 -40 409 -1 21 8 39 14 41 12 2 -2 0 -16 -4 -32
-7 -25 -17 -32 -68 -48 -85 -27 -273 -27 -371 0 -80 21 -90 14 -15 -11 122
-42 321 -43 404 -2 17 9 33 16 35 16 7 0 -10 -55 -21 -66 -34 -35 -246 -45
-370 -19 -87 18 -96 13 -16 -9 96 -27 214 -32 304 -12 43 10 79 16 81 14 1 -1
-2 -14 -8 -28 -5 -14 -12 -36 -14 -50 -6 -35 -12 -39 -79 -50 -85 -14 -218
-12 -298 5 -38 8 -71 13 -73 11 -7 -7 75 -35 138 -46 72 -13 202 -6 262 15 34
12 38 11 33 -2 -4 -9 -11 -35 -17 -58 -10 -39 -15 -44 -55 -55 -58 -17 -272
-8 -333 13 -24 9 -39 11 -34 6 38 -38 327 -61 381 -31 24 14 29 5 10 -21 -27
-36 -246 -40 -367 -7 -53 14 -48 5 6 -15 60 -22 252 -32 307 -16 45 12 49 11
40 -12 -6 -17 -72 -34 -154 -40 -38 -3 -35 -4 17 -5 34 -1 74 3 89 8 15 6 29
9 31 6 7 -6 -26 -79 -40 -88 -7 -4 -61 -8 -122 -9 -86 -1 -101 -3 -70 -10 61
-12 169 -11 183 3 8 8 12 8 12 1 0 -39 -115 -54 -219 -28 -81 20 -104 14 -45
-11 42 -19 169 -25 219 -11 28 8 29 7 13 -9 -9 -10 -38 -19 -67 -22 -28 -2
-54 -9 -57 -13 -7 -12 33 -11 75 1 43 12 51 5 24 -22 -18 -17 -33 -20 -100
-20 -43 0 -90 5 -104 10 -14 6 -31 7 -37 3 -16 -10 74 -35 128 -36 25 0 58 4
73 8 l29 8 -19 -31 c-10 -17 -34 -52 -53 -78 -30 -40 -41 -47 -75 -50 -46 -4
-116 13 -162 39 -42 24 -33 1 13 -30 28 -20 49 -25 104 -25 77 -1 79 -8 17
-63 -86 -75 -250 -141 -324 -129 -67 10 -80 13 -91 20 -7 4 -12 2 -12 -4 0 -8
-6 -8 -20 0 -14 7 -20 7 -20 0 0 -28 -60 1 -128 62 -29 26 -40 43 -36 55 5 15
4 16 -5 3 -9 -13 -12 -12 -25 5 -59 76 -84 183 -69 287 10 70 9 74 -13 99 -31
32 -30 36 7 44 46 10 117 -3 128 -24 6 -10 11 -53 12 -97 2 -77 13 -121 34
-136 17 -13 84 -9 114 6 35 19 92 82 140 156 50 78 108 253 127 387 16 114 19
349 8 522 -7 100 -6 104 12 97 10 -5 48 -19 84 -33z m-170 -163 c0 -5 -6 -10
-14 -10 -8 0 -18 5 -21 10 -3 6 3 10 14 10 12 0 21 -4 21 -10z m-9 -80 c31
-26 15 -26 -18 0 -14 11 -21 20 -15 20 5 0 20 -9 33 -20z m-21 -25 c7 -8 8
-15 2 -15 -5 0 -15 7 -22 15 -7 8 -8 15 -2 15 5 0 15 -7 22 -15z m780 -427
c-6 -29 -14 -122 -17 -205 -4 -92 -10 -153 -16 -153 -15 0 -2 231 19 335 9 47
19 83 21 81 3 -3 0 -29 -7 -58z m-1276 -249 c-10 -17 -43 -9 -49 11 -11 34 5
44 31 19 13 -12 21 -26 18 -30z m-24 -129 c0 -13 -1 -13 -10 0 -5 8 -10 22
-10 30 0 13 1 13 10 0 5 -8 10 -22 10 -30z m1165 -180 c7 -125 1 -257 -16
-347 l-10 -53 -79 0 c-49 0 -82 4 -86 12 -11 17 -33 222 -34 304 0 58 4 78 23
105 12 19 28 46 34 61 13 28 30 34 114 37 l46 1 8 -120z m-1159 -185 c-3 -104
-10 -206 -15 -225 -7 -25 -8 -5 -3 70 4 58 7 184 7 280 -1 134 1 162 8 120 5
-30 6 -140 3 -245z m140 34 c71 -68 110 -93 179 -115 l40 -13 -46 0 c-26 -1
-65 6 -88 14 -23 8 -39 10 -36 5 25 -41 326 -60 414 -27 48 19 74 22 51 7 -40
-27 -154 -52 -265 -60 l-120 -8 135 3 c123 3 152 7 259 41 21 6 22 5 12 -14
-6 -11 -35 -29 -64 -40 -139 -52 -309 -56 -412 -8 -32 14 -52 20 -46 12 22
-26 107 -55 181 -62 106 -9 210 9 292 50 43 22 69 30 71 22 11 -29 -37 -67
-138 -109 -36 -14 -84 -22 -170 -27 l-120 -7 112 -1 c128 -2 202 15 278 67 26
18 50 30 52 27 3 -3 3 -16 -1 -30 -8 -32 -123 -89 -210 -105 -83 -15 -201 -13
-266 4 -74 20 -84 18 -30 -7 57 -26 197 -35 298 -19 76 12 133 35 190 79 18
14 34 23 36 21 9 -13 46 -144 46 -166 0 -14 -8 -50 -17 -79 l-17 -54 -17 30
c-10 16 -32 36 -48 45 -82 42 -156 -6 -195 -129 -5 -14 -13 -5 -37 42 -63 127
-185 146 -256 40 -16 -23 -33 -52 -38 -63 -6 -16 -10 -11 -20 28 -8 27 -21 57
-31 68 -25 27 -79 35 -109 15 -31 -20 -75 -105 -75 -145 0 -16 -4 -33 -10 -36
-6 -4 -10 22 -10 72 0 93 25 193 76 298 40 83 50 137 60 336 l7 140 17 -38
c10 -21 48 -68 86 -104z m744 -133 c8 -73 8 -101 -1 -106 -7 -5 -5 -9 6 -14 9
-3 14 -10 10 -16 -3 -5 -15 -6 -28 -1 -12 4 -27 6 -33 4 -6 -2 -17 3 -24 12
-11 13 -8 15 21 16 35 1 33 3 -12 13 -21 5 -27 14 -37 57 -22 95 -17 128 31
183 l42 50 7 -50 c3 -27 11 -94 18 -148z m230 -141 c0 -12 -14 -15 -62 -16
l-63 -1 53 -10 c28 -5 52 -14 52 -19 0 -5 -9 -27 -20 -49 -15 -30 -20 -59 -20
-120 0 -77 -1 -80 -23 -80 -23 0 -23 3 -26 88 -1 49 -8 113 -16 143 -22 81
-24 79 55 79 56 0 70 -3 70 -15z m-202 -86 c14 -29 25 -74 29 -117 5 -66 4
-72 -21 -97 -15 -14 -32 -25 -39 -22 -17 5 -62 240 -47 245 10 4 9 6 0 12 -20
12 -1 31 28 28 21 -2 32 -14 50 -49z m238 -18 c-9 -16 -21 -54 -27 -83 -16
-74 -32 -96 -25 -34 6 50 52 164 62 153 3 -3 -2 -19 -10 -36z m-331 -256 c7
-63 -2 -95 -26 -95 -11 0 -12 132 -2 181 l7 34 7 -28 c4 -15 11 -57 14 -92z
m419 72 c16 -22 20 -43 21 -110 0 -82 0 -82 -25 -79 -14 2 -37 11 -52 20 -25
15 -28 22 -28 69 0 29 4 53 9 53 5 0 12 18 16 41 8 47 27 49 59 6z m-567 3
c35 -21 63 -92 63 -161 l0 -37 -89 -21 c-49 -12 -103 -21 -120 -21 l-32 0 6
58 c12 96 36 154 74 179 41 28 57 29 98 3z m825 -18 c33 -31 36 -39 52 -149
l13 -86 -61 6 c-70 6 -155 24 -175 36 -12 8 -13 20 -2 80 25 139 96 185 173
113z m533 5 c33 -33 55 -88 55 -140 0 -34 -38 -53 -124 -63 -70 -8 -73 -2 -58
109 10 67 16 86 37 105 35 30 51 28 90 -11z m-1949 -2 c20 -31 44 -126 44
-178 l0 -39 -42 7 c-60 9 -146 34 -152 43 -6 10 16 99 34 132 34 66 86 81 116
35z m288 -7 c34 -34 71 -119 82 -188 l7 -40 -79 0 c-44 0 -110 3 -147 7 l-69
6 7 46 c26 170 119 249 199 169z m1429 8 c28 -30 56 -105 63 -172 l6 -51 -53
-6 c-30 -4 -93 -7 -140 -7 l-86 0 22 84 c13 46 28 94 35 107 34 67 112 90 153
45z m-723 -66 c0 -18 -7 -20 -87 -20 -47 0 -84 2 -81 5 13 13 88 34 126 34 36
1 42 -2 42 -19z m-268 -130 c-25 -21 -105 -53 -192 -77 -89 -24 -366 -29 -481
-8 -89 16 -229 69 -216 81 3 3 14 1 24 -5 48 -25 224 -52 378 -58 125 -4 181
-2 255 11 115 20 190 42 216 61 28 21 43 17 16 -5z m374 11 c13 -12 165 -57
242 -72 91 -17 391 -6 508 19 50 11 113 29 139 41 46 20 47 20 31 2 -27 -29
-102 -58 -211 -80 -214 -42 -404 -36 -567 18 -84 28 -188 80 -162 81 5 0 14
-4 20 -9z m-1658 -38 c-27 -2 -69 -2 -95 0 -27 2 -5 3 47 3 52 0 74 -1 48 -3z
m89 1 c-3 -3 -12 -4 -19 -1 -8 3 -5 6 6 6 11 1 17 -2 13 -5z m1632 -98 c-2 -2
-134 -5 -294 -8 -159 -3 -270 -2 -245 2 46 7 547 13 539 6z"/>
<path d="M3352 7650 c79 -23 157 -57 218 -95 25 -15 38 -20 30 -12 -49 51
-225 128 -289 126 -16 0 0 -8 41 -19z"/>
<path d="M3900 7395 c-7 -34 -9 -72 -4 -94 7 -31 9 -23 15 54 4 50 5 91 4 93
-2 2 -9 -22 -15 -53z"/>
<path d="M2639 7295 c-48 -17 -102 -46 -97 -51 2 -2 40 12 84 31 77 34 86 47
13 20z"/>
<path d="M3615 7177 c93 -45 149 -97 189 -175 19 -37 38 -134 24 -126 -4 3 -8
15 -8 27 -1 47 -91 196 -129 212 -7 3 3 -16 23 -42 72 -94 116 -210 116 -304
0 -66 7 -43 14 46 15 176 -63 310 -211 368 -109 42 -114 41 -18 -6z"/>
<path d="M2620 7136 c-41 -12 -93 -32 -115 -45 -22 -12 -33 -20 -25 -17 8 3
60 19 115 36 55 17 111 35 125 40 l25 8 -25 1 c-14 0 -59 -10 -100 -23z"/>
<path d="M2572 7071 c-63 -21 -119 -44 -125 -50 -7 -7 33 4 88 24 55 21 127
43 160 50 49 11 54 14 25 14 -19 1 -86 -17 -148 -38z"/>
<path d="M2522 7026 c-51 -18 -96 -36 -100 -41 -4 -4 0 -5 8 -2 8 3 59 20 113
37 90 29 115 41 85 39 -7 0 -55 -15 -106 -33z"/>
<path d="M3711 7030 c43 -59 68 -133 73 -211 l5 -74 -10 69 c-8 60 -49 176
-62 176 -3 0 7 -28 22 -62 23 -56 26 -76 26 -184 0 -113 1 -119 14 -90 10 20
15 67 15 136 1 99 -1 109 -31 171 -18 36 -43 74 -55 85 -21 17 -20 16 3 -16z"/>
<path d="M3680 7016 c0 -2 7 -7 16 -10 8 -3 12 -2 9 4 -6 10 -25 14 -25 6z"/>
<path d="M2479 6798 c-56 -40 -178 -162 -208 -208 -13 -19 28 17 91 81 62 64
127 125 143 137 17 12 27 22 24 22 -3 0 -26 -14 -50 -32z"/>
<path d="M2600 6601 c-41 -27 -95 -68 -120 -91 l-45 -42 50 36 c28 20 82 57
120 83 81 54 93 63 80 63 -6 0 -44 -22 -85 -49z"/>
<path d="M2436 6415 c-22 -19 -37 -38 -33 -41 3 -3 25 12 49 35 52 49 39 54
-16 6z"/>
<path d="M2455 6366 c-27 -29 -61 -60 -75 -69 -24 -17 -24 -17 -1 -6 29 14
109 86 122 111 14 25 10 23 -46 -36z"/>
<path d="M2632 6273 c-16 -6 -112 -147 -112 -164 0 -7 14 8 31 32 18 24 47 65
66 92 19 26 33 47 31 46 -1 0 -9 -3 -16 -6z"/>
<path d="M2794 6242 c-107 -77 -148 -108 -168 -125 -21 -18 -21 -18 4 -3 42
27 46 18 7 -22 -48 -49 -48 -67 -1 -21 l37 34 -27 -40 c-14 -22 -26 -43 -26
-48 0 -17 20 6 64 72 26 38 74 95 107 126 34 31 60 58 58 60 -3 2 -27 -13 -55
-33z m-94 -106 c0 -3 -4 -8 -10 -11 -5 -3 -10 -1 -10 4 0 6 5 11 10 11 6 0 10
-2 10 -4z"/>
<path d="M3054 6147 c-120 -65 -224 -203 -264 -350 -18 -66 -6 -70 15 -5 22
68 78 171 121 225 29 36 109 101 170 140 33 21 1 13 -42 -10z"/>
<path d="M2821 5946 c-31 -45 -59 -112 -67 -156 -2 -16 3 -10 13 15 9 22 33
73 53 113 20 39 35 72 34 72 -2 0 -17 -20 -33 -44z"/>
<path d="M3923 5885 c0 -22 2 -30 4 -17 2 12 2 30 0 40 -3 9 -5 -1 -4 -23z"/>
<path d="M3251 5743 c-53 -90 -131 -296 -117 -310 3 -3 9 3 12 13 4 10 19 48
34 84 15 36 31 76 35 90 4 14 25 60 47 104 22 43 37 80 35 83 -3 2 -23 -26
-46 -64z"/>
<path d="M3265 5693 c-55 -128 -105 -296 -80 -271 8 8 125 351 121 355 -2 2
-20 -36 -41 -84z"/>
<path d="M3912 5690 c0 -19 2 -27 5 -17 2 9 2 25 0 35 -3 9 -5 1 -5 -18z"/>
<path d="M3552 5513 c-19 -64 -62 -273 -61 -296 2 -45 29 44 49 156 10 62 22
127 26 145 9 44 0 41 -14 -5z"/>
<path d="M3487 5378 c-31 -87 -43 -141 -27 -118 14 20 63 180 57 186 -3 3 -16
-28 -30 -68z"/>
<path d="M3572 5325 c0 -16 2 -22 5 -12 2 9 2 23 0 30 -3 6 -5 -1 -5 -18z"/>
<path d="M3561 5244 c0 -11 3 -14 6 -6 3 7 2 16 -1 19 -3 4 -6 -2 -5 -13z"/>
<path d="M6807 7636 c-58 -24 -137 -71 -137 -82 0 -3 13 4 29 15 23 17 110 55
191 84 11 4 9 6 -5 6 -11 0 -46 -10 -78 -23z"/>
<path d="M7587 7280 c56 -21 107 -41 113 -45 5 -3 10 -4 10 -1 0 10 -93 53
-149 70 -92 27 -81 17 26 -24z"/>
<path d="M6618 7132 c-50 -29 -138 -126 -164 -181 -19 -40 -32 -176 -15 -151
6 8 11 31 11 50 1 78 103 234 185 281 28 16 46 29 40 29 -5 0 -31 -13 -57 -28z"/>
<path d="M7501 7156 c2 -2 45 -14 94 -26 50 -12 114 -30 143 -40 65 -23 68
-16 5 11 -70 30 -263 74 -242 55z"/>
<path d="M6524 7096 c-75 -77 -114 -159 -112 -233 l1 -58 6 60 c7 72 45 141
125 228 67 73 50 75 -20 3z"/>
<path d="M7540 7100 c109 -26 173 -47 233 -77 27 -13 51 -23 53 -21 2 3 -24
18 -59 35 -67 34 -184 68 -263 77 -31 4 -18 -1 36 -14z"/>
<path d="M7570 7064 c44 -20 230 -82 230 -78 0 8 -82 44 -155 68 -87 28 -130
34 -75 10z"/>
<path d="M6532 6998 c-21 -27 -43 -80 -39 -93 3 -7 1 -17 -3 -21 -14 -14 -24
-166 -14 -210 8 -38 12 -2 27 226 1 20 12 52 24 73 22 37 25 48 5 25z"/>
<path d="M7760 6752 c41 -39 89 -78 105 -87 27 -16 -42 52 -97 95 -72 56 -74
54 -8 -8z"/>
<path d="M8011 6785 c0 -11 6 -33 14 -50 l15 -30 -6 35 c-8 44 -23 75 -23 45z"/>
<path d="M7800 6685 c0 -9 70 -69 96 -83 39 -21 28 -8 -36 41 -33 26 -60 45
-60 42z"/>
<path d="M7720 6461 c34 -31 90 -66 90 -57 0 5 -87 68 -110 80 -8 4 1 -6 20
-23z"/>
<path d="M7716 6399 c15 -27 104 -99 122 -99 10 0 3 8 -18 21 -19 12 -52 37
-74 57 -21 21 -35 30 -30 21z"/>
<path d="M7380 6277 c0 -2 20 -18 45 -36 25 -18 80 -78 121 -133 77 -101 117
-132 50 -37 -21 28 -35 53 -33 55 2 3 10 -2 17 -11 7 -8 17 -15 23 -15 6 0 22
-10 35 -22 l25 -23 -18 28 c-9 15 -22 27 -27 27 -12 0 -140 102 -134 107 2 2
20 -6 40 -18 20 -12 39 -20 41 -17 3 2 -20 18 -51 36 -30 17 -52 27 -49 22 3
-6 2 -10 -4 -10 -5 0 -13 5 -16 10 -6 10 -65 44 -65 37z"/>
<path d="M7607 6268 c4 -7 24 -37 45 -67 21 -30 38 -59 38 -66 0 -6 7 -20 15
-31 10 -13 9 -2 -6 36 -11 30 -36 74 -56 97 -33 41 -53 57 -36 31z"/>
<path d="M6470 6210 c6 -11 13 -20 16 -20 2 0 0 9 -6 20 -6 11 -13 20 -16 20
-2 0 0 -9 6 -20z"/>
<path d="M7140 6166 c0 -2 21 -16 46 -31 110 -65 182 -158 235 -306 17 -49 34
-89 36 -89 2 0 1 17 -3 38 -12 67 -63 186 -102 237 -44 59 -212 178 -212 151z"/>
<path d="M7610 6072 c6 -13 14 -21 18 -18 3 4 -2 14 -12 24 -18 16 -18 16 -6
-6z"/>
<path d="M7446 5875 c25 -55 50 -104 56 -110 29 -29 -45 137 -82 185 -11 14 1
-20 26 -75z"/>
<path d="M6945 5789 c9 -16 39 -92 66 -167 28 -75 57 -148 64 -162 l14 -25 1
33 c0 41 -69 216 -117 295 -37 61 -54 77 -28 26z"/>
<path d="M6954 5700 c34 -113 91 -271 94 -262 4 13 -62 212 -83 250 -9 15 -14
20 -11 12z"/>
<path d="M6675 5505 c4 -11 25 -65 46 -119 39 -101 59 -135 59 -103 0 19 -88
216 -103 232 -7 6 -7 3 -2 -10z"/>
<path d="M6663 5448 c3 -13 9 -41 12 -63 9 -51 42 -161 55 -183 12 -19 12 -24
-19 123 -20 95 -36 145 -47 145 -3 0 -4 -10 -1 -22z"/>
<path d="M6632 5365 c0 -16 2 -22 5 -12 2 9 2 23 0 30 -3 6 -5 -1 -5 -18z"/>
<path d="M6643 5280 c0 -25 2 -35 4 -22 2 12 2 32 0 45 -2 12 -4 2 -4 -23z"/>
<path d="M4540 7701 c-83 -26 -193 -87 -231 -128 l-34 -36 40 23 c22 13 52 32
66 41 36 25 190 99 205 99 7 0 16 5 19 10 8 13 0 12 -65 -9z"/>
<path d="M5768 7656 c63 -31 135 -70 160 -87 l47 -30 -49 45 c-53 51 -168 111
-231 121 -31 6 -15 -5 73 -49z"/>
<path d="M5009 6809 c-70 -7 -183 -39 -198 -55 -3 -4 3 -4 14 0 104 38 340 48
469 21 83 -17 96 -13 29 9 -82 27 -205 37 -314 25z"/>
<path d="M4216 6740 c-37 -33 -102 -127 -93 -136 3 -3 20 16 38 41 48 67 106
99 167 91 l47 -5 -40 19 c-55 27 -79 25 -119 -10z"/>
<path d="M5923 6759 c-52 -15 -45 -24 19 -24 l61 0 60 -65 c42 -46 55 -56 44
-34 -24 48 -99 123 -127 128 -14 3 -39 0 -57 -5z"/>
<path d="M5390 6750 c8 -5 20 -10 25 -10 6 0 3 5 -5 10 -8 5 -19 10 -25 10 -5
0 -3 -5 5 -10z"/>
<path d="M4223 6575 c-47 -20 -117 -135 -83 -135 16 0 11 -27 -6 -34 -9 -3
-32 -6 -52 -6 -28 0 -33 -3 -22 -10 8 -5 40 -10 71 -10 62 0 69 -6 69 -63 0
-18 4 -27 8 -21 5 8 14 3 26 -15 l20 -26 -22 19 c-12 11 -22 15 -22 11 0 -22
-22 16 -27 46 -7 48 -13 49 -13 2 0 -28 8 -52 28 -79 45 -61 55 -67 117 -62
l56 5 19 -45 c11 -25 23 -43 26 -40 3 4 -6 29 -20 56 -20 39 -32 52 -53 55
-25 3 -24 4 7 6 28 1 40 -5 62 -31 14 -18 30 -30 33 -26 8 7 -57 204 -83 253
-9 16 -16 35 -17 40 0 6 -16 18 -36 27 -44 22 -93 11 -124 -28 -13 -16 -27
-24 -33 -20 -16 10 9 57 44 85 57 44 162 11 198 -64 22 -45 33 -32 16 19 -12
39 -71 96 -98 96 -9 0 -26 2 -37 5 -11 3 -35 -2 -52 -10z m60 -92 c-7 -2 -19
-2 -25 0 -7 3 -2 5 12 5 14 0 19 -2 13 -5z m47 -13 c8 -5 11 -10 5 -10 -5 0
-17 5 -25 10 -8 5 -10 10 -5 10 6 0 17 -5 25 -10z m-22 -62 c3 -14 -4 -18 -32
-18 -36 0 -52 12 -41 31 11 17 69 6 73 -13z m-77 -155 c13 -16 12 -17 -3 -4
-10 7 -18 15 -18 17 0 8 8 3 21 -13z m66 -29 c-3 -3 -12 -4 -19 -1 -8 3 -5 6
6 6 11 1 17 -2 13 -5z"/>
<path d="M5907 6576 c-20 -8 -43 -19 -51 -25 -21 -18 -46 -76 -46 -108 0 -27
1 -26 20 12 36 73 132 115 193 84 12 -6 40 -28 61 -48 39 -35 39 -35 22 -6
-29 48 -59 77 -93 91 -40 17 -57 17 -106 0z"/>
<path d="M5922 6493 c-45 -22 -59 -45 -76 -130 -9 -39 -27 -97 -41 -128 -33
-76 -32 -85 8 -47 33 32 34 32 70 17 42 -17 90 -19 118 -5 10 6 19 8 19 6 0
-12 -61 -36 -92 -36 -25 0 -29 -3 -18 -10 25 -16 76 -11 104 11 28 22 59 68
36 54 -7 -4 -6 2 3 16 8 13 21 43 28 67 7 23 16 42 21 42 4 0 8 5 8 10 0 23
-17 7 -44 -41 -42 -75 -119 -111 -166 -78 -12 8 -10 9 7 4 60 -17 132 31 149
99 10 40 43 58 95 51 54 -8 34 11 -21 20 -25 4 -40 14 -52 36 -17 29 -70 59
-105 59 -10 0 -33 -8 -51 -17z m61 -10 c-7 -2 -21 -2 -30 0 -10 3 -4 5 12 5
17 0 24 -2 18 -5z m-24 -16 c-2 -2 -20 -14 -39 -26 l-35 -23 28 26 c15 14 33
26 39 26 6 0 9 -1 7 -3z m24 -44 c7 -6 -45 -33 -64 -33 -6 0 -5 9 1 20 10 19
49 27 63 13z"/>
<path d="M4945 6394 c-76 -17 -222 -81 -243 -107 -8 -9 8 -4 40 13 105 57 195
75 373 75 181 0 282 -20 385 -77 44 -24 50 -25 30 -7 -33 29 -131 74 -205 95
-87 23 -292 28 -380 8z"/>
<path d="M4118 6353 c6 -2 18 -2 25 0 6 3 1 5 -13 5 -14 0 -19 -2 -12 -5z"/>
<path d="M4980 6266 c-102 -22 -238 -79 -255 -106 -4 -6 16 0 45 15 206 104
573 91 742 -26 31 -22 32 -22 15 -2 -25 28 -147 88 -222 108 -86 22 -246 28
-325 11z"/>
<path d="M4180 6252 c-1 -42 61 -102 105 -102 21 0 19 20 -2 20 -31 1 -65 26
-84 61 -10 19 -18 28 -19 21z"/>
<path d="M5832 6187 c-13 -14 -22 -36 -21 -53 l0 -29 10 25 c6 14 17 37 24 53
17 33 15 34 -13 4z"/>
<path d="M4960 6126 c-96 -21 -170 -51 -234 -97 -69 -49 -68 -63 0 -19 112 70
312 107 491 90 119 -11 209 -38 287 -85 39 -23 53 -29 42 -16 -34 38 -115 83
-194 108 -96 31 -290 40 -392 19z"/>
<path d="M4995 5996 c-113 -22 -245 -83 -285 -132 -19 -22 -5 -17 43 15 80 55
186 83 332 88 164 6 247 -10 370 -71 82 -41 87 -43 55 -16 -46 40 -141 86
-214 105 -86 22 -219 27 -301 11z"/>
<path d="M5035 5864 c-74 -11 -172 -36 -195 -50 -16 -10 -18 -13 -5 -8 65 23
201 44 295 44 123 0 217 -18 289 -54 28 -15 51 -24 51 -21 0 9 -94 53 -148 69
-54 16 -231 28 -287 20z"/>
<path d="M4770 5780 c-9 -6 -10 -10 -3 -10 6 0 15 5 18 10 8 12 4 12 -15 0z"/>
<path d="M5022 5729 c-115 -15 -249 -71 -291 -122 -19 -24 -7 -21 37 8 96 63
296 97 448 76 102 -14 187 -41 247 -77 l42 -25 -42 39 c-53 49 -154 88 -265
102 -90 11 -86 11 -176 -1z"/>
<path d="M4950 5570 c-98 -26 -166 -60 -224 -111 -52 -46 -56 -68 -5 -25 177
149 590 159 769 17 54 -42 68 -47 35 -12 -43 47 -112 88 -196 117 -105 37
-272 43 -379 14z"/>
<path d="M4962 5420 c-97 -26 -157 -53 -209 -96 -58 -47 -55 -64 3 -20 95 73
222 101 413 93 141 -6 209 -24 307 -83 44 -26 53 -30 38 -13 -96 109 -370 168
-552 119z"/>
<path d="M4995 5271 c-38 -6 -18 -8 85 -10 74 0 160 -3 190 -6 48 -4 51 -4 25
6 -38 13 -234 20 -300 10z"/>
<path d="M4870 5240 c0 -5 7 -7 15 -4 8 4 15 8 15 10 0 2 -7 4 -15 4 -8 0 -15
-4 -15 -10z"/>
<path d="M4779 5202 c-24 -16 -53 -40 -64 -52 -12 -15 -3 -10 25 12 25 19 59
43 75 51 17 9 25 16 19 17 -5 0 -30 -13 -55 -28z"/>
<path d="M4975 5204 c-126 -28 -216 -79 -278 -158 -29 -38 -27 -36 30 16 95
86 200 118 395 118 228 0 379 -66 442 -194 9 -17 16 -25 16 -18 0 21 -45 85
-88 124 -49 44 -127 86 -197 105 -79 22 -239 25 -320 7z"/>
<path d="M5441 5197 c2 -2 18 -11 34 -21 l30 -17 -24 20 c-13 12 -28 21 -34
21 -6 0 -8 -1 -6 -3z"/>
<path d="M4935 5054 c-62 -14 -175 -56 -175 -67 0 -2 30 7 68 19 37 13 117 28
179 35 190 21 371 -11 472 -82 51 -36 67 -32 19 5 -121 92 -367 131 -563 90z"/>
<path d="M4930 4985 c-73 -15 -166 -48 -196 -69 -10 -8 18 -2 63 14 200 71
444 65 626 -14 20 -9 37 -14 37 -10 0 12 -148 73 -204 83 -79 14 -245 12 -326
-4z"/>
<path d="M4900 4861 c-65 -10 -183 -42 -176 -48 2 -3 31 3 63 14 49 15 91 18
273 17 200 0 281 -8 430 -39 14 -3 8 1 -13 10 -82 31 -184 46 -352 50 -93 2
-195 0 -225 -4z"/>
<path d="M4871 4770 c36 -10 547 -20 524 -11 -11 5 -139 10 -284 13 -146 2
-254 1 -240 -2z"/>
<path d="M4808 4643 c7 -3 16 -2 19 1 4 3 -2 6 -13 5 -11 0 -14 -3 -6 -6z"/>
<path d="M4870 4629 c48 -14 375 -22 430 -11 33 6 -1 8 -125 8 -93 -1 -208 2
-255 6 -63 5 -76 4 -50 -3z"/>
<path d="M4735 4573 c33 -34 243 -73 390 -73 148 0 307 30 344 66 9 8 -17 3
-65 -12 -158 -49 -417 -40 -654 22 -17 5 -22 3 -15 -3z"/>
<path d="M4834 4450 c126 -43 390 -51 496 -15 25 8 34 12 20 9 -14 -3 -106 -8
-205 -11 -140 -4 -195 -1 -250 11 -119 26 -122 26 -61 6z"/>
<path d="M4829 4375 c77 -36 154 -49 301 -49 125 0 154 3 210 23 91 32 95 41
8 18 -95 -25 -320 -28 -423 -5 -38 9 -83 19 -100 22 l-30 6 34 -15z"/>
<path d="M4855 4292 c34 -35 311 -55 424 -31 62 13 78 30 18 18 -94 -18 -330
-9 -427 17 -17 5 -22 3 -15 -4z"/>
<path d="M4025 4654 l-80 -76 83 73 c74 64 88 79 79 79 -1 0 -38 -34 -82 -76z"/>
<path d="M4154 4698 l-19 -23 23 19 c21 18 27 26 19 26 -2 0 -12 -10 -23 -22z"/>
<path d="M3895 4520 c-16 -16 -27 -31 -24 -33 2 -2 17 11 32 30 36 41 31 43
-8 3z"/>
<path d="M3992 4160 c0 -14 2 -19 5 -12 2 6 2 18 0 25 -3 6 -5 1 -5 -13z"/>
<path d="M4530 3914 c19 -9 47 -27 63 -40 16 -13 34 -24 40 -24 27 1 -68 63
-113 74 -16 3 -12 0 10 -10z"/>
<path d="M6250 4626 c0 -2 8 -10 18 -17 15 -13 16 -12 3 4 -13 16 -21 21 -21
13z"/>
<path d="M6236 4173 c-4 -43 -22 -181 -41 -308 -72 -480 -103 -851 -91 -1100
11 -224 22 -238 18 -22 -7 350 19 701 83 1087 30 188 54 420 43 420 -3 0 -8
-35 -12 -77z"/>
<path d="M5820 2959 c-25 -4 -70 -6 -100 -3 -46 4 -51 2 -30 -7 30 -13 158 -7
185 9 23 13 12 13 -55 1z"/>
<path d="M5574 2841 c4 -5 36 -19 73 -32 75 -24 151 -22 236 7 64 22 56 26
-13 7 -68 -18 -209 -12 -263 12 -22 9 -36 12 -33 6z"/>
<path d="M5640 2750 c8 -5 22 -9 30 -9 10 0 8 3 -5 9 -27 12 -43 12 -25 0z"/>
<path d="M5447 2690 c28 -46 93 -96 146 -112 64 -20 273 -16 317 5 l35 17 -33
-6 c-143 -25 -269 -20 -348 15 -26 12 -68 43 -93 69 -41 43 -43 44 -24 12z"/>
<path d="M5545 2700 c2 -4 33 -18 67 -31 50 -19 82 -24 153 -24 50 1 98 5 107
10 11 7 -23 10 -105 10 -100 1 -131 5 -174 22 -29 12 -51 18 -48 13z"/>
<path d="M5505 2550 c14 -23 124 -53 215 -57 80 -5 220 10 208 22 -2 2 -41 -1
-88 -6 -104 -10 -233 3 -295 30 -25 11 -43 16 -40 11z"/>
<path d="M6131 2524 c0 -11 3 -14 6 -6 3 7 2 16 -1 19 -3 4 -6 -2 -5 -13z"/>
<path d="M5540 2466 c71 -40 316 -55 380 -24 20 10 24 15 10 10 -40 -11 -281
-7 -330 7 -82 22 -87 23 -60 7z"/>
<path d="M3905 3847 c10 -15 20 -25 23 -22 3 3 -5 16 -17 28 l-23 22 17 -28z"/>
<path d="M4832 4135 c98 -54 383 -68 492 -26 47 18 26 20 -49 4 -97 -21 -296
-12 -385 16 -76 24 -96 26 -58 6z"/>
<path d="M4856 4049 c112 -51 329 -60 437 -18 74 29 84 44 12 18 -86 -32 -276
-32 -392 -1 -99 26 -112 27 -57 1z"/>
<path d="M5295 3984 c-22 -8 -85 -18 -140 -21 -88 -5 -149 0 -285 22 -66 11 8
-15 88 -31 131 -25 286 -14 362 26 42 23 30 24 -25 4z"/>
<path d="M4851 3697 c3 -4 41 -14 85 -23 84 -18 223 -15 297 7 60 17 40 18
-58 2 -86 -13 -190 -8 -300 14 -16 3 -27 3 -24 0z"/>
<path d="M5045 3550 c7 -11 85 -11 130 0 22 5 6 8 -53 9 -53 1 -81 -3 -77 -9z"/>
<path d="M4905 3358 c65 -22 239 -37 248 -21 3 5 -20 7 -56 5 -41 -3 -92 3
-150 17 -108 26 -121 25 -42 -1z"/>
<path d="M4802 3285 c9 -10 21 -16 28 -13 7 2 -1 10 -16 17 -27 12 -28 11 -12
-4z"/>
<path d="M4820 3210 c8 -5 22 -9 30 -9 10 0 8 3 -5 9 -27 12 -43 12 -25 0z"/>
<path d="M4890 3190 c25 -8 97 -13 89 -6 -2 2 -29 6 -59 9 -36 4 -46 3 -30 -3z"/>
<path d="M4270 3140 c-8 -5 -10 -10 -5 -10 6 0 17 5 25 10 8 5 11 10 5 10 -5
0 -17 -5 -25 -10z"/>
<path d="M4805 3131 c29 -27 97 -50 162 -56 41 -3 51 -2 33 4 -24 9 -24 9 7
10 17 1 34 5 37 9 3 5 -32 8 -77 8 -67 -1 -90 3 -124 22 -51 27 -64 28 -38 3z"/>
<path d="M4789 3096 c32 -39 169 -76 203 -55 8 6 1 9 -22 9 -45 1 -115 20
-160 44 -31 17 -33 17 -21 2z"/>
<path d="M4245 3079 c-4 -5 -1 -9 6 -9 8 0 8 -4 -1 -15 -7 -9 -10 -18 -8 -21
3 -3 15 8 26 23 20 28 20 29 1 30 -10 1 -21 -2 -24 -8z"/>
<path d="M4779 3048 c26 -23 115 -48 171 -47 26 0 18 4 -34 15 -38 9 -86 24
-107 35 -50 25 -58 24 -30 -3z"/>
<path d="M4690 3004 c0 -33 96 -104 139 -103 21 0 18 3 -19 18 -25 10 -62 35
-82 55 -21 19 -38 33 -38 30z"/>
<path d="M4745 2980 c12 -20 84 -50 117 -49 29 0 26 3 -27 21 -33 11 -64 24
-69 29 -13 12 -29 12 -21 -1z"/>
<path d="M4685 2951 c11 -19 96 -71 114 -71 9 1 -2 10 -23 20 -22 11 -46 26
-55 33 -27 23 -45 32 -36 18z"/>
<path d="M4401 2925 c-1 -28 32 -97 55 -115 14 -12 13 -7 -5 18 -13 19 -29 53
-37 75 -7 23 -13 33 -13 22z"/>
<path d="M4655 2929 c-9 -13 21 -46 57 -65 46 -24 44 -15 -5 17 -26 17 -47 35
-47 41 0 6 12 3 26 -7 15 -9 23 -12 20 -6 -12 19 -44 32 -51 20z"/>
<path d="M4485 2880 c4 -14 16 -34 27 -45 17 -18 17 -15 -3 20 -29 51 -33 56
-24 25z"/>
<path d="M4625 2880 c10 -11 20 -20 23 -20 3 0 -3 9 -13 20 -10 11 -20 20 -23
20 -3 0 3 -9 13 -20z"/>
<path d="M4456 2870 c3 -14 18 -36 32 -50 14 -14 19 -16 10 -5 -8 11 -23 34
-32 50 -15 26 -16 27 -10 5z"/>
<path d="M4531 2861 c6 -16 57 -57 62 -50 2 2 -12 17 -31 34 -19 16 -33 23
-31 16z"/>
<path d="M4584 2861 c7 -11 46 -35 46 -28 0 3 -12 12 -26 22 -15 9 -23 12 -20
6z"/>
<path d="M4390 2841 c5 -11 15 -23 21 -27 6 -3 3 5 -6 20 -20 30 -30 35 -15 7z"/>
<path d="M4358 2493 c7 -3 16 -2 19 1 4 3 -2 6 -13 5 -11 0 -14 -3 -6 -6z"/>
<path d="M4805 2439 c-16 -10 -25 -19 -19 -19 7 0 22 9 35 20 30 24 23 24 -16
-1z"/>
<path d="M7045 2040 c3 -5 12 -7 20 -3 21 7 19 13 -6 13 -11 0 -18 -4 -14 -10z"/>
<path d="M6442 1979 c27 -6 170 -6 345 -1 l298 9 -345 0 c-232 1 -330 -2 -298
-8z"/>
<path d="M6633 1913 c9 -2 23 -2 30 0 6 3 -1 5 -18 5 -16 0 -22 -2 -12 -5z"/>
<path d="M5135 1840 l-870 -5 750 -7 c450 -5 840 -4 975 2 124 5 233 7 243 4
9 -3 17 -1 17 5 0 7 -41 10 -122 9 -68 -2 -514 -5 -993 -8z"/>
<path d="M6308 1833 c18 -2 45 -2 60 0 15 2 0 4 -33 4 -33 0 -45 -2 -27 -4z"/>
<path d="M4160 1799 c106 -9 2043 -9 2125 0 33 3 -451 6 -1075 7 -624 0 -1097
-3 -1050 -7z"/>
</g>
</svg>
