<?xml version="1.0" standalone="no"?>
<!DOCTYPE svg PUBLIC "-//W3C//DTD SVG 20010904//EN"
 "http://www.w3.org/TR/2001/REC-SVG-20010904/DTD/svg10.dtd">
<svg version="1.0" xmlns="http://www.w3.org/2000/svg"
 width="1024.000000pt" height="1024.000000pt" viewBox="0 0 1024.000000 1024.000000"
 preserveAspectRatio="xMidYMid meet">
<metadata>
Created by potrace 1.16, written by Peter Selinger 2001-2019
</metadata>
<g transform="translate(0.000000,1024.000000) scale(0.100000,-0.100000)"
fill="#000000" stroke="none">
<path d="M1861 8274 c-90 -24 -191 -83 -262 -154 -82 -81 -116 -146 -132 -251
l-11 -79 -136 -72 c-74 -39 -151 -79 -172 -89 -44 -22 -74 -59 -84 -102 -3
-18 -27 -71 -51 -120 -58 -112 -68 -190 -33 -261 20 -42 21 -50 9 -95 -20 -80
2 -124 109 -210 92 -76 171 -121 294 -170 122 -48 325 -153 423 -219 50 -33
133 -85 185 -117 76 -46 129 -91 265 -224 221 -216 364 -348 445 -408 46 -35
64 -55 63 -69 -2 -10 -66 -143 -142 -294 -181 -359 -259 -530 -407 -900 -89
-221 -129 -310 -146 -321 -12 -10 -81 -55 -153 -102 -256 -168 -324 -194 -635
-245 -332 -55 -361 -58 -408 -39 -76 30 -143 32 -222 6 -38 -12 -77 -31 -86
-40 -25 -28 -36 -94 -24 -141 9 -33 18 -43 53 -58 100 -44 245 -44 292 0 37
35 143 50 391 57 164 4 249 2 295 -6 100 -19 102 -22 44 -82 -100 -102 -235
-208 -273 -214 -166 -27 -212 -59 -212 -149 0 -64 18 -94 73 -120 108 -52 231
-57 319 -13 51 26 68 55 68 118 0 57 3 60 155 143 191 105 342 158 455 159
101 1 133 -23 313 -231 l97 -113 0 -59 c0 -53 3 -61 30 -84 90 -75 300 -75
376 1 30 30 34 40 34 88 0 70 -29 106 -110 136 -59 21 -60 23 -120 123 -112
185 -142 263 -114 291 21 20 39 17 274 -40 96 -24 227 -53 290 -65 144 -26
236 -47 323 -72 136 -40 235 -24 277 45 43 70 9 140 -81 171 -52 18 -63 19
-142 6 -94 -14 -140 -10 -237 22 l-65 22 59 8 c73 9 101 27 116 72 9 29 8 41
-5 70 -33 70 -36 71 -248 72 -175 1 -199 3 -266 25 -41 13 -76 29 -78 35 -2 6
11 18 29 25 32 14 120 15 354 7 95 -3 124 12 124 66 0 47 -20 76 -70 102 -55
29 -77 30 -213 3 -59 -12 -109 -20 -112 -17 -3 2 27 66 66 141 94 183 123 256
158 400 29 117 61 306 61 361 0 14 4 26 8 26 4 0 64 -51 133 -113 209 -189
566 -497 714 -616 149 -119 392 -287 487 -336 50 -26 58 -34 58 -58 0 -16 -18
-133 -39 -260 -22 -128 -56 -349 -75 -492 -35 -252 -59 -402 -68 -410 -5 -6
-184 -58 -250 -74 -65 -15 -185 -14 -314 4 -127 18 -168 28 -246 61 -101 42
-252 25 -298 -33 -28 -36 -28 -115 1 -142 28 -26 93 -41 179 -41 74 0 266 -38
253 -50 -14 -12 -122 -38 -313 -74 -295 -56 -307 -57 -348 -40 -90 37 -227 23
-288 -30 -23 -19 -28 -33 -32 -82 -4 -53 -1 -63 22 -91 39 -47 114 -75 200
-74 87 1 131 13 165 45 14 14 49 30 76 37 108 25 536 95 541 88 6 -10 -29 -33
-196 -131 -197 -115 -195 -115 -277 -120 -78 -6 -123 -26 -156 -70 -25 -33
-33 -114 -15 -148 61 -114 367 -110 439 7 27 43 85 71 249 120 278 82 558 142
818 173 286 35 306 44 447 192 107 112 134 152 183 270 46 109 196 594 242
778 17 69 34 135 38 148 l7 23 375 4 c426 4 422 4 679 94 79 28 149 51 155 51
7 0 10 -27 7 -82 -4 -94 14 -228 37 -273 8 -16 41 -65 73 -108 33 -43 59 -80
59 -83 0 -2 -47 -4 -105 -4 -80 0 -119 5 -162 20 -32 11 -74 20 -94 20 -21 0
-47 -8 -62 -20 -14 -11 -32 -20 -40 -20 -25 0 -57 -49 -57 -87 0 -74 83 -112
204 -93 39 7 118 14 176 16 94 4 102 2 80 -10 -41 -22 -190 -73 -332 -112
-123 -33 -141 -35 -230 -31 -112 7 -160 -4 -200 -43 -23 -24 -28 -37 -28 -77
0 -54 16 -78 71 -111 56 -34 121 -29 210 13 43 20 123 45 192 60 119 25 459
69 480 62 31 -10 -287 -189 -562 -315 l-224 -104 -62 11 c-90 16 -143 13 -204
-12 -72 -30 -94 -60 -94 -131 0 -31 5 -62 12 -70 40 -48 218 -81 307 -56 46
13 104 59 134 108 11 17 51 35 160 71 80 27 161 52 180 56 l35 7 -35 -37 c-45
-47 -120 -104 -194 -149 -47 -28 -70 -36 -108 -36 -138 0 -236 -117 -183 -219
24 -48 76 -66 190 -66 147 0 205 36 222 138 6 38 7 39 162 116 324 162 555
249 1184 440 196 60 281 100 432 206 392 274 669 563 885 920 104 173 220 460
250 620 23 116 19 278 -7 360 -56 174 -184 259 -388 258 -103 0 -253 -32 -327
-69 -26 -13 -49 -24 -50 -24 -2 0 -3 44 -4 98 -1 120 -23 202 -72 267 -61 81
-85 90 -237 89 -153 -1 -345 -31 -435 -69 -33 -14 -63 -25 -68 -25 -5 0 -12
21 -16 48 -5 41 -38 153 -69 236 -18 50 -49 89 -576 735 -101 124 -234 285
-296 356 -61 72 -192 227 -290 345 -99 118 -186 219 -195 225 -42 28 -474 156
-845 251 -938 241 -1417 356 -1770 424 -60 11 -238 47 -395 79 -157 32 -323
65 -370 71 -83 13 -86 14 -149 72 -87 79 -181 124 -315 151 -96 19 -117 20
-194 9 -48 -6 -96 -14 -108 -17 -15 -5 -23 0 -31 17 -18 39 -113 137 -160 165
-77 45 -154 63 -266 62 -56 0 -126 -7 -156 -15z m116 -70 c3 -9 -5 -26 -20
-42 -13 -15 -47 -67 -75 -117 -84 -151 -102 -171 -195 -215 -90 -44 -82 -45
33 -4 68 24 93 27 260 32 142 4 177 8 150 15 -36 10 -286 3 -330 -10 -24 -6
-24 -6 6 33 17 21 57 83 88 137 32 54 68 110 80 124 22 25 24 26 72 14 67 -17
171 -73 234 -127 72 -61 77 -55 8 10 -64 61 -176 122 -243 132 -31 4 -45 11
-45 22 0 12 10 14 58 9 116 -11 236 -81 292 -172 l21 -34 -92 -90 -93 -91
-100 0 c-68 0 -157 -10 -271 -30 -93 -16 -183 -30 -198 -30 -50 0 -44 26 37
143 67 99 77 120 84 172 7 60 7 60 57 85 40 20 124 44 168 49 4 1 10 -6 14
-15z m-292 -141 c-37 -65 -52 -79 -25 -23 23 46 39 70 47 70 3 0 -7 -21 -22
-47z m985 -92 c5 -11 10 -22 10 -24 0 -2 -28 -7 -62 -10 -78 -6 -163 -37 -208
-77 l-35 -30 66 34 c97 50 163 62 264 49 129 -16 247 -80 307 -167 21 -31 21
-31 -18 5 -94 88 -221 132 -362 127 -86 -3 -105 -7 -164 -36 -98 -48 -162
-110 -211 -206 -41 -80 -42 -82 -42 -191 0 -103 2 -114 32 -178 65 -136 175
-211 350 -238 106 -16 188 -3 295 47 93 44 147 98 188 189 130 286 -6 572
-316 660 -66 19 -84 31 -84 52 0 12 10 14 52 8 168 -23 331 -131 415 -275 31
-53 77 -205 67 -222 -3 -4 -11 -8 -17 -8 -7 0 -18 -24 -25 -52 -18 -76 -99
-233 -150 -289 -108 -120 -284 -166 -472 -123 -220 50 -393 272 -393 504 l1
85 56 95 c113 188 248 285 403 289 32 1 45 -4 53 -18z m185 -170 c111 -55 184
-125 214 -206 27 -71 30 -160 7 -238 -17 -58 -78 -158 -120 -196 -41 -38 -43
-16 -3 28 160 177 154 347 -17 516 -82 81 -146 111 -254 121 -155 15 -324 -78
-383 -210 -24 -55 -49 -151 -50 -196 -1 -34 -2 -34 -9 9 -10 61 3 129 39 199
38 75 88 125 166 164 106 54 123 58 228 54 91 -3 103 -6 182 -45z m-687 12
c-10 -2 -28 -2 -40 0 -13 2 -5 4 17 4 22 1 32 -1 23 -4z m-123 -15 c-27 -5
-97 -20 -155 -33 -58 -13 -160 -33 -227 -44 -112 -19 -275 -70 -288 -91 -3 -4
29 5 69 21 41 16 121 36 178 44 56 9 162 29 233 44 226 50 315 65 315 54 0
-22 -68 -119 -90 -130 -14 -6 -95 -23 -180 -36 -213 -35 -240 -38 -251 -31
-26 16 -159 10 -298 -12 -31 -5 -42 -4 -37 4 4 7 -8 5 -30 -4 -20 -8 -43 -14
-52 -12 -17 3 185 115 269 149 65 26 438 87 529 87 l65 0 -50 -10z m767 -45
c86 -40 152 -102 190 -176 16 -33 27 -61 24 -64 -6 -6 -198 120 -216 142 -10
12 -16 10 -38 -16 -32 -38 -63 -50 -130 -50 -54 0 -112 26 -131 58 -9 17 -4
20 -135 -70 -22 -15 -41 -25 -44 -22 -12 12 54 118 98 158 66 59 123 78 230
74 71 -2 97 -8 152 -34z m843 -83 c757 -154 1376 -295 1710 -390 77 -22 241
-65 365 -95 124 -31 294 -76 378 -101 85 -24 161 -45 170 -45 16 -1 16 -2 1
-6 -9 -2 -110 19 -224 47 -114 28 -209 50 -211 47 -6 -5 282 -81 426 -112 69
-14 161 -35 205 -46 l80 -19 -90 6 c-49 3 -178 9 -285 14 -313 14 -503 29
-1060 86 -30 3 -136 18 -235 35 -99 16 -256 40 -350 54 -188 27 -236 40 -440
125 -77 31 -175 70 -218 85 -44 16 -89 37 -100 46 -21 18 -19 18 98 13 66 -3
174 -17 240 -30 267 -55 374 -76 455 -90 47 -8 260 -57 474 -109 214 -53 391
-93 393 -91 5 5 -92 31 -540 141 -213 53 -395 98 -405 101 -14 5 -15 4 -2 -5
25 -18 31 -19 -255 49 -44 11 -125 27 -180 36 -92 15 -138 30 -493 161 -31 12
-40 19 -30 25 9 7 6 8 -10 5 -14 -3 -20 -1 -15 6 4 6 0 8 -10 4 -9 -3 -47 4
-84 17 -37 13 -61 25 -53 28 10 3 9 4 -3 2 -9 -1 -41 6 -69 17 -29 10 -54 19
-55 19 -1 0 -9 14 -18 30 -9 17 -12 30 -7 30 4 0 205 -40 447 -90z m-120 -98
c95 -38 184 -82 190 -92 4 -6 17 -10 28 -9 12 1 29 -1 37 -4 8 -3 40 -12 70
-20 l55 -16 -113 1 c-119 0 -178 10 -408 69 l-131 34 -12 61 c-6 34 -11 66
-11 72 0 11 165 -44 295 -96z m-1385 41 c-1 -45 -11 -51 -103 -62 -51 -6 -154
-16 -230 -22 -129 -10 -140 -9 -159 8 -29 26 -179 26 -227 -1 -80 -43 -102
-101 -57 -153 36 -41 102 -38 193 9 55 28 72 42 87 75 l19 40 126 7 c69 3 171
13 226 20 55 8 103 12 108 9 4 -2 7 -24 7 -48 0 -128 52 -249 152 -351 84 -87
165 -133 285 -160 43 -10 79 -19 81 -20 4 -3 -26 -165 -31 -170 -2 -2 -69 16
-148 40 -193 59 -487 131 -630 156 -64 10 -224 28 -355 40 -353 30 -344 29
-371 69 -14 20 -23 49 -23 71 0 65 54 199 110 270 32 41 53 80 47 86 -2 2 -15
-5 -30 -16 -31 -24 -47 -26 -47 -4 0 14 -3 14 -15 4 -24 -20 -19 -50 9 -50
l25 0 -35 -57 c-43 -72 -74 -170 -74 -234 0 -57 -8 -61 -34 -18 -34 58 -26
111 40 252 34 74 68 133 79 139 11 6 41 10 67 9 25 -1 84 6 130 15 62 13 108
15 187 10 77 -4 148 -1 265 14 242 29 326 35 326 23z m-504 -108 c10 -25 -21
-59 -82 -92 -77 -40 -136 -50 -169 -29 -42 28 -29 82 28 116 42 26 214 29 223
5z m1760 -21 c49 -14 136 -37 194 -51 142 -34 140 -33 140 -98 0 -35 -4 -55
-12 -55 -15 0 -391 146 -440 171 -41 21 -45 28 -26 47 18 18 46 15 144 -14z
m344 6 c8 -5 11 -10 5 -10 -5 0 -17 5 -25 10 -8 5 -10 10 -5 10 6 0 17 -5 25
-10z m-462 -59 c31 -15 144 -61 250 -101 113 -43 197 -80 202 -90 7 -13 25
-181 32 -290 3 -50 -6 -48 -25 5 -13 33 -42 93 -65 132 -62 105 -119 135 -261
135 -138 0 -185 -33 -232 -164 -12 -32 -25 -58 -29 -58 -12 0 -29 24 -60 84
l-28 57 43 82 c24 45 53 111 66 147 20 56 37 88 47 90 1 0 28 -13 60 -29z
m-873 -71 c124 -78 210 -100 321 -81 75 13 133 40 182 82 32 28 75 38 87 20 9
-16 -79 -134 -131 -174 -145 -111 -377 -99 -489 25 -42 46 -90 142 -81 163 9
24 27 18 111 -35z m-135 4 c0 -23 47 -110 80 -147 16 -18 62 -49 102 -68 69
-32 79 -34 183 -34 98 0 116 3 166 26 67 32 127 84 169 146 37 58 39 44 2 -19
-36 -63 -105 -134 -151 -158 -52 -26 -161 -44 -238 -37 -127 10 -249 95 -304
212 -29 59 -38 112 -19 100 6 -3 10 -13 10 -21z m1510 11 c16 -9 83 -35 147
-60 65 -24 174 -67 243 -95 112 -47 142 -55 310 -81 431 -66 495 -77 445 -78
-27 0 -93 4 -145 9 -52 5 -169 16 -260 25 -91 9 -186 16 -212 16 -31 0 -102
17 -200 48 -84 27 -199 63 -255 80 l-101 31 -4 60 c-1 33 -2 60 0 60 2 0 16
-7 32 -15z m35 -139 c22 -8 114 -38 205 -66 l165 -52 32 -71 c82 -186 319
-683 461 -966 86 -173 159 -319 161 -325 2 -6 -34 24 -80 66 -89 82 -226 193
-349 286 -68 51 -85 71 -161 192 -76 120 -303 499 -418 698 -23 40 -46 70 -50
68 -4 -3 -12 37 -17 89 -6 62 -6 95 1 95 5 0 27 -6 50 -14z m-267 -55 c56 -29
104 -87 153 -187 39 -78 44 -95 43 -153 -2 -121 -66 -236 -155 -282 -45 -22
-125 -25 -172 -5 -68 28 -183 184 -218 295 -32 106 -29 165 16 250 21 39 47
77 59 83 60 33 210 32 274 -1z m-638 -59 c0 -5 -12 -15 -27 -23 -47 -23 -49
-22 -14 5 38 29 41 30 41 18z m183 -81 c44 -54 59 -82 68 -123 16 -79 79 -204
137 -277 29 -35 52 -69 52 -74 0 -17 -44 -87 -55 -87 -6 0 -44 16 -85 36 -41
20 -145 67 -230 104 -85 37 -198 89 -251 114 l-96 46 15 82 c8 46 16 88 17 94
2 6 32 14 67 17 84 8 165 39 241 92 34 24 62 44 63 44 0 1 26 -30 57 -68z
m1204 42 c12 -8 38 -42 58 -75 19 -33 71 -106 114 -162 43 -55 102 -139 132
-186 30 -47 98 -151 151 -232 53 -80 103 -159 112 -175 8 -16 24 -103 36 -194
11 -90 30 -224 40 -297 11 -73 20 -143 20 -155 0 -52 -293 509 -530 1018 -59
127 -130 277 -158 335 -27 58 -53 116 -57 129 -7 22 -5 23 26 16 19 -4 44 -14
56 -22z m-3192 -3 c10 -11 16 -22 14 -25 -7 -6 -49 24 -49 36 0 15 16 10 35
-11z m3450 -4 c88 -8 205 -17 260 -21 183 -11 499 -36 580 -45 127 -15 660
-57 893 -71 116 -7 212 -15 212 -18 0 -44 -475 -65 -925 -41 -417 22 -961 78
-1122 115 -61 14 -76 22 -94 48 -12 18 -29 38 -38 45 -14 12 -9 13 29 8 25 -3
117 -12 205 -20z m-3171 -51 c430 -46 560 -67 826 -136 303 -79 428 -123 640
-229 52 -26 150 -69 217 -96 67 -27 120 -50 118 -52 -1 -2 -45 9 -96 23 -51
15 -163 44 -249 65 -85 22 -225 60 -310 85 -364 109 -760 212 -1115 290 -93
20 -181 43 -195 51 l-25 13 24 1 c13 0 87 -7 165 -15z m2504 -155 c77 -133
184 -312 385 -641 26 -42 47 -88 47 -102 0 -30 -39 -137 -51 -137 -4 0 -17 12
-28 26 -27 35 -235 448 -306 609 -32 72 -79 174 -106 227 -38 76 -49 108 -49
145 0 29 4 43 9 38 5 -6 50 -80 99 -165z m-2712 130 c32 -12 142 -39 244 -61
251 -54 361 -82 940 -239 140 -38 345 -92 455 -119 266 -66 524 -140 655 -188
8 -3 5 2 -8 12 -12 9 -46 24 -75 34 -47 17 -52 21 -50 46 1 15 9 35 18 45 14
15 20 16 53 4 44 -16 105 -18 150 -5 29 9 45 0 23 -13 -4 -3 -18 -38 -31 -78
-12 -40 -24 -75 -26 -77 -2 -2 -11 2 -20 10 -16 13 -16 12 -5 -9 11 -21 10
-22 -11 -18 -13 3 -57 10 -98 16 -84 13 -658 152 -845 205 -66 18 -249 70
-406 114 -158 45 -389 106 -515 136 -544 132 -554 135 -554 180 0 32 25 33
106 5z m3458 -76 c44 -14 101 -35 126 -45 25 -9 128 -48 230 -85 102 -37 313
-119 470 -182 157 -63 297 -120 313 -126 53 -21 31 -34 -70 -40 -93 -7 -103
-5 -203 27 -120 39 -287 98 -475 167 -71 26 -206 76 -300 110 -93 34 -185 71
-203 83 -31 18 -142 142 -142 157 0 8 139 -28 254 -66z m162 7 c342 -47 731
-71 1133 -70 174 1 362 4 419 8 119 7 122 11 -48 -86 -63 -37 -185 -108 -270
-158 -85 -51 -172 -102 -193 -113 l-39 -20 -46 20 c-207 89 -523 211 -932 360
-203 75 -208 76 -184 77 11 1 83 -8 160 -18z m1788 -27 c9 -3 49 -47 88 -98
40 -50 169 -206 287 -346 392 -465 515 -613 655 -790 77 -96 155 -192 174
-212 37 -39 37 -62 0 -39 -11 7 -17 8 -13 2 8 -14 9 -14 -56 5 -78 23 -240 89
-337 136 l-83 40 -90 181 c-49 99 -93 185 -98 191 -5 6 -69 124 -143 261 -74
138 -147 270 -162 295 l-27 45 47 -50 c26 -27 101 -117 167 -200 143 -178 158
-196 489 -571 142 -161 263 -296 270 -300 15 -9 5 2 -272 318 -271 308 -357
409 -472 554 -53 67 -117 144 -142 173 -66 74 -114 142 -190 266 -37 61 -72
115 -78 120 -17 17 19 -63 71 -153 26 -48 68 -125 91 -172 23 -47 50 -91 59
-98 9 -7 10 -10 2 -6 -10 5 -9 -2 4 -24 10 -17 22 -29 26 -27 4 3 10 -2 13
-11 4 -10 2 -13 -6 -8 -6 4 69 -149 166 -339 97 -191 173 -347 169 -347 -5 0
-19 7 -32 17 -13 9 -180 96 -370 193 -305 156 -519 277 -811 460 -47 29 -102
64 -122 77 -21 13 -38 27 -37 31 0 4 91 60 202 125 574 337 530 313 561 301z
m-2789 -506 c4 -238 3 -368 -3 -368 -11 0 -115 109 -174 183 -65 83 -90 127
-80 140 10 13 23 53 42 124 7 28 27 59 66 98 67 68 99 135 116 241 l13 79 6
-65 c4 -36 10 -230 14 -432z m-2510 448 c33 -8 132 -31 220 -50 150 -33 342
-84 650 -170 530 -150 1071 -283 1253 -311 89 -13 99 -17 125 -47 39 -45 51
-68 36 -68 -7 0 -78 16 -158 35 -80 19 -234 53 -342 75 -220 45 -390 90 -695
184 -328 101 -502 150 -739 206 -269 64 -397 110 -436 156 -12 15 -12 16 6 11
11 -3 47 -13 80 -21z m2645 -246 c102 -224 217 -454 271 -541 16 -25 29 -50
29 -56 0 -6 -39 -5 -107 3 -60 7 -152 15 -205 19 l-97 7 -5 72 c-3 39 -8 229
-10 421 -5 301 -4 346 8 325 8 -14 60 -126 116 -250z m737 155 c161 -62 659
-241 785 -283 76 -25 136 -47 135 -49 -7 -6 -667 -98 -745 -103 -1 0 -37 53
-79 118 -42 64 -114 175 -160 245 -45 70 -83 130 -83 133 0 2 18 -5 39 -16 22
-11 70 -31 108 -45z m-2700 -284 c106 -63 124 -71 103 -46 -18 22 4 18 24 -4
9 -10 39 -34 66 -52 52 -36 65 -55 29 -46 -20 5 -20 5 -3 -14 9 -10 23 -19 31
-19 7 0 21 -4 31 -9 9 -5 32 -15 50 -21 21 -9 32 -19 33 -34 1 -17 2 -17 6 -3
6 22 14 22 56 -3 28 -17 37 -31 51 -79 9 -32 14 -65 11 -73 -3 -7 2 -22 10
-33 14 -19 15 -17 9 20 -3 22 -12 62 -20 89 -17 61 -18 59 4 47 37 -20 91 -85
108 -130 9 -25 37 -88 60 -139 l44 -94 -70 62 c-38 34 -79 77 -90 95 -12 19
-25 34 -30 32 -13 -3 -110 93 -110 108 0 7 -7 28 -16 46 l-15 34 6 -35 5 -35
-66 65 c-37 36 -92 90 -123 120 -31 31 -76 64 -101 74 -60 24 -137 71 -173
108 -16 16 -35 27 -43 24 -7 -3 -18 3 -26 12 -9 11 -10 14 0 8 7 -4 12 -2 12
5 0 8 5 7 18 -3 9 -9 63 -43 119 -77z m25 21 c38 -25 66 -47 64 -49 -4 -4
-132 81 -151 100 -16 16 13 -1 87 -51z m148 -77 c46 -47 23 -45 -27 3 -22 20
-60 54 -84 75 l-44 38 60 -40 c33 -22 76 -56 95 -76z m-24 67 c-4 -3 -14 2
-24 12 -16 18 -16 18 6 6 13 -6 21 -14 18 -18z m299 -88 c61 -19 121 -32 135
-29 14 3 32 0 40 -6 11 -8 8 -9 -15 -4 -62 14 -12 -9 57 -26 89 -22 47 -25
-54 -4 -85 18 -276 79 -330 106 -58 29 -55 42 4 18 29 -12 103 -36 163 -55z
m-231 36 c32 -17 66 -30 76 -30 9 0 25 -9 35 -20 10 -11 23 -20 29 -20 5 0 23
-12 38 -27 22 -21 28 -23 28 -10 0 9 -19 27 -42 41 -54 33 -46 33 39 0 85 -32
298 -74 376 -74 32 0 68 -5 79 -11 16 -9 19 -8 13 2 -6 9 -3 10 10 5 20 -7 68
-14 145 -20 86 -7 562 -86 583 -97 12 -6 43 -32 70 -57 40 -40 45 -48 30 -54
-15 -6 -15 -7 4 -7 12 -1 25 -6 29 -12 5 -9 -6 -10 -42 -5 -84 11 -436 93
-517 120 -43 14 -83 26 -91 26 -7 0 -25 9 -40 21 -23 18 -26 19 -26 3 0 -16
-18 -16 -242 -10 -331 8 -329 8 -318 64 4 20 11 46 15 57 7 20 6 20 -9 1 -9
-11 -16 -29 -16 -40 0 -12 -4 -27 -9 -34 -12 -19 -60 7 -96 50 -15 19 -22 23
-16 11 15 -30 14 -33 -9 -33 -11 0 -37 16 -58 36 l-37 36 35 -25 c85 -59 47
-14 -80 95 -30 26 -53 48 -50 48 3 0 32 -14 64 -30z m209 10 c8 0 7 -4 -1 -12
-9 -9 -16 -8 -30 6 -16 18 -16 19 1 12 10 -3 24 -6 30 -6z m3576 -84 c377
-233 605 -362 811 -458 135 -63 430 -221 430 -230 0 -4 -6 -6 -12 -3 -38 12
-406 130 -548 175 l-165 52 -315 236 c-336 251 -370 278 -370 299 0 26 37 11
169 -71z m-183 66 c-9 -14 47 -60 304 -254 135 -102 279 -211 321 -242 l75
-58 199 -497 c109 -273 224 -558 257 -634 36 -86 58 -151 58 -175 0 -38 -28
-89 -118 -212 -18 -25 -57 -79 -88 -121 l-56 -77 -111 4 c-220 7 -827 81 -827
100 0 2 13 36 29 76 16 40 52 141 81 223 29 83 82 224 117 315 82 209 203 534
203 546 0 2 -39 26 -87 54 -49 28 -117 70 -153 92 -110 70 -572 347 -836 501
-239 141 -251 149 -273 193 -12 26 -21 47 -19 49 2 1 50 7 108 14 101 12 613
86 695 101 57 11 127 11 121 2z m-3326 -12 c0 -5 -7 -7 -15 -4 -8 4 -15 8 -15
10 0 2 7 4 15 4 8 0 15 -4 15 -10z m63 -17 c-7 -2 -21 -2 -30 0 -10 3 -4 5 12
5 17 0 24 -2 18 -5z m232 -63 c-3 -5 -1 -10 4 -10 6 0 11 -4 11 -10 0 -5 -9
-10 -20 -10 -22 0 -28 25 -7 33 18 8 19 8 12 -3z m4165 -40 c11 -22 18 -40 15
-40 -2 0 -14 18 -25 40 -11 22 -18 40 -15 40 2 0 14 -18 25 -40z m106 -190
c107 -199 226 -430 220 -430 -6 0 -49 78 -128 230 -30 58 -83 159 -118 225
-35 66 -58 116 -53 110 6 -5 41 -66 79 -135z m-4186 70 c124 -4 234 -11 245
-14 43 -13 416 -106 515 -128 l104 -24 -188 -92 -188 -92 -51 19 c-63 22 -481
208 -575 255 -37 18 -95 44 -130 56 -83 30 -89 43 -15 35 32 -3 159 -10 283
-15z m2142 -23 c40 -24 129 -77 198 -117 370 -218 1004 -602 1023 -620 9 -8
-39 -145 -163 -465 -45 -115 -110 -289 -145 -385 -35 -96 -72 -193 -82 -215
l-18 -40 -6 130 c-3 72 -10 141 -16 155 -20 45 -98 143 -204 254 -57 59 -133
149 -168 200 -68 98 -222 282 -343 411 l-74 80 -38 295 c-21 162 -41 310 -43
328 -3 17 -3 32 0 32 4 0 39 -20 79 -43z m-2290 -68 c183 -84 523 -233 580
-254 l46 -17 -101 -98 -102 -98 -41 37 c-23 20 -96 97 -162 171 -109 122 -210
220 -266 259 -12 8 53 -62 144 -155 179 -184 277 -294 263 -294 -5 0 -13 4
-18 9 -11 10 -173 61 -196 61 -7 0 -40 20 -71 43 -51 38 -64 56 -109 148 -85
172 -118 249 -109 249 5 0 69 -27 142 -61z m1691 29 c39 -28 323 -255 396
-317 29 -25 57 -45 63 -43 5 1 7 -2 3 -8 -4 -6 5 -24 20 -42 31 -37 69 -108
61 -115 -3 -3 -31 16 -61 43 -31 27 -73 63 -93 80 -36 31 -313 194 -422 249
-30 15 -56 28 -58 30 -4 3 50 145 55 145 3 0 19 -10 36 -22z m-488 -132 c61
-14 175 -37 255 -51 105 -19 165 -36 219 -61 40 -19 80 -34 88 -34 8 0 12 -4
9 -9 -4 -5 0 -12 6 -15 7 -2 4 -4 -7 -3 -22 2 -159 -42 -152 -49 8 -8 172 28
179 39 5 9 17 7 43 -7 19 -11 35 -22 35 -26 0 -9 -80 -24 -234 -45 -60 -8
-112 -17 -114 -20 -8 -8 25 -6 92 5 75 12 319 31 325 25 8 -8 -54 -20 -319
-61 -112 -17 -147 -28 -305 -93 -55 -23 -122 -45 -150 -48 l-50 -5 81 40 c44
22 118 61 165 87 120 69 300 161 329 168 13 3 21 9 18 12 -11 11 -149 -53
-368 -171 l-215 -115 -100 15 c-89 14 -257 32 -497 51 -43 4 -78 10 -78 15 0
24 189 179 278 229 136 75 324 161 342 157 8 -3 65 -16 125 -30z m299 -6 c65
-10 123 -23 128 -28 18 -18 -220 10 -332 39 l-75 19 80 -6 c44 -3 133 -14 199
-24z m2566 -183 c278 -88 484 -159 497 -171 16 -14 -7 -117 -123 -556 -48
-179 -92 -362 -98 -408 l-11 -83 -38 93 c-21 51 -79 194 -128 318 -77 192
-340 841 -356 877 -5 13 -11 15 257 -70z m-2060 -107 c24 -15 9 -19 -78 -21
-84 -2 -112 -12 -67 -23 14 -4 35 -18 47 -31 21 -24 39 -33 37 -17 -3 20 2 42
10 42 6 0 34 -33 65 -72 30 -40 69 -86 87 -103 20 -19 13 -7 -20 35 -66 81
-98 140 -77 140 23 0 67 -52 123 -147 29 -48 51 -88 49 -90 -8 -9 -109 52
-161 98 l-60 53 50 -53 50 -52 -49 6 c-27 3 -61 8 -75 12 -14 4 -57 7 -94 7
l-68 1 -33 75 c-27 64 -36 75 -57 75 -13 0 -30 4 -36 8 -17 11 -16 8 6 -39 11
-22 38 -59 60 -82 23 -23 36 -42 31 -42 -6 0 -40 13 -75 29 -36 17 -65 28 -65
25 0 -3 26 -17 57 -31 49 -23 54 -27 36 -34 -23 -8 -40 -29 -24 -29 5 0 13 5
16 10 8 13 85 13 85 0 0 -6 -12 -29 -27 -53 -70 -110 -83 -150 -83 -248 l0
-92 -26 24 c-14 13 -35 41 -45 62 l-19 37 37 80 c20 44 40 80 44 80 4 0 9 -15
11 -32 2 -18 4 2 5 44 l0 77 -59 73 c-32 40 -73 86 -91 101 -40 34 -33 39 71
56 84 14 145 4 209 -34 l28 -17 -22 20 c-50 45 -14 44 41 -1 51 -42 96 -71 96
-63 0 3 -17 17 -37 30 -21 13 -50 36 -65 50 -28 27 -68 35 -68 14 0 -9 -3 -9
-12 0 -7 7 -23 12 -37 13 -45 1 -7 10 105 23 140 17 156 18 174 6z m-1783 -17
c29 -9 48 -20 42 -23 -9 -6 33 -17 130 -36 8 -1 18 -9 22 -16 7 -10 11 -10 17
-1 5 9 72 6 272 -13 146 -13 297 -29 335 -35 65 -11 68 -13 40 -21 -16 -5
-134 -12 -261 -15 l-231 -6 -130 56 c-71 30 -147 58 -169 62 -57 10 -106 26
-99 33 3 3 -5 12 -17 19 -32 17 -14 16 49 -4z m85 -74 c88 -25 241 -96 285
-133 25 -21 38 -46 58 -114 15 -48 44 -136 65 -197 21 -60 37 -111 36 -113 -9
-8 -163 127 -261 229 -104 108 -240 269 -281 333 -18 28 -18 29 3 22 12 -4 54
-16 95 -27z m1142 -31 c-19 -73 -29 -244 -16 -290 8 -31 8 -38 -4 -38 -8 0
-14 -4 -14 -9 0 -14 93 -104 168 -161 39 -30 70 -55 68 -57 -1 -1 -20 6 -42
17 -23 12 -40 16 -42 10 -4 -10 -76 46 -132 102 -15 15 -45 58 -66 95 -36 64
-39 74 -42 170 -6 140 -3 147 66 182 31 17 60 30 64 31 3 0 0 -24 -8 -52z
m266 12 c26 -51 26 -68 -1 -44 -26 23 -50 69 -42 78 13 13 23 5 43 -34z m-73
-144 c20 -39 11 -81 -44 -189 -38 -77 -43 -94 -34 -114 11 -23 10 -23 -17 -9
-34 18 -75 61 -79 84 -24 137 -26 169 -16 272 6 59 14 113 18 120 9 14 148
-118 172 -164z m3041 115 c82 -40 275 -117 360 -142 54 -16 72 -25 72 -38 0
-25 -70 -130 -116 -175 l-39 -38 -135 141 c-74 77 -140 141 -146 141 -11 0
-64 107 -64 129 0 15 3 15 68 -18z m-3370 -56 c-12 -86 2 -187 38 -265 19 -41
53 -82 134 -162 61 -58 110 -111 110 -117 0 -6 -15 -11 -32 -12 -31 -1 -30 -2
9 -9 45 -9 94 -32 132 -61 13 -11 22 -19 20 -19 -2 0 -67 20 -144 45 -77 25
-156 50 -176 55 -45 13 -99 65 -160 158 -71 108 -118 251 -119 360 0 35 3 42
19 42 17 0 21 -8 24 -52 l3 -53 2 55 2 55 73 26 c39 14 73 25 73 25 1 -1 -3
-32 -8 -71z m913 -27 c10 -20 23 -55 28 -77 23 -103 -53 6 -111 159 -9 23 -7
22 27 -10 20 -19 45 -51 56 -72z m2409 9 c36 -94 130 -405 130 -430 0 -23 5
-22 33 7 14 14 58 41 98 61 41 21 82 45 93 54 37 32 7 -31 -38 -79 -41 -45
-41 -45 12 5 28 27 52 56 52 64 0 22 83 146 88 131 3 -7 -12 -44 -32 -82 -44
-84 -47 -103 -6 -30 17 28 31 52 33 52 2 0 0 -118 -2 -193 -1 -16 -4 -16 -34
-3 l-33 13 -30 -56 c-36 -69 -83 -124 -100 -117 -8 3 -18 -3 -23 -12 -6 -9
-11 -11 -11 -5 0 7 21 46 48 88 81 130 103 167 99 171 -5 5 -67 -72 -67 -83 0
-5 -26 -49 -58 -98 -32 -50 -64 -105 -71 -122 -17 -42 -37 -42 -45 -2 -4 22 0
39 13 58 33 47 43 71 28 65 -8 -3 -22 -21 -31 -42 -14 -28 -20 -33 -26 -22
-18 34 -71 232 -110 407 -41 190 -58 257 -59 237 -1 -10 14 -82 79 -384 7 -30
28 -111 46 -179 19 -68 33 -125 31 -127 -1 -1 -78 -45 -171 -98 -93 -54 -183
-107 -199 -118 l-30 -21 7 49 c8 52 56 247 160 644 78 296 76 291 86 285 5 -3
22 -42 40 -88z m-4478 42 c-2 -13 -14 -67 -27 -119 -13 -52 -28 -127 -35 -165
-14 -90 -57 -179 -88 -183 -54 -8 -63 31 -33 149 16 64 123 299 154 337 15 19
32 8 29 -19z m76 -70 l22 -38 -72 -107 c-52 -77 -74 -102 -76 -87 -3 22 26
165 53 258 20 67 16 68 73 -26z m877 14 c18 -151 69 -286 153 -411 44 -63 94
-112 116 -112 31 0 382 -131 394 -148 7 -9 9 -18 4 -20 -23 -7 -430 138 -442
158 -3 4 -54 18 -114 30 -123 25 -147 34 -164 60 -33 54 -358 409 -397 435
-25 17 -45 33 -45 37 0 4 102 9 228 11 125 1 235 3 244 5 13 1 18 -9 23 -45z
m1403 -195 c99 -117 182 -223 182 -232 0 -5 -44 31 -262 213 -37 31 -68 63
-68 71 0 8 -16 53 -35 100 -19 47 -35 86 -35 88 0 7 138 -146 218 -240z m-625
173 c13 -5 48 -33 77 -61 188 -183 448 -427 525 -492 89 -75 164 -149 135
-133 -63 35 -341 243 -485 364 -153 128 -335 292 -346 312 -9 17 -6 19 30 19
22 0 51 -4 64 -9z m-1152 -78 c65 -68 160 -174 289 -325 l35 -41 -40 6 c-141
20 -237 37 -244 42 -7 4 -92 256 -126 373 -11 38 9 25 86 -55z m1384 5 c174
-88 397 -268 666 -537 161 -162 212 -227 188 -242 -28 -18 -45 -7 -109 72
-106 132 -579 570 -749 693 l-26 19 20 -20 c22 -22 109 -99 330 -290 141 -121
382 -361 423 -420 l22 -31 -22 5 c-16 3 -13 -1 10 -13 39 -20 40 -28 5 -42
-92 -36 -558 -117 -604 -105 -24 7 -25 23 -1 23 9 0 76 18 147 40 72 22 175
52 230 66 55 14 108 29 118 35 9 5 30 7 45 4 24 -5 25 -5 8 7 -46 32 -194 151
-293 237 -129 111 -593 551 -593 562 0 14 104 -21 185 -63z m2598 30 c14 -18
68 -80 121 -138 53 -58 96 -108 96 -111 0 -3 -19 -14 -42 -25 -24 -10 -60 -28
-80 -41 l-37 -23 -11 43 c-7 23 -29 104 -51 179 -21 75 -39 139 -39 142 0 15
20 3 43 -26z m-2800 -106 c268 -241 504 -426 684 -536 59 -36 123 -79 142 -95
l35 -29 -35 -7 c-19 -4 -128 -33 -244 -66 -220 -62 -295 -76 -295 -56 0 15 56
114 70 122 28 18 5 42 -83 88 -50 27 -139 82 -197 123 -58 40 -151 104 -207
141 l-102 68 -1 91 c0 50 5 106 12 125 16 45 91 165 96 151 2 -6 58 -60 125
-120z m-1573 -10 c6 -2 10 -14 10 -26 0 -16 13 -32 43 -52 96 -65 70 -83 -57
-40 -59 20 -66 21 -45 5 22 -17 52 -26 149 -45 l35 -7 -40 -18 c-46 -21 -91
-23 -121 -6 -11 7 -53 38 -92 71 l-72 58 20 27 c12 14 32 44 47 66 53 82 53
82 85 23 16 -29 33 -54 38 -56z m4880 -7 c0 -18 -8 -47 -17 -66 -11 -21 -19
-64 -21 -115 -4 -78 -5 -81 -32 -91 l-28 -11 -7 115 c-9 133 -1 217 22 252
l16 25 34 -39 c22 -26 33 -48 33 -70z m-4905 -195 c22 -10 56 -22 75 -27 l35
-9 -70 -46 c-102 -68 -106 -68 -224 -8 l-100 52 26 37 c15 20 28 38 30 40 1 2
11 -2 20 -10 17 -12 17 -12 1 5 -18 21 -11 55 19 88 15 16 20 13 82 -43 36
-34 84 -69 106 -79z m4933 33 c5 -72 4 -76 -12 -61 -12 12 -16 35 -16 89 0 99
21 78 28 -28z m-5317 -4 c-5 -65 -4 -75 9 -72 9 2 25 -6 37 -19 l22 -23 -68
-205 c-89 -267 -148 -417 -168 -424 -14 -6 -15 1 -9 46 12 86 51 242 105 415
55 174 65 217 26 113 -53 -143 -126 -404 -144 -519 -11 -69 -14 -73 -101 -123
-30 -17 -74 -51 -98 -76 l-42 -45 26 69 c47 128 145 368 216 529 72 164 190
417 193 413 1 -2 -1 -37 -4 -79z m5966 -20 c-30 -18 -215 -49 -285 -48 l-67 1
40 18 c57 26 355 54 312 29z m63 -8 c0 -21 -79 -180 -96 -192 -21 -16 -75 -83
-92 -115 -25 -47 -110 -105 -174 -120 -80 -19 -251 -50 -348 -64 -41 -5 -87
-13 -102 -16 -38 -8 -36 9 4 43 86 73 303 304 335 356 l36 58 51 -6 c57 -7
201 15 293 44 66 22 93 25 93 12z m65 -51 c8 -16 15 -33 15 -37 0 -5 -29 -23
-64 -41 l-65 -31 20 47 c20 46 55 92 70 92 5 0 15 -13 24 -30z m-5942 -35 c69
-42 122 -65 148 -65 11 0 19 -4 19 -10 0 -21 -73 -9 -124 19 -56 33 -127 90
-111 91 6 0 36 -16 68 -35z m4997 -1 c0 -29 -15 -46 -61 -70 -27 -13 -49 -22
-49 -19 0 3 14 32 30 65 29 57 31 59 55 48 14 -6 25 -17 25 -24z m390 25 c0
-8 5 -8 15 1 26 21 18 -7 -15 -53 -40 -58 -328 -352 -336 -344 -6 6 20 41 91
122 14 17 36 41 47 55 11 14 32 38 47 55 l26 30 -28 -25 c-15 -13 -67 -70
-115 -127 -86 -102 -121 -118 -66 -31 15 24 20 37 11 29 -25 -20 -59 -79 -52
-90 9 -15 -68 0 -87 17 -13 11 -15 19 -8 33 6 10 10 26 10 36 -1 11 -6 6 -15
-14 -9 -22 -29 -40 -64 -57 -59 -30 -61 -31 -61 -12 0 8 26 37 57 65 31 28 54
51 49 51 -11 0 -203 -149 -250 -195 -23 -22 -28 -28 -12 -14 77 65 130 99 137
88 11 -18 -1 -82 -20 -109 -10 -13 -29 -28 -42 -31 -16 -5 -18 -7 -6 -8 23 -1
22 -11 -8 -55 -14 -20 -25 -39 -25 -42 0 -3 -23 -39 -52 -81 l-51 -77 -16 24
c-26 39 -62 80 -71 80 -5 0 -19 -15 -31 -32 l-23 -33 26 23 c14 12 31 20 39
17 14 -5 69 -77 69 -89 0 -17 -67 -106 -80 -106 -12 0 -12 -2 -2 -9 12 -7 11
-14 -3 -41 -9 -17 -15 -34 -12 -36 2 -2 14 17 27 44 28 56 198 312 240 362 25
29 31 32 40 20 5 -8 10 -17 10 -20 0 -3 -36 -56 -80 -118 -44 -62 -75 -110
-69 -107 5 4 35 42 65 86 31 43 58 79 61 79 3 0 3 -11 1 -25 -3 -13 -1 -22 3
-19 5 3 9 18 9 33 0 15 13 48 30 74 l29 47 -25 6 c-23 6 -25 11 -20 37 3 16 6
43 6 60 0 17 3 28 6 24 3 -3 24 5 45 19 44 27 57 29 82 10 17 -13 17 -14 0
-18 -10 -3 -27 -22 -37 -44 -10 -21 -25 -52 -32 -67 -9 -18 -10 -27 -3 -25 6
2 20 28 32 58 26 65 60 90 104 74 20 -6 29 -17 31 -36 3 -22 -7 -35 -56 -75
-33 -26 -85 -78 -117 -115 -31 -37 -65 -70 -76 -73 -10 -4 -19 -9 -19 -13 -1
-4 -12 -20 -26 -37 -15 -17 -24 -22 -20 -12 8 24 -1 21 -15 -4 -8 -15 -8 -19
0 -15 22 14 9 -6 -66 -103 -43 -55 -97 -124 -120 -155 l-43 -56 -82 82 c-64
64 -82 88 -77 102 3 11 11 22 16 23 13 5 99 -90 123 -136 16 -30 19 -32 20
-14 0 12 -18 41 -40 65 -22 24 -46 55 -52 71 -7 15 -17 27 -22 27 -4 0 -5 7
-2 16 3 8 2 12 -4 9 -15 -9 -12 -1 15 51 14 26 25 43 25 38 0 -4 20 25 45 65
65 105 248 316 319 368 34 24 68 49 77 56 27 20 52 36 104 63 28 15 81 45 119
67 60 34 317 146 339 147 4 0 7 -5 7 -11z m-4429 -39 c29 -8 39 -18 57 -57 36
-80 82 -215 76 -225 -3 -4 -42 22 -87 59 -121 100 -277 245 -272 253 5 7 166
-14 226 -30z m749 -26 c130 -95 308 -212 380 -250 39 -20 69 -39 67 -41 -3 -2
-38 5 -78 16 -41 11 -95 22 -121 26 -43 5 -58 15 -133 86 -93 89 -212 219
-199 219 5 0 43 -25 84 -56z m-1657 -40 c25 -12 37 -24 34 -34 -12 -41 -282
-701 -304 -742 -28 -52 -79 -81 -176 -103 -26 -5 -28 -4 -22 17 4 13 18 43 30
68 12 25 30 70 40 100 10 30 39 107 66 170 58 140 149 397 179 505 12 44 24
83 26 87 3 4 24 -6 47 -22 23 -15 59 -36 80 -46z m1072 31 c44 -10 136 -40
205 -68 69 -28 197 -76 285 -108 166 -60 195 -79 160 -105 -17 -13 -51 -14
-220 -8 l-200 7 -63 56 c-34 31 -95 82 -135 113 -39 32 -87 71 -104 88 -33 31
-44 56 -20 47 7 -2 48 -12 92 -22z m4845 12 c0 -51 -26 -189 -41 -221 -11 -22
-20 -49 -20 -60 -1 -12 -5 22 -9 74 -12 140 -26 161 -22 32 3 -83 0 -111 -11
-127 -9 -11 -17 -18 -20 -15 -3 3 -6 64 -8 135 -4 119 -3 130 14 129 9 -1 17
3 17 10 0 12 67 55 88 56 6 0 12 -6 12 -13z m-5541 -13 c2 -2 -27 -4 -65 -3
-42 0 -62 3 -50 8 19 7 106 3 115 -5z m5567 -110 c-8 -114 -24 -168 -25 -83
-2 103 11 213 22 193 6 -10 7 -55 3 -110z m-5566 70 c0 -11 -21 -14 -106 -14
-72 0 -103 3 -99 11 12 19 42 24 124 21 62 -3 81 -7 81 -18z m740 -98 c61 -53
171 -153 193 -173 9 -9 17 -21 17 -26 0 -5 -8 -6 -17 -2 -10 4 -56 13 -103 21
-91 16 -143 40 -148 67 -5 24 27 22 98 -8 33 -14 65 -25 72 -24 16 0 -126 58
-155 63 -16 2 -27 20 -49 77 -15 41 -27 80 -27 88 -1 15 45 -17 119 -83z
m-742 47 c-3 -28 -3 -28 -78 -27 -52 1 -66 0 -45 -6 27 -7 26 -8 -16 -9 -74
-2 -169 11 -162 21 3 6 33 8 72 4 69 -6 73 -2 9 9 -72 12 -38 24 75 28 61 1
120 4 130 5 14 2 18 -4 15 -25z m5392 -103 c0 -109 -2 -130 -15 -130 -11 0
-15 11 -16 38 0 20 -5 46 -10 57 -8 17 -9 17 -4 -5 6 -31 -5 -100 -16 -100 -4
0 -10 33 -12 73 l-3 72 -2 -81 -2 -80 -35 -17 -35 -17 5 43 5 42 -17 -47 c-10
-26 -26 -55 -37 -65 -18 -17 -18 -17 -11 30 9 66 28 107 91 200 51 74 89 116
107 117 4 0 7 -58 7 -130z m-1179 8 c-11 -24 -45 -71 -75 -105 -45 -52 -55
-59 -59 -42 -3 10 -2 17 3 14 9 -6 82 71 100 106 7 13 -24 -11 -70 -53 -73
-67 -89 -77 -139 -87 -74 -15 -141 -46 -141 -66 0 -12 4 -11 19 4 20 20 108
51 143 51 18 0 18 -1 0 -20 -11 -12 -28 -40 -38 -63 -10 -23 -21 -44 -25 -47
-3 -3 -11 -18 -16 -35 l-10 -30 -11 45 c-9 41 -10 42 -11 13 -1 -21 -9 -37
-23 -47 -37 -26 -48 -21 -37 16 5 18 9 44 8 58 -1 16 -4 10 -9 -17 -11 -52
-23 -76 -68 -131 -30 -38 -39 -43 -63 -38 -27 5 -27 5 -13 -22 8 -15 14 -43
14 -63 0 -37 0 -37 -64 -54 -38 -10 -79 -30 -98 -46 l-33 -29 45 24 c41 23
209 71 217 63 12 -13 -173 -106 -272 -137 -22 -7 -46 -17 -52 -23 -24 -18 -13
5 22 46 19 23 68 81 108 128 39 47 81 102 92 121 11 20 50 80 86 134 37 55 70
109 73 121 8 26 67 65 239 162 71 39 138 78 150 86 30 21 32 12 8 -37z m-4224
30 c-3 -10 -47 -13 -169 -14 -136 -1 -165 1 -161 12 7 19 337 21 330 2z m-7
-45 c0 -10 -3 -27 -6 -38 -5 -19 -12 -20 -177 -17 -95 2 -173 5 -174 6 -2 1 3
17 9 34 l12 32 168 0 c153 0 168 -2 168 -17z m6060 -20 c-55 -8 -68 -13 -74
-28 -5 -14 -2 -14 24 0 32 17 60 20 60 6 0 -23 -92 -107 -173 -157 -108 -67
-281 -183 -424 -286 -441 -314 -611 -428 -753 -504 -171 -91 -230 -119 -230
-106 0 9 41 51 75 78 20 15 20 15 -2 5 -33 -16 -34 -14 -13 22 26 42 75 85
248 215 504 377 587 434 815 556 48 26 87 49 87 52 0 14 -287 -147 -423 -238
-99 -67 -527 -387 -569 -426 -40 -37 -43 -23 -5 18 18 19 59 67 92 105 158
189 283 309 405 392 110 74 269 142 521 223 203 65 258 78 324 77 22 0 29 -1
15 -4z m115 -18 c79 -3 158 -82 191 -191 23 -77 17 -267 -12 -382 -13 -51 -28
-100 -33 -110 -5 -9 -25 -60 -45 -112 -31 -80 -121 -265 -100 -205 27 79 53
180 58 230 5 54 4 51 -13 -27 -34 -157 -91 -301 -143 -363 -18 -22 -41 -58
-51 -80 -16 -35 -214 -305 -224 -305 -5 0 25 47 65 100 64 85 101 177 106 265
4 54 16 108 36 163 17 46 35 118 41 160 7 54 17 84 31 99 12 13 23 22 24 20 1
-1 -2 -25 -7 -52 -5 -28 -14 -111 -19 -186 -5 -75 -11 -149 -15 -165 -4 -24
-4 -25 4 -8 5 12 15 75 21 140 27 278 51 347 145 431 l50 46 6 -50 c4 -28 11
-59 17 -69 8 -15 11 -4 11 48 0 43 6 78 17 100 12 24 18 66 22 154 4 113 3
125 -20 175 -23 50 -82 117 -137 155 -46 33 -28 7 24 -33 56 -44 100 -108 111
-161 l7 -32 -65 0 c-57 0 -67 3 -90 28 -41 44 -76 104 -89 153 -16 58 -7 83
23 73 13 -4 37 -8 53 -9z m-4540 -35 c127 -30 125 -27 91 -99 l-29 -59 -74 78
c-41 44 -83 82 -94 85 -24 8 -25 28 -1 22 9 -3 58 -15 107 -27z m3590 3 c-22
-49 -44 -120 -45 -138 0 -13 -19 -35 -47 -56 -46 -34 -345 -342 -430 -444 -23
-27 -45 -47 -48 -44 -11 11 129 272 209 392 169 252 150 231 241 255 44 11 81
19 83 17 2 -1 -32 -49 -75 -105 -113 -148 -121 -160 -74 -112 58 60 157 195
165 226 3 14 11 26 17 26 7 0 8 -7 4 -17z m-5237 -8 c1 -1 -3 -16 -9 -33 l-11
-32 -161 -2 -162 -2 160 -6 c117 -4 152 -7 130 -14 -41 -12 -151 -68 -233
-117 -37 -23 -70 -43 -74 -46 -4 -2 -5 39 -1 92 4 66 3 95 -5 95 -7 0 -9 -13
-5 -34 10 -62 -6 -143 -35 -178 l-27 -32 40 24 c22 13 58 36 80 51 38 25 239
129 250 129 3 0 -12 -17 -32 -38 -21 -20 -53 -66 -72 -102 -42 -79 -263 -414
-299 -452 -41 -44 -46 -33 -12 27 38 67 33 71 -11 10 -36 -50 -45 -54 -54 -25
-4 14 7 39 41 85 25 36 44 68 42 70 -2 3 -27 -26 -54 -63 -41 -56 -49 -63 -52
-44 -2 14 13 47 38 85 32 47 36 56 15 37 -14 -13 -36 -40 -48 -59 -32 -53 -31
-22 3 65 17 43 52 138 77 209 25 72 63 167 84 213 21 45 39 87 39 93 0 7 58 8
178 3 97 -4 178 -8 180 -9z m6097 -35 c3 -16 26 -59 50 -96 l43 -68 -25 -13
c-26 -13 -166 -127 -329 -266 -54 -47 -101 -84 -102 -82 -2 2 38 75 89 162 51
87 110 191 131 231 38 74 116 174 129 166 4 -2 10 -17 14 -34z m-4842 6 c118
-9 171 -17 177 -26 12 -20 -30 -101 -50 -96 -8 2 -67 12 -130 21 -126 18 -182
35 -231 68 -76 52 -53 55 234 33z m-303 -48 c117 -32 209 -81 301 -159 177
-151 296 -282 280 -307 -8 -13 -126 59 -271 167 -162 119 -318 226 -380 259
-36 20 -76 44 -89 54 l-25 19 55 -6 c29 -3 88 -15 129 -27z m4026 -37 c-91
-118 -210 -310 -273 -441 -107 -223 -116 -241 -119 -237 -8 7 91 674 101 685
1 1 47 9 101 18 55 8 126 21 159 28 33 7 63 11 68 9 4 -2 -13 -30 -37 -62z
m-876 32 c-1 -5 -17 -26 -36 -48 -20 -22 -31 -30 -25 -18 6 12 15 33 21 47 8
23 41 38 40 19z m-4153 -75 c-69 -169 -233 -456 -288 -503 l-23 -20 16 25 c39
58 197 318 212 348 30 58 9 34 -29 -34 -115 -211 -315 -473 -315 -415 0 5 43
74 97 153 97 145 206 318 233 373 15 30 99 124 112 125 4 0 -3 -24 -15 -52z
m1506 36 c-3 -9 0 -20 8 -25 10 -6 6 -9 -14 -9 -28 0 -29 6 -4 38 13 17 18 15
10 -4z m991 -75 c-13 -50 -48 -152 -78 -228 -61 -153 -118 -327 -170 -511 -34
-124 -130 -551 -161 -725 -9 -49 -20 -93 -23 -96 -4 -4 -77 26 -162 67 -85 41
-163 74 -172 74 -10 0 -18 3 -18 6 0 4 22 45 48 93 61 107 279 556 409 841
138 300 245 501 288 539 61 53 67 43 39 -60z m104 63 c10 -13 13 -39 9 -102
-9 -130 -143 -794 -146 -721 -1 13 8 117 20 233 11 115 19 217 17 226 -2 9
-10 -44 -17 -118 -7 -74 -19 -191 -26 -260 -10 -83 -11 -126 -4 -131 6 -3 7
-18 3 -35 -5 -16 -7 -35 -6 -42 7 -32 -75 -382 -127 -547 -25 -80 -26 -50 0
80 11 59 18 112 17 117 -2 6 -17 -57 -33 -140 l-29 -150 -87 -26 c-47 -14 -89
-26 -92 -26 -14 0 -6 19 32 82 65 107 101 186 94 204 -4 10 -2 15 4 11 5 -3
18 11 27 31 10 20 51 98 91 172 40 74 76 153 80 175 4 29 -8 8 -45 -75 -28
-63 -55 -119 -60 -125 -4 -5 -25 -41 -45 -80 -36 -70 -40 -56 -5 20 24 51 34
90 64 250 13 72 48 252 76 400 28 149 57 286 65 305 8 19 19 51 24 70 6 25 7
10 4 -55 -3 -49 -3 -88 0 -85 3 3 11 87 18 188 l13 183 25 -6 c14 -3 32 -14
39 -23z m3389 -35 c-212 -369 -240 -414 -289 -457 -91 -80 -350 -288 -488
-392 -74 -56 -169 -130 -211 -164 l-77 -63 -10 57 -11 57 5 -59 c4 -52 1 -63
-21 -92 -22 -28 -33 -34 -65 -34 -63 0 -390 75 -390 89 0 3 22 42 49 86 l49
80 178 90 c188 95 299 167 699 454 320 230 598 416 603 402 2 -6 -7 -30 -21
-54z m-1293 -52 c-7 -49 -23 -162 -34 -250 -12 -88 -32 -216 -46 -285 -22
-112 -32 -140 -99 -275 -42 -82 -82 -159 -91 -170 -14 -19 -19 -15 -128 95
-95 96 -113 119 -111 141 2 15 29 74 60 130 56 102 219 364 238 384 14 15 -13
-35 -43 -80 -15 -22 -68 -110 -117 -195 -49 -85 -100 -172 -112 -192 -37 -62
-18 -43 31 30 113 166 272 448 262 464 -4 6 -3 8 3 5 11 -7 120 162 159 248
15 31 30 53 34 48 5 -4 2 -48 -6 -98z m-3578 -32 c60 -43 145 -105 189 -139
44 -33 131 -95 193 -139 62 -43 110 -80 108 -83 -11 -11 -195 96 -331 192 -82
58 -324 255 -345 282 -22 27 57 -21 186 -113z m202 106 c53 -11 106 -23 117
-25 11 -2 35 -25 52 -51 18 -27 50 -73 71 -103 40 -57 63 -108 43 -96 -6 4
-13 -4 -17 -19 -3 -14 -9 -25 -13 -25 -3 0 -42 36 -86 81 -84 85 -246 228
-280 247 -18 10 -18 11 -2 12 10 0 62 -9 115 -21z m3342 1 c-6 -11 -15 -20
-20 -20 -5 0 -23 -26 -41 -57 -18 -32 -113 -188 -212 -348 -99 -159 -193 -318
-209 -352 -27 -60 -91 -266 -118 -381 -7 -30 -18 -56 -26 -59 -7 -2 -10 -11
-7 -19 7 -20 -1 -17 -22 6 -17 18 -17 20 -2 14 35 -13 14 13 -49 59 -36 27
-67 54 -70 61 -3 7 54 127 125 267 113 218 147 276 247 409 80 107 160 199
260 297 79 79 146 143 149 143 3 0 1 -9 -5 -20z m-2339 -182 c-55 -106 -140
-282 -191 -391 -139 -304 -353 -744 -400 -822 l-42 -70 7 55 c17 143 203 1320
210 1328 2 2 63 12 137 23 73 11 183 30 243 43 61 13 116 24 123 25 7 0 -32
-86 -87 -191z m2129 138 c0 -8 -4 -18 -10 -21 -5 -3 -10 3 -10 14 0 12 5 21
10 21 6 0 10 -6 10 -14z m-2855 -6 c28 -4 41 -8 29 -9 -15 -1 -20 -7 -18 -23
1 -13 3 -28 3 -35 1 -6 9 -14 19 -16 9 -3 4 -5 -13 -4 -24 2 -30 -2 -28 -18 1
-15 -11 -7 -44 30 -67 75 -71 85 -31 84 18 0 56 -4 83 -9z m213 -1 c-2 -6 -8
-10 -13 -10 -5 0 -11 4 -13 10 -2 6 4 11 13 11 9 0 15 -5 13 -11z m4461 -166
c6 -66 11 -126 11 -131 0 -6 -24 -18 -52 -28 -73 -23 -279 -109 -363 -152 -64
-31 -347 -203 -369 -223 -28 -26 21 -3 98 45 47 30 84 51 81 45 -10 -16 5 -10
28 11 45 42 207 130 360 195 87 36 163 65 169 63 7 -3 -10 -19 -38 -38 -27
-18 -80 -68 -119 -109 -93 -101 -292 -292 -385 -371 -41 -35 -104 -90 -139
-122 -35 -32 -68 -58 -72 -58 -10 0 -39 -23 -108 -86 -88 -79 -324 -234 -356
-234 -33 0 -22 21 22 44 26 13 106 63 177 110 71 47 132 86 136 86 4 0 10 23
13 51 4 28 18 75 32 106 27 61 31 76 12 53 -7 -8 -17 -16 -24 -17 -6 -1 -73
-40 -150 -86 -76 -46 -147 -86 -158 -89 -28 -7 -168 -99 -161 -105 3 -4 33 13
66 36 33 24 87 53 119 66 32 13 107 56 167 94 59 39 109 69 111 68 8 -8 -31
-144 -46 -159 -30 -31 -332 -228 -350 -228 -10 0 -28 11 -41 25 l-24 25 50 46
49 46 -45 -33 c-25 -19 -48 -38 -51 -43 -4 -4 -13 -5 -20 -1 -8 5 -5 -2 6 -16
26 -32 78 -79 88 -79 4 0 7 -4 7 -8 0 -11 -80 -36 -217 -66 -163 -37 -202 -40
-243 -24 l-35 15 75 38 c41 20 121 64 177 96 56 33 109 59 119 59 12 0 15 6
10 25 -5 21 1 29 51 64 87 61 108 79 100 87 -4 4 -21 -6 -38 -22 -21 -19 -33
-25 -36 -16 -7 18 -23 4 -23 -19 0 -14 -12 -25 -36 -35 -20 -8 -38 -13 -40
-11 -8 8 17 62 39 86 26 27 167 141 282 226 44 33 132 103 195 155 63 53 135
111 160 130 25 18 83 66 130 105 47 39 110 89 140 111 30 23 127 102 215 177
165 142 215 175 226 154 4 -7 12 -67 18 -134z m-4489 115 c0 -58 -35 -311 -65
-478 -42 -226 -93 -585 -120 -842 -6 -50 -9 -58 -27 -58 -24 0 -25 -4 38 430
25 168 56 384 69 480 28 194 74 470 81 482 10 16 24 7 24 -14z m100 -10 c-1
-18 -7 -69 -15 -113 -8 -44 -42 -253 -75 -465 -32 -212 -71 -457 -85 -545 -13
-88 -25 -177 -25 -197 0 -31 -4 -38 -19 -38 -11 0 -27 -3 -37 -7 -16 -6 -16 1
-10 83 12 144 54 452 97 704 23 129 50 305 61 390 11 85 22 170 24 188 5 30 7
32 44 32 38 0 40 -1 40 -32z m611 -49 c-11 -41 -26 -92 -34 -114 -14 -38 -61
-273 -113 -570 -28 -157 -52 -259 -89 -366 -13 -41 -22 -83 -19 -94 3 -13 2
-16 -3 -8 -6 8 -21 -14 -45 -67 -20 -44 -35 -80 -32 -80 2 0 17 26 33 58 17
31 30 53 31 49 1 -21 -62 -127 -72 -121 -6 4 -8 3 -5 -3 4 -6 -7 -35 -24 -64
l-30 -54 6 50 c10 76 110 541 151 700 47 185 183 585 214 630 3 6 15 38 25 73
25 86 30 72 6 -19z m3915 55 c6 -23 1 -84 -13 -162 -4 -24 -17 -41 -49 -63
-24 -16 -44 -29 -44 -27 0 2 -7 59 -15 128 -8 69 -15 131 -15 138 0 8 20 12
65 12 61 0 65 -1 71 -26z m-2442 -67 c-10 -19 -34 -37 -71 -53 -30 -14 -60
-23 -65 -22 -17 6 43 72 89 98 54 29 70 22 47 -23z m-2316 -36 c4 -40 -11 -34
-27 10 -9 26 -8 30 6 27 11 -2 18 -15 21 -37z m-2328 17 c0 -50 -78 -234 -110
-263 -16 -15 -23 -14 -79 9 -33 14 -67 26 -76 26 -19 0 -19 10 0 36 8 12 11
25 7 29 -4 5 -2 5 4 2 6 -3 21 7 32 23 20 27 195 150 214 150 4 0 8 -6 8 -12z
m4534 -103 c-33 -30 -62 -55 -66 -55 -5 0 -8 20 -8 45 0 50 23 72 44 43 10
-14 14 -14 35 3 13 11 30 19 38 19 9 0 -11 -25 -43 -55z m-909 -25 c279 -35
591 -63 617 -57 10 3 18 2 18 -3 0 -10 -93 -131 -138 -180 -18 -19 -43 -50
-55 -67 -26 -39 -26 -39 -108 -14 -35 11 -154 43 -264 71 -110 28 -222 57
-250 65 -27 8 -68 19 -91 24 l-41 11 9 62 c14 108 18 118 41 118 12 0 130 -14
262 -30z m841 -125 c-15 -14 -25 -29 -22 -34 3 -5 -25 -21 -62 -37 -37 -15
-116 -49 -176 -75 -61 -27 -111 -47 -113 -45 -2 1 12 23 31 47 26 35 45 48 87
62 30 9 104 37 164 62 61 24 112 45 114 45 2 0 -8 -11 -23 -25z m-4653 -27
l48 -21 -25 -21 c-13 -12 -42 -43 -62 -71 -84 -114 -358 -402 -424 -447 -25
-17 -70 -54 -100 -82 -94 -86 -193 -168 -217 -179 -35 -16 -40 0 -7 25 84 65
180 157 292 278 69 74 169 182 223 240 101 108 199 227 199 240 0 4 -9 10 -20
13 -20 5 -27 36 -13 51 9 9 44 0 106 -26z m4883 -48 c39 -41 74 -84 78 -95 4
-11 4 -17 1 -13 -4 3 -58 -96 -121 -220 -63 -125 -120 -227 -127 -227 -22 0
-11 216 18 362 30 146 65 275 75 271 3 -2 38 -37 76 -78z m-4565 -33 c37 -41
93 -91 123 -112 31 -21 53 -42 49 -48 -3 -6 -1 -7 5 -3 6 4 36 -6 67 -22 53
-26 55 -29 38 -44 -48 -42 -93 -58 -168 -58 -41 0 -75 3 -75 6 0 3 7 13 16 21
15 15 21 15 70 -2 30 -10 57 -15 61 -12 3 4 -3 7 -15 7 -31 0 -27 10 20 48 22
17 35 32 29 32 -5 0 -26 -13 -44 -30 -36 -31 -61 -37 -87 -20 -12 8 -8 16 23
48 41 42 43 47 23 55 -9 4 -13 1 -10 -6 2 -7 -13 -29 -34 -50 -37 -36 -38 -36
-54 -18 -15 17 -15 21 -2 32 8 7 20 22 26 33 8 17 4 15 -19 -7 -43 -40 -51
-11 -10 39 l31 39 -33 -30 c-27 -25 -34 -27 -42 -15 -5 8 -7 25 -4 38 4 14 1
21 -7 20 -7 -2 -17 11 -22 29 -6 18 -15 34 -22 37 -15 6 -13 -25 4 -42 17 -19
15 -39 -5 -46 -11 -5 -22 -1 -30 10 -17 23 -17 44 0 44 8 0 7 3 -3 10 -8 5
-11 12 -8 15 4 4 2 19 -3 33 -7 18 -6 28 3 34 26 16 41 7 109 -65z m-473 51
c7 -7 12 -20 12 -29 0 -17 -55 -65 -100 -86 -25 -12 -25 -12 5 -6 l30 6 -24
-27 c-14 -14 -30 -26 -38 -26 -7 0 -13 -4 -13 -8 0 -13 -47 -32 -77 -32 -15 0
-50 -18 -82 -42 -72 -54 -81 -63 -56 -54 11 4 24 8 29 9 5 1 22 16 38 33 28
31 76 50 91 35 4 -4 -15 -28 -42 -53 -47 -44 -50 -45 -95 -38 -47 7 -200 -2
-360 -20 -49 -6 -91 -9 -93 -6 -3 2 22 7 54 11 32 4 86 13 121 21 35 8 78 14
95 14 40 0 92 24 183 83 38 25 86 47 105 50 l34 4 -37 1 c-22 1 -53 -7 -73
-18 -40 -23 -45 -24 -45 -11 0 5 13 13 28 19 16 5 35 17 44 25 24 24 229 157
242 157 7 0 17 -5 24 -12z m368 -166 c105 -306 129 -363 223 -545 85 -163 103
-208 76 -189 -32 22 -185 249 -332 492 -92 152 -146 338 -114 388 7 12 32 21
81 31 3 1 32 -79 66 -177z m3288 152 c3 -8 2 -12 -4 -9 -6 3 -10 10 -10 16 0
14 7 11 14 -7z m120 -5 c71 -14 142 -56 197 -118 27 -30 49 -51 49 -45 0 16
-36 64 -71 94 l-34 29 50 -14 c28 -8 51 -15 53 -15 2 0 1 -4 -2 -9 -3 -5 7
-11 22 -14 15 -3 60 -30 101 -59 101 -73 123 -86 79 -48 -21 17 -35 37 -31 43
3 5 1 7 -5 3 -6 -3 -14 -2 -17 4 -4 6 -37 26 -73 45 -37 19 -61 34 -53 35 14
0 160 -38 274 -72 l68 -20 -21 -23 -21 -22 -66 24 c-36 13 -67 22 -70 20 -2
-3 24 -15 57 -27 56 -21 85 -40 61 -40 -6 0 -11 -7 -11 -16 0 -12 -7 -14 -32
-9 -26 5 -29 4 -15 -5 24 -15 22 -23 -12 -43 -24 -14 -35 -15 -58 -6 -15 6
-48 12 -73 14 -45 4 -45 4 -10 -6 19 -6 49 -15 65 -21 17 -5 38 -10 48 -10 14
1 15 -2 5 -12 -23 -22 -70 -50 -92 -53 -47 -8 -396 81 -496 125 -43 20 -44 21
-15 21 26 1 89 -11 185 -34 l25 -6 -25 15 -25 16 35 -6 c19 -3 -3 9 -50 26
-47 17 -101 38 -120 46 l-35 14 40 -7 c22 -3 51 -11 65 -18 31 -16 151 -47
158 -41 2 3 -16 10 -39 16 -24 6 -87 26 -139 45 -118 43 -74 37 155 -20 163
-41 282 -65 225 -46 -14 5 -109 30 -212 57 -119 31 -182 51 -170 56 9 4 11 7
4 7 -7 1 -10 6 -7 12 7 11 50 5 95 -14 14 -5 81 -25 150 -42 69 -18 134 -36
145 -40 11 -3 7 1 -10 11 -16 9 -55 23 -85 31 -30 8 -79 21 -107 29 l-53 15
-1 52 c-1 29 -3 44 -6 35 -6 -22 -6 -22 -81 3 -34 11 -62 27 -62 34 0 7 -6 16
-12 18 -15 7 36 0 106 -14z m-3575 -24 c-23 -82 53 -278 190 -489 43 -67 98
-152 122 -190 24 -39 63 -95 86 -125 46 -58 51 -71 29 -71 -8 0 -67 71 -132
158 -126 167 -223 275 -317 354 -94 78 -125 71 -357 -82 l-125 -82 100 103
c142 147 322 349 352 395 22 33 50 64 59 64 1 0 -2 -16 -7 -35z m4563 -4 c-30
-26 -373 -221 -416 -237 -36 -14 48 89 104 127 54 36 330 152 340 142 3 -3
-10 -17 -28 -32z m-942 -69 c0 -19 -4 -23 -17 -17 -10 4 -53 18 -95 32 -44 13
-78 29 -78 37 0 9 22 8 95 -8 89 -18 95 -21 95 -44z m-3379 -49 c7 -16 16 -38
22 -51 12 -25 0 -73 -19 -79 -6 -2 -18 15 -27 37 -15 39 -15 41 6 56 18 14 19
15 3 10 -12 -4 -23 0 -32 11 -21 28 -16 35 29 42 4 0 12 -11 18 -26z m6653 -6
c21 -34 -179 -398 -303 -552 -114 -142 -417 -438 -491 -480 -13 -8 -13 -7 0
10 10 13 11 16 2 11 -7 -4 -18 -18 -23 -30 -11 -25 -3 164 9 205 4 14 45 60
92 102 114 102 531 536 598 622 30 37 61 83 70 101 18 36 29 38 46 11z m-128
-84 c-95 -112 -528 -540 -622 -615 -49 -40 -84 -60 -118 -68 -27 -6 -51 -9
-53 -7 -2 3 33 31 79 63 232 161 503 405 711 637 38 43 71 77 74 77 2 0 -29
-39 -71 -87z m-7335 43 c-31 -33 -77 -50 -216 -80 -208 -44 -542 -93 -581 -84
-25 6 47 20 291 58 221 35 418 81 474 110 49 26 59 25 32 -4z m4979 -6 c-8 -5
-22 -9 -30 -9 -10 0 -8 3 5 9 27 12 43 12 25 0z m73 3 c-7 -2 -19 -2 -25 0 -7
3 -2 5 12 5 14 0 19 -2 13 -5z m-58 -23 c-27 -12 -43 -12 -25 0 8 5 22 9 30 9
10 0 8 -3 -5 -9z m-875 -27 c16 -9 18 -12 5 -8 -11 3 -41 11 -67 16 -27 6 -48
13 -48 15 0 9 86 -9 110 -23z m810 17 c-8 -5 -24 -10 -35 -10 -17 0 -17 2 -5
10 8 5 24 10 35 10 17 0 17 -2 5 -10z m130 1 c0 -9 -118 -37 -126 -29 -3 3 21
12 53 20 75 20 73 19 73 9z m-4187 -65 c-2 -34 -1 -36 30 -36 l32 0 -30 -18
c-24 -15 -31 -16 -33 -5 -3 10 -7 11 -17 3 -19 -15 -28 29 -14 69 15 42 35 34
32 -13z m330 17 l32 -17 -25 -6 c-23 -6 -21 -8 20 -19 25 -7 95 -28 155 -48
183 -59 416 -123 448 -123 16 0 58 5 93 12 68 12 123 0 108 -23 -9 -16 -214
-6 -352 16 -57 9 -216 48 -353 86 -138 38 -258 69 -267 69 -19 0 75 67 96 69
7 1 27 -7 45 -16z m3662 8 c-6 -5 -26 -12 -45 -15 l-35 -6 30 14 c34 16 64 21
50 7z m52 3 c-3 -3 -12 -4 -19 -1 -8 3 -5 6 6 6 11 1 17 -2 13 -5z m-856 -42
c46 -16 135 -42 196 -57 80 -21 108 -32 97 -38 -19 -11 -394 -1 -405 10 -5 5
-5 13 -1 19 5 7 34 7 97 -1 50 -7 115 -15 145 -18 l55 -6 -60 15 c-33 8 -97
20 -143 27 -90 13 -113 33 -34 30 l47 -2 -44 12 c-25 7 -46 18 -49 25 -5 17 4
16 99 -16z m926 22 c-3 -3 -12 -4 -19 -1 -8 3 -5 6 6 6 11 1 17 -2 13 -5z
m-67 -14 c-19 -4 -54 -12 -78 -18 -23 -5 -44 -6 -47 -1 -3 4 11 11 32 14 21 4
45 8 53 10 8 1 29 3 45 3 29 0 29 -1 -5 -8z m-5812 -31 c74 -32 47 -49 -73
-48 -119 2 -165 22 -113 50 57 31 111 30 186 -2z m2389 25 c-3 -3 -12 -4 -19
-1 -8 3 -5 6 6 6 11 1 17 -2 13 -5z m-1423 -14 c18 0 18 -2 -3 -24 l-23 -25
-22 20 -21 20 -3 -25 c-4 -32 -37 -42 -90 -30 -49 12 -546 9 -647 -4 -46 -5
-84 -6 -89 -1 -6 5 0 9 15 9 13 0 78 7 144 15 66 7 224 19 350 25 127 7 246
16 265 21 19 4 51 6 70 4 19 -3 44 -5 54 -5z m4701 -9 c-6 -4 -23 -11 -40 -15
l-30 -6 25 15 c27 16 60 21 45 6z m-3585 -45 c428 -118 671 -165 798 -153 45
4 62 2 66 -8 2 -7 2 -16 -1 -19 -26 -26 -318 24 -727 123 -115 28 -240 56
-278 62 -62 10 -72 9 -114 -11 -67 -33 -75 -9 -11 31 42 25 108 19 267 -25z
m3669 30 c-8 -9 -211 -58 -216 -52 -3 3 5 8 18 11 13 3 58 14 99 24 75 19 107
25 99 17z m841 -141 l135 -140 43 -109 c23 -60 41 -110 39 -111 -1 -1 -32 -16
-68 -34 -77 -39 -47 -50 -256 97 -143 101 -143 100 -122 177 29 109 81 266 87
263 4 -2 68 -66 142 -143z m-5245 125 c7 -11 -43 -99 -79 -139 l-21 -24 23 12
c20 11 70 77 86 115 3 6 39 -25 80 -69 41 -44 73 -81 71 -83 -2 -2 -20 1 -42
7 -21 6 -76 11 -124 11 -71 0 -102 -6 -185 -34 -54 -19 -130 -48 -168 -65 -84
-39 -248 -134 -265 -155 -8 -9 -20 -16 -29 -16 -23 0 15 37 148 144 99 79 251
181 420 279 48 28 75 34 85 17z m124 -86 c45 -42 114 -115 155 -163 96 -114
229 -291 223 -297 -3 -3 -31 25 -63 62 -33 37 -95 108 -139 157 -44 49 -95
108 -114 131 -19 22 -63 71 -98 108 -35 36 -63 69 -63 72 0 16 24 -1 99 -70z
m-1549 51 c41 0 87 3 103 8 39 11 34 -7 -10 -35 -70 -43 -243 -25 -243 24 0
18 4 19 38 12 20 -5 71 -9 112 -9z m8378 -101 c-9 -79 -55 -180 -127 -278 -27
-38 -47 -74 -44 -79 3 -6 1 -7 -5 -3 -12 7 -44 -33 -36 -46 3 -5 2 -8 -3 -7
-4 1 -42 -30 -83 -69 -41 -40 -93 -84 -115 -99 -22 -15 -96 -71 -165 -123
-177 -136 -198 -148 -167 -94 23 39 52 69 140 143 48 40 87 77 87 82 0 5 46
57 103 116 190 199 277 306 381 466 21 31 39 57 40 57 1 0 -1 -30 -6 -66z
m-2062 -191 c54 -53 118 -123 142 -156 24 -32 62 -79 85 -104 38 -41 39 -45
17 -39 -50 15 -188 117 -228 169 -68 89 -122 179 -122 204 0 12 2 23 3 23 2 0
48 -44 103 -97z m634 62 c58 -14 140 -30 183 -37 l78 -12 -3 -30 c-3 -28 -8
-32 -63 -49 -33 -10 -96 -31 -140 -47 -44 -16 -86 -30 -92 -32 -8 -2 -31 40
-58 107 -25 61 -49 116 -52 124 -5 11 -1 13 18 7 13 -4 71 -18 129 -31z m-360
-192 c82 -58 150 -110 150 -115 0 -17 4 -19 -195 111 -71 46 -132 85 -134 87
-6 5 10 24 19 24 6 0 77 -48 160 -107z m-18 -38 c79 -53 144 -100 146 -105 2
-5 -8 -12 -22 -16 -14 -3 -26 -10 -26 -14 0 -5 -14 -7 -32 -5 -21 3 -48 20
-81 52 -55 54 -152 183 -138 183 5 0 74 -43 153 -95z m607 70 c-16 -15 -305
-175 -317 -175 -4 0 -25 9 -46 19 l-38 20 39 19 c93 47 361 145 372 135 3 -2
-2 -10 -10 -18z m-6471 -52 c27 -13 30 -18 20 -30 -23 -28 -68 -43 -125 -42
-146 1 -180 62 -50 89 51 10 110 3 155 -17z m46 -67 c-10 -43 -44 -58 -132
-59 -91 -1 -172 28 -172 61 0 19 1 19 42 -1 64 -32 160 -30 218 5 25 14 46 25
48 23 2 -1 0 -15 -4 -29z m1358 -16 c21 -6 44 -21 53 -33 27 -39 -3 -50 -123
-45 -56 3 -105 8 -108 11 -9 9 15 37 51 59 34 20 73 23 127 8z m4702 -43 c21
-12 39 -26 40 -32 1 -13 -93 -19 -122 -8 l-23 9 21 27 c26 33 34 33 84 4z
m-2551 -83 c84 -42 153 -77 155 -79 6 -6 -88 -429 -98 -439 -7 -7 -69 20 -213
93 -111 57 -204 105 -205 107 -2 1 10 69 26 151 17 81 34 169 37 195 7 43 10
47 39 51 64 9 111 -5 259 -79z m3252 64 c-23 -14 -56 -18 -70 -10 -11 7 29 20
65 21 24 0 24 0 5 -11z m-3565 -25 c0 -58 -63 -333 -76 -333 -26 0 -26 49 0
199 14 83 26 153 26 156 0 3 11 5 25 5 21 0 25 -5 25 -27z m3645 -100 c-3 -71
-9 -135 -11 -144 -6 -22 -17 -27 -299 -130 -137 -50 -299 -111 -360 -135 -60
-24 -117 -44 -127 -44 -53 0 -383 -127 -468 -180 -25 -15 -85 -51 -135 -79
-125 -72 -121 -69 -205 -137 -79 -64 -118 -89 -127 -80 -8 8 62 67 262 220 39
29 99 80 135 113 150 136 425 329 615 430 72 39 150 82 175 96 62 36 160 78
160 69 -1 -4 -43 -31 -95 -61 -52 -30 -93 -56 -92 -58 2 -2 42 18 88 43 94 52
336 152 302 126 -12 -9 -57 -39 -100 -66 -43 -27 -116 -75 -163 -106 -183
-122 -399 -251 -521 -311 -42 -21 -80 -43 -84 -49 -23 -37 579 315 915 534 63
42 121 76 129 76 11 0 12 -24 6 -127z m-5525 93 c41 0 87 4 103 9 17 5 27 4
27 -4 0 -22 -52 -44 -119 -49 -54 -3 -77 0 -114 16 -57 25 -62 44 -9 34 20 -4
71 -7 112 -6z m2545 -143 c-38 -122 -51 -157 -61 -160 -8 -2 -94 171 -94 188
0 4 28 12 63 19 35 6 70 16 78 21 34 22 37 8 14 -68z m-77 -230 c-22 -81 -49
-131 -74 -136 -13 -2 -24 0 -24 5 0 13 44 97 74 141 15 22 21 37 15 35 -7 -2
-35 -44 -63 -92 -32 -55 -63 -95 -83 -108 -18 -11 -33 -15 -33 -10 0 9 71 341
86 402 6 21 15 8 60 -87 49 -104 52 -115 42 -150z m3072 76 c-5 -18 -11 -33
-12 -34 -14 -13 -111 -65 -115 -61 -6 6 113 126 125 126 7 0 8 -11 2 -31z
m-932 12 c16 -10 -125 -104 -190 -127 -23 -8 -55 -25 -72 -38 -78 -59 -475
-231 -493 -213 -3 3 37 27 88 53 52 25 148 81 214 124 172 111 223 138 333
176 111 38 103 36 120 25z m-3739 -37 c81 -32 325 -66 481 -67 109 -1 121 2
235 40 123 42 168 46 126 12 -13 -10 -66 -33 -119 -51 -138 -45 -251 -45 -502
1 -102 18 -200 39 -219 47 -18 8 -57 14 -86 14 -30 0 -62 3 -72 7 -15 6 -13 9
12 14 55 12 81 9 144 -17z m4579 -1 c-13 -16 -35 -42 -47 -60 -23 -35 -41 -41
-391 -148 -102 -31 -211 -65 -242 -76 -77 -26 -87 -24 -54 10 18 18 70 45 144
75 220 86 587 224 601 225 10 1 6 -8 -11 -26z m-4613 -34 c5 -5 22 -9 38 -9
15 0 79 -12 140 -26 62 -15 137 -32 167 -39 105 -25 1 -16 -175 14 -93 17
-199 33 -235 36 -76 7 -104 19 -80 35 17 11 130 3 145 -11z m868 -46 c-43 -24
-116 -55 -163 -69 -47 -14 -130 -41 -185 -59 -125 -42 -233 -69 -355 -90 -153
-26 -458 -85 -545 -106 -173 -41 -376 -12 -258 37 43 19 96 13 152 -16 l38
-19 229 49 c268 56 404 91 482 124 82 34 203 71 401 122 96 25 186 53 200 63
36 25 54 30 69 18 10 -8 -6 -21 -65 -54z m82 -54 c-9 -40 -23 -81 -32 -91 -16
-18 -135 -78 -183 -93 -140 -43 -489 -209 -600 -285 -58 -40 -216 -116 -232
-113 -23 6 -23 19 -1 27 9 4 103 60 208 125 104 64 228 140 275 168 117 70
241 145 399 242 124 76 172 102 179 96 1 -1 -5 -35 -13 -76z m224 -6 c91 -49
175 -92 185 -96 26 -10 12 -21 -54 -41 -69 -22 -170 -81 -233 -136 -28 -25
-52 -39 -57 -34 -12 14 -48 137 -56 193 -7 56 20 201 38 201 6 0 86 -39 177
-87z m2362 -13 c-34 -22 -72 -50 -84 -61 -29 -29 -111 -64 -199 -88 -106 -28
-358 -113 -466 -156 -51 -21 -95 -35 -97 -33 -7 7 164 74 325 128 239 79 432
161 461 196 15 19 85 53 108 54 8 0 -14 -18 -48 -40z m-2811 -15 c0 -20 -246
-107 -351 -124 -95 -16 -114 -12 -39 8 56 16 263 82 340 110 29 10 50 13 50 6z
m811 -65 c-33 -55 -152 -180 -194 -204 -30 -18 -74 -29 -156 -41 -63 -8 -116
-14 -118 -11 -2 2 31 23 74 46 43 24 126 76 185 116 91 63 194 120 220 123 4
1 -1 -13 -11 -29z m-587 -42 c4 -24 16 -71 27 -106 12 -35 19 -65 16 -68 -2
-2 -76 -16 -163 -29 -301 -47 -568 -115 -728 -186 -49 -21 -91 -37 -92 -36 -5
4 183 97 195 97 6 0 10 5 9 11 -4 16 259 155 377 200 55 20 117 45 137 53 43
19 51 20 43 6 -6 -10 32 12 113 66 26 18 50 32 53 33 4 1 9 -18 13 -41z m2908
-5 c-26 -33 -49 -45 -174 -92 -159 -60 -277 -115 -478 -221 -144 -77 -147 -78
-55 -8 109 82 251 167 405 243 79 39 320 126 329 119 2 -2 -10 -20 -27 -41z
m-2507 -12 c-52 -46 -325 -209 -325 -193 0 13 92 91 150 127 73 46 208 97 175
66z m-1147 -31 c-15 -4 -116 -24 -225 -44 -368 -68 -404 -76 -432 -97 -58 -42
-211 -33 -251 16 -17 20 -3 40 17 24 9 -9 50 -12 121 -11 85 1 172 13 422 61
173 33 329 59 345 59 l30 0 -27 -8z m189 -11 c-9 -6 -42 -19 -73 -29 l-55 -19
3 22 c3 23 34 33 108 35 29 1 32 -1 17 -9z m2867 -21 c-42 -50 -69 -62 -51
-23 10 20 37 39 66 44 2 1 -4 -9 -15 -21z m-633 -109 c38 -12 57 -33 38 -44
-20 -13 -154 -17 -183 -6 -24 10 -26 13 -15 27 28 34 92 43 160 23z m-1621
-23 c0 -9 -25 -17 -77 -25 -126 -20 -480 -98 -583 -129 -52 -16 -153 -50 -224
-76 -147 -53 -194 -57 -96 -7 169 87 436 166 725 215 231 39 255 41 255 22z
m1586 -44 l125 3 -25 -22 c-47 -40 -205 -40 -261 1 -25 18 -11 40 16 25 13 -6
69 -9 145 -7z m339 -196 l28 -19 -24 -12 c-61 -31 -223 -29 -217 4 2 9 19 24
38 34 44 23 135 19 175 -7z m-3028 -32 c39 -23 43 -28 29 -36 -43 -24 -286
-21 -286 3 0 17 52 59 84 67 45 12 121 -3 173 -34z m3083 -16 c-1 -62 -175
-94 -250 -45 l-35 22 117 5 c74 3 122 10 130 18 6 6 18 12 25 12 7 0 13 -6 13
-12z m-3030 -36 c0 -43 -157 -84 -235 -62 -42 12 -84 44 -73 56 4 3 23 1 45
-5 50 -14 147 -13 203 3 59 17 60 17 60 8z"/>
<path d="M1335 7610 c-3 -6 1 -7 9 -4 18 7 21 14 7 14 -6 0 -13 -4 -16 -10z"/>
<path d="M3498 7663 c7 -3 16 -2 19 1 4 3 -2 6 -13 5 -11 0 -14 -3 -6 -6z"/>
<path d="M3430 7648 c25 -5 119 -32 210 -60 91 -28 215 -63 275 -78 61 -15
152 -40 204 -54 51 -15 95 -25 97 -23 5 5 -214 70 -361 108 -110 28 -222 62
-260 79 -23 10 -179 41 -198 39 -6 -1 8 -6 33 -11z"/>
<path d="M3538 7653 c7 -3 16 -2 19 1 4 3 -2 6 -13 5 -11 0 -14 -3 -6 -6z"/>
<path d="M3580 7641 c8 -5 38 -11 65 -14 l50 -6 -50 14 c-58 17 -89 20 -65 6z"/>
<path d="M3820 7584 c69 -19 186 -53 260 -75 185 -56 202 -58 40 -4 -142 48
-384 115 -410 114 -8 0 41 -16 110 -35z"/>
<path d="M3560 7590 c8 -5 22 -9 30 -9 10 0 8 3 -5 9 -27 12 -43 12 -25 0z"/>
<path d="M4245 7421 c56 -26 127 -52 131 -48 4 4 -90 43 -126 51 -21 5 -22 5
-5 -3z"/>
<path d="M4540 7376 c0 -6 231 -68 236 -64 3 4 -213 68 -229 68 -4 0 -7 -2 -7
-4z"/>
<path d="M4430 7350 c8 -5 22 -9 30 -9 10 0 8 3 -5 9 -27 12 -43 12 -25 0z"/>
<path d="M4791 7306 c9 -9 161 -47 172 -43 6 2 -28 13 -75 25 -88 22 -105 25
-97 18z"/>
<path d="M4981 7256 c8 -7 482 -127 704 -177 242 -55 482 -101 505 -96 8 1
-19 8 -60 16 -198 34 -633 132 -918 206 -200 52 -241 61 -231 51z"/>
<path d="M5808 7133 c7 -3 16 -2 19 1 4 3 -2 6 -13 5 -11 0 -14 -3 -6 -6z"/>
<path d="M5450 7087 c0 -7 190 -50 196 -45 3 4 -24 11 -173 45 -13 3 -23 3
-23 0z"/>
<path d="M5668 7033 c6 -2 18 -2 25 0 6 3 1 5 -13 5 -14 0 -19 -2 -12 -5z"/>
<path d="M5718 7023 c7 -3 16 -2 19 1 4 3 -2 6 -13 5 -11 0 -14 -3 -6 -6z"/>
<path d="M5783 7013 c9 -2 23 -2 30 0 6 3 -1 5 -18 5 -16 0 -22 -2 -12 -5z"/>
<path d="M1456 7488 c-43 -22 -55 -44 -35 -64 22 -21 59 -20 112 4 44 20 67
45 53 59 -3 3 -26 9 -50 13 -33 5 -53 2 -80 -12z"/>
<path d="M3399 7141 c-44 -24 -106 -92 -125 -137 -8 -18 -14 -63 -14 -99 0
-77 20 -124 83 -192 83 -90 172 -108 248 -50 64 48 94 114 93 201 -2 119 -42
222 -106 269 -40 30 -132 33 -179 8z"/>
<path d="M3045 6230 c41 -26 620 -178 632 -166 3 2 -4 7 -14 10 -42 13 -423
110 -483 123 -36 7 -83 23 -106 33 -52 25 -68 25 -29 0z"/>
<path d="M4188 5683 c6 -2 18 -2 25 0 6 3 1 5 -13 5 -14 0 -19 -2 -12 -5z"/>
<path d="M4240 5606 c0 -3 9 -10 20 -16 11 -6 20 -8 20 -6 0 3 -9 10 -20 16
-11 6 -20 8 -20 6z"/>
<path d="M4555 5570 c10 -11 20 -20 23 -20 3 0 -3 9 -13 20 -10 11 -20 20 -23
20 -3 0 3 -9 13 -20z"/>
<path d="M4310 5566 c0 -3 14 -12 30 -21 17 -9 30 -13 30 -11 0 3 -13 12 -30
21 -16 9 -30 13 -30 11z"/>
<path d="M4640 5490 c18 -16 35 -30 38 -30 3 0 -7 14 -23 30 -16 17 -33 30
-38 30 -5 0 5 -13 23 -30z"/>
<path d="M2918 5643 c7 -3 16 -2 19 1 4 3 -2 6 -13 5 -11 0 -14 -3 -6 -6z"/>
<path d="M4100 5549 c-7 -11 -10 -23 -7 -25 2 -2 9 7 15 21 14 30 7 33 -8 4z"/>
<path d="M4073 5370 c0 -25 2 -35 4 -22 2 12 2 32 0 45 -2 12 -4 2 -4 -23z"/>
<path d="M4081 5284 c0 -11 3 -14 6 -6 3 7 2 16 -1 19 -3 4 -6 -2 -5 -13z"/>
<path d="M4201 5164 c13 -14 33 -30 44 -36 11 -5 3 7 -19 26 -44 42 -61 48
-25 10z"/>
<path d="M3882 5355 c0 -16 5 -48 13 -70 17 -52 17 -35 0 40 -8 37 -13 49 -13
30z"/>
<path d="M3916 5220 c8 -30 62 -140 69 -140 3 0 -7 26 -23 58 -15 31 -34 68
-40 82 l-12 25 6 -25z"/>
<path d="M4020 5035 c19 -19 36 -35 39 -35 3 0 -10 16 -29 35 -19 19 -36 35
-39 35 -3 0 10 -16 29 -35z"/>
<path d="M4070 4995 c0 -7 80 -58 84 -54 2 2 -16 16 -40 31 -24 15 -44 25 -44
23z"/>
<path d="M2840 5087 c0 -2 30 -27 68 -57 37 -29 56 -41 42 -26 -23 26 -110 92
-110 83z"/>
<path d="M8495 4968 c-182 -108 -588 -369 -582 -374 6 -6 191 46 267 75 115
44 305 137 321 158 8 9 -24 -4 -71 -29 -116 -63 -311 -143 -390 -161 l-65 -15
27 21 c15 12 130 84 255 161 243 148 330 204 339 217 7 12 10 14 -101 -53z"/>
<path d="M8074 4908 l-29 -33 33 29 c17 17 32 31 32 33 0 8 -8 1 -36 -29z"/>
<path d="M7957 4906 c-48 -29 -61 -43 -22 -23 31 16 74 46 65 46 -3 0 -22 -10
-43 -23z"/>
<path d="M7830 4837 c-77 -45 -110 -68 -110 -78 0 -4 26 9 58 30 31 21 73 48
92 60 19 11 31 20 25 20 -5 0 -35 -15 -65 -32z"/>
<path d="M7438 4473 c6 -2 18 -2 25 0 6 3 1 5 -13 5 -14 0 -19 -2 -12 -5z"/>
<path d="M7341 4454 c0 -11 3 -14 6 -6 3 7 2 16 -1 19 -3 4 -6 -2 -5 -13z"/>
<path d="M7189 4233 c-13 -16 -12 -17 4 -4 16 13 21 21 13 21 -2 0 -10 -8 -17
-17z"/>
<path d="M7332 4088 c-46 -68 -82 -129 -69 -118 11 10 127 190 122 190 -2 0
-26 -33 -53 -72z"/>
<path d="M8561 4764 c0 -11 3 -14 6 -6 3 7 2 16 -1 19 -3 4 -6 -2 -5 -13z"/>
<path d="M7100 4499 c0 -5 5 -7 10 -4 6 3 10 8 10 11 0 2 -4 4 -10 4 -5 0 -10
-5 -10 -11z"/>
<path d="M9128 4683 c7 -3 16 -2 19 1 4 3 -2 6 -13 5 -11 0 -14 -3 -6 -6z"/>
<path d="M8998 4627 c-43 -24 -81 -47 -85 -51 -10 -10 104 46 149 74 61 37 14
20 -64 -23z"/>
<path d="M9003 4577 c-301 -182 -696 -451 -923 -627 -69 -53 -151 -116 -182
-139 -32 -23 -58 -44 -58 -47 0 -8 121 76 230 162 241 188 571 412 1001 678
101 62 105 65 94 65 -5 1 -79 -41 -162 -92z"/>
<path d="M7804 3744 c-18 -14 -18 -15 4 -4 12 6 22 13 22 15 0 8 -5 6 -26 -11z"/>
<path d="M9227 3665 c-4 -22 -9 -78 -12 -125 l-4 -85 14 100 c16 102 17 190 2
110z"/>
<path d="M2996 4450 c-20 -22 -36 -43 -36 -47 0 -4 3 -3 8 3 4 5 23 26 41 47
19 20 32 37 29 37 -3 0 -22 -18 -42 -40z"/>
<path d="M2883 4353 c-37 -42 -90 -102 -118 -132 -27 -31 -42 -50 -32 -42 14
11 17 11 18 0 0 -10 2 -10 7 1 10 21 117 155 166 208 22 23 37 42 34 42 -4 0
-37 -35 -75 -77z"/>
<path d="M2753 4298 c-67 -60 -93 -94 -93 -121 1 -7 8 1 16 16 8 15 48 59 87
97 40 38 69 70 66 70 -3 0 -37 -28 -76 -62z"/>
<path d="M2887 4293 c-49 -68 -149 -224 -145 -228 2 -3 149 209 181 262 19 31
-4 9 -36 -34z"/>
<path d="M5492 3310 c0 -14 2 -19 5 -12 2 6 2 18 0 25 -3 6 -5 1 -5 -13z"/>
<path d="M5482 3260 c0 -14 2 -19 5 -12 2 6 2 18 0 25 -3 6 -5 1 -5 -13z"/>
<path d="M8013 3705 c0 -27 2 -38 4 -22 2 15 2 37 0 50 -2 12 -4 0 -4 -28z"/>
<path d="M8022 3630 c-1 -14 3 -43 7 -65 6 -26 9 -31 9 -15 1 14 -3 43 -7 65
-6 26 -9 31 -9 15z"/>
<path d="M9210 4020 c-8 -5 -10 -10 -5 -10 6 0 17 5 25 10 8 5 11 10 5 10 -5
0 -17 -5 -25 -10z"/>
<path d="M9096 3971 c-41 -21 -109 -66 -151 -100 -42 -34 -81 -61 -86 -61 -20
0 -144 -88 -204 -144 -72 -67 -140 -105 -157 -88 -15 15 -51 15 -65 1 -6 -6
-17 -9 -24 -7 -12 4 181 150 211 160 9 3 10 7 3 11 -6 4 -66 -36 -134 -89 -68
-52 -150 -114 -181 -137 -31 -23 -57 -48 -57 -55 -1 -7 -14 -21 -31 -30 -16
-9 -30 -23 -30 -30 0 -10 4 -10 20 0 11 7 20 16 20 20 0 13 114 100 118 90 2
-6 10 -8 18 -5 32 12 10 -8 -56 -53 -38 -25 -74 -52 -80 -59 -17 -20 166 103
200 135 17 15 30 26 30 23 0 -3 7 1 17 8 12 10 17 11 20 2 6 -18 68 11 136 63
31 24 57 38 57 31 0 -23 -27 -112 -48 -160 -11 -26 -19 -47 -17 -47 11 0 48
89 65 156 10 42 27 85 37 96 10 11 63 49 118 85 55 36 117 79 138 96 21 16 77
51 125 78 104 58 95 66 -12 10z m-681 -421 c7 -11 -11 -40 -24 -40 -3 0 -12 4
-20 9 -12 8 -12 12 -2 25 15 18 37 21 46 6z"/>
<path d="M8876 3845 c-11 -8 -15 -15 -9 -15 6 0 16 7 23 15 16 19 11 19 -14 0z"/>
<path d="M8780 3810 c-8 -5 -12 -11 -10 -14 3 -2 14 2 24 10 22 15 10 19 -14
4z"/>
<path d="M8740 3775 c-7 -9 -19 -14 -27 -11 -8 3 -11 2 -8 -4 3 -5 -3 -14 -14
-20 -11 -6 -33 -22 -48 -37 l-28 -27 28 17 c15 10 27 15 27 13 0 -2 12 8 28
23 15 15 36 32 47 38 11 7 17 14 14 17 -3 4 -12 -1 -19 -9z"/>
<path d="M8518 3638 c-41 -24 -50 -39 -18 -31 11 3 17 9 14 14 -3 5 6 9 19 9
14 0 24 6 24 15 0 8 -1 15 -1 15 -1 0 -18 -10 -38 -22z"/>
<path d="M8469 3533 c-13 -16 -12 -17 4 -4 16 13 21 21 13 21 -2 0 -10 -8 -17
-17z"/>
<path d="M8167 3293 c-4 -3 -7 -11 -7 -17 0 -6 5 -5 12 2 6 6 9 14 7 17 -3 3
-9 2 -12 -2z"/>
<path d="M8045 3230 c-3 -5 -1 -10 4 -10 6 0 11 5 11 10 0 6 -2 10 -4 10 -3 0
-8 -4 -11 -10z"/>
<path d="M7077 4346 c-4 -10 -5 -21 -2 -24 9 -9 17 6 13 25 -3 17 -4 17 -11
-1z"/>
<path d="M1958 3853 c7 -3 16 -2 19 1 4 3 -2 6 -13 5 -11 0 -14 -3 -6 -6z"/>
<path d="M6150 3860 c16 -30 93 -88 125 -94 28 -5 27 -5 -4 6 -18 6 -55 33
-82 59 -27 26 -45 39 -39 29z"/>
<path d="M6021 3731 c21 -14 127 -41 154 -40 11 0 -11 8 -50 18 -38 10 -81 21
-95 25 -19 5 -21 5 -9 -3z"/>
<path d="M6005 3705 c19 -8 24 -14 15 -17 -8 -3 -1 -3 15 -1 20 3 26 1 17 -5
-10 -6 1 -11 35 -16 26 -3 77 -15 113 -26 78 -24 90 -24 116 -5 18 14 16 15
-21 9 -43 -6 -104 8 -224 50 -77 27 -118 34 -66 11z"/>
<path d="M6583 3822 c-24 -15 -43 -30 -43 -34 0 -6 70 36 99 59 19 14 -23 -4
-56 -25z"/>
<path d="M8930 3393 c-100 -131 -198 -244 -324 -373 l-181 -185 158 155 c196
192 323 335 414 465 77 110 86 125 80 125 -2 0 -68 -84 -147 -187z"/>
<path d="M9064 3368 c-4 -7 -14 -24 -22 -38 -14 -24 -13 -24 3 -5 20 24 37 55
31 55 -3 0 -8 -6 -12 -12z"/>
<path d="M8992 3258 c-35 -53 -94 -158 -88 -158 3 0 32 45 65 100 62 104 73
131 23 58z"/>
<path d="M8715 2924 c-77 -58 -151 -117 -165 -131 l-25 -26 35 24 c19 13 58
42 85 64 28 22 73 55 100 72 43 27 128 104 114 103 -2 -1 -67 -48 -144 -106z"/>
<path d="M7253 2352 c-60 -39 -65 -47 -11 -21 26 12 50 29 52 36 7 16 9 17
-41 -15z"/>
<path d="M4367 2266 c-57 -40 -288 -146 -316 -146 -17 0 -92 -32 -87 -37 7 -7
174 46 244 77 54 25 232 137 232 147 0 7 -10 1 -73 -41z"/>
</g>
</svg>
