<?xml version="1.0" standalone="no"?>
<!DOCTYPE svg PUBLIC "-//W3C//DTD SVG 20010904//EN"
 "http://www.w3.org/TR/2001/REC-SVG-20010904/DTD/svg10.dtd">
<svg version="1.0" xmlns="http://www.w3.org/2000/svg"
 width="1024.000000pt" height="1024.000000pt" viewBox="0 0 1024.000000 1024.000000"
 preserveAspectRatio="xMidYMid meet">
<metadata>
Created by potrace 1.16, written by Peter Selinger 2001-2019
</metadata>
<g transform="translate(0.000000,1024.000000) scale(0.100000,-0.100000)"
fill="#000000" stroke="none">
<path d="M5155 8734 c19 -46 34 -92 40 -127 l8 -39 -53 40 c-112 85 -289 111
-437 64 -87 -27 -100 -41 -30 -31 29 4 97 7 152 7 l100 -1 -101 -7 c-96 -6
-108 -9 -205 -57 -57 -27 -124 -66 -147 -87 -24 -20 -49 -36 -56 -36 -40 0
-262 -81 -388 -142 l-147 -71 -53 16 c-29 9 -98 26 -153 37 -55 11 -201 47
-325 80 -460 121 -597 139 -796 105 -393 -68 -740 -303 -1034 -700 -151 -203
-244 -391 -340 -685 -37 -113 -80 -229 -95 -259 -21 -43 -26 -64 -23 -101 7
-66 84 -221 183 -367 145 -212 192 -263 386 -420 152 -123 195 -184 279 -393
74 -185 146 -263 354 -387 240 -142 307 -201 481 -418 125 -158 193 -223 286
-278 94 -55 154 -70 263 -65 70 4 104 11 149 31 77 35 142 83 179 132 l30 40
-5 -65 c-3 -36 -13 -103 -22 -150 -10 -55 -16 -142 -16 -245 -1 -225 -34 -315
-199 -550 -100 -143 -180 -296 -205 -392 -22 -87 -37 -256 -29 -333 8 -92 38
-214 73 -303 51 -128 93 -206 239 -446 l52 -84 -78 -43 c-197 -111 -292 -320
-246 -541 4 -22 1 -23 -58 -25 l-63 -1 65 -6 65 -6 -100 -8 c-153 -12 -163
-16 -25 -11 143 6 155 -4 18 -16 l-93 -7 110 -3 c106 -3 108 -3 45 -10 -36 -4
-130 -9 -210 -11 l-145 -3 145 -7 c116 -5 94 -6 -110 -5 -140 1 -237 -2 -215
-6 22 -4 171 -8 330 -10 160 -2 252 -5 205 -8 l-85 -6 75 -5 c73 -5 73 -5 -29
-7 -103 -2 -131 -9 -57 -14 73 -5 46 -18 -41 -20 -62 -2 -41 -4 72 -8 152 -5
155 -6 60 -10 l-100 -4 85 -6 85 -6 -80 -3 c-118 -4 -55 -19 117 -27 76 -4
141 -10 143 -14 2 -4 -33 -5 -78 -4 l-82 3 70 -10 c39 -6 107 -9 152 -6 103 4
99 -5 -5 -14 -65 -5 -54 -6 78 -9 85 -1 196 -5 245 -9 l90 -8 -135 -3 -135 -4
190 -6 c664 -24 1239 -30 1785 -20 593 10 1157 27 1175 35 6 2 -100 2 -235 0
-154 -2 -219 0 -175 5 39 4 160 9 270 11 150 2 179 4 115 8 l-85 6 135 10 135
10 -80 5 -80 5 125 9 c69 5 166 12 215 17 82 6 78 7 -48 5 -76 -2 -132 1 -125
6 7 4 38 8 68 9 30 0 66 5 80 9 24 7 -120 5 -240 -5 -36 -3 -50 -1 -40 5 8 5
58 10 110 11 52 1 124 5 160 9 l65 7 -75 3 c-85 3 -71 7 85 20 l110 9 -140 -3
c-134 -3 -137 -3 -75 9 l65 12 -60 4 c-33 2 59 4 205 3 l265 -1 -200 6 -200 6
165 6 c141 5 129 6 -80 4 -233 -1 -240 -1 -145 11 l100 11 -100 3 -100 4 85 6
85 6 -95 4 -95 4 90 5 c86 6 88 6 41 13 -27 5 -65 9 -85 10 -20 1 5 5 54 8
l90 6 -83 2 -83 2 6 78 c17 193 -66 356 -238 468 -39 26 -74 49 -75 50 -2 1
42 71 98 155 205 308 281 516 281 774 0 235 -51 380 -226 639 -94 140 -126
199 -174 321 -27 66 -31 87 -26 127 8 57 -11 340 -30 453 -8 43 -12 81 -10 84
3 2 22 -16 44 -41 75 -85 218 -137 340 -125 82 9 157 39 238 96 89 63 152 134
263 296 154 225 220 291 440 437 74 50 154 106 177 124 25 21 88 103 154 202
134 199 217 286 344 362 169 101 231 156 336 300 129 176 251 400 265 486 5
34 1 51 -26 104 -17 35 -54 129 -82 209 -153 448 -318 715 -615 1001 -149 144
-274 234 -428 310 -233 114 -373 146 -610 137 -169 -7 -275 -26 -610 -112
-115 -30 -273 -66 -350 -80 -77 -14 -164 -33 -194 -41 l-54 -15 -141 70 c-77
39 -183 84 -233 100 -126 41 -301 74 -399 75 l-80 1 -23 51 c-23 52 -127 171
-170 194 -22 11 -23 11 -16 -6z m-176 -139 c78 -19 157 -60 184 -97 11 -15 26
-24 33 -21 10 3 16 -5 20 -26 5 -25 9 -29 20 -20 8 7 14 39 16 91 l3 80 24
-33 c13 -17 26 -52 29 -75 l5 -44 71 5 c67 4 68 4 18 -4 -73 -12 -182 -44
-182 -53 0 -10 -2 -10 45 7 61 22 243 19 371 -6 272 -52 538 -184 691 -341 73
-75 174 -224 167 -245 -5 -14 -4 -15 4 -4 8 11 17 -6 36 -68 39 -122 46 -221
36 -463 -10 -240 -9 -244 55 -433 80 -236 100 -412 71 -605 -22 -146 -55 -244
-142 -432 -170 -368 -299 -552 -463 -661 -66 -45 -91 -56 -91 -39 0 4 43 42
95 85 130 108 184 172 282 340 2 4 2 7 0 7 -2 0 -30 -38 -62 -85 -69 -102 -82
-113 -56 -48 10 26 21 66 24 88 5 31 1 26 -16 -26 -21 -59 -72 -159 -82 -159
-2 0 7 30 21 66 14 37 23 68 21 70 -2 3 -12 -15 -21 -39 -9 -24 -28 -59 -43
-78 -14 -19 -22 -25 -18 -14 4 11 8 30 10 43 1 12 6 26 10 30 4 4 4 -4 1 -18
-6 -19 -5 -21 3 -10 6 8 8 22 6 30 -3 9 -1 31 5 50 18 64 3 40 -34 -56 -21
-52 -40 -94 -42 -92 -2 2 12 53 31 113 19 60 33 110 31 112 -2 2 -16 -32 -31
-74 -53 -152 -59 -166 -63 -155 -2 7 2 28 8 48 7 19 10 37 8 40 -3 2 -12 -21
-22 -52 -10 -31 -20 -53 -24 -50 -3 4 -12 -4 -18 -16 -22 -41 -8 48 20 131 38
110 30 111 -10 1 -40 -107 -50 -123 -40 -65 5 28 4 35 -3 25 -8 -11 -12 -5
-17 28 -3 23 -10 39 -15 36 -5 -3 -7 17 -4 43 3 32 2 39 -3 23 -7 -23 -8 -24
-15 -5 -5 10 -13 63 -20 117 -6 54 -14 98 -18 98 -13 0 -26 -127 -19 -185 4
-33 21 -118 38 -190 37 -158 62 -288 62 -325 0 -24 -5 -29 -37 -35 -21 -4 -49
-13 -63 -20 -38 -20 -99 -91 -122 -141 -10 -24 -23 -44 -27 -44 -5 0 -9 55
-10 123 -2 117 -13 223 -29 266 -4 11 -5 -39 -3 -112 4 -156 -9 -258 -54 -427
-56 -208 -80 -350 -135 -790 -56 -451 -162 -877 -280 -1127 -129 -273 -299
-464 -511 -573 -89 -46 -170 -63 -294 -63 -100 0 -117 2 -191 32 -81 31 -171
87 -160 98 3 4 16 -2 28 -13 l23 -19 -19 23 c-11 13 -26 20 -36 17 -24 -8 -76
69 -111 166 -65 178 -21 304 141 405 25 15 58 41 74 58 22 23 28 26 23 11 -4
-11 -28 -38 -54 -60 -103 -88 -152 -145 -172 -201 -12 -30 -21 -60 -20 -67 0
-7 7 6 15 27 19 52 25 57 19 15 l-5 -34 14 37 c37 93 115 168 177 168 12 0 19
3 16 7 -4 3 3 17 15 30 32 34 36 120 9 197 -12 33 -19 61 -17 64 3 2 20 -27
38 -64 41 -85 37 -81 47 -65 6 9 10 6 16 -11 l7 -23 7 24 7 24 17 -26 c9 -14
21 -47 27 -73 11 -46 9 -52 -32 -135 -36 -74 -45 -86 -59 -78 -10 5 -37 8 -61
8 -43 -2 -43 -2 -8 -8 24 -4 41 -15 55 -38 11 -18 25 -32 31 -33 6 0 16 -15
22 -32 l12 -33 -5 33 c-4 26 -1 32 13 32 10 0 24 -6 31 -12 11 -10 13 -10 7 0
-5 8 0 12 12 12 23 0 94 -50 116 -82 14 -19 16 -20 16 -4 0 43 -62 106 -104
106 -26 0 -18 16 18 35 47 25 107 16 160 -26 70 -55 73 -57 57 -34 -55 76
-122 115 -167 99 -14 -5 -11 2 11 25 28 30 34 32 77 27 60 -6 127 -36 180 -78
33 -26 39 -28 29 -10 -26 49 -140 111 -203 112 -21 0 -38 4 -38 9 0 5 20 27
45 50 38 35 51 41 89 41 54 0 152 -30 198 -59 l33 -23 -35 32 c-60 54 -108 74
-182 74 -63 1 -67 2 -62 21 14 44 54 113 69 119 51 19 209 -5 290 -44 l60 -29
-35 30 c-70 59 -215 91 -304 66 -26 -7 -28 -6 -22 15 36 127 54 476 38 713
-12 168 -79 580 -118 724 -14 52 -47 151 -72 220 l-47 126 -5 200 c-3 129 -7
184 -12 155 -6 -41 -25 -249 -31 -345 l-2 -40 -33 58 c-19 32 -45 71 -59 88
-30 35 -92 69 -126 69 -42 0 -47 17 -36 120 5 52 21 166 35 254 26 161 28 268
5 327 -7 19 -10 3 -16 -71 -6 -68 -10 -89 -17 -75 -6 15 -7 12 -3 -12 2 -18 2
-40 -2 -50 -5 -12 -10 -7 -19 23 l-13 39 6 -55 c3 -30 5 -57 5 -60 0 -54 -3
-64 -13 -50 -8 12 -10 10 -6 -10 2 -14 8 -34 12 -45 19 -48 -23 12 -44 65 -13
30 -27 60 -33 65 -5 6 -1 -10 10 -35 11 -25 22 -61 26 -80 4 -26 -5 -13 -33
45 -49 100 -52 93 -6 -15 19 -45 35 -83 35 -84 0 -2 -7 -3 -15 -3 -26 0 -46
33 -91 144 -51 129 -59 122 -9 -9 19 -51 33 -94 31 -96 -6 -5 -46 82 -72 156
-13 37 -24 60 -24 51 0 -15 50 -162 65 -192 4 -6 -3 -1 -14 13 -11 14 -21 30
-21 35 0 6 -12 24 -26 40 l-25 30 16 -33 c26 -53 12 -47 -26 12 -18 29 -39 62
-46 72 -16 25 5 -28 31 -75 26 -48 4 -30 -50 42 -61 80 -73 92 -44 42 71 -120
163 -225 278 -317 35 -28 61 -53 58 -56 -3 -2 -30 8 -61 24 -127 64 -262 248
-433 589 -149 299 -212 505 -212 695 0 139 13 212 61 350 67 190 79 244 78
360 0 58 -4 139 -10 180 -5 41 -11 122 -13 180 -3 88 -2 94 4 35 7 -64 7 -61
6 38 -1 59 1 99 5 90 4 -11 8 -3 11 23 7 51 46 148 89 221 54 91 228 259 332
320 126 73 289 140 420 170 100 24 133 27 306 27 l193 1 -53 17 c-30 9 -71 17
-91 17 -42 1 -51 15 -15 25 43 11 158 6 194 -9 20 -8 38 -13 41 -10 3 2 21 -5
41 -17 l36 -22 -20 23 c-58 68 -162 98 -304 88 -49 -4 -96 -10 -106 -13 -12
-5 -16 -4 -12 3 12 19 145 36 241 31 110 -6 165 -28 236 -94 53 -50 62 -49 30
4 -47 76 -197 130 -334 119 l-71 -6 55 24 c65 29 136 32 229 10z m-294 -145
c-3 -5 -13 -10 -21 -10 -8 0 -14 5 -14 10 0 6 9 10 21 10 11 0 17 -4 14 -10z
m-1685 -50 c80 -17 299 -70 487 -118 l343 -88 -71 -69 c-39 -39 -91 -97 -116
-130 -25 -33 -49 -59 -54 -58 -5 2 -6 -4 -3 -12 4 -8 -1 -17 -10 -21 -9 -3
-13 -10 -10 -15 3 -5 1 -9 -4 -9 -17 0 -64 -121 -83 -213 -10 -51 -19 -130
-19 -177 0 -78 -2 -86 -20 -87 -23 -2 -60 41 -60 68 0 11 -4 19 -8 19 -5 0 -7
15 -6 33 3 28 3 29 -5 7 -8 -26 -7 -30 -24 115 -2 17 -5 -4 -6 -45 -2 -64 -4
-71 -12 -45 -13 38 -3 194 15 266 18 68 13 76 -8 12 -24 -73 -39 -190 -31
-242 8 -54 45 -145 79 -195 13 -20 36 -71 50 -113 28 -82 29 -113 2 -41 -9 24
-14 32 -11 18 3 -14 12 -54 20 -90 8 -36 14 -99 14 -140 l-1 -75 -13 65 c-21
107 -68 214 -148 333 -79 119 -132 174 -238 250 -90 63 -188 110 -300 143 -80
24 -112 28 -214 28 -70 0 -130 -5 -145 -11 -21 -10 -13 -11 45 -6 68 5 217
-18 239 -37 4 -5 -36 -6 -90 -3 -55 2 -119 0 -144 -5 -41 -9 -36 -10 55 -12
164 -3 225 -7 232 -14 7 -7 -33 -8 -212 -8 -111 0 -115 0 -55 -9 36 -4 116 -9
178 -10 62 -1 110 -4 107 -8 -4 -3 -122 -7 -263 -7 -201 -2 -269 -5 -312 -18
-30 -8 -39 -13 -20 -9 63 12 541 12 615 0 40 -7 59 -13 45 -15 -14 -1 -52 1
-83 6 -31 5 -57 5 -57 0 0 -4 -39 -9 -87 -10 l-88 -2 80 -3 c100 -3 274 -23
279 -32 2 -3 -66 -4 -152 -3 -87 2 -155 2 -152 -1 3 -3 66 -8 140 -11 137 -5
237 -20 255 -38 7 -7 3 -8 -10 -5 -84 24 -102 18 -24 -8 38 -12 39 -14 9 -9
-19 4 -48 12 -65 19 -16 7 -41 16 -55 20 l-25 6 24 -19 c13 -11 61 -27 105
-37 45 -10 95 -21 111 -26 45 -12 -54 0 -139 17 -38 8 -71 12 -74 9 -3 -3 -1
-5 4 -5 5 0 50 -12 99 -25 50 -14 71 -23 48 -20 -102 13 -236 25 -240 22 -2
-2 27 -9 64 -15 38 -6 93 -16 123 -21 l55 -10 -55 5 c-61 5 -51 -9 15 -20 58
-10 197 -48 192 -52 -2 -3 -43 5 -91 16 -48 12 -95 20 -104 18 -9 -2 26 -14
78 -27 106 -26 158 -45 100 -36 -19 3 -69 10 -110 16 -41 5 -84 12 -95 15 -15
4 -17 3 -5 -4 8 -5 47 -15 85 -22 39 -7 93 -18 120 -25 l50 -13 -61 2 c-34 0
-60 4 -57 9 2 4 -15 7 -39 7 -37 -1 -25 -7 95 -47 151 -50 178 -68 46 -30 -46
13 -100 27 -119 30 -60 11 -9 -11 66 -29 37 -8 77 -22 88 -31 20 -15 20 -15 1
-8 -47 17 -87 26 -98 22 -7 -3 8 -9 33 -13 44 -8 44 -8 15 -15 l-30 -8 30 1
c17 0 32 -1 35 -2 3 -1 18 -4 34 -6 16 -2 33 -7 38 -12 4 -4 -26 -5 -68 0 -84
9 -116 3 -37 -7 26 -3 62 -10 78 -14 29 -9 28 -9 -15 -11 l-45 -2 49 -9 c27
-4 54 -13 60 -19 7 -7 1 -9 -24 -5 l-35 5 35 -14 c26 -11 30 -15 15 -16 -16
-1 -14 -4 10 -15 18 -9 23 -14 13 -15 -9 0 -20 -5 -24 -11 -4 -8 1 -9 17 -4
24 7 24 7 4 -10 -17 -14 -18 -16 -2 -11 11 3 16 2 12 -4 -3 -6 -14 -10 -23
-11 -10 0 -12 -3 -5 -5 7 -3 22 0 35 7 22 12 22 11 8 -6 -14 -17 -13 -18 3
-12 20 7 17 -2 -12 -38 -11 -14 -7 -12 14 5 l29 25 -19 -30 -18 -30 23 20 23
20 -11 -21 c-6 -11 -18 -27 -27 -34 -16 -13 -60 -90 -51 -90 2 0 18 23 36 50
18 28 35 48 38 46 2 -3 -3 -17 -12 -30 -23 -36 -20 -41 8 -11 15 16 22 34 20
48 -3 12 4 0 15 -28 11 -27 17 -52 12 -55 -10 -7 -73 -120 -66 -120 2 0 19 25
36 55 17 30 33 55 35 55 4 0 -12 -44 -28 -73 -10 -20 -10 -21 5 -9 14 12 15 9
12 -30 -2 -24 -8 -81 -14 -128 -28 -224 -1 -470 81 -720 22 -69 43 -127 46
-130 8 -8 -8 73 -24 115 -20 56 -84 343 -83 374 1 31 2 27 24 -69 10 -41 23
-83 30 -95 13 -21 35 -87 55 -163 6 -23 15 -40 20 -37 4 3 6 -3 4 -12 -3 -10
9 -62 25 -116 29 -92 57 -234 60 -301 0 -16 10 -93 22 -170 21 -141 29 -350
16 -436 -6 -41 -6 -42 5 -15 20 54 15 314 -11 495 -29 213 -56 359 -81 439
-25 84 -19 91 9 9 20 -58 43 -164 85 -390 25 -131 47 -382 41 -473 -4 -71 -3
-75 6 -35 26 115 -7 468 -65 686 -14 49 -23 90 -21 92 4 5 52 -145 64 -203 29
-135 61 -361 61 -431 0 -42 3 -75 6 -71 7 7 30 175 40 292 11 139 27 61 20
-101 -6 -148 -35 -266 -89 -369 -46 -86 -146 -184 -232 -226 -64 -31 -77 -34
-160 -34 -85 0 -96 3 -166 37 -100 49 -186 130 -329 308 -167 208 -247 276
-491 420 -200 119 -263 191 -345 401 -73 188 -105 229 -314 402 -74 62 -161
144 -193 182 -82 97 -241 338 -283 429 -49 107 -51 124 -19 185 14 29 48 118
74 199 139 419 288 675 556 951 177 183 376 319 577 395 64 24 220 60 298 70
72 8 219 -6 360 -34z m4740 5 c176 -46 359 -134 512 -247 169 -125 399 -374
520 -563 87 -134 192 -365 280 -615 17 -47 44 -112 60 -144 23 -46 29 -68 25
-99 -8 -58 -89 -212 -197 -376 -123 -184 -218 -278 -375 -370 -148 -87 -234
-174 -345 -350 -108 -172 -150 -217 -274 -298 -306 -200 -348 -240 -524 -503
-103 -155 -164 -223 -252 -279 -128 -83 -250 -103 -364 -60 -131 48 -244 208
-312 439 -30 100 -41 283 -26 425 9 86 9 83 12 -100 3 -266 15 -289 23 -45 10
313 24 335 26 40 1 -135 8 -279 14 -320 11 -67 12 -49 9 165 -4 209 -2 259 18
390 12 83 22 151 23 152 1 1 2 -134 3 -300 0 -177 5 -323 11 -352 10 -43 11
-33 6 63 -3 62 -6 193 -7 290 -1 176 13 279 55 410 18 54 21 30 5 -34 -13 -52
-24 -131 -41 -319 -4 -49 -4 -49 5 -10 5 22 16 90 24 150 9 61 30 157 46 214
17 57 30 115 30 128 0 13 4 22 9 19 9 -6 14 14 36 144 7 41 13 64 14 50 1 -33
-15 -133 -33 -195 -45 -161 -101 -470 -94 -518 2 -12 16 57 32 153 16 96 39
209 52 250 30 98 75 385 55 352 -3 -5 -5 47 -3 117 3 89 -1 151 -12 204 -9 42
-16 86 -15 99 2 46 38 -149 39 -212 1 -36 5 -83 10 -105 15 -66 1 189 -16 289
-8 48 -13 90 -11 92 2 3 12 -23 21 -56 10 -34 26 -80 37 -103 11 -23 17 -33
14 -22 -4 11 -19 65 -35 120 -15 55 -33 113 -39 129 -7 16 -10 31 -7 33 5 5
46 -102 46 -120 0 -9 2 -9 8 0 5 9 23 -16 51 -70 24 -45 40 -68 37 -52 -4 17
-20 50 -36 75 -37 58 -73 150 -59 150 6 0 8 10 4 23 -5 20 -5 20 9 -3 23 -37
19 -11 -4 33 -30 56 -15 45 19 -14 16 -28 32 -46 35 -40 4 6 2 20 -4 32 -6 11
-9 28 -6 36 4 9 -1 24 -10 34 -10 11 -13 19 -8 19 5 0 24 -17 42 -37 19 -22
29 -29 22 -16 -6 12 -27 38 -47 58 -20 19 -33 35 -29 35 4 0 2 10 -5 21 -8 15
-8 19 0 15 6 -4 11 -2 11 3 0 6 -5 11 -11 11 -5 0 -7 5 -4 11 5 6 12 4 20 -8
7 -10 10 -20 5 -23 -5 -3 10 -21 33 -39 l42 -34 -34 36 c-48 51 -27 47 29 -5
28 -27 23 -19 -15 21 -33 35 -51 59 -40 53 11 -6 29 -20 40 -32 18 -20 20 -20
26 -3 9 27 0 44 -35 60 -24 11 -25 13 -6 8 58 -15 75 -15 40 -1 -19 8 -46 15
-60 15 l-25 1 30 20 c17 11 25 20 19 20 -5 0 -14 -3 -20 -7 -5 -5 3 4 18 19
24 23 31 26 59 18 18 -5 35 -7 38 -5 2 3 -2 5 -10 5 -11 0 -11 2 1 10 10 6 11
10 3 10 -7 0 -13 4 -13 9 0 6 21 12 48 14 42 3 40 4 -16 5 -65 2 -81 21 -19
23 30 1 30 1 7 8 -24 7 -24 8 10 19 19 6 46 13 60 16 14 3 -2 3 -35 1 -50 -3
-56 -2 -35 7 14 6 66 14 115 18 l90 7 -85 1 c-69 1 -96 -3 -142 -22 -75 -31
-75 -23 -1 11 41 19 84 29 148 34 l90 7 -115 -2 c-123 -2 -105 6 50 23 l85 9
-105 -4 c-58 -2 -116 -6 -130 -9 -14 -3 -7 1 14 10 21 8 44 19 50 24 6 5 34
12 61 16 28 4 59 12 70 18 11 6 47 14 80 18 l60 7 -60 -3 c-33 -1 -91 -10
-129 -19 -38 -9 -71 -15 -73 -12 -9 8 205 68 311 86 54 9 86 20 58 20 -27 0
-287 -52 -292 -58 -6 -8 -133 -42 -138 -37 -2 2 23 13 55 24 32 12 66 25 75
31 9 5 56 17 104 27 48 9 82 19 76 21 -7 2 -50 -4 -97 -13 -47 -10 -88 -15
-91 -13 -2 3 31 15 73 28 43 12 83 26 88 30 6 4 44 13 85 20 133 21 163 30 85
24 -78 -6 -262 -40 -302 -55 -14 -5 -28 -8 -30 -5 -6 5 115 45 202 67 39 9 59
17 45 18 -29 1 -181 -32 -222 -48 -16 -6 -28 -8 -28 -6 0 20 182 65 320 80
l125 14 -110 -3 c-73 -3 -100 -1 -80 5 27 7 26 8 -10 4 -22 -2 -56 -6 -75 -9
-31 -5 -29 -4 10 10 25 8 92 21 150 29 l105 13 -80 1 c-55 0 -110 -7 -175 -23
-52 -14 -96 -23 -98 -21 -2 2 34 16 80 31 77 26 98 28 288 33 230 5 227 18 -5
19 -89 1 -178 -4 -220 -12 -38 -8 -72 -12 -74 -11 -14 14 225 45 343 45 33 0
151 -11 260 -25 199 -24 264 -27 144 -6 -161 28 -356 43 -500 39 -164 -5 -167
4 -7 23 93 10 195 9 314 -6 28 -3 23 0 -20 11 -39 10 -111 16 -204 17 -138 1
-143 2 -110 17 25 11 69 15 173 15 135 0 137 0 80 12 -32 7 -99 12 -147 13
-285 1 -614 -167 -762 -390 -87 -131 -136 -249 -160 -387 l-13 -78 1 132 c1
72 -1 126 -5 120 -24 -37 25 135 69 247 30 77 37 106 40 186 2 60 -1 113 -10
145 -13 49 -13 49 -14 -67 0 -64 -5 -129 -11 -145 -6 -15 -13 -41 -16 -56 -4
-15 -10 -25 -15 -22 -5 2 -12 -2 -15 -11 -4 -9 -9 -14 -12 -11 -3 3 -14 -3
-25 -14 -29 -29 -40 -15 -33 39 12 98 -34 323 -76 372 -19 22 -24 35 -21 53 0
4 -3 7 -8 7 -4 0 -29 32 -55 71 -26 38 -81 105 -121 148 l-75 78 133 32 c72
17 164 38 204 46 39 8 143 32 230 54 364 92 487 112 658 107 99 -3 155 -11
235 -31z m-4713 -991 c-3 -3 -12 -4 -19 -1 -8 3 -5 6 6 6 11 1 17 -2 13 -5z
m-20 -20 c-3 -3 -12 -4 -19 -1 -8 3 -5 6 6 6 11 1 17 -2 13 -5z m46 -11 c-7
-2 -19 -2 -25 0 -7 3 -2 5 12 5 14 0 19 -2 13 -5z m14 -119 c-3 -3 -12 -4 -19
-1 -8 3 -5 6 6 6 11 1 17 -2 13 -5z m63 -14 c11 -8 7 -9 -15 -4 -37 8 -45 14
-19 14 10 0 26 -5 34 -10z m3849 -34 c-10 -9 -69 -36 -69 -32 0 7 52 35 64 36
5 0 7 -2 5 -4z m-312 -78 c-3 -8 -6 -5 -6 6 -1 11 2 17 5 13 3 -3 4 -12 1 -19z
m211 -28 c-7 -10 -14 -17 -17 -15 -4 4 18 35 25 35 2 0 -1 -9 -8 -20z m71 -32
c-13 -5 -33 -17 -44 -26 -11 -9 -7 -2 9 15 18 20 34 29 44 26 12 -5 10 -8 -9
-15z m34 -15 c-7 -2 -19 -2 -25 0 -7 3 -2 5 12 5 14 0 19 -2 13 -5z m-57 -135
l19 -23 -25 20 c-14 11 -27 21 -29 22 -2 2 0 3 6 3 5 0 18 -10 29 -22z m-139
-670 c-2 -29 -3 -6 -3 52 0 58 1 81 3 53 2 -29 2 -77 0 -105z m-3450 -20 c-3
-8 -6 -5 -6 6 -1 11 2 17 5 13 3 -3 4 -12 1 -19z m3440 -85 c-3 -10 -5 -4 -5
12 0 17 2 24 5 18 2 -7 2 -21 0 -30z m-10 -60 c-3 -10 -5 -4 -5 12 0 17 2 24
5 18 2 -7 2 -21 0 -30z m-10 -70 c-3 -10 -5 -4 -5 12 0 17 2 24 5 18 2 -7 2
-21 0 -30z m-10 -45 c-3 -8 -6 -5 -6 6 -1 11 2 17 5 13 3 -3 4 -12 1 -19z
m-10 -50 c-3 -8 -6 -5 -6 6 -1 11 2 17 5 13 3 -3 4 -12 1 -19z m-200 -390 c-3
-7 -5 -2 -5 12 0 14 2 19 5 13 2 -7 2 -19 0 -25z m-2847 -210 c11 -50 25 -315
16 -293 -3 6 -12 82 -21 169 -9 88 -18 163 -21 168 -3 4 -1 8 5 8 5 0 15 -24
21 -52z m2483 -383 c-3 -9 -8 -14 -10 -11 -3 3 -2 9 2 15 9 16 15 13 8 -4z
m-54 -79 c-18 -25 -34 -44 -36 -42 -5 5 60 94 66 90 2 -1 -12 -23 -30 -48z
m118 -29 c-20 -41 -47 -85 -60 -98 -13 -13 -32 -37 -42 -52 -10 -15 -20 -26
-22 -23 -6 6 25 55 54 84 12 13 39 57 60 97 21 41 40 72 42 69 2 -2 -12 -37
-32 -77z m-53 17 c-42 -95 -75 -156 -81 -150 -8 7 91 206 102 206 2 0 -7 -25
-21 -56z m-1938 6 c23 -16 54 -48 69 -70 27 -39 28 -44 17 -86 -15 -55 -87
-183 -148 -261 -81 -104 -182 -169 -250 -161 -40 4 -42 31 -7 82 79 113 172
299 237 479 10 26 23 47 30 47 7 0 30 -13 52 -30z m2029 -62 c-28 -86 -103
-238 -117 -238 -17 0 -6 30 42 115 27 49 59 117 71 152 33 92 36 69 4 -29z
m-325 70 c0 -7 27 -69 60 -137 60 -124 242 -411 260 -411 19 0 10 -17 -15 -28
-39 -18 -71 -14 -127 14 -134 68 -328 318 -328 424 0 35 7 47 53 95 51 52 97
73 97 43z m-1944 -152 c13 -38 23 -71 21 -72 -4 -4 -87 209 -87 222 1 14 39
-74 66 -150z m30 37 c-4 -4 -56 104 -55 115 0 4 13 -20 30 -52 16 -33 27 -61
25 -63z m2310 62 c-8 -28 -23 -72 -35 -99 -12 -27 -19 -51 -17 -53 6 -7 56 92
72 142 10 32 13 35 13 15 1 -25 -32 -98 -104 -230 -19 -35 -35 -67 -35 -70 0
-7 30 41 74 123 21 38 40 66 43 63 3 -3 -4 -21 -15 -40 -26 -43 -72 -157 -62
-151 4 3 20 34 35 70 16 36 31 65 35 65 4 0 13 18 20 40 7 22 15 38 18 36 6
-6 -18 -78 -31 -94 -13 -17 -77 -185 -72 -190 4 -4 65 153 65 168 0 6 6 13 14
16 8 3 19 25 26 50 7 24 15 43 17 41 6 -7 -20 -97 -28 -97 -4 0 -17 -30 -30
-67 -12 -38 -32 -93 -45 -123 -13 -30 -17 -46 -9 -36 8 11 29 56 45 100 17 45
39 99 49 121 11 22 24 59 31 83 12 46 24 59 14 15 -4 -16 -24 -81 -46 -146
-22 -66 -38 -121 -35 -123 4 -4 54 136 82 226 7 25 14 38 14 30 1 -15 -12 -70
-23 -105 -4 -11 2 -4 13 15 22 39 27 30 10 -19 -6 -18 -9 -35 -6 -38 4 -3 11
16 18 41 6 26 14 45 16 42 3 -2 -9 -57 -27 -121 -17 -65 -29 -119 -27 -121 2
-2 16 40 31 94 15 53 30 106 33 117 5 18 6 18 15 -4 4 -13 18 -76 30 -140 31
-159 31 -428 0 -656 -12 -88 -26 -214 -32 -280 -14 -151 -59 -517 -65 -523 -8
-8 -14 45 -25 223 -22 362 -27 275 -22 -450 2 -407 8 -744 13 -749 5 -6 9 -18
9 -27 0 -9 34 -82 75 -161 90 -174 105 -228 105 -368 0 -113 -8 -142 -30 -115
-7 8 -25 15 -41 15 -24 0 -32 -7 -50 -43 -12 -23 -28 -50 -37 -60 -14 -15 -13
-17 4 -18 10 0 -10 -10 -45 -21 -34 -10 -65 -17 -68 -15 -2 3 0 14 6 25 16 30
13 140 -4 199 -34 115 -128 186 -249 187 -107 1 -178 -64 -218 -200 l-22 -73
-18 72 c-30 117 -73 166 -212 240 -67 36 -162 118 -171 148 -4 11 -9 18 -12
16 -2 -3 5 -23 16 -45 22 -43 101 -119 141 -134 24 -9 22 -10 -28 -27 -65 -22
-85 -41 -118 -108 -32 -64 -42 -169 -25 -239 7 -25 10 -48 8 -50 -6 -6 -81 37
-109 64 -51 47 -72 107 -71 202 1 115 28 210 107 377 75 158 104 266 135 498
27 198 61 543 61 617 0 60 30 213 37 191 2 -6 -3 -39 -12 -73 -18 -69 -14 -93
5 -33 24 75 73 179 116 246 24 37 44 73 44 79 0 19 -59 -67 -96 -140 -21 -41
-32 -55 -28 -37 8 37 53 120 108 200 57 82 65 97 26 52 -53 -62 -45 -35 16 53
32 46 53 80 46 76 -11 -7 -122 -163 -122 -172 0 -3 5 -2 10 1 19 12 10 -10
-25 -63 -40 -59 -55 -70 -24 -17 11 19 18 39 15 44 -8 13 44 132 55 125 5 -3
6 1 3 9 -6 16 53 153 94 222 31 51 118 142 155 162 16 8 26 17 23 20 -11 12
-117 -70 -183 -141 -52 -57 -62 -64 -48 -36 57 111 111 172 237 261 53 38 100
74 104 80 3 6 -25 -11 -62 -38 -38 -27 -89 -61 -114 -75 -60 -35 -210 -181
-210 -206 0 -5 -9 -21 -20 -35 -12 -14 -27 -43 -35 -64 -7 -21 -14 -30 -14
-20 -2 48 112 212 210 302 24 22 81 66 126 98 45 32 85 62 88 67 7 11 -220
-143 -249 -168 -40 -36 -139 -167 -163 -216 -40 -83 -21 -2 21 89 19 41 33 75
31 75 -3 0 -20 -24 -40 -52 -38 -57 -48 -55 -14 2 40 66 121 150 265 276 80
70 142 129 140 132 -3 2 -40 -26 -83 -64 -43 -38 -105 -92 -138 -119 -33 -27
-86 -76 -118 -109 l-59 -61 42 53 c24 29 40 55 38 58 -3 2 -26 -18 -51 -45
-26 -28 -47 -46 -47 -40 0 18 93 110 100 99 4 -7 19 2 37 23 17 20 67 67 112
107 45 39 79 75 77 79 -3 4 8 21 24 36 l30 29 29 -22 c43 -32 149 -65 186 -58
29 6 61 31 79 63 8 14 -41 113 -61 126 -7 4 -13 15 -13 22 0 8 -3 15 -7 15 -5
0 -13 11 -19 24 -10 20 -5 34 32 100 24 42 41 82 38 89 -2 7 8 44 24 82 16 39
32 83 36 99 4 15 9 26 11 24 2 -2 -2 -26 -9 -53z m-2408 -30 c-3 -3 -9 2 -12
12 -6 14 -5 15 5 6 7 -7 10 -15 7 -18z m121 -5 c11 -24 11 -24 -3 -6 -9 11
-16 24 -16 30 0 12 5 7 19 -24z m2053 8 c-7 -7 -12 -8 -12 -2 0 14 12 26 19
19 2 -3 -1 -11 -7 -17z m177 -50 c-11 -37 -18 -70 -17 -75 2 -8 -69 -153 -76
-153 -2 0 -6 11 -8 25 -4 17 5 41 25 72 16 26 43 83 59 126 17 43 32 77 34 75
2 -2 -6 -34 -17 -70z m-2340 -47 c23 -58 39 -106 37 -108 -4 -4 -86 199 -86
213 0 16 11 -6 49 -105z m2268 52 c-13 -27 -33 -65 -43 -86 -22 -44 -40 -61
-29 -27 5 15 4 20 -4 16 -18 -11 -12 7 10 34 17 21 19 22 10 3 -6 -12 -11 -25
-11 -30 1 -13 30 30 30 44 0 13 49 93 57 93 2 0 -7 -21 -20 -47z m-2257 7 c6
-11 8 -20 6 -20 -3 0 -10 9 -16 20 -6 11 -8 20 -6 20 3 0 10 -9 16 -20z m-73
-21 c-6 -23 35 -147 62 -188 11 -18 12 -23 2 -17 -10 7 -12 4 -7 -12 4 -11 3
-23 -2 -26 -5 -3 -14 18 -21 47 -8 29 -24 82 -37 120 -12 37 -19 67 -13 67 5
0 9 7 9 15 0 8 3 15 6 15 4 0 4 -10 1 -21z m171 -14 c-3 -3 -9 2 -12 12 -6 14
-5 15 5 6 7 -7 10 -15 7 -18z m-58 -67 c10 -27 15 -48 11 -48 -7 0 -42 99 -40
116 0 5 3 2 6 -6 3 -8 14 -36 23 -62z m50 27 c0 -5 -5 -3 -10 5 -5 8 -10 20
-10 25 0 6 5 3 10 -5 5 -8 10 -19 10 -25z m-140 -167 l18 -56 -40 -66 c-42
-68 -44 -90 -14 -129 36 -47 147 -35 221 23 21 16 41 30 44 30 3 -1 26 -26 51
-56 60 -73 188 -200 225 -223 17 -10 38 -28 49 -39 10 -12 22 -19 26 -17 9 6
73 -63 90 -97 15 -27 7 -20 -44 45 -42 53 -63 57 -24 5 32 -44 71 -108 65
-108 -3 0 -19 22 -35 48 -38 61 -85 116 -126 144 -38 27 -26 10 46 -64 45 -46
96 -125 117 -180 16 -43 6 -33 -28 25 -17 28 -42 66 -56 82 -22 25 -21 22 5
-17 38 -59 90 -168 89 -188 0 -8 -7 2 -14 22 -16 44 -59 119 -93 166 -14 18
-26 44 -28 59 -1 14 -8 31 -14 37 -8 8 -10 6 -5 -9 6 -17 3 -16 -17 6 -25 28
-88 74 -88 64 0 -15 -114 73 -189 147 -46 46 -74 69 -62 51 37 -54 187 -188
244 -216 73 -38 119 -88 179 -197 32 -60 72 -169 64 -177 -3 -3 -6 0 -6 8 0
44 -139 282 -180 307 -19 12 -20 11 -11 -5 6 -10 21 -28 35 -41 35 -33 112
-202 91 -202 -2 0 -23 34 -46 75 -22 41 -43 75 -45 75 -3 0 -2 -6 2 -12 10
-18 -5 -1 -51 56 -21 26 -72 73 -114 103 -42 31 -107 85 -145 122 -52 49 -62
56 -39 26 41 -53 72 -81 168 -151 44 -31 91 -69 104 -83 22 -24 128 -234 146
-291 7 -23 7 -23 -19 5 l-28 30 22 -45 c13 -25 26 -52 29 -60 4 -8 18 -33 31
-54 13 -22 18 -36 12 -32 -14 9 -15 -3 -2 -24 9 -13 10 -13 10 0 1 8 12 -9 26
-39 13 -30 23 -59 21 -65 -2 -5 -9 5 -16 22 -8 18 -17 32 -21 32 -4 0 -22 23
-40 50 -18 28 -35 49 -37 46 -3 -2 17 -37 43 -78 57 -86 100 -163 86 -154 -5
3 -28 37 -51 75 -23 38 -52 77 -64 87 -22 19 -22 19 -6 -1 28 -36 129 -213
129 -227 0 -7 -29 34 -65 92 -35 57 -72 111 -81 119 -12 12 -12 8 3 -14 42
-63 135 -236 130 -241 -3 -3 -17 15 -32 41 -15 25 -29 44 -32 41 -2 -2 7 -22
21 -44 27 -42 58 -113 53 -118 -4 -5 -107 155 -107 166 0 5 -4 12 -10 15 -14
9 6 -41 29 -74 27 -37 81 -146 81 -162 0 -7 -8 -2 -17 11 -10 14 -17 26 -15
28 4 3 -28 62 -34 62 -2 0 2 -13 11 -30 9 -16 13 -30 10 -30 -3 0 4 -18 15
-40 11 -22 16 -40 10 -40 -5 0 -10 3 -10 8 0 4 -12 21 -26 37 l-26 30 23 -40
c12 -22 26 -44 31 -49 4 -6 8 -17 8 -25 0 -10 -17 2 -41 29 l-39 45 36 -63
c41 -70 41 -94 0 -32 -14 22 -29 40 -32 40 -6 0 -3 -4 33 -62 16 -26 19 -39
11 -44 -6 -4 -17 2 -25 12 -39 53 -42 55 -19 12 30 -54 34 -77 10 -57 -13 11
-14 9 -9 -14 8 -30 -27 -97 -51 -97 -8 0 -14 -6 -14 -13 0 -8 -10 -22 -22 -33
-12 -10 -18 -13 -13 -5 6 11 4 13 -8 8 -21 -8 -21 1 -2 46 20 48 19 82 -5 158
-25 82 -58 138 -70 118 -7 -10 -25 2 -77 52 -73 71 -110 96 -123 82 -5 -4 3
-51 16 -103 35 -131 31 -140 -81 -215 -134 -90 -192 -192 -183 -323 5 -59 57
-194 97 -251 12 -17 20 -35 17 -39 -7 -12 89 -104 142 -137 127 -78 298 -98
484 -56 54 12 103 21 110 20 26 -3 39 1 33 11 -3 6 2 10 12 10 13 -1 41 -47
106 -178 76 -154 89 -187 98 -257 22 -162 -13 -274 -102 -331 -48 -30 -53 -30
-37 -1 14 25 23 261 10 253 -5 -3 -18 14 -30 37 -12 23 -22 39 -22 34 0 -4
-18 4 -39 19 -22 14 -59 28 -82 31 l-42 6 34 18 c39 21 53 24 43 8 -4 -8 0 -8
15 0 24 13 28 23 6 15 -27 -11 -16 3 25 31 43 30 80 81 80 111 0 11 -11 1 -29
-28 -33 -52 -94 -98 -171 -128 -29 -11 -66 -31 -84 -45 -42 -32 -99 -130 -116
-199 -7 -31 -16 -56 -20 -56 -4 0 -12 23 -19 52 -23 101 -92 186 -171 209 -55
17 -151 -1 -205 -38 -81 -56 -126 -210 -96 -329 7 -25 10 -48 8 -51 -3 -2 -31
5 -63 16 -33 11 -73 22 -91 26 -55 11 -105 80 -73 100 18 11 50 -6 56 -30 3
-13 17 -33 30 -46 24 -22 24 -22 24 -2 0 30 -61 107 -87 111 -12 2 -31 -6 -44
-19 -16 -16 -23 -18 -29 -8 -16 25 -21 125 -11 210 17 133 29 167 115 314 81
140 87 172 98 520 14 441 18 1064 7 995 -5 -30 -12 -143 -16 -250 l-8 -195
-28 129 c-15 71 -32 173 -37 225 -6 53 -22 202 -36 331 -28 254 -41 589 -29
716 5 43 11 70 13 59 l5 -20 7 20 c5 14 11 -1 20 -53 6 -40 14 -71 17 -68 3 3
1 33 -5 68 -15 89 -21 158 -13 162 4 3 7 -3 8 -12 2 -27 63 -255 70 -261 3 -3
3 5 0 19 -15 62 -48 302 -44 317 3 13 5 11 6 -7 1 -14 8 -54 15 -90 l13 -65
-3 124 c-2 68 -1 121 2 119 2 -3 17 -61 33 -129 16 -68 30 -119 30 -114 1 6
-6 66 -14 135 -8 69 -15 127 -15 130 1 11 54 -119 70 -172z m70 39 c0 -19 -12
2 -36 60 -34 82 -30 90 6 15 17 -35 30 -69 30 -75z m2487 111 c-3 -8 -6 -5 -6
6 -1 11 2 17 5 13 3 -3 4 -12 1 -19z m-2072 -208 c17 -19 21 -28 10 -20 -25
19 -39 36 -60 75 -16 30 -16 30 2 5 10 -13 32 -40 48 -60z m10 -60 c20 -19 46
-48 57 -65 13 -19 0 -9 -36 25 -56 54 -116 133 -116 154 0 5 13 -10 29 -35 15
-24 45 -60 66 -79z m-20 -29 c38 -40 61 -69 50 -63 -39 21 -156 153 -154 176
0 6 8 0 17 -14 9 -14 48 -58 87 -99z m1446 52 c-22 -32 -57 -74 -78 -93 -36
-33 -24 -14 25 40 13 14 35 44 49 68 14 23 29 42 34 42 5 0 -9 -26 -30 -57z
m-1455 -89 c72 -61 174 -159 154 -148 -8 4 -61 48 -117 96 -102 89 -168 160
-156 171 3 4 18 -11 33 -32 16 -21 54 -60 86 -87z m1427 94 c-72 -78 -105
-110 -93 -93 17 24 102 115 109 115 2 0 -5 -10 -16 -22z m68 -11 l-24 -22 19
27 c10 14 21 24 23 22 3 -3 -6 -15 -18 -27z m-1607 -14 c8 -16 52 -62 98 -104
161 -147 170 -156 99 -103 -36 27 -96 79 -135 116 -38 37 -73 65 -78 62 -4 -3
-8 1 -8 10 0 8 -3 21 -6 30 -10 27 15 17 30 -11z m1504 -123 c-77 -80 -121
-120 -97 -90 42 54 229 243 235 238 1 -2 -61 -68 -138 -148z m-1533 94 c9 -14
14 -28 11 -31 -8 -9 -46 27 -46 44 0 21 16 15 35 -13z m1705 18 c0 -4 -57 -66
-127 -137 -70 -72 -126 -135 -125 -141 1 -6 -8 -19 -19 -30 l-22 -19 14 25 c7
14 13 28 12 31 -3 11 244 276 260 278 4 1 7 -3 7 -7z m-1717 -67 c33 -52 143
-166 240 -249 37 -32 66 -60 63 -63 -5 -5 -165 122 -178 141 -5 7 -8 7 -8 -1
0 -7 34 -41 75 -75 41 -34 75 -66 75 -71 0 -32 -310 266 -325 312 -8 27 3 42
15 20 13 -22 49 -65 50 -58 0 3 -11 20 -25 39 -14 19 -25 38 -25 42 0 19 17 5
43 -37z m1747 32 c0 -8 -52 -65 -115 -127 -63 -63 -110 -117 -105 -120 15 -9
-16 -46 -68 -81 l-47 -32 55 57 c30 31 50 56 44 56 -5 0 -16 -6 -24 -12 -7 -7
-1 3 14 22 38 47 229 247 239 249 4 0 7 -5 7 -12z m-1635 -78 c39 -33 72 -65
74 -72 4 -10 -19 3 -39 23 -31 31 -92 80 -100 80 -6 0 18 -26 53 -57 35 -32
64 -62 66 -68 1 -5 16 -26 34 -45 17 -19 -17 13 -77 71 -63 62 -106 111 -102
118 11 18 17 14 91 -50z m1669 52 c4 -5 -52 -68 -124 -140 -71 -72 -130 -129
-130 -125 0 15 64 96 95 120 19 14 34 29 33 32 -2 9 104 122 114 122 4 0 9 -4
12 -9z m-314 -44 c0 -2 -10 -12 -22 -23 l-23 -19 19 23 c18 21 26 27 26 19z
m20 -20 c0 -2 -19 -21 -42 -42 l-43 -40 40 43 c36 39 45 47 45 39z m-1181
-184 c31 -30 49 -51 41 -47 -15 8 -54 42 -125 108 -38 36 -38 37 -6 16 18 -13
59 -47 90 -77z m32 -90 c13 -16 12 -17 -3 -4 -17 13 -22 21 -14 21 2 0 10 -8
17 -17z m0 -30 c13 -16 12 -17 -3 -4 -17 13 -22 21 -14 21 2 0 10 -8 17 -17z
m1253 -85 c-4 -7 -20 -29 -35 -48 -30 -40 -60 -105 -52 -114 4 -3 -3 -14 -13
-23 -11 -10 -26 -33 -33 -51 -14 -34 -36 -56 -24 -25 3 10 9 23 13 28 4 6 17
35 29 65 22 51 105 180 117 180 3 0 2 -6 -2 -12z m796 -273 c-15 -99 -63 -326
-67 -321 -2 2 10 88 26 192 17 104 34 234 38 289 l8 100 3 -95 c2 -52 -2 -126
-8 -165z m-2969 75 c0 -41 3 -70 7 -63 4 6 8 -10 8 -35 1 -41 9 -111 29 -239
10 -69 -15 3 -35 102 -28 135 -41 259 -34 318 7 50 8 51 16 22 5 -16 9 -64 9
-105z m3137 -98 c120 -162 178 -291 208 -465 44 -252 -66 -609 -274 -887 -63
-84 -82 -103 -82 -81 0 5 33 65 74 133 88 149 116 203 156 303 46 116 36 110
-26 -16 -54 -110 -152 -278 -181 -309 -12 -13 -13 -13 -8 1 4 10 0 16 -8 16
-9 0 -12 -7 -10 -18 3 -9 0 -20 -6 -23 -7 -4 -8 -1 -5 8 14 36 -8 12 -31 -34
-14 -27 -27 -50 -30 -50 -2 0 9 32 25 70 32 77 32 90 0 33 -30 -54 -20 -26 45
125 31 73 55 135 53 138 -3 2 -19 -30 -37 -71 -18 -41 -38 -75 -43 -75 -6 0
-8 -6 -5 -13 3 -8 -1 -14 -8 -14 -9 0 -3 19 18 56 19 34 25 51 14 42 -9 -7
-31 -38 -48 -67 -17 -30 -32 -54 -35 -54 -7 0 54 111 81 149 14 19 25 39 25
45 0 6 -9 -4 -20 -21 -32 -53 -31 -38 1 33 16 37 27 69 25 71 -3 3 -23 -30
-45 -73 -22 -44 -40 -76 -41 -73 0 10 60 171 80 210 34 66 14 43 -32 -37 -80
-141 -98 -169 -98 -160 0 5 21 47 46 93 25 47 44 86 42 89 -3 2 -24 -30 -47
-71 -24 -41 -45 -75 -47 -75 -11 0 33 84 85 160 69 102 74 110 67 110 -6 0
-77 -99 -123 -173 -18 -28 -33 -44 -33 -36 0 9 17 42 38 75 56 87 58 92 35 71
-16 -13 -22 -15 -25 -5 -3 7 -16 -5 -31 -27 -15 -22 -27 -35 -27 -29 0 6 12
29 28 50 15 21 40 59 56 84 l28 45 -43 -45 c-24 -25 -52 -56 -61 -70 -14 -19
-16 -20 -11 -5 3 11 10 25 14 31 5 6 16 30 24 54 8 23 31 66 50 94 l36 51 -35
-38 c-19 -21 -46 -63 -60 -93 -14 -30 -28 -54 -31 -54 -10 0 29 86 63 140 19
30 28 49 19 42 -9 -8 -30 -36 -48 -63 -17 -27 -34 -48 -36 -45 -7 7 46 96 76
129 34 38 15 34 -29 -5 l-35 -33 36 40 c58 65 66 83 19 40 -24 -22 -38 -32
-31 -22 7 9 10 17 6 17 -5 0 -1 8 8 18 10 10 15 21 11 24 -3 3 17 28 44 55 27
27 55 60 62 74 7 13 -13 -3 -44 -36 l-57 -60 28 52 c15 28 31 49 34 47 7 -4
32 22 43 46 4 8 -4 2 -18 -15 -30 -35 -35 -20 -6 18 11 14 20 31 20 39 0 7
-14 -7 -31 -32 -34 -49 -32 -20 2 36 11 18 17 39 13 47 -3 8 3 46 14 84 11 37
25 97 32 131 l13 64 22 -29 c53 -66 64 -74 29 -21 -22 35 -38 74 -41 100 -3
24 -3 41 0 38 3 -3 36 -47 75 -98z m-3275 -24 c-51 -99 -52 -103 -2 -29 l43
64 18 -84 c33 -162 46 -214 62 -253 22 -52 20 -59 -5 -13 -27 52 -33 46 -7 -8
12 -24 25 -42 30 -39 4 3 9 -1 10 -8 0 -7 2 -17 2 -23 1 -5 5 -16 9 -22 5 -7
4 -13 0 -13 -5 0 -15 6 -23 13 -8 6 -3 -1 11 -18 49 -58 53 -70 10 -30 l-44
40 42 -53 c22 -30 41 -59 41 -64 0 -6 -13 6 -30 27 -16 21 -30 35 -30 31 0 -4
14 -25 32 -47 23 -29 34 -36 41 -27 6 9 7 8 3 -5 -3 -10 2 -30 11 -45 l17 -27
-23 20 -24 20 17 -27 c19 -29 58 -130 52 -135 -2 -2 -20 29 -41 69 -56 111
-62 106 -10 -7 26 -55 49 -107 52 -115 9 -28 -59 83 -77 126 -10 23 -23 45
-29 48 -6 4 12 -38 39 -94 55 -111 61 -127 28 -84 -39 52 -41 50 -9 -13 17
-35 29 -63 27 -63 -3 0 -21 27 -42 60 -50 82 -54 70 -5 -16 21 -38 42 -80 45
-94 4 -14 -5 -2 -20 25 -15 28 -30 52 -33 55 -4 3 -17 22 -30 43 -43 71 -31
37 24 -67 58 -109 76 -159 24 -66 -17 30 -37 60 -43 65 -7 6 -20 24 -30 40
-15 26 -16 27 -10 5 3 -14 12 -32 18 -40 18 -22 36 -68 36 -90 0 -11 9 -36 19
-57 11 -21 22 -49 25 -63 10 -38 -39 55 -70 133 -14 38 -28 66 -31 63 -6 -6
20 -89 54 -169 13 -33 22 -64 21 -69 -2 -6 -17 19 -32 56 -39 92 -44 77 -6
-20 44 -112 44 -111 27 -89 -8 11 -29 55 -47 98 -18 42 -35 76 -37 73 -5 -4
49 -140 78 -199 34 -68 5 -28 -37 50 -21 40 -40 71 -41 69 -2 -1 20 -51 48
-110 28 -60 49 -109 47 -111 -2 -2 -32 52 -68 121 -35 68 -66 122 -68 120 -2
-2 21 -55 52 -118 60 -124 78 -168 70 -168 -3 0 -21 34 -41 75 -19 41 -37 75
-39 75 -5 0 32 -92 57 -143 32 -63 4 -31 -37 44 -39 70 -39 64 0 -23 32 -71
26 -76 -9 -8 -34 68 -40 63 -9 -7 40 -90 13 -52 -81 115 -105 188 -141 266
-165 357 -11 39 -19 61 -19 49 -2 -65 45 -187 149 -389 60 -117 110 -216 110
-220 0 -28 -152 204 -218 332 -99 194 -137 358 -129 558 6 150 22 217 77 332
58 123 201 327 208 298 2 -8 -14 -46 -35 -87z m2124 45 c-3 -10 -5 -4 -5 12 0
17 2 24 5 18 2 -7 2 -21 0 -30z m994 -316 c-10 -9 -11 -8 -5 6 3 10 9 15 12
12 3 -3 0 -11 -7 -18z m-71 -594 c-1 -5 -12 -21 -27 -38 -26 -30 -26 -30 11
33 8 13 16 16 16 5z m-2821 -163 c0 -18 -24 25 -33 60 -5 19 -2 16 13 -10 11
-19 20 -42 20 -50z m2824 -42 c-26 -66 -41 -91 -28 -48 12 38 44 110 49 110 3
0 -7 -28 -21 -62z m-2115 26 c12 -8 27 -25 33 -37 9 -16 1 -13 -27 13 -21 19
-41 36 -43 38 -2 1 0 2 5 2 5 0 20 -7 32 -16z m2113 -101 c-12 -20 -14 -14 -5
12 4 9 9 14 11 11 3 -2 0 -13 -6 -23z m15 -130 c-14 -26 -25 -45 -26 -41 0 12
43 98 48 94 2 -2 -8 -26 -22 -53z m25 -116 c-10 -9 -11 -8 -5 6 3 10 9 15 12
12 3 -3 0 -11 -7 -18z m-2928 -158 c-18 -5 -33 -12 -33 -14 0 -2 15 -2 33 0
l32 5 -35 -14 c-25 -10 -29 -15 -15 -15 17 -1 17 -3 5 -11 -8 -5 -10 -10 -5
-11 6 -1 -6 -5 -25 -9 l-35 -7 40 -2 40 -3 -40 -13 c-39 -13 -39 -13 -10 -15
l30 -2 -35 -12 c-19 -7 -51 -19 -70 -28 l-35 -16 53 4 c30 2 57 6 62 9 4 3 7
-6 6 -20 0 -14 -5 -25 -9 -25 -5 0 -5 -5 -2 -10 4 -6 -1 -22 -10 -36 -9 -13
-13 -29 -10 -34 3 -6 3 -15 -1 -22 -8 -13 -9 -23 -12 -142 -3 -111 -11 -91
-13 32 -1 56 -6 102 -11 102 -5 0 -4 10 3 21 7 13 7 19 1 15 -6 -3 -17 3 -25
14 -13 19 -15 19 -21 4 -4 -9 -4 -19 -1 -22 3 -3 5 0 5 7 0 7 5 9 10 6 6 -3
10 -18 9 -33 0 -15 -3 -21 -6 -13 -3 7 -19 26 -36 42 -57 55 -137 25 -178 -66
-21 -44 -26 -176 -10 -233 13 -44 -3 -41 -25 6 -26 53 -30 165 -9 238 50 173
159 278 330 320 59 14 105 17 58 3z m3019 -32 c67 -30 149 -103 185 -164 48
-83 64 -140 64 -233 0 -94 -13 -142 -50 -174 -25 -23 -26 -21 -5 35 25 69 23
174 -5 232 -48 98 -138 130 -193 68 l-27 -31 -12 23 c-6 12 -21 32 -32 45 -11
12 -16 22 -11 22 5 0 2 4 -6 10 -22 14 -5 23 19 10 31 -16 25 -3 -6 15 -28 16
-13 16 32 0 11 -4 7 2 -10 14 -16 11 -35 21 -42 21 -6 0 -15 5 -19 11 -5 9 1
10 22 5 16 -4 38 -9 49 -12 11 -2 -2 7 -30 20 -42 20 -46 25 -25 26 25 2 25 2
-4 12 -21 8 -25 13 -15 19 11 7 9 9 -6 9 -17 0 -17 2 -5 10 12 8 10 10 -10 11
-14 0 -19 3 -11 6 11 5 11 7 0 15 -29 20 97 -1 153 -25z m-3208 -253 c9 -8 17
-34 17 -57 1 -23 3 -33 6 -22 2 11 6 31 9 44 l5 24 15 -27 c10 -20 14 -60 13
-140 -1 -115 6 -182 24 -203 7 -9 5 -13 -7 -13 -10 0 -16 9 -17 23 -1 18 -2
19 -6 3 -4 -16 -11 -18 -49 -12 -122 16 -169 81 -162 221 3 57 10 92 24 116
32 55 95 76 128 43z m3313 -1 c19 -9 47 -34 61 -56 24 -36 27 -50 27 -126 0
-146 -43 -193 -191 -207 l-66 -7 13 24 c15 27 19 187 6 259 -5 31 -4 40 3 30
5 -8 11 -31 12 -50 1 -20 4 -7 7 30 l6 65 14 -60 c16 -67 19 -169 8 -230 -6
-32 -5 -36 4 -22 19 31 23 134 9 240 -12 94 -12 101 6 114 23 17 39 16 81 -4z
m-158 -53 c0 -10 -3 -8 -9 5 -12 27 -12 43 0 25 5 -8 9 -22 9 -30z m-3072
-192 c-2 -35 -3 -9 -3 57 0 66 1 94 3 63 2 -32 2 -86 0 -120z m1128 113 c51
-23 78 -54 106 -115 39 -88 21 -214 -34 -251 -47 -30 -180 -46 -402 -46 -115
0 -244 5 -285 10 -41 6 -81 11 -88 11 -7 0 -22 19 -32 43 -67 146 52 357 200
357 75 0 138 -45 180 -130 33 -66 41 -96 48 -189 8 -102 27 -120 37 -34 24
211 110 359 210 362 11 0 38 -8 60 -18z m1000 -11 c66 -41 117 -155 137 -307
14 -105 31 -104 40 3 12 133 49 227 113 282 42 38 71 46 132 39 102 -11 188
-122 199 -257 7 -88 -14 -130 -71 -144 -22 -5 -177 -10 -345 -10 -266 -1 -312
1 -363 17 -67 21 -92 51 -102 128 -12 88 39 208 108 250 42 25 110 25 152 -1z
m-2108 -197 c-3 -10 -5 -2 -5 17 0 19 2 27 5 18 2 -10 2 -26 0 -35z m-339 -20
c-15 -2 -42 -2 -60 0 -18 2 -6 4 27 4 33 0 48 -2 33 -4z m3300 -22 c24 -15 8
-45 -37 -70 -24 -13 -42 -20 -39 -15 2 5 12 28 22 52 18 42 29 49 54 33z m439
-7 c-3 -3 -12 -4 -19 -1 -8 3 -5 6 6 6 11 1 17 -2 13 -5z m-3690 -50 c-3 -3
-12 -4 -19 -1 -8 3 -5 6 6 6 11 1 17 -2 13 -5z m91 -31 c-15 -2 -42 -2 -60 0
-18 2 -6 4 27 4 33 0 48 -2 33 -4z"/>
<path d="M4504 8211 c-116 -45 -206 -117 -245 -193 -11 -22 -18 -42 -16 -44 2
-3 10 9 17 26 17 41 120 134 183 167 29 14 81 37 117 49 40 14 55 23 40 23
-14 0 -57 -12 -96 -28z"/>
<path d="M5647 8196 c116 -54 202 -130 239 -210 13 -28 24 -45 24 -38 0 29
-48 110 -90 153 -43 43 -144 100 -200 113 -14 4 -2 -5 27 -18z"/>
<path d="M6521 7684 c0 -11 3 -14 6 -6 3 7 2 16 -1 19 -3 4 -6 -2 -5 -13z"/>
<path d="M6533 7565 c0 -38 2 -53 4 -32 2 20 2 52 0 70 -2 17 -4 1 -4 -38z"/>
<path d="M3553 7565 c0 -27 2 -38 4 -22 2 15 2 37 0 50 -2 12 -4 0 -4 -28z"/>
<path d="M4316 7501 c-14 -109 -91 -212 -209 -280 -78 -44 -160 -114 -180
-152 l-18 -34 21 28 c27 34 115 101 196 150 118 71 190 172 201 283 7 67 -2
72 -11 5z"/>
<path d="M5766 7505 c7 -62 29 -119 67 -172 33 -47 69 -77 181 -152 43 -29 97
-70 119 -90 l41 -36 -34 43 c-19 23 -79 74 -135 112 -56 38 -118 87 -139 110
-42 47 -85 132 -87 170 0 14 -5 34 -10 45 -6 14 -7 5 -3 -30z"/>
<path d="M3553 7460 c0 -30 2 -43 4 -27 2 15 2 39 0 55 -2 15 -4 2 -4 -28z"/>
<path d="M3607 7332 c-31 -118 -38 -162 -35 -210 3 -46 3 -45 21 38 28 130 44
240 36 240 -2 0 -12 -30 -22 -68z"/>
<path d="M6476 7340 c4 -30 8 -71 10 -90 2 -19 12 -62 23 -95 l21 -60 -6 60
c-3 33 -16 101 -30 150 -21 78 -23 83 -18 35z"/>
<path d="M3948 6854 c-52 -16 -150 -99 -182 -155 -15 -26 -7 -20 33 23 74 81
122 102 221 96 67 -4 87 -10 130 -36 39 -24 48 -27 40 -13 -14 27 -79 76 -119
89 -43 15 -64 14 -123 -4z"/>
<path d="M5979 6841 c-52 -35 -69 -49 -89 -75 -12 -15 -6 -14 26 6 132 84 257
72 364 -34 50 -50 38 -18 -16 42 -81 90 -202 115 -285 61z"/>
<path d="M4895 6706 c-86 -14 -195 -43 -195 -52 0 -4 7 -3 16 0 50 19 205 37
324 37 119 0 176 -5 310 -26 l35 -5 -38 14 c-51 20 -230 46 -308 45 -35 -1
-100 -7 -144 -13z"/>
<path d="M3912 6530 c-61 -36 -83 -71 -63 -102 12 -19 11 -20 -12 -14 -14 3
-32 9 -41 12 -19 7 -21 -8 -5 -38 10 -18 8 -19 -13 -13 -21 6 -20 4 7 -19 29
-24 29 -25 7 -26 -29 0 -19 -20 11 -21 14 -1 9 -4 -13 -9 l-35 -7 42 -2 c23 0
45 4 48 9 13 21 23 8 35 -42 17 -75 53 -132 94 -152 44 -21 71 -20 138 3 l55
19 28 -26 c23 -23 27 -24 21 -7 -4 11 -18 70 -31 131 -33 161 -63 212 -142
240 -54 19 -93 17 -138 -6 -53 -27 -60 -25 -29 9 28 32 90 61 130 61 13 0 41
-9 62 -19 89 -46 122 -117 178 -381 25 -120 51 -198 39 -120 -49 346 -87 452
-186 517 -61 40 -121 41 -187 3z m144 -165 c29 -29 27 -49 -4 -53 -24 -4 -57
39 -48 63 8 22 23 19 52 -10z m-132 -142 c9 -18 14 -33 12 -33 -6 0 -36 55
-36 66 0 11 5 3 24 -33z"/>
<path d="M4912 6549 c-159 -19 -292 -73 -380 -156 l-47 -44 66 49 c70 52 169
94 270 113 94 18 385 14 484 -6 84 -18 204 -68 264 -111 31 -22 30 -20 -8 15
-124 116 -381 171 -649 140z"/>
<path d="M6005 6537 c-51 -29 -101 -95 -120 -160 -14 -49 -55 -317 -55 -361 0
-47 12 2 40 160 36 202 68 279 133 322 57 38 129 38 182 0 21 -15 42 -25 47
-22 13 8 -1 24 -50 55 -58 37 -119 39 -177 6z"/>
<path d="M6057 6466 c-82 -30 -119 -92 -141 -236 -8 -52 -19 -108 -25 -123
-17 -43 -14 -44 20 -9 36 36 48 38 91 16 42 -22 139 -15 169 12 30 27 58 87
66 139 5 41 26 62 35 34 2 -6 22 -9 48 -7 l45 3 -35 11 -35 12 35 16 35 17
-32 -4 c-38 -4 -39 -1 -13 33 27 35 25 42 -9 22 -31 -17 -53 -10 -33 10 18 18
14 32 -5 17 -15 -12 -16 -12 -10 4 6 15 3 17 -14 12 -13 -4 -27 0 -40 11 -25
22 -104 28 -152 10z m16 -98 c5 -17 -12 -56 -29 -62 -7 -3 -18 2 -24 10 -10
11 -9 19 4 39 18 27 42 33 49 13z m122 -143 c-16 -42 -45 -79 -45 -57 0 6 4
13 10 17 5 3 17 31 27 62 10 32 19 49 21 39 2 -10 -4 -38 -13 -61z"/>
<path d="M4937 6269 c-101 -11 -212 -41 -287 -79 -33 -17 -60 -32 -60 -34 0
-2 33 9 73 24 127 50 227 63 442 57 198 -5 261 -16 378 -66 26 -11 47 -18 47
-16 0 11 -125 66 -192 85 -63 17 -262 42 -308 39 -8 -1 -50 -5 -93 -10z"/>
<path d="M3855 6185 c8 -37 45 -86 91 -121 45 -35 117 -43 163 -19 42 21 36
26 -14 15 -66 -16 -99 -11 -147 19 -32 20 -53 45 -73 82 -19 37 -25 45 -20 24z"/>
<path d="M6250 6172 c0 -20 -52 -73 -92 -93 -22 -11 -61 -21 -89 -21 -30 -1
-44 -5 -37 -10 33 -20 122 0 168 39 32 27 65 81 56 91 -3 3 -6 0 -6 -6z"/>
<path d="M4900 6073 c-120 -18 -226 -57 -280 -102 -19 -16 -11 -14 35 9 118
58 302 87 490 75 131 -8 233 -33 335 -80 50 -24 67 -28 50 -15 -48 39 -152 82
-243 101 -86 17 -307 25 -387 12z"/>
<path d="M4865 5886 c-93 -22 -145 -43 -202 -82 -29 -20 -53 -39 -53 -41 0 -3
15 5 33 17 105 70 213 94 427 94 190 0 287 -20 400 -80 43 -23 56 -27 40 -13
-34 29 -113 68 -185 92 -80 25 -370 34 -460 13z"/>
<path d="M4941 5770 c-145 -20 -280 -80 -346 -151 l-30 -33 42 32 c113 87 229
116 468 116 229 0 318 -22 445 -111 28 -21 27 -17 -10 16 -53 49 -163 104
-240 121 -75 15 -251 21 -329 10z"/>
<path d="M4978 5550 c-37 -5 -91 -16 -120 -26 -52 -17 -168 -71 -168 -78 0 -2
33 9 73 24 109 43 189 53 356 47 144 -5 216 -19 314 -60 58 -25 44 -11 -24 24
-118 59 -290 87 -431 69z"/>
<path d="M3856 5457 c3 -10 9 -15 12 -12 3 3 0 11 -7 18 -10 9 -11 8 -5 -6z"/>
<path d="M3991 5434 c0 -11 3 -14 6 -6 3 7 2 16 -1 19 -3 4 -6 -2 -5 -13z"/>
<path d="M6061 5384 c0 -11 3 -14 6 -6 3 7 2 16 -1 19 -3 4 -6 -2 -5 -13z"/>
<path d="M4021 5350 c0 -8 4 -22 9 -30 12 -18 12 -2 0 25 -6 13 -9 15 -9 5z"/>
<path d="M6041 5329 c-6 -18 -9 -34 -7 -36 2 -2 9 10 15 28 6 18 9 34 7 36 -2
2 -9 -10 -15 -28z"/>
<path d="M4953 5330 c-143 -30 -281 -99 -353 -176 l-35 -38 50 40 c108 87 215
128 371 142 241 23 429 -24 559 -140 53 -47 56 -49 31 -16 -41 55 -150 124
-251 159 -78 28 -106 32 -210 35 -66 2 -139 -1 -162 -6z"/>
<path d="M4040 5294 c0 -5 7 -18 15 -28 8 -11 15 -16 15 -10 0 5 -7 18 -15 28
-8 11 -15 16 -15 10z"/>
<path d="M4920 5086 c-67 -15 -228 -97 -261 -133 -22 -24 -20 -24 24 6 110 74
242 111 399 111 110 0 254 -28 335 -64 32 -14 49 -19 38 -10 -36 27 -139 73
-200 89 -71 18 -255 19 -335 1z"/>
<path d="M4403 4895 c0 -22 2 -30 4 -17 2 12 2 30 0 40 -3 9 -5 -1 -4 -23z"/>
<path d="M5006 4859 c-90 -12 -180 -35 -230 -61 -64 -32 -144 -96 -161 -128
-23 -44 -18 -49 9 -9 27 40 108 97 174 122 120 47 319 59 471 27 124 -25 188
-58 252 -128 l53 -57 -25 44 c-13 24 -40 56 -59 71 -50 39 -158 97 -205 109
-59 15 -200 20 -279 10z"/>
<path d="M4930 4629 c-118 -31 -270 -109 -270 -140 0 -5 17 4 38 20 82 66 217
101 392 101 177 0 334 -42 403 -108 19 -18 26 -21 22 -10 -8 21 -90 83 -131
99 -153 60 -318 74 -454 38z"/>
<path d="M4951 4435 c-84 -19 -157 -43 -198 -67 -46 -27 -41 -31 10 -8 90 40
175 53 342 54 139 1 169 -2 231 -21 40 -13 96 -39 125 -59 l54 -36 -34 36
c-90 93 -342 141 -530 101z"/>
<path d="M5010 4250 c-80 -9 -175 -39 -235 -74 -59 -35 -58 -43 3 -12 143 73
465 75 629 5 38 -16 43 -17 33 -4 -52 62 -265 104 -430 85z"/>
<path d="M4965 4054 c-83 -20 -115 -30 -147 -46 -56 -27 -46 -30 20 -5 51 19
78 21 257 22 210 0 228 -3 330 -51 l50 -24 -35 30 c-59 51 -144 72 -310 76
-80 1 -154 1 -165 -2z"/>
<path d="M5030 3894 c-72 -11 -141 -29 -187 -50 -70 -30 -68 -38 3 -14 79 27
236 41 343 30 89 -10 157 -32 215 -72 l31 -21 -30 32 c-47 50 -120 81 -221 91
-90 10 -109 10 -154 4z"/>
<path d="M4967 3689 c-31 -5 -76 -17 -100 -29 -25 -12 -32 -18 -17 -15 175 36
313 32 440 -13 89 -32 85 -19 -8 25 -83 39 -192 50 -315 32z"/>
<path d="M4885 3476 c-23 -7 -50 -18 -60 -24 -17 -10 -14 -10 15 -4 19 4 94 7
165 7 144 0 235 -20 311 -70 l39 -26 -40 36 c-48 42 -83 60 -161 80 -70 18
-213 19 -269 1z"/>
<path d="M4895 3304 c-11 -3 -37 -10 -57 -15 -21 -5 -38 -14 -38 -19 0 -4 17
-4 38 2 20 6 86 8 147 6 97 -4 118 -8 180 -37 39 -17 87 -45 107 -62 21 -16
35 -23 32 -14 -9 22 -93 81 -158 111 -42 19 -76 26 -143 29 -49 2 -97 2 -108
-1z"/>
<path d="M4800 3134 c-29 -12 -81 -46 -76 -51 2 -2 17 2 34 11 16 8 58 18 93
21 76 8 191 -19 267 -60 l47 -27 -30 27 c-59 53 -132 79 -230 82 -49 1 -97 0
-105 -3z"/>
<path d="M4165 2700 c-39 -7 -39 -7 -7 -9 18 0 56 -11 83 -22 27 -12 52 -19
56 -15 3 3 1 6 -6 6 -7 0 -9 5 -5 12 4 6 3 8 -3 5 -5 -3 -27 -1 -47 5 -31 10
-35 13 -20 19 23 9 4 9 -51 -1z"/>
<path d="M4845 2270 c9 -16 18 -30 21 -30 2 0 -2 14 -11 30 -9 17 -18 30 -21
30 -2 0 2 -13 11 -30z"/>
<path d="M4821 2234 c0 -11 3 -14 6 -6 3 7 2 16 -1 19 -3 4 -6 -2 -5 -13z"/>
<path d="M4766 2217 c3 -10 9 -15 12 -12 3 3 0 11 -7 18 -10 9 -11 8 -5 -6z"/>
<path d="M4198 2204 c13 -25 42 -50 42 -37 0 5 -12 20 -26 34 -24 21 -26 22
-16 3z"/>
<path d="M4736 2207 c3 -10 9 -15 12 -12 3 3 0 11 -7 18 -10 9 -11 8 -5 -6z"/>
<path d="M4250 2171 c0 -6 4 -13 10 -16 6 -3 7 1 4 9 -7 18 -14 21 -14 7z"/>
<path d="M4286 2155 c4 -8 11 -15 16 -15 6 0 5 6 -2 15 -7 8 -14 15 -16 15 -2
0 -1 -7 2 -15z"/>
<path d="M4551 2150 c14 -31 19 -36 19 -24 0 6 -7 19 -16 30 -14 18 -14 18 -3
-6z"/>
<path d="M4320 2156 c0 -2 8 -10 18 -17 15 -13 16 -12 3 4 -13 16 -21 21 -21
13z"/>
<path d="M4440 2120 c6 -11 13 -20 16 -20 2 0 0 9 -6 20 -6 11 -13 20 -16 20
-2 0 0 -9 6 -20z"/>
<path d="M2070 8138 c-198 -109 -378 -280 -525 -498 -58 -87 -191 -347 -181
-357 2 -3 23 30 44 73 40 80 159 267 214 337 16 20 31 44 32 52 6 40 262 273
401 365 126 84 130 92 15 28z"/>
<path d="M1685 7775 c-16 -14 -25 -25 -19 -25 6 0 21 11 34 25 30 32 24 31
-15 0z"/>
<path d="M1560 7565 c-17 -25 -29 -45 -26 -45 3 0 19 20 36 45 17 25 29 45 26
45 -3 0 -19 -20 -36 -45z"/>
<path d="M2658 7513 c6 -2 18 -2 25 0 6 3 1 5 -13 5 -14 0 -19 -2 -12 -5z"/>
<path d="M2701 7506 c2 -2 27 -6 54 -9 34 -4 42 -3 25 3 -25 8 -87 13 -79 6z"/>
<path d="M2748 7463 c7 -3 16 -2 19 1 4 3 -2 6 -13 5 -11 0 -14 -3 -6 -6z"/>
<path d="M2748 7403 c7 -3 16 -2 19 1 4 3 -2 6 -13 5 -11 0 -14 -3 -6 -6z"/>
<path d="M2793 7393 c9 -2 23 -2 30 0 6 3 -1 5 -18 5 -16 0 -22 -2 -12 -5z"/>
<path d="M1683 7196 c-96 -52 -160 -95 -188 -126 -11 -12 11 -1 48 25 38 26
108 70 155 96 108 61 96 64 -15 5z"/>
<path d="M3088 7113 c7 -3 16 -2 19 1 4 3 -2 6 -13 5 -11 0 -14 -3 -6 -6z"/>
<path d="M3123 7053 c15 -2 39 -2 55 0 15 2 2 4 -28 4 -30 0 -43 -2 -27 -4z"/>
<path d="M3180 6990 c-9 -6 -10 -10 -3 -10 6 0 15 5 18 10 8 12 4 12 -15 0z"/>
<path d="M1490 6980 c-9 -6 -10 -10 -3 -10 6 0 15 5 18 10 8 12 4 12 -15 0z"/>
<path d="M3229 6945 c-1 -3 -2 -8 -3 -12 -1 -5 -8 -19 -15 -33 l-14 -25 26 25
c14 14 22 27 16 28 -5 2 -7 8 -3 13 3 5 3 9 0 9 -3 0 -7 -2 -7 -5z"/>
<path d="M3236 6873 c-6 -14 -5 -15 5 -6 7 7 10 15 7 18 -3 3 -9 -2 -12 -12z"/>
<path d="M3320 6831 c0 -7 -4 -10 -9 -6 -5 3 -13 0 -17 -6 -4 -8 -3 -9 4 -5
17 10 15 -6 -4 -32 -9 -13 -14 -26 -11 -29 3 -3 15 14 27 37 12 23 19 45 16
48 -3 3 -6 0 -6 -7z"/>
<path d="M1514 6778 l-19 -23 25 20 c14 11 27 21 29 22 2 2 0 3 -6 3 -5 0 -18
-10 -29 -22z"/>
<path d="M1459 6733 l-24 -28 28 24 c25 23 32 31 24 31 -2 0 -14 -12 -28 -27z"/>
<path d="M3236 6743 c-6 -14 -5 -15 5 -6 7 7 10 15 7 18 -3 3 -9 -2 -12 -12z"/>
<path d="M3296 6675 c-9 -26 -7 -32 5 -12 6 10 9 21 6 23 -2 3 -7 -2 -11 -11z"/>
<path d="M1702 6598 c-56 -35 -114 -73 -129 -86 -27 -21 169 95 218 130 52 37
8 15 -89 -44z"/>
<path d="M3296 6599 c-10 -33 -15 -63 -12 -66 4 -5 13 23 32 100 12 53 -4 26
-20 -34z"/>
<path d="M3270 6600 c-15 -55 -7 -63 9 -9 7 22 10 43 7 46 -2 3 -10 -14 -16
-37z"/>
<path d="M3245 6500 c-4 -23 -5 -43 -2 -46 2 -3 7 14 11 37 4 23 5 44 2 46 -2
2 -7 -14 -11 -37z"/>
<path d="M3274 6488 c4 -22 2 -55 -5 -79 -16 -53 4 -414 31 -544 28 -135 91
-397 96 -393 2 3 -22 117 -53 254 l-56 249 -3 268 c-1 148 -5 271 -9 275 -4 4
-5 -10 -1 -30z"/>
<path d="M3291 6504 c0 -11 3 -14 6 -6 3 7 2 16 -1 19 -3 4 -6 -2 -5 -13z"/>
<path d="M1630 6449 l-45 -41 42 32 c37 27 61 51 51 50 -2 0 -23 -19 -48 -41z"/>
<path d="M3237 6210 c3 -118 9 -225 12 -239 8 -29 2 190 -9 344 -6 77 -6 46
-3 -105z"/>
<path d="M3201 6309 c0 -57 4 -124 8 -149 5 -26 6 16 3 100 -3 80 -6 147 -8
149 -2 2 -4 -43 -3 -100z"/>
<path d="M1799 6299 l-84 -81 88 78 c48 42 87 79 87 81 0 8 -13 -3 -91 -78z"/>
<path d="M3162 6280 c0 -19 2 -27 5 -17 2 9 2 25 0 35 -3 9 -5 1 -5 -18z"/>
<path d="M3290 6219 c0 -38 23 -194 41 -279 11 -52 29 -141 39 -198 11 -56 25
-122 31 -145 6 -23 24 -114 39 -202 15 -88 28 -144 29 -125 0 40 -27 198 -59
340 -11 52 -25 130 -31 174 -5 43 -12 82 -14 86 -7 11 -41 185 -55 280 -10 69
-20 103 -20 69z"/>
<path d="M2083 6026 c-32 -41 -66 -90 -76 -108 l-18 -33 20 25 c43 55 141 190
136 190 -2 0 -30 -33 -62 -74z"/>
<path d="M3394 5975 c4 -16 20 -75 35 -130 39 -136 90 -350 96 -405 3 -27 -6
-4 -24 60 -36 131 -49 169 -50 149 -1 -8 10 -52 24 -97 13 -45 27 -110 31
-145 4 -34 10 -55 12 -47 3 8 14 -23 23 -70 10 -47 16 -67 13 -45 -2 22 -9 90
-14 150 -9 121 -27 208 -72 360 -16 55 -38 132 -50 170 -21 72 -36 103 -24 50z"/>
<path d="M2516 5838 c-120 -132 -256 -366 -270 -463 -3 -22 -3 -33 0 -25 49
120 85 198 120 257 49 82 142 213 187 261 17 17 28 32 25 32 -4 0 -32 -28 -62
-62z"/>
<path d="M3390 5785 c0 -5 7 -34 15 -64 7 -31 18 -74 23 -96 7 -28 10 -33 11
-15 1 27 -34 168 -43 178 -3 3 -6 2 -6 -3z"/>
<path d="M3445 5560 c3 -14 15 -79 26 -145 19 -110 29 -151 29 -114 0 40 -31
209 -45 244 -8 22 -13 29 -10 15z"/>
<path d="M3401 5444 c0 -11 3 -14 6 -6 3 7 2 16 -1 19 -3 4 -6 -2 -5 -13z"/>
<path d="M2865 5287 c-37 -81 -80 -203 -89 -257 -4 -19 15 26 42 100 27 74 58
156 70 183 11 26 19 47 16 47 -3 0 -21 -33 -39 -73z"/>
<path d="M3513 5275 c0 -22 2 -30 4 -17 2 12 2 30 0 40 -3 9 -5 -1 -4 -23z"/>
<path d="M3523 5195 c0 -22 2 -30 4 -17 2 12 2 30 0 40 -3 9 -5 -1 -4 -23z"/>
<path d="M3100 5008 c0 -5 -110 -305 -125 -340 -4 -11 -3 -18 4 -18 7 0 21 21
32 47 28 65 101 305 94 311 -3 3 -5 3 -5 0z"/>
<path d="M3242 4790 c0 -19 2 -27 5 -17 2 9 2 25 0 35 -3 9 -5 1 -5 -18z"/>
<path d="M3226 4709 c-4 -23 -5 -44 -2 -46 2 -2 7 14 11 37 4 23 5 43 2 46 -2
3 -7 -14 -11 -37z"/>
<path d="M8070 8177 c3 -3 39 -28 80 -54 117 -77 247 -191 339 -296 78 -90
103 -115 85 -84 -5 8 -2 7 10 -2 12 -10 14 -16 5 -21 -8 -6 -7 -10 5 -17 30
-17 190 -239 246 -342 30 -55 56 -98 58 -96 9 8 -89 200 -161 315 -107 173
-336 401 -522 522 -42 26 -154 85 -145 75z m500 -421 c-3 -2 -23 17 -44 42
l-39 47 43 -42 c24 -23 42 -44 40 -47z"/>
<path d="M7610 7600 c0 -6 21 -8 58 -4 77 9 78 14 4 14 -35 0 -62 -4 -62 -10z"/>
<path d="M8659 7553 c6 -10 22 -31 36 -48 20 -23 19 -18 -6 18 -32 46 -49 63
-30 30z"/>
<path d="M7328 7443 c6 -2 18 -2 25 0 6 3 1 5 -13 5 -14 0 -19 -2 -12 -5z"/>
<path d="M8291 7302 c98 -39 259 -125 402 -213 96 -60 93 -49 -5 18 -153 104
-366 210 -458 227 -19 4 8 -11 61 -32z"/>
<path d="M7233 7303 c9 -2 25 -2 35 0 9 3 1 5 -18 5 -19 0 -27 -2 -17 -5z"/>
<path d="M7125 7283 c-54 -8 -48 -20 7 -15 66 6 110 21 58 20 -19 -1 -48 -3
-65 -5z"/>
<path d="M7143 7163 c9 -2 23 -2 30 0 6 3 -1 5 -18 5 -16 0 -22 -2 -12 -5z"/>
<path d="M7073 7143 c9 -2 23 -2 30 0 6 3 -1 5 -18 5 -16 0 -22 -2 -12 -5z"/>
<path d="M7068 7113 c12 -2 30 -2 40 0 9 3 -1 5 -23 4 -22 0 -30 -2 -17 -4z"/>
<path d="M7033 7063 c9 -2 25 -2 35 0 9 3 1 5 -18 5 -19 0 -27 -2 -17 -5z"/>
<path d="M7020 7035 c0 -9 -10 -15 -26 -15 -14 0 -23 3 -21 8 3 4 -6 8 -20 9
-40 2 -11 -18 34 -24 35 -5 41 -2 46 16 3 11 1 21 -4 21 -5 0 -9 -7 -9 -15z"/>
<path d="M8675 7005 c22 -18 86 -53 70 -38 -5 6 -28 20 -50 32 -22 13 -31 15
-20 6z"/>
<path d="M6938 7003 c7 -3 16 -2 19 1 4 3 -2 6 -13 5 -11 0 -14 -3 -6 -6z"/>
<path d="M6951 6991 c-23 -6 -22 -7 13 -18 33 -10 36 -10 24 4 -11 14 -10 15
11 8 16 -5 21 -4 17 4 -8 12 -28 13 -65 2z"/>
<path d="M6970 6920 c0 -5 5 -10 11 -10 5 0 7 5 4 10 -3 6 -8 10 -11 10 -2 0
-4 -4 -4 -10z"/>
<path d="M8455 6903 c6 -6 71 -46 145 -89 245 -142 315 -174 140 -64 -92 57
-301 170 -285 153z"/>
<path d="M6950 6806 c0 -2 8 -10 18 -17 15 -13 16 -12 3 4 -13 16 -21 21 -21
13z"/>
<path d="M6892 6773 c2 -5 14 -32 27 -61 13 -29 26 -51 28 -49 5 6 -44 117
-52 117 -4 0 -5 -3 -3 -7z"/>
<path d="M6850 6678 c0 -9 5 -20 10 -23 13 -8 13 5 0 25 -8 13 -10 13 -10 -2z"/>
<path d="M6870 6631 c0 -6 4 -13 10 -16 6 -3 7 1 4 9 -7 18 -14 21 -14 7z"/>
<path d="M8168 6591 c104 -50 229 -125 335 -202 78 -57 80 -58 32 -14 -96 89
-333 228 -425 249 -14 4 12 -11 58 -33z"/>
<path d="M6862 6545 c0 -5 6 -26 13 -45 7 -19 14 -28 14 -20 0 8 -6 29 -14 45
-7 17 -13 26 -13 20z"/>
<path d="M6891 6450 c0 -8 4 -24 9 -35 5 -13 9 -14 9 -5 0 8 -4 24 -9 35 -5
13 -9 14 -9 5z"/>
<path d="M6861 6363 c15 -92 18 -98 13 -33 -2 35 -8 68 -13 73 -5 5 -5 -12 0
-40z"/>
<path d="M6911 6374 c0 -11 3 -14 6 -6 3 7 2 16 -1 19 -3 4 -6 -2 -5 -13z"/>
<path d="M8390 6386 c0 -2 8 -10 18 -17 15 -13 16 -12 3 4 -13 16 -21 21 -21
13z"/>
<path d="M6891 6364 c0 -11 3 -14 6 -6 3 7 2 16 -1 19 -3 4 -6 -2 -5 -13z"/>
<path d="M6843 6305 c0 -27 2 -38 4 -22 2 15 2 37 0 50 -2 12 -4 0 -4 -28z"/>
<path d="M6922 6330 c0 -14 2 -19 5 -12 2 6 2 18 0 25 -3 6 -5 1 -5 -13z"/>
<path d="M8440 6346 c0 -2 8 -10 18 -17 15 -13 16 -12 3 4 -13 16 -21 21 -21
13z"/>
<path d="M6932 6265 c0 -16 2 -22 5 -12 2 9 2 23 0 30 -3 6 -5 -1 -5 -18z"/>
<path d="M6812 6180 c0 -14 2 -19 5 -12 2 6 2 18 0 25 -3 6 -5 1 -5 -13z"/>
<path d="M6823 6115 c0 -22 2 -30 4 -17 2 12 2 30 0 40 -3 9 -5 -1 -4 -23z"/>
<path d="M6842 6080 c0 -14 2 -19 5 -12 2 6 2 18 0 25 -3 6 -5 1 -5 -13z"/>
<path d="M7995 6070 c10 -11 20 -20 23 -20 3 0 -3 9 -13 20 -10 11 -20 20 -23
20 -3 0 3 -9 13 -20z"/>
<path d="M6801 5970 c-13 -97 -25 -247 -15 -190 22 130 35 233 32 261 -2 21
-8 -7 -17 -71z"/>
<path d="M7628 5887 c102 -115 173 -217 247 -360 37 -70 68 -127 70 -127 8 0
-23 77 -60 150 -60 119 -129 213 -232 318 -85 86 -88 88 -25 19z"/>
<path d="M6826 5878 c-5 -42 -6 -82 -3 -90 6 -18 20 112 15 143 -2 13 -8 -11
-12 -53z"/>
<path d="M6757 5786 c-11 -27 -18 -111 -9 -96 9 14 23 110 17 110 -2 0 -5 -6
-8 -14z"/>
<path d="M6811 5754 c0 -11 3 -14 6 -6 3 7 2 16 -1 19 -3 4 -6 -2 -5 -13z"/>
<path d="M6802 5690 c0 -14 2 -19 5 -12 2 6 2 18 0 25 -3 6 -5 1 -5 -13z"/>
<path d="M6733 5610 c0 -36 2 -50 4 -32 2 17 2 47 0 65 -2 17 -4 3 -4 -33z"/>
<path d="M6752 5640 c0 -19 2 -27 5 -17 2 9 2 25 0 35 -3 9 -5 1 -5 -18z"/>
<path d="M6721 5524 c0 -11 3 -14 6 -6 3 7 2 16 -1 19 -3 4 -6 -2 -5 -13z"/>
<path d="M7301 5440 c48 -113 81 -213 110 -335 12 -53 23 -94 25 -92 7 7 -17
138 -41 221 -23 80 -117 296 -129 296 -2 0 13 -40 35 -90z"/>
<path d="M6705 5460 c-4 -23 -5 -43 -2 -46 2 -3 7 14 11 37 4 23 5 44 2 46 -2
2 -7 -14 -11 -37z"/>
<path d="M6692 5375 c0 -16 2 -22 5 -12 2 9 2 23 0 30 -3 6 -5 -1 -5 -18z"/>
<path d="M6653 5290 c0 -36 2 -50 4 -32 2 17 2 47 0 65 -2 17 -4 3 -4 -33z"/>
<path d="M7111 5012 c-1 -17 86 -278 104 -311 44 -81 -22 130 -95 304 -5 11
-9 14 -9 7z"/>
<path d="M6492 4560 c0 -19 2 -27 5 -17 2 9 2 25 0 35 -3 9 -5 1 -5 -18z"/>
<path d="M6402 4512 c-6 -31 -14 -68 -17 -82 -5 -18 -4 -21 3 -11 12 17 37
140 30 146 -2 3 -10 -21 -16 -53z"/>
<path d="M6481 4504 c0 -11 3 -14 6 -6 3 7 2 16 -1 19 -3 4 -6 -2 -5 -13z"/>
<path d="M5960 4123 c-165 -128 -220 -186 -270 -284 -27 -53 -18 -49 21 9 60
88 122 154 231 244 92 76 118 100 106 97 -2 0 -41 -30 -88 -66z"/>
<path d="M6154 4148 l-19 -23 23 19 c21 18 27 26 19 26 -2 0 -12 -10 -23 -22z"/>
<path d="M6014 3944 c-18 -14 -18 -15 4 -4 12 6 22 13 22 15 0 8 -5 6 -26 -11z"/>
<path d="M5763 3598 c-15 -20 -25 -38 -20 -38 3 0 12 11 21 25 17 26 16 35 -1
13z"/>
<path d="M5667 3413 c-4 -3 -7 -11 -7 -17 0 -6 5 -5 12 2 6 6 9 14 7 17 -3 3
-9 2 -12 -2z"/>
<path d="M5703 3308 c-53 -74 -134 -260 -120 -275 3 -2 13 19 22 48 20 59 64
159 71 159 2 0 -6 -24 -17 -52 -42 -106 -57 -164 -64 -253 -2 -27 -6 -72 -9
-100 -5 -47 -5 -48 4 -10 5 22 18 67 29 99 24 68 21 89 -3 24 -15 -40 -16 -40
-10 -8 4 19 8 49 9 65 3 39 70 236 101 297 13 26 23 48 21 48 -2 0 -17 -19
-34 -42z"/>
<path d="M5716 3243 c-6 -14 -5 -15 5 -6 7 7 10 15 7 18 -3 3 -9 -2 -12 -12z"/>
<path d="M5690 3200 c-15 -28 -60 -160 -60 -174 1 -19 20 21 50 106 29 80 33
112 10 68z"/>
<path d="M5666 3045 c-9 -26 -7 -32 5 -12 6 10 9 21 6 23 -2 3 -7 -2 -11 -11z"/>
<path d="M5635 2820 c-4 -17 -5 -34 -2 -36 2 -3 7 10 11 27 8 42 0 50 -9 9z"/>
<path d="M5571 2764 c0 -11 3 -14 6 -6 3 7 2 16 -1 19 -3 4 -6 -2 -5 -13z"/>
<path d="M5622 2750 c0 -14 2 -19 5 -12 2 6 2 18 0 25 -3 6 -5 1 -5 -13z"/>
<path d="M5605 2680 c-4 -23 -5 -43 -2 -46 2 -3 7 14 11 37 4 23 5 44 2 46 -2
2 -7 -14 -11 -37z"/>
<path d="M5591 2594 c0 -11 3 -14 6 -6 3 7 2 16 -1 19 -3 4 -6 -2 -5 -13z"/>
<path d="M5522 2490 c0 -19 2 -27 5 -17 2 9 2 25 0 35 -3 9 -5 1 -5 -18z"/>
<path d="M6310 2188 c-34 -28 -132 -73 -211 -94 -47 -14 -101 -18 -204 -18
-77 -1 -126 -4 -110 -7 56 -12 230 -9 300 6 80 17 174 60 225 104 19 17 33 30
30 30 -3 0 -16 -9 -30 -21z"/>
<path d="M6066 2143 c-4 -4 -76 -10 -159 -14 l-152 -7 150 3 c83 1 161 7 175
13 15 6 19 11 9 11 -9 1 -19 -2 -23 -6z"/>
<path d="M5728 2083 c7 -3 16 -2 19 1 4 3 -2 6 -13 5 -11 0 -14 -3 -6 -6z"/>
<path d="M6327 2033 c-11 -13 -17 -26 -14 -29 2 -3 12 7 21 22 23 33 17 39 -7
7z"/>
<path d="M6205 1999 c-79 -45 -176 -62 -318 -57 -98 4 -136 10 -196 31 -41 14
-70 22 -64 16 26 -26 161 -61 253 -66 150 -9 293 26 375 91 31 24 5 17 -50
-15z"/>
<path d="M6341 1948 c-14 -37 -87 -95 -148 -118 -135 -50 -393 -48 -538 4 -41
14 -62 19 -50 10 50 -37 147 -57 301 -62 173 -5 239 7 339 62 58 31 127 107
112 122 -4 4 -11 -4 -16 -18z"/>
<path d="M6200 1909 c-142 -73 -370 -75 -565 -5 -11 4 -4 -2 15 -13 103 -59
367 -69 504 -18 38 14 78 35 90 46 25 25 25 25 -44 -10z"/>
<path d="M5535 1765 c37 -33 120 -73 166 -80 21 -4 11 2 -24 14 -33 11 -84 36
-115 56 -42 26 -49 29 -27 10z"/>
<path d="M3861 4589 c-1 -24 21 -133 29 -142 8 -9 -6 84 -19 128 -5 17 -10 23
-10 14z"/>
<path d="M3811 4535 c0 -11 6 -45 14 -75 7 -30 14 -44 14 -30 0 14 -6 48 -13
75 -8 28 -14 41 -15 30z"/>
<path d="M3812 4385 c0 -16 2 -22 5 -12 2 9 2 23 0 30 -3 6 -5 -1 -5 -18z"/>
<path d="M3761 4254 c0 -11 3 -14 6 -6 3 7 2 16 -1 19 -3 4 -6 -2 -5 -13z"/>
<path d="M4130 4236 c0 -2 28 -28 63 -56 l62 -53 -58 57 c-55 53 -67 62 -67
52z"/>
<path d="M4292 4090 c7 -11 17 -20 22 -20 5 0 1 9 -9 20 -10 11 -20 20 -22 20
-2 0 2 -9 9 -20z"/>
<path d="M4443 3554 c13 -22 32 -52 41 -67 10 -16 20 -27 22 -24 6 6 -61 113
-77 122 -6 4 0 -10 14 -31z"/>
<path d="M4435 3516 c10 -14 19 -26 22 -26 7 0 -17 39 -28 46 -6 3 -3 -5 6
-20z"/>
<path d="M4470 3300 c6 -11 13 -20 16 -20 2 0 0 9 -6 20 -6 11 -13 20 -16 20
-2 0 0 -9 6 -20z"/>
<path d="M4500 3252 c6 -13 14 -21 18 -18 3 4 -2 14 -12 24 -18 16 -18 16 -6
-6z"/>
<path d="M4500 3120 c0 -5 5 -10 11 -10 5 0 7 5 4 10 -3 6 -8 10 -11 10 -2 0
-4 -4 -4 -10z"/>
<path d="M3870 2285 c0 -5 5 -17 10 -25 5 -8 10 -10 10 -5 0 6 -5 17 -10 25
-5 8 -10 11 -10 5z"/>
<path d="M3904 2215 c13 -29 108 -125 122 -125 3 0 -16 21 -43 48 -27 26 -59
61 -72 77 l-22 30 15 -30z"/>
<path d="M4014 2051 c11 -11 46 -34 79 -51 62 -31 63 -41 2 -16 -19 8 -35 13
-35 10 0 -6 100 -52 155 -71 l40 -13 -50 6 c-67 8 -54 -2 26 -21 l64 -14 -55
5 c-85 9 -54 -5 46 -20 88 -14 88 -14 31 -15 -62 -1 -192 22 -244 44 -45 19
-42 10 5 -13 72 -36 177 -55 276 -49 86 5 89 4 51 -9 -32 -11 -34 -12 -10 -9
110 15 118 14 45 -6 -52 -14 -110 -21 -190 -22 -95 -1 -107 -3 -70 -10 47 -9
227 -3 270 9 14 4 22 4 19 0 -4 -4 -37 -13 -75 -21 l-69 -15 70 5 c82 6 215
43 231 64 6 8 20 15 30 16 10 0 20 5 22 10 2 6 11 19 20 30 16 19 16 19 -3 4
-37 -29 -50 -33 -26 -6 l23 26 -22 -6 c-22 -6 -22 -5 -5 20 9 14 14 31 10 37
-4 6 -1 18 6 27 8 8 -4 4 -25 -11 -21 -14 -55 -30 -75 -36 -44 -12 -104 -13
-97 -1 3 4 -34 11 -82 15 -111 8 -292 58 -357 98 -38 23 -45 25 -31 9z m632
-140 c-15 -16 -27 -32 -26 -36 1 -4 -2 -10 -6 -13 -4 -4 -4 -1 0 6 4 6 2 12
-4 12 -6 0 -8 5 -4 12 5 8 2 9 -12 4 -25 -10 -12 3 33 30 47 28 55 22 19 -15z
m-66 -41 c-8 -5 -22 -9 -30 -9 -10 0 -8 3 5 9 27 12 43 12 25 0z m-87 -27 c-7
-2 -19 -2 -25 0 -7 3 -2 5 12 5 14 0 19 -2 13 -5z"/>
<path d="M3935 1821 c34 -40 100 -71 156 -76 l54 -4 -45 8 c-64 13 -97 27
-144 63 -29 23 -35 25 -21 9z"/>
<path d="M4715 1820 c-18 -20 -41 -28 -30 -10 3 6 -1 7 -10 3 -12 -4 -13 -8
-5 -13 7 -4 -18 -19 -61 -35 -41 -14 -87 -32 -103 -38 -17 -6 -68 -19 -115
-29 l-86 -17 87 5 c96 5 210 33 276 66 44 22 67 43 35 31 -12 -4 -9 2 10 20
24 23 33 37 24 37 -2 0 -12 -9 -22 -20z"/>
<path d="M4605 1780 c-3 -6 1 -7 9 -4 18 7 21 14 7 14 -6 0 -13 -4 -16 -10z"/>
<path d="M4542 1770 c-18 -4 -36 -11 -39 -14 -9 -8 58 5 77 15 18 10 7 10 -38
-1z"/>
<path d="M3943 1718 c11 -10 27 -18 36 -17 10 0 7 4 -8 10 -14 5 -30 13 -36
17 -6 4 -2 -1 8 -10z"/>
<path d="M4013 1693 c9 -2 23 -2 30 0 6 3 -1 5 -18 5 -16 0 -22 -2 -12 -5z"/>
<path d="M4088 1683 c12 -2 32 -2 45 0 12 2 2 4 -23 4 -25 0 -35 -2 -22 -4z"/>
<path d="M3622 3720 c0 -14 2 -19 5 -12 2 6 2 18 0 25 -3 6 -5 1 -5 -13z"/>
<path d="M6665 3369 c-9 -17 -15 -33 -13 -35 3 -2 12 12 21 31 21 43 13 47 -8
4z"/>
<path d="M6591 3070 c-24 -22 -39 -40 -34 -40 5 0 27 18 48 40 50 51 43 51
-14 0z"/>
<path d="M6565 2840 c-10 -11 -16 -22 -14 -24 2 -2 12 7 22 20 22 29 17 32 -8
4z"/>
<path d="M6616 2796 c-8 -14 -27 -37 -42 -51 -14 -14 -24 -28 -22 -31 3 -2 16
9 30 24 28 30 63 82 55 82 -2 0 -12 -11 -21 -24z"/>
<path d="M3570 3320 c6 -11 13 -20 16 -20 2 0 0 9 -6 20 -6 11 -13 20 -16 20
-2 0 0 -9 6 -20z"/>
<path d="M3596 3197 c3 -10 9 -15 12 -12 3 3 0 11 -7 18 -10 9 -11 8 -5 -6z"/>
<path d="M3660 2995 c13 -14 26 -25 28 -25 3 0 -5 11 -18 25 -13 14 -26 25
-28 25 -3 0 5 -11 18 -25z"/>
<path d="M3611 2595 c1 -19 18 -51 18 -35 0 8 -4 22 -9 30 -5 8 -9 11 -9 5z"/>
<path d="M3569 1763 l-24 -28 28 24 c25 23 32 31 24 31 -2 0 -14 -12 -28 -27z"/>
<path d="M3522 1410 c0 -14 2 -19 5 -12 2 6 2 18 0 25 -3 6 -5 1 -5 -13z"/>
<path d="M7198 1453 c18 -2 45 -2 60 0 15 2 0 4 -33 4 -33 0 -45 -2 -27 -4z"/>
<path d="M3005 1430 c17 -4 44 -8 60 -8 25 -1 27 1 10 8 -11 5 -38 8 -60 8
-38 0 -39 -1 -10 -8z"/>
<path d="M2958 1403 c7 -3 16 -2 19 1 4 3 -2 6 -13 5 -11 0 -14 -3 -6 -6z"/>
<path d="M7218 1403 c17 -2 47 -2 65 0 17 2 3 4 -33 4 -36 0 -50 -2 -32 -4z"/>
<path d="M7188 1283 c12 -2 30 -2 40 0 9 3 -1 5 -23 4 -22 0 -30 -2 -17 -4z"/>
<path d="M3008 1223 c6 -2 18 -2 25 0 6 3 1 5 -13 5 -14 0 -19 -2 -12 -5z"/>
<path d="M7403 1223 c20 -2 54 -2 75 0 20 2 3 4 -38 4 -41 0 -58 -2 -37 -4z"/>
<path d="M7238 1213 c12 -2 30 -2 40 0 9 3 -1 5 -23 4 -22 0 -30 -2 -17 -4z"/>
<path d="M3013 1193 c48 -2 125 -2 170 0 45 1 6 3 -88 3 -93 0 -130 -2 -82 -3z"/>
<path d="M7058 1193 c6 -2 18 -2 25 0 6 3 1 5 -13 5 -14 0 -19 -2 -12 -5z"/>
</g>
</svg>
