<?xml version="1.0" standalone="no"?>
<!DOCTYPE svg PUBLIC "-//W3C//DTD SVG 20010904//EN"
 "http://www.w3.org/TR/2001/REC-SVG-20010904/DTD/svg10.dtd">
<svg version="1.0" xmlns="http://www.w3.org/2000/svg"
 width="1024.000000pt" height="1024.000000pt" viewBox="0 0 1024.000000 1024.000000"
 preserveAspectRatio="xMidYMid meet">
<metadata>
Created by potrace 1.16, written by Peter Selinger 2001-2019
</metadata>
<g transform="translate(0.000000,1024.000000) scale(0.100000,-0.100000)"
fill="#000000" stroke="none">
<path d="M2890 7566 c-204 -43 -385 -170 -483 -336 -80 -137 -119 -336 -98
-497 22 -174 73 -277 201 -405 73 -72 103 -94 182 -132 53 -26 123 -52 156
-59 l62 -13 -62 -99 c-170 -276 -280 -571 -313 -840 -45 -363 23 -714 207
-1065 98 -185 186 -305 353 -479 326 -339 824 -589 1345 -676 117 -20 121 -21
305 -112 198 -97 314 -120 485 -93 85 14 131 32 277 107 117 61 129 65 316
103 528 107 929 295 1223 573 185 175 332 373 442 593 136 273 188 468 199
749 15 383 -82 737 -300 1105 -27 47 -59 95 -70 107 l-19 22 38 6 c176 30 358
147 459 295 151 223 157 560 14 802 -79 135 -221 257 -357 308 -204 77 -450
61 -629 -41 -146 -84 -256 -246 -298 -441 -3 -16 -10 -28 -16 -28 -5 0 -45 20
-88 45 -119 69 -316 159 -421 194 -448 146 -1270 146 -1728 0 -122 -39 -336
-133 -454 -199 -50 -27 -93 -49 -95 -46 -2 2 -11 32 -20 67 -74 299 -312 484
-633 495 -73 2 -139 -2 -180 -10z m358 -90 c50 -16 52 -18 53 -54 2 -30 3 -32
6 -9 5 32 4 32 55 6 88 -45 194 -169 234 -276 15 -38 15 -46 3 -54 -11 -7 -10
-9 4 -9 14 0 17 -5 12 -20 -4 -14 -2 -20 7 -18 8 2 14 -9 16 -32 2 -30 -3 -41
-38 -75 l-40 -39 0 60 c0 32 -4 74 -9 92 -9 29 -8 32 12 33 l22 0 -21 9 c-12
5 -37 28 -57 52 -19 24 -74 72 -121 107 -57 43 -86 72 -87 85 -1 18 -2 19 -6
3 -3 -13 -10 -16 -21 -11 -82 35 -254 46 -357 24 -33 -8 -64 -13 -68 -12 -5 2
-6 -2 -2 -8 8 -12 -7 -13 -20 -1 -6 5 -26 12 -45 15 -34 6 -34 5 8 -11 23 -9
42 -20 42 -23 0 -7 -116 -80 -128 -80 -11 0 -102 91 -102 102 0 4 13 14 30 23
16 8 41 27 55 41 32 32 114 70 184 86 54 12 54 12 78 -18 17 -19 21 -22 14 -7
-22 45 -18 46 112 40 69 -3 145 -12 175 -21z m4018 9 c-7 -18 -2 -19 24 -3 40
25 200 -40 287 -117 l47 -42 -33 -42 c-53 -66 -61 -68 -135 -19 -35 24 -65 46
-65 49 -1 4 28 17 64 30 81 28 78 36 -4 13 -54 -15 -72 -16 -149 -5 -133 19
-140 19 -242 0 -66 -12 -99 -14 -107 -7 -10 8 -13 6 -13 -8 0 -12 -26 -37 -73
-69 -39 -27 -97 -73 -128 -101 -66 -60 -104 -87 -118 -82 -15 5 23 100 66 165
21 32 60 79 87 105 50 47 143 105 153 94 3 -3 11 1 17 9 16 22 128 43 235 44
79 1 92 -1 87 -14z m-4175 -155 c39 -73 189 -382 216 -445 56 -129 64 -155 49
-155 -8 0 -41 48 -74 108 -33 59 -68 116 -77 127 -14 16 -14 15 1 -10 37 -61
134 -249 130 -252 -1 -2 -16 7 -32 19 l-29 23 18 -27 c19 -31 22 -42 7 -33 -6
3 -7 -1 -4 -9 15 -40 -30 -9 -93 62 -90 102 -245 257 -363 362 -52 47 -101 91
-108 97 -18 17 -9 29 55 70 67 43 53 53 211 -152 117 -153 142 -182 127 -155
-23 41 -189 255 -239 308 -47 49 -43 57 34 67 25 4 50 8 55 9 33 9 109 -1 116
-14z m4218 -1 c30 -5 56 -11 58 -13 2 -2 -16 -30 -41 -62 -118 -153 -267 -354
-324 -436 -60 -87 -102 -132 -102 -108 0 5 36 82 80 170 44 88 78 160 76 160
-5 0 -140 -249 -155 -287 -13 -32 -22 -39 -34 -27 -6 6 24 91 63 177 12 26 20
52 18 58 -2 5 -25 -43 -52 -106 -30 -71 -52 -111 -57 -104 -4 7 -6 17 -4 23 2
6 22 69 45 139 23 71 40 131 37 133 -3 3 -24 -52 -47 -123 -53 -166 -50 -157
-56 -150 -5 5 4 41 32 127 3 8 -4 -1 -15 -20 -11 -19 -20 -44 -21 -56 0 -12
-7 -21 -16 -21 -11 0 -14 7 -9 26 6 25 6 25 -9 6 -14 -19 -15 -20 -22 -1 -4
11 2 61 14 115 32 141 34 150 18 108 -8 -21 -23 -75 -32 -120 -10 -45 -19 -84
-21 -86 -1 -2 -12 4 -24 15 -19 17 -20 25 -13 103 3 46 15 104 25 127 18 40
95 119 149 152 14 9 36 26 50 38 25 22 113 50 180 58 43 4 136 -2 209 -15z
m-4077 -9 c66 -25 212 -133 257 -189 43 -54 60 -102 61 -169 0 -57 -25 -116
-46 -108 -7 3 -14 -4 -17 -15 -3 -10 -9 -19 -14 -19 -12 0 -90 204 -112 295
-10 44 -19 71 -20 60 -1 -26 39 -168 80 -279 l32 -88 -36 -35 -37 -34 -9 23
c-38 93 -96 217 -168 362 -115 231 -111 216 -63 216 22 0 63 -9 92 -20z m-588
-56 l49 -56 -41 -41 -40 -40 -54 43 -53 43 49 -48 c44 -44 47 -51 36 -69 -7
-12 -20 -32 -28 -46 -14 -24 -13 -24 3 -5 9 11 24 30 33 43 l18 23 64 -48 c36
-27 110 -80 165 -118 95 -66 315 -244 380 -308 29 -29 29 -30 6 -24 -18 4 -21
3 -12 -6 19 -19 13 -25 -22 -23 -22 2 -55 20 -98 53 -62 49 -456 277 -611 354
l-77 39 13 38 c17 48 52 117 80 157 26 38 78 95 86 95 3 0 28 -25 54 -56z
m5064 -39 c45 -68 92 -168 92 -193 0 -7 -83 -52 -95 -52 -3 0 -19 25 -36 55
-17 30 -35 58 -40 61 -5 3 6 -23 26 -59 19 -35 35 -66 35 -69 0 -6 -195 -119
-332 -193 -49 -26 -88 -49 -88 -51 0 -9 168 77 307 157 56 33 106 59 112 59 5
0 17 -19 25 -42 12 -33 15 -36 11 -13 -2 17 -7 40 -11 52 -5 17 2 26 41 48 27
16 50 24 55 19 11 -12 30 -126 30 -186 0 -44 -1 -47 -32 -53 -18 -4 -41 -9
-50 -11 -15 -5 -18 2 -19 43 l-2 48 -6 -43 c-4 -23 -12 -47 -17 -52 -5 -5 -82
-36 -170 -69 -89 -33 -179 -69 -200 -80 -117 -58 -223 -95 -268 -92 -16 1 -17
3 -5 18 13 15 12 16 -8 11 -13 -4 -23 -3 -23 1 0 15 47 49 130 94 97 53 150
87 135 87 -6 0 -15 -4 -20 -9 -6 -5 -41 -26 -80 -47 -38 -21 -95 -52 -125 -70
-30 -18 -58 -30 -62 -27 -17 10 -6 23 32 43 22 11 40 23 40 25 0 3 -18 -4 -41
-15 -61 -32 -84 -21 -31 14 49 34 50 47 1 17 -98 -60 -21 16 152 149 53 41
172 127 264 190 91 63 188 134 213 158 l47 43 -44 -31 -45 -30 -37 36 -38 37
30 31 c17 17 38 41 47 54 8 13 22 22 31 20 9 -2 40 -39 69 -83z m-265 34 c32
-22 57 -44 57 -49 0 -5 -30 -35 -67 -67 -142 -123 -282 -252 -392 -363 -63
-63 -112 -109 -107 -102 4 7 2 12 -5 12 -7 0 -2 11 11 25 13 13 44 56 69 94
25 38 87 122 137 188 49 65 112 150 139 188 53 77 85 115 95 115 4 0 32 -18
63 -41z m-2342 -231 c0 -145 4 -317 9 -383 4 -66 7 -121 6 -122 -1 -2 -17 49
-36 113 -18 64 -47 148 -65 187 -70 162 -202 323 -321 392 -48 28 -63 41 -49
43 117 16 278 30 358 31 l97 1 1 -262z m354 247 c77 -8 144 -15 150 -15 5 0
-25 -22 -67 -50 -173 -114 -304 -316 -374 -577 l-29 -108 -7 60 c-4 33 -10
205 -14 383 l-7 322 104 0 c57 0 167 -7 244 -15z m-799 -55 c142 -71 275 -227
348 -406 30 -74 116 -348 116 -372 1 -29 16 6 30 68 26 117 70 260 104 333
100 220 298 407 431 407 44 0 209 -38 295 -68 158 -55 469 -211 441 -220 -5
-2 -56 7 -113 19 -190 41 -376 27 -587 -45 -111 -38 -163 -63 -244 -118 -145
-99 -241 -204 -322 -356 l-29 -54 -21 49 c-12 26 -49 82 -82 123 -190 237
-423 370 -720 410 -110 15 -285 8 -358 -14 -48 -15 -48 -16 -10 -11 22 3 74
10 115 16 187 27 465 -31 649 -135 175 -99 352 -289 401 -429 16 -45 17 -63 8
-137 -6 -51 -7 -204 -4 -385 4 -165 3 -322 0 -348 l-7 -48 -41 3 -41 3 -1 215
c-1 310 -30 456 -125 640 -120 231 -269 360 -484 422 -239 67 -598 -20 -900
-220 -209 -137 -413 -357 -500 -537 -102 -211 -155 -502 -155 -849 0 -145 -3
-169 -30 -270 -16 -61 -32 -124 -36 -141 l-7 -30 -9 40 c-16 76 -21 427 -9
576 16 193 37 335 56 395 42 124 198 411 344 628 136 204 353 410 549 523 46
26 120 70 165 97 151 90 367 178 572 231 118 31 140 31 211 -5z m-1813 -137
c72 -65 154 -140 182 -168 59 -59 245 -271 245 -280 0 -6 -77 53 -237 183 -43
34 -123 94 -178 134 -179 128 -224 163 -225 173 0 11 61 75 73 75 4 0 68 -53
140 -117z m4740 59 c20 -22 40 -6 -298 -242 -66 -46 -163 -119 -215 -161 -52
-42 -103 -79 -113 -82 -17 -6 -17 -5 2 21 36 48 252 257 405 391 l149 130 26
-18 c14 -11 34 -28 44 -39z m-879 -64 c-10 -18 -19 -44 -19 -58 -1 -14 -2 -50
-3 -80 l-2 -54 -40 39 c-22 21 -43 47 -46 58 -9 27 4 67 21 67 8 0 15 4 15 9
0 10 82 63 88 56 2 -2 -5 -18 -14 -37z m-4239 -92 c22 -12 39 -27 38 -32 0 -5
-4 -31 -7 -59 l-6 -50 14 53 c15 61 21 69 38 54 7 -5 87 -52 178 -102 171 -95
355 -207 402 -244 14 -12 36 -29 49 -38 46 -35 6 -31 -69 7 -89 46 -112 56
-112 50 0 -2 33 -20 74 -41 110 -56 112 -58 89 -84 -11 -11 -26 -19 -34 -17
-8 2 -11 2 -6 0 19 -11 4 -25 -20 -19 -23 5 -25 4 -10 -4 32 -20 17 -26 -45
-19 -86 9 -468 134 -490 160 -10 12 -23 39 -28 61 -6 21 -14 46 -17 55 -5 13
0 14 28 8 70 -15 308 -109 424 -169 121 -62 152 -76 125 -57 -13 9 -12 11 5
11 51 1 -222 119 -437 190 l-158 51 -2 47 -1 47 -4 -42 c-2 -24 -6 -43 -9 -43
-3 0 -25 5 -50 11 -43 11 -44 12 -44 53 0 39 15 144 25 174 6 17 14 15 60 -12z
m3800 -12 c44 -8 107 -19 140 -23 49 -6 75 -17 145 -62 279 -182 492 -434 722
-857 115 -210 150 -324 190 -607 20 -141 17 -506 -5 -645 -10 -63 -22 -121
-27 -130 -5 -9 -9 85 -9 237 -1 257 -11 373 -52 600 -37 207 -103 435 -160
549 -46 95 -175 259 -280 359 -181 172 -315 260 -501 328 -165 60 -267 81
-403 80 -96 0 -123 -4 -207 -32 -175 -57 -301 -162 -406 -337 -132 -221 -179
-446 -165 -782 l6 -153 -54 3 -54 3 2 464 3 464 52 85 c91 146 248 286 400
356 215 99 467 137 663 100z m-1875 -204 c220 -57 381 -198 500 -437 82 -166
110 -324 110 -625 0 -188 -2 -207 -17 -212 -10 -3 -47 -10 -83 -16 -181 -32
-387 -159 -504 -310 l-27 -35 21 48 c11 27 63 103 115 168 160 202 214 323
222 494 6 122 -10 194 -70 310 -58 113 -182 236 -290 288 -212 103 -441 108
-662 15 -192 -81 -394 -272 -523 -496 -135 -231 -189 -399 -211 -655 -10 -121
-17 -142 -77 -232 -12 -18 -14 -26 -5 -20 11 6 13 4 8 -7 -21 -55 -30 -198
-24 -388 6 -203 1 -232 -24 -125 -6 27 -20 79 -30 114 -26 87 -24 132 12 247
29 96 30 106 34 324 5 340 51 586 149 792 80 170 301 410 492 537 293 194 648
282 884 221z m1807 5 c185 -35 371 -113 518 -217 103 -72 307 -270 383 -371
128 -171 213 -417 271 -782 34 -215 43 -349 39 -590 l-3 -230 -31 -65 -31 -65
1 230 c0 145 -4 252 -12 289 -6 33 -10 61 -8 63 2 2 14 -26 27 -61 12 -36 25
-64 27 -61 6 6 -20 77 -68 185 -32 71 -39 100 -44 177 -16 249 -114 523 -271
758 -159 239 -325 375 -546 449 -326 109 -698 -18 -862 -295 -145 -246 -114
-505 93 -779 97 -128 120 -168 166 -277 24 -58 43 -107 42 -109 -2 -1 -25 40
-51 91 -38 73 -62 107 -110 151 -123 113 -241 177 -389 212 -51 12 -68 21 -72
36 -12 44 -6 422 8 506 40 247 171 494 331 623 157 126 371 174 592 132z
m-3690 -109 c12 -38 21 -71 19 -74 -3 -2 -15 3 -28 12 -12 9 -31 16 -41 16 -9
0 -21 8 -24 18 -4 9 -13 22 -20 27 -7 6 -16 32 -19 58 l-7 48 48 -18 c47 -17
49 -20 72 -87z m5323 75 c0 -11 -5 -32 -11 -48 -6 -15 -12 -40 -14 -56 -6 -41
-82 -180 -120 -220 -34 -35 -69 -46 -129 -39 l-28 4 23 26 c22 24 21 24 -11
-3 -19 -16 -37 -33 -41 -38 -3 -4 -78 -4 -167 1 -136 7 -164 11 -181 26 -12
11 -21 22 -21 25 0 4 28 12 63 18 34 7 123 31 197 53 150 46 250 71 250 63 0
-3 -8 -17 -18 -31 -25 -36 -38 -63 -15 -32 44 61 74 87 122 104 28 10 53 22
56 27 3 4 -13 2 -36 -6 -51 -18 -49 -19 -50 3 0 13 -3 12 -11 -6 -9 -17 -34
-29 -107 -51 -208 -61 -348 -101 -393 -111 -48 -10 -82 -5 -72 11 3 5 -2 9
-10 9 -39 0 -9 19 72 45 48 16 132 50 187 76 106 50 276 116 325 126 l29 5
-10 -37 c-6 -20 -8 -39 -6 -41 2 -3 9 15 16 40 10 40 15 46 53 59 57 20 58 20
58 -2z m-5296 -171 c6 0 27 -23 46 -51 18 -28 38 -53 44 -56 5 -3 -6 15 -23
41 -18 26 -31 49 -28 52 6 7 391 -118 398 -129 3 -4 25 -11 48 -14 42 -6 67
-22 34 -22 -10 0 -80 -4 -156 -9 -76 -6 -146 -9 -155 -7 -9 2 -22 4 -28 4 -7
1 -29 18 -49 39 -37 36 -38 37 -16 5 12 -18 27 -33 32 -33 5 0 9 -5 9 -11 0
-8 -18 -10 -57 -6 -54 5 -62 10 -103 55 -38 40 -120 175 -120 195 0 3 25 -7
56 -24 31 -16 61 -29 68 -29z m536 -55 c0 -10 -16 -4 -40 16 l-25 20 33 -16
c17 -8 32 -18 32 -20z m1189 -44 c121 -41 191 -84 268 -163 272 -284 256 -612
-48 -968 -35 -42 -72 -87 -82 -100 -17 -24 -18 -23 -12 80 7 135 -8 248 -45
326 -34 70 -97 146 -151 179 -37 24 -141 56 -175 54 -11 0 7 -7 38 -15 125
-30 217 -104 271 -217 41 -87 50 -158 44 -334 -8 -224 -23 -270 -23 -73 0 218
-37 349 -122 437 -61 62 -103 78 -207 78 -107 0 -132 -11 -248 -108 l-78 -64
-112 -7 c-61 -4 -134 -12 -162 -17 -116 -21 -281 -133 -370 -251 -27 -35 -53
-67 -58 -73 -14 -15 0 141 24 257 83 413 379 820 692 949 130 54 208 69 342
65 103 -3 134 -8 214 -35z m2089 23 c270 -55 465 -203 657 -498 139 -214 251
-545 243 -718 l-3 -60 -48 66 c-89 121 -210 214 -345 263 -78 29 -225 43 -260
24 -11 -6 -47 -14 -79 -17 -55 -6 -61 -4 -113 31 -94 63 -150 87 -217 93 -114
9 -195 -44 -248 -163 -13 -30 -26 -55 -28 -55 -7 0 12 77 28 115 19 46 91 123
138 146 56 29 122 34 197 15 68 -18 100 -37 188 -111 29 -25 58 -45 65 -45 7
0 3 6 -8 12 -11 6 -44 33 -72 60 -81 75 -149 103 -253 103 -99 0 -135 -14
-198 -77 -57 -56 -78 -104 -102 -237 -28 -159 -27 -269 5 -346 40 -96 28 -79
-39 60 -40 83 -90 165 -137 227 -99 129 -137 194 -172 291 -70 198 -37 397 96
573 154 203 439 303 705 248z m-3351 -136 c-67 -23 -72 -32 -9 -16 105 26 38
-36 -81 -76 -42 -14 -51 -14 -75 -2 -27 14 -102 81 -102 91 0 3 33 5 73 6 39
1 99 5 132 9 111 13 126 11 62 -12z m-242 -47 c53 -50 57 -61 24 -61 -20 0
-151 74 -169 95 -11 13 -5 15 40 15 50 0 56 -3 105 -49z m4664 43 l62 -7 -33
-29 c-25 -22 -21 -20 16 6 42 31 57 36 104 36 53 0 55 -1 38 -19 -36 -40 -206
-99 -206 -72 0 7 -5 9 -11 5 -6 -3 -50 4 -97 16 -63 16 -92 29 -105 46 l-18
24 94 0 c52 0 122 -3 156 -6z m-2280 -236 c-1 -106 -5 -287 -9 -403 -6 -189
-6 -170 -8 193 -1 262 1 402 8 402 6 0 9 -70 9 -192z m2154 160 l72 -21 -30
-14 -30 -14 30 6 c37 8 23 -10 -16 -20 -17 -4 -30 -1 -38 9 -11 14 -11 16 5
16 11 0 1 9 -22 19 -37 17 -66 41 -49 41 4 0 39 -10 78 -22z m-4303 -18 c-11
-20 -59 -50 -80 -50 -6 0 -17 6 -24 12 -11 11 -3 17 43 35 70 27 74 27 61 3z
m4449 -14 c-11 -9 -69 -15 -64 -6 3 6 20 10 37 10 17 0 29 -2 27 -4z m68 -696
c36 -93 81 -292 94 -412 24 -220 -9 -516 -82 -724 -37 -109 -160 -361 -203
-418 -17 -22 -46 -64 -64 -92 -31 -49 -72 -95 -72 -80 0 3 15 37 34 74 31 63
144 399 199 597 69 248 95 497 77 744 -13 178 -43 395 -64 461 -8 25 -17 54
-20 65 -13 38 76 -150 101 -215z m-4711 178 c-29 -101 -54 -330 -62 -568 -8
-223 10 -395 62 -595 19 -71 46 -176 61 -233 16 -63 30 -97 35 -90 4 8 7 1 6
-17 -2 -48 48 -202 101 -310 l49 -100 -41 47 c-85 95 -231 349 -291 503 -80
207 -111 386 -110 630 0 158 4 208 23 294 23 107 80 276 133 394 31 67 46 87
34 45z m1354 -14 c29 -16 63 -42 76 -59 30 -40 72 -132 80 -176 5 -28 1 -24
-24 26 -37 75 -95 140 -144 160 -21 8 -64 15 -97 15 -61 0 -70 -4 -255 -104
-50 -26 -94 -32 -131 -16 -19 8 -19 9 3 9 32 1 56 16 128 77 34 29 73 58 86
65 87 47 195 48 278 3z m-518 -179 c29 -14 68 -28 86 -31 l33 -6 -8 -47 c-13
-74 -7 -144 16 -189 29 -58 77 -110 122 -133 52 -26 149 -26 203 1 50 24 172
133 181 160 12 39 24 9 21 -53 -3 -75 -60 -221 -191 -492 -161 -333 -183 -386
-216 -508 -28 -102 -22 -190 20 -317 60 -178 122 -279 301 -490 93 -109 119
-145 120 -165 0 -5 -21 11 -46 35 -38 37 -43 39 -28 15 l19 -29 -21 14 c-49
35 -190 166 -345 320 -354 353 -643 750 -821 1127 -49 105 -93 259 -104 368
-6 58 -5 62 35 122 113 169 273 287 421 312 98 16 144 13 202 -14z m501 7 c9
-10 20 -32 23 -49 11 -56 -62 -101 -115 -72 -35 20 -42 88 -12 118 26 26 82
28 104 3z m2040 0 c49 -54 18 -132 -52 -132 -42 0 -65 19 -76 62 -6 22 -1 33
23 58 35 35 80 40 105 12z m641 2 c132 -34 270 -133 370 -264 69 -91 69 -87
51 -197 -21 -134 -41 -193 -133 -394 -53 -115 -263 -447 -386 -609 -237 -312
-558 -641 -726 -745 -25 -15 -55 -37 -68 -48 l-22 -21 11 31 c6 17 62 91 124
165 167 195 295 422 325 576 16 80 1 180 -47 312 -42 118 -253 551 -264 544
-5 -3 -6 1 -3 9 3 8 -11 47 -30 86 -54 106 -88 215 -84 269 l3 47 38 -53 c49
-65 133 -127 196 -142 114 -27 239 54 281 184 12 37 9 117 -6 188 -5 22 -3 26
12 24 29 -4 121 19 146 37 30 21 132 22 212 1z m-3022 -99 c-6 -95 12 -150 69
-207 63 -63 135 -82 218 -58 50 14 49 6 -2 -24 -53 -32 -146 -37 -194 -13 -43
23 -98 87 -118 140 -28 74 -12 227 24 227 4 0 5 -29 3 -65z m83 -7 c29 -105
98 -161 200 -162 62 0 109 17 153 57 26 24 29 16 6 -19 -24 -36 -95 -74 -152
-81 -56 -6 -134 15 -178 49 -51 40 -77 135 -57 208 4 13 8 20 9 15 1 -6 10
-36 19 -67z m2485 4 c0 -45 -23 -108 -52 -143 -7 -9 -31 -28 -52 -43 -78 -53
-238 -22 -286 56 -27 45 -25 59 5 26 63 -72 148 -87 242 -44 61 29 97 77 113
154 14 62 30 59 30 -6z m-1255 -54 c0 -49 -2 -247 -3 -442 l-2 -354 -72 -7
c-111 -10 -205 -34 -286 -70 -81 -38 -81 -37 -21 52 16 23 29 44 29 46 0 3 27
53 61 111 77 134 167 342 218 500 40 126 66 234 58 242 -2 3 -8 -12 -12 -33
-13 -73 -77 -269 -126 -393 -80 -200 -228 -464 -331 -593 -74 -92 -92 -144
-86 -251 6 -115 38 -179 142 -281 66 -65 106 -93 209 -150 173 -94 197 -115
197 -169 0 -34 -6 -48 -32 -74 -45 -42 -89 -59 -196 -73 -119 -16 -201 -3
-301 48 -58 29 -82 49 -107 86 -69 100 -94 209 -94 409 0 263 44 421 295 1057
31 79 75 199 98 266 l42 124 40 11 c79 21 131 28 205 27 l75 -2 0 -87z m40 45
c12 -82 55 -244 92 -342 62 -167 133 -306 293 -574 l23 -39 -51 26 c-69 35
-208 72 -307 83 l-80 8 -3 90 c-6 147 10 795 19 795 4 0 11 -21 14 -47z m235
22 l55 -17 43 -132 c24 -72 85 -237 134 -366 171 -442 188 -491 212 -584 50
-190 59 -449 21 -605 -21 -85 -69 -175 -118 -216 -92 -79 -257 -113 -398 -81
-133 30 -211 89 -196 148 11 41 58 79 206 167 160 95 254 182 299 278 24 51
27 70 27 158 0 112 -11 148 -77 247 -230 346 -394 719 -432 987 l-7 44 88 -5
c48 -3 113 -13 143 -23z m1061 -52 c4 -103 -10 -149 -62 -201 -80 -81 -180
-98 -276 -49 -28 15 -54 31 -58 37 -9 14 5 12 35 -5 33 -19 148 -19 192 -1 57
24 124 104 137 165 6 28 11 61 11 71 0 37 20 20 21 -17z m-1721 -116 c-17 -51
-77 -207 -132 -347 -200 -506 -251 -701 -252 -950 -1 -174 13 -251 64 -357 21
-43 37 -80 35 -81 -2 -2 -23 16 -47 40 -54 53 -109 143 -145 234 -25 63 -27
80 -26 204 1 183 46 518 118 875 46 230 156 381 350 484 59 32 60 32 63 11 2
-12 -11 -63 -28 -113z m819 98 c179 -95 326 -282 356 -457 3 -16 12 -57 20
-94 9 -36 32 -156 52 -267 31 -177 36 -229 40 -414 5 -196 4 -217 -16 -280
-12 -37 -37 -95 -56 -128 -34 -59 -124 -173 -137 -174 -3 -1 8 31 24 71 40 94
59 206 59 348 1 203 -32 368 -120 597 -228 597 -247 647 -285 781 -8 28 -12
52 -9 52 3 0 35 -16 72 -35z m-2540 -475 c20 -74 80 -206 154 -339 229 -410
571 -828 982 -1200 83 -75 81 -74 -101 45 -463 302 -746 527 -955 758 -153
169 -166 192 -180 310 -14 121 -4 586 12 586 4 0 15 19 24 43 l18 42 17 -100
c10 -55 23 -120 29 -145z m4316 63 c19 -124 19 -356 0 -494 -11 -86 -18 -111
-37 -131 -13 -13 -56 -63 -97 -111 -160 -189 -423 -427 -675 -611 -160 -117
-563 -362 -575 -350 -5 5 -11 1 79 57 80 49 270 221 417 378 181 194 363 434
527 697 163 262 260 474 285 622 7 36 14 79 18 95 l6 30 19 -42 c10 -23 25
-86 33 -140z m-3045 21 c-65 -225 -88 -322 -115 -485 -54 -326 -41 -741 29
-949 8 -25 17 -57 20 -73 2 -15 15 -42 27 -60 27 -40 -58 54 -126 139 -102
128 -193 313 -221 455 -17 80 -17 91 -1 171 9 46 33 125 52 174 45 111 229
484 239 484 2 0 -14 -48 -35 -106 -106 -287 -130 -681 -58 -963 19 -77 79
-234 86 -227 3 2 -9 43 -26 91 -74 208 -94 367 -80 621 9 169 35 307 85 457
39 118 156 418 161 414 1 -2 -15 -66 -37 -143z m1716 9 c20 -54 61 -153 91
-221 80 -181 113 -371 113 -641 0 -214 -30 -354 -114 -535 -20 -44 -35 -81
-33 -82 8 -8 69 122 101 213 55 160 73 340 56 558 -11 142 -39 315 -60 371 -7
17 -7 25 0 22 6 -2 39 -64 74 -138 157 -334 172 -472 73 -680 -72 -153 -148
-265 -277 -410 l-40 -45 25 58 c130 301 161 764 76 1141 -25 112 -97 382 -116
435 -16 47 -17 51 -11 51 3 0 21 -44 42 -97z m-22 -13 c5 -17 4 -20 -2 -10 -5
8 -13 26 -16 40 -5 17 -4 20 2 10 5 -8 13 -26 16 -40z m21 -160 c76 -300 87
-371 90 -605 3 -197 3 -206 -5 -90 -17 258 -54 515 -104 718 -13 54 -20 95
-16 90 5 -4 21 -55 35 -113z m-1729 -79 c-20 -88 -64 -437 -76 -596 l-9 -120
5 150 c4 154 30 382 59 515 9 41 18 88 22 103 3 15 8 26 10 23 3 -3 -2 -36
-11 -75z m-1437 -176 l0 -20 -8 20 c-5 11 -11 38 -14 60 l-6 40 14 -40 c7 -22
14 -49 14 -60z m4595 -37 c-9 -32 -19 -56 -22 -54 -2 3 3 26 12 52 9 26 17 59
17 73 1 20 2 22 6 7 3 -11 -3 -46 -13 -78z m-2313 5 l2 -28 4 28 c4 26 6 27
66 27 123 -1 313 -56 380 -111 38 -31 80 -94 92 -139 6 -23 5 -22 -13 5 -81
127 -239 179 -537 178 -312 0 -466 -58 -531 -198 -13 -27 -24 -42 -24 -31 0
29 61 135 94 163 79 67 273 130 404 132 61 1 62 1 63 -26z m-2184 -253 c13
-52 31 -105 39 -117 16 -26 18 -37 4 -28 -24 15 70 -219 129 -318 75 -127 160
-212 273 -271 41 -21 98 -58 128 -82 30 -24 94 -73 143 -110 48 -36 87 -68 87
-70 0 -7 -68 29 -160 86 -139 85 -320 228 -399 315 -98 108 -188 286 -214 422
-6 34 -16 59 -21 56 -5 -3 -6 -1 -3 5 4 5 -15 77 -42 159 -27 81 -51 164 -55
183 -12 63 65 -131 91 -230z m4424 30 c-21 -63 -57 -162 -79 -220 -22 -58 -54
-148 -72 -200 -29 -87 -89 -190 -111 -190 -5 0 -9 -6 -9 -13 0 -24 -180 -182
-310 -272 -46 -32 -141 -88 -210 -123 -127 -66 -148 -72 -60 -17 64 40 188
136 224 174 17 17 33 31 38 31 20 0 227 134 268 173 92 89 121 139 176 300 41
123 31 115 -25 -18 -22 -55 -55 -120 -71 -145 -16 -25 -30 -50 -30 -56 0 -22
-107 -111 -194 -163 -49 -29 -95 -59 -103 -67 -14 -14 -23 -18 -23 -10 0 2 48
65 108 139 286 360 377 487 397 557 4 14 -17 -14 -46 -62 -75 -121 -410 -555
-468 -606 -34 -30 -156 -92 -278 -141 -280 -113 -602 -231 -629 -231 -35 0 49
64 171 131 252 139 625 397 815 564 164 144 369 356 429 443 32 46 42 40 26
-15 -17 -56 -18 -63 -5 -43 16 24 11 0 -15 -84 -14 -44 -23 -81 -21 -83 6 -6
36 83 50 148 25 116 36 153 64 207 43 83 40 27 -7 -108z m-1947 23 c112 -31
195 -143 169 -225 l-11 -33 -1 39 c-1 32 -8 46 -39 75 -65 62 -117 73 -357 79
-244 5 -333 -5 -421 -48 -58 -28 -84 -58 -84 -95 0 -8 -4 -15 -10 -15 -13 0
-13 35 1 85 16 57 75 110 152 134 54 17 92 20 301 20 196 1 251 -2 300 -16z
m-2380 -117 c87 -107 281 -293 436 -419 173 -139 566 -409 750 -514 145 -82
146 -83 164 -115 20 -34 20 -34 -41 -7 -26 12 -111 48 -188 79 -77 32 -239
101 -360 153 -121 51 -233 97 -248 101 -34 8 -50 24 -175 181 -53 66 -146 180
-206 253 -110 131 -131 162 -181 254 -22 43 -44 128 -33 128 3 0 40 -42 82
-94z m46 -207 c30 -34 66 -77 80 -94 14 -18 90 -112 168 -209 79 -98 142 -180
139 -182 -10 -10 -218 139 -260 187 -65 74 -151 224 -186 323 -35 98 -38 116
-13 69 9 -17 42 -60 72 -94z m1826 13 c6 -4 21 -27 33 -50 21 -42 22 -45 5
-63 -13 -15 -25 -18 -48 -14 -37 8 -136 54 -136 63 0 7 45 39 85 60 23 13 46
15 61 4z m525 -23 c47 -23 58 -33 50 -43 -18 -21 -129 -68 -154 -64 -34 5 -36
60 -2 104 14 19 30 34 36 34 5 0 37 -14 70 -31z m567 -334 c-50 -203 -168
-370 -366 -519 -142 -107 -237 -150 -367 -166 -131 -16 -125 -19 -127 48 l-2
57 -3 -50 c-2 -27 -8 -54 -12 -58 -12 -12 -185 11 -244 33 -90 34 -193 103
-337 225 -174 148 -230 227 -279 391 -28 96 -26 109 8 47 86 -156 171 -226
343 -282 58 -19 72 -29 102 -69 92 -125 191 -186 350 -217 163 -32 368 48 470
183 55 74 63 80 139 112 140 59 256 167 314 292 14 32 27 57 29 55 1 -1 -7
-38 -18 -82z m-2266 -261 c90 -37 226 -95 303 -129 77 -34 151 -66 165 -70 83
-25 228 -100 263 -137 21 -22 37 -41 35 -43 -6 -6 -139 24 -248 57 -262 77
-420 156 -622 309 -133 101 -118 103 104 13z m2993 57 c-20 -33 -311 -234
-397 -274 -90 -42 -344 -124 -470 -150 -109 -23 -117 -23 -108 -7 26 48 95 90
233 140 236 87 722 281 735 295 9 8 14 6 7 -4z m-1524 -45 c101 -46 261 -74
298 -52 24 15 21 -1 -7 -40 -35 -49 -79 -82 -162 -124 -57 -30 -76 -34 -162
-38 -78 -3 -110 0 -165 17 -84 25 -178 84 -221 138 -47 60 -39 62 21 6 186
-169 424 -187 610 -44 82 63 86 86 4 27 -80 -57 -141 -84 -214 -96 -119 -20
-270 25 -363 108 l-43 38 88 12 c63 8 109 21 159 46 39 19 74 35 77 35 3 1 39
-14 80 -33z m647 -148 c-12 -18 -26 -35 -31 -36 -4 -2 -5 -7 -2 -11 7 -12 -52
-74 -64 -67 -6 4 -9 1 -5 -7 8 -22 -10 -28 -32 -12 -18 14 -18 15 6 32 14 10
28 17 33 15 4 -1 6 4 5 11 -2 6 5 11 14 11 10 -1 15 2 13 7 -6 8 76 102 83 95
2 -3 -7 -19 -20 -38z m-1349 -53 c35 -35 72 -67 83 -71 17 -5 17 -7 -6 -25
l-26 -20 -26 26 c-22 22 -24 29 -13 37 11 8 11 9 -2 5 -9 -3 -23 3 -32 14 -9
10 -14 19 -11 19 3 0 -8 16 -25 35 -34 40 -37 45 -18 45 6 0 41 -29 76 -65z
m1215 -94 c16 -17 14 -21 -44 -75 -34 -31 -66 -56 -71 -56 -6 0 -22 -9 -36
-20 -14 -11 -34 -20 -44 -20 -9 0 -19 -4 -21 -9 -3 -8 -101 -61 -113 -61 -3 0
-5 20 -5 44 0 42 1 44 43 60 23 9 46 16 50 16 4 0 18 9 29 20 12 11 26 19 32
17 5 -2 23 10 40 25 18 17 38 27 49 24 9 -2 14 0 11 6 -8 13 27 37 45 30 9 -3
12 -1 7 6 -12 19 9 14 28 -7z m-1111 -17 c-5 -14 -3 -15 16 -4 18 9 27 8 47
-5 14 -9 22 -20 19 -25 -4 -6 0 -10 9 -10 24 0 76 -34 72 -47 -3 -7 1 -10 9
-6 13 4 118 -31 138 -47 4 -3 9 -27 12 -53 l5 -46 -38 13 c-63 23 -124 60
-133 81 -4 11 -8 14 -8 8 -1 -7 -7 -13 -14 -13 -17 0 -119 69 -135 91 -7 10
-20 25 -28 34 -18 17 -18 17 11 33 26 15 25 15 18 -4z m762 -185 c5 -30 3 -44
-6 -50 -29 -18 -39 -9 -39 33 0 23 -3 38 -7 34 -4 -4 -6 -24 -4 -46 2 -37 1
-39 -36 -49 -21 -5 -58 -11 -83 -13 l-45 -3 -3 53 c-4 61 -10 57 113 70 50 5
93 10 97 10 3 1 9 -17 13 -39z m-282 21 l37 0 0 -59 0 -59 -42 5 c-24 2 -64 9
-90 15 l-48 10 0 50 0 51 53 -7 c28 -3 69 -6 90 -6z"/>
<path d="M7230 7420 c-6 -11 -8 -20 -6 -20 3 0 10 9 16 20 6 11 8 20 6 20 -3
0 -10 -9 -16 -20z"/>
<path d="M3085 7170 c14 -27 28 -50 30 -50 3 0 -6 23 -20 50 -14 28 -28 50
-30 50 -3 0 6 -22 20 -50z"/>
<path d="M3120 7101 c0 -6 4 -13 10 -16 6 -3 7 1 4 9 -7 18 -14 21 -14 7z"/>
<path d="M3170 7010 c6 -11 13 -20 16 -20 2 0 0 9 -6 20 -6 11 -13 20 -16 20
-2 0 0 -9 6 -20z"/>
<path d="M3160 6890 c6 -11 13 -20 16 -20 2 0 0 9 -6 20 -6 11 -13 20 -16 20
-2 0 0 -9 6 -20z"/>
<path d="M3190 6840 c6 -11 13 -20 16 -20 2 0 0 9 -6 20 -6 11 -13 20 -16 20
-2 0 0 -9 6 -20z"/>
<path d="M3237 6805 c6 -18 5 -19 -12 -5 -18 14 -18 13 1 -18 23 -40 48 -65
38 -37 -5 13 -4 16 5 10 15 -9 3 17 -23 50 l-16 20 7 -20z m23 -36 c0 -6 -4
-7 -10 -4 -5 3 -10 11 -10 16 0 6 5 7 10 4 6 -3 10 -11 10 -16z"/>
<path d="M7093 7288 c-9 -24 -41 -92 -70 -152 -30 -60 -52 -110 -50 -112 4 -4
118 229 136 279 17 44 2 31 -16 -15z"/>
<path d="M6891 7234 c0 -11 3 -14 6 -6 3 7 2 16 -1 19 -3 4 -6 -2 -5 -13z"/>
<path d="M6876 7169 c-4 -23 -5 -44 -2 -46 2 -2 7 14 11 37 4 23 5 43 2 46 -2
3 -7 -14 -11 -37z"/>
<path d="M6811 7164 c0 -11 3 -14 6 -6 3 7 2 16 -1 19 -3 4 -6 -2 -5 -13z"/>
<path d="M6802 7120 c0 -14 2 -19 5 -12 2 6 2 18 0 25 -3 6 -5 1 -5 -13z"/>
<path d="M6856 7084 c-4 -14 -5 -28 -3 -31 3 -2 8 8 11 23 4 14 5 28 3 31 -3
2 -8 -8 -11 -23z"/>
<path d="M7070 7070 c-6 -11 -8 -20 -6 -20 3 0 10 9 16 20 6 11 8 20 6 20 -3
0 -10 -9 -16 -20z"/>
<path d="M6841 7024 c0 -11 3 -14 6 -6 3 7 2 16 -1 19 -3 4 -6 -2 -5 -13z"/>
<path d="M6956 6993 c-6 -14 -5 -15 5 -6 7 7 10 15 7 18 -3 3 -9 -2 -12 -12z"/>
<path d="M6796 6873 c-6 -14 -5 -15 5 -6 7 7 10 15 7 18 -3 3 -9 -2 -12 -12z"/>
<path d="M3331 7214 c0 -11 3 -14 6 -6 3 7 2 16 -1 19 -3 4 -6 -2 -5 -13z"/>
<path d="M3421 7084 c0 -11 3 -14 6 -6 3 7 2 16 -1 19 -3 4 -6 -2 -5 -13z"/>
<path d="M3435 7040 c4 -14 14 -32 22 -40 12 -12 11 -7 -2 20 -22 45 -29 52
-20 20z"/>
<path d="M3305 7031 c12 -39 35 -91 40 -91 5 0 -34 102 -42 110 -3 3 -2 -6 2
-19z"/>
<path d="M3482 6940 c0 -14 2 -19 5 -12 2 6 2 18 0 25 -3 6 -5 1 -5 -13z"/>
<path d="M3442 6930 c0 -14 2 -19 5 -12 2 6 2 18 0 25 -3 6 -5 1 -5 -13z"/>
<path d="M3361 6910 c14 -31 19 -36 19 -24 0 6 -7 19 -16 30 -14 18 -14 18 -3
-6z"/>
<path d="M3390 6780 c0 -5 5 -10 11 -10 5 0 7 5 4 10 -3 6 -8 10 -11 10 -2 0
-4 -4 -4 -10z"/>
<path d="M3040 6736 c0 -2 14 -14 30 -26 17 -12 30 -19 30 -16 0 2 -13 14 -30
26 -16 12 -30 19 -30 16z"/>
<path d="M3114 6681 c7 -11 46 -35 46 -28 0 3 -12 12 -26 22 -15 9 -23 12 -20
6z"/>
<path d="M3162 6614 c10 -10 20 -16 22 -13 3 3 -5 11 -17 18 -21 13 -21 12 -5
-5z"/>
<path d="M7100 6550 c-8 -5 -10 -10 -5 -10 6 0 17 5 25 10 8 5 11 10 5 10 -5
0 -17 -5 -25 -10z"/>
<path d="M2873 6541 c62 -32 177 -74 183 -68 4 3 -187 82 -226 93 -8 3 11 -9
43 -25z"/>
<path d="M7373 4640 c0 -41 2 -58 4 -37 2 20 2 54 0 75 -2 20 -4 3 -4 -38z"/>
<path d="M7361 4544 c0 -11 3 -14 6 -6 3 7 2 16 -1 19 -3 4 -6 -2 -5 -13z"/>
<path d="M6110 5863 c-118 -41 -208 -138 -252 -272 -18 -56 -21 -87 -20 -206
1 -77 5 -153 10 -170 5 -19 7 27 4 120 -3 115 0 166 12 218 40 171 146 280
303 312 57 11 62 13 28 14 -22 0 -60 -7 -85 -16z"/>
</g>
</svg>
