<?xml version="1.0" standalone="no"?>
<!DOCTYPE svg PUBLIC "-//W3C//DTD SVG 20010904//EN"
 "http://www.w3.org/TR/2001/REC-SVG-20010904/DTD/svg10.dtd">
<svg version="1.0" xmlns="http://www.w3.org/2000/svg"
 width="1024.000000pt" height="1024.000000pt" viewBox="0 0 1024.000000 1024.000000"
 preserveAspectRatio="xMidYMid meet">
<metadata>
Created by potrace 1.16, written by Peter Selinger 2001-2019
</metadata>
<g transform="translate(0.000000,1024.000000) scale(0.100000,-0.100000)"
fill="#000000" stroke="none">
<path d="M3225 9496 c-5 -3 -22 -7 -37 -10 -40 -9 -98 -65 -121 -116 -31 -69
-26 -165 17 -344 93 -384 203 -749 292 -964 19 -48 89 -190 153 -317 120 -234
161 -328 161 -368 0 -33 -52 -78 -160 -137 -141 -77 -242 -153 -356 -267 -56
-55 -105 -99 -108 -95 -3 3 -6 13 -6 22 0 24 -93 211 -147 294 -109 170 -246
297 -375 351 -58 24 -45 9 21 -25 125 -63 260 -205 367 -386 95 -161 134 -285
100 -313 -12 -10 -18 -4 -34 33 -65 146 -283 395 -473 540 l-64 48 65 -58 c36
-31 108 -100 160 -153 205 -208 310 -371 313 -489 2 -48 4 -57 11 -40 34 87
56 115 189 245 145 141 242 214 372 278 64 32 304 107 450 141 l60 14 -64 -6
c-54 -4 -250 -54 -315 -80 -14 -5 -18 -3 -14 7 9 29 209 149 293 175 22 7 32
13 23 13 -10 1 -18 9 -19 19 0 13 -2 12 -9 -5 -11 -27 -37 -30 -43 -5 -4 14
-5 14 -6 -3 -1 -12 -15 -27 -36 -37 -32 -16 -35 -16 -45 0 -10 15 -11 15 -5
-2 5 -17 -8 -35 -27 -36 -4 0 -9 15 -11 33 l-4 32 -1 -31 c-1 -18 -12 -40 -26
-53 l-25 -23 -15 37 c-9 21 -16 39 -16 41 0 1 -54 107 -120 234 -199 383 -275
581 -400 1050 -97 363 -110 422 -110 513 1 118 52 196 141 212 87 16 145 -21
409 -262 373 -340 525 -519 646 -762 106 -214 156 -417 157 -641 0 -109 -3
-135 -26 -205 -15 -44 -27 -91 -27 -104 0 -32 -15 -17 -29 29 l-11 35 5 -39
c4 -36 3 -38 -10 -19 -7 11 -15 39 -18 64 -3 36 -4 32 -6 -21 -2 -62 -2 -64
-16 -40 -8 14 -14 47 -15 74 0 70 -10 52 -11 -23 l-2 -62 -21 19 c-14 13 -35
18 -66 18 -29 -1 -49 4 -57 14 -11 13 -12 12 -13 -7 0 -25 -15 -31 -23 -10 -4
7 -6 6 -6 -5 -1 -9 -7 -19 -13 -21 -7 -3 6 -6 30 -6 61 -1 106 -24 136 -67 14
-21 26 -32 26 -23 0 34 178 53 232 25 31 -16 209 -159 249 -200 l27 -26 -5 67
c-7 88 -20 113 -16 31 2 -54 1 -58 -7 -30 -6 17 -14 47 -20 65 l-10 32 5 -37
c2 -21 2 -38 0 -38 -11 0 -39 70 -45 115 l-8 50 -1 -43 c0 -24 4 -53 10 -65
l12 -22 -25 23 c-13 12 -29 22 -35 22 -6 0 -13 7 -17 15 -3 8 -12 15 -20 15
-8 0 -18 10 -21 21 -5 16 -9 18 -15 9 -11 -18 -60 32 -60 61 0 11 18 78 39
147 22 70 58 190 81 267 103 351 237 583 463 807 120 118 233 199 414 296 168
90 346 195 473 277 115 75 142 89 198 105 60 16 99 5 123 -33 25 -43 24 -67
-11 -216 -16 -69 -52 -247 -80 -396 -70 -374 -103 -512 -171 -718 -66 -203
-112 -303 -197 -432 -92 -138 -178 -232 -313 -341 -68 -55 -138 -119 -156
-142 -37 -48 -83 -183 -83 -242 0 -21 -4 -41 -10 -45 -5 -3 -7 -12 -3 -21 14
-36 -66 -185 -113 -211 -16 -9 -42 -22 -57 -30 -16 -8 -26 -17 -24 -20 3 -2
27 7 54 20 l49 25 12 -26 c14 -33 34 -194 27 -214 -4 -9 18 -46 54 -91 34 -42
61 -79 61 -82 0 -3 -7 -5 -15 -5 -20 0 -19 -7 5 -33 12 -12 16 -23 10 -25 -16
-6 -1 -21 37 -37 34 -15 42 -43 9 -37 -18 3 -21 -9 -7 -23 6 -6 17 -36 25 -68
8 -32 22 -72 31 -89 18 -38 18 -39 1 -32 -17 7 -30 -12 -15 -22 8 -5 7 -9 -2
-15 -10 -6 -9 -12 5 -28 11 -12 14 -21 7 -21 -7 0 -6 -8 5 -25 17 -26 15 -29
-26 -25 l-25 2 23 -25 23 -24 -23 -6 c-22 -6 -22 -7 -3 -21 19 -15 19 -15 -10
-16 -16 0 -37 -5 -45 -10 -11 -7 -3 -10 30 -11 40 0 43 -2 22 -11 -13 -7 -21
-17 -18 -25 3 -8 -4 -17 -17 -22 -13 -5 -29 -16 -36 -25 -12 -14 -10 -16 10
-17 22 0 21 -2 -7 -12 -17 -7 -42 -19 -55 -28 l-24 -17 30 5 c105 15 106 16
160 128 28 57 55 104 61 104 12 1 238 -182 263 -212 7 -10 17 -17 22 -17 4 0
-40 46 -97 102 -58 56 -101 104 -95 106 20 7 277 -50 381 -84 232 -76 531
-247 740 -422 126 -105 318 -304 409 -422 241 -313 431 -664 546 -1011 66
-202 85 -287 105 -479 21 -198 11 -311 -53 -595 -30 -137 -59 -267 -62 -287
-4 -21 -11 -38 -15 -38 -4 0 -6 -12 -3 -28 3 -23 2 -24 -6 -7 -8 17 -10 15
-11 -15 0 -19 -12 -66 -25 -105 l-24 -70 6 55 c8 79 -5 57 -21 -36 -25 -141
-62 -202 -67 -109 -1 20 -4 14 -9 -20 -23 -165 -77 -379 -108 -426 -14 -21
-113 -104 -160 -133 -6 -3 -60 -15 -119 -26 -164 -30 -189 -41 -291 -129 -100
-85 -164 -114 -287 -127 -57 -6 -59 -5 -40 11 20 16 20 16 -5 10 -65 -17 -65
-18 -64 75 1 118 22 178 101 290 l18 24 -33 -24 c-75 -56 -122 -174 -122 -311
0 -89 2 -87 -102 -96 -63 -5 -68 -4 -76 16 l-8 22 -18 -20 c-19 -21 -70 -28
-92 -13 -36 24 -43 94 -20 203 18 83 45 136 94 189 22 22 34 40 29 40 -6 0
-34 -24 -63 -53 -63 -66 -91 -142 -100 -274 l-7 -92 -31 16 c-17 9 -41 16 -53
14 -14 -1 -28 7 -40 25 -27 42 -24 190 5 263 25 65 22 79 -6 24 -28 -55 -35
-96 -33 -195 1 -72 -2 -88 -14 -88 -25 0 -45 55 -45 122 0 81 22 162 58 213
31 44 170 153 246 192 151 77 362 64 636 -38 116 -43 170 -57 270 -69 47 -6
96 -13 110 -16 14 -3 -3 10 -38 29 -35 20 -79 47 -98 62 -51 39 -53 24 -2 -20
l43 -37 -90 46 -90 47 37 -36 c21 -19 36 -35 34 -35 -18 0 -60 24 -92 52 -21
18 -34 26 -30 18 8 -16 -10 5 -31 37 -8 11 -8 4 1 -19 8 -21 12 -38 7 -38 -9
0 -54 48 -70 75 -11 17 -12 16 -7 -14 l6 -34 -22 18 c-13 11 -40 37 -60 59
-45 49 -50 44 -8 -9 35 -44 32 -55 -6 -30 -43 28 -75 66 -96 113 -11 24 -22
42 -24 39 -10 -10 28 -83 58 -115 27 -26 29 -32 13 -32 -10 0 -35 18 -57 40
-21 23 -38 36 -38 31 0 -5 4 -13 10 -16 5 -3 15 -16 21 -28 10 -18 7 -17 -19
6 -40 38 -51 89 -47 216 2 82 0 102 -8 89 -7 -9 -18 -25 -25 -35 -7 -10 -10
-11 -6 -3 4 8 34 55 67 104 69 102 158 300 126 280 -6 -3 -7 12 -4 38 8 53 -9
31 -20 -27 -10 -55 -34 -99 -101 -182 -97 -118 -226 -264 -231 -260 -2 3 2 20
10 39 13 31 7 27 -57 -37 -89 -89 -251 -197 -353 -236 -26 -10 -27 -9 -10 9
16 17 16 20 2 25 -20 8 -47 -2 -38 -16 3 -6 1 -7 -6 -3 -6 4 -23 1 -36 -8 -13
-8 -64 -33 -114 -54 -82 -36 -89 -37 -80 -18 7 15 5 14 -8 -4 -10 -14 -29 -36
-43 -48 -58 -55 -14 63 70 188 268 396 354 550 429 770 58 168 88 431 57 505
-21 50 -26 43 -10 -12 8 -25 14 -78 13 -117 l-1 -71 -13 76 c-7 42 -18 85 -25
95 -10 17 -11 16 -5 -6 13 -55 17 -142 10 -226 l-8 -89 -18 55 c-11 30 -24 59
-31 65 -8 7 -9 5 -3 -10 13 -33 18 -112 9 -142 l-8 -28 -6 35 c-6 26 -8 15 -9
-45 -1 -44 -4 -91 -8 -105 -6 -22 -7 -21 -19 15 l-12 40 -1 -66 c-1 -80 -12
-95 -27 -37 l-12 43 -1 -70 c-1 -78 -9 -115 -23 -115 -5 0 -6 5 -2 12 5 7 3 8
-5 4 -7 -5 -10 -15 -6 -24 3 -8 0 -31 -6 -51 l-12 -36 -12 29 c-12 29 -12 28
-33 -40 -14 -46 -49 -111 -102 -193 -82 -127 -98 -149 -87 -118 17 47 -8 3
-77 -135 -122 -246 -146 -342 -146 -584 0 -78 -4 -154 -9 -167 -22 -57 -116
-112 -212 -123 -53 -6 -56 -5 -62 17 -4 13 -7 78 -8 144 0 79 -3 113 -9 100
-5 -11 -9 -78 -8 -149 0 -127 0 -130 -23 -138 -29 -11 -206 -13 -278 -3 l-54
7 6 97 c6 97 29 184 64 237 10 16 12 25 5 20 -46 -28 -87 -144 -97 -274 -7
-76 -9 -83 -32 -88 -17 -5 -31 0 -49 17 -13 12 -24 18 -24 12 0 -7 -20 -11
-47 -11 -35 1 -52 6 -61 20 -9 12 -21 17 -32 13 -21 -7 -30 18 -30 87 0 59 28
135 70 188 42 53 22 52 -24 -1 -41 -49 -65 -111 -73 -196 -6 -61 -6 -62 -28
-47 -13 8 -26 25 -29 37 -5 18 -8 19 -15 8 -15 -24 -39 4 -47 54 -13 87 40
207 127 292 90 87 192 217 225 288 69 144 165 551 167 705 2 93 -8 269 -16
276 -2 2 -10 -15 -17 -38 l-14 -43 -7 40 c-3 22 -7 36 -8 30 -2 -5 -15 35 -29
90 -24 87 -96 244 -108 232 -2 -2 3 -26 11 -52 15 -53 12 -75 -5 -31 -18 49
-63 136 -68 132 -6 -6 35 -112 55 -143 33 -51 -3 -14 -59 59 -31 40 -72 104
-92 141 -20 38 -36 64 -36 58 0 -23 49 -130 83 -182 66 -101 120 -174 134
-183 28 -16 45 -80 51 -186 5 -108 17 -137 39 -97 11 20 12 19 13 -18 0 -53
19 -27 21 30 1 35 3 32 10 -20 9 -65 5 -165 -13 -290 l-11 -80 -38 80 c-21 44
-39 78 -39 75 0 -3 9 -34 20 -70 11 -36 20 -67 20 -69 0 -10 -45 37 -61 64
-11 17 -19 24 -19 16 0 -32 -46 48 -62 108 -16 59 -17 35 -2 -39 10 -46 -14 1
-38 75 -16 48 -24 63 -26 47 -2 -13 1 -37 7 -54 6 -17 9 -33 7 -35 -7 -8 -94
153 -106 196 -6 24 -14 40 -17 37 -8 -8 17 -125 34 -160 8 -16 10 -25 4 -21
-21 12 -59 100 -76 175 -27 120 -35 134 -29 50 4 -41 12 -90 20 -109 12 -29
12 -32 0 -22 -23 19 -55 105 -70 188 -8 43 -15 65 -15 48 -1 -48 25 -155 54
-219 14 -32 24 -63 23 -68 -4 -10 -98 126 -135 193 -17 32 -22 36 -27 22 -3
-10 -3 27 -1 82 4 108 -7 86 -20 -39 -8 -77 -19 -77 -41 1 l-14 48 4 -60 c2
-33 6 -69 10 -80 3 -11 -6 5 -22 36 -18 36 -33 89 -41 143 -7 47 -16 84 -20
81 -9 -5 5 -117 19 -159 6 -16 8 -31 6 -33 -8 -8 -23 31 -50 132 -33 122 -46
156 -39 100 2 -22 9 -53 14 -69 11 -37 5 -45 -11 -14 -20 38 -93 148 -97 144
-2 -1 9 -47 23 -102 14 -54 28 -109 31 -121 3 -13 9 -20 14 -17 5 3 9 -3 10
-13 0 -16 1 -16 8 2 7 17 13 11 39 -42 18 -34 43 -91 56 -126 26 -70 56 -131
80 -162 8 -11 -6 31 -30 94 -25 62 -43 115 -41 117 2 2 18 -15 35 -39 18 -23
63 -82 101 -131 80 -102 110 -173 121 -283 l7 -78 2 76 c0 43 -6 97 -14 125
-20 66 -19 75 5 36 40 -65 72 -181 65 -231 -6 -41 -37 -119 -64 -161 -6 -8
-20 -51 -33 -95 l-23 -80 -5 45 -6 45 -8 -50 c-16 -102 -58 -270 -70 -285 -7
-8 -30 -48 -52 -89 -54 -105 -85 -134 -169 -160 -154 -48 -366 -53 -412 -9
-17 16 -23 32 -23 65 0 59 18 90 87 153 58 53 58 53 16 32 -87 -45 -145 -149
-123 -222 5 -19 10 -38 10 -42 0 -5 -31 -8 -69 -8 -49 0 -72 4 -81 15 -13 16
-50 21 -50 6 0 -4 -11 -6 -25 -3 -19 3 -27 14 -36 46 -27 101 33 242 131 308
l25 17 -34 -9 c-42 -12 -75 -41 -108 -97 -27 -47 -53 -131 -53 -178 l-1 -30
-19 23 c-44 53 -33 186 23 269 46 68 104 103 223 133 23 5 61 28 87 51 84 73
128 201 142 414 8 112 -5 178 -84 425 -52 165 -61 218 -60 385 l0 140 36 -69
c32 -59 38 -66 49 -52 9 13 13 14 17 4 4 -10 6 -9 7 2 1 8 8 -7 16 -35 l13
-50 -6 60 c-3 33 -16 89 -29 125 l-23 65 -3 -59 -3 -60 -47 95 c-35 68 -48 87
-49 69 l-1 -25 -8 25 c-6 18 -8 6 -9 -45 -2 -82 -5 -78 -61 63 -45 113 -61
108 -41 -11 4 -26 4 -44 0 -40 -17 17 -68 192 -75 255 -4 37 -11 65 -15 62
-18 -11 -8 -174 16 -249 3 -11 -5 0 -19 25 -52 92 -76 191 -77 318 -1 64 -4
105 -6 90 -7 -47 -20 -31 -27 32 -4 33 -13 77 -21 97 l-14 38 0 -76 c-1 -42
-4 -92 -7 -110 -5 -33 -5 -33 9 -10 l14 23 6 -23 c4 -13 7 -49 7 -79 1 -115
55 -280 115 -352 15 -17 39 -56 55 -87 15 -31 43 -69 60 -86 l32 -30 -16 33
c-10 18 -15 39 -12 45 3 8 5 8 5 -1 1 -7 5 -11 10 -8 5 3 22 -15 39 -42 27
-43 30 -57 35 -157 6 -115 22 -186 92 -410 34 -108 38 -134 43 -256 7 -211
-29 -346 -117 -436 -28 -30 -56 -45 -112 -63 -41 -13 -90 -31 -110 -41 -39
-19 -100 -82 -122 -126 -19 -36 -37 -123 -37 -173 0 -35 -3 -40 -27 -46 -222
-48 -197 -98 74 -150 71 -14 160 -18 452 -20 200 -2 365 -5 368 -8 3 -3 -8 -8
-23 -12 l-29 -8 25 -7 25 -7 -25 -1 c-22 -1 -23 -3 -7 -12 21 -12 14 -29 -13
-29 -10 0 -20 -7 -24 -15 -4 -11 2 -15 22 -16 l27 -1 -25 -7 -25 -7 31 -17
c42 -22 93 -33 244 -52 69 -8 157 -20 195 -25 214 -31 317 -39 470 -40 191 0
404 21 512 51 104 29 260 47 499 59 344 16 612 46 1009 110 132 21 301 48 375
60 538 85 730 132 730 178 0 61 -157 106 -448 127 -85 7 -92 9 -79 24 8 9 21
30 30 46 12 24 25 32 68 43 59 13 241 102 247 120 2 6 -7 12 -20 14 -21 3 -20
5 12 22 34 18 55 37 87 84 14 20 14 25 2 33 -11 7 -10 11 9 24 12 9 31 37 42
63 12 26 25 55 30 64 14 25 12 31 -5 24 -13 -5 -14 -2 -2 22 23 46 28 89 11
96 -9 4 -12 11 -7 18 4 7 8 24 9 38 1 14 3 32 5 40 3 11 -3 14 -18 12 -26 -4
-26 -2 -14 50 7 28 5 38 -5 42 -8 3 -14 18 -14 33 0 15 -9 39 -20 53 -17 21
-21 23 -30 10 -12 -19 -13 -4 0 39 5 19 7 38 4 43 -8 12 -49 -27 -77 -71 -11
-19 -22 -30 -24 -24 -2 6 16 115 41 241 39 193 46 249 46 346 0 226 -35 417
-125 690 -94 285 -258 601 -455 876 -120 168 -193 251 -359 412 -368 356 -786
571 -1241 638 -105 15 -144 42 -154 108 -6 38 -4 42 14 42 26 0 25 8 -4 39
-32 34 -42 83 -21 101 21 17 19 36 -5 53 -11 8 -17 17 -13 20 3 4 -7 24 -23
45 -47 58 -48 61 -20 72 36 13 32 37 -7 53 -45 19 -140 125 -134 149 3 10 -1
31 -9 46 -8 15 -14 37 -14 49 0 13 -5 54 -12 92 -12 69 -11 71 19 133 38 78
63 160 63 207 0 71 44 198 83 240 12 13 65 58 117 99 262 208 425 441 538 772
69 201 140 507 207 895 14 83 39 203 56 267 16 64 29 134 29 155 0 48 -30 97
-71 118 -66 34 -154 0 -388 -149 -80 -51 -200 -122 -266 -158 -321 -175 -416
-240 -559 -382 -174 -172 -310 -379 -396 -602 -15 -41 -54 -161 -86 -266 -31
-106 -65 -210 -74 -231 -17 -38 -17 -37 -23 160 -4 163 -10 217 -30 303 -50
212 -156 438 -290 617 -148 197 -656 686 -788 757 -43 24 -112 40 -134 32z
m1422 -6898 c-3 -8 -6 -5 -6 6 -1 11 2 17 5 13 3 -3 4 -12 1 -19z m3135 -223
c-3 -60 6 -83 23 -55 4 6 10 8 14 6 10 -6 1 -67 -11 -83 -7 -9 -7 -13 1 -13 6
0 11 -8 11 -17 1 -13 8 -9 30 17 41 48 37 25 -7 -46 -55 -86 -56 -106 -3 -64
41 32 42 33 35 9 -4 -13 -22 -48 -41 -76 -24 -37 -30 -53 -20 -53 8 0 18 5 21
10 3 6 11 10 16 10 16 0 -11 -41 -64 -98 -28 -29 -43 -50 -34 -46 34 13 16
-22 -38 -76 -37 -37 -51 -57 -45 -65 7 -8 -16 -24 -80 -54 -116 -56 -150 -51
-52 7 72 43 99 66 42 37 -41 -21 -57 -19 -35 5 10 11 14 20 9 20 -5 1 2 10 15
20 13 11 18 20 12 20 -7 0 -9 5 -5 12 5 8 1 9 -12 5 -20 -8 -17 -4 41 39 11 8
0 5 -25 -7 l-45 -22 45 42 c42 40 40 46 -5 13 -11 -8 -3 1 17 21 21 21 32 37
25 37 -6 1 15 26 48 57 l60 56 -65 -50 c-90 -68 -95 -71 -80 -43 6 12 28 40
48 63 l37 42 -40 -29 -40 -29 30 32 c23 25 26 31 10 25 -17 -7 -18 -5 -8 8 7
8 10 18 6 22 -4 4 -1 4 8 1 9 -3 26 7 44 25 16 16 25 30 21 30 -5 0 -2 8 5 17
12 15 12 16 -1 8 -8 -4 -27 -17 -42 -27 -32 -22 -34 -16 -16 46 14 50 34 75
24 31 l-6 -30 20 24 c12 13 19 30 16 38 -3 7 -2 13 3 13 4 0 8 14 8 30 0 35
-5 37 -23 13 -12 -16 -13 -14 -8 17 13 74 22 106 23 82 l1 -24 42 31 c23 17
42 31 42 31 1 0 -1 -29 -2 -65z m-3181 -339 c15 -22 25 -45 22 -53 -3 -8 -12
-1 -22 20 -20 39 -93 129 -99 122 -3 -3 18 -39 47 -81 28 -42 51 -83 51 -92 0
-13 -105 137 -113 162 -5 15 -27 -3 -27 -22 0 -9 8 -30 18 -47 80 -131 93
-165 27 -70 -58 84 -57 66 2 -27 13 -21 19 -38 13 -38 -5 0 -17 15 -26 33 -9
17 -25 43 -35 56 -19 24 -26 57 -10 47 4 -3 1 15 -7 40 -8 24 -11 48 -7 52 4
4 10 1 12 -5 8 -22 25 -14 18 8 -5 15 -4 19 4 15 6 -4 11 -1 11 6 0 15 83 -71
121 -126z m-167 41 c4 -19 3 -26 -4 -22 -12 7 -3 -17 30 -83 29 -59 21 -62
-15 -7 -30 49 -40 57 -30 25 8 -26 -6 -26 -28 0 -16 19 -16 23 9 71 14 28 27
49 28 47 2 -1 6 -16 10 -31z m96 -58 c29 -49 50 -92 48 -94 -7 -7 -97 132
-104 159 -3 14 -4 26 -1 26 2 0 28 -41 57 -91z m110 28 c0 -13 -29 12 -42 37
-10 19 -8 18 16 -3 14 -14 26 -29 26 -34z m1715 -111 c0 -88 3 -107 19 -125
29 -32 3 -25 -33 8 -17 16 -31 25 -31 21 0 -5 5 -12 10 -15 6 -3 10 -11 10
-17 0 -6 -9 -3 -21 8 -16 14 -19 26 -14 49 3 16 9 46 12 65 l7 35 7 -35 c6
-34 6 -33 8 12 1 40 15 98 23 98 2 0 3 -47 3 -104z m63 -123 c10 -18 10 -22
-1 -17 -29 11 -50 67 -54 143 l-3 76 23 -90 c13 -49 29 -100 35 -112z m-2032
164 c24 -26 48 -67 41 -73 -9 -9 -86 68 -80 82 7 19 14 18 39 -9z m59 -38 c9
-17 14 -33 11 -36 -4 -4 -36 49 -36 62 0 13 11 2 25 -26z m-115 -25 c0 -8 -5
-12 -10 -9 -6 4 -8 11 -5 16 9 14 15 11 15 -7z m-33 -36 c-3 -8 -6 -5 -6 6 -1
11 2 17 5 13 3 -3 4 -12 1 -19z m3273 -92 c0 -2 -7 -7 -16 -10 -8 -3 -12 -2
-9 4 6 10 25 14 25 6z m-3020 -48 c0 -19 -101 -165 -143 -206 -48 -47 -117
-70 -117 -38 0 18 -16 22 -22 6 -2 -7 -14 -7 -36 1 -25 8 -36 9 -45 0 -6 -6
-17 -11 -25 -11 -16 0 -12 26 20 127 24 81 51 111 108 122 60 11 260 11 260
-1z m1306 -141 c4 -4 -1 -14 -12 -22 -15 -11 -56 -14 -186 -15 -91 0 -173 -3
-182 -6 -9 -3 -16 -1 -16 5 0 13 36 29 95 41 48 10 290 8 301 -3z"/>
<path d="M4480 2140 c0 -5 5 -10 11 -10 5 0 7 5 4 10 -3 6 -8 10 -11 10 -2 0
-4 -4 -4 -10z"/>
<path d="M6331 1864 c0 -11 3 -14 6 -6 3 7 2 16 -1 19 -3 4 -6 -2 -5 -13z"/>
<path d="M4465 1715 c-11 -8 -29 -22 -40 -31 -11 -8 -38 -26 -60 -39 -22 -14
-35 -25 -28 -25 11 0 163 98 163 106 0 8 -15 3 -35 -11z"/>
<path d="M4340 1710 c-11 -8 -7 -9 15 -4 37 8 45 14 19 14 -10 0 -26 -5 -34
-10z"/>
<path d="M6145 9257 c-33 -18 -107 -65 -165 -104 -104 -70 -267 -161 -430
-241 -90 -45 -232 -152 -316 -241 -62 -64 -131 -178 -185 -303 -57 -131 -68
-184 -94 -448 -3 -30 -8 -75 -11 -100 -3 -33 -2 -41 5 -30 6 8 11 24 11 36 0
11 3 24 7 27 8 9 43 107 38 107 -3 0 -11 -12 -20 -27 l-16 -28 5 45 c28 231
46 303 107 443 58 132 112 219 181 293 86 92 105 96 47 11 -36 -53 -66 -120
-115 -252 -70 -191 -84 -242 -64 -230 8 5 10 2 6 -11 -7 -25 -23 -104 -26
-129 -1 -11 -3 -169 -4 -350 -3 -352 -5 -379 -39 -459 -21 -47 -22 -62 -16
-186 3 -74 6 -130 8 -125 1 6 6 62 10 126 4 63 13 124 19 135 9 15 11 -16 12
-136 0 -104 4 -150 10 -140 5 8 10 33 10 55 0 28 3 36 9 26 10 -15 14 2 25
101 9 80 62 199 136 306 73 105 97 160 34 78 -20 -26 -38 -45 -40 -43 -3 3 4
42 16 87 12 45 19 84 17 86 -2 2 -14 -30 -27 -72 -12 -41 -31 -85 -41 -97 -17
-20 -17 -17 2 26 11 27 18 51 16 54 -3 2 -8 -6 -12 -19 -9 -32 -67 -117 -84
-123 -10 -4 -11 -2 -4 7 6 7 10 20 10 28 0 17 73 153 79 147 3 -2 -11 -32 -31
-67 -20 -35 -34 -65 -31 -67 5 -5 81 135 88 165 4 14 2 20 -5 15 -6 -4 -8 0
-4 10 14 37 -5 14 -23 -27 -17 -42 -48 -78 -33 -40 5 13 3 15 -7 9 -9 -5 -11
-4 -6 4 4 6 12 8 18 5 7 -4 8 -2 4 4 -6 11 8 50 23 62 9 7 71 138 71 147 -1 5
-10 -10 -22 -32 -30 -59 -84 -139 -104 -156 -11 -8 -3 13 19 52 20 36 33 70
29 74 -4 5 -2 5 4 2 7 -4 24 17 43 52 34 64 41 92 13 50 -9 -15 -27 -37 -39
-50 -13 -13 -39 -46 -58 -74 -19 -27 -35 -45 -35 -40 0 6 7 20 15 31 8 12 12
24 9 27 -4 3 9 25 28 49 20 24 47 66 62 93 15 28 19 39 9 25 -25 -34 -76 -88
-67 -70 5 8 20 33 34 55 31 46 63 130 58 147 -2 6 -14 -12 -26 -41 -18 -43
-80 -151 -87 -151 -6 0 47 135 79 200 20 41 36 81 36 90 -1 11 -4 9 -11 -5
-23 -42 -122 -185 -126 -182 -9 9 30 87 40 80 6 -3 7 -1 3 6 -4 7 3 26 17 44
13 18 34 52 47 77 12 24 31 56 40 70 10 14 22 36 26 50 14 48 -21 3 -65 -83
-61 -119 -90 -149 -36 -37 25 52 66 124 92 160 27 36 56 81 66 100 9 19 12 27
5 16 -7 -10 -26 -36 -43 -59 -81 -108 -133 -186 -140 -206 -11 -35 -16 -19 -5
18 5 17 32 65 59 106 53 77 83 127 94 158 11 31 1 18 -37 -43 -48 -78 -62 -85
-32 -15 14 30 20 53 15 49 -7 -4 -7 1 0 15 7 11 14 21 17 21 3 0 2 -5 -2 -12
-4 -7 -3 -8 4 -4 6 4 8 14 5 23 -4 11 -3 14 5 9 8 -4 10 -2 6 7 -7 20 42 108
85 152 19 20 54 50 78 66 59 41 54 45 -9 7 -66 -39 -105 -75 -125 -111 -8 -16
-17 -26 -20 -23 -8 8 32 67 71 105 19 19 33 37 31 41 -3 4 2 13 10 20 12 10
15 10 15 -1 0 -8 8 -5 23 9 22 21 357 191 427 218 19 7 29 13 22 13 -21 1
-136 -46 -252 -104 -105 -52 -191 -86 -122 -47 18 10 29 21 25 25 -4 5 1 5 11
1 13 -5 17 -4 13 3 -11 18 285 183 372 208 42 12 90 29 106 38 l30 16 -35 -6
c-19 -3 -53 -12 -75 -19 -50 -17 -54 -12 -16 16 17 11 54 42 83 67 29 25 70
53 90 63 21 9 35 20 31 23 -11 12 -26 7 -88 -26z m-685 -533 c-8 -8 -23 -20
-34 -26 -19 -10 -18 -8 3 16 26 27 53 37 31 10z m-105 -185 c-9 -17 -19 -29
-22 -26 -5 5 25 57 33 57 3 0 -3 -14 -11 -31z m-41 -64 c-9 -14 -18 -25 -21
-25 -5 0 5 18 20 38 17 22 18 13 1 -13z m-51 -30 c-3 -9 -8 -14 -10 -11 -3 3
-2 9 2 15 9 16 15 13 8 -4z m9 -111 c-15 -32 -33 -70 -40 -84 -11 -24 -11 -24
-5 5 6 31 63 148 69 142 2 -2 -9 -30 -24 -63z"/>
<path d="M3195 9202 c6 -78 62 -218 126 -317 25 -38 86 -122 136 -185 49 -63
106 -140 126 -170 40 -60 117 -241 117 -274 0 -12 14 -47 31 -79 17 -32 28
-61 26 -64 -3 -3 -12 8 -21 24 -8 15 -15 24 -16 18 0 -5 9 -25 20 -43 11 -18
20 -37 20 -42 0 -5 11 -21 25 -36 28 -30 32 -25 11 14 -7 15 -19 49 -25 77 -7
27 -28 85 -47 128 -39 90 -39 111 1 43 29 -50 40 -59 26 -23 -55 140 -153 296
-305 487 -121 151 -200 294 -236 430 l-20 75 5 -63z m480 -803 c9 -17 15 -33
13 -35 -3 -2 -12 12 -21 31 -21 43 -13 47 8 4z"/>
<path d="M6101 9164 c-19 -8 -32 -16 -29 -19 6 -6 81 15 93 26 14 14 -26 10
-64 -7z"/>
<path d="M6040 9073 c-63 -10 -132 -40 -220 -93 -52 -32 -113 -67 -135 -78
-22 -12 -37 -21 -32 -22 4 0 60 27 125 59 65 33 154 73 198 90 75 30 121 52
99 49 -5 0 -21 -3 -35 -5z"/>
<path d="M5594 8774 c-18 -14 -18 -15 4 -4 12 6 22 13 22 15 0 8 -5 6 -26 -11z"/>
<path d="M5454 8628 l-29 -33 33 29 c30 28 37 36 29 36 -2 0 -16 -15 -33 -32z"/>
<path d="M5432 8553 c-10 -16 -24 -38 -31 -50 -21 -41 -5 -24 27 27 33 54 36
68 4 23z"/>
<path d="M5379 8523 c-13 -16 -12 -17 4 -4 9 7 17 15 17 17 0 8 -8 3 -21 -13z"/>
<path d="M3735 8045 c4 -54 41 -351 52 -425 4 -30 8 -37 11 -22 2 12 7 20 11
17 5 -2 2 14 -6 37 -7 22 -13 62 -13 87 1 25 -2 69 -5 96 -4 28 -10 86 -14
130 -5 44 -9 73 -10 65 -1 -8 -9 3 -17 25 l-14 40 5 -50z"/>
<path d="M3840 7896 c0 -2 8 -10 18 -17 15 -13 16 -12 3 4 -13 16 -21 21 -21
13z"/>
<path d="M3540 7864 c0 -5 14 -36 31 -69 17 -33 60 -121 96 -195 40 -83 62
-121 59 -100 -6 37 -25 76 -120 255 -63 118 -66 123 -66 109z"/>
<path d="M4976 7824 c-11 -29 -36 -145 -36 -167 1 -37 37 66 44 127 7 55 4 71
-8 40z"/>
<path d="M5752 7790 c-58 -126 -162 -247 -364 -422 -67 -59 -101 -112 -112
-178 -4 -24 1 -16 15 24 23 64 42 85 229 256 57 52 124 122 148 155 43 58 119
202 110 210 -2 2 -14 -18 -26 -45z"/>
<path d="M4302 7655 c0 -16 2 -22 5 -12 2 9 2 23 0 30 -3 6 -5 -1 -5 -18z"/>
<path d="M4962 7640 c-6 -11 -12 -28 -12 -37 0 -12 7 -7 20 15 11 18 20 35 20
37 0 12 -16 3 -28 -15z"/>
<path d="M4362 7605 c0 -16 2 -22 5 -12 2 9 2 23 0 30 -3 6 -5 -1 -5 -18z"/>
<path d="M4976 7548 c-31 -105 -30 -102 -16 -93 10 6 12 1 7 -22 -3 -17 -9
-44 -12 -59 l-5 -29 14 30 c9 17 15 47 16 67 0 20 5 60 11 87 16 77 6 90 -15
19z"/>
<path d="M3792 7545 c0 -16 2 -22 5 -12 2 9 2 23 0 30 -3 6 -5 -1 -5 -18z"/>
<path d="M4028 7493 c7 -3 16 -2 19 1 4 3 -2 6 -13 5 -11 0 -14 -3 -6 -6z"/>
<path d="M4788 7234 c-1 -31 0 -61 4 -67 4 -7 8 18 8 56 0 81 -7 88 -12 11z"/>
<path d="M4824 7245 c-3 -25 -3 -66 2 -92 7 -46 8 -47 15 -18 3 17 7 41 7 55
0 23 -1 22 -9 -5 -5 -19 -6 -6 -2 38 6 76 -2 91 -13 22z"/>
<path d="M4576 7208 c21 -31 41 -54 42 -53 5 5 -56 92 -70 101 -6 4 7 -18 28
-48z"/>
<path d="M4606 7207 c3 -10 9 -15 12 -12 3 3 0 11 -7 18 -10 9 -11 8 -5 -6z"/>
<path d="M4863 7125 c0 -27 2 -38 4 -22 2 15 2 37 0 50 -2 12 -4 0 -4 -28z"/>
<path d="M4690 7146 c0 -2 11 -24 25 -47 30 -53 33 -44 5 11 -18 35 -30 49
-30 36z"/>
<path d="M4913 7055 c0 -33 2 -45 4 -27 2 18 2 45 0 60 -2 15 -4 0 -4 -33z"/>
<path d="M2340 7086 c0 -2 17 -10 38 -16 81 -26 231 -96 315 -148 96 -59 209
-158 233 -204 l15 -28 -28 13 c-15 7 -58 27 -94 44 -80 38 -243 74 -331 72
l-63 -2 80 -9 c159 -18 337 -75 417 -133 23 -17 22 -17 -17 -12 -47 5 -85 -7
-85 -26 0 -10 17 -16 50 -20 28 -3 55 -9 60 -12 5 -3 0 -25 -10 -48 -28 -62
-33 -114 -21 -184 11 -58 10 -70 -29 -215 -32 -119 -53 -175 -96 -256 -33 -61
-61 -101 -67 -98 -7 2 -61 27 -122 54 -60 28 -225 88 -365 135 -261 86 -349
124 -432 183 -27 19 -48 32 -48 29 0 -12 132 -100 195 -130 39 -18 142 -56
230 -85 213 -68 366 -126 445 -166 95 -48 94 -48 80 -74 -13 -25 -5 -25 -155
13 -105 27 -242 45 -215 29 8 -5 38 -12 66 -16 50 -6 119 -22 222 -52 41 -12
52 -20 52 -36 0 -23 6 -23 -180 8 -65 11 -178 17 -360 19 l-265 3 215 -8 c261
-10 313 -14 458 -41 70 -13 112 -26 112 -33 0 -7 -5 -38 -11 -69 l-12 -57 -62
0 c-167 0 -471 -42 -618 -85 -92 -27 -61 -27 44 -1 138 35 595 87 634 72 7 -2
14 -23 17 -45 l3 -40 -127 -41 c-119 -38 -299 -113 -413 -173 -85 -44 -40 -30
88 29 67 31 187 77 267 104 185 61 200 64 200 46 0 -8 2 -21 5 -28 4 -10 -19
-22 -81 -42 -174 -56 -444 -213 -564 -326 l-55 -52 65 50 c161 123 377 245
530 300 47 17 93 33 103 37 13 5 17 2 17 -13 0 -12 5 -24 10 -27 18 -11 10
-22 -21 -29 -37 -7 -149 -78 -244 -155 -99 -79 -257 -223 -251 -228 2 -3 53
38 113 91 175 154 332 266 396 281 23 6 27 4 27 -13 0 -12 -26 -40 -70 -76
-155 -126 -367 -388 -456 -563 -51 -103 -40 -100 19 5 93 165 175 271 332 427
82 83 163 157 178 165 25 12 30 12 48 -7 l21 -20 -72 -79 c-222 -242 -370
-486 -454 -751 -48 -149 -46 -178 3 -38 107 311 240 537 441 747 l98 103 26
-25 25 -25 -52 -62 c-152 -180 -293 -487 -331 -722 -16 -92 -31 -279 -23 -271
3 3 12 68 21 145 9 77 27 181 40 230 28 103 105 298 143 365 75 128 195 290
216 290 6 0 2 -10 -9 -22 -31 -37 -79 -108 -71 -108 2 0 19 21 37 48 61 85 96
99 50 20 -81 -138 -179 -353 -166 -365 2 -2 11 18 21 44 40 110 185 368 193
344 3 -9 7 -9 18 0 12 9 14 6 14 -22 0 -33 0 -33 16 -11 9 13 26 22 41 22 25
0 25 -2 21 -50 -3 -32 -14 -61 -30 -82 l-24 -32 22 -41 22 -42 -45 -144 c-44
-142 -62 -252 -63 -372 0 -77 19 -72 36 9 7 32 26 88 43 124 43 91 41 112 -7
68 l-25 -23 7 29 c8 34 27 76 56 125 22 40 20 47 -9 31 -26 -13 -26 -9 0 41
24 47 79 212 73 218 -3 3 -19 -3 -37 -14 l-32 -18 19 21 c11 12 25 22 32 22 7
0 11 6 8 14 -3 9 4 20 18 27 22 12 22 11 8 -7 -9 -12 -5 -10 12 5 l27 24 39
-35 c21 -19 57 -43 80 -54 33 -15 40 -23 35 -39 -5 -19 -5 -19 14 -2 47 41 44
5 -3 -54 l-36 -44 34 35 c19 19 41 41 50 48 18 15 48 6 48 -15 0 -8 5 -11 10
-8 13 8 13 -11 -1 -38 -10 -21 -10 -21 5 -3 9 11 16 23 16 28 0 4 5 8 11 8 6
0 8 -7 5 -15 -15 -38 -16 -47 -1 -22 23 39 29 28 10 -16 -20 -49 -11 -47 15 3
11 22 22 40 25 40 9 0 2 -87 -11 -124 -8 -21 -12 -41 -10 -43 5 -5 31 76 41
125 4 17 11 32 16 32 16 0 10 -53 -15 -130 -14 -41 -23 -76 -21 -78 9 -9 38
65 51 131 18 85 24 95 24 39 0 -94 -30 -233 -66 -304 -43 -85 -39 -102 4 -20
33 61 81 225 83 277 0 25 2 27 8 10 6 -15 9 -10 15 24 12 78 18 35 6 -49 -14
-105 -7 -115 10 -13 13 80 29 117 31 72 l1 -24 8 25 8 25 8 -24 c7 -23 8 -24
15 -5 6 14 8 9 9 -21 2 -35 3 -37 10 -15 6 22 8 23 15 7 6 -15 10 -16 16 -5 6
8 9 -1 10 -27 l2 -40 7 40 c6 39 7 39 18 15 11 -24 11 -24 12 10 1 29 3 32 10
15 8 -18 9 -18 9 4 1 42 21 9 31 -51 5 -31 10 -99 11 -152 2 -54 6 -99 10
-102 9 -5 1 160 -11 261 -5 38 -7 71 -5 73 2 2 13 -25 25 -60 17 -51 20 -56
15 -23 -3 22 -7 51 -10 65 -3 14 6 -9 20 -50 49 -147 84 -441 85 -699 0 -132
-2 -150 -30 -232 -16 -49 -43 -114 -59 -146 -37 -75 -61 -156 -61 -210 0 -77
98 -286 157 -335 26 -21 12 9 -27 63 -59 78 -90 147 -101 225 -14 93 -5 141
46 259 93 215 90 200 89 400 -1 266 -39 591 -80 682 -17 38 -18 46 -1 37 10
-6 10 -4 0 7 -16 16 -17 33 -3 24 16 -10 69 -119 121 -250 27 -66 48 -116 49
-111 0 16 -48 142 -99 255 -28 62 -51 118 -51 124 0 21 92 -154 133 -253 21
-52 59 -153 82 -225 24 -71 44 -122 44 -112 2 40 -95 310 -152 427 -34 69 -63
128 -65 132 -2 3 4 5 13 4 8 -1 26 -22 39 -47 13 -24 29 -44 34 -44 15 0 22
-9 27 -32 2 -12 15 -42 30 -69 14 -27 23 -40 19 -29 -24 74 -43 116 -70 161
-36 58 -50 94 -36 94 15 0 110 -123 189 -246 12 -18 12 -18 6 1 -3 11 -27 52
-53 90 -74 112 -70 117 13 14 36 -44 24 -20 -28 56 -58 85 -63 97 -16 45 22
-25 57 -73 77 -107 20 -35 38 -63 40 -63 6 0 -39 95 -56 120 -30 42 -71 120
-64 120 22 0 81 -50 121 -103 25 -34 59 -75 74 -92 37 -41 149 -213 239 -365
67 -116 272 -414 293 -427 10 -6 4 3 -154 239 -64 95 -133 205 -154 243 -21
39 -48 84 -61 101 -13 17 -20 35 -16 39 4 3 1 5 -7 3 -7 -2 -16 3 -19 11 -3 8
0 11 7 7 6 -4 1 9 -10 29 -17 28 -24 33 -31 23 -7 -9 -8 -8 -4 6 4 12 -4 28
-25 50 -16 17 -47 56 -66 86 -20 30 -49 71 -65 91 -44 57 -33 58 24 4 53 -51
49 -37 -6 22 -16 18 -27 36 -23 39 9 10 115 -100 181 -188 32 -43 63 -81 69
-85 8 -4 7 -1 -1 9 -7 9 -15 26 -17 38 -4 21 -85 113 -172 197 -33 32 -43 50
-20 37 6 -4 59 -51 116 -103 58 -53 98 -86 89 -73 -9 13 -51 56 -93 95 -43 40
-72 73 -65 75 7 3 51 -33 98 -79 53 -53 73 -68 53 -42 -17 23 -52 62 -78 87
-55 55 -45 60 23 10 l49 -35 -40 35 c-75 66 -20 52 113 -30 57 -35 54 -32 -40
40 -45 35 -49 40 -32 47 34 13 43 10 111 -47 l68 -56 -62 62 c-35 34 -63 64
-63 66 0 14 32 -1 68 -32 23 -19 42 -32 42 -28 0 5 17 -8 38 -27 51 -48 95
-80 52 -38 -40 38 -134 119 -153 131 -9 5 -7 11 8 22 25 19 41 20 26 2 -9 -10
-2 -19 31 -41 24 -15 63 -43 88 -62 l45 -35 -43 41 c-24 22 -57 51 -75 65 -41
32 -28 45 18 17 42 -24 60 -28 27 -5 -30 21 -28 38 3 30 16 -4 25 -2 25 5 0 8
6 7 18 -3 9 -8 31 -22 47 -33 l30 -18 -27 30 c-52 55 -31 57 65 8 76 -39 90
-39 23 0 -82 48 -81 74 1 40 49 -21 55 -18 13 6 l-35 20 30 -4 c17 -2 39 -7
50 -11 11 -4 4 2 -15 13 -47 26 -20 38 41 17 24 -8 45 -13 47 -11 2 2 -13 9
-32 16 -71 25 -30 36 52 13 9 -2 0 4 -21 14 l-37 19 25 11 c19 9 36 7 81 -8
74 -26 79 -20 9 9 -53 22 -68 44 -22 34 17 -4 19 -3 7 6 -11 8 -12 13 -3 22 8
8 26 6 72 -10 86 -30 100 -25 18 6 -60 22 -67 28 -54 40 12 12 22 13 53 4 22
-6 50 -10 64 -10 14 1 1 6 -28 11 -33 6 -52 14 -49 21 4 13 21 13 102 3 l50
-6 -54 13 c-30 6 -56 18 -59 25 -2 6 2 12 10 12 7 0 19 9 26 20 9 15 24 20 60
22 l47 1 -42 4 -43 4 37 37 c28 27 48 38 82 43 l46 6 -49 2 c-42 1 -47 3 -36
16 7 8 22 15 34 15 11 0 41 7 66 14 40 13 42 15 15 15 -16 0 -47 -3 -67 -8
-23 -5 -38 -5 -38 0 0 12 39 27 102 40 26 6 51 15 54 21 5 7 -3 9 -22 4 -98
-23 -119 -26 -123 -15 -1 5 -23 -10 -46 -35 -27 -27 -59 -49 -84 -57 -42 -13
-46 -34 -5 -26 46 8 24 -11 -58 -52 -46 -22 -75 -41 -65 -41 30 0 14 -23 -34
-46 -51 -25 -96 -34 -123 -24 -17 6 -16 9 15 32 19 15 46 30 62 33 15 4 30 11
33 16 16 26 -81 -14 -117 -47 l-26 -25 -155 70 c-85 39 -188 81 -229 95 -149
50 -306 94 -389 110 -47 9 -94 19 -106 21 -19 4 -54 69 -54 99 0 14 396 -1
495 -18 186 -34 324 -78 538 -170 63 -28 41 -10 -30 24 -265 125 -514 179
-841 185 l-174 2 -30 30 -30 31 63 20 c285 93 667 114 944 51 186 -43 205 -46
205 -40 0 7 -208 57 -310 73 -41 7 -163 12 -270 12 -215 0 -295 -11 -565 -79
-136 -34 -287 -86 -268 -92 5 -2 49 10 98 27 l90 31 28 -31 c15 -17 27 -35 27
-40 0 -6 -21 -10 -47 -11 -27 0 -68 -4 -93 -8 l-45 -7 45 -8 c25 -3 69 -3 98
2 53 9 79 -1 51 -19 -11 -7 -10 -9 4 -9 20 0 24 -40 5 -41 -7 0 -4 -4 8 -9 14
-6 23 -21 27 -46 4 -21 5 -39 3 -41 -2 -2 -45 8 -97 22 -91 24 -128 30 -117
20 3 -3 36 -13 74 -24 120 -32 141 -44 141 -82 0 -57 -10 -60 -85 -28 -37 15
-105 39 -152 52 -47 13 -94 27 -105 31 -11 4 -4 -2 15 -12 19 -11 66 -28 103
-37 76 -19 162 -52 195 -75 16 -11 19 -19 13 -30 -8 -12 -19 -9 -71 17 -33 18
-58 27 -55 22 4 -5 23 -18 44 -28 40 -21 81 -60 50 -49 -12 5 -16 2 -13 -10 2
-9 -2 -25 -10 -35 -13 -17 -15 -17 -52 4 l-39 22 28 -24 28 -24 -62 -19 c-52
-16 -65 -17 -83 -6 -11 7 -37 22 -56 33 l-35 20 30 -26 c17 -15 33 -26 38 -27
4 0 7 -4 7 -10 0 -28 -176 -45 -305 -30 -115 14 -179 38 -223 83 -55 57 -80
202 -47 270 8 18 41 51 73 74 65 47 108 90 100 98 -3 3 -23 -6 -44 -20 -58
-40 -186 -96 -202 -90 -12 4 -13 3 -2 -10 7 -8 8 -15 3 -15 -19 0 -98 62 -145
113 -31 34 -48 46 -48 35 0 -25 106 -136 168 -175 49 -32 52 -36 52 -76 0 -24
10 -81 21 -127 l21 -84 -28 -24 c-25 -22 -34 -24 -98 -20 -39 3 -84 10 -101
17 l-30 13 23 15 c35 25 25 34 -13 12 -25 -15 -39 -18 -51 -11 -16 9 -14 13
17 31 40 25 32 28 -13 5 -44 -23 -63 -1 -19 23 58 32 67 44 14 18 -57 -27 -63
-29 -63 -17 0 4 16 16 35 26 19 11 33 21 31 23 -2 2 -20 -6 -40 -18 -34 -20
-66 -20 -66 -1 0 5 23 20 52 35 60 31 44 36 -21 7 -23 -11 -47 -17 -52 -14
-20 12 -6 30 41 52 28 13 50 24 50 26 0 2 -24 -3 -52 -11 -58 -14 -78 -12 -78
12 0 9 16 19 45 26 64 16 71 34 10 25 -26 -4 -54 -10 -61 -13 -10 -4 -14 3
-14 21 0 21 5 26 24 26 39 0 86 12 86 22 0 5 -28 8 -62 7 -49 -2 -63 0 -63 12
0 9 12 15 33 17 17 2 32 8 32 14 0 6 -13 8 -34 4 -24 -5 -35 -3 -39 8 -8 21 2
26 49 26 24 0 46 5 49 10 4 6 -13 10 -45 10 -48 0 -51 2 -48 23 4 28 39 33 96
14 32 -11 42 -12 42 -2 0 13 -63 35 -104 35 -16 0 -26 6 -26 14 0 22 15 27 47
15 50 -20 83 -28 83 -20 0 4 -19 12 -42 19 -61 17 -76 28 -60 44 11 11 22 8
61 -13 l49 -26 16 34 c20 41 20 44 2 37 -25 -10 -76 27 -76 54 0 14 27 79 60
146 52 105 67 148 109 321 73 296 74 305 66 419 -6 86 -11 106 -33 136 -42 57
-46 58 -18 3 14 -29 26 -54 26 -56 0 -3 -30 25 -67 62 -71 71 -181 149 -272
196 -92 46 -281 114 -281 101z m597 -623 c-3 -10 -5 -4 -5 12 0 17 2 24 5 18
2 -7 2 -21 0 -30z m-163 -754 c22 -17 36 -49 21 -49 -8 0 -85 32 -85 35 0 2 3
10 6 19 8 22 26 20 58 -5z m1395 -295 c165 -37 449 -133 591 -200 66 -31 120
-60 120 -63 0 -4 -14 -12 -32 -19 -39 -14 -32 -26 8 -13 16 6 66 11 111 13 92
3 95 -6 12 -36 -41 -15 -69 -18 -143 -13 -89 5 -101 9 -277 86 -176 76 -464
181 -502 181 -18 0 -37 36 -37 71 0 25 9 24 149 -7z m81 -139 c166 -54 580
-229 580 -246 0 -16 -35 -18 -101 -4 -74 16 -127 20 -116 8 4 -3 15 -7 25 -8
27 -2 96 -26 107 -38 7 -6 -2 -8 -28 -4 -22 4 -35 2 -32 -4 9 -13 -7 -11 -87
11 -79 22 -128 26 -63 6 22 -7 54 -20 70 -29 l30 -16 -48 -1 c-67 0 -178 58
-115 61 18 1 16 3 -9 9 -33 7 -131 63 -233 131 -30 20 -87 52 -126 72 -70 35
-72 37 -72 75 l-1 40 42 -10 c23 -5 103 -29 177 -53z m-165 -70 c22 -13 50
-25 63 -25 13 0 21 -4 18 -9 -3 -5 2 -8 12 -7 9 0 16 -5 15 -11 -2 -7 0 -12 5
-11 4 1 42 -18 85 -42 42 -25 96 -55 120 -67 23 -12 35 -22 27 -23 -8 0 10
-17 39 -37 l53 -37 -32 -9 c-18 -5 -43 -6 -54 -3 -25 6 -117 65 -155 98 -14
13 -79 63 -143 111 -65 49 -118 90 -118 93 0 11 29 2 65 -21z m110 -130 c39
-34 17 -23 -71 37 -39 26 -75 48 -79 48 -5 0 29 -25 76 -56 46 -31 114 -79
150 -105 37 -27 83 -56 103 -64 46 -19 46 -29 1 -22 -21 4 -35 2 -35 -5 0 -5
-7 -8 -15 -5 -8 4 -17 2 -19 -2 -3 -5 -36 -9 -74 -10 l-68 -1 -44 46 c-25 25
-75 68 -112 96 -38 27 -68 54 -68 59 0 24 95 -7 113 -37 4 -7 15 -10 24 -7 10
4 14 2 9 -5 -4 -6 12 -23 36 -40 58 -39 78 -48 48 -22 -18 16 -20 20 -7 16 38
-12 3 14 -91 69 -53 31 -98 58 -100 60 -2 2 2 13 8 25 8 15 17 19 31 15 11 -4
19 -2 19 4 0 6 -4 11 -10 11 -5 0 -10 4 -10 10 0 11 139 -76 185 -115z m-187
-64 c155 -137 148 -130 127 -131 -11 0 -30 -3 -42 -6 -17 -5 -34 5 -72 42 -31
30 -61 50 -77 51 -15 1 -44 14 -65 28 -37 24 -53 23 -27 -3 27 -27 -13 -11
-48 20 -32 28 -34 33 -18 39 32 13 41 10 85 -26 51 -43 99 -70 59 -33 -14 13
-38 33 -54 45 -37 29 -26 45 27 37 32 -5 57 -20 105 -63z m872 50 c21 -6 22
-8 8 -14 -10 -3 -34 0 -55 8 -37 13 -37 14 -8 13 17 0 41 -3 55 -7z m-1624
-47 c30 -23 50 -32 52 -25 3 9 7 9 18 0 10 -8 14 -8 14 0 0 7 15 4 40 -9 22
-11 40 -16 40 -11 0 5 21 3 48 -5 53 -17 91 -12 159 17 l46 20 36 -34 c20 -18
45 -40 56 -47 19 -14 19 -14 4 5 -21 26 -45 93 -36 102 4 3 20 -6 35 -20 16
-15 32 -27 37 -27 11 0 95 -81 95 -92 0 -4 -10 -8 -23 -8 -18 0 -29 11 -46 48
-13 26 -26 42 -28 35 -2 -6 3 -25 11 -42 9 -16 16 -32 16 -34 0 -2 -42 -3 -92
-3 -72 0 -101 -4 -127 -18 -74 -39 -268 -13 -359 48 -25 17 -59 48 -75 68 -25
31 -28 40 -17 53 20 24 44 18 96 -21z m874 6 c14 -11 21 -20 15 -20 -5 0 -21
9 -35 20 -14 11 -20 20 -15 20 6 0 21 -9 35 -20z m-189 -74 c30 -13 63 -33 73
-45 l19 -21 -46 0 c-40 0 -50 5 -81 38 -57 59 -49 65 35 28z m119 -311 c0 -5
-5 -3 -10 5 -5 8 -10 20 -10 25 0 6 5 3 10 -5 5 -8 10 -19 10 -25z m380 -175
c6 -11 8 -20 6 -20 -3 0 -10 9 -16 20 -6 11 -8 20 -6 20 3 0 10 -9 16 -20z"/>
<path d="M4230 4950 c35 -24 54 -31 30 -11 -14 11 -29 21 -35 21 -5 0 -3 -5 5
-10z"/>
<path d="M4892 7030 c0 -14 2 -19 5 -12 2 6 2 18 0 25 -3 6 -5 1 -5 -13z"/>
<path d="M3700 6984 c-30 -19 -72 -52 -93 -72 -46 -44 -129 -147 -147 -182
-15 -31 -7 -22 57 60 65 83 133 148 203 194 30 20 50 36 45 36 -6 0 -35 -16
-65 -36z"/>
<path d="M4833 6945 c0 -27 2 -38 4 -22 2 15 2 37 0 50 -2 12 -4 0 -4 -28z"/>
<path d="M4862 6928 c-6 -23 -9 -44 -7 -46 2 -2 9 15 15 38 6 23 9 44 7 46 -2
3 -9 -14 -15 -38z"/>
<path d="M4951 6918 c-17 -55 -30 -121 -21 -112 9 10 41 137 35 142 -2 2 -8
-12 -14 -30z"/>
<path d="M5221 6935 c-1 -11 -8 -33 -16 -49 -9 -16 -13 -31 -10 -34 8 -8 36
69 32 86 -4 13 -5 12 -6 -3z"/>
<path d="M4166 6867 c-32 -42 -79 -144 -73 -160 2 -6 11 11 20 38 10 28 33 74
52 103 39 58 40 70 1 19z"/>
<path d="M3441 6819 c-12 -39 -21 -73 -18 -75 2 -3 15 27 27 66 12 39 21 73
18 75 -2 3 -14 -27 -27 -66z"/>
<path d="M4629 6785 c-3 -86 -9 -119 -25 -150 -41 -80 -112 -102 -218 -70 -63
19 -117 19 -164 0 -93 -40 -121 -101 -137 -310 -8 -91 -22 -155 -34 -155 -10
0 -24 -30 -17 -37 2 -2 21 3 42 13 25 10 83 19 159 24 141 8 175 21 207 83 20
37 23 56 23 166 l0 124 29 10 c16 5 47 29 70 53 42 43 128 203 141 259 10 47
-10 17 -30 -42 -9 -29 -19 -53 -21 -53 -3 0 -4 19 -4 43 1 23 -3 67 -8 97 -8
52 -9 50 -13 -55z m-207 -340 c21 -63 23 -186 4 -224 -16 -31 -47 -54 -86 -65
-21 -6 -20 -5 7 13 41 26 59 55 73 114 14 65 3 123 -31 162 -35 39 -37 58 -6
53 17 -2 26 -15 39 -53z m-212 0 c0 -3 -9 -18 -21 -34 -25 -34 -38 -87 -40
-161 -1 -73 -17 -30 -18 52 -1 64 9 98 39 128 19 19 40 27 40 15z m108 -42 c3
-27 0 -33 -16 -33 -30 0 -67 34 -59 54 5 13 16 16 39 14 29 -3 33 -7 36 -35z
m-95 -237 c7 -18 -1 -26 -28 -26 -29 0 -37 10 -24 27 15 17 45 17 52 -1z"/>
<path d="M4992 6809 c-26 -55 -25 -75 2 -34 15 23 33 85 25 85 -2 0 -15 -23
-27 -51z"/>
<path d="M4264 6812 c-21 -16 -46 -37 -54 -48 -12 -15 43 25 95 68 23 20 -6 5
-41 -20z"/>
<path d="M4071 6804 c0 -11 3 -14 6 -6 3 7 2 16 -1 19 -3 4 -6 -2 -5 -13z"/>
<path d="M4162 6756 c-18 -24 -32 -48 -32 -52 0 -8 45 50 61 79 17 31 3 18
-29 -27z"/>
<path d="M5200 6785 c-11 -13 -10 -14 4 -9 9 3 16 10 16 15 0 13 -6 11 -20 -6z"/>
<path d="M4061 6754 c0 -11 3 -14 6 -6 3 7 2 16 -1 19 -3 4 -6 -2 -5 -13z"/>
<path d="M4026 6728 c-3 -13 -5 -32 -5 -43 1 -11 5 -2 10 19 10 42 6 62 -5 24z"/>
<path d="M4303 6743 c15 -2 37 -2 50 0 12 2 0 4 -28 4 -27 0 -38 -2 -22 -4z"/>
<path d="M4051 6715 c-1 -11 -4 -31 -6 -45 l-6 -25 11 25 c6 13 9 33 7 45 -4
19 -4 19 -6 0z"/>
<path d="M5075 6704 l-30 -26 33 22 c17 12 32 23 32 26 0 7 -4 5 -35 -22z"/>
<path d="M5119 6703 c-13 -16 -12 -17 4 -4 9 7 17 15 17 17 0 8 -8 3 -21 -13z"/>
<path d="M4672 6670 c-18 -29 -15 -38 4 -12 9 13 14 25 12 27 -2 2 -9 -5 -16
-15z"/>
<path d="M4011 6645 c0 -11 4 -27 9 -35 9 -13 10 -13 9 0 0 8 -4 24 -9 35 l-9
20 0 -20z"/>
<path d="M4682 6620 c-25 -33 -30 -56 -6 -25 18 24 36 55 31 55 -2 0 -13 -13
-25 -30z"/>
<path d="M4714 6611 l-15 -26 19 22 c11 12 22 20 25 17 3 -3 7 -1 11 4 3 5 -1
9 -9 9 -8 0 -22 -12 -31 -26z"/>
<path d="M5089 6603 c-13 -16 -12 -17 4 -4 16 13 21 21 13 21 -2 0 -10 -8 -17
-17z"/>
<path d="M4650 6540 c-12 -23 -3 -25 23 -6 15 12 15 14 2 19 -9 4 -19 -2 -25
-13z"/>
<path d="M5070 6505 c-36 -19 -40 -24 -22 -25 29 0 58 15 66 35 3 8 4 15 3 15
-1 -1 -22 -12 -47 -25z"/>
<path d="M4657 6499 c-22 -11 -36 -23 -33 -26 5 -5 76 35 76 43 0 6 -1 5 -43
-17z"/>
<path d="M4830 6500 c-14 -11 -20 -20 -15 -20 6 0 -17 -16 -50 -35 -34 -18
-70 -44 -80 -56 -23 -25 -19 -24 79 39 37 24 66 46 62 49 -3 3 5 14 17 24 29
25 19 24 -13 -1z"/>
<path d="M4702 6479 c-30 -17 -51 -33 -48 -36 5 -5 106 55 106 63 0 6 -2 5
-58 -27z"/>
<path d="M4842 6357 c-17 -12 -32 -25 -32 -30 0 -10 57 19 65 34 13 20 -1 18
-33 -4z"/>
<path d="M5065 6361 c-16 -7 -13 -9 19 -15 41 -8 59 -1 36 14 -18 11 -28 11
-55 1z"/>
<path d="M4678 6320 c-40 -21 -57 -40 -37 -40 12 0 89 49 89 56 0 8 -16 3 -52
-16z"/>
<path d="M4897 6317 c-22 -13 -37 -26 -35 -29 1 -3 -6 -16 -17 -29 l-20 -24
22 19 c13 10 20 22 18 27 -3 4 3 10 12 13 18 6 72 45 63 46 -3 0 -22 -11 -43
-23z"/>
<path d="M4809 6293 c-13 -16 -12 -17 4 -4 9 7 17 15 17 17 0 8 -8 3 -21 -13z"/>
<path d="M5088 6263 c6 -2 18 -2 25 0 6 3 1 5 -13 5 -14 0 -19 -2 -12 -5z"/>
<path d="M4880 6240 c-19 -11 -30 -19 -25 -19 6 0 26 8 45 19 19 11 31 19 25
19 -5 0 -26 -8 -45 -19z"/>
<path d="M5048 6253 c7 -3 16 -2 19 1 4 3 -2 6 -13 5 -11 0 -14 -3 -6 -6z"/>
<path d="M5147 6249 c7 -7 15 -10 18 -7 3 3 -2 9 -12 12 -14 6 -15 5 -6 -5z"/>
<path d="M4695 6235 c-25 -12 -26 -14 -9 -15 12 0 27 7 34 15 15 18 14 18 -25
0z"/>
<path d="M4718 6183 c6 -2 18 -2 25 0 6 3 1 5 -13 5 -14 0 -19 -2 -12 -5z"/>
<path d="M4508 6173 c7 -3 16 -2 19 1 4 3 -2 6 -13 5 -11 0 -14 -3 -6 -6z"/>
<path d="M4738 6153 c7 -3 16 -2 19 1 4 3 -2 6 -13 5 -11 0 -14 -3 -6 -6z"/>
<path d="M5185 6150 c11 -5 29 -9 40 -9 17 -1 17 1 5 9 -8 5 -26 9 -40 9 -23
0 -23 -1 -5 -9z"/>
<path d="M4442 6113 c-48 -6 -29 -23 26 -23 32 0 42 3 33 9 -11 7 -9 10 10 14
20 3 18 4 -6 4 -16 0 -45 -2 -63 -4z"/>
<path d="M4759 6095 c76 -25 89 -28 61 -11 -14 8 -43 17 -65 20 l-40 6 44 -15z"/>
<path d="M4935 6102 c36 -16 91 -24 78 -11 -6 6 -30 13 -54 15 -31 3 -38 2
-24 -4z"/>
<path d="M3136 6075 c-3 -9 -6 -22 -5 -28 0 -7 5 -1 10 12 5 13 8 26 5 28 -2
2 -6 -3 -10 -12z"/>
<path d="M5250 6072 c0 -4 14 -21 32 -38 l31 -29 -22 32 c-23 35 -41 50 -41
35z"/>
<path d="M4413 6063 c15 -2 37 -2 50 0 12 2 0 4 -28 4 -27 0 -38 -2 -22 -4z"/>
<path d="M3100 6039 c-6 -11 -10 -28 -8 -37 2 -10 8 -1 15 21 12 41 10 48 -7
16z"/>
<path d="M4990 6040 c19 -10 42 -19 50 -20 23 0 -20 26 -55 34 -30 6 -30 6 5
-14z"/>
<path d="M4210 6021 c0 -5 14 -11 31 -15 51 -10 66 -5 29 9 -42 16 -60 18 -60
6z"/>
<path d="M4308 6023 c7 -3 16 -2 19 1 4 3 -2 6 -13 5 -11 0 -14 -3 -6 -6z"/>
<path d="M4418 6023 c12 -2 32 -2 45 0 12 2 2 4 -23 4 -25 0 -35 -2 -22 -4z"/>
<path d="M4845 6020 c27 -12 43 -12 25 0 -8 5 -22 9 -30 9 -10 0 -8 -3 5 -9z"/>
<path d="M3041 6003 c0 -6 -4 -20 -7 -30 -5 -14 -4 -15 5 -7 7 7 11 20 8 30
-3 11 -5 14 -6 7z"/>
<path d="M4039 5985 c-138 -48 -359 -174 -449 -256 -38 -34 -25 -31 27 7 17
13 36 24 41 24 6 0 12 4 14 9 11 29 254 162 386 211 92 34 76 39 -19 5z"/>
<path d="M4368 5993 c6 -2 18 -2 25 0 6 3 1 5 -13 5 -14 0 -19 -2 -12 -5z"/>
<path d="M5016 5985 c10 -8 26 -14 34 -14 9 0 4 6 -10 14 -33 19 -49 19 -24 0z"/>
<path d="M2990 5960 c-17 -41 -32 -49 -25 -13 6 31 1 23 -30 -47 l-15 -35 4
35 5 35 -13 -30 c-8 -16 -16 -48 -20 -70 l-6 -40 17 25 c10 14 39 48 66 77 46
52 56 76 38 87 -5 3 -14 -8 -21 -24z"/>
<path d="M4880 5976 c25 -8 54 -17 65 -21 l20 -7 -20 15 c-11 8 -40 17 -65 21
l-45 6 45 -14z"/>
<path d="M4408 5953 c7 -3 16 -2 19 1 4 3 -2 6 -13 5 -11 0 -14 -3 -6 -6z"/>
<path d="M4925 5921 c17 -11 44 -22 60 -26 30 -6 30 -6 -5 13 -19 11 -46 23
-60 26 -23 7 -23 6 5 -13z"/>
<path d="M5041 5908 c2 -2 18 -14 34 -28 l30 -25 -24 28 c-14 15 -29 27 -34
27 -6 0 -8 -1 -6 -2z"/>
<path d="M4090 5834 c-172 -46 -397 -141 -435 -185 -18 -20 -16 -20 25 5 116
70 233 116 455 180 66 18 26 18 -45 0z"/>
<path d="M2831 5817 c-1 -24 -4 -27 -21 -22 -27 9 -25 -3 5 -27 14 -11 25 -27
25 -36 1 -15 2 -15 15 2 8 10 11 24 7 30 -4 6 -12 27 -18 46 -12 34 -12 34
-13 7z"/>
<path d="M3402 5815 c0 -16 2 -22 5 -12 2 9 2 23 0 30 -3 6 -5 -1 -5 -18z"/>
<path d="M3455 5814 c-13 -59 -13 -64 -5 -64 7 0 20 81 14 89 -2 2 -6 -10 -9
-25z"/>
<path d="M2872 5800 c0 -19 2 -27 5 -17 2 9 2 25 0 35 -3 9 -5 1 -5 -18z"/>
<path d="M5284 5797 c16 -20 30 -37 33 -37 7 0 -36 58 -49 66 -7 4 1 -9 16
-29z"/>
<path d="M5100 5716 c0 -2 7 -7 16 -10 8 -3 12 -2 9 4 -6 10 -25 14 -25 6z"/>
<path d="M5245 5710 c3 -5 11 -10 16 -10 6 0 7 5 4 10 -3 6 -11 10 -16 10 -6
0 -7 -4 -4 -10z"/>
<path d="M5095 5635 c30 -25 59 -39 51 -26 -4 6 -22 18 -39 27 -30 14 -31 14
-12 -1z"/>
<path d="M5050 5596 c0 -2 7 -7 16 -10 8 -3 12 -2 9 4 -6 10 -25 14 -25 6z"/>
<path d="M5030 5556 c0 -2 8 -10 18 -17 15 -13 16 -12 3 4 -13 16 -21 21 -21
13z"/>
<path d="M3570 5540 c-13 -8 -12 -10 3 -10 9 0 17 5 17 10 0 12 -1 12 -20 0z"/>
<path d="M5474 5494 c-18 -14 -18 -15 6 -8 31 8 50 24 29 24 -8 0 -24 -7 -35
-16z"/>
<path d="M5007 5489 c7 -7 15 -10 18 -7 3 3 -2 9 -12 12 -14 6 -15 5 -6 -5z"/>
<path d="M5895 5490 c-3 -6 1 -7 9 -4 18 7 21 14 7 14 -6 0 -13 -4 -16 -10z"/>
<path d="M3873 5473 c15 -2 37 -2 50 0 12 2 0 4 -28 4 -27 0 -38 -2 -22 -4z"/>
<path d="M5850 5470 c8 -5 20 -10 25 -10 6 0 3 5 -5 10 -8 5 -19 10 -25 10 -5
0 -3 -5 5 -10z"/>
<path d="M5950 5471 c0 -9 60 -34 66 -28 2 2 -12 11 -31 20 -19 9 -35 13 -35
8z"/>
<path d="M3655 5450 c10 -11 23 -20 28 -20 6 0 2 9 -8 20 -10 11 -23 20 -28
20 -6 0 -2 -9 8 -20z"/>
<path d="M5940 5436 c14 -8 68 -28 120 -46 114 -38 156 -59 235 -115 57 -40
161 -98 140 -78 -45 44 -247 159 -331 189 -54 20 -116 42 -138 50 -48 17 -59
17 -26 0z"/>
<path d="M3735 5430 c11 -5 27 -9 35 -9 9 0 8 4 -5 9 -11 5 -27 9 -35 9 -9 0
-8 -4 5 -9z"/>
<path d="M3580 5405 c0 -15 48 -40 58 -30 3 3 0 5 -6 5 -7 0 -21 9 -32 20 -16
16 -20 17 -20 5z"/>
<path d="M3480 5400 c0 -12 28 -21 35 -11 2 5 -4 11 -15 14 -11 3 -20 2 -20
-3z"/>
<path d="M5720 5401 c0 -6 8 -11 17 -11 9 0 13 -3 9 -7 -6 -7 131 -143 144
-143 3 0 -18 26 -48 58 -30 31 -58 56 -63 55 -4 -2 -6 3 -3 10 2 7 -9 20 -26
30 -16 10 -30 13 -30 8z"/>
<path d="M6011 5357 c2 -1 27 -20 54 -41 l50 -38 -45 41 c-25 23 -49 41 -54
41 -5 0 -7 -1 -5 -3z"/>
<path d="M3553 5333 c4 -24 16 -43 28 -43 6 0 6 7 -1 19 -14 27 -13 34 5 27 8
-3 15 -1 15 4 0 6 -11 10 -25 10 -18 0 -24 -5 -22 -17z"/>
<path d="M6005 5300 c27 -27 51 -50 54 -50 3 0 -17 23 -44 50 -27 28 -51 50
-54 50 -3 0 17 -22 44 -50z"/>
<path d="M3476 5331 c-4 -7 -5 -15 -2 -18 9 -9 19 4 14 18 -4 11 -6 11 -12 0z"/>
<path d="M6090 5336 c0 -2 8 -10 18 -17 15 -13 16 -12 3 4 -13 16 -21 21 -21
13z"/>
<path d="M3730 5301 c8 -5 31 -11 50 -14 l35 -6 -30 14 c-33 16 -81 21 -55 6z"/>
<path d="M3705 5280 c11 -4 56 -23 100 -41 44 -18 90 -39 103 -47 12 -8 22
-12 22 -9 0 12 -119 76 -169 91 -57 17 -90 21 -56 6z"/>
<path d="M3640 5261 c0 -5 14 -14 30 -20 17 -5 30 -8 30 -6 0 3 -13 11 -30 20
-16 9 -30 11 -30 6z"/>
<path d="M3458 5253 c7 -3 16 -2 19 1 4 3 -2 6 -13 5 -11 0 -14 -3 -6 -6z"/>
<path d="M3579 5239 c12 -11 19 -24 16 -29 -3 -4 2 -11 11 -14 8 -3 12 -2 9 4
-8 13 1 13 26 -1 11 -5 17 -14 14 -19 -6 -10 22 -28 64 -40 14 -4 35 -11 45
-16 45 -18 1 17 -69 55 -41 23 -75 45 -75 49 0 4 -14 13 -32 20 l-31 11 22
-20z m117 -75 c18 -14 18 -14 -6 -3 -31 14 -36 19 -24 19 6 0 19 -7 30 -16z"/>
<path d="M5363 5228 c17 -11 77 -10 77 1 0 5 -20 9 -44 8 -24 -1 -39 -5 -33
-9z"/>
<path d="M3508 5223 c7 -3 16 -2 19 1 4 3 -2 6 -13 5 -11 0 -14 -3 -6 -6z"/>
<path d="M3730 5207 c9 -8 110 -58 110 -53 0 7 -63 43 -90 51 -14 4 -23 5 -20
2z"/>
<path d="M3465 5180 c3 -5 10 -10 16 -10 5 0 9 5 9 10 0 6 -7 10 -16 10 -8 0
-12 -4 -9 -10z"/>
<path d="M5258 5183 c6 -2 18 -2 25 0 6 3 1 5 -13 5 -14 0 -19 -2 -12 -5z"/>
<path d="M6450 5186 c0 -2 8 -10 18 -17 15 -13 16 -12 3 4 -13 16 -21 21 -21
13z"/>
<path d="M3530 5171 c0 -6 5 -13 10 -16 6 -3 10 1 10 9 0 9 -4 16 -10 16 -5 0
-10 -4 -10 -9z"/>
<path d="M5910 5176 c0 -2 8 -10 18 -17 15 -13 16 -12 3 4 -13 16 -21 21 -21
13z"/>
<path d="M5841 5163 c0 -5 17 -21 37 -37 l37 -30 -34 37 c-36 38 -42 42 -40
30z"/>
<path d="M6451 5136 c2 -2 15 -9 29 -15 24 -11 24 -11 6 3 -16 13 -49 24 -35
12z"/>
<path d="M5288 5103 c7 -3 16 -2 19 1 4 3 -2 6 -13 5 -11 0 -14 -3 -6 -6z"/>
<path d="M6515 5103 c6 -6 33 -23 60 -38 28 -16 46 -24 40 -18 -5 6 -32 23
-60 38 -27 16 -45 24 -40 18z"/>
<path d="M5875 5042 c33 -34 61 -62 63 -62 11 0 -45 64 -81 91 -37 28 -34 25
18 -29z"/>
<path d="M5281 5070 c14 -4 43 -4 65 0 34 6 31 7 -26 7 -45 0 -57 -2 -39 -7z"/>
<path d="M5150 5030 c8 -5 20 -10 25 -10 6 0 3 5 -5 10 -8 5 -19 10 -25 10 -5
0 -3 -5 5 -10z"/>
<path d="M5905 4940 c21 -22 41 -40 44 -40 3 0 -13 18 -34 40 -21 22 -41 40
-44 40 -3 0 13 -18 34 -40z"/>
<path d="M6640 4956 c0 -2 8 -10 18 -17 15 -13 16 -12 3 4 -13 16 -21 21 -21
13z"/>
<path d="M3139 4853 c-13 -16 -12 -17 4 -4 9 7 17 15 17 17 0 8 -8 3 -21 -13z"/>
<path d="M4500 4816 c0 -2 8 -10 18 -17 15 -13 16 -12 3 4 -13 16 -21 21 -21
13z"/>
<path d="M3345 4768 l-16 -33 20 25 c20 24 26 40 16 40 -2 0 -12 -15 -20 -32z"/>
<path d="M4840 4776 c0 -3 9 -10 20 -16 11 -6 20 -8 20 -6 0 3 -9 10 -20 16
-11 6 -20 8 -20 6z"/>
<path d="M5950 4757 c0 -18 30 -63 57 -87 l28 -25 -21 25 c-12 14 -31 41 -43
60 -11 19 -21 31 -21 27z"/>
<path d="M3366 4723 c-6 -14 -5 -15 5 -6 7 7 10 15 7 18 -3 3 -9 -2 -12 -12z"/>
<path d="M4510 4736 c0 -2 8 -10 18 -17 15 -13 16 -12 3 4 -13 16 -21 21 -21
13z"/>
<path d="M4801 4727 c2 -1 13 -9 24 -17 19 -14 19 -14 6 3 -7 9 -18 17 -24 17
-6 0 -8 -1 -6 -3z"/>
<path d="M6740 4655 c17 -25 33 -45 36 -45 3 0 -9 20 -26 45 -17 25 -33 45
-36 45 -3 0 9 -20 26 -45z"/>
<path d="M4635 4670 c10 -11 20 -20 23 -20 3 0 -3 9 -13 20 -10 11 -20 20 -23
20 -3 0 3 -9 13 -20z"/>
<path d="M3441 4619 c-6 -18 -9 -34 -7 -36 2 -2 9 10 15 28 6 18 9 34 7 36 -2
2 -9 -10 -15 -28z"/>
<path d="M3732 4605 c0 -16 2 -22 5 -12 2 9 2 23 0 30 -3 6 -5 -1 -5 -18z"/>
<path d="M3772 4595 c0 -16 2 -22 5 -12 2 9 2 23 0 30 -3 6 -5 -1 -5 -18z"/>
<path d="M3652 4590 c0 -14 2 -19 5 -12 2 6 2 18 0 25 -3 6 -5 1 -5 -13z"/>
<path d="M6030 4568 c41 -45 50 -53 50 -45 0 2 -21 23 -47 47 l-48 45 45 -47z"/>
<path d="M3441 4553 c-10 -26 -10 -27 4 -9 8 11 15 23 15 28 0 15 -7 8 -19
-19z"/>
<path d="M3712 4505 c-1 -44 -7 -100 -13 -124 -13 -56 -4 -66 11 -12 6 23 9
80 7 129 l-3 87 -2 -80z"/>
<path d="M3416 4553 c-6 -14 -5 -15 5 -6 7 7 10 15 7 18 -3 3 -9 -2 -12 -12z"/>
<path d="M3592 4525 c0 -16 2 -22 5 -12 2 9 2 23 0 30 -3 6 -5 -1 -5 -18z"/>
<path d="M3792 4525 c0 -16 2 -22 5 -12 2 9 2 23 0 30 -3 6 -5 -1 -5 -18z"/>
<path d="M3642 4520 c0 -14 2 -19 5 -12 2 6 2 18 0 25 -3 6 -5 1 -5 -13z"/>
<path d="M4580 4524 c0 -10 76 -104 145 -179 l37 -40 -28 40 c-24 34 -115 147
-145 180 -6 5 -9 5 -9 -1z"/>
<path d="M3372 4468 c-19 -28 -30 -48 -24 -45 13 9 66 87 61 91 -2 2 -19 -19
-37 -46z"/>
<path d="M6040 4478 c24 -27 45 -48 47 -48 8 0 0 9 -44 50 l-48 45 45 -47z"/>
<path d="M4301 4458 c25 -49 90 -148 97 -148 2 0 -2 10 -10 23 -8 12 -34 55
-57 95 -48 79 -64 96 -30 30z"/>
<path d="M3782 4450 c-3 -55 -40 -274 -52 -305 -6 -15 -9 -30 -6 -32 17 -17
69 250 63 325 -3 37 -4 39 -5 12z"/>
<path d="M4141 4465 c0 -5 9 -28 20 -50 10 -22 16 -29 13 -15 -7 28 -33 80
-33 65z"/>
<path d="M5760 4427 c24 -26 46 -47 48 -47 8 0 -52 66 -72 79 -12 8 -1 -7 24
-32z"/>
<path d="M4580 4456 c0 -2 8 -10 18 -17 15 -13 16 -12 3 4 -13 16 -21 21 -21
13z"/>
<path d="M6770 4405 c12 -16 30 -45 42 -62 11 -18 22 -33 24 -33 9 0 -26 57
-56 90 -26 29 -28 30 -10 5z"/>
<path d="M4261 4405 c1 -19 18 -51 18 -35 0 8 -4 22 -9 30 -5 8 -9 11 -9 5z"/>
<path d="M4180 4365 c0 -5 5 -17 10 -25 5 -8 10 -10 10 -5 0 6 -5 17 -10 25
-5 8 -10 11 -10 5z"/>
<path d="M2961 4283 c-21 -73 -58 -409 -46 -422 3 -2 16 6 29 18 l25 23 9 -38
c6 -22 13 -79 17 -127 3 -49 11 -101 16 -115 10 -25 11 -26 24 -9 19 26 40
347 23 347 -13 0 -21 -45 -27 -140 -8 -116 -16 -81 -27 110 l-7 125 -14 -50
c-8 -27 -18 -59 -24 -70 -16 -34 -1 164 22 281 14 69 18 113 12 126 -7 16 -13
4 -32 -59z"/>
<path d="M3169 4333 l-24 -28 28 24 c25 23 32 31 24 31 -2 0 -14 -12 -28 -27z"/>
<path d="M4082 4340 c0 -8 4 -26 8 -40 6 -20 8 -21 8 -5 0 11 -3 29 -8 40 -5
12 -8 14 -8 5z"/>
<path d="M3197 4284 c-37 -40 -44 -53 -32 -57 8 -4 14 -2 12 3 -1 4 15 29 37
55 21 25 36 47 35 49 -2 1 -26 -21 -52 -50z"/>
<path d="M4200 4315 c0 -5 5 -17 10 -25 5 -8 10 -10 10 -5 0 6 -5 17 -10 25
-5 8 -10 11 -10 5z"/>
<path d="M4790 4258 c40 -57 74 -97 64 -78 -11 22 -86 120 -91 120 -2 0 10
-19 27 -42z"/>
<path d="M5710 4265 c13 -14 26 -25 28 -25 3 0 -5 11 -18 25 -13 14 -26 25
-28 25 -3 0 5 -11 18 -25z"/>
<path d="M3237 4238 c-29 -39 -86 -152 -61 -123 9 11 23 36 31 55 8 19 26 50
39 68 14 17 23 32 20 32 -3 0 -16 -15 -29 -32z"/>
<path d="M4102 4245 c0 -16 2 -22 5 -12 2 9 2 23 0 30 -3 6 -5 -1 -5 -18z"/>
<path d="M6800 4250 c6 -11 13 -20 16 -20 2 0 0 9 -6 20 -6 11 -13 20 -16 20
-2 0 0 -9 6 -20z"/>
<path d="M5750 4226 c0 -2 8 -10 18 -17 15 -13 16 -12 3 4 -13 16 -21 21 -21
13z"/>
<path d="M4112 4190 c0 -14 2 -19 5 -12 2 6 2 18 0 25 -3 6 -5 1 -5 -13z"/>
<path d="M6080 4180 c6 -11 13 -20 16 -20 2 0 0 9 -6 20 -6 11 -13 20 -16 20
-2 0 0 -9 6 -20z"/>
<path d="M3297 4168 c-3 -7 -17 -39 -31 -70 -14 -32 -23 -58 -20 -58 8 0 67
130 61 136 -2 3 -7 -1 -10 -8z"/>
<path d="M4122 4140 c0 -14 2 -19 5 -12 2 6 2 18 0 25 -3 6 -5 1 -5 -13z"/>
<path d="M5730 4157 c0 -2 15 -16 33 -33 l32 -29 -29 33 c-28 30 -36 37 -36
29z"/>
<path d="M3226 4093 c-6 -14 -5 -15 5 -6 7 7 10 15 7 18 -3 3 -9 -2 -12 -12z"/>
<path d="M3206 4055 c-9 -26 -7 -32 5 -12 6 10 9 21 6 23 -2 3 -7 -2 -11 -11z"/>
<path d="M5737 4060 c14 -22 126 -160 131 -160 10 0 -39 66 -86 117 -30 32
-50 51 -45 43z"/>
<path d="M3291 4024 c-6 -15 -9 -29 -7 -32 3 -2 10 8 16 23 14 36 7 43 -9 9z"/>
<path d="M3266 3965 c-9 -26 -7 -32 5 -12 6 10 9 21 6 23 -2 3 -7 -2 -11 -11z"/>
<path d="M3391 3904 c0 -11 3 -14 6 -6 3 7 2 16 -1 19 -3 4 -6 -2 -5 -13z"/>
<path d="M5720 3896 c0 -2 8 -10 18 -17 15 -13 16 -12 3 4 -13 16 -21 21 -21
13z"/>
<path d="M3773 3865 c-3 -9 -3 -18 -1 -21 3 -3 8 4 11 16 6 23 -1 27 -10 5z"/>
<path d="M3425 3828 c-2 -7 -8 -29 -15 -49 -6 -20 -26 -63 -45 -95 -19 -33
-26 -48 -14 -34 37 43 101 190 83 190 -3 0 -6 -6 -9 -12z"/>
<path d="M3761 3814 c0 -11 3 -14 6 -6 3 7 2 16 -1 19 -3 4 -6 -2 -5 -13z"/>
<path d="M3752 3765 c0 -16 2 -22 5 -12 2 9 2 23 0 30 -3 6 -5 -1 -5 -18z"/>
<path d="M3705 3723 c-35 -119 -37 -240 -5 -290 11 -17 11 -17 6 0 -17 54 -16
148 3 242 11 55 18 101 16 103 -2 2 -11 -23 -20 -55z"/>
<path d="M4281 3744 c-3 -97 68 -281 140 -364 25 -29 23 -24 -9 25 -69 104
-94 171 -116 302 -11 62 -14 69 -15 37z"/>
<path d="M5822 3735 c12 -24 23 -43 26 -41 4 5 -36 86 -43 86 -3 0 5 -20 17
-45z"/>
<path d="M6165 3713 c34 -53 45 -67 45 -60 0 10 -51 87 -57 87 -3 0 3 -12 12
-27z"/>
<path d="M3733 3653 c-4 -16 -8 -86 -8 -158 0 -115 3 -136 24 -182 13 -29 30
-58 39 -65 9 -7 13 -8 11 -3 -41 78 -65 224 -57 355 3 44 3 80 2 80 -2 0 -7
-12 -11 -27z"/>
<path d="M4550 3667 c0 -2 15 -16 33 -33 l32 -29 -29 33 c-28 30 -36 37 -36
29z"/>
<path d="M6145 3630 c9 -16 18 -30 21 -30 2 0 -2 14 -11 30 -9 17 -18 30 -21
30 -2 0 2 -13 11 -30z"/>
<path d="M6221 3615 c0 -5 6 -21 14 -35 8 -14 14 -20 14 -15 0 6 -6 21 -14 35
-8 14 -14 21 -14 15z"/>
<path d="M3437 3512 c-21 -53 -37 -104 -37 -112 1 -16 11 9 55 128 14 41 25
76 22 78 -2 2 -20 -40 -40 -94z"/>
<path d="M7199 3571 c-233 -84 -396 -282 -464 -563 -15 -60 -41 -515 -31 -525
8 -8 15 74 25 282 11 220 25 291 86 423 89 192 224 316 419 384 45 15 72 28
61 27 -11 0 -54 -12 -96 -28z"/>
<path d="M4644 3557 c16 -20 30 -37 33 -37 7 0 -36 58 -49 66 -7 4 1 -9 16
-29z"/>
<path d="M5790 3575 c0 -5 5 -17 10 -25 5 -8 10 -10 10 -5 0 6 -5 17 -10 25
-5 8 -10 11 -10 5z"/>
<path d="M5811 3514 c0 -11 3 -14 6 -6 3 7 2 16 -1 19 -3 4 -6 -2 -5 -13z"/>
<path d="M5400 3506 c0 -2 8 -10 18 -17 15 -13 16 -12 3 4 -13 16 -21 21 -21
13z"/>
<path d="M5751 3500 c0 -8 6 -28 14 -45 17 -39 18 -21 0 25 -7 19 -14 28 -14
20z"/>
<path d="M4725 3424 c14 -31 32 -84 41 -117 22 -85 55 -145 105 -192 l43 -40
-36 42 c-39 44 -62 82 -55 89 2 2 16 -14 32 -36 15 -21 44 -51 64 -66 34 -26
34 -25 -10 22 -25 27 -55 62 -67 78 -12 16 -22 22 -22 15 -1 -20 -29 32 -30
53 0 23 -70 197 -81 204 -5 3 2 -20 16 -52z"/>
<path d="M3966 3424 c-19 -122 74 -403 160 -484 40 -37 37 -27 -6 30 -76 97
-129 252 -139 405 -6 96 -7 98 -15 49z"/>
<path d="M6171 3404 c0 -11 3 -14 6 -6 3 7 2 16 -1 19 -3 4 -6 -2 -5 -13z"/>
<path d="M6117 3375 c9 -19 18 -33 21 -31 4 5 -26 66 -33 66 -3 0 3 -16 12
-35z"/>
<path d="M3457 3380 c-4 -14 -6 -36 -6 -50 1 -18 4 -14 10 14 10 44 6 75 -4
36z"/>
<path d="M6042 3318 c8 -13 25 -51 37 -85 13 -35 24 -63 25 -63 2 0 2 15 2 34
-1 19 -5 31 -10 28 -5 -3 -6 2 -3 12 4 9 3 15 -1 12 -4 -2 -16 16 -26 40 -10
24 -23 44 -28 44 -6 0 -4 -10 4 -22z"/>
<path d="M5727 3299 c4 -13 8 -18 11 -10 2 7 -1 18 -6 23 -8 8 -9 4 -5 -13z"/>
<path d="M3541 3265 c0 -27 3 -56 8 -63 5 -8 6 8 4 40 -6 73 -11 83 -12 23z"/>
<path d="M5682 3270 c0 -14 2 -19 5 -12 2 6 2 18 0 25 -3 6 -5 1 -5 -13z"/>
<path d="M4301 3208 c-2 -124 40 -207 146 -294 51 -41 45 -30 -24 49 -75 86
-105 149 -113 241 l-7 81 -2 -77z"/>
<path d="M6572 3230 c0 -14 2 -19 5 -12 2 6 2 18 0 25 -3 6 -5 1 -5 -13z"/>
<path d="M3664 3100 c2 -65 9 -99 29 -145 31 -70 13 -50 -45 50 -23 39 -48 79
-56 90 -13 19 -14 18 -8 -15 9 -53 35 -137 35 -117 2 33 71 -69 72 -106 l1
-32 7 29 c6 27 7 28 23 9 19 -20 37 -90 38 -140 0 -17 4 -34 8 -37 5 -3 5 18
1 47 -14 100 -13 105 21 62 17 -21 33 -50 36 -64 9 -47 35 -133 39 -129 7 7
-42 194 -63 240 -11 25 -33 64 -50 87 -32 44 -56 106 -78 201 l-13 55 3 -85z"/>
<path d="M4135 3140 c8 -30 52 -107 64 -114 8 -5 -55 122 -67 134 -2 3 -1 -6
3 -20z"/>
<path d="M6532 3140 c0 -14 2 -19 5 -12 2 6 2 18 0 25 -3 6 -5 1 -5 -13z"/>
<path d="M5170 3123 c0 -13 29 -38 35 -31 3 3 -4 13 -15 23 -11 10 -20 13 -20
8z"/>
<path d="M5300 3090 c19 -17 44 -35 55 -41 11 -6 0 8 -25 30 -25 22 -49 41
-55 41 -5 0 6 -14 25 -30z"/>
<path d="M5096 3076 c2 -6 21 -22 42 -36 20 -14 40 -28 43 -33 6 -8 59 8 59
18 0 3 -10 3 -23 0 -16 -5 -38 4 -74 28 -28 19 -49 30 -47 23z"/>
<path d="M4930 3066 c0 -2 8 -10 18 -17 15 -13 16 -12 3 4 -13 16 -21 21 -21
13z"/>
<path d="M5030 3017 c42 -16 143 -30 136 -18 -3 4 -29 11 -58 15 -29 3 -66 8
-83 11 -28 5 -28 4 5 -8z"/>
<path d="M6432 2985 c0 -16 2 -22 5 -12 2 9 2 23 0 30 -3 6 -5 -1 -5 -18z"/>
<path d="M7701 2984 c0 -11 3 -14 6 -6 3 7 2 16 -1 19 -3 4 -6 -2 -5 -13z"/>
<path d="M7712 2935 c0 -16 2 -22 5 -12 2 9 2 23 0 30 -3 6 -5 -1 -5 -18z"/>
<path d="M4805 2931 c9 -31 9 -158 0 -202 -4 -19 -4 -31 0 -27 3 3 10 28 15
55 8 39 8 32 5 -42 l-4 -90 19 65 c20 68 25 151 10 185 -7 17 -9 14 -10 -15
-2 -31 -4 -28 -15 23 -7 32 -16 61 -20 65 -4 4 -4 -4 0 -17z m42 -158 c-3 -10
-5 -4 -5 12 0 17 2 24 5 18 2 -7 2 -21 0 -30z"/>
<path d="M4742 2868 c5 -24 7 -76 4 -117 -8 -96 3 -85 15 13 6 59 5 84 -7 111
-19 47 -24 44 -12 -7z"/>
<path d="M6341 2861 c-1 -36 2 -52 9 -45 6 6 6 26 1 54 l-9 45 -1 -54z"/>
<path d="M4051 2864 c0 -11 3 -14 6 -6 3 7 2 16 -1 19 -3 4 -6 -2 -5 -13z"/>
<path d="M5023 2845 c0 -22 2 -30 4 -17 2 12 2 30 0 40 -3 9 -5 -1 -4 -23z"/>
<path d="M7662 2845 c0 -16 2 -22 5 -12 2 9 2 23 0 30 -3 6 -5 -1 -5 -18z"/>
<path d="M4942 2830 c0 -14 2 -19 5 -12 2 6 2 18 0 25 -3 6 -5 1 -5 -13z"/>
<path d="M4062 2820 c0 -14 2 -19 5 -12 2 6 2 18 0 25 -3 6 -5 1 -5 -13z"/>
<path d="M6907 2745 c3 -46 -1 -87 -11 -120 -11 -38 -12 -46 -2 -32 8 9 17 36
21 60 6 35 8 39 15 22 l9 -20 0 20 c0 11 -8 47 -18 80 l-18 60 4 -70z"/>
<path d="M6992 2795 c0 -5 6 -26 13 -45 7 -19 14 -28 14 -20 0 8 -6 29 -14 45
-7 17 -13 26 -13 20z"/>
<path d="M6243 2740 c0 -30 2 -43 4 -27 2 15 2 39 0 55 -2 15 -4 2 -4 -28z"/>
<path d="M7590 2761 c0 -12 5 -21 10 -21 6 0 10 6 10 14 0 8 -4 18 -10 21 -5
3 -10 -3 -10 -14z"/>
<path d="M3502 2760 c0 -8 4 -26 8 -40 6 -20 8 -21 8 -5 0 11 -3 29 -8 40 -5
12 -8 14 -8 5z"/>
<path d="M4791 2754 c0 -11 3 -14 6 -6 3 7 2 16 -1 19 -3 4 -6 -2 -5 -13z"/>
<path d="M4981 2744 c0 -11 3 -14 6 -6 3 7 2 16 -1 19 -3 4 -6 -2 -5 -13z"/>
<path d="M4781 2715 c-1 -11 -4 -31 -6 -45 l-6 -25 11 25 c6 13 9 33 7 45 -4
19 -4 19 -6 0z"/>
<path d="M6193 2685 c0 -22 2 -30 4 -17 2 12 2 30 0 40 -3 9 -5 -1 -4 -23z"/>
<path d="M4582 2655 c0 -27 3 -75 8 -105 l7 -55 1 60 c0 33 -3 80 -7 105 l-8
45 -1 -50z"/>
<path d="M3522 2670 c0 -14 2 -19 5 -12 2 6 2 18 0 25 -3 6 -5 1 -5 -13z"/>
<path d="M3897 2660 c8 -52 42 -158 52 -164 5 -3 0 18 -10 47 -10 28 -25 75
-33 102 -10 32 -13 38 -9 15z"/>
<path d="M7085 2650 c9 -16 18 -30 21 -30 2 0 -2 14 -11 30 -9 17 -18 30 -21
30 -2 0 2 -13 11 -30z"/>
<path d="M6857 2656 c-4 -10 -7 -30 -6 -44 1 -25 1 -25 10 6 11 37 7 67 -4 38z"/>
<path d="M6125 2605 c0 -29 3 -48 7 -42 4 7 8 26 8 42 0 17 -4 35 -8 42 -4 6
-7 -13 -7 -42z"/>
<path d="M6672 2635 c0 -16 2 -22 5 -12 2 9 2 23 0 30 -3 6 -5 -1 -5 -18z"/>
<path d="M7256 2638 c10 -14 21 -24 23 -22 3 3 -6 15 -18 27 l-24 22 19 -27z"/>
<path d="M6791 2635 c0 -11 -11 -38 -22 -60 -20 -37 -59 -140 -59 -154 0 -16
50 84 50 101 0 10 4 17 9 14 11 -7 34 76 28 100 -4 17 -5 17 -6 -1z"/>
<path d="M6622 2519 c-7 -41 -28 -121 -47 -178 -19 -58 -35 -110 -35 -115 1
-25 90 210 103 274 3 14 3 40 -1 59 -7 32 -9 28 -20 -40z"/>
<path d="M6662 2570 c0 -14 2 -19 5 -12 2 6 2 18 0 25 -3 6 -5 1 -5 -13z"/>
<path d="M6590 2483 c-6 -36 -17 -78 -24 -92 -7 -14 -16 -39 -19 -56 -6 -29
-6 -29 4 -5 37 84 48 121 54 168 8 74 -1 65 -15 -15z"/>
<path d="M6082 2510 c0 -14 2 -19 5 -12 2 6 2 18 0 25 -3 6 -5 1 -5 -13z"/>
<path d="M4402 2485 c0 -11 4 -31 8 -45 l8 -25 0 25 c0 14 -3 34 -8 45 l-9 20
1 -20z"/>
<path d="M6017 2431 c-4 -17 -3 -21 5 -13 5 5 8 16 6 23 -3 8 -7 3 -11 -10z"/>
<path d="M3603 2395 c0 -22 2 -30 4 -17 2 12 2 30 0 40 -3 9 -5 -1 -4 -23z"/>
<path d="M4111 2428 c-2 -16 42 -124 56 -138 12 -13 13 -12 4 10 -17 46 -60
135 -60 128z"/>
<path d="M4673 2390 c0 -25 2 -35 4 -22 2 12 2 32 0 45 -2 12 -4 2 -4 -23z"/>
<path d="M5926 2408 c-3 -13 -5 -39 -5 -58 l0 -35 15 45 c7 25 14 51 14 58 0
21 -17 13 -24 -10z"/>
<path d="M4572 2335 c0 -16 4 -41 8 -55 8 -24 8 -24 8 5 0 17 -4 41 -8 55 -8
24 -8 24 -8 -5z"/>
<path d="M5959 2328 c-6 -12 -23 -42 -36 -65 -14 -24 -22 -43 -19 -43 8 0 78
122 72 127 -2 3 -10 -6 -17 -19z"/>
<path d="M4621 2333 c0 -5 7 -24 14 -43 l13 -35 1 43 c1 31 -3 42 -14 42 -8 0
-15 -3 -14 -7z"/>
<path d="M6506 2224 c-9 -26 -16 -52 -15 -58 0 -6 9 13 20 43 10 30 17 56 15
58 -2 2 -11 -17 -20 -43z"/>
<path d="M6687 2231 c-2 -10 -3 -50 -2 -87 2 -59 2 -63 -5 -24 -6 38 -7 35 -5
-25 3 -69 55 -241 63 -204 1 8 -6 36 -16 60 -11 25 -22 60 -26 79 -4 21 5 7
22 -35 31 -77 77 -155 91 -155 5 0 -10 43 -35 95 -49 105 -77 207 -75 273 1
45 -3 54 -12 23z"/>
<path d="M5620 2149 c-7 -11 -10 -23 -7 -25 2 -2 9 7 15 21 14 30 7 33 -8 4z"/>
<path d="M5986 2093 c-8 -16 -15 -22 -16 -14 0 20 -7 11 -26 -35 -11 -28 -12
-35 -2 -26 7 7 14 17 14 23 1 5 2 15 3 22 1 9 3 9 9 -1 6 -8 13 -1 25 23 20
41 14 47 -7 8z"/>
<path d="M7511 2047 c0 -10 -5 -15 -11 -12 -6 4 -10 -12 -10 -42 l1 -48 15 43
c8 24 13 51 11 60 -4 15 -5 15 -6 -1z"/>
<path d="M6536 2018 c-3 -17 -2 -36 4 -42 7 -7 10 4 10 32 0 50 -5 54 -14 10z"/>
<path d="M5742 1933 c-28 -53 -50 -98 -48 -100 5 -5 91 145 100 175 4 12 6 22
4 22 -2 0 -27 -44 -56 -97z"/>
<path d="M6581 2004 c0 -11 3 -14 6 -6 3 7 2 16 -1 19 -3 4 -6 -2 -5 -13z"/>
<path d="M7452 1990 c0 -14 2 -19 5 -12 2 6 2 18 0 25 -3 6 -5 1 -5 -13z"/>
<path d="M5860 1938 c-38 -35 -43 -41 -15 -20 37 28 83 73 74 72 -2 -1 -29
-24 -59 -52z"/>
<path d="M6631 1980 c0 -8 4 -24 9 -35 5 -13 9 -14 9 -5 0 8 -4 24 -9 35 -5
13 -9 14 -9 5z"/>
<path d="M6811 1980 c-1 -33 21 -105 40 -132 33 -46 41 -32 13 24 -15 29 -32
68 -40 88 -7 19 -13 28 -13 20z"/>
<path d="M6875 1951 c11 -81 58 -145 116 -156 10 -2 24 -7 30 -10 5 -4 -5 13
-23 38 -35 46 -53 56 -24 13 22 -35 20 -43 -5 -20 -34 30 -59 71 -80 127 l-20
52 6 -44z"/>
<path d="M5706 1923 c-14 -27 -35 -64 -47 -83 l-21 -35 22 25 c23 26 84 140
75 140 -2 0 -16 -21 -29 -47z"/>
<path d="M5659 1923 c-13 -16 -12 -17 4 -4 16 13 21 21 13 21 -2 0 -10 -8 -17
-17z"/>
<path d="M7171 1895 c1 -19 18 -51 18 -35 0 8 -4 22 -9 30 -5 8 -9 11 -9 5z"/>
<path d="M5643 1878 c-5 -7 -25 -39 -43 -71 -26 -47 -28 -56 -13 -47 11 7 31
39 45 71 26 59 29 70 11 47z"/>
<path d="M7126 1820 c10 -38 42 -87 62 -94 15 -5 14 -4 -2 8 -10 8 -29 36 -43
63 -13 26 -21 37 -17 23z"/>
<path d="M5542 1818 c-14 -19 -56 -105 -44 -93 13 14 65 105 59 105 -2 0 -9
-6 -15 -12z"/>
<path d="M7352 1800 c0 -19 2 -27 5 -17 2 9 2 25 0 35 -3 9 -5 1 -5 -18z"/>
<path d="M7077 1800 c3 -11 9 -22 13 -25 5 -3 6 4 3 15 -3 11 -9 22 -13 25 -5
3 -6 -4 -3 -15z"/>
<path d="M7201 1784 c0 -11 3 -14 6 -6 3 7 2 16 -1 19 -3 4 -6 -2 -5 -13z"/>
<path d="M7251 1755 c0 -11 4 -27 9 -35 9 -13 10 -13 9 0 0 8 -4 24 -9 35 l-9
20 0 -20z"/>
<path d="M7023 1673 c9 -11 39 -32 65 -46 38 -21 56 -24 95 -20 l48 6 -21 22
c-12 13 -31 26 -42 28 -20 6 -20 5 1 -14 32 -30 25 -34 -15 -10 -20 12 -39 20
-41 17 -3 -2 5 -10 17 -16 12 -6 19 -14 16 -17 -3 -3 -36 12 -73 32 -47 26
-62 32 -50 18z"/>
<path d="M7228 1655 c6 -11 22 -33 36 -50 22 -26 25 -27 25 -10 0 11 -17 33
-36 50 -26 22 -33 24 -25 10z"/>
<path d="M3508 1653 c7 -3 16 -2 19 1 4 3 -2 6 -13 5 -11 0 -14 -3 -6 -6z"/>
<path d="M6285 1640 c11 -5 27 -9 35 -9 13 -1 13 0 0 9 -8 5 -24 9 -35 9 l-20
0 20 -9z"/>
<path d="M4083 1570 c0 -36 2 -50 4 -32 2 17 2 47 0 65 -2 17 -4 3 -4 -33z"/>
<path d="M3623 1593 c9 -2 25 -2 35 0 9 3 1 5 -18 5 -19 0 -27 -2 -17 -5z"/>
<path d="M4011 1488 c0 -9 -4 -25 -7 -35 -5 -14 -4 -15 5 -7 7 7 11 22 8 35
-2 13 -5 16 -6 7z"/>
<path d="M4644 1459 c-19 -22 -19 -22 1 -11 11 6 27 16 35 22 13 8 13 10 -1
10 -9 0 -24 -10 -35 -21z"/>
<path d="M4710 1455 c-7 -9 -11 -18 -8 -20 3 -3 11 1 18 10 7 9 11 18 8 20 -3
3 -11 -1 -18 -10z"/>
<path d="M4750 1455 c-7 -9 -10 -18 -7 -21 3 -3 10 4 17 15 13 25 8 27 -10 6z"/>
<path d="M4797 1463 c-11 -10 -8 -45 2 -38 6 3 9 14 8 25 -1 23 -1 22 -10 13z"/>
<path d="M4984 1428 c16 -21 30 -38 33 -38 8 0 -16 36 -38 55 -19 16 -18 13 5
-17z"/>
<path d="M4871 1434 c0 -11 3 -14 6 -6 3 7 2 16 -1 19 -3 4 -6 -2 -5 -13z"/>
<path d="M4917 1430 c3 -11 9 -20 15 -20 5 0 4 9 -2 20 -6 11 -12 20 -14 20
-2 0 -2 -9 1 -20z"/>
<path d="M7070 1429 c0 -5 32 -9 72 -9 39 0 69 2 67 4 -9 8 -139 13 -139 5z"/>
<path d="M5030 1421 c0 -5 5 -13 10 -16 6 -3 10 -2 10 4 0 5 -4 13 -10 16 -5
3 -10 2 -10 -4z"/>
</g>
</svg>
