<?xml version="1.0" standalone="no"?>
<!DOCTYPE svg PUBLIC "-//W3C//DTD SVG 20010904//EN"
 "http://www.w3.org/TR/2001/REC-SVG-20010904/DTD/svg10.dtd">
<svg version="1.0" xmlns="http://www.w3.org/2000/svg"
 width="1024.000000pt" height="1024.000000pt" viewBox="0 0 1024.000000 1024.000000"
 preserveAspectRatio="xMidYMid meet">
<metadata>
Created by potrace 1.16, written by Peter Selinger 2001-2019
</metadata>
<g transform="translate(0.000000,1024.000000) scale(0.100000,-0.100000)"
fill="#000000" stroke="none">
<path d="M4690 9089 c-243 -12 -410 -42 -580 -101 -397 -140 -651 -441 -741
-881 -16 -80 -22 -161 -28 -372 -8 -251 -10 -276 -35 -360 -36 -120 -91 -213
-184 -311 -150 -159 -298 -255 -520 -339 -90 -34 -126 -63 -148 -120 -21 -56
-15 -159 13 -207 37 -65 144 -90 204 -47 18 13 39 19 52 16 12 -3 67 -17 122
-32 161 -43 332 -36 520 22 28 8 139 56 247 105 l198 91 97 -38 c54 -20 161
-50 237 -66 76 -16 141 -30 143 -32 6 -7 -24 -82 -57 -137 -85 -144 -174 -227
-545 -505 -487 -363 -824 -670 -976 -885 -197 -279 -320 -577 -366 -890 -22
-152 -22 -411 1 -539 60 -332 250 -684 508 -943 64 -64 111 -119 105 -122 -7
-2 1 -5 17 -5 16 -1 34 -7 40 -15 6 -7 58 -48 116 -92 58 -43 106 -81 108 -86
2 -4 26 -20 54 -35 l51 -28 -179 -5 -179 -6 182 -2 181 -2 104 -62 c135 -81
366 -192 453 -219 39 -11 75 -25 80 -29 6 -5 58 -18 118 -31 59 -12 107 -26
107 -30 0 -27 -224 -80 -550 -129 -186 -29 -381 -106 -466 -185 -51 -48 -55
-71 -17 -86 29 -11 307 -26 648 -36 l210 -6 -1 -62 c0 -34 1 -77 4 -95 l5 -33
86 8 c47 4 212 11 366 14 l280 7 -275 3 -275 2 175 63 c235 84 325 131 415
217 33 31 53 41 100 50 83 14 136 42 175 90 l32 41 72 -7 c39 -3 89 -8 111
-10 30 -4 35 -3 20 4 -15 7 -7 10 34 10 143 2 410 34 594 72 290 59 400 93
592 185 93 44 107 47 210 55 175 12 158 17 150 -38 -10 -68 -27 -103 -71 -151
-55 -57 -157 -109 -271 -138 -54 -13 -117 -31 -140 -40 -22 -8 -101 -30 -175
-49 -435 -112 -595 -161 -691 -212 -68 -37 -177 -146 -177 -178 0 -32 27 -39
109 -29 60 7 642 6 649 -1 2 -2 -4 -30 -13 -62 -22 -78 -17 -127 12 -131 12
-2 54 11 95 28 121 53 176 70 328 101 80 16 159 36 175 44 158 73 197 88 255
95 l65 8 -57 -1 c-31 -1 -54 1 -51 6 2 4 30 25 62 46 70 48 110 92 142 157 20
41 24 63 23 137 l-1 88 81 -6 c79 -6 220 -20 301 -30 l40 -5 -35 10 c-36 9
-162 24 -307 36 l-83 6 0 29 c0 16 29 83 65 152 l65 123 61 18 c64 20 128 51
223 109 l60 37 285 2 286 2 -258 6 -258 5 118 85 c65 46 136 101 158 121 22
20 45 38 51 40 22 8 219 229 300 336 221 292 379 625 482 1013 41 155 49 225
28 233 -14 6 -13 14 13 64 51 102 101 233 121 316 24 98 37 247 22 247 -5 0
-13 -11 -16 -25 -11 -43 -48 -137 -52 -132 -2 2 3 23 11 47 41 117 70 312 59
408 l-6 63 -57 -55 c-67 -66 -284 -246 -289 -241 -2 2 5 21 17 42 96 176 161
546 133 757 l-7 50 -61 -67 c-194 -212 -432 -329 -719 -352 -161 -13 -326 27
-698 169 -351 133 -490 174 -727 215 -243 42 -564 53 -755 26 -55 -7 -101 -12
-103 -10 -2 2 1 12 7 22 5 11 35 82 66 158 76 186 154 348 257 535 47 85 102
188 123 229 69 138 145 400 145 502 l0 41 26 -17 c14 -9 28 -14 31 -11 27 27
18 240 -16 386 -11 47 -25 114 -31 150 -6 35 -18 77 -26 92 -18 34 -15 35 32
3 20 -14 46 -25 57 -25 18 0 19 5 14 48 -7 54 -57 183 -126 321 -27 53 -70
161 -96 241 -61 185 -109 289 -192 414 -180 270 -451 452 -781 526 -86 18
-289 41 -347 38 -16 0 -95 -4 -175 -9z m190 -90 c-69 -5 -138 -13 -155 -18
-22 -8 -13 -8 35 -3 36 4 116 7 178 7 62 0 103 3 90 7 -13 4 2 4 32 1 62 -6
78 -13 34 -14 -16 0 11 -9 61 -19 49 -11 91 -17 94 -15 2 3 -4 5 -15 6 -10 0
-14 3 -9 5 6 2 42 -7 80 -21 l70 -25 -75 5 c-69 4 -71 3 -30 -6 68 -16 187
-58 265 -95 79 -37 166 -99 162 -116 -1 -6 4 -13 12 -16 8 -3 11 0 7 7 -11 17
0 13 15 -6 12 -14 12 -16 -1 -10 -8 4 -6 2 4 -5 29 -20 117 -98 111 -98 -4 0
-27 12 -51 26 -72 43 -60 22 21 -36 41 -29 82 -64 91 -77 8 -14 32 -43 52 -65
35 -39 29 -39 -28 -1 -17 11 -11 2 16 -28 39 -43 114 -152 114 -166 0 -3 -10
3 -22 14 -44 39 -53 37 -20 -5 40 -50 114 -182 102 -182 -10 0 -41 44 -59 85
-8 17 -16 25 -18 18 -6 -16 27 -77 112 -209 68 -105 125 -209 125 -229 0 -9
-42 57 -103 162 -17 29 -32 51 -34 49 -5 -5 37 -97 64 -138 24 -39 30 -64 13
-53 -16 10 -11 -1 7 -16 15 -12 16 -12 8 1 -5 10 -5 12 2 5 6 -5 13 -23 17
-39 l7 -28 -46 37 -45 37 14 -34 c17 -40 48 -169 43 -175 -3 -2 -17 31 -32 74
-27 77 -81 193 -90 193 -6 0 27 -88 104 -278 73 -178 86 -222 50 -163 -26 44
-33 35 -14 -19 8 -24 17 -52 20 -64 2 -12 11 -39 18 -61 8 -22 18 -60 21 -85
l6 -45 -23 61 c-26 68 -91 191 -113 214 -8 8 -1 -10 15 -40 40 -75 72 -177 65
-209 -5 -21 -3 -23 6 -11 10 13 11 12 6 -3 -3 -10 -7 -53 -7 -95 l-1 -77 -9
55 c-18 125 -27 106 -27 -62 0 -191 -15 -251 -28 -117 l-8 84 -8 -140 c-4 -77
-11 -153 -16 -170 -8 -27 -9 -25 -15 31 -12 116 -26 118 -27 4 -2 -118 -17
-185 -20 -85 -3 109 -16 112 -16 3 1 -73 -3 -111 -11 -119 -11 -10 -13 0 -14
52 -1 35 -4 55 -6 44 -3 -11 -9 -24 -13 -30 -4 -5 -13 -40 -19 -77 -19 -114
-29 -124 -32 -33 l-2 80 -7 -91 c-5 -72 -13 -103 -38 -155 -24 -48 -30 -56
-26 -31 3 17 1 32 -4 32 -5 0 -12 -21 -16 -47 -3 -27 -18 -78 -33 -116 -28
-71 -40 -85 -23 -26 26 87 19 344 -9 372 -5 5 -5 -11 0 -35 4 -24 8 -63 7 -88
l-1 -45 -11 60 c-7 33 -14 54 -17 47 -2 -8 -13 10 -23 38 -28 78 -30 52 -2
-33 14 -42 25 -88 24 -104 0 -15 5 -39 10 -53 11 -24 11 -24 11 8 1 46 21 30
21 -16 0 -20 -7 -72 -15 -114 -8 -43 -12 -85 -8 -94 4 -11 2 -15 -4 -11 -7 4
-15 -11 -22 -41 -14 -56 -35 -94 -26 -47 5 27 5 28 -5 7 -5 -13 -7 -28 -4 -33
3 -5 2 -19 -1 -30 -5 -15 -10 -18 -15 -10 -4 8 -10 -3 -13 -27 -4 -21 -13 -54
-21 -73 l-14 -34 -6 35 c-2 19 -9 64 -13 100 -8 60 -9 56 -8 -50 0 -95 -4
-128 -24 -190 -21 -65 -25 -72 -32 -50 -6 20 -7 17 -8 -18 -1 -24 -10 -80 -22
-124 -21 -84 -28 -175 -15 -218 5 -19 2 -16 -14 10 l-21 35 6 -30 c12 -58 74
-134 149 -181 43 -27 57 -44 37 -44 -19 0 -118 73 -159 118 -55 59 -89 117
-113 190 l-19 57 6 -45 c7 -54 36 -122 69 -166 37 -48 30 -49 -16 -1 -32 32
-36 35 -21 12 23 -35 62 -72 62 -60 0 5 12 -3 28 -17 15 -15 54 -43 86 -62
l60 -36 138 0 c126 0 141 2 180 24 23 13 49 34 57 47 l15 24 -24 -22 c-36 -32
-76 -44 -155 -49 l-70 -4 46 14 c25 7 54 18 65 24 16 10 12 11 -27 12 -43 0
-186 37 -177 45 1 2 28 -3 58 -11 59 -15 114 -17 145 -5 13 5 -12 10 -70 13
-67 3 -103 10 -142 29 -72 33 -78 52 -15 44 57 -8 39 10 -20 20 -21 4 -38 10
-38 14 0 5 23 2 52 -5 29 -8 64 -13 78 -13 20 1 21 2 5 6 -93 19 -145 39 -145
55 0 10 8 19 18 19 16 1 16 2 0 6 -14 3 -18 15 -18 51 0 26 4 52 8 58 16 26
208 62 361 68 58 2 90 2 71 0 -180 -22 -372 -66 -357 -80 2 -3 15 0 29 5 54
21 229 50 334 56 121 6 329 -7 469 -31 101 -17 336 -73 347 -83 4 -3 -28 -6
-70 -7 -42 0 -104 -5 -137 -10 -54 -8 -44 -9 100 -14 130 -5 173 -10 228 -29
37 -12 67 -24 67 -26 0 -2 -21 -2 -47 0 -102 9 -236 15 -231 10 3 -3 64 -12
135 -20 149 -17 257 -50 395 -123 49 -25 87 -47 85 -48 -1 -1 -69 20 -152 47
-140 47 -300 90 -328 89 -7 -1 40 -16 103 -35 63 -18 149 -46 190 -63 41 -16
113 -41 160 -57 77 -25 226 -102 217 -112 -3 -2 -28 5 -56 17 -85 33 -77 23
22 -28 51 -27 118 -66 148 -86 45 -32 49 -37 25 -31 -25 5 -19 -2 33 -41 34
-25 60 -48 58 -50 -4 -5 -69 20 -107 40 -37 20 -387 136 -408 135 -9 0 -3 -5
13 -10 82 -27 116 -42 110 -47 -3 -4 11 -11 32 -18 36 -10 34 -11 -41 -12 -89
-2 -119 -12 -35 -12 56 0 141 -18 201 -43 31 -13 29 -14 -47 -11 -44 1 -64 0
-45 -2 89 -11 191 -40 332 -93 277 -105 578 -226 578 -233 0 -11 -136 -97
-177 -112 -94 -33 -272 -47 -292 -22 -6 7 -39 30 -74 51 -34 21 -64 41 -67 45
-3 3 -50 27 -105 53 -104 49 -248 92 -345 103 -49 5 -59 10 -74 34 -16 28 -16
29 6 32 18 3 15 6 -15 12 -25 6 -53 24 -85 56 -54 54 -103 81 -217 122 -44 16
-69 26 -55 22 35 -9 196 -17 189 -10 -3 3 -26 9 -50 12 -24 3 -62 14 -84 24
-22 10 -53 22 -70 26 -28 8 -27 8 20 14 l50 6 -40 8 c-49 10 -155 56 -155 67
0 4 8 10 18 12 9 3 4 5 -13 6 -16 1 -91 17 -165 37 -84 22 -169 37 -225 40
l-90 5 110 -30 c61 -17 113 -30 117 -31 5 0 7 -5 5 -10 -2 -11 91 -52 243
-107 52 -18 82 -31 65 -28 -16 3 -84 10 -150 15 -66 6 -140 15 -165 20 -98 20
-79 7 30 -21 63 -16 142 -38 175 -49 33 -10 87 -24 120 -30 33 -7 96 -29 140
-49 82 -38 210 -120 201 -128 -2 -3 -54 5 -114 16 -141 27 -147 26 -37 -8 50
-15 105 -35 123 -45 38 -20 112 -84 112 -97 0 -5 -21 -9 -47 -10 l-48 -1 55
-12 c30 -7 72 -21 93 -32 l37 -20 -72 0 c-40 0 -81 -5 -91 -10 -14 -8 -6 -10
36 -6 61 5 112 -9 152 -40 21 -16 24 -23 13 -29 -9 -6 -7 -9 10 -9 29 0 108
-78 93 -93 -7 -7 -21 -3 -48 14 -62 41 -137 68 -199 73 l-59 5 45 -10 c69 -16
120 -36 180 -70 l54 -32 -74 -37 -73 -37 46 -6 c55 -8 117 -32 117 -46 0 -5
-21 -16 -47 -24 l-48 -15 44 -1 c44 -1 44 -1 26 -21 -31 -34 -77 -58 -165 -85
-47 -14 -67 -23 -45 -20 57 9 203 54 210 65 16 26 23 6 9 -24 -15 -30 -25 -36
-91 -55 -80 -24 -95 -38 -22 -22 24 6 55 10 69 10 23 0 20 -4 -30 -50 -45 -41
-50 -48 -26 -39 16 6 42 20 58 31 38 27 45 18 20 -23 -30 -49 -74 -77 -145
-93 -56 -13 -58 -14 -13 -9 27 3 56 8 65 11 11 4 8 -3 -9 -22 -25 -28 -152
-95 -179 -95 -8 0 -12 -3 -8 -6 8 -8 99 22 160 53 27 13 52 22 55 19 11 -12
-53 -67 -107 -92 -29 -14 -95 -37 -145 -49 -84 -22 -87 -24 -45 -25 25 0 71 5
103 11 79 14 89 7 33 -25 -69 -41 -170 -73 -261 -85 -84 -10 -296 5 -487 34
-107 17 -135 18 -102 5 41 -16 201 -42 344 -54 l144 -12 -60 -13 c-79 -18
-163 -9 -332 34 -149 38 -190 44 -103 15 30 -11 48 -19 40 -20 -28 -2 161 -60
248 -76 181 -33 655 -34 688 -1 4 4 23 7 43 7 22 0 31 3 24 8 -9 5 2 15 32 30
42 20 50 21 118 10 219 -34 587 94 712 248 90 109 122 163 172 284 20 47 49
112 67 145 17 33 33 64 35 69 2 5 -27 -16 -65 -46 -68 -55 -143 -100 -129 -79
3 6 39 33 78 60 40 27 81 59 92 71 l20 23 -32 -5 c-38 -5 -41 2 -13 27 12 10
18 25 15 33 -3 8 12 45 32 82 21 38 35 72 31 76 -4 3 -34 -18 -67 -47 -145
-132 -275 -193 -435 -205 l-86 -7 0 29 c0 49 10 54 106 59 210 10 285 37 421
153 65 56 74 67 57 72 -12 5 -40 -3 -78 -22 -32 -16 -60 -27 -62 -25 -3 2 22
27 54 56 33 28 62 62 64 74 4 23 3 23 -24 13 -20 -7 -31 -7 -38 0 -8 8 8 26
57 61 37 28 82 58 98 69 17 10 60 42 96 71 36 29 69 53 73 53 4 0 18 12 32 28
l24 27 -17 -45 c-9 -25 -43 -103 -75 -174 l-58 -130 39 38 c22 21 53 66 70
100 17 33 31 54 31 46 0 -31 -63 -178 -124 -285 l-28 -50 61 64 c34 35 61 61
61 57 0 -13 -33 -71 -82 -146 l-49 -75 41 45 c23 25 48 57 56 73 23 43 25 32
4 -27 -26 -77 -133 -265 -180 -319 -52 -59 -51 -67 4 -22 42 34 44 35 42 13
-2 -13 -9 -34 -17 -48 -8 -14 -14 -30 -14 -36 0 -6 -17 -36 -37 -67 -24 -38
-30 -52 -17 -44 11 7 22 20 25 31 4 13 8 15 14 7 5 -9 17 -4 40 15 l33 28 -16
-30 c-8 -16 -24 -38 -36 -48 -12 -11 -21 -27 -21 -37 0 -10 -12 -32 -27 -50
-24 -28 -24 -30 -6 -21 12 7 36 29 53 49 l32 38 -32 -65 c-18 -36 -42 -78 -53
-95 l-21 -30 28 25 28 25 -14 -35 c-21 -50 -121 -202 -166 -252 -41 -46 -30
-43 36 10 23 19 42 32 42 28 0 -3 -24 -55 -54 -114 -52 -103 -149 -246 -195
-287 -24 -21 -60 -82 -43 -71 6 3 12 1 14 -6 3 -7 7 -5 11 6 4 10 3 15 -3 11
-16 -10 -11 11 5 25 13 11 15 10 9 -6 -5 -16 -2 -15 15 5 30 33 26 16 -5 -24
-14 -19 -30 -33 -36 -32 -5 1 -15 -7 -21 -18 -7 -11 -35 -43 -63 -71 -29 -29
-64 -75 -79 -103 -16 -28 -37 -59 -48 -68 -18 -17 -18 -16 1 17 33 56 75 155
60 143 -7 -6 -37 -56 -66 -110 -29 -54 -64 -112 -78 -128 l-26 -30 20 35 c11
19 23 46 26 60 5 19 2 17 -13 -10 l-20 -35 5 50 c3 28 7 65 9 84 6 48 0 37
-35 -64 -18 -50 -43 -109 -56 -132 -26 -45 -43 -59 -24 -20 11 21 11 21 -5 2
-8 -11 -13 -25 -10 -33 2 -7 1 -10 -4 -7 -5 3 -12 -3 -16 -14 -3 -11 -12 -25
-21 -32 -12 -10 -13 -9 -7 7 6 17 5 17 -10 5 -16 -13 -16 -11 -2 22 8 20 15
47 15 59 -1 15 -6 7 -16 -22 -9 -25 -22 -52 -30 -60 -13 -13 -14 -12 -5 13 14
36 14 77 1 77 -5 0 -10 -9 -10 -21 0 -22 -44 -117 -62 -134 -6 -6 -6 -2 1 12
6 12 10 39 10 60 l-1 38 -7 -35 c-4 -19 -13 -44 -20 -55 -11 -18 -12 -18 -6 7
9 43 -1 33 -29 -27 -25 -55 -44 -77 -26 -30 14 37 3 30 -19 -12 -24 -45 -27
-40 -6 10 8 20 15 44 15 54 -1 10 -9 -3 -18 -30 -19 -52 -61 -111 -93 -127
-20 -11 -20 -10 2 32 24 46 35 103 19 93 -6 -3 -10 -14 -10 -24 0 -36 -101
-164 -117 -148 -2 2 10 30 27 62 16 31 30 67 30 79 -1 13 -11 -1 -29 -39 -16
-33 -43 -73 -62 -90 -19 -16 -26 -21 -18 -10 9 11 26 40 38 65 23 48 8 34 -22
-21 -22 -39 -33 -34 -13 7 19 40 30 108 17 99 -6 -3 -11 -13 -11 -21 0 -40
-77 -158 -109 -167 -19 -5 -19 -3 4 31 30 44 33 101 8 179 -18 56 -68 113
-100 113 -9 0 -2 -9 18 -23 18 -12 44 -40 56 -62 24 -44 39 -130 28 -165 -7
-22 -7 -22 -21 4 -7 15 -18 51 -23 82 -6 30 -13 61 -17 67 -3 7 2 3 10 -7 9
-11 16 -24 16 -30 0 -5 3 -7 6 -4 7 8 -30 81 -49 97 -22 18 -135 33 -182 25
-38 -7 -36 -8 44 -20 98 -15 122 -29 48 -29 -29 0 -115 -2 -192 -5 l-140 -4
165 -6 165 -5 -74 -18 c-40 -9 -85 -17 -100 -18 l-26 -1 25 -8 c14 -4 21 -9
15 -9 -5 -1 -59 -15 -120 -32 -60 -17 -139 -36 -175 -44 -43 -8 -55 -13 -34
-14 38 -1 88 8 267 52 76 19 135 31 130 26 -5 -5 -58 -20 -118 -33 -61 -14
-128 -32 -150 -41 -22 -8 -29 -13 -15 -10 14 3 63 13 110 21 46 8 88 18 94 21
5 3 6 1 2 -5 -4 -7 -13 -12 -21 -12 -8 0 -30 -11 -50 -24 -34 -23 -112 -46
-156 -46 -13 0 -18 -4 -13 -12 4 -6 3 -8 -4 -4 -5 3 -39 0 -74 -8 -34 -8 -97
-20 -138 -27 l-75 -13 50 -8 c28 -5 73 -6 100 -3 35 4 46 3 35 -5 -8 -5 -64
-11 -125 -12 l-110 -2 85 -6 85 -6 -80 -4 -80 -4 70 -7 c65 -6 64 -6 -25 -4
-54 1 -86 -1 -75 -6 11 -4 43 -8 70 -9 l50 -1 -69 -25 c-39 -13 -86 -24 -105
-24 -25 0 -32 -3 -22 -9 9 -6 -5 -8 -35 -5 -36 2 -41 1 -19 -4 25 -6 6 -13
-110 -39 -177 -41 -340 -69 -480 -84 -151 -17 -559 -17 -658 0 -245 40 -556
188 -757 357 l-55 47 62 -60 c80 -78 174 -144 278 -198 46 -23 81 -46 77 -50
-4 -5 -2 -5 5 -1 12 6 98 -23 90 -31 -3 -2 -35 3 -73 11 -137 28 -133 28 -94
12 75 -31 -3 -14 -125 28 -191 64 -276 108 -363 189 -17 17 -32 26 -32 21 0
-11 47 -57 94 -92 16 -12 24 -22 18 -22 -6 0 -30 16 -54 35 -24 19 -58 45 -75
57 -32 22 -46 45 -20 33 6 -3 4 0 -7 7 -98 67 -243 237 -302 354 -26 52 -49
94 -51 94 -12 0 70 -160 120 -235 46 -69 258 -288 300 -311 49 -26 24 -25 -44
1 -35 14 -72 24 -82 21 -14 -3 -16 -1 -7 8 7 10 6 17 -7 27 -16 13 -17 12 -5
-2 10 -14 10 -18 -3 -23 -9 -3 -13 -2 -10 3 3 5 1 12 -5 16 -6 4 -8 10 -5 15
3 4 -3 14 -13 21 -16 13 -16 13 -2 -5 14 -18 13 -19 -4 -12 -20 7 -20 7 0 -16
14 -17 14 -19 2 -9 -9 7 -22 10 -27 7 -5 -4 -12 -2 -16 4 -4 6 -11 7 -17 4 -7
-5 -8 -2 -4 5 5 8 3 12 -5 10 -28 -3 -40 1 -33 13 5 7 2 9 -8 5 -22 -8 -145
66 -248 150 -74 60 -103 90 -183 195 l-18 23 13 -25 c7 -13 35 -54 62 -90 l49
-65 -48 45 c-26 25 -44 38 -40 30 4 -8 -6 -2 -22 13 -17 16 -45 56 -61 90
-120 244 -148 327 -177 525 -10 67 -20 120 -23 118 -8 -8 21 -204 43 -291 12
-50 37 -122 55 -160 18 -39 41 -92 51 -119 18 -48 18 -48 -1 -31 -38 34 -14
-11 45 -86 11 -14 -2 -2 -29 25 -49 51 -134 173 -176 254 -12 24 -24 41 -27
39 -9 -9 20 -97 30 -90 6 3 7 1 3 -6 -4 -6 2 -28 13 -47 31 -52 26 -53 -14 -3
-40 51 -80 154 -101 260 l-14 74 5 -65 c5 -59 28 -160 50 -215 l8 -20 -23 20
c-29 25 -54 83 -96 215 -36 115 -44 101 -14 -25 10 -44 17 -81 16 -83 -2 -1
-17 29 -34 68 -48 106 -70 209 -77 360 -4 74 -9 137 -12 140 -8 8 2 -383 11
-405 4 -11 -7 9 -23 44 -39 81 -50 118 -61 211 l-8 75 1 -98 c1 -53 1 -97 0
-97 -1 0 -14 36 -28 81 -19 60 -25 105 -27 177 -1 94 -2 95 -8 32 -5 -53 -7
-58 -9 -25 -3 37 -4 38 -12 15 -6 -16 -7 13 -4 79 6 113 1 126 -14 40 -8 -47
-10 -37 -8 68 1 67 -1 119 -6 114 -4 -4 -13 -44 -19 -89 -7 -45 -16 -82 -20
-82 -11 0 -10 108 2 198 13 100 54 257 85 327 14 32 24 60 22 62 -10 9 -60
-105 -87 -202 -30 -104 -49 -153 -50 -130 -2 89 59 337 100 403 11 19 16 31
11 27 -6 -3 -27 -33 -47 -65 -20 -33 -38 -60 -40 -60 -6 0 26 103 56 181 42
110 80 176 143 246 50 57 50 57 7 18 -24 -22 -53 -51 -64 -64 -12 -14 -27 -32
-34 -40 -11 -13 -11 -12 -1 9 21 44 122 183 174 240 74 81 13 30 -83 -69 l-82
-86 42 70 c24 38 92 121 152 182 60 62 105 113 101 113 -4 0 -1 8 6 17 12 15
12 16 -1 8 -48 -29 -149 -130 -192 -192 -53 -78 -39 -44 21 49 33 51 93 131
133 178 40 47 72 88 71 92 -4 10 298 298 307 293 4 -3 14 3 21 13 13 16 12 16
-6 3 -11 -7 9 14 45 48 88 84 351 295 595 477 223 166 353 288 434 409 65 95
82 116 50 57 -27 -48 -99 -141 -174 -224 -58 -65 -160 -152 -296 -253 -92 -69
-214 -166 -234 -188 -5 -6 4 -1 20 11 17 12 90 66 164 119 145 105 288 225
364 306 27 29 46 46 42 40 -16 -32 8 -8 46 47 23 33 43 60 45 60 7 0 -11 -37
-33 -66 -13 -17 -23 -34 -23 -38 0 -4 -16 -29 -36 -54 l-37 -47 34 36 c19 20
46 52 61 72 20 25 34 35 48 32 11 -2 19 -1 16 3 -2 4 9 25 26 47 24 32 29 35
25 16 -8 -33 6 -17 42 49 17 30 31 51 31 46 0 -13 -44 -132 -74 -199 -15 -32
-22 -56 -17 -53 5 3 27 50 50 103 23 54 46 105 52 113 5 8 16 29 24 45 15 30
15 30 9 -20 -4 -27 -13 -67 -22 -88 -8 -21 -12 -40 -9 -43 8 -8 47 103 54 152
6 46 22 60 24 22 1 -13 1 -63 1 -113 l0 -90 9 90 c9 94 17 128 18 84 1 -19 6
-26 18 -25 14 1 20 -12 30 -59 l12 -60 -5 80 c-3 44 -7 96 -9 115 l-4 35 13
-40 c10 -32 14 -36 18 -20 5 17 6 16 8 -5 1 -23 2 -23 10 -5 5 11 9 14 9 8 1
-7 5 -13 11 -13 5 0 7 14 3 33 l-6 32 43 -45 c37 -39 43 -41 37 -20 -5 23 -5
23 7 7 13 -16 15 -16 29 -2 15 14 18 13 32 -12 15 -26 16 -26 11 -4 -4 18 -2
21 7 12 14 -14 30 -15 22 -1 -7 12 8 14 19 3 4 -4 29 -8 55 -9 26 0 54 -4 61
-9 8 -5 32 -11 54 -13 21 -2 50 -11 65 -20 24 -16 23 -14 -9 28 -19 25 -25 38
-15 29 30 -24 84 -48 87 -39 2 5 24 -2 50 -15 33 -17 45 -20 41 -9 -7 20 10
17 41 -7 19 -15 24 -16 20 -5 -8 22 24 21 56 -1 24 -17 24 -17 8 6 -21 30
-117 110 -160 135 -29 16 -26 11 22 -38 65 -67 55 -74 -19 -11 -29 25 -56 45
-59 45 -4 -1 10 -15 31 -32 38 -31 73 -79 45 -61 -44 27 -137 107 -132 114 2
4 -5 13 -17 19 -15 8 -19 9 -15 1 4 -6 1 -11 -6 -11 -7 0 14 -25 47 -55 33
-30 56 -54 52 -55 -7 0 -37 18 -182 113 -26 17 -25 15 8 -17 20 -20 37 -39 37
-43 0 -4 -5 -2 -12 5 -17 17 -33 15 -18 -3 7 -8 8 -15 3 -15 -14 0 -54 31 -49
38 4 6 -15 10 -67 12 -25 2 -102 44 -100 56 1 5 -11 10 -25 11 l-27 1 35 -30
c42 -35 22 -25 -86 45 -126 81 -123 78 -94 72 22 -4 21 -3 -5 10 -16 8 -40 14
-53 15 -13 0 -20 4 -17 10 6 10 -7 14 -32 11 -7 -1 -13 2 -13 7 0 11 -51 35
-58 27 -3 -3 -1 -5 4 -5 6 0 19 -7 30 -15 18 -15 -75 22 -113 44 -27 16 -7 13
35 -5 77 -32 13 5 -76 44 -53 24 -100 39 -110 35 -9 -3 1 8 24 24 78 58 144
158 144 217 0 52 -66 104 -176 140 -142 46 -215 194 -243 489 -7 65 -17 119
-27 136 l-16 28 -57 -28 c-31 -15 -96 -57 -146 -92 -61 -45 -92 -62 -97 -54
-5 8 -8 6 -8 -5 0 -9 -13 -26 -30 -38 l-29 -21 -30 66 c-20 44 -39 71 -60 83
-27 15 -31 23 -37 82 -4 37 -2 122 6 195 18 194 21 215 30 215 5 0 11 8 13 18
3 9 6 -12 7 -48 l3 -65 7 76 c4 42 11 103 15 135 8 53 9 56 16 29 4 -20 7 -23
8 -10 0 12 14 59 30 105 28 81 30 83 31 45 l2 -40 9 45 c9 45 60 159 82 182 7
7 25 32 41 56 16 23 30 42 32 42 2 0 -4 -16 -12 -36 -22 -53 -11 -51 29 4 19
27 54 65 78 84 53 44 199 131 207 124 2 -3 -10 -13 -29 -23 -18 -10 -53 -37
-79 -61 l-45 -43 50 34 c100 69 211 131 283 159 41 16 77 27 79 24 2 -2 -23
-19 -56 -37 -33 -18 -58 -36 -56 -39 2 -4 -14 -20 -35 -36 -22 -16 -40 -33
-40 -37 0 -4 24 10 53 32 51 39 147 88 185 96 10 2 48 12 83 23 35 11 98 25
139 32 41 6 82 13 90 15 8 1 85 3 170 2 l155 0 -125 -8z m277 -25 c-3 -3 -12
-4 -19 -1 -8 3 -5 6 6 6 11 1 17 -2 13 -5z m288 -84 c22 -11 29 -17 15 -14
-38 10 -87 32 -70 33 8 0 33 -8 55 -19z m-1541 -1311 c3 -17 6 -55 6 -84 0
-204 114 -442 235 -491 25 -11 45 -21 45 -24 -1 -3 -20 -17 -43 -32 -23 -14
-66 -43 -95 -63 -124 -86 -495 -274 -649 -329 -157 -55 -247 -71 -408 -71
-145 1 -153 2 -235 34 -52 20 -106 33 -138 34 -47 2 -56 -1 -78 -26 l-24 -28
0 26 c0 64 59 125 147 150 202 58 435 223 579 408 63 82 123 233 159 404 12
57 27 53 69 -19 47 -80 70 -76 239 39 95 65 158 101 178 103 4 0 9 -14 13 -31z
m251 -716 c-81 -72 -255 -178 -468 -284 -451 -223 -633 -247 -982 -126 -69 24
-95 37 -83 42 10 4 51 -4 95 -19 43 -14 105 -30 137 -35 134 -24 342 -6 486
41 193 63 556 238 741 357 106 69 133 77 74 24z m50 -118 c-33 -28 -130 -68
-152 -63 -11 2 155 83 177 87 3 0 -8 -11 -25 -24z m271 -253 c-5 -4 -146 66
-146 73 0 3 34 -12 75 -32 41 -20 73 -39 71 -41z m-19 57 c19 -12 37 -19 40
-16 3 4 24 -4 46 -16 22 -12 58 -32 81 -44 49 -26 41 -30 -12 -6 -20 9 -43 15
-51 14 -7 -1 -10 2 -6 8 4 7 0 8 -10 5 -10 -4 -15 -2 -13 6 2 8 -10 16 -27 20
-46 10 -117 50 -89 50 4 0 22 -10 41 -21z m68 -69 c13 -6 15 -9 5 -9 -8 0 -22
4 -30 9 -18 12 -2 12 25 0z m190 -68 c-3 -3 -11 0 -18 7 -9 10 -8 11 6 5 10
-3 15 -9 12 -12z m239 -91 c-2 -3 -12 3 -22 13 -16 17 -16 18 5 5 12 -7 20
-15 17 -18z m-616 -186 c-11 -20 -23 -34 -25 -31 -5 5 35 66 42 66 3 0 -5 -16
-17 -35z m4378 -922 c-21 -180 -87 -373 -163 -476 -21 -28 -32 -48 -26 -44 7
5 33 37 59 72 25 36 47 65 49 65 4 0 -51 -152 -64 -177 -5 -10 -14 -43 -20
-73 -7 -30 -21 -81 -33 -113 l-21 -58 -41 7 c-45 7 -196 58 -236 79 -14 8 -51
24 -84 37 -32 12 -71 36 -86 51 -16 16 -33 26 -40 22 -6 -4 -37 11 -68 33 -31
22 -67 42 -79 46 -23 7 -52 36 -35 36 5 0 47 -25 93 -55 83 -55 119 -66 64
-19 l-30 24 40 -5 40 -5 -44 15 c-45 15 -87 43 -46 30 11 -3 4 3 -15 15 -25
15 -29 20 -12 16 33 -6 27 2 -15 19 -42 18 -103 57 -103 66 0 3 48 9 108 12
157 9 244 39 352 122 30 23 110 71 177 105 85 43 141 80 183 119 33 32 59 52
56 47 -2 -6 -20 -48 -39 -93 -47 -110 -113 -208 -192 -281 -63 -60 -162 -116
-224 -128 -28 -6 -45 -24 -22 -24 23 0 158 64 199 94 128 94 253 263 293 396
13 44 26 80 28 80 2 0 1 -26 -3 -57z m-1191 -178 c138 -55 238 -76 390 -82
119 -5 315 16 358 38 33 18 17 -1 -36 -40 -82 -62 -168 -90 -326 -106 -75 -7
-138 -10 -141 -6 -17 24 -192 139 -325 214 -80 44 -72 42 80 -18z m-4685 -248
c0 -2 -10 -12 -22 -23 l-23 -19 19 23 c18 21 26 27 26 19z m4159 -53 c9 -8
-45 -2 -64 6 -14 7 -8 8 20 3 22 -3 42 -7 44 -9z m226 -244 c3 -6 -1 -7 -9 -4
-18 7 -21 14 -7 14 6 0 13 -4 16 -10z m320 -147 c103 -36 235 -97 340 -158
l60 -34 -80 -2 -80 -2 98 -10 c53 -5 97 -13 97 -17 0 -4 -47 -11 -105 -15 -58
-4 -105 -11 -105 -17 0 -6 27 -8 68 -5 37 2 78 1 92 -2 41 -11 -67 -40 -178
-48 -124 -9 -87 -21 58 -19 79 1 113 6 138 19 45 24 40 9 -10 -33 -35 -29 -56
-37 -118 -46 -42 -7 -60 -12 -41 -13 18 -1 62 4 97 11 35 6 67 8 71 4 11 -11
-48 -54 -97 -70 -62 -20 -150 -29 -205 -21 -55 9 -63 29 -44 105 11 44 11 53
-1 60 -8 6 -10 10 -5 10 6 0 3 5 -5 10 -12 7 -12 12 -2 22 6 6 12 26 12 43 0
45 -14 63 -175 227 l-50 50 35 -7 c19 -4 80 -23 135 -42z m805 -157 c-36 -20
-198 -72 -245 -80 -34 -6 -44 -3 -60 13 -10 12 -14 21 -8 21 40 0 236 32 268
44 50 18 78 20 45 2z m39 -202 c-60 -62 -101 -94 -143 -114 l-59 -27 44 -8 44
-8 -45 -13 c-25 -8 -82 -17 -127 -21 -90 -7 -94 -4 -74 51 6 13 11 47 13 75
l3 51 45 5 c117 15 181 29 267 57 51 16 96 34 99 40 3 5 9 7 12 3 3 -3 -32
-44 -79 -91z m-849 52 c0 -21 -17 -29 -47 -21 -27 6 -22 20 12 28 33 8 35 8
35 -7z m424 -150 c-16 -13 -42 -36 -59 -51 -55 -49 -137 -82 -235 -96 -54 -8
-54 -8 15 -5 84 4 168 34 231 83 25 19 48 32 51 30 10 -11 -28 -66 -66 -96
-75 -59 -152 -90 -256 -102 -53 -5 -99 -8 -101 -6 -3 3 3 21 12 41 12 23 25
36 38 37 19 1 19 2 -2 7 -22 7 -24 11 -17 37 1 6 7 28 11 50 l9 40 72 -4 c103
-5 240 17 283 44 44 28 52 24 14 -9z m476 -45 c0 -12 -73 -77 -108 -95 -43
-22 -160 -53 -249 -66 -43 -6 -88 -13 -99 -15 -21 -5 -21 -4 5 48 14 28 31 55
36 59 6 4 32 8 59 8 48 0 278 43 319 60 29 12 37 12 37 1z m-72 -112 c-42 -64
-137 -104 -333 -143 -178 -36 -179 -36 -124 19 44 45 46 46 139 56 137 15 221
34 276 63 60 31 60 31 42 5z m-480 -41 c-15 -21 -58 -50 -112 -77 -81 -41 -96
-45 -177 -49 -49 -3 -89 -2 -89 0 0 3 5 19 11 37 10 29 14 31 57 31 80 1 200
27 265 58 34 17 64 31 66 31 2 1 -7 -14 -21 -31z m382 -79 c-47 -43 -70 -55
-160 -84 -114 -37 -110 -42 15 -20 44 8 85 15 90 15 29 0 -154 -92 -216 -109
-122 -33 -358 -55 -319 -30 92 59 144 84 200 95 l65 13 -63 -2 c-34 -1 -62 1
-62 4 0 3 8 14 19 25 13 15 51 26 152 43 137 23 265 60 303 86 40 29 30 13
-24 -36z m-439 -33 c-40 -43 -138 -80 -211 -80 -66 0 -144 19 -135 33 2 4 52
11 109 14 72 5 128 14 173 30 88 31 91 31 64 3z m-324 -77 c15 -6 60 -14 98
-18 l70 -7 -45 -13 c-49 -15 -194 -20 -206 -8 -8 7 33 57 47 57 4 0 20 -5 36
-11z m109 -79 c-59 -23 -185 -50 -233 -50 l-35 0 24 29 c22 28 26 30 123 33
55 2 116 5 135 5 34 2 34 2 -14 -17z m339 -55 c-65 -28 -266 -44 -325 -25 -33
11 -25 12 120 16 69 1 141 7 160 12 54 15 81 13 45 -3z m-561 -15 c-12 -5 -43
-11 -70 -14 -49 -6 -49 -6 -19 9 17 8 48 14 70 14 32 0 36 -2 19 -9z m41 -49
c-26 -26 -317 -73 -328 -54 -9 15 95 34 328 62 6 1 6 -2 0 -8z m-4374 -828
c13 -16 12 -17 -3 -4 -17 13 -22 21 -14 21 2 0 10 -8 17 -17z m4099 -275 c40
-65 48 -147 14 -134 -8 3 -15 0 -15 -7 -1 -7 -5 2 -9 18 -6 22 -8 24 -9 9 0
-11 -11 -29 -23 -40 l-22 -19 18 28 c9 16 15 36 13 45 -4 13 -5 12 -6 -4 -1
-25 -25 -47 -52 -49 -14 -1 -18 3 -14 14 4 11 0 10 -16 -5 -22 -19 -22 -18 1
16 13 19 20 32 15 27 -5 -4 -18 1 -29 10 -21 18 -21 18 -3 -3 16 -20 16 -22
-5 -40 -12 -10 -18 -13 -14 -6 7 11 -5 17 -27 13 -4 -1 -3 8 3 19 6 12 7 20 1
20 -5 0 -11 -5 -13 -11 -2 -7 -10 -10 -18 -7 -9 3 0 12 23 27 20 12 42 19 48
15 7 -4 9 -3 5 4 -3 6 -2 13 3 17 6 3 17 -8 26 -25 8 -16 18 -30 21 -30 2 0
-3 14 -12 31 -16 31 -15 32 18 64 43 42 54 42 78 3z m-3240 -232 c36 -14 78
-28 95 -31 25 -6 27 -8 13 -16 -12 -7 -37 0 -90 24 -40 19 -80 36 -88 40 -8 3
-11 6 -5 6 5 1 39 -10 75 -23z m3280 -33 c0 -5 -28 -66 -62 -138 l-63 -130 0
-110 c0 -96 -3 -114 -22 -146 -73 -117 -260 -224 -493 -282 -74 -19 -180 -53
-235 -76 -129 -54 -134 -56 -110 -36 11 9 79 46 150 81 72 36 173 95 225 132
94 67 245 201 236 210 -3 2 -31 -18 -63 -46 -102 -88 -274 -203 -413 -278 -74
-40 -137 -68 -139 -62 -2 5 2 15 8 21 18 18 12 64 -12 93 l-24 27 69 35 c38
18 72 31 75 29 3 -3 26 4 51 15 116 50 123 47 16 -8 -38 -18 -58 -31 -44 -28
14 3 73 29 132 58 77 37 112 49 124 43 10 -6 20 -5 27 3 9 8 7 10 -8 5 -17 -5
-16 -3 4 12 42 31 104 66 97 54 -10 -16 6 -14 32 5 12 8 20 19 17 24 -3 5 0
12 6 16 8 4 9 3 5 -4 -13 -22 10 -12 34 13 26 28 45 33 36 9 -3 -9 -2 -12 4
-9 25 16 -16 -101 -43 -124 -10 -7 -17 -18 -17 -24 0 -20 60 57 90 115 17 32
30 60 30 63 0 3 0 11 0 19 0 22 53 36 81 22 35 -17 36 -59 4 -102 -69 -91
-277 -215 -460 -274 -76 -24 -113 -46 -49 -29 64 18 234 88 314 130 73 38 120
77 209 173 39 42 43 51 35 75 -13 36 -74 63 -160 71 -40 3 -75 8 -78 11 -3 3
15 28 40 55 26 27 64 76 85 108 22 33 39 57 39 54 0 -13 -33 -84 -42 -89 -8
-5 -14 -23 -17 -51 -1 -3 -14 -9 -30 -13 -31 -7 -48 -30 -28 -39 7 -2 2 -5
-10 -5 -13 -1 -23 -5 -23 -11 0 -16 87 -12 102 5 23 26 33 40 36 55 2 8 9 18
15 22 7 4 9 8 5 8 -4 0 4 12 17 26 14 15 25 34 26 43 1 18 2 26 23 100 8 29
16 54 18 56 2 2 62 13 121 24 4 0 7 -2 7 -6z m-3115 -33 c25 -11 -1 -11 -35 0
-20 6 -21 8 -5 8 11 0 29 -3 40 -8z m2925 -19 c-4 -16 -13 -38 -20 -48 -9 -15
-10 -15 -4 7 10 39 23 70 28 70 3 0 1 -13 -4 -29z m-2455 -91 c13 -5 14 -9 5
-9 -8 0 -24 4 -35 9 -13 5 -14 9 -5 9 8 0 24 -4 35 -9z m78 -17 c-7 -2 -21 -2
-30 0 -10 3 -4 5 12 5 17 0 24 -2 18 -5z m77 -13 c20 -6 21 -8 5 -8 -11 0 -31
4 -45 8 -20 6 -21 8 -5 8 11 0 31 -4 45 -8z m-705 -180 c-8 -13 -57 -26 -260
-65 -291 -56 -382 -64 -215 -17 106 29 160 40 317 67 163 28 166 28 158 15z
m295 -46 c-19 -9 -53 -22 -75 -29 -22 -7 -33 -13 -24 -14 9 -1 42 8 74 19 70
24 85 18 24 -10 -35 -16 -38 -19 -14 -14 44 8 30 1 -70 -41 l-90 -38 -310 3
c-170 2 -353 3 -405 3 -91 -1 -94 0 -62 13 19 8 86 21 150 29 65 8 180 24 257
35 77 11 214 27 304 35 91 9 167 18 170 20 2 3 27 5 55 5 l51 -1 -35 -15z
m2440 -14 c19 -12 -88 -62 -300 -140 -153 -56 -214 -74 -380 -110 -47 -10 -75
-19 -64 -19 49 -2 223 42 396 99 100 34 190 63 198 66 8 2 -30 -19 -85 -47
-83 -41 -99 -59 -29 -32 11 4 15 3 11 -4 -4 -6 -19 -14 -34 -18 -15 -3 -45
-15 -67 -26 -22 -10 -47 -19 -57 -19 -9 0 -50 -15 -90 -34 -57 -27 -92 -36
-152 -40 -43 -3 -76 -2 -73 2 5 9 -346 8 -404 -1 -28 -5 -39 -4 -30 1 8 5 67
17 130 26 120 18 284 56 455 107 427 128 527 160 550 176 11 8 13 13 5 10
-100 -37 -638 -194 -736 -216 -218 -48 -324 -67 -313 -57 8 8 440 133 674 195
365 98 368 98 395 81z m-2154 -43 c-22 -18 -89 -58 -150 -91 -126 -66 -158
-89 -74 -52 111 49 243 119 279 147 60 47 65 33 7 -17 -50 -43 -139 -94 -218
-124 -81 -31 -247 -101 -273 -116 -53 -30 -36 -9 49 61 46 38 84 71 84 73 0 2
-11 -5 -24 -15 -13 -10 -39 -30 -57 -44 -19 -15 -47 -35 -63 -45 -28 -18 -29
-18 -23 1 3 11 8 32 11 46 7 33 91 99 170 134 59 26 70 17 13 -10 -18 -9 -23
-13 -12 -9 11 3 36 8 55 11 l35 5 -40 -27 c-73 -50 -61 -47 95 29 85 41 160
75 165 75 6 0 -8 -14 -29 -32z m-241 -6 c-3 -5 -22 -15 -43 -22 -20 -6 -49
-18 -64 -26 -15 -7 -30 -12 -32 -11 -3 2 -20 -11 -38 -28 -32 -30 -34 -30 -50
-13 -16 17 -15 18 20 30 20 6 42 15 47 19 8 6 152 59 163 60 2 0 1 -4 -3 -9z"/>
<path d="M4658 8963 c6 -2 18 -2 25 0 6 3 1 5 -13 5 -14 0 -19 -2 -12 -5z"/>
<path d="M4595 8950 c-13 -5 -14 -9 -5 -9 8 0 24 4 35 9 13 5 14 9 5 9 -8 0
-24 -4 -35 -9z"/>
<path d="M4525 8925 c-25 -12 -26 -14 -5 -9 28 7 60 23 45 23 -5 0 -23 -6 -40
-14z"/>
<path d="M4440 8890 c-9 -6 -10 -10 -3 -10 6 0 15 5 18 10 8 12 4 12 -15 0z"/>
<path d="M5183 8863 c9 -2 23 -2 30 0 6 3 -1 5 -18 5 -16 0 -22 -2 -12 -5z"/>
<path d="M4328 8834 c-47 -24 -65 -40 -30 -27 23 9 82 44 82 49 0 6 0 6 -52
-22z"/>
<path d="M5323 8840 c97 -22 180 -53 279 -102 81 -40 93 -44 84 -29 -22 35
-347 152 -415 150 -14 0 9 -9 52 -19z"/>
<path d="M3922 8548 c-83 -109 -130 -212 -191 -415 -28 -94 -58 -260 -48 -269
2 -2 11 33 20 78 18 89 108 368 149 459 14 31 43 83 64 115 55 84 55 84 51 84
-3 0 -23 -24 -45 -52z"/>
<path d="M4766 8285 c-50 -18 -121 -87 -152 -148 -14 -27 -29 -79 -34 -124
-11 -86 -8 -79 -40 -93 -25 -10 -25 -10 3 -5 41 8 33 -1 -25 -28 -75 -35 -105
-63 -34 -31 67 30 114 29 224 -6 135 -43 215 -15 370 126 68 61 79 64 187 48
17 -2 91 -9 165 -14 165 -11 283 -31 341 -58 46 -20 168 -111 169 -125 0 -5
-26 12 -57 36 -32 24 -77 54 -100 66 -43 21 -169 45 -186 34 -5 -3 -32 -9 -61
-13 l-51 -8 65 -1 c36 0 92 -8 125 -16 67 -18 178 -70 197 -93 9 -10 0 -8 -29
7 -23 11 -48 21 -55 21 -7 0 7 -10 32 -21 25 -12 52 -21 60 -21 8 0 33 -14 54
-31 22 -17 36 -24 31 -16 -4 8 11 -4 34 -26 39 -37 42 -38 32 -13 -33 88 -90
157 -188 228 -42 30 -76 43 -39 15 25 -19 13 -19 -24 0 -42 22 -176 57 -250
66 -63 8 -63 8 20 5 60 -3 76 -1 55 5 -16 5 -118 10 -225 11 -191 3 -196 4
-240 29 -25 15 -54 38 -65 50 l-20 24 25 -20 25 -20 -26 30 c-14 17 -38 47
-53 69 -16 21 -47 47 -70 57 -49 22 -134 24 -190 4z m188 -31 c20 -10 47 -35
59 -54 l21 -35 -32 32 c-37 37 -85 53 -155 53 -85 0 -157 -53 -197 -143 -24
-55 -36 -58 -18 -6 26 77 93 149 156 170 41 13 125 5 166 -17z m-14 -79 c33
-17 38 -36 14 -59 -23 -24 -28 -20 -40 29 -6 25 -9 45 -7 45 2 0 17 -7 33 -15z
m-130 -63 c16 -36 17 -42 4 -42 -43 0 -71 38 -53 71 14 28 27 21 49 -29z m250
-98 c-55 -78 -152 -134 -235 -133 -67 0 -216 34 -193 44 9 4 51 0 93 -9 127
-26 173 -19 251 40 43 33 64 72 64 119 l0 36 24 -28 24 -28 -28 -41z"/>
<path d="M5648 8033 c7 -3 16 -2 19 1 4 3 -2 6 -13 5 -11 0 -14 -3 -6 -6z"/>
<path d="M5710 8015 c46 -18 64 -17 25 0 -16 8 -37 14 -45 14 -8 0 1 -7 20
-14z"/>
<path d="M5326 7991 c-4 -5 3 -7 14 -4 23 6 26 13 6 13 -8 0 -17 -4 -20 -9z"/>
<path d="M3576 7944 c-3 -26 -5 -83 -5 -128 2 -73 3 -69 10 44 8 130 6 164 -5
84z"/>
<path d="M3452 7950 c0 -19 2 -27 5 -17 2 9 2 25 0 35 -3 9 -5 1 -5 -18z"/>
<path d="M3462 7885 c0 -16 2 -22 5 -12 2 9 2 23 0 30 -3 6 -5 -1 -5 -18z"/>
<path d="M5673 7873 c9 -2 23 -2 30 0 6 3 -1 5 -18 5 -16 0 -22 -2 -12 -5z"/>
<path d="M5728 7863 c7 -3 16 -2 19 1 4 3 -2 6 -13 5 -11 0 -14 -3 -6 -6z"/>
<path d="M5870 7770 c8 -5 20 -10 25 -10 6 0 3 5 -5 10 -8 5 -19 10 -25 10 -5
0 -3 -5 5 -10z"/>
<path d="M5932 7747 c14 -7 36 -21 49 -32 l22 -20 -14 22 c-7 13 -27 27 -43
33 -39 13 -48 11 -14 -3z"/>
<path d="M3661 7704 c0 -11 3 -14 6 -6 3 7 2 16 -1 19 -3 4 -6 -2 -5 -13z"/>
<path d="M6151 6990 c0 -8 4 -24 9 -35 5 -13 9 -14 9 -5 0 8 -4 24 -9 35 -5
13 -9 14 -9 5z"/>
<path d="M6171 6914 c0 -11 3 -14 6 -6 3 7 2 16 -1 19 -3 4 -6 -2 -5 -13z"/>
<path d="M4345 6656 c28 -14 55 -25 60 -25 15 0 -56 36 -85 43 -14 3 -2 -5 25
-18z"/>
<path d="M4450 6610 c8 -5 20 -10 25 -10 6 0 3 5 -5 10 -8 5 -19 10 -25 10 -5
0 -3 -5 5 -10z"/>
<path d="M4490 6616 c0 -2 9 -6 20 -9 11 -3 18 -1 14 4 -5 9 -34 13 -34 5z"/>
<path d="M4549 6598 c-12 -7 -11 -8 1 -6 8 1 26 -4 38 -11 13 -7 25 -11 27 -9
2 2 -9 11 -24 20 -19 10 -33 13 -42 6z"/>
<path d="M4670 6526 c0 -2 7 -7 16 -10 8 -3 12 -2 9 4 -6 10 -25 14 -25 6z"/>
<path d="M4749 6485 c24 -14 46 -23 48 -21 5 5 -71 46 -84 46 -4 0 12 -12 36
-25z"/>
<path d="M4675 6474 c17 -13 40 -27 52 -30 13 -3 20 -10 17 -15 -3 -5 -1 -9 5
-9 27 0 16 19 -19 35 -22 10 -37 21 -35 25 5 8 -19 20 -38 20 -7 -1 2 -12 18
-26z"/>
<path d="M4870 6425 c0 -8 71 -58 75 -53 3 2 -13 16 -35 31 -22 14 -40 24 -40
22z"/>
<path d="M5671 6386 c18 -28 50 -95 71 -149 42 -111 48 -122 48 -84 0 52 -85
221 -132 263 -13 12 -8 0 13 -30z"/>
<path d="M5911 6414 c0 -11 3 -14 6 -6 3 7 2 16 -1 19 -3 4 -6 -2 -5 -13z"/>
<path d="M5542 6338 c52 -52 120 -135 171 -208 l18 -25 -7 28 c-9 37 4 34 22
-5 l14 -33 -6 40 c-9 59 -48 136 -90 175 -36 33 -36 33 -15 5 46 -62 52 -73
61 -106 9 -31 8 -32 -5 -15 -8 11 -15 17 -15 14 0 -3 -41 37 -92 88 -50 52
-95 94 -99 94 -5 0 15 -23 43 -52z"/>
<path d="M5330 6360 c9 -6 11 -13 5 -17 -13 -10 -19 -36 -7 -29 10 6 36 -20
45 -47 9 -24 56 -45 66 -29 5 8 18 4 45 -15 22 -14 36 -21 32 -14 -4 6 -3 11
3 11 6 0 3 13 -7 29 -9 16 -20 27 -24 25 -4 -3 -42 18 -84 46 -42 27 -80 50
-83 50 -3 0 1 -5 9 -10z m94 -99 c-5 -5 -67 48 -78 67 -5 9 11 -1 36 -23 25
-22 44 -42 42 -44z"/>
<path d="M5485 6312 c33 -34 56 -62 51 -62 -5 0 12 -24 38 -52 66 -76 75 -86
71 -90 -2 -1 3 -9 11 -16 27 -25 15 11 -21 65 -19 29 -35 56 -35 61 0 10 -73
78 -130 121 -43 33 -43 32 15 -27z"/>
<path d="M5442 6315 c21 -22 40 -36 43 -33 3 3 -13 20 -37 38 l-43 33 37 -38z"/>
<path d="M5916 6299 c-11 -70 -12 -99 -5 -99 6 0 19 121 13 129 -1 1 -5 -12
-8 -30z"/>
<path d="M5590 6256 c0 -5 47 -74 77 -115 2 -2 6 -2 9 2 4 3 -9 25 -27 49 -40
51 -59 72 -59 64z"/>
<path d="M4476 6204 c-4 -14 -5 -28 -3 -31 3 -2 8 8 11 23 4 14 5 28 3 31 -3
2 -8 -8 -11 -23z"/>
<path d="M4531 6104 c0 -11 3 -14 6 -6 3 7 2 16 -1 19 -3 4 -6 -2 -5 -13z"/>
<path d="M5812 6100 c0 -14 2 -19 5 -12 2 6 2 18 0 25 -3 6 -5 1 -5 -13z"/>
<path d="M4456 6085 c-9 -26 -7 -32 5 -12 6 10 9 21 6 23 -2 3 -7 -2 -11 -11z"/>
<path d="M4189 6013 c-13 -16 -12 -17 4 -4 9 7 17 15 17 17 0 8 -8 3 -21 -13z"/>
<path d="M5782 5905 c0 -16 2 -22 5 -12 2 9 2 23 0 30 -3 6 -5 -1 -5 -18z"/>
<path d="M5661 5864 c0 -11 3 -14 6 -6 3 7 2 16 -1 19 -3 4 -6 -2 -5 -13z"/>
<path d="M5621 5554 c0 -11 3 -14 6 -6 3 7 2 16 -1 19 -3 4 -6 -2 -5 -13z"/>
<path d="M3545 5509 c-69 -41 -205 -137 -205 -145 0 -3 6 -1 13 3 89 57 254
167 262 174 17 17 0 9 -70 -32z"/>
<path d="M3239 5273 c-13 -16 -12 -17 4 -4 9 7 17 15 17 17 0 8 -8 3 -21 -13z"/>
<path d="M5830 5200 c-43 -7 -41 -7 20 -7 36 -1 110 3 165 7 l100 7 -120 0
c-66 0 -140 -3 -165 -7z"/>
<path d="M6095 5160 c-53 -6 -48 -7 46 -8 58 -1 128 -4 155 -7 43 -4 45 -4 14
4 -55 14 -149 18 -215 11z"/>
<path d="M5146 5140 c10 -37 51 -123 66 -140 7 -8 24 -24 38 -35 18 -15 14 -6
-15 35 -21 30 -52 80 -68 110 -15 30 -25 44 -21 30z"/>
<path d="M5868 5133 c6 -2 18 -2 25 0 6 3 1 5 -13 5 -14 0 -19 -2 -12 -5z"/>
<path d="M3040 5072 c-36 -31 -85 -74 -110 -95 -57 -50 -31 -36 35 17 54 44
153 136 145 135 -3 0 -34 -26 -70 -57z"/>
<path d="M6137 5111 c-92 -13 -79 -21 34 -21 118 0 205 -12 298 -41 35 -10 66
-17 69 -14 3 3 3 5 1 5 -2 0 -35 11 -74 25 -47 16 -62 24 -45 25 24 2 24 2 -5
11 -43 13 -210 19 -278 10z"/>
<path d="M6546 5076 c45 -25 95 -48 110 -51 24 -4 23 -3 -6 9 -20 7 -58 27
-85 44 -28 16 -61 33 -75 37 -14 3 12 -14 56 -39z"/>
<path d="M5234 5087 c7 -22 82 -134 97 -143 15 -9 -7 31 -45 82 -17 23 -37 50
-44 60 -12 17 -12 17 -8 1z"/>
<path d="M5838 5083 c7 -3 16 -2 19 1 4 3 -2 6 -13 5 -11 0 -14 -3 -6 -6z"/>
<path d="M5329 5047 c23 -43 26 -51 11 -42 -19 12 -10 0 27 -35 l36 -35 -27
50 c-15 28 -36 61 -47 75 -21 25 -21 25 0 -13z"/>
<path d="M6190 5051 c8 -6 33 -11 55 -11 61 -1 238 -37 195 -40 -30 -2 -27 -4
25 -15 33 -6 78 -17 100 -23 22 -7 60 -11 85 -11 42 1 43 2 15 9 -16 5 -61 16
-100 24 -38 9 -52 13 -30 11 22 -3 63 -8 90 -10 48 -5 47 -4 -15 10 -164 39
-450 76 -420 56z"/>
<path d="M5411 5010 c15 -19 40 -43 58 -53 27 -17 31 -17 31 -3 0 9 -7 16 -15
16 -8 0 -34 17 -57 38 l-43 37 26 -35z"/>
<path d="M5110 5022 c0 -23 105 -116 171 -151 l64 -34 -40 37 c-22 21 -64 54
-93 73 -30 18 -64 46 -78 61 -13 15 -24 21 -24 14z"/>
<path d="M5250 5006 c0 -2 8 -10 18 -17 15 -13 16 -12 3 4 -13 16 -21 21 -21
13z"/>
<path d="M5030 4982 c0 -24 89 -104 154 -137 31 -16 67 -35 79 -42 12 -6 36
-14 52 -18 l30 -6 -30 15 -30 14 55 1 c31 1 50 5 43 9 -7 4 -34 5 -60 2 -41
-5 -57 -2 -108 24 -33 17 -88 59 -122 92 -38 37 -63 55 -63 46z"/>
<path d="M4869 4954 c6 -12 27 -41 47 -65 43 -52 79 -77 46 -33 -35 48 -104
120 -93 98z"/>
<path d="M6738 4963 c18 -2 45 -2 60 0 15 2 0 4 -33 4 -33 0 -45 -2 -27 -4z"/>
<path d="M5280 4956 c0 -2 8 -10 18 -17 15 -13 16 -12 3 4 -13 16 -21 21 -21
13z"/>
<path d="M5553 4930 c14 -11 33 -20 44 -20 12 1 7 7 -17 20 -46 25 -59 25 -27
0z"/>
<path d="M5039 4923 c12 -24 31 -39 31 -25 0 5 -10 17 -21 28 -22 19 -22 19
-10 -3z"/>
<path d="M6094 4931 c-12 -13 -170 -44 -214 -44 l-35 1 29 -11 c21 -7 43 -7
75 1 25 6 65 14 88 17 41 6 83 29 72 39 -3 3 -10 2 -15 -3z"/>
<path d="M4991 4904 c13 -14 38 -35 54 -47 23 -15 20 -9 -15 26 -24 26 -49 47
-54 47 -5 0 1 -12 15 -26z"/>
<path d="M5321 4927 c2 -1 13 -9 24 -17 19 -14 19 -14 6 3 -7 9 -18 17 -24 17
-6 0 -8 -1 -6 -3z"/>
<path d="M6038 4869 c-31 -16 -92 -35 -135 -43 l-78 -14 65 -1 c76 0 119 13
179 57 54 39 44 40 -31 1z"/>
<path d="M4868 4839 c28 -30 67 -63 85 -73 l32 -18 -35 28 c-19 16 -57 49 -85
73 l-50 45 53 -55z"/>
<path d="M5092 4845 c21 -22 39 -37 41 -34 2 2 -15 19 -37 38 l-41 35 37 -39z"/>
<path d="M7238 4813 c6 -2 18 -2 25 0 6 3 1 5 -13 5 -14 0 -19 -2 -12 -5z"/>
<path d="M6098 4804 c-12 -12 -155 -44 -203 -45 l-50 -2 45 -7 c25 -5 61 -6
80 -3 37 6 140 48 140 57 0 8 -5 8 -12 0z"/>
<path d="M7303 4803 c9 -2 23 -2 30 0 6 3 -1 5 -18 5 -16 0 -22 -2 -12 -5z"/>
<path d="M5234 4736 c11 -9 24 -16 30 -16 12 0 7 5 -24 19 -24 11 -24 11 -6
-3z"/>
<path d="M6053 4743 c9 -2 23 -2 30 0 6 3 -1 5 -18 5 -16 0 -22 -2 -12 -5z"/>
<path d="M6120 4740 c-21 -7 -21 -8 -5 -9 11 0 27 4 35 9 18 11 5 11 -30 0z"/>
<path d="M6205 4718 c-16 -5 -39 -13 -50 -18 -11 -4 -41 -14 -67 -20 -54 -14
-67 -36 -15 -24 38 8 187 64 187 70 0 6 -22 3 -55 -8z"/>
<path d="M5288 4708 c5 -5 16 -8 23 -6 8 3 3 7 -10 11 -17 4 -21 3 -13 -5z"/>
<path d="M6001 4691 c-10 -6 1 -8 30 -4 24 3 46 7 48 9 10 9 -65 3 -78 -5z"/>
<path d="M5280 4680 c34 -11 60 -11 35 0 -11 5 -29 8 -40 8 -16 0 -15 -2 5 -8z"/>
<path d="M6600 4671 c-18 -5 1 -9 65 -12 63 -4 105 -12 139 -27 27 -12 47 -24
45 -26 -2 -3 -29 2 -59 10 -30 8 -66 13 -80 13 -18 -1 -13 -4 18 -12 50 -12
184 -77 189 -92 2 -6 -23 -10 -60 -11 -35 0 -72 -6 -82 -13 -18 -11 -17 -11
10 -7 49 9 144 10 152 3 3 -4 -4 -7 -16 -7 -22 0 -81 -26 -81 -35 0 -3 16 2
36 10 62 26 101 14 72 -23 -12 -15 -11 -16 5 -3 24 19 31 9 23 -33 -8 -41 -64
-119 -118 -163 -22 -18 -37 -33 -34 -33 20 0 128 64 167 99 l46 40 11 -32 12
-32 -5 30 c-4 22 -3 26 5 15 14 -22 12 -125 -4 -164 -17 -41 -77 -109 -130
-148 -21 -15 -34 -28 -29 -28 16 0 85 49 131 93 23 23 42 39 42 37 0 -12 -30
-102 -41 -122 -6 -13 -28 -41 -48 -62 -38 -41 -32 -40 37 7 24 16 52 43 63 60
l19 32 -6 -70 c-7 -89 -20 -148 -44 -194 -18 -35 -89 -108 -140 -143 -31 -21
-6 -13 60 20 25 12 37 17 26 10 -10 -7 -28 -21 -40 -31 -20 -16 -20 -17 -1
-10 20 6 20 6 0 -16 -33 -38 -178 -129 -246 -155 -35 -14 -59 -25 -52 -26 25
0 117 42 182 83 99 64 100 64 42 4 -101 -104 -208 -143 -366 -133 -55 3 -113
8 -130 11 -16 2 -3 -5 30 -16 98 -33 205 -45 267 -30 29 6 68 15 86 18 23 4
32 10 28 19 -3 8 -1 14 4 14 11 0 19 7 117 90 42 36 72 72 89 107 14 29 34 55
45 58 17 6 59 63 59 80 0 5 -10 -1 -22 -12 -44 -39 -51 -36 -17 8 19 24 37 46
40 49 10 7 23 117 22 178 -2 46 1 54 20 62 l22 9 -22 0 c-14 1 -24 8 -25 19
-2 25 -4 35 -13 56 -6 13 -3 29 8 48 9 15 12 28 8 28 -5 0 -10 35 -13 78 -5
85 -25 131 -65 153 -13 7 -23 17 -23 23 0 19 -96 140 -137 172 -66 54 -117 74
-195 79 -40 2 -84 1 -98 -4z m420 -286 c0 -7 -21 -35 -46 -62 -36 -38 -40 -40
-20 -12 14 20 31 50 37 67 11 31 29 35 29 7z"/>
<path d="M6185 4665 c-5 -2 -23 -6 -39 -10 l-29 -6 27 -14 c25 -13 54 -11 66
5 3 4 14 12 25 18 18 10 17 11 -10 11 -16 0 -34 -2 -40 -4z"/>
<path d="M7320 4636 c0 -2 11 -6 25 -8 13 -3 22 -1 19 3 -5 9 -44 13 -44 5z"/>
<path d="M6205 4613 c-27 -2 -66 -11 -85 -20 -19 -9 -66 -27 -105 -39 -88 -29
-69 -30 37 -3 59 15 84 17 92 9 15 -15 -2 -24 -70 -39 -63 -15 -76 -27 -35
-36 52 -11 109 -8 131 8 l22 15 -21 7 c-31 9 -17 22 32 30 74 12 77 24 7 26
l-65 1 52 16 c28 10 55 20 59 25 4 4 5 6 3 5 -2 -1 -26 -3 -54 -5z"/>
<path d="M6014 4604 c-6 -3 -47 -8 -90 -13 -78 -8 -78 -8 -19 -9 33 0 83 6
110 13 28 7 41 13 30 13 -11 0 -25 -2 -31 -4z"/>
<path d="M7368 4493 c7 -3 16 -2 19 1 4 3 -2 6 -13 5 -11 0 -14 -3 -6 -6z"/>
<path d="M5135 4456 c48 -17 85 -20 85 -6 0 6 -17 10 -37 10 -21 0 -49 2 -63
5 -14 3 -7 -2 15 -9z"/>
<path d="M5888 4423 c12 -2 22 -9 22 -14 0 -10 67 -12 123 -2 65 10 20 23 -78
21 -49 0 -80 -3 -67 -5z"/>
<path d="M6165 4404 c-38 -7 -89 -13 -111 -13 -26 -1 -44 -6 -47 -15 -11 -29
48 -25 154 9 112 36 113 40 4 19z"/>
<path d="M6880 4400 c-18 -12 -2 -12 25 0 13 6 15 9 5 9 -8 0 -22 -4 -30 -9z"/>
<path d="M2630 4334 c-33 -31 -59 -59 -58 -63 2 -19 -3 -31 -14 -28 -8 1 -12
-6 -10 -17 2 -12 -1 -16 -10 -10 -7 4 -10 4 -6 -1 4 -4 -1 -15 -11 -24 -10 -9
-28 -40 -40 -70 -12 -30 -19 -53 -17 -50 3 2 36 52 74 109 38 58 76 111 86
119 23 19 79 91 71 91 -4 0 -33 -25 -65 -56z m-10 -27 c0 -2 -10 -12 -22 -23
l-23 -19 19 23 c18 21 26 27 26 19z m-97 -132 c-3 -9 -8 -14 -10 -11 -3 3 -2
9 2 15 9 16 15 13 8 -4z"/>
<path d="M6231 4338 c-26 -7 -31 -12 -20 -19 11 -7 10 -9 -6 -10 -30 -1 -105
-37 -79 -38 39 -2 120 29 144 54 26 27 18 30 -39 13z"/>
<path d="M6020 4294 c-71 -23 -72 -24 -25 -18 28 3 68 14 90 24 55 25 25 22
-65 -6z"/>
<path d="M6265 4250 c-27 -10 -69 -19 -93 -19 -55 -1 -46 -21 9 -21 41 0 93
18 131 45 29 19 16 18 -47 -5z"/>
<path d="M5873 4223 c9 -2 25 -2 35 0 9 3 1 5 -18 5 -19 0 -27 -2 -17 -5z"/>
<path d="M6280 4197 c-46 -27 -51 -33 -32 -35 29 -4 84 28 88 51 1 9 2 17 1
17 -1 0 -27 -15 -57 -33z"/>
<path d="M8590 4140 c-18 -23 -30 -43 -28 -45 3 -3 19 15 37 40 40 56 34 59
-9 5z"/>
<path d="M6200 4130 c41 -10 92 -26 112 -34 68 -29 54 -16 -21 19 -52 25 -87
35 -120 34 -45 0 -45 -1 29 -19z"/>
<path d="M6270 4146 c0 -2 7 -6 15 -10 8 -3 15 -1 15 4 0 6 -7 10 -15 10 -8 0
-15 -2 -15 -4z"/>
<path d="M8785 4129 c-4 -6 -5 -12 -2 -15 2 -3 7 2 10 11 7 17 1 20 -8 4z"/>
<path d="M6238 4084 c81 -39 89 -51 21 -31 -46 14 -139 22 -139 13 0 -9 132
-47 175 -51 22 -2 45 -4 50 -5 6 -1 26 -2 45 -1 l35 1 -40 27 c-52 35 -163 82
-195 83 -18 0 -3 -11 48 -36z"/>
<path d="M6080 4027 c0 -3 30 -15 68 -28 37 -12 92 -34 122 -49 58 -29 149
-55 158 -45 3 3 1 5 -5 5 -6 0 -28 7 -48 16 -48 20 -32 33 40 35 l50 1 -55 13
c-62 16 -85 18 -55 5 31 -13 -47 -13 -82 1 -15 5 -57 16 -93 24 -36 8 -73 17
-82 20 -10 4 -18 5 -18 2z"/>
<path d="M7385 3940 l-40 -7 43 -2 c23 0 42 4 42 9 0 6 -1 9 -2 9 -2 -1 -21
-5 -43 -9z"/>
<path d="M6269 3900 c22 -22 44 -40 48 -40 4 0 -11 18 -32 40 -21 22 -43 40
-48 40 -5 0 9 -18 32 -40z"/>
<path d="M6110 3890 c0 -6 7 -10 15 -10 33 0 123 -42 155 -73 54 -52 73 -59
107 -42 15 8 21 15 12 15 -8 0 -28 14 -44 30 -16 17 -35 28 -43 25 -8 -3 -10
0 -6 7 5 7 2 9 -7 6 -8 -3 -23 0 -34 8 -10 8 -14 14 -9 14 6 0 16 -6 24 -12
12 -11 12 -10 0 5 -7 10 -20 15 -27 12 -8 -2 -22 -1 -31 4 -27 13 -112 22
-112 11z"/>
<path d="M6320 3896 c0 -2 8 -10 17 -17 12 -10 15 -11 9 -1 -6 10 -1 11 21 7
23 -4 24 -4 8 4 -20 10 -55 14 -55 7z"/>
<path d="M6349 3837 c7 -9 18 -17 23 -17 5 0 27 -9 48 -19 26 -12 40 -15 40
-8 0 11 -35 28 -105 54 -18 6 -18 5 -6 -10z"/>
<path d="M5998 3833 c12 -2 32 -2 45 0 12 2 2 4 -23 4 -25 0 -35 -2 -22 -4z"/>
<path d="M6105 3821 c17 -5 55 -20 85 -35 30 -14 62 -26 69 -26 15 0 71 -48
71 -61 0 -7 -60 6 -183 41 -43 12 -83 19 -90 16 -7 -2 -4 -5 7 -5 26 -1 210
-86 249 -115 18 -13 50 -26 72 -29 38 -6 39 -6 10 5 -32 12 -125 67 -125 74 0
2 16 -3 36 -11 20 -8 51 -15 68 -15 l31 0 -26 18 c-30 19 -73 69 -82 93 -7 22
-86 48 -162 54 -43 3 -51 2 -30 -4z"/>
<path d="M5818 3773 c6 -2 18 -2 25 0 6 3 1 5 -13 5 -14 0 -19 -2 -12 -5z"/>
<path d="M6160 3691 c0 -5 14 -21 30 -34 39 -33 39 -44 0 -16 -16 13 -32 20
-35 17 -6 -6 35 -36 56 -40 6 -2 21 -12 34 -23 53 -49 66 -55 113 -54 l47 0
-48 13 c-44 12 -93 44 -82 54 2 3 15 -2 29 -11 16 -11 32 -14 52 -8 27 7 26 8
-21 16 -27 5 -56 9 -63 8 -7 0 -31 19 -54 43 -41 43 -58 53 -58 35z"/>
<path d="M6144 3628 c16 -13 47 -38 70 -57 48 -39 171 -101 201 -101 11 1 0 8
-25 17 -24 8 -76 36 -115 63 -96 64 -170 109 -131 78z"/>
<path d="M2561 3574 c0 -11 3 -14 6 -6 3 7 2 16 -1 19 -3 4 -6 -2 -5 -13z"/>
<path d="M7258 3583 c6 -2 18 -2 25 0 6 3 1 5 -13 5 -14 0 -19 -2 -12 -5z"/>
<path d="M2552 3505 c0 -16 2 -22 5 -12 2 9 2 23 0 30 -3 6 -5 -1 -5 -18z"/>
<path d="M6140 3475 c0 -9 92 -46 141 -56 62 -13 258 5 286 27 16 12 15 13
-12 9 -199 -33 -253 -33 -345 -1 -39 14 -70 23 -70 21z"/>
<path d="M7168 3473 c6 -2 18 -2 25 0 6 3 1 5 -13 5 -14 0 -19 -2 -12 -5z"/>
<path d="M6448 3463 c7 -3 16 -2 19 1 4 3 -2 6 -13 5 -11 0 -14 -3 -6 -6z"/>
<path d="M2543 3420 c0 -25 2 -35 4 -22 2 12 2 32 0 45 -2 12 -4 2 -4 -23z"/>
<path d="M6938 3453 c7 -3 16 -2 19 1 4 3 -2 6 -13 5 -11 0 -14 -3 -6 -6z"/>
<path d="M6618 3413 c7 -3 16 -2 19 1 4 3 -2 6 -13 5 -11 0 -14 -3 -6 -6z"/>
<path d="M6543 3403 c9 -2 23 -2 30 0 6 3 -1 5 -18 5 -16 0 -22 -2 -12 -5z"/>
<path d="M6305 3360 c27 -12 43 -12 25 0 -8 5 -22 9 -30 9 -10 0 -8 -3 5 -9z"/>
<path d="M6858 3363 c18 -2 45 -2 60 0 15 2 0 4 -33 4 -33 0 -45 -2 -27 -4z"/>
<path d="M6328 3323 c7 -3 16 -2 19 1 4 3 -2 6 -13 5 -11 0 -14 -3 -6 -6z"/>
<path d="M7990 3260 c-9 -6 -10 -10 -3 -10 6 0 15 5 18 10 8 12 4 12 -15 0z"/>
<path d="M7785 3234 c33 -7 74 -13 90 -12 17 0 -1 6 -40 14 -91 17 -128 16
-50 -2z"/>
<path d="M6478 3193 c7 -3 16 -2 19 1 4 3 -2 6 -13 5 -11 0 -14 -3 -6 -6z"/>
<path d="M6510 3187 c10 -10 192 -37 240 -36 29 1 10 6 -55 14 -55 7 -120 15
-145 20 -25 4 -43 5 -40 2z"/>
<path d="M7165 3150 c3 -5 32 -10 63 -9 41 0 51 3 37 9 -29 12 -108 12 -100 0z"/>
<path d="M7165 3089 c-14 -7 -5 -8 33 -5 31 3 71 0 95 -8 23 -8 54 -17 69 -20
14 -3 34 -9 45 -12 10 -3 -5 8 -34 25 -45 27 -61 31 -120 30 -37 0 -77 -5 -88
-10z"/>
<path d="M2891 3044 c0 -11 3 -14 6 -6 3 7 2 16 -1 19 -3 4 -6 -2 -5 -13z"/>
<path d="M7240 3051 l-45 -6 65 -8 c36 -4 89 -11 118 -16 72 -10 75 3 4 18
-82 18 -92 19 -142 12z"/>
<path d="M7282 2985 c43 -9 81 -24 104 -42 23 -17 36 -22 33 -13 -8 27 -108
70 -158 69 -45 -1 -45 -1 21 -14z"/>
<path d="M8225 2955 c-39 -32 -28 -32 15 0 19 14 30 25 24 25 -5 0 -22 -11
-39 -25z"/>
<path d="M2903 2915 c0 -27 2 -38 4 -22 2 15 2 37 0 50 -2 12 -4 0 -4 -28z"/>
<path d="M7230 2940 c36 -4 90 -17 120 -29 66 -25 66 -25 49 -4 -25 29 -76 43
-156 42 l-78 -2 65 -7z"/>
<path d="M2841 2924 c0 -11 3 -14 6 -6 3 7 2 16 -1 19 -3 4 -6 -2 -5 -13z"/>
<path d="M7420 2905 c0 -5 5 -17 10 -25 5 -8 10 -10 10 -5 0 6 -5 17 -10 25
-5 8 -10 11 -10 5z"/>
<path d="M7112 2891 c-53 -14 -51 -24 3 -14 76 12 122 8 213 -21 94 -29 92
-29 92 -17 0 5 -24 19 -52 31 -58 25 -196 36 -256 21z"/>
<path d="M2912 2835 c0 -16 2 -22 5 -12 2 9 2 23 0 30 -3 6 -5 -1 -5 -18z"/>
<path d="M6703 2853 c9 -2 25 -2 35 0 9 3 1 5 -18 5 -19 0 -27 -2 -17 -5z"/>
<path d="M7192 2834 c31 -7 72 -23 90 -34 35 -20 104 -97 95 -106 -2 -3 -12 7
-21 21 -9 13 -33 33 -54 43 -47 24 -131 47 -139 38 -3 -3 2 -6 13 -6 10 0 39
-14 64 -30 41 -27 43 -30 20 -31 -20 0 -16 -3 15 -13 22 -7 55 -21 74 -30 24
-13 36 -15 44 -7 15 15 -25 93 -64 126 -30 24 -108 46 -162 44 -26 -1 -21 -4
25 -15z"/>
<path d="M7128 2803 c7 -3 16 -2 19 1 4 3 -2 6 -13 5 -11 0 -14 -3 -6 -6z"/>
<path d="M2922 2780 c0 -14 2 -19 5 -12 2 6 2 18 0 25 -3 6 -5 1 -5 -13z"/>
<path d="M3181 2720 c0 -8 4 -24 9 -35 5 -13 9 -14 9 -5 0 8 -4 24 -9 35 -5
13 -9 14 -9 5z"/>
<path d="M7195 2636 c17 -9 35 -15 41 -16 16 0 104 -79 105 -93 0 -7 11 -34
24 -62 l24 -50 -6 45 c-6 53 -40 130 -56 130 -7 0 -6 4 2 9 20 13 -49 41 -114
47 -50 4 -50 4 -20 -10z"/>
<path d="M6990 2580 c-14 -4 11 -5 55 -2 150 9 228 -33 284 -154 23 -48 34
-57 27 -21 -3 12 -7 38 -11 58 -7 43 -44 85 -100 110 -30 14 -63 18 -135 18
-52 -1 -106 -4 -120 -9z"/>
<path d="M7155 2506 c86 -15 107 -26 135 -71 27 -44 38 -39 15 7 -36 70 -50
78 -139 77 l-81 -2 70 -11z"/>
<path d="M7813 2455 c0 -27 2 -38 4 -22 2 15 2 37 0 50 -2 12 -4 0 -4 -28z"/>
<path d="M3482 2450 c12 -17 23 -30 25 -30 8 0 -22 50 -33 54 -9 3 -5 -7 8
-24z"/>
<path d="M3206 2457 c3 -10 9 -15 12 -12 3 3 0 11 -7 18 -10 9 -11 8 -5 -6z"/>
<path d="M3330 2450 c6 -11 13 -20 16 -20 2 0 0 9 -6 20 -6 11 -13 20 -16 20
-2 0 0 -9 6 -20z"/>
<path d="M7150 2450 c69 -9 102 -26 135 -70 29 -40 34 -29 6 16 -25 42 -77 64
-143 63 l-53 -2 55 -7z"/>
<path d="M3280 2447 c0 -16 49 -104 67 -118 17 -13 17 -13 0 11 -9 14 -28 45
-42 70 -13 25 -24 41 -25 37z"/>
<path d="M7080 2425 l55 -13 -64 -1 c-93 -1 -70 -10 32 -12 48 -1 83 -5 77 -9
-7 -4 3 -13 22 -20 18 -7 48 -27 66 -44 47 -44 62 -22 22 33 -43 59 -95 81
-190 80 l-75 -1 55 -13z"/>
<path d="M6978 2423 c6 -2 18 -2 25 0 6 3 1 5 -13 5 -14 0 -19 -2 -12 -5z"/>
<path d="M3369 2385 c44 -91 194 -261 263 -298 29 -16 30 -16 8 0 -14 9 -59
51 -101 93 -66 64 -94 100 -177 226 -7 10 -4 1 7 -21z"/>
<path d="M3226 2367 c3 -10 9 -15 12 -12 3 3 0 11 -7 18 -10 9 -11 8 -5 -6z"/>
<path d="M7177 2345 c17 -8 41 -29 54 -46 21 -29 23 -30 30 -13 11 27 10 34
-2 34 -5 0 -7 -6 -3 -12 4 -7 -6 -1 -22 14 -16 15 -42 29 -59 32 l-30 6 32
-15z"/>
<path d="M7602 2305 c0 -16 2 -22 5 -12 2 9 2 23 0 30 -3 6 -5 -1 -5 -18z"/>
<path d="M3375 2290 c10 -11 20 -20 23 -20 3 0 -3 9 -13 20 -10 11 -20 20 -23
20 -3 0 3 -9 13 -20z"/>
<path d="M6553 2283 c9 -2 23 -2 30 0 6 3 -1 5 -18 5 -16 0 -22 -2 -12 -5z"/>
<path d="M3557 2234 c66 -80 147 -165 168 -176 10 -6 -30 41 -90 106 -60 64
-111 116 -113 116 -2 0 14 -21 35 -46z"/>
<path d="M6643 2273 c15 -2 37 -2 50 0 12 2 0 4 -28 4 -27 0 -38 -2 -22 -4z"/>
<path d="M3400 2257 c0 -3 19 -20 43 -38 23 -19 36 -26 28 -16 -16 20 -71 61
-71 54z"/>
<path d="M4775 2240 c10 -11 20 -20 23 -20 3 0 -3 9 -13 20 -10 11 -20 20 -23
20 -3 0 3 -9 13 -20z"/>
<path d="M3635 2230 c10 -11 20 -20 23 -20 3 0 -3 9 -13 20 -10 11 -20 20 -23
20 -3 0 3 -9 13 -20z"/>
<path d="M4030 2226 c0 -2 8 -10 18 -17 15 -13 16 -12 3 4 -13 16 -21 21 -21
13z"/>
<path d="M5460 2090 c8 -5 22 -9 30 -9 10 0 8 3 -5 9 -27 12 -43 12 -25 0z"/>
<path d="M6423 2093 c9 -2 25 -2 35 0 9 3 1 5 -18 5 -19 0 -27 -2 -17 -5z"/>
<path d="M5520 2070 c8 -5 20 -10 25 -10 6 0 3 5 -5 10 -8 5 -19 10 -25 10 -5
0 -3 -5 5 -10z"/>
<path d="M6143 2073 c9 -2 23 -2 30 0 6 3 -1 5 -18 5 -16 0 -22 -2 -12 -5z"/>
<path d="M6223 2063 c9 -2 23 -2 30 0 6 3 -1 5 -18 5 -16 0 -22 -2 -12 -5z"/>
<path d="M5040 2056 c0 -3 14 -12 30 -21 17 -9 30 -13 30 -11 0 3 -13 12 -30
21 -16 9 -30 13 -30 11z"/>
<path d="M6158 1983 c12 -2 32 -2 45 0 12 2 2 4 -23 4 -25 0 -35 -2 -22 -4z"/>
<path d="M6278 1983 c6 -2 18 -2 25 0 6 3 1 5 -13 5 -14 0 -19 -2 -12 -5z"/>
<path d="M4200 1959 c26 -17 70 -40 70 -35 0 5 -69 46 -78 46 -4 0 0 -5 8 -11z"/>
<path d="M5948 1963 c6 -2 18 -2 25 0 6 3 1 5 -13 5 -14 0 -19 -2 -12 -5z"/>
<path d="M4710 1941 c32 -26 213 -121 231 -121 7 0 -32 23 -87 51 -54 28 -115
60 -134 71 l-35 20 25 -21z"/>
<path d="M6268 1953 c12 -2 30 -2 40 0 9 3 -1 5 -23 4 -22 0 -30 -2 -17 -4z"/>
<path d="M5278 1923 c7 -3 16 -2 19 1 4 3 -2 6 -13 5 -11 0 -14 -3 -6 -6z"/>
<path d="M5885 1919 c39 -8 242 -13 234 -5 -2 2 -65 6 -139 8 -82 3 -119 2
-95 -3z"/>
<path d="M4331 1886 c10 -9 69 -36 69 -32 0 6 -55 36 -66 36 -4 0 -5 -2 -3 -4z"/>
<path d="M5370 1882 c18 -12 163 -42 194 -41 11 0 -15 8 -59 18 -138 30 -151
33 -135 23z"/>
<path d="M6278 1883 c7 -3 16 -2 19 1 4 3 -2 6 -13 5 -11 0 -14 -3 -6 -6z"/>
<path d="M6048 1843 c17 -2 47 -2 65 0 17 2 3 4 -33 4 -36 0 -50 -2 -32 -4z"/>
<path d="M4398 1833 c7 -3 16 -2 19 1 4 3 -2 6 -13 5 -11 0 -14 -3 -6 -6z"/>
<path d="M5633 1833 c26 -2 67 -2 90 0 23 2 2 3 -48 3 -49 0 -68 -1 -42 -3z"/>
<path d="M5803 1833 c15 -2 37 -2 50 0 12 2 0 4 -28 4 -27 0 -38 -2 -22 -4z"/>
<path d="M5948 1835 c-3 -3 -34 -10 -69 -14 -48 -6 -54 -9 -24 -9 22 0 67 5
100 13 43 9 51 14 29 14 -17 1 -33 -1 -36 -4z"/>
<path d="M4956 1811 c-3 -4 0 -8 7 -8 7 0 35 -3 62 -6 30 -4 40 -3 25 2 -47
15 -89 20 -94 12z"/>
<path d="M5093 1783 c9 -2 25 -2 35 0 9 3 1 5 -18 5 -19 0 -27 -2 -17 -5z"/>
<path d="M5193 1773 c15 -2 37 -2 50 0 12 2 0 4 -28 4 -27 0 -38 -2 -22 -4z"/>
<path d="M3883 7465 c0 -33 2 -45 4 -27 2 18 2 45 0 60 -2 15 -4 0 -4 -33z"/>
<path d="M3407 7423 c-35 -156 -108 -302 -210 -425 -64 -77 -47 -78 24 -1 79
85 166 247 188 351 13 63 25 152 19 152 -2 0 -11 -35 -21 -77z"/>
<path d="M3891 7383 c-1 -26 19 -126 25 -121 2 2 -3 35 -10 74 -8 38 -15 59
-15 47z"/>
<path d="M3640 7277 c-75 -40 -121 -159 -66 -173 28 -7 90 23 124 59 42 44 40
137 -3 137 -6 0 -31 -10 -55 -23z m30 -45 c0 -12 -72 -74 -78 -67 -3 3 10 21
28 40 33 34 50 43 50 27z"/>
<path d="M3921 7243 c-2 -23 39 -119 84 -197 24 -43 41 -84 38 -90 -10 -16
-61 -57 -93 -75 -150 -87 -230 -128 -450 -229 -164 -75 -350 -122 -487 -122
-102 0 -144 13 -226 68 -37 25 -70 43 -72 40 -8 -8 65 -76 101 -93 131 -62
442 -26 674 78 25 11 72 32 106 47 149 68 376 202 453 268 37 33 37 30 -17
101 -35 47 -76 122 -98 181 -7 19 -13 30 -13 23z"/>
<path d="M3477 7192 c-31 -18 -60 -47 -87 -86 -21 -33 -37 -63 -35 -66 10 -16
55 4 87 38 37 40 103 142 90 142 -4 0 -28 -13 -55 -28z"/>
<path d="M8145 4700 c28 -12 37 -12 30 0 -3 6 -16 10 -28 9 -21 0 -21 -1 -2
-9z"/>
<path d="M8073 4693 c9 -2 25 -2 35 0 9 3 1 5 -18 5 -19 0 -27 -2 -17 -5z"/>
<path d="M8304 4554 c-18 -14 -18 -15 4 -4 12 6 22 13 22 15 0 8 -5 6 -26 -11z"/>
<path d="M7070 2155 c0 -5 5 -17 10 -25 5 -8 10 -10 10 -5 0 6 -5 17 -10 25
-5 8 -10 11 -10 5z"/>
<path d="M7006 2087 c3 -10 9 -15 12 -12 3 3 0 11 -7 18 -10 9 -11 8 -5 -6z"/>
<path d="M6678 1382 c-30 -18 -39 -39 -10 -23 28 16 58 40 47 40 -5 -1 -22 -8
-37 -17z"/>
<path d="M6424 1194 c-18 -14 -18 -15 4 -4 12 6 22 13 22 15 0 8 -5 6 -26 -11z"/>
<path d="M6340 1150 c-19 -11 -31 -19 -27 -20 11 0 67 29 67 35 0 7 -1 7 -40
-15z"/>
<path d="M4185 1525 c-38 -8 -101 -18 -140 -24 l-70 -10 75 5 c86 6 188 23
210 35 19 10 12 10 -75 -6z"/>
<path d="M3928 1483 c7 -3 16 -2 19 1 4 3 -2 6 -13 5 -11 0 -14 -3 -6 -6z"/>
<path d="M4143 1483 c9 -2 23 -2 30 0 6 3 -1 5 -18 5 -16 0 -22 -2 -12 -5z"/>
<path d="M4065 1455 c-55 -7 -156 -14 -225 -16 l-125 -3 95 -4 c99 -4 330 14
365 29 26 10 13 9 -110 -6z"/>
<path d="M6285 1350 c-13 -6 -15 -9 -5 -9 8 0 22 4 30 9 18 12 2 12 -25 0z"/>
<path d="M6355 1305 c-16 -8 -23 -14 -15 -14 8 0 26 6 40 14 32 18 15 18 -25
0z"/>
<path d="M5918 1243 c12 -2 30 -2 40 0 9 3 -1 5 -23 4 -22 0 -30 -2 -17 -4z"/>
<path d="M6198 1243 c7 -3 16 -2 19 1 4 3 -2 6 -13 5 -11 0 -14 -3 -6 -6z"/>
<path d="M4280 1300 c-9 -6 -10 -10 -3 -10 6 0 15 5 18 10 8 12 4 12 -15 0z"/>
<path d="M1650 2590 c8 -5 24 -10 34 -10 26 0 18 6 -19 14 -22 5 -26 4 -15 -4z"/>
<path d="M1796 2581 c-3 -5 -25 -7 -49 -5 l-42 3 40 -9 c22 -6 54 -12 70 -14
17 -2 22 -1 13 1 -10 2 -18 8 -18 13 0 5 55 11 123 13 l122 3 -127 2 c-70 1
-129 -2 -132 -7z"/>
<path d="M2078 2573 c6 -2 18 -2 25 0 6 3 1 5 -13 5 -14 0 -19 -2 -12 -5z"/>
<path d="M2000 2550 l-145 -6 142 -2 c86 -1 144 2 148 8 3 6 5 9 3 8 -2 -1
-68 -5 -148 -8z"/>
<path d="M2633 2433 c15 -2 37 -2 50 0 12 2 0 4 -28 4 -27 0 -38 -2 -22 -4z"/>
<path d="M2370 2420 l-75 -6 80 -1 c44 0 114 3 155 7 l75 7 -80 0 c-44 -1
-114 -3 -155 -7z"/>
<path d="M2783 2413 c15 -2 39 -2 55 0 15 2 2 4 -28 4 -30 0 -43 -2 -27 -4z"/>
<path d="M2187 2403 c18 -2 50 -2 70 0 21 2 7 4 -32 4 -38 0 -55 -2 -38 -4z"/>
<path d="M2073 2393 c15 -2 39 -2 55 0 15 2 2 4 -28 4 -30 0 -43 -2 -27 -4z"/>
<path d="M2608 2393 c7 -3 16 -2 19 1 4 3 -2 6 -13 5 -11 0 -14 -3 -6 -6z"/>
<path d="M1983 2383 c9 -2 25 -2 35 0 9 3 1 5 -18 5 -19 0 -27 -2 -17 -5z"/>
<path d="M2888 2383 c6 -2 18 -2 25 0 6 3 1 5 -13 5 -14 0 -19 -2 -12 -5z"/>
<path d="M1923 2373 c9 -2 23 -2 30 0 6 3 -1 5 -18 5 -16 0 -22 -2 -12 -5z"/>
<path d="M1878 2363 c7 -3 16 -2 19 1 4 3 -2 6 -13 5 -11 0 -14 -3 -6 -6z"/>
<path d="M8142 2353 c48 -2 129 -2 180 0 51 1 12 3 -87 3 -99 0 -141 -2 -93
-3z"/>
<path d="M8524 2346 c-8 -21 -6 -23 31 -30 l30 -6 -27 11 c-55 21 -26 29 105
29 139 0 204 -10 218 -32 6 -9 9 -10 9 -1 0 28 -47 37 -202 41 -140 4 -159 2
-164 -12z"/>
<path d="M1753 2343 c9 -2 23 -2 30 0 6 3 -1 5 -18 5 -16 0 -22 -2 -12 -5z"/>
<path d="M1705 2330 c-3 -6 1 -7 9 -4 18 7 21 14 7 14 -6 0 -13 -4 -16 -10z"/>
<path d="M1628 2303 c12 -2 32 -2 45 0 12 2 2 4 -23 4 -25 0 -35 -2 -22 -4z"/>
<path d="M8652 2303 c37 -2 100 -2 140 0 40 1 10 3 -67 3 -77 0 -110 -1 -73
-3z"/>
<path d="M1550 2290 c-18 -12 -2 -12 25 0 13 6 15 9 5 9 -8 0 -22 -4 -30 -9z"/>
<path d="M1405 2259 c-201 -16 -315 -46 -315 -84 0 -8 10 -20 23 -26 21 -11
21 -11 6 7 -35 40 -5 54 177 80 60 8 162 15 227 15 65 1 117 2 115 4 -11 9
-140 11 -233 4z"/>
<path d="M1883 2253 c9 -2 23 -2 30 0 6 3 -1 5 -18 5 -16 0 -22 -2 -12 -5z"/>
<path d="M1651 2246 c2 -2 67 -6 144 -8 85 -4 121 -3 90 2 -50 8 -242 13 -234
6z"/>
<path d="M1951 2246 c2 -2 103 -6 224 -8 139 -4 181 -3 115 2 -113 8 -346 12
-339 6z"/>
<path d="M2498 2243 c7 -3 16 -2 19 1 4 3 -2 6 -13 5 -11 0 -14 -3 -6 -6z"/>
<path d="M1963 2223 c9 -2 23 -2 30 0 6 3 -1 5 -18 5 -16 0 -22 -2 -12 -5z"/>
<path d="M2693 2213 c9 -2 25 -2 35 0 9 3 1 5 -18 5 -19 0 -27 -2 -17 -5z"/>
<path d="M2133 2203 c9 -2 23 -2 30 0 6 3 -1 5 -18 5 -16 0 -22 -2 -12 -5z"/>
<path d="M2800 2201 c79 -12 236 -21 185 -11 -22 4 -85 10 -140 13 -73 4 -85
4 -45 -2z"/>
<path d="M2248 2193 c12 -2 30 -2 40 0 9 3 -1 5 -23 4 -22 0 -30 -2 -17 -4z"/>
<path d="M2375 2179 c22 -4 51 -8 65 -7 16 0 11 3 -15 9 -22 4 -51 8 -65 7
-16 0 -11 -3 15 -9z"/>
<path d="M2470 2169 c0 -3 39 -9 88 -13 48 -3 130 -11 182 -16 52 -5 129 -9
170 -8 62 1 66 2 20 5 -30 2 -131 10 -225 19 -207 20 -235 21 -235 13z"/>
<path d="M3108 2173 c12 -2 32 -2 45 0 12 2 2 4 -23 4 -25 0 -35 -2 -22 -4z"/>
<path d="M1150 2130 c8 -5 22 -9 30 -9 10 0 8 3 -5 9 -27 12 -43 12 -25 0z"/>
<path d="M8148 2123 c12 -2 30 -2 40 0 9 3 -1 5 -23 4 -22 0 -30 -2 -17 -4z"/>
<path d="M8258 2123 c28 -2 76 -2 105 0 28 2 5 3 -53 3 -58 0 -81 -1 -52 -3z"/>
<path d="M1208 2113 c7 -3 16 -2 19 1 4 3 -2 6 -13 5 -11 0 -14 -3 -6 -6z"/>
<path d="M8441 2116 c2 -2 58 -6 124 -9 82 -4 101 -3 60 3 -63 8 -191 13 -184
6z"/>
<path d="M1248 2103 c6 -2 18 -2 25 0 6 3 1 5 -13 5 -14 0 -19 -2 -12 -5z"/>
<path d="M1298 2093 c6 -2 18 -2 25 0 6 3 1 5 -13 5 -14 0 -19 -2 -12 -5z"/>
<path d="M8760 2083 c41 -8 98 -16 125 -18 28 -2 37 -1 20 1 -16 3 -57 11 -91
19 -33 8 -76 15 -95 14 -23 -1 -11 -6 41 -16z"/>
<path d="M1353 2083 c9 -2 23 -2 30 0 6 3 -1 5 -18 5 -16 0 -22 -2 -12 -5z"/>
<path d="M1435 2069 c22 -4 51 -8 65 -7 16 0 11 3 -15 9 -22 4 -51 8 -65 7
-16 0 -11 -3 15 -9z"/>
<path d="M1543 2053 c9 -2 25 -2 35 0 9 3 1 5 -18 5 -19 0 -27 -2 -17 -5z"/>
<path d="M8140 2044 l-65 -13 57 4 c31 3 67 9 80 14 31 13 6 11 -72 -5z"/>
<path d="M8963 2053 c9 -2 25 -2 35 0 9 3 1 5 -18 5 -19 0 -27 -2 -17 -5z"/>
<path d="M1618 2043 c12 -2 32 -2 45 0 12 2 2 4 -23 4 -25 0 -35 -2 -22 -4z"/>
<path d="M9104 2030 c49 -11 91 -18 93 -16 5 5 -81 24 -139 31 -24 2 -3 -4 46
-15z"/>
<path d="M1708 2033 c12 -2 30 -2 40 0 9 3 -1 5 -23 4 -22 0 -30 -2 -17 -4z"/>
<path d="M8810 2015 c-19 -14 -30 -25 -25 -25 6 0 24 11 40 25 39 31 30 31
-15 0z"/>
<path d="M1798 2023 c12 -2 32 -2 45 0 12 2 2 4 -23 4 -25 0 -35 -2 -22 -4z"/>
<path d="M8023 2023 c9 -2 25 -2 35 0 9 3 1 5 -18 5 -19 0 -27 -2 -17 -5z"/>
<path d="M1898 2013 c12 -2 32 -2 45 0 12 2 2 4 -23 4 -25 0 -35 -2 -22 -4z"/>
<path d="M7938 2013 c12 -2 30 -2 40 0 9 3 -1 5 -23 4 -22 0 -30 -2 -17 -4z"/>
<path d="M2013 2003 c15 -2 39 -2 55 0 15 2 2 4 -28 4 -30 0 -43 -2 -27 -4z"/>
<path d="M7828 2003 c12 -2 32 -2 45 0 12 2 2 4 -23 4 -25 0 -35 -2 -22 -4z"/>
<path d="M2137 1993 c18 -2 50 -2 70 0 21 2 7 4 -32 4 -38 0 -55 -2 -38 -4z"/>
<path d="M7728 1993 c12 -2 30 -2 40 0 9 3 -1 5 -23 4 -22 0 -30 -2 -17 -4z"/>
<path d="M9247 1982 c3 -12 -4 -23 -19 -30 -24 -13 -13 -10 51 13 l33 12 -32
12 c-41 14 -39 14 -33 -7z"/>
<path d="M2348 1983 c18 -2 45 -2 60 0 15 2 0 4 -33 4 -33 0 -45 -2 -27 -4z"/>
<path d="M8690 1970 c-36 -10 -58 -18 -50 -19 18 -1 120 26 128 33 8 9 -6 6
-78 -14z"/>
<path d="M2478 1969 c-10 -5 -18 -15 -18 -21 0 -6 6 -5 16 3 9 7 34 16 57 20
l42 6 -40 1 c-22 1 -48 -3 -57 -9z"/>
<path d="M2708 1973 c12 -2 30 -2 40 0 9 3 -1 5 -23 4 -22 0 -30 -2 -17 -4z"/>
<path d="M2778 1963 c7 -3 16 -2 19 1 4 3 -2 6 -13 5 -11 0 -14 -3 -6 -6z"/>
<path d="M3013 1963 c43 -2 110 -2 150 0 40 1 5 3 -78 3 -82 0 -115 -2 -72 -3z"/>
<path d="M2796 1943 c-4 -5 -76 -11 -159 -14 l-152 -5 145 -1 c100 -1 156 3
180 12 25 10 29 14 14 14 -11 1 -24 -2 -28 -6z"/>
<path d="M8583 1943 c9 -2 23 -2 30 0 6 3 -1 5 -18 5 -16 0 -22 -2 -12 -5z"/>
<path d="M8513 1933 c9 -2 25 -2 35 0 9 3 1 5 -18 5 -19 0 -27 -2 -17 -5z"/>
<path d="M9144 1929 c-17 -5 -77 -15 -135 -23 -57 -8 -88 -14 -69 -15 43 -1
208 25 241 38 30 12 4 12 -37 0z"/>
<path d="M9340 1931 c0 -6 4 -13 10 -16 6 -3 7 1 4 9 -7 18 -14 21 -14 7z"/>
<path d="M8428 1923 c12 -2 32 -2 45 0 12 2 2 4 -23 4 -25 0 -35 -2 -22 -4z"/>
<path d="M8348 1913 c12 -2 30 -2 40 0 9 3 -1 5 -23 4 -22 0 -30 -2 -17 -4z"/>
<path d="M8263 1903 c9 -2 25 -2 35 0 9 3 1 5 -18 5 -19 0 -27 -2 -17 -5z"/>
<path d="M8178 1893 c12 -2 32 -2 45 0 12 2 2 4 -23 4 -25 0 -35 -2 -22 -4z"/>
<path d="M8108 1883 c6 -2 18 -2 25 0 6 3 1 5 -13 5 -14 0 -19 -2 -12 -5z"/>
<path d="M8823 1883 c15 -2 39 -2 55 0 15 2 2 4 -28 4 -30 0 -43 -2 -27 -4z"/>
<path d="M8683 1873 c20 -2 54 -2 75 0 20 2 3 4 -38 4 -41 0 -58 -2 -37 -4z"/>
<path d="M8527 1863 c18 -2 50 -2 70 0 21 2 7 4 -32 4 -38 0 -55 -2 -38 -4z"/>
<path d="M9280 1844 c-24 -13 -39 -24 -32 -24 15 0 92 38 92 45 0 8 -13 4 -60
-21z"/>
<path d="M8373 1853 c20 -2 54 -2 75 0 20 2 3 4 -38 4 -41 0 -58 -2 -37 -4z"/>
<path d="M8163 1843 c32 -2 81 -2 110 0 29 2 3 3 -58 3 -60 0 -84 -1 -52 -3z"/>
<path d="M3208 1823 c12 -2 30 -2 40 0 9 3 -1 5 -23 4 -22 0 -30 -2 -17 -4z"/>
<path d="M3113 1813 c15 -2 37 -2 50 0 12 2 0 4 -28 4 -27 0 -38 -2 -22 -4z"/>
<path d="M9175 1810 c-27 -7 -28 -8 -5 -8 14 0 34 3 45 8 25 11 2 11 -40 0z"/>
<path d="M3008 1803 c12 -2 32 -2 45 0 12 2 2 4 -23 4 -25 0 -35 -2 -22 -4z"/>
<path d="M2913 1793 c15 -2 37 -2 50 0 12 2 0 4 -28 4 -27 0 -38 -2 -22 -4z"/>
<path d="M3723 1793 c26 -2 68 -2 95 0 26 2 4 3 -48 3 -52 0 -74 -1 -47 -3z"/>
<path d="M9093 1793 c9 -2 25 -2 35 0 9 3 1 5 -18 5 -19 0 -27 -2 -17 -5z"/>
<path d="M2823 1783 c9 -2 23 -2 30 0 6 3 -1 5 -18 5 -16 0 -22 -2 -12 -5z"/>
<path d="M9008 1783 c12 -2 32 -2 45 0 12 2 2 4 -23 4 -25 0 -35 -2 -22 -4z"/>
<path d="M2668 1773 c12 -2 32 -2 45 0 12 2 2 4 -23 4 -25 0 -35 -2 -22 -4z"/>
<path d="M3308 1773 c6 -2 18 -2 25 0 6 3 1 5 -13 5 -14 0 -19 -2 -12 -5z"/>
<path d="M2518 1763 c12 -2 32 -2 45 0 12 2 2 4 -23 4 -25 0 -35 -2 -22 -4z"/>
<path d="M2398 1753 c12 -2 30 -2 40 0 9 3 -1 5 -23 4 -22 0 -30 -2 -17 -4z"/>
<path d="M2283 1743 c9 -2 23 -2 30 0 6 3 -1 5 -18 5 -16 0 -22 -2 -12 -5z"/>
<path d="M2148 1733 c12 -2 30 -2 40 0 9 3 -1 5 -23 4 -22 0 -30 -2 -17 -4z"/>
<path d="M2043 1723 c9 -2 23 -2 30 0 6 3 -1 5 -18 5 -16 0 -22 -2 -12 -5z"/>
<path d="M1943 1713 c9 -2 23 -2 30 0 6 3 -1 5 -18 5 -16 0 -22 -2 -12 -5z"/>
<path d="M1843 1703 c9 -2 25 -2 35 0 9 3 1 5 -18 5 -19 0 -27 -2 -17 -5z"/>
<path d="M1763 1693 c9 -2 25 -2 35 0 9 3 1 5 -18 5 -19 0 -27 -2 -17 -5z"/>
<path d="M1683 1683 c9 -2 23 -2 30 0 6 3 -1 5 -18 5 -16 0 -22 -2 -12 -5z"/>
<path d="M1613 1673 c9 -2 23 -2 30 0 6 3 -1 5 -18 5 -16 0 -22 -2 -12 -5z"/>
<path d="M1543 1663 c9 -2 23 -2 30 0 6 3 -1 5 -18 5 -16 0 -22 -2 -12 -5z"/>
<path d="M1473 1653 c9 -2 23 -2 30 0 6 3 -1 5 -18 5 -16 0 -22 -2 -12 -5z"/>
<path d="M1418 1643 c7 -3 16 -2 19 1 4 3 -2 6 -13 5 -11 0 -14 -3 -6 -6z"/>
<path d="M2948 1643 c6 -2 18 -2 25 0 6 3 1 5 -13 5 -14 0 -19 -2 -12 -5z"/>
<path d="M1368 1633 c7 -3 16 -2 19 1 4 3 -2 6 -13 5 -11 0 -14 -3 -6 -6z"/>
<path d="M2298 1633 c7 -3 16 -2 19 1 4 3 -2 6 -13 5 -11 0 -14 -3 -6 -6z"/>
<path d="M2670 1624 l-105 -13 95 6 c52 3 129 9 170 13 l75 7 -65 0 c-36 0
-112 -6 -170 -13z"/>
<path d="M1308 1623 c6 -2 18 -2 25 0 6 3 1 5 -13 5 -14 0 -19 -2 -12 -5z"/>
<path d="M1220 1610 c-20 -6 -21 -8 -5 -8 11 0 34 4 50 8 27 7 27 8 5 8 -14 0
-36 -4 -50 -8z"/>
<path d="M2093 1613 c9 -2 23 -2 30 0 6 3 -1 5 -18 5 -16 0 -22 -2 -12 -5z"/>
<path d="M7468 1613 c6 -2 18 -2 25 0 6 3 1 5 -13 5 -14 0 -19 -2 -12 -5z"/>
<path d="M2018 1603 c6 -2 18 -2 25 0 6 3 1 5 -13 5 -14 0 -19 -2 -12 -5z"/>
<path d="M2503 1603 c9 -2 25 -2 35 0 9 3 1 5 -18 5 -19 0 -27 -2 -17 -5z"/>
<path d="M3123 1603 c9 -2 25 -2 35 0 9 3 1 5 -18 5 -19 0 -27 -2 -17 -5z"/>
<path d="M7568 1603 c18 -2 45 -2 60 0 15 2 0 4 -33 4 -33 0 -45 -2 -27 -4z"/>
<path d="M1095 1582 c-33 -8 -55 -17 -50 -18 6 -2 42 5 80 15 39 11 61 19 50
19 -11 0 -47 -7 -80 -16z"/>
<path d="M2433 1593 c9 -2 23 -2 30 0 6 3 -1 5 -18 5 -16 0 -22 -2 -12 -5z"/>
<path d="M3033 1593 c9 -2 25 -2 35 0 9 3 1 5 -18 5 -19 0 -27 -2 -17 -5z"/>
<path d="M6243 1593 c9 -2 23 -2 30 0 6 3 -1 5 -18 5 -16 0 -22 -2 -12 -5z"/>
<path d="M7698 1593 c12 -2 32 -2 45 0 12 2 2 4 -23 4 -25 0 -35 -2 -22 -4z"/>
<path d="M1838 1583 c6 -2 18 -2 25 0 6 3 1 5 -13 5 -14 0 -19 -2 -12 -5z"/>
<path d="M2363 1583 c9 -2 23 -2 30 0 6 3 -1 5 -18 5 -16 0 -22 -2 -12 -5z"/>
<path d="M2943 1583 c9 -2 25 -2 35 0 9 3 1 5 -18 5 -19 0 -27 -2 -17 -5z"/>
<path d="M5365 1580 c27 -12 43 -12 25 0 -8 5 -22 9 -30 9 -10 0 -8 -3 5 -9z"/>
<path d="M6338 1583 c6 -2 18 -2 25 0 6 3 1 5 -13 5 -14 0 -19 -2 -12 -5z"/>
<path d="M7781 1586 c2 -2 31 -6 64 -9 39 -4 50 -3 30 2 -31 9 -102 14 -94 7z"/>
<path d="M1778 1573 c6 -2 18 -2 25 0 6 3 1 5 -13 5 -14 0 -19 -2 -12 -5z"/>
<path d="M2308 1573 c6 -2 18 -2 25 0 6 3 1 5 -13 5 -14 0 -19 -2 -12 -5z"/>
<path d="M2873 1573 c9 -2 23 -2 30 0 6 3 -1 5 -18 5 -16 0 -22 -2 -12 -5z"/>
<path d="M1718 1563 c6 -2 18 -2 25 0 6 3 1 5 -13 5 -14 0 -19 -2 -12 -5z"/>
<path d="M2258 1563 c6 -2 18 -2 25 0 6 3 1 5 -13 5 -14 0 -19 -2 -12 -5z"/>
<path d="M2808 1563 c6 -2 18 -2 25 0 6 3 1 5 -13 5 -14 0 -19 -2 -12 -5z"/>
<path d="M5426 1555 c10 -8 24 -14 29 -14 6 0 1 6 -9 14 -11 8 -24 15 -30 15
-5 0 -1 -7 10 -15z"/>
<path d="M7923 1563 c9 -2 23 -2 30 0 6 3 -1 5 -18 5 -16 0 -22 -2 -12 -5z"/>
<path d="M1668 1553 c7 -3 16 -2 19 1 4 3 -2 6 -13 5 -11 0 -14 -3 -6 -6z"/>
<path d="M2208 1553 c6 -2 18 -2 25 0 6 3 1 5 -13 5 -14 0 -19 -2 -12 -5z"/>
<path d="M2748 1553 c6 -2 18 -2 25 0 6 3 1 5 -13 5 -14 0 -19 -2 -12 -5z"/>
<path d="M7608 1553 c7 -3 16 -2 19 1 4 3 -2 6 -13 5 -11 0 -14 -3 -6 -6z"/>
<path d="M7978 1553 c7 -3 16 -2 19 1 4 3 -2 6 -13 5 -11 0 -14 -3 -6 -6z"/>
<path d="M955 1535 c-25 -12 -26 -14 -5 -9 28 7 60 23 45 23 -5 0 -23 -6 -40
-14z"/>
<path d="M2168 1543 c7 -3 16 -2 19 1 4 3 -2 6 -13 5 -11 0 -14 -3 -6 -6z"/>
<path d="M2688 1543 c6 -2 18 -2 25 0 6 3 1 5 -13 5 -14 0 -19 -2 -12 -5z"/>
<path d="M7648 1543 c7 -3 16 -2 19 1 4 3 -2 6 -13 5 -11 0 -14 -3 -6 -6z"/>
<path d="M8018 1543 c6 -2 18 -2 25 0 6 3 1 5 -13 5 -14 0 -19 -2 -12 -5z"/>
<path d="M2633 1533 c9 -2 23 -2 30 0 6 3 -1 5 -18 5 -16 0 -22 -2 -12 -5z"/>
<path d="M7695 1530 c27 -12 43 -12 25 0 -8 5 -22 9 -30 9 -10 0 -8 -3 5 -9z"/>
<path d="M8075 1530 c11 -5 27 -9 35 -9 9 0 8 4 -5 9 -11 5 -27 9 -35 9 -9 0
-8 -4 5 -9z"/>
<path d="M2588 1523 c7 -3 16 -2 19 1 4 3 -2 6 -13 5 -11 0 -14 -3 -6 -6z"/>
<path d="M862 1490 c-42 -30 -58 -62 -49 -97 3 -12 5 -8 6 10 2 42 17 65 61
87 22 11 40 23 40 25 0 12 -20 3 -58 -25z"/>
<path d="M2548 1513 c7 -3 16 -2 19 1 4 3 -2 6 -13 5 -11 0 -14 -3 -6 -6z"/>
<path d="M7772 1498 c51 -29 58 -55 24 -85 -32 -27 -19 -31 14 -5 18 14 21 25
17 44 -6 24 -61 68 -83 68 -5 0 8 -10 28 -22z"/>
<path d="M8171 1495 c65 -34 69 -52 22 -94 l-38 -34 33 19 c66 37 63 78 -8
114 -22 11 -43 20 -47 20 -4 -1 13 -12 38 -25z"/>
<path d="M1988 1493 c7 -3 16 -2 19 1 4 3 -2 6 -13 5 -11 0 -14 -3 -6 -6z"/>
<path d="M2397 1469 c-43 -23 -52 -38 -43 -75 5 -19 23 -33 69 -55 34 -16 69
-29 77 -29 8 0 -11 11 -43 24 -71 30 -97 52 -97 83 0 19 11 29 53 48 28 14 45
25 37 24 -8 0 -32 -9 -53 -20z"/>
<path d="M1869 1447 c-37 -25 -50 -67 -28 -93 13 -16 82 -54 96 -54 4 0 -14
13 -42 28 -45 24 -50 30 -50 62 0 30 5 37 40 57 22 12 35 23 29 23 -6 0 -26
-10 -45 -23z"/>
<path d="M5020 1390 c-58 -15 -100 -28 -95 -29 17 -1 179 35 205 47 41 18 2
11 -110 -18z"/>
<path d="M5540 1405 c-14 -8 -20 -14 -15 -14 6 0 21 6 35 14 14 8 21 14 15 14
-5 0 -21 -6 -35 -14z"/>
<path d="M820 1366 c0 -2 8 -10 18 -17 15 -13 16 -12 3 4 -13 16 -21 21 -21
13z"/>
<path d="M7710 1360 c-9 -6 -10 -10 -3 -10 6 0 15 5 18 10 8 12 4 12 -15 0z"/>
<path d="M8085 1344 c-27 -13 -43 -24 -35 -23 8 0 35 11 60 24 58 31 40 31
-25 -1z"/>
<path d="M4888 1353 c7 -3 16 -2 19 1 4 3 -2 6 -13 5 -11 0 -14 -3 -6 -6z"/>
<path d="M860 1335 c0 -7 61 -37 66 -33 2 3 -12 12 -31 21 -19 9 -35 15 -35
12z"/>
<path d="M7650 1325 c-14 -8 -20 -14 -14 -15 5 0 19 7 30 15 24 18 16 19 -16
0z"/>
<path d="M7995 1310 c-13 -6 -15 -9 -5 -9 8 0 22 4 30 9 18 12 2 12 -25 0z"/>
<path d="M7547 1273 c-48 -14 -86 -28 -83 -30 4 -4 187 46 195 53 10 9 -30 1
-112 -23z"/>
<path d="M7820 1285 c10 -12 10 -19 2 -27 -20 -20 -13 -32 7 -14 16 15 18 21
8 37 -6 10 -16 19 -21 19 -4 0 -3 -7 4 -15z"/>
<path d="M1988 1283 c7 -3 16 -2 19 1 4 3 -2 6 -13 5 -11 0 -14 -3 -6 -6z"/>
<path d="M2318 1283 c7 -3 16 -2 19 1 4 3 -2 6 -13 5 -11 0 -14 -3 -6 -6z"/>
<path d="M2575 1275 c22 -8 49 -13 60 -13 11 0 -2 6 -30 14 -63 17 -84 16 -30
-1z"/>
<path d="M1010 1270 c8 -5 22 -9 30 -9 10 0 8 3 -5 9 -27 12 -43 12 -25 0z"/>
<path d="M2028 1273 c7 -3 16 -2 19 1 4 3 -2 6 -13 5 -11 0 -14 -3 -6 -6z"/>
<path d="M2358 1273 c7 -3 16 -2 19 1 4 3 -2 6 -13 5 -11 0 -14 -3 -6 -6z"/>
<path d="M2788 1273 c7 -3 16 -2 19 1 4 3 -2 6 -13 5 -11 0 -14 -3 -6 -6z"/>
<path d="M2068 1263 c6 -2 18 -2 25 0 6 3 1 5 -13 5 -14 0 -19 -2 -12 -5z"/>
<path d="M2413 1263 c9 -2 23 -2 30 0 6 3 -1 5 -18 5 -16 0 -22 -2 -12 -5z"/>
<path d="M2838 1263 c6 -2 18 -2 25 0 6 3 1 5 -13 5 -14 0 -19 -2 -12 -5z"/>
<path d="M1068 1253 c7 -3 16 -2 19 1 4 3 -2 6 -13 5 -11 0 -14 -3 -6 -6z"/>
<path d="M2128 1253 c7 -3 16 -2 19 1 4 3 -2 6 -13 5 -11 0 -14 -3 -6 -6z"/>
<path d="M2468 1253 c6 -2 18 -2 25 0 6 3 1 5 -13 5 -14 0 -19 -2 -12 -5z"/>
<path d="M2668 1253 c7 -3 16 -2 19 1 4 3 -2 6 -13 5 -11 0 -14 -3 -6 -6z"/>
<path d="M2893 1253 c9 -2 23 -2 30 0 6 3 -1 5 -18 5 -16 0 -22 -2 -12 -5z"/>
<path d="M7750 1244 c-25 -8 -86 -23 -135 -34 -64 -14 -75 -19 -38 -15 65 7
204 42 217 55 6 6 8 10 6 9 -3 -1 -25 -7 -50 -15z"/>
<path d="M1108 1243 c7 -3 16 -2 19 1 4 3 -2 6 -13 5 -11 0 -14 -3 -6 -6z"/>
<path d="M2188 1243 c6 -2 18 -2 25 0 6 3 1 5 -13 5 -14 0 -19 -2 -12 -5z"/>
<path d="M2533 1243 c9 -2 23 -2 30 0 6 3 -1 5 -18 5 -16 0 -22 -2 -12 -5z"/>
<path d="M2708 1243 c7 -3 16 -2 19 1 4 3 -2 6 -13 5 -11 0 -14 -3 -6 -6z"/>
<path d="M2953 1243 c9 -2 23 -2 30 0 6 3 -1 5 -18 5 -16 0 -22 -2 -12 -5z"/>
<path d="M5035 1240 l-40 -7 40 -1 c22 0 49 3 60 8 l20 9 -20 -1 c-11 -1 -38
-4 -60 -8z"/>
<path d="M1160 1230 c14 -4 34 -8 45 -8 16 0 15 2 -5 8 -14 4 -34 8 -45 8 -16
0 -15 -2 5 -8z"/>
<path d="M2248 1233 c6 -2 18 -2 25 0 6 3 1 5 -13 5 -14 0 -19 -2 -12 -5z"/>
<path d="M2588 1233 c6 -2 18 -2 25 0 6 3 1 5 -13 5 -14 0 -19 -2 -12 -5z"/>
<path d="M3018 1233 c6 -2 18 -2 25 0 6 3 1 5 -13 5 -14 0 -19 -2 -12 -5z"/>
<path d="M2318 1223 c6 -2 18 -2 25 0 6 3 1 5 -13 5 -14 0 -19 -2 -12 -5z"/>
<path d="M2671 1226 c2 -2 33 -6 69 -9 39 -3 55 -2 40 3 -25 8 -117 13 -109 6z"/>
<path d="M3108 1223 c6 -2 18 -2 25 0 6 3 1 5 -13 5 -14 0 -19 -2 -12 -5z"/>
<path d="M4943 1223 c9 -2 23 -2 30 0 6 3 -1 5 -18 5 -16 0 -22 -2 -12 -5z"/>
<path d="M7365 1220 c-25 -11 1 -11 35 0 20 6 21 8 5 8 -11 0 -29 -3 -40 -8z"/>
<path d="M7774 1215 c-10 -8 -14 -15 -8 -15 6 0 17 7 24 15 16 19 9 19 -16 0z"/>
<path d="M1238 1213 c7 -3 16 -2 19 1 4 3 -2 6 -13 5 -11 0 -14 -3 -6 -6z"/>
<path d="M2398 1213 c6 -2 18 -2 25 0 6 3 1 5 -13 5 -14 0 -19 -2 -12 -5z"/>
<path d="M4843 1213 c9 -2 23 -2 30 0 6 3 -1 5 -18 5 -16 0 -22 -2 -12 -5z"/>
<path d="M5081 1210 c-10 -6 -10 -9 -1 -15 6 -4 9 -13 6 -21 -3 -8 -3 -14 1
-14 7 0 32 32 33 41 0 12 -26 18 -39 9z"/>
<path d="M1300 1200 c14 -4 34 -8 45 -8 16 0 15 2 -5 8 -14 4 -34 8 -45 8 -16
0 -15 -2 5 -8z"/>
<path d="M2818 1203 c7 -3 16 -2 19 1 4 3 -2 6 -13 5 -11 0 -14 -3 -6 -6z"/>
<path d="M4748 1203 c7 -3 16 -2 19 1 4 3 -2 6 -13 5 -11 0 -14 -3 -6 -6z"/>
<path d="M7265 1200 c-27 -7 -27 -8 -5 -8 14 0 39 4 55 8 27 7 27 8 5 8 -14 0
-38 -4 -55 -8z"/>
<path d="M2770 1190 c0 -5 17 -10 38 -9 33 1 34 2 12 9 -36 11 -50 11 -50 0z"/>
<path d="M2900 1185 c68 -18 286 -42 440 -49 84 -4 61 0 -85 13 -110 10 -231
24 -270 30 -130 20 -140 21 -85 6z"/>
<path d="M3363 1193 c9 -2 23 -2 30 0 6 3 -1 5 -18 5 -16 0 -22 -2 -12 -5z"/>
<path d="M1378 1183 c6 -2 18 -2 25 0 6 3 1 5 -13 5 -14 0 -19 -2 -12 -5z"/>
<path d="M3558 1183 c12 -2 32 -2 45 0 12 2 2 4 -23 4 -25 0 -35 -2 -22 -4z"/>
<path d="M7183 1183 c9 -2 23 -2 30 0 6 3 -1 5 -18 5 -16 0 -22 -2 -12 -5z"/>
<path d="M7498 1183 c7 -3 16 -2 19 1 4 3 -2 6 -13 5 -11 0 -14 -3 -6 -6z"/>
<path d="M1433 1173 c9 -2 23 -2 30 0 6 3 -1 5 -18 5 -16 0 -22 -2 -12 -5z"/>
<path d="M7083 1173 c15 -2 37 -2 50 0 12 2 0 4 -28 4 -27 0 -38 -2 -22 -4z"/>
<path d="M7628 1173 c7 -3 16 -2 19 1 4 3 -2 6 -13 5 -11 0 -14 -3 -6 -6z"/>
<path d="M1488 1163 c6 -2 18 -2 25 0 6 3 1 5 -13 5 -14 0 -19 -2 -12 -5z"/>
<path d="M7568 1163 c7 -3 16 -2 19 1 4 3 -2 6 -13 5 -11 0 -14 -3 -6 -6z"/>
<path d="M1553 1153 c9 -2 23 -2 30 0 6 3 -1 5 -18 5 -16 0 -22 -2 -12 -5z"/>
<path d="M4923 1153 c26 -2 68 -2 95 0 26 2 4 3 -48 3 -52 0 -74 -1 -47 -3z"/>
<path d="M7383 1153 c32 -2 81 -2 110 0 29 2 3 3 -58 3 -60 0 -84 -1 -52 -3z"/>
<path d="M1623 1143 c9 -2 23 -2 30 0 6 3 -1 5 -18 5 -16 0 -22 -2 -12 -5z"/>
<path d="M7273 1143 c9 -2 23 -2 30 0 6 3 -1 5 -18 5 -16 0 -22 -2 -12 -5z"/>
<path d="M1693 1133 c9 -2 23 -2 30 0 6 3 -1 5 -18 5 -16 0 -22 -2 -12 -5z"/>
<path d="M1763 1123 c9 -2 25 -2 35 0 9 3 1 5 -18 5 -19 0 -27 -2 -17 -5z"/>
<path d="M3513 1123 c15 -2 39 -2 55 0 15 2 2 4 -28 4 -30 0 -43 -2 -27 -4z"/>
<path d="M1843 1113 c9 -2 25 -2 35 0 9 3 1 5 -18 5 -19 0 -27 -2 -17 -5z"/>
<path d="M1923 1103 c9 -2 25 -2 35 0 9 3 1 5 -18 5 -19 0 -27 -2 -17 -5z"/>
<path d="M7185 1099 c-14 -5 -1 -8 39 -8 33 -1 57 1 55 4 -10 9 -75 12 -94 4z"/>
<path d="M2008 1093 c12 -2 30 -2 40 0 9 3 -1 5 -23 4 -22 0 -30 -2 -17 -4z"/>
<path d="M2088 1083 c12 -2 32 -2 45 0 12 2 2 4 -23 4 -25 0 -35 -2 -22 -4z"/>
<path d="M5550 1080 c-55 -7 -55 -7 -10 -8 25 0 65 3 90 7 40 8 41 8 10 8 -19
0 -60 -3 -90 -7z"/>
<path d="M7108 1083 c7 -3 16 -2 19 1 4 3 -2 6 -13 5 -11 0 -14 -3 -6 -6z"/>
<path d="M2188 1073 c12 -2 30 -2 40 0 9 3 -1 5 -23 4 -22 0 -30 -2 -17 -4z"/>
<path d="M2278 1063 c12 -2 32 -2 45 0 12 2 2 4 -23 4 -25 0 -35 -2 -22 -4z"/>
<path d="M2388 1053 c12 -2 30 -2 40 0 9 3 -1 5 -23 4 -22 0 -30 -2 -17 -4z"/>
<path d="M2498 1043 c12 -2 32 -2 45 0 12 2 2 4 -23 4 -25 0 -35 -2 -22 -4z"/>
<path d="M2618 1033 c12 -2 32 -2 45 0 12 2 2 4 -23 4 -25 0 -35 -2 -22 -4z"/>
<path d="M2758 1023 c12 -2 32 -2 45 0 12 2 2 4 -23 4 -25 0 -35 -2 -22 -4z"/>
<path d="M2898 1013 c18 -2 45 -2 60 0 15 2 0 4 -33 4 -33 0 -45 -2 -27 -4z"/>
<path d="M3068 1003 c17 -2 47 -2 65 0 17 2 3 4 -33 4 -36 0 -50 -2 -32 -4z"/>
<path d="M3268 993 c18 -2 45 -2 60 0 15 2 0 4 -33 4 -33 0 -45 -2 -27 -4z"/>
<path d="M3578 983 c17 -2 47 -2 65 0 17 2 3 4 -33 4 -36 0 -50 -2 -32 -4z"/>
<path d="M5703 983 c15 -2 39 -2 55 0 15 2 2 4 -28 4 -30 0 -43 -2 -27 -4z"/>
<path d="M3898 973 c29 -2 74 -2 100 0 26 2 2 3 -53 3 -55 0 -76 -1 -47 -3z"/>
<path d="M4083 973 c15 -2 39 -2 55 0 15 2 2 4 -28 4 -30 0 -43 -2 -27 -4z"/>
<path d="M5333 973 c20 -2 54 -2 75 0 20 2 3 4 -38 4 -41 0 -58 -2 -37 -4z"/>
</g>
</svg>
