<?xml version="1.0" standalone="no"?>
<!DOCTYPE svg PUBLIC "-//W3C//DTD SVG 20010904//EN"
 "http://www.w3.org/TR/2001/REC-SVG-20010904/DTD/svg10.dtd">
<svg version="1.0" xmlns="http://www.w3.org/2000/svg"
 width="1024.000000pt" height="1024.000000pt" viewBox="0 0 1024.000000 1024.000000"
 preserveAspectRatio="xMidYMid meet">
<metadata>
Created by potrace 1.16, written by Peter Selinger 2001-2019
</metadata>
<g transform="translate(0.000000,1024.000000) scale(0.100000,-0.100000)"
fill="#000000" stroke="none">
<path d="M2675 9074 c-104 -25 -202 -101 -244 -187 -83 -173 -65 -402 65 -842
49 -163 113 -323 194 -486 181 -363 362 -586 725 -894 103 -88 179 -160 216
-207 l30 -37 -31 -61 c-73 -144 -95 -245 -120 -539 -11 -135 -42 -247 -87
-316 -52 -79 -98 -128 -150 -157 -66 -37 -69 -59 -13 -88 l41 -21 -25 -32
c-13 -18 -41 -68 -60 -111 l-36 -79 -68 7 c-37 3 -137 8 -222 11 -126 3 -138
2 -65 -4 50 -5 147 -12 217 -16 l128 -7 -7 -40 c-6 -39 -5 -40 16 -28 20 10
22 10 18 -7 -3 -10 -11 -36 -16 -59 l-11 -41 -192 -6 c-189 -7 -268 -14 -278
-24 -3 -3 27 -3 65 0 39 4 145 9 236 13 l166 7 5 -112 c3 -62 8 -115 12 -118
3 -3 14 1 23 10 35 31 45 25 58 -36 11 -56 11 -59 -9 -66 -12 -5 -61 -23 -111
-41 -94 -34 -375 -165 -375 -174 0 -4 42 15 93 40 102 52 279 125 359 149 l52
15 24 -30 c13 -17 27 -28 32 -25 4 3 22 -18 40 -46 27 -45 34 -50 56 -45 21 6
35 -1 74 -38 l48 -45 -154 -75 c-165 -80 -275 -142 -314 -175 -14 -12 13 2 60
30 92 55 325 171 391 194 36 13 43 13 56 0 8 -8 19 -15 24 -15 5 0 -5 -24 -22
-52 -103 -176 -186 -394 -232 -610 l-25 -117 -149 -148 c-106 -105 -164 -170
-197 -224 -140 -228 -185 -491 -130 -753 45 -214 141 -410 268 -544 47 -50 49
-54 31 -64 -41 -23 -102 -89 -125 -135 -32 -64 -38 -164 -13 -213 10 -19 39
-51 66 -70 l47 -35 -27 -7 c-23 -6 -21 -7 8 -3 20 2 49 -3 64 -11 15 -8 44
-14 64 -14 20 0 41 -4 46 -8 15 -14 136 -32 206 -32 35 0 104 5 153 11 74 9
92 9 100 -3 14 -18 57 -44 81 -51 17 -4 16 -5 -5 -7 -37 -3 36 -19 140 -30 47
-4 112 -16 145 -25 49 -14 84 -16 190 -11 129 6 326 32 460 61 127 27 575 19
655 -12 8 -3 23 -5 34 -4 11 2 16 -2 11 -8 -4 -8 4 -11 22 -10 15 1 91 -7 168
-16 121 -15 151 -15 220 -4 44 7 107 13 140 14 73 3 170 22 210 42 17 8 44 28
61 44 l30 29 100 -11 c59 -6 132 -8 179 -4 44 5 94 7 110 7 23 -1 26 1 15 8
-10 7 8 10 60 11 64 2 69 3 35 9 -33 6 -25 8 45 10 74 3 79 4 40 10 -25 4 -37
8 -27 8 9 1 17 7 17 12 0 6 6 10 13 10 7 0 24 11 39 25 15 14 32 25 38 25 6 0
8 4 5 10 -3 5 1 34 10 64 19 64 13 109 -22 181 -29 59 -45 79 -95 115 l-36 26
55 65 c120 141 178 253 235 450 32 111 33 119 33 299 0 170 -3 193 -27 281
-62 224 -114 306 -326 519 l-154 155 -25 109 c-46 203 -141 445 -227 580 -63
99 -37 100 150 7 77 -38 163 -84 192 -101 28 -17 52 -28 52 -26 0 9 -178 111
-282 162 -54 27 -98 54 -98 60 0 7 22 26 49 43 28 16 55 39 61 50 6 11 17 18
24 15 9 -4 30 16 57 53 23 32 43 60 45 61 5 7 281 -91 363 -129 46 -22 86 -37
88 -35 9 9 -160 79 -359 150 -43 16 -78 32 -78 37 0 10 23 102 27 108 2 2 12
-4 23 -14 19 -18 20 -17 35 19 9 21 17 72 18 113 l2 76 165 -7 c91 -3 194 -8
230 -11 55 -4 59 -3 24 4 -22 5 -126 14 -229 20 -104 7 -189 13 -190 14 0 1
-7 20 -14 42 -8 22 -16 47 -19 55 -5 13 -4 13 12 1 15 -13 19 -13 27 0 11 18
11 26 -1 49 -11 20 -13 20 305 40 103 7 83 7 -96 3 l-225 -5 -13 44 c-18 60
-49 118 -79 151 -15 15 -20 27 -13 27 24 0 81 32 81 46 0 7 -24 29 -52 49 -63
41 -139 130 -174 201 -40 81 -53 147 -64 314 -15 222 -38 324 -108 474 l-37
79 75 70 c41 38 143 124 225 190 177 142 352 310 440 422 311 396 551 985 599
1470 15 144 -35 310 -119 404 -49 53 -143 98 -240 113 -160 25 -380 -30 -640
-159 -298 -147 -577 -373 -750 -607 -241 -326 -380 -702 -406 -1094 -5 -87
-11 -165 -12 -174 -2 -16 -8 -15 -61 7 -106 43 -176 132 -176 224 0 55 -20 73
-50 46 -21 -19 -36 -20 -20 0 15 18 9 19 -24 3 -38 -17 -70 -89 -64 -143 l5
-44 -40 22 c-22 12 -51 28 -64 36 -14 7 -33 26 -42 42 -20 36 -39 44 -61 24
-9 -8 -29 -15 -45 -15 -25 0 -27 -2 -21 -30 l6 -30 -58 0 c-77 0 -127 15 -146
45 -21 32 -34 32 -47 -2 -22 -56 -10 -112 34 -160 l20 -23 -46 0 -46 0 -5 53
c-3 28 -10 106 -15 172 -41 457 -230 894 -516 1193 -190 199 -382 343 -605
456 -285 145 -519 195 -705 150z m282 -60 c42 -8 125 -33 185 -54 420 -150
816 -474 1036 -848 123 -209 228 -530 251 -763 17 -177 23 -335 12 -324 -5 6
-11 21 -14 35 -3 19 -5 16 -6 -11 -1 -33 -4 -37 -43 -48 -60 -19 -232 -93
-236 -103 -2 -4 -10 -8 -17 -8 -7 0 -15 -3 -17 -7 -1 -5 -24 -22 -49 -40 l-46
-32 -6 87 c-43 603 -65 746 -149 990 -117 341 -308 590 -603 787 -100 67 -243
138 -262 131 -9 -4 -11 -2 -7 6 5 8 2 9 -9 5 -10 -3 -17 -3 -17 2 0 11 -58 22
-140 26 l-65 4 65 -18 c36 -10 86 -24 112 -31 26 -7 46 -16 43 -20 -2 -4 6 -5
18 -3 12 2 31 -3 42 -12 20 -16 20 -16 -2 -6 -12 6 -28 11 -35 11 -19 -1 83
-53 107 -54 11 -1 19 -7 18 -14 -2 -6 4 -9 13 -5 8 3 14 1 12 -4 -2 -5 13 -23
32 -38 l35 -29 -30 34 -30 33 46 -31 c25 -17 53 -41 62 -54 14 -20 16 -20 11
-3 -5 18 -4 18 15 -3 11 -13 30 -36 42 -50 20 -26 20 -26 -1 13 l-22 40 29
-33 c15 -18 34 -32 41 -32 7 0 12 -8 10 -17 -2 -10 3 -18 11 -18 7 0 29 -18
48 -40 35 -40 35 -40 13 -5 l-22 35 37 -40 c22 -24 34 -46 31 -57 -2 -10 -1
-16 4 -13 4 2 29 -27 56 -66 70 -100 77 -109 61 -74 -8 17 -36 59 -62 93 -25
35 -45 65 -43 67 9 9 123 -161 172 -255 60 -116 135 -313 166 -434 34 -134 22
-109 -50 105 -59 177 -140 369 -155 369 -6 0 6 -32 22 -55 15 -22 17 -39 4
-31 -5 4 0 -18 12 -48 12 -30 23 -53 26 -51 2 3 -2 18 -9 35 -7 17 -10 33 -7
36 14 14 159 -430 159 -486 0 -29 1 -31 9 -15 6 15 7 10 3 -15 -3 -20 2 -76
10 -125 9 -50 16 -103 15 -120 -1 -37 -37 157 -39 205 0 25 -3 31 -9 21 -7
-11 -12 -6 -19 20 -6 19 -11 26 -11 16 -1 -10 5 -30 13 -46 19 -35 48 -223 51
-321 1 -41 5 -109 8 -150 7 -88 1 -75 -12 25 l-9 70 3 -85 c2 -47 6 -96 10
-110 3 -14 -6 6 -21 43 -34 88 -43 80 -11 -10 14 -37 28 -77 32 -88 l7 -20
-13 20 c-7 11 -28 58 -46 105 -17 47 -32 80 -33 74 0 -13 53 -163 69 -192 6
-11 11 -27 11 -34 0 -17 -70 133 -70 151 0 8 -3 12 -6 8 -3 -3 1 -27 9 -52 9
-25 14 -51 11 -58 -2 -7 2 -32 11 -56 20 -58 18 -65 -5 -16 -10 22 -19 51 -19
63 -1 26 -31 95 -38 88 -2 -2 3 -18 12 -36 9 -17 14 -38 11 -46 -3 -7 6 -39
20 -69 31 -72 15 -63 -20 10 -14 30 -28 55 -30 55 -6 0 28 -77 37 -87 4 -3 7
-13 7 -22 0 -14 -1 -14 -10 -1 -5 8 -15 15 -22 15 -7 0 -23 16 -36 35 -13 19
-28 34 -33 33 -5 -2 -18 17 -30 42 -12 25 -26 48 -31 51 -5 4 -2 -8 7 -26 9
-17 14 -34 11 -38 -3 -3 -6 -1 -6 4 0 6 -21 32 -47 59 -25 28 -41 42 -33 33 7
-11 8 -18 2 -18 -15 0 -65 61 -101 124 -42 73 -52 73 -12 -1 17 -31 30 -58 28
-59 -6 -6 -74 65 -69 72 4 4 2 4 -4 1 -6 -4 -21 5 -34 18 -13 13 -26 22 -31
20 -4 -3 -44 30 -87 72 -44 43 -78 74 -75 68 3 -5 -28 24 -69 65 -156 160
-296 402 -410 710 -21 58 -36 92 -33 76 14 -69 104 -291 168 -416 77 -151 155
-274 226 -355 72 -82 228 -224 348 -316 154 -118 277 -246 336 -349 27 -46 41
-78 33 -71 -19 16 -22 1 -4 -17 9 -9 7 -12 -10 -12 -12 0 -21 -3 -20 -8 2 -4
-7 -20 -19 -35 l-21 -28 -28 38 c-41 56 -43 58 -37 34 3 -11 9 -21 13 -21 14
0 43 -68 36 -86 -6 -15 -18 -7 -79 52 -40 39 -121 112 -182 164 -357 303 -560
561 -732 928 -150 320 -273 764 -273 985 0 148 42 258 117 310 33 23 49 27
109 27 39 0 101 -9 143 -20 156 -44 537 -260 682 -386 29 -27 43 -36 29 -20
-40 45 -167 144 -273 213 -216 140 -423 223 -564 226 -77 2 -75 9 9 31 71 19
172 19 265 0z m4386 -10 c26 -9 47 -19 47 -23 0 -3 16 -15 36 -26 51 -27 101
-97 124 -173 86 -279 -104 -943 -410 -1428 -131 -207 -260 -355 -460 -528 -80
-69 -137 -116 -320 -258 -8 -6 -30 -25 -49 -42 -31 -29 -33 -29 -21 -6 l13 25
-22 -19 -21 -19 15 39 c12 30 12 35 2 22 -8 -10 -17 -18 -20 -18 -4 0 -3 8 0
18 6 15 5 16 -13 2 -10 -8 -16 -11 -12 -6 3 4 -3 17 -14 28 -11 11 -17 26 -14
33 3 9 0 12 -10 8 -21 -8 -18 0 29 78 64 108 94 138 306 307 108 85 234 192
280 236 238 230 416 545 536 946 20 67 34 127 32 133 -2 7 -7 -4 -12 -23 -13
-64 -76 -253 -118 -355 -95 -235 -246 -473 -400 -632 -28 -29 -55 -49 -61 -46
-6 3 -8 3 -4 -1 6 -8 -63 -76 -77 -76 -4 0 -4 8 -1 18 5 14 3 13 -9 -3 -37
-47 -99 -115 -107 -115 -4 0 -5 8 -1 18 3 9 3 14 -1 10 -4 -3 -9 -13 -10 -21
-3 -23 -113 -110 -127 -101 -7 4 -9 3 -6 -3 4 -6 -1 -17 -10 -24 -14 -12 -16
-12 -8 1 5 8 -7 2 -27 -15 -54 -44 -92 -70 -101 -67 -4 1 -6 -3 -5 -10 2 -6
-7 -16 -18 -23 -12 -6 -34 -25 -49 -43 -15 -18 -30 -30 -33 -28 -3 3 -12 0
-21 -6 -13 -10 -14 -10 -3 2 21 24 13 34 -10 14 -23 -19 -23 -19 -5 2 19 23
23 39 6 28 -8 -5 -8 -1 0 14 14 26 14 35 1 27 -6 -3 -7 1 -3 10 4 12 8 13 13
5 9 -14 19 11 25 61 2 16 7 35 11 41 4 6 3 8 -4 4 -9 -6 -28 -63 -24 -77 0 -3
-5 -6 -13 -6 -11 0 -11 7 1 40 8 22 14 47 13 56 0 9 -10 -10 -21 -42 -25 -73
-32 -69 -12 7 8 32 13 61 10 64 -6 6 -10 -5 -26 -67 -14 -55 -21 -50 -10 9 5
25 9 59 8 75 0 24 -3 21 -14 -20 l-13 -50 4 75 c3 41 7 131 10 200 3 69 13
180 21 247 9 68 14 128 12 135 -4 11 -33 -223 -42 -327 -2 -27 -3 -21 -4 20
-1 33 5 118 13 189 8 71 13 131 11 133 -3 3 -8 -16 -11 -42 -4 -25 -10 -44
-12 -41 -16 15 49 252 81 298 9 12 16 32 16 43 0 21 65 165 74 165 3 0 -10
-32 -29 -72 -19 -40 -35 -79 -34 -88 0 -8 6 1 13 20 8 20 25 59 40 88 15 29
24 57 22 61 -3 5 8 27 24 50 17 22 29 45 28 50 -2 5 5 16 15 23 9 7 19 23 22
35 4 22 52 93 62 93 3 0 -1 -8 -8 -17 -13 -16 -12 -17 4 -4 10 8 16 20 13 27
-3 7 0 16 6 20 7 5 9 2 4 -7 -4 -8 1 -4 11 9 10 13 37 44 60 68 23 25 54 60
69 80 15 19 29 32 32 30 2 -3 -13 -27 -34 -53 -51 -64 -57 -73 -52 -73 3 0 35
38 72 85 67 84 93 110 59 58 -11 -17 0 -9 30 20 46 44 77 62 61 35 -4 -8 -3
-10 2 -5 5 5 8 12 8 15 -3 11 85 69 181 120 88 47 148 71 230 91 36 9 34 9
-20 4 -93 -8 -184 -39 -294 -101 -351 -197 -567 -442 -715 -809 -105 -262
-141 -452 -176 -933 -6 -80 -13 -157 -16 -173 -6 -27 -6 -27 -34 -10 -16 9
-26 21 -23 26 3 6 2 7 -4 4 -5 -3 -28 6 -50 21 -50 33 -177 93 -262 124 l-63
23 7 130 c17 328 68 532 204 810 115 234 246 411 431 580 253 231 615 426 895
481 84 16 211 11 278 -12z m-4252 -271 c13 -17 13 -17 -6 -3 -11 8 -22 16 -24
17 -2 2 0 3 6 3 6 0 17 -8 24 -17z m796 -1215 c-3 -7 -5 -2 -5 12 0 14 2 19 5
13 2 -7 2 -19 0 -25z m2210 -25 c-3 -10 -5 -2 -5 17 0 19 2 27 5 18 2 -10 2
-26 0 -35z m-2200 -35 c-3 -8 -6 -5 -6 6 -1 11 2 17 5 13 3 -3 4 -12 1 -19z
m10 -210 c-3 -8 -6 -5 -6 6 -1 11 2 17 5 13 3 -3 4 -12 1 -19z m1325 -163 c49
-75 108 -138 108 -115 0 8 -19 37 -42 64 -38 46 -38 48 -7 20 44 -41 111 -74
234 -114 205 -67 380 -168 504 -290 166 -164 286 -368 321 -543 10 -51 23
-162 29 -247 6 -85 18 -182 26 -215 25 -98 78 -195 144 -262 l60 -62 -39 14
c-21 8 -48 19 -59 25 -12 6 -21 8 -21 6 0 -9 78 -46 117 -55 35 -8 32 -9 -31
-10 l-69 -1 79 -82 79 -83 -50 -6 c-33 -4 -40 -6 -19 -7 34 -2 78 -31 95 -63
10 -20 10 -20 -18 -3 l-28 18 30 -33 30 -33 -55 27 c-54 27 -55 27 -34 4 25
-28 49 -73 71 -133 16 -44 27 -210 14 -201 -5 2 -8 -1 -7 -8 0 -6 -3 -13 -9
-15 -5 -2 -20 30 -32 71 -13 43 -32 81 -45 93 -23 19 -23 19 -7 -1 20 -26 39
-71 39 -93 0 -15 -2 -15 -11 -2 -9 12 -9 11 -4 -5 5 -11 9 -33 11 -50 2 -16 1
-21 -2 -10 -3 11 -10 25 -16 30 -6 6 -7 3 -2 -10 4 -13 -4 -8 -26 15 -18 19
-28 28 -22 20 10 -15 52 -129 52 -140 -1 -3 -10 12 -20 32 -38 71 -94 98 -285
134 -99 19 -356 25 -506 11 l-85 -8 -48 60 -47 61 58 26 c223 100 468 175 635
195 124 15 152 28 36 17 -171 -17 -375 -74 -607 -172 -130 -54 -134 -55 -156
-38 -132 104 -238 169 -305 186 -14 3 0 -5 30 -19 71 -34 140 -77 218 -138 61
-48 75 -67 50 -67 -7 0 -24 -10 -38 -21 -24 -19 -23 -19 19 2 l45 21 43 -45
c54 -57 55 -74 6 -83 -21 -3 -51 -10 -68 -14 -56 -15 14 -11 85 6 92 20 480
31 590 15 102 -14 227 -47 257 -67 27 -17 46 -45 68 -96 22 -54 10 -47 -14 7
-25 56 -37 60 -15 5 13 -32 14 -43 4 -55 -6 -8 -9 -19 -5 -24 3 -6 2 -18 -3
-28 -9 -14 -10 -14 -16 5 -8 26 -29 38 -95 58 -128 38 -487 94 -604 94 -73 0
-92 7 -105 38 l-11 27 5 -26 c5 -26 5 -27 -71 -34 -96 -9 -90 -18 10 -16 55 1
75 -2 75 -11 0 -10 3 -9 9 1 19 29 541 -37 694 -88 81 -26 85 -31 54 -84 -28
-47 -57 -77 -57 -58 0 6 -8 11 -19 11 -10 0 -85 22 -167 49 -137 45 -396 101
-465 101 -21 0 -29 5 -30 18 0 10 -3 12 -6 5 -3 -9 -34 -14 -96 -15 -66 -1
-75 -3 -32 -5 33 -2 75 -5 93 -8 31 -6 32 -7 32 -55 0 -28 -4 -50 -9 -50 -5 0
-37 7 -71 16 -33 8 -66 14 -72 12 -7 -3 24 -13 68 -24 78 -19 79 -19 77 -49
-2 -25 -1 -27 5 -7 4 13 9 24 12 25 10 3 139 -35 235 -70 113 -40 195 -79 195
-92 0 -5 9 -7 20 -4 40 11 19 -15 -27 -32 -27 -10 -73 -31 -105 -46 -81 -41
-109 -44 -149 -15 -19 14 -74 51 -122 83 -70 46 -87 62 -83 77 3 13 2 16 -6 8
-8 -8 -21 -4 -47 12 -37 24 -102 49 -108 42 -2 -1 16 -11 39 -20 24 -9 57 -27
73 -41 l30 -25 -44 -40 c-24 -22 -47 -40 -51 -40 -4 0 -35 23 -69 50 -34 28
-65 50 -69 50 -4 -1 4 -10 18 -21 14 -12 43 -37 64 -57 37 -33 38 -36 20 -49
-29 -21 -137 -52 -207 -59 -115 -11 -271 38 -344 109 -33 31 -33 31 -33 131
l0 99 63 61 c34 34 83 78 108 98 48 38 95 117 86 143 -5 11 -25 7 -104 -22
-136 -50 -220 -51 -351 -4 -51 18 -96 30 -100 26 -4 -3 7 -31 22 -62 21 -39
48 -69 91 -101 33 -26 80 -68 103 -93 l42 -46 0 -95 0 -94 -42 -41 c-83 -81
-204 -119 -354 -111 -76 4 -104 11 -160 37 l-68 32 65 60 c38 36 48 49 24 31
-22 -17 -51 -42 -64 -56 -14 -14 -30 -26 -37 -26 -13 0 -84 78 -84 92 0 10 65
50 115 71 22 9 33 16 25 16 -8 1 -45 -14 -82 -33 l-67 -34 -15 42 c-26 71 -29
68 69 92 50 12 80 23 68 23 -65 2 -427 -111 -545 -170 -34 -17 -78 -37 -98
-44 -33 -12 -38 -11 -63 11 -15 13 -27 27 -27 31 0 4 -11 9 -24 9 -26 2 -86
39 -86 53 0 5 26 20 58 34 115 50 281 95 448 121 122 19 161 20 167 4 3 -8 6
-7 6 4 1 13 16 18 81 24 44 3 83 11 86 16 6 9 -78 5 -156 -8 -14 -2 -76 -11
-138 -19 -148 -21 -355 -73 -471 -120 -51 -20 -94 -35 -95 -33 -1 1 -8 18 -15
36 -12 29 -49 49 -38 20 25 -67 13 -80 -20 -20 -39 71 -39 78 9 96 122 45 604
121 738 115 19 0 73 0 120 0 67 1 81 4 66 13 -20 11 -153 7 -361 -13 -165 -15
-400 -56 -517 -89 -56 -17 -106 -30 -110 -30 -15 0 -8 56 12 88 20 33 8 46
-18 20 -7 -7 -12 -8 -12 -4 0 13 30 35 85 61 28 13 45 24 38 24 -20 1 -107
-40 -133 -62 l-24 -22 15 25 c9 14 35 35 60 48 47 24 19 20 -43 -7 -28 -11
-38 -22 -38 -38 0 -12 -5 -25 -12 -29 -8 -5 -10 9 -5 52 4 47 4 52 -4 27 -5
-18 -14 -33 -19 -33 -6 0 -10 -7 -10 -15 0 -8 -5 -15 -10 -15 -6 0 -8 22 -5
58 6 54 5 56 -9 32 -20 -33 -20 -21 4 78 22 92 36 124 77 172 l27 33 -48 -7
c-27 -4 -55 -10 -64 -14 -9 -3 -13 -1 -9 5 4 6 28 16 53 22 26 7 44 14 41 17
-3 3 -22 1 -42 -5 -31 -8 -35 -8 -24 5 6 8 19 14 28 14 12 0 13 2 4 8 -10 6
-10 12 1 28 13 18 27 19 188 19 199 -1 321 -20 504 -81 85 -28 335 -127 352
-140 2 -1 -16 -28 -40 -60 l-42 -59 -226 3 c-213 3 -347 -5 -463 -30 -87 -18
-42 -19 59 -1 145 25 544 25 667 -1 49 -10 91 -16 93 -13 6 5 -85 27 -112 27
-11 0 -6 12 17 45 50 70 61 77 95 65 l29 -10 -23 18 -24 18 39 35 c72 66 195
139 293 175 19 7 28 13 20 13 -48 2 -234 -101 -323 -179 l-45 -40 -140 59
c-166 71 -293 112 -433 142 -85 19 -137 23 -286 23 -101 1 -183 4 -183 7 0 20
68 102 101 121 44 24 51 37 16 31 -13 -3 -39 -1 -58 4 l-34 9 53 18 c28 10 52
20 52 23 0 6 -48 -1 -73 -12 -9 -4 10 20 42 53 65 67 121 168 146 267 8 33 22
140 30 237 22 270 54 374 172 551 78 117 217 261 326 335 92 63 259 145 340
165 31 8 57 12 57 9 0 -3 -14 -21 -32 -39 -36 -38 -29 -41 28 -14 21 11 80 26
129 35 50 8 101 18 115 20 14 2 -15 2 -65 0 -49 -3 -102 -8 -117 -10 -42 -8
-34 12 17 41 30 18 67 29 111 33 l66 7 -56 63 c-62 70 -70 90 -27 67 16 -8 97
-27 180 -42 91 -16 146 -30 139 -35 -16 -9 -6 -10 17 -2 13 5 9 11 -21 28 -50
29 -102 92 -86 108 8 8 24 0 64 -34 66 -56 120 -84 181 -93 l47 -7 -15 48
c-18 59 -19 93 -4 131 11 28 11 27 28 -32 9 -33 37 -92 63 -130z m865 148 c-3
-10 -5 -4 -5 12 0 17 2 24 5 18 2 -7 2 -21 0 -30z m603 -37 c0 -2 -8 -10 -17
-17 -16 -13 -17 -12 -4 4 13 16 21 21 21 13z m-2825 -395 c3 -14 -3 -6 -13 19
-27 63 -36 104 -12 51 11 -24 23 -55 25 -70z m1355 -2051 c0 -20 -75 -92 -119
-115 -25 -13 -62 -39 -80 -59 -19 -20 -41 -36 -47 -36 -7 0 -34 19 -61 42 -26
23 -69 54 -95 70 -41 25 -100 98 -79 98 4 0 41 -12 82 -26 105 -38 195 -36
309 4 47 17 86 31 88 31 1 1 2 -3 2 -9z m-1877 -160 c-3 -12 -8 -19 -11 -16
-5 6 5 36 12 36 2 0 2 -9 -1 -20z m-46 -22 c-3 -7 -5 -2 -5 12 0 14 2 19 5 13
2 -7 2 -19 0 -25z m2705 -44 c70 -14 162 -36 205 -50 92 -30 193 -74 193 -84
0 -4 -12 -20 -27 -36 -25 -27 -27 -27 -34 -9 -6 16 -8 17 -8 3 -1 -9 -12 -30
-26 -46 -25 -30 -26 -30 -73 -17 -26 7 -76 26 -112 42 -80 36 -158 64 -272 98
l-88 26 0 56 0 55 58 -7 c31 -3 114 -18 184 -31z m-1810 -142 c10 -26 18 -52
18 -58 0 -6 -23 -23 -51 -38 -28 -16 -86 -55 -129 -87 l-78 -59 -94 36 c-92
35 -184 84 -128 68 22 -6 23 -5 11 10 -8 9 -11 19 -8 22 12 12 188 83 277 112
146 47 155 50 160 45 2 -2 12 -25 22 -51z m107 -172 c0 -3 -34 -29 -76 -59
l-77 -53 -83 17 c-46 10 -83 21 -83 26 0 13 80 74 160 122 l75 44 42 -46 c23
-25 42 -48 42 -51z m1488 49 c38 -22 86 -56 108 -74 l40 -34 -30 -11 c-17 -6
-52 -16 -79 -21 -47 -9 -52 -8 -128 37 -43 25 -78 49 -78 52 0 9 83 92 92 92
4 0 38 -18 75 -41z m-1390 -110 c68 -35 94 -43 157 -47 42 -2 110 1 152 7 58
10 78 10 89 1 12 -10 16 -9 21 5 7 17 8 17 21 -1 12 -17 13 -17 13 2 0 16 2
17 10 4 8 -12 10 -12 11 5 0 12 3 15 6 7 4 -10 9 -9 20 5 13 17 14 16 7 -6 -4
-16 -3 -21 5 -17 6 4 12 17 12 29 1 12 5 4 9 -18 5 -27 8 -32 9 -15 1 14 6 32
11 40 8 12 10 8 11 -15 1 -24 3 -25 6 -7 5 27 23 19 23 -11 1 -18 3 -16 15 11
18 42 25 41 20 -5 l-5 -38 9 33 c12 47 21 51 22 11 1 -24 3 -27 6 -11 2 12 8
20 13 17 4 -3 6 -15 4 -28 l-5 -22 12 23 c14 26 31 30 22 5 -5 -15 -3 -14 10
2 9 11 17 16 17 10 0 -11 97 -20 210 -19 75 1 159 24 240 65 l36 17 53 -32 53
-33 -59 -16 c-32 -8 -92 -21 -133 -27 -112 -16 -144 -26 -275 -87 -233 -107
-327 -105 -596 12 -100 44 -136 53 -414 103 l-40 8 50 37 c28 20 52 37 55 37
3 0 42 -19 87 -41z m1926 4 c109 -172 197 -392 236 -588 23 -113 50 -288 56
-355 4 -42 4 -41 -9 13 -7 32 -17 61 -21 65 -5 4 -5 -1 -2 -11 11 -30 19 -335
8 -312 -5 11 -10 32 -10 47 -1 15 -6 30 -12 34 -8 4 -9 -3 -5 -22 8 -37 -7
-170 -42 -384 -5 -25 -13 -44 -19 -43 -6 1 -12 -28 -16 -75 -3 -42 -10 -88
-15 -102 -8 -20 -11 -1 -12 85 -2 115 -17 115 -19 0 -2 -85 -18 -189 -36 -227
-15 -32 -15 -30 -11 52 l4 85 -13 -70 c-15 -89 -27 -118 -138 -349 -85 -175
-92 -195 -92 -251 0 -54 5 -70 46 -140 64 -111 83 -166 83 -241 0 -52 -5 -71
-30 -110 -16 -26 -33 -46 -38 -45 -5 2 -13 -4 -18 -13 -12 -22 -29 -20 -22 1
4 14 2 13 -7 -2 -19 -31 -60 -52 -43 -22 4 6 -2 3 -14 -7 -12 -11 -25 -16 -28
-13 -4 3 -15 2 -25 -4 -24 -12 -24 -6 2 60 27 73 27 175 0 233 -19 43 -19 43
-13 8 14 -69 6 -173 -15 -220 -23 -50 -59 -100 -49 -67 3 11 2 16 -4 12 -6 -3
-10 -13 -10 -21 0 -8 -2 -14 -4 -14 -2 0 -12 -3 -21 -6 -14 -6 -13 -1 4 32 12
21 21 46 21 54 0 8 -11 -8 -24 -36 -28 -61 -52 -83 -42 -38 l6 29 -15 -27
c-13 -24 -20 -27 -60 -24 -25 1 -48 -1 -50 -4 -3 -4 -23 -7 -46 -6 -32 1 -44
6 -50 21 -7 18 -8 18 -9 -5 -1 -24 -1 -24 -15 -6 -9 12 -15 15 -15 7 0 -10 -3
-11 -13 -2 -8 6 -17 8 -20 4 -4 -3 -7 -1 -7 5 0 7 -6 12 -14 12 -17 0 -62 58
-82 105 -16 40 -19 141 -4 181 6 15 9 29 6 31 -9 9 -38 -97 -43 -162 -4 -52
-1 -80 11 -110 l16 -40 -22 25 -21 25 6 -25 c6 -24 5 -24 -8 -6 -8 11 -15 25
-16 30 0 6 -7 -2 -14 -19 -8 -16 -14 -24 -15 -17 0 7 -5 10 -10 7 -6 -3 -14 4
-19 17 -7 16 -10 18 -10 6 -1 -29 -43 -12 -83 32 -43 48 -63 123 -52 197 3 27
26 94 50 150 36 84 48 133 73 280 69 409 115 511 322 723 56 58 91 89 77 70
-46 -65 -53 -88 -11 -44 59 64 103 121 103 135 0 7 -7 5 -16 -7 -18 -22 -20
-29 22 84 33 87 30 97 -7 22 -18 -34 -61 -94 -97 -132 -65 -69 -91 -84 -54
-31 47 67 83 123 78 123 -2 0 -28 -33 -56 -72 -63 -87 -120 -149 -132 -142 -4
3 -12 -5 -17 -18 -12 -29 -80 -136 -81 -125 0 12 38 85 75 143 18 28 42 73 53
100 12 27 16 41 9 30 -98 -150 -121 -189 -144 -234 -14 -29 -28 -51 -30 -48
-4 4 66 185 89 231 7 14 7 17 0 10 -16 -15 -161 -343 -173 -392 -6 -23 -15
-41 -19 -38 -4 2 -18 -46 -31 -107 -13 -61 -26 -104 -27 -94 -8 41 72 322 132
465 15 35 25 65 23 68 -3 2 -18 -29 -35 -69 -72 -174 -127 -384 -156 -593 -26
-183 -28 -169 -11 55 6 77 -4 40 -20 -77 l-13 -98 -2 85 -3 85 -12 -100 c-11
-91 -13 -95 -15 -45 l-3 55 -7 -60 c-4 -33 -5 -82 -3 -110 3 -27 3 -47 -1 -44
-4 4 -11 51 -15 105 l-8 99 -3 -100 c-3 -86 -4 -93 -10 -50 -6 46 -7 44 -10
-35 l-3 -85 -6 60 -6 60 -8 -64 c-5 -35 -10 -61 -13 -58 -3 3 0 43 6 89 6 46
10 104 7 128 -3 44 -4 44 -6 -10 -1 -30 -8 -84 -16 -120 l-13 -65 -2 80 c-1
66 -3 75 -11 50 -5 -16 -7 -48 -5 -70 3 -22 1 -49 -5 -60 -8 -18 -9 -17 -5 5
2 14 1 54 -4 90 l-7 65 -2 -84 c-1 -97 -13 -104 -14 -9 0 46 -2 53 -6 28 -4
-24 -8 -6 -12 60 l-6 95 1 -115 c1 -63 0 -107 -2 -97 -2 9 -8 17 -13 17 -6 0
-8 -8 -6 -17 10 -36 18 -93 13 -93 -8 0 -26 74 -36 144 l-9 61 4 -75 c2 -41 7
-86 10 -100 l6 -25 -12 25 c-6 14 -15 57 -20 95 -8 70 -8 70 -4 -20 2 -49 0
-82 -5 -75 -8 15 -33 131 -50 230 -8 47 -9 41 -5 -45 2 -57 1 -91 -4 -80 -5
11 -12 79 -15 150 -4 72 -11 146 -16 165 -11 46 -2 -170 11 -264 12 -88 4 -98
-13 -16 -9 47 -14 57 -18 39 -3 -13 -11 33 -18 103 -16 167 -52 335 -107 488
-24 69 -44 121 -44 115 -1 -14 33 -119 58 -183 25 -64 68 -270 75 -367 l6 -70
-25 105 c-14 58 -34 146 -45 195 -19 82 -149 446 -150 418 0 -6 20 -74 45
-150 25 -76 45 -142 44 -148 0 -5 -24 49 -53 120 -29 72 -66 159 -81 195 -15
36 -31 76 -36 89 -5 13 -12 22 -14 19 -6 -5 27 -111 36 -118 4 -3 16 -28 27
-55 11 -28 28 -68 37 -90 9 -22 12 -35 7 -30 -6 6 -24 41 -40 79 -20 47 -31
63 -34 50 -3 -15 -12 -6 -41 38 -35 54 -97 131 -167 208 -20 22 -12 6 23 -45
76 -113 77 -115 19 -67 -28 24 -72 76 -98 115 -26 40 -52 77 -57 82 -14 14 39
-80 77 -135 l30 -45 -63 55 c-92 79 -121 109 -153 159 -41 65 -34 38 11 -46
22 -39 37 -74 33 -77 -3 -4 2 -12 12 -19 9 -7 30 -35 46 -62 40 -67 38 -47 -2
24 l-31 56 32 -30 c18 -16 46 -54 62 -82 32 -56 50 -73 24 -23 -8 16 -15 33
-15 37 1 14 40 -40 61 -82 11 -22 17 -32 14 -21 -4 14 -1 17 12 12 15 -6 14
-3 -3 16 -12 13 -24 30 -28 38 -4 8 37 -30 91 -86 177 -179 225 -284 299 -653
35 -171 55 -249 85 -319 68 -160 75 -257 25 -332 -29 -45 -97 -80 -158 -83
-24 -1 -47 -6 -51 -12 -8 -9 -6 11 8 75 3 14 -4 -1 -16 -33 -26 -72 -35 -70
-13 4 20 65 15 187 -9 239 -15 33 -16 33 -9 5 16 -66 7 -149 -21 -207 -15 -31
-35 -62 -44 -69 -14 -12 -16 -12 -8 0 5 10 4 12 -3 7 -7 -4 -12 -13 -12 -21 0
-8 -17 -19 -37 -24 -50 -14 -53 -14 -47 6 5 15 4 16 -5 3 -16 -24 -51 -21 -51
4 -1 19 -2 19 -15 -4 -10 -19 -23 -26 -49 -28 -31 -2 -36 0 -36 20 l-1 23 -12
-23 c-10 -17 -15 -20 -25 -10 -9 9 -12 9 -12 -1 0 -7 -5 -9 -12 -4 -7 4 -22 8
-33 8 -42 2 -94 18 -109 34 -53 58 -79 203 -52 281 14 40 14 43 0 25 -29 -38
-46 -123 -43 -208 3 -58 1 -81 -8 -84 -7 -3 -13 4 -14 14 0 16 -1 16 -9 -2 -5
-11 -9 -15 -9 -8 -1 7 -7 10 -15 7 -21 -8 -72 41 -91 88 -38 92 -17 195 70
338 35 60 45 84 45 121 0 55 -28 140 -73 223 -43 77 -90 193 -113 274 -9 34
-19 60 -21 58 -3 -2 3 -28 11 -57 9 -29 14 -54 12 -56 -6 -7 -63 91 -74 127
-16 49 -42 181 -42 207 0 12 -4 24 -9 27 -5 3 -6 -24 -4 -62 8 -102 -14 -66
-32 53 -8 55 -15 106 -15 113 0 6 -4 12 -10 12 -5 0 -10 -14 -10 -32 0 -25 -3
-29 -12 -20 -9 9 -12 58 -12 170 1 160 1 159 -22 -8 -6 -42 -7 -43 -16 -20 -5
14 -12 68 -15 120 -6 89 -7 93 -19 65 -11 -26 -13 -8 -15 140 -1 119 -4 158
-10 130 -4 -22 -8 -57 -8 -78 -1 -23 -5 -36 -11 -32 -19 12 -10 153 21 336 31
185 74 347 127 474 29 71 131 244 154 262 20 16 50 12 43 -5 -3 -10 0 -12 10
-8 21 8 19 -3 -7 -33 -13 -14 -6 -10 15 8 46 43 48 32 4 -23 -18 -23 -37 -48
-41 -56 -7 -14 8 3 62 70 23 28 43 21 21 -7 -7 -10 -1 -7 14 7 25 21 27 22 21
5 -7 -18 -6 -18 9 -6 37 30 14 -7 -40 -64 l-58 -60 62 59 c34 33 66 57 70 53
4 -4 -20 -36 -53 -70 -59 -62 -59 -62 15 8 41 39 71 61 67 50 -6 -16 -5 -18 5
-7 18 17 34 15 19 -3 -8 -9 -9 -15 -2 -15 6 0 14 5 17 10 3 6 11 10 16 10 6 0
7 -5 3 -12 -5 -8 -2 -9 9 -5 25 9 21 -1 -20 -52 l-36 -46 41 40 c23 21 42 45
42 53 0 11 3 12 13 3 8 -6 17 -8 20 -4 4 3 7 2 7 -4 0 -6 -7 -16 -15 -23 -8
-7 -15 -16 -15 -21 0 -4 11 3 25 16 13 14 30 25 37 25 7 0 -19 -33 -57 -72
-47 -49 -53 -58 -20 -28 93 84 105 93 112 86 4 -4 -10 -23 -32 -42 -22 -19
-35 -34 -29 -34 5 0 25 16 44 35 33 34 60 45 60 25 0 -5 -6 -10 -13 -10 -12 0
-49 -36 -111 -110 -12 -13 17 11 63 53 85 78 129 104 75 45 -24 -28 -25 -29
-3 -10 14 13 39 25 55 28 l29 5 -25 -28 c-57 -63 -61 -75 -9 -25 65 62 90 70
34 10 l-40 -42 55 44 55 44 -35 -38 c-24 -26 -28 -35 -14 -28 11 6 26 18 34
26 7 9 17 16 23 16 6 0 -9 -21 -33 -47 l-45 -47 55 45 c37 30 62 43 78 41 26
-4 28 -15 5 -33 -15 -12 -16 -12 -9 6 11 30 -7 8 -39 -47 -31 -55 -28 -66 4
-14 21 34 68 59 57 30 -3 -8 -1 -14 4 -14 6 0 10 2 10 4 0 2 3 12 7 22 4 12 3
15 -5 10 -17 -11 -15 9 3 24 13 11 14 10 8 -6 -6 -17 -5 -17 10 -5 12 9 17 10
17 2 0 -7 5 -9 10 -6 6 3 10 2 10 -4 0 -16 -18 -22 -23 -9 -2 7 -12 -2 -21
-20 -10 -19 -15 -36 -12 -40 3 -3 6 -1 6 4 0 6 7 19 15 30 12 16 14 17 15 2 0
-9 -12 -31 -27 -50 -20 -24 -22 -28 -5 -14 12 10 34 39 48 63 14 25 28 42 31
39 3 -2 -10 -31 -28 -62 -18 -31 -27 -54 -21 -50 7 4 21 24 31 45 11 20 27 44
37 52 12 10 9 -2 -10 -40 -15 -29 -26 -55 -23 -57 2 -2 10 8 18 24 21 42 57
83 64 73 3 -6 0 -13 -7 -18 -11 -7 -32 -43 -56 -97 -3 -5 4 0 14 10 11 11 25
32 32 48 17 37 28 26 14 -13 -6 -17 -9 -31 -6 -31 3 0 10 14 15 30 10 28 29
42 29 20 0 -5 7 -7 15 -4 19 8 19 -1 -1 -32 -9 -13 -14 -27 -11 -30 3 -3 12 7
20 23 20 38 53 67 62 54 3 -6 3 -17 -1 -23 -5 -9 -2 -9 9 1 20 16 23 8 4 -11
-16 -15 -60 -128 -53 -135 2 -2 11 17 20 44 9 26 25 57 34 69 18 21 52 29 52
12 0 -5 5 -6 12 -2 8 5 9 2 4 -11 -7 -18 -6 -18 14 0 20 18 20 18 21 -21 1
-27 3 -31 6 -14 6 33 23 51 23 24 0 -16 2 -17 11 -4 9 12 12 13 16 1 5 -11 7
-11 14 0 6 9 9 1 10 -26 2 -29 3 -33 6 -13 5 29 33 48 33 21 0 -13 3 -13 15
-3 13 10 15 9 15 -11 l1 -24 14 25 14 25 1 -30 1 -30 13 30 13 30 6 -25 c4
-14 8 -36 10 -50 3 -14 5 -2 6 25 1 36 4 46 11 35 5 -8 10 -10 10 -4 0 6 10
10 23 9 15 -1 24 -10 29 -31 6 -26 7 -25 5 9 -4 46 6 48 21 5 l12 -33 -6 40
c-7 49 7 38 23 -18 l12 -42 -4 55 -4 55 14 -40 15 -40 -4 43 c-2 23 0 42 5 42
5 0 9 -9 9 -20 0 -11 5 -20 10 -20 6 0 15 -10 20 -22 8 -21 9 -21 9 -3 0 11
-6 29 -14 39 -20 26 -19 45 1 20 14 -18 15 -18 9 6 -4 21 -4 22 4 5 5 -11 14
-36 19 -55 l11 -35 -5 40 c-3 22 -8 49 -11 60 -3 13 -2 17 5 10 5 -5 19 -43
31 -84 29 -94 37 -88 10 9 -26 95 -20 111 10 26 13 -37 25 -65 27 -63 2 2 -3
23 -11 47 -23 66 -17 70 15 10 38 -71 38 -53 1 25 l-29 60 29 -35 c31 -36 40
-30 13 8 -9 13 -14 26 -11 28 3 3 17 -17 33 -45 29 -54 47 -65 20 -12 -25 47
-19 51 9 6 27 -44 34 -41 10 5 -25 48 -2 34 25 -15 13 -24 26 -43 28 -41 2 2
-9 28 -25 58 -15 29 -30 58 -32 63 -7 17 44 -47 67 -85 27 -44 29 -32 2 20
-26 51 -25 60 2 24 37 -49 41 -51 18 -6 -30 60 -19 63 19 5 33 -51 41 -52 15
-2 -27 53 -8 43 26 -13 35 -59 34 -51 -4 35 -33 73 -16 65 21 -9 14 -30 28
-52 30 -50 3 2 -5 23 -17 45 -13 27 -18 47 -12 57 7 13 11 12 25 -8 42 -57 47
-60 27 -19 -17 34 -19 46 -9 55 9 8 11 7 6 -6 -4 -11 3 -22 19 -32 20 -14 24
-14 24 -2 0 8 -4 18 -10 21 -5 3 -10 12 -10 18 0 7 14 -4 30 -23 30 -35 43
-31 15 6 -28 38 -14 37 20 -2 19 -21 34 -34 35 -28 0 6 -9 19 -20 29 -23 21
-28 44 -5 25 12 -10 15 -10 15 1 1 8 22 -8 47 -36 36 -39 42 -43 30 -20 -8 17
-25 40 -36 52 l-21 22 21 6 c16 6 33 -4 72 -41 34 -33 42 -38 23 -15 -15 18
-24 36 -20 40 4 3 9 0 11 -6 3 -7 9 -13 15 -13 6 0 3 9 -7 20 -12 13 -21 17
-25 10 -5 -7 -11 -6 -19 4 -20 23 29 17 57 -7 12 -11 22 -16 22 -12 0 5 14 -6
31 -25 l30 -35 -31 48 c-17 26 -35 45 -40 42 -5 -3 -11 -2 -14 3 -8 13 27 11
43 -2 12 -9 13 -7 7 9 -5 13 7 7 36 -20 23 -22 34 -29 22 -15 -44 55 -50 66
-19 40 l29 -25 -19 30 -18 30 21 -19 c12 -11 22 -24 22 -31 0 -7 10 -20 23
-31 22 -19 22 -19 6 1 -9 11 -20 31 -24 45 -6 23 -4 22 25 -10 17 -19 28 -28
24 -20 -12 25 -46 60 -55 55 -4 -3 -10 -2 -13 3 -3 5 3 9 12 9 9 0 42 -23 72
-51 l54 -51 -47 52 c-69 76 -62 81 18 14 20 -18 17 -12 -10 17 -47 50 -39 54
19 10 39 -31 32 -12 -9 24 -11 10 -15 17 -8 18 7 0 38 -21 70 -46 l58 -47 -48
50 c-37 38 -45 52 -34 56 9 3 21 -2 29 -11 11 -13 11 -14 -1 -7 -10 5 -12 4
-7 -4 4 -6 11 -9 16 -6 5 3 12 -1 17 -9 4 -7 24 -26 43 -42 30 -25 29 -22 -12
26 -71 81 -64 89 17 21 29 -25 29 -25 -2 9 -39 42 -42 56 -10 39 19 -11 20
-10 10 3 -11 12 -9 14 7 13 11 -1 39 -19 62 -41 l42 -39 -38 43 c-42 49 -41
69 1 31 20 -17 23 -18 10 -3 -19 23 -22 34 -7 34 5 0 20 -17 33 -37z m-843
-183 c0 -5 -2 -10 -4 -10 -3 0 -8 5 -11 10 -3 6 -1 10 4 10 6 0 11 -4 11 -10z
m-880 -34 c0 -3 -4 -8 -10 -11 -5 -3 -10 -1 -10 4 0 6 5 11 10 11 6 0 10 -2
10 -4z m25 -16 c-3 -5 -11 -10 -16 -10 -6 0 -7 5 -4 10 3 6 11 10 16 10 6 0 7
-4 4 -10z m2295 -820 c59 -80 88 -132 105 -190 l7 -25 -21 28 c-20 24 -51 37
-51 21 0 -3 15 -24 34 -46 46 -54 104 -198 80 -198 -4 0 -22 14 -41 31 -43 37
-57 30 -18 -8 49 -49 68 -107 73 -223 2 -58 0 -121 -5 -140 -9 -32 -10 -28
-17 48 -4 46 -14 100 -21 120 l-14 37 7 -50 c13 -92 7 -267 -12 -347 -15 -69
-72 -205 -82 -196 -2 2 5 31 15 63 10 33 21 83 25 110 5 43 2 37 -23 -40 -41
-129 -64 -173 -132 -253 -43 -52 -64 -70 -79 -67 -11 2 -22 0 -25 -6 -4 -5
-11 -9 -17 -9 -6 0 -3 9 7 20 11 12 21 16 25 11 12 -21 138 165 155 229 3 14
-8 -2 -26 -35 -45 -85 -82 -134 -138 -182 -55 -47 -67 -53 -51 -24 15 29 12
39 -5 15 -8 -13 -24 -21 -37 -20 -13 1 -29 -2 -35 -7 -8 -6 -13 -6 -13 1 0 6
5 14 10 17 6 3 10 11 10 17 0 6 -10 -1 -21 -16 -12 -15 -24 -25 -27 -22 -3 3
-11 1 -19 -5 -18 -15 -17 2 2 27 8 10 15 23 15 29 0 5 -11 -7 -25 -28 -14 -20
-31 -37 -37 -37 -6 0 -4 10 6 23 9 12 23 36 32 52 l15 30 -21 -25 c-11 -14
-28 -37 -37 -52 -10 -16 -21 -28 -26 -28 -9 0 -4 10 25 52 18 27 18 27 -2 23
-24 -5 -25 3 -5 29 8 11 15 27 14 35 0 14 -1 14 -6 1 -3 -8 -14 -26 -23 -40
-10 -14 -16 -37 -15 -52 2 -15 -3 -35 -11 -45 -13 -17 -14 -17 -8 2 6 20 5 20
-10 1 -9 -11 -16 -15 -16 -10 0 6 5 15 10 20 6 6 12 19 14 30 2 10 14 48 25
83 12 35 20 65 18 68 -3 2 -12 -17 -21 -44 -16 -46 -45 -105 -46 -92 0 4 7 22
15 42 8 19 16 50 19 68 3 19 10 54 16 78 6 24 9 46 6 48 -2 2 -7 -11 -11 -29
-3 -18 -13 -48 -21 -66 -8 -18 -12 -37 -9 -42 3 -5 1 -18 -4 -27 -8 -14 -10
-15 -11 -3 0 13 -1 13 -11 0 -9 -13 -10 -13 -5 0 26 76 47 152 44 155 -2 3
-12 -20 -22 -51 -33 -105 -26 -47 8 72 54 183 84 268 95 272 6 2 11 12 11 23
0 11 15 81 34 157 51 205 73 308 87 396 8 54 15 74 19 60 4 -10 6 10 4 46 -2
36 -6 119 -9 185 -3 66 -8 138 -11 160 l-6 40 104 -105 c58 -58 133 -143 168
-190z m-3600 220 c-6 -19 -13 -89 -16 -155 -8 -139 1 -204 52 -378 19 -66 31
-124 27 -129 -3 -6 -1 -8 4 -5 7 5 21 -36 38 -111 15 -64 31 -119 35 -122 4
-3 11 -32 15 -65 6 -43 10 -53 14 -37 5 18 13 2 39 -72 17 -52 32 -102 32
-111 0 -9 5 -13 10 -10 7 4 9 -3 5 -22 -5 -19 -3 -24 3 -15 10 14 22 -22 42
-131 6 -31 15 -55 18 -53 4 2 8 -10 8 -27 l1 -30 -14 26 c-7 15 -20 55 -27 89
-8 35 -14 54 -15 43 -2 -38 28 -134 59 -189 17 -30 30 -58 28 -62 -1 -5 3 -19
10 -31 24 -43 3 -23 -43 41 -25 35 -55 88 -67 117 -12 30 -25 59 -30 64 -16
17 32 -97 69 -165 29 -55 31 -60 9 -35 -26 31 -34 28 -16 -6 6 -10 9 -19 7
-19 -5 0 -56 76 -74 110 -11 22 -13 23 -13 5 -1 -20 -1 -20 -15 -1 -21 28 -19
12 5 -34 31 -61 23 -61 -15 0 -39 61 -46 61 -14 -1 23 -47 7 -43 -22 5 -10 17
-19 26 -19 21 0 -6 7 -21 16 -33 20 -29 10 -43 -12 -16 -15 19 -16 19 -9 0 6
-20 5 -20 -15 -1 -15 14 -19 15 -15 4 6 -17 -19 -20 -43 -5 -6 4 -12 3 -12 -2
0 -14 -104 -9 -122 5 -8 7 -17 10 -20 8 -3 -3 -29 20 -57 51 -58 63 -124 191
-142 274 -14 63 -30 92 -19 33 11 -59 29 -119 50 -171 24 -57 2 -33 -35 38
-54 106 -77 207 -83 360 -4 107 -8 135 -13 105 -4 -22 -8 -67 -9 -100 -1 -88
-16 -50 -25 61 -10 136 7 225 52 275 41 45 40 48 -7 14 -18 -14 -35 -23 -37
-21 -8 8 50 144 82 194 22 32 30 52 22 52 -7 0 -19 -6 -26 -12 -38 -36 53 106
116 181 65 76 234 243 240 237 2 -1 -2 -18 -7 -36z m2481 -623 c-10 -9 -11 -8
-5 6 3 10 9 15 12 12 3 -3 0 -11 -7 -18z m-146 -137 c-16 -16 -31 -28 -34 -25
-2 3 8 19 24 35 16 16 31 28 34 25 2 -3 -8 -19 -24 -35z m-220 -186 l-15 -39
6 35 c7 38 14 54 20 47 2 -2 -3 -21 -11 -43z m-148 -376 c-3 -8 -6 -5 -6 6 -1
11 2 17 5 13 3 -3 4 -12 1 -19z m-1718 -253 c0 -5 -8 6 -19 25 -11 19 -19 40
-19 45 0 6 8 -6 19 -25 11 -19 19 -39 19 -45z m2910 53 c-5 -10 -11 -18 -12
-18 -2 0 -3 8 -3 18 0 10 6 19 13 19 8 0 9 -6 2 -19z m-3029 -119 c84 -13 184
-60 226 -106 l33 -36 -24 -29 c-14 -16 -30 -48 -36 -71 -6 -23 -15 -50 -20
-59 -5 -10 -10 -37 -11 -60 -1 -41 -1 -41 -5 -8 -4 34 4 74 33 153 15 41 11
49 -7 15 -13 -24 -26 -69 -39 -133 l-7 -40 -1 40 c-1 22 7 65 18 95 25 73 18
77 -9 5 -13 -34 -21 -79 -21 -117 l0 -62 -25 34 c-14 19 -26 45 -26 59 -2 22
-2 23 -6 5 -2 -12 3 -38 11 -58 8 -20 11 -34 5 -30 -6 3 -17 20 -25 38 -7 17
-13 25 -14 18 0 -7 7 -27 16 -43 l15 -30 -108 2 c-82 2 -113 6 -127 18 -12 10
-16 11 -12 3 6 -10 1 -10 -22 2 -64 33 -88 168 -44 256 25 51 22 63 -6 23 -34
-48 -45 -100 -40 -188 l4 -83 -46 23 c-86 43 -105 148 -46 249 61 104 188 144
366 115z m3327 -13 c90 -46 144 -126 144 -210 0 -78 -33 -133 -90 -151 -21 -6
-23 -5 -17 11 15 38 18 125 7 166 -7 24 -26 59 -42 78 l-29 35 25 -55 c33 -74
34 -149 1 -210 -15 -28 -31 -45 -43 -46 -10 0 -29 -6 -42 -13 -14 -8 -64 -16
-112 -19 -88 -5 -88 -5 -82 18 3 13 2 21 -3 18 -5 -4 -8 17 -7 45 1 29 -1 41
-4 27 -2 -14 -9 -29 -14 -35 -5 -5 -9 -17 -9 -27 0 -10 -4 -18 -8 -18 -5 0 -7
28 -6 63 l3 62 -9 -53 c-11 -75 -20 -76 -21 -1 l-2 64 -7 -58 c-11 -84 -20
-82 -20 4 0 50 -5 82 -15 95 -13 18 -14 18 -9 -6 5 -22 3 -21 -15 8 -12 18
-22 38 -24 45 -1 7 -6 15 -12 19 -16 12 56 77 120 109 112 55 272 72 342 35z
m-1884 -81 l6 -30 -14 30 c-8 17 -14 39 -14 50 l0 20 8 -20 c4 -11 11 -33 14
-50z m104 3 c-3 -8 -6 -5 -6 6 -1 11 2 17 5 13 3 -3 4 -12 1 -19z m60 -10 c-3
-7 -5 -2 -5 12 0 14 2 19 5 13 2 -7 2 -19 0 -25z m-1363 -114 c-9 -21 -20 -61
-24 -89 -5 -36 -9 -45 -14 -32 -12 25 2 98 25 136 26 43 34 35 13 -15z m2683
-121 c-2 -16 -4 -3 -4 27 0 30 2 43 4 28 2 -16 2 -40 0 -55z m-2740 -45 c-3
-8 -6 -5 -6 6 -1 11 2 17 5 13 3 -3 4 -12 1 -19z m1869 -116 c-5 -5 -26 59
-25 77 0 9 7 -4 14 -29 8 -24 13 -46 11 -48z m-69 -14 c-3 -8 -6 -5 -6 6 -1
11 2 17 5 13 3 -3 4 -12 1 -19z"/>
<path d="M2621 8384 c0 -11 3 -14 6 -6 3 7 2 16 -1 19 -3 4 -6 -2 -5 -13z"/>
<path d="M2661 8230 c0 -8 4 -24 9 -35 5 -13 9 -14 9 -5 0 8 -4 24 -9 35 -5
13 -9 14 -9 5z"/>
<path d="M3721 7974 c0 -11 3 -14 6 -6 3 7 2 16 -1 19 -3 4 -6 -2 -5 -13z"/>
<path d="M3731 7904 c0 -11 3 -14 6 -6 3 7 2 16 -1 19 -3 4 -6 -2 -5 -13z"/>
<path d="M3761 7880 c0 -8 4 -24 9 -35 5 -13 9 -14 9 -5 0 8 -4 24 -9 35 -5
13 -9 14 -9 5z"/>
<path d="M3741 7870 c0 -8 4 -24 9 -35 5 -13 9 -14 9 -5 0 8 -4 24 -9 35 -5
13 -9 14 -9 5z"/>
<path d="M3781 7814 c-1 -6 8 -37 20 -70 11 -32 26 -88 34 -124 8 -40 13 -54
14 -35 1 40 -66 265 -68 229z"/>
<path d="M3761 7794 c0 -11 3 -14 6 -6 3 7 2 16 -1 19 -3 4 -6 -2 -5 -13z"/>
<path d="M3801 7664 c0 -11 3 -14 6 -6 3 7 2 16 -1 19 -3 4 -6 -2 -5 -13z"/>
<path d="M3812 7620 c0 -14 2 -19 5 -12 2 6 2 18 0 25 -3 6 -5 1 -5 -13z"/>
<path d="M3000 7580 c6 -11 13 -20 16 -20 2 0 0 9 -6 20 -6 11 -13 20 -16 20
-2 0 0 -9 6 -20z"/>
<path d="M3035 7526 c10 -14 19 -26 22 -26 7 0 -17 39 -28 46 -6 3 -3 -5 6
-20z"/>
<path d="M3834 7460 c3 -19 11 -69 16 -110 6 -41 15 -91 20 -110 l10 -35 -5
40 c-8 80 -35 238 -41 244 -4 3 -4 -10 0 -29z"/>
<path d="M3117 7406 c21 -30 39 -53 41 -51 4 4 -68 105 -75 105 -2 0 13 -24
34 -54z"/>
<path d="M3852 7230 c0 -14 4 -36 8 -50 6 -20 8 -21 8 -5 0 11 -4 34 -8 50 -7
27 -8 27 -8 5z"/>
<path d="M3335 7193 c8 -18 18 -33 20 -33 10 0 4 16 -16 40 l-20 25 16 -32z"/>
<path d="M3824 7133 c0 -29 4 -46 9 -38 4 7 3 31 -2 52 -9 38 -9 38 -7 -14z"/>
<path d="M3842 7160 c0 -14 2 -19 5 -12 2 6 2 18 0 25 -3 6 -5 1 -5 -13z"/>
<path d="M3850 7094 c0 -21 4 -45 9 -53 5 -8 7 5 4 35 -7 61 -13 70 -13 18z"/>
<path d="M3740 6987 c0 -13 41 -89 46 -84 2 2 -7 24 -21 48 -13 24 -25 40 -25
36z"/>
<path d="M3755 6840 c9 -16 18 -30 21 -30 2 0 -2 14 -11 30 -9 17 -18 30 -21
30 -2 0 2 -13 11 -30z"/>
<path d="M3736 6597 c3 -10 9 -15 12 -12 3 3 0 11 -7 18 -10 9 -11 8 -5 -6z"/>
<path d="M3716 6577 c3 -10 9 -15 12 -12 3 3 0 11 -7 18 -10 9 -11 8 -5 -6z"/>
<path d="M7238 8964 c-95 -17 -179 -48 -305 -113 -155 -80 -349 -216 -423
-297 -14 -14 13 4 60 41 161 130 362 249 525 311 39 14 120 37 180 49 119 25
90 32 -37 9z"/>
<path d="M7402 8475 c0 -16 2 -22 5 -12 2 9 2 23 0 30 -3 6 -5 -1 -5 -18z"/>
<path d="M7386 8394 c-4 -20 -5 -38 -3 -40 3 -3 8 11 11 32 4 20 5 38 3 40 -3
3 -8 -11 -11 -32z"/>
<path d="M6395 8274 c-9 -15 -12 -23 -6 -20 11 7 35 46 28 46 -3 0 -12 -12
-22 -26z"/>
<path d="M6262 7995 c-17 -37 -14 -45 4 -12 9 16 14 31 11 33 -2 2 -9 -7 -15
-21z"/>
<path d="M6193 7867 c-24 -36 -67 -172 -59 -190 2 -7 5 -1 5 13 1 20 3 22 12
10 8 -12 9 -11 5 6 -7 22 25 123 50 162 9 13 14 25 12 27 -2 2 -13 -11 -25
-28z"/>
<path d="M6182 7783 c-6 -20 -7 -32 -2 -27 10 10 25 64 18 64 -3 0 -10 -16
-16 -37z"/>
<path d="M6185 7739 c-4 -6 -5 -12 -2 -15 2 -3 7 2 10 11 7 17 1 20 -8 4z"/>
<path d="M6165 7680 c-4 -17 -5 -34 -2 -36 2 -3 7 10 11 27 3 18 4 34 2 36 -2
3 -7 -10 -11 -27z"/>
<path d="M6191 7684 c0 -11 3 -14 6 -6 3 7 2 16 -1 19 -3 4 -6 -2 -5 -13z"/>
<path d="M6152 7480 c0 -14 2 -19 5 -12 2 6 2 18 0 25 -3 6 -5 1 -5 -13z"/>
<path d="M6141 7374 c0 -11 3 -14 6 -6 3 7 2 16 -1 19 -3 4 -6 -2 -5 -13z"/>
<path d="M6132 7285 c0 -16 2 -22 5 -12 2 9 2 23 0 30 -3 6 -5 -1 -5 -18z"/>
<path d="M6123 7165 c0 -44 2 -61 4 -37 2 23 2 59 0 80 -2 20 -4 1 -4 -43z"/>
<path d="M6152 7215 c0 -16 2 -22 5 -12 2 9 2 23 0 30 -3 6 -5 -1 -5 -18z"/>
<path d="M6142 7110 c0 -14 2 -19 5 -12 2 6 2 18 0 25 -3 6 -5 1 -5 -13z"/>
<path d="M6479 7043 c-13 -16 -12 -17 4 -4 9 7 17 15 17 17 0 8 -8 3 -21 -13z"/>
<path d="M6211 7024 c0 -11 3 -14 6 -6 3 7 2 16 -1 19 -3 4 -6 -2 -5 -13z"/>
<path d="M6182 6870 c-15 -25 -15 -33 0 -24 8 5 9 2 5 -10 -5 -11 -3 -15 5
-10 8 5 9 1 5 -12 -7 -18 -6 -18 9 1 8 11 20 29 25 40 8 15 4 13 -11 -5 -16
-18 -20 -20 -16 -7 4 12 2 16 -5 11 -8 -4 -9 1 -4 15 8 26 3 27 -13 1z"/>
<path d="M4058 6153 c6 -2 18 -2 25 0 6 3 1 5 -13 5 -14 0 -19 -2 -12 -5z"/>
<path d="M4008 6143 c7 -3 16 -2 19 1 4 3 -2 6 -13 5 -11 0 -14 -3 -6 -6z"/>
<path d="M5828 6143 c6 -2 18 -2 25 0 6 3 1 5 -13 5 -14 0 -19 -2 -12 -5z"/>
<path d="M4056 5935 c18 -14 17 -15 -11 -10 -16 3 -24 2 -17 -1 9 -4 5 -10
-13 -20 -23 -12 -31 -12 -58 1 -30 15 -31 15 -9 -1 30 -23 28 -36 -5 -23 l-27
10 19 -22 c18 -20 18 -22 3 -16 -16 6 -23 -3 -19 -25 1 -11 -5 -10 -44 6 -47
20 -44 13 8 -18 l42 -26 -30 0 c-17 0 -42 7 -55 17 -22 15 -22 13 4 -15 24
-26 26 -32 13 -37 -8 -4 -26 -1 -39 6 -23 12 -23 12 -4 -10 11 -11 25 -21 33
-21 7 0 13 -4 13 -10 0 -17 -33 -11 -70 11 -26 16 -31 17 -20 5 25 -31 71 -48
111 -43 l38 5 -14 -28 c-16 -31 -39 -203 -30 -230 3 -10 6 -34 7 -54 1 -21 9
-43 20 -52 22 -21 24 -38 2 -30 -8 3 -12 2 -9 -4 3 -6 16 -10 28 -10 18 0 19
-2 7 -10 -12 -8 -11 -10 7 -10 12 0 28 -6 35 -13 20 -20 53 -27 173 -36 116
-9 149 -20 199 -66 28 -26 29 -26 22 -3 -6 22 -12 76 -36 317 -25 249 -137
367 -296 312 -69 -25 -74 -25 -74 -8 0 15 45 59 77 76 34 17 112 13 158 -9 40
-19 105 -93 124 -141 5 -13 10 -17 10 -9 1 31 -49 120 -90 160 -54 53 -131 99
-137 82 -3 -9 -9 -8 -25 3 -28 20 -47 19 -21 0z m-89 -252 c-47 -89 -42 -228
11 -313 40 -65 89 -90 182 -90 74 -1 74 -1 46 -16 -34 -19 -109 -20 -166 -3
-50 15 -114 82 -129 135 -26 94 -4 261 40 305 27 27 34 18 16 -18z m197 -25
c22 -31 20 -74 -4 -98 -26 -26 -51 -25 -84 1 -50 39 -24 119 39 119 24 0 39
-7 49 -22z"/>
<path d="M5838 5930 c-14 -10 -28 -17 -31 -14 -2 3 -29 -14 -58 -38 -55 -45
-111 -136 -125 -203 -3 -19 6 -6 25 33 39 79 91 128 159 148 42 13 59 13 88 4
35 -12 104 -65 104 -80 0 -18 -44 -18 -68 1 -63 49 -193 -5 -242 -100 -37 -73
-60 -168 -71 -285 -6 -67 -16 -149 -23 -183 -7 -35 -11 -63 -10 -63 1 0 26 14
54 32 44 27 63 32 150 39 112 9 310 60 269 69 -21 5 -22 7 -6 13 10 4 28 8 40
8 14 1 9 4 -11 8 l-33 6 21 23 c11 12 17 22 12 22 -5 0 -7 25 -4 56 5 62 -13
192 -34 242 l-13 33 33 -6 c34 -7 85 10 121 39 17 14 14 14 -19 -1 -30 -14
-40 -15 -43 -5 -3 6 -12 12 -21 12 -13 0 -12 3 4 15 18 14 18 14 -11 15 -26 1
-27 2 -10 10 11 4 34 23 50 41 17 17 23 28 15 23 -8 -5 -19 -9 -25 -9 -5 0
-26 -9 -45 -19 -33 -18 -34 -18 -20 -1 14 17 13 17 -10 12 l-25 -7 26 13 c33
15 59 37 59 49 0 5 -12 0 -27 -11 -16 -11 -39 -22 -53 -26 -22 -6 -21 -4 6 13
43 28 54 48 12 22 -47 -29 -70 -26 -33 5 l30 25 -44 -15 c-39 -13 -42 -13 -31
0 11 13 10 14 -4 9 -19 -7 -22 12 -3 20 6 3 -14 5 -46 3 -48 -2 -55 0 -40 11
14 10 15 12 1 12 -8 0 -27 -9 -40 -20z m277 -120 c-10 -11 -25 -20 -34 -20
-10 0 -5 8 14 20 38 25 43 25 20 0z m-90 -162 c47 -106 41 -239 -14 -316 -52
-71 -164 -102 -246 -68 -19 8 -35 17 -35 19 0 3 33 4 73 3 41 0 85 5 102 12
40 18 92 84 107 135 16 59 13 175 -6 221 -18 43 -18 46 -10 46 3 0 16 -24 29
-52z m-105 22 c24 -24 26 -77 3 -102 -20 -22 -70 -23 -95 -1 -26 23 -23 69 7
98 29 30 58 32 85 5z"/>
<path d="M3887 5849 c7 -7 15 -10 18 -7 3 3 -2 9 -12 12 -14 6 -15 5 -6 -5z"/>
<path d="M4332 5650 c0 -14 2 -19 5 -12 2 6 2 18 0 25 -3 6 -5 1 -5 -13z"/>
<path d="M4410 4856 c0 -3 9 -10 20 -16 11 -6 20 -8 20 -6 0 3 -9 10 -20 16
-11 6 -20 8 -20 6z"/>
<path d="M6635 4840 c10 -11 20 -20 23 -20 3 0 -3 9 -13 20 -10 11 -20 20 -23
20 -3 0 3 -9 13 -20z"/>
<path d="M3325 4719 c-4 -6 -5 -12 -2 -15 2 -3 7 2 10 11 7 17 1 20 -8 4z"/>
<path d="M6240 4136 c0 -2 8 -10 18 -17 15 -13 16 -12 3 4 -13 16 -21 21 -21
13z"/>
<path d="M3904 4028 l-19 -21 28 18 c28 18 33 25 19 25 -5 0 -17 -10 -28 -22z"/>
<path d="M5920 4022 c0 -5 12 -19 27 -33 l27 -24 -23 33 c-23 32 -31 39 -31
24z"/>
<path d="M5777 4003 c10 -10 24 -25 31 -33 12 -13 13 -13 6 0 -11 23 -36 50
-46 50 -5 0 -1 -8 9 -17z"/>
<path d="M6150 3985 c19 -19 36 -35 39 -35 3 0 -10 16 -29 35 -19 19 -36 35
-39 35 -3 0 10 -16 29 -35z"/>
<path d="M4149 3973 c-34 -36 -74 -89 -53 -68 24 23 96 105 92 105 -2 0 -20
-17 -39 -37z"/>
<path d="M3799 3973 l-24 -28 28 24 c25 23 32 31 24 31 -2 0 -14 -12 -28 -27z"/>
<path d="M3859 3973 l-24 -28 28 24 c15 14 27 26 27 28 0 8 -8 1 -31 -24z"/>
<path d="M4300 3948 c-29 -38 -30 -40 -6 -18 25 23 52 60 43 60 -2 0 -19 -19
-37 -42z"/>
<path d="M5720 3983 c0 -5 14 -21 30 -37 29 -27 30 -27 20 -4 -11 24 -50 55
-50 41z"/>
<path d="M5560 3954 c0 -3 11 -22 25 -42 30 -45 33 -37 4 12 -20 34 -29 43
-29 30z"/>
<path d="M3989 3933 c-13 -16 -12 -17 4 -4 16 13 21 21 13 21 -2 0 -10 -8 -17
-17z"/>
<path d="M5680 3927 c0 -5 9 -20 20 -34 11 -14 20 -22 20 -17 -1 12 -39 61
-40 51z"/>
<path d="M4340 3900 c-6 -11 -8 -20 -6 -20 3 0 10 9 16 20 6 11 8 20 6 20 -3
0 -10 -9 -16 -20z"/>
<path d="M4361 3883 c-10 -26 -10 -27 4 -9 8 11 15 23 15 28 0 15 -7 8 -19
-19z"/>
<path d="M4641 3896 c-7 -8 -16 -27 -20 -43 -5 -15 -12 -37 -16 -48 -9 -27 24
30 41 72 15 35 13 41 -5 19z"/>
<path d="M4560 3858 c-12 -22 -12 -22 6 -6 10 10 15 20 12 24 -4 3 -12 -5 -18
-18z"/>
<path d="M4692 3853 c-17 -30 -15 -41 3 -17 9 12 14 14 15 6 0 -15 20 -6 20 9
0 6 -4 8 -9 5 -5 -4 -11 0 -13 6 -3 8 -9 5 -16 -9z"/>
<path d="M4275 3849 c-4 -6 -5 -12 -2 -15 2 -3 7 2 10 11 7 17 1 20 -8 4z"/>
<path d="M4721 3784 c0 -11 3 -14 6 -6 3 7 2 16 -1 19 -3 4 -6 -2 -5 -13z"/>
<path d="M5221 3764 c0 -11 3 -14 6 -6 3 7 2 16 -1 19 -3 4 -6 -2 -5 -13z"/>
<path d="M5091 3724 c0 -11 3 -14 6 -6 3 7 2 16 -1 19 -3 4 -6 -2 -5 -13z"/>
<path d="M5013 3675 c0 -33 2 -45 4 -27 2 18 2 45 0 60 -2 15 -4 0 -4 -33z"/>
<path d="M5231 3664 c0 -11 3 -14 6 -6 3 7 2 16 -1 19 -3 4 -6 -2 -5 -13z"/>
<path d="M6401 3590 c-1 -3 6 -37 14 -75 8 -39 14 -90 13 -115 0 -25 -3 -35
-5 -22 -9 45 -22 20 -16 -30 10 -87 21 -112 22 -50 1 37 4 51 12 46 17 -10 2
123 -21 194 -10 32 -18 55 -19 52z"/>
<path d="M3595 3548 c-2 -7 -13 -38 -25 -68 -11 -31 -20 -77 -19 -105 l1 -50
13 65 c6 36 19 89 28 118 9 28 14 52 11 52 -2 0 -7 -6 -9 -12z"/>
<path d="M3552 3490 c0 -14 2 -19 5 -12 2 6 2 18 0 25 -3 6 -5 1 -5 -13z"/>
<path d="M3650 3405 c-7 -9 -15 -39 -17 -68 l-3 -52 13 45 c7 25 17 55 21 68
9 26 4 28 -14 7z"/>
<path d="M6305 3376 c3 -10 13 -48 21 -83 9 -34 20 -63 24 -63 11 0 -8 77 -31
125 -10 22 -17 31 -14 21z"/>
<path d="M3680 3370 c-1 -3 -8 -59 -15 -125 l-14 -120 3 89 c1 50 -1 81 -5 70
-17 -43 -2 -224 19 -238 4 -2 6 26 6 62 -1 37 0 54 2 37 7 -44 34 -138 39
-133 3 2 0 31 -6 64 -6 32 -14 113 -18 179 -4 66 -9 118 -11 115z"/>
<path d="M6301 3260 c-2 -80 -13 -163 -21 -150 -4 6 -10 -15 -14 -46 -4 -32
-9 -70 -12 -84 -6 -25 -6 -25 9 -4 9 11 21 43 27 70 18 78 21 82 31 59 5 -12
6 18 2 75 -7 113 -21 163 -22 80z"/>
<path d="M3402 3260 c0 -14 2 -19 5 -12 2 6 2 18 0 25 -3 6 -5 1 -5 -13z"/>
<path d="M6198 3084 c-9 -65 -26 -141 -37 -168 -12 -27 -19 -51 -17 -54 3 -2
13 14 22 37 9 22 20 39 24 36 12 -7 32 134 28 204 -3 64 -3 63 -20 -55z"/>
<path d="M3767 3161 c-10 -50 -7 -131 7 -176 l13 -40 -4 65 -3 65 19 -60 c22
-72 49 -135 57 -135 4 0 4 8 1 18 -3 9 -18 62 -35 117 -16 55 -34 118 -39 140
l-9 40 -7 -34z"/>
<path d="M3921 3021 c-2 -80 55 -220 106 -263 14 -11 15 -10 8 12 -4 14 -18
50 -32 80 -15 30 -39 89 -54 130 -24 64 -28 70 -28 41z"/>
<path d="M6115 3028 c-2 -7 -16 -62 -30 -123 -14 -60 -28 -119 -31 -130 -2
-11 11 10 30 46 27 51 36 84 42 143 6 68 1 98 -11 64z"/>
<path d="M6011 2958 c-12 -50 -80 -170 -120 -213 -31 -34 -71 -90 -71 -100 0
-3 19 15 41 42 53 61 53 62 46 38 -12 -33 49 45 82 106 18 33 33 79 37 112 8
67 1 74 -15 15z"/>
<path d="M6222 2955 c0 -16 2 -22 5 -12 2 9 2 23 0 30 -3 6 -5 -1 -5 -18z"/>
<path d="M3871 2945 c-1 -19 54 -125 64 -125 3 0 -8 26 -23 58 -16 31 -32 64
-35 72 -4 11 -6 9 -6 -5z"/>
<path d="M4031 2820 c19 -36 40 -65 47 -65 7 0 29 -18 48 -40 l36 -40 -39 56
c-21 31 -58 78 -82 105 l-44 49 34 -65z m49 -51 c0 -6 -4 -7 -10 -4 -5 3 -10
11 -10 16 0 6 5 7 10 4 6 -3 10 -11 10 -16z"/>
<path d="M6010 2800 c-42 -93 -34 -101 10 -10 19 38 31 72 28 75 -3 3 -20 -27
-38 -65z"/>
<path d="M5605 2609 c-4 -6 -5 -12 -2 -15 2 -3 7 2 10 11 7 17 1 20 -8 4z"/>
<path d="M5291 2304 c0 -11 3 -14 6 -6 3 7 2 16 -1 19 -3 4 -6 -2 -5 -13z"/>
<path d="M4761 2284 c0 -11 3 -14 6 -6 3 7 2 16 -1 19 -3 4 -6 -2 -5 -13z"/>
<path d="M5277 2251 c-4 -18 -7 -43 -6 -55 1 -11 5 -1 10 24 5 25 7 49 6 55
-2 5 -7 -5 -10 -24z"/>
<path d="M4791 2174 c0 -11 3 -14 6 -6 3 7 2 16 -1 19 -3 4 -6 -2 -5 -13z"/>
<path d="M5263 2135 c0 -22 2 -30 4 -17 2 12 2 30 0 40 -3 9 -5 -1 -4 -23z"/>
<path d="M4807 2105 c3 -27 7 -52 9 -54 7 -8 2 54 -6 79 -6 17 -7 9 -3 -25z"/>
<path d="M5182 2125 c0 -16 2 -22 5 -12 2 9 2 23 0 30 -3 6 -5 -1 -5 -18z"/>
<path d="M5172 2040 c0 -14 2 -19 5 -12 2 6 2 18 0 25 -3 6 -5 1 -5 -13z"/>
<path d="M5431 1234 c0 -11 3 -14 6 -6 3 7 2 16 -1 19 -3 4 -6 -2 -5 -13z"/>
<path d="M6502 2020 c0 -14 2 -19 5 -12 2 6 2 18 0 25 -3 6 -5 1 -5 -13z"/>
<path d="M6491 1974 c0 -11 3 -14 6 -6 3 7 2 16 -1 19 -3 4 -6 -2 -5 -13z"/>
<path d="M6546 1903 c-6 -14 -5 -15 5 -6 7 7 10 15 7 18 -3 3 -9 -2 -12 -12z"/>
<path d="M6521 1857 c-13 -21 -12 -21 5 -5 10 10 16 20 13 22 -3 3 -11 -5 -18
-17z"/>
<path d="M6580 1800 c-6 -11 -8 -20 -6 -20 3 0 10 9 16 20 6 11 8 20 6 20 -3
0 -10 -9 -16 -20z"/>
<path d="M6635 1799 c-4 -6 -5 -12 -2 -15 2 -3 7 2 10 11 7 17 1 20 -8 4z"/>
<path d="M6779 1793 c-13 -16 -12 -17 4 -4 9 7 17 15 17 17 0 8 -8 3 -21 -13z"/>
<path d="M3342 2650 c0 -14 2 -19 5 -12 2 6 2 18 0 25 -3 6 -5 1 -5 -13z"/>
<path d="M2941 2534 c0 -11 3 -14 6 -6 3 7 2 16 -1 19 -3 4 -6 -2 -5 -13z"/>
<path d="M3432 2450 c0 -14 2 -19 5 -12 2 6 2 18 0 25 -3 6 -5 1 -5 -13z"/>
<path d="M3501 2264 c0 -11 3 -14 6 -6 3 7 2 16 -1 19 -3 4 -6 -2 -5 -13z"/>
<path d="M3521 2154 c0 -11 3 -14 6 -6 3 7 2 16 -1 19 -3 4 -6 -2 -5 -13z"/>
<path d="M3551 2114 c0 -11 3 -14 6 -6 3 7 2 16 -1 19 -3 4 -6 -2 -5 -13z"/>
<path d="M3501 2074 c0 -11 3 -14 6 -6 3 7 2 16 -1 19 -3 4 -6 -2 -5 -13z"/>
<path d="M3561 2074 c0 -11 3 -14 6 -6 3 7 2 16 -1 19 -3 4 -6 -2 -5 -13z"/>
<path d="M3591 2054 c0 -11 3 -14 6 -6 3 7 2 16 -1 19 -3 4 -6 -2 -5 -13z"/>
<path d="M3570 2010 c0 -51 92 -271 107 -256 3 2 -11 33 -30 68 -20 35 -43 92
-52 128 -17 65 -25 85 -25 60z"/>
<path d="M3150 1933 c18 -32 43 -73 57 -91 13 -18 21 -38 17 -45 -4 -6 -3 -9
1 -4 5 4 17 0 27 -10 30 -27 20 -5 -21 47 -22 27 -54 75 -71 105 -17 30 -34
55 -37 55 -3 0 10 -26 27 -57z"/>
<path d="M3536 1977 c3 -10 9 -15 12 -12 3 3 0 11 -7 18 -10 9 -11 8 -5 -6z"/>
<path d="M3550 1879 c27 -66 50 -112 56 -106 5 4 -65 157 -72 157 -2 0 5 -23
16 -51z"/>
<path d="M3466 1877 c3 -10 9 -15 12 -12 3 3 0 11 -7 18 -10 9 -11 8 -5 -6z"/>
<path d="M3400 1821 c0 -6 4 -13 10 -16 6 -3 7 1 4 9 -7 18 -14 21 -14 7z"/>
<path d="M3430 1821 c0 -6 4 -13 10 -16 6 -3 7 1 4 9 -7 18 -14 21 -14 7z"/>
<path d="M3552 1370 c0 -19 2 -27 5 -17 2 9 2 25 0 35 -3 9 -5 1 -5 -18z"/>
<path d="M3572 1380 c0 -14 2 -19 5 -12 2 6 2 18 0 25 -3 6 -5 1 -5 -13z"/>
<path d="M3560 1321 c0 -5 5 -13 10 -16 6 -3 10 -2 10 4 0 5 -4 13 -10 16 -5
3 -10 2 -10 -4z"/>
<path d="M2693 5023 c9 -2 23 -2 30 0 6 3 -1 5 -18 5 -16 0 -22 -2 -12 -5z"/>
<path d="M7117 4319 c7 -7 15 -10 18 -7 3 3 -2 9 -12 12 -14 6 -15 5 -6 -5z"/>
<path d="M2734 4264 c-18 -14 -18 -15 4 -4 12 6 22 13 22 15 0 8 -5 6 -26 -11z"/>
<path d="M6998 1343 c7 -3 16 -2 19 1 4 3 -2 6 -13 5 -11 0 -14 -3 -6 -6z"/>
<path d="M2993 1303 c9 -2 25 -2 35 0 9 3 1 5 -18 5 -19 0 -27 -2 -17 -5z"/>
<path d="M2998 1283 c7 -3 16 -2 19 1 4 3 -2 6 -13 5 -11 0 -14 -3 -6 -6z"/>
<path d="M3028 1233 c6 -2 18 -2 25 0 6 3 1 5 -13 5 -14 0 -19 -2 -12 -5z"/>
<path d="M3103 1223 c15 -2 39 -2 55 0 15 2 2 4 -28 4 -30 0 -43 -2 -27 -4z"/>
</g>
</svg>
