<?xml version="1.0" standalone="no"?>
<!DOCTYPE svg PUBLIC "-//W3C//DTD SVG 20010904//EN"
 "http://www.w3.org/TR/2001/REC-SVG-20010904/DTD/svg10.dtd">
<svg version="1.0" xmlns="http://www.w3.org/2000/svg"
 width="1024.000000pt" height="1024.000000pt" viewBox="0 0 1024.000000 1024.000000"
 preserveAspectRatio="xMidYMid meet">
<metadata>
Created by potrace 1.16, written by Peter Selinger 2001-2019
</metadata>
<g transform="translate(0.000000,1024.000000) scale(0.100000,-0.100000)"
fill="#000000" stroke="none">
<path d="M6810 8084 c-88 -18 -206 -79 -313 -160 l-89 -67 -413 -2 -413 -1
-74 58 c-184 149 -423 209 -640 164 -183 -39 -332 -167 -414 -355 -47 -109
-59 -190 -45 -300 6 -47 13 -95 16 -106 4 -14 -16 -49 -64 -115 -39 -52 -118
-165 -177 -250 -167 -242 -371 -503 -609 -780 -60 -69 -161 -196 -226 -283
-108 -144 -157 -221 -353 -557 -134 -228 -205 -403 -226 -553 -6 -39 -12 -73
-15 -75 -2 -2 -24 10 -50 28 -200 138 -574 207 -910 170 -195 -22 -264 -61
-336 -190 -27 -47 -71 -117 -98 -156 -76 -107 -95 -155 -95 -244 0 -64 5 -87
36 -155 19 -44 44 -119 56 -168 39 -163 122 -311 252 -450 l72 -77 -21 -50
c-25 -59 -27 -125 -4 -182 9 -24 50 -104 90 -179 43 -80 73 -149 73 -165 0
-16 -9 -75 -19 -132 -18 -98 -21 -105 -65 -152 -39 -42 -46 -55 -46 -91 0 -55
47 -101 120 -119 61 -15 111 -7 167 26 33 19 45 33 53 64 11 42 5 65 -28 103
-21 24 -2 85 42 132 32 33 37 35 107 37 114 2 210 -3 252 -13 21 -6 71 -37
114 -72 76 -61 77 -62 78 -111 0 -42 5 -52 36 -81 35 -32 120 -60 151 -51 7 3
25 7 40 10 42 9 96 62 104 101 10 54 -19 100 -81 130 -50 25 -110 89 -99 106
10 16 80 29 157 29 86 0 233 -27 355 -64 42 -13 113 -34 157 -47 90 -26 132
-60 178 -146 l27 -52 -30 -47 c-36 -57 -38 -91 -8 -129 30 -38 76 -55 150 -55
74 0 136 26 161 69 30 50 22 84 -34 162 -15 21 -5 61 24 93 34 39 129 50 392
43 160 -4 249 -12 325 -26 270 -52 305 -61 315 -77 59 -96 163 -130 261 -85
81 37 110 107 76 184 -28 64 -70 83 -192 89 -62 4 -116 13 -155 27 -33 13
-102 37 -152 54 -51 17 -93 34 -93 38 0 13 47 19 156 19 110 0 111 0 154 -32
91 -71 156 -86 221 -53 63 33 88 124 52 186 -25 42 -93 73 -142 64 -26 -4 -48
-2 -67 8 -27 14 -27 14 39 26 53 9 657 30 897 31 l55 0 -3 -58 c-3 -51 0 -62
23 -90 49 -59 150 -68 223 -19 31 20 61 27 151 37 61 7 115 9 119 6 11 -11
-25 -33 -66 -41 -90 -17 -142 -69 -142 -142 0 -43 36 -92 83 -113 56 -26 103
-25 157 3 43 21 53 34 82 102 11 26 25 34 98 59 104 34 262 66 333 66 35 0 68
-8 97 -22 l45 -23 12 -100 13 -100 -31 -43 c-55 -77 -41 -140 41 -182 108 -55
245 -21 269 66 12 42 -10 102 -48 134 l-30 26 14 69 c18 87 55 126 141 151
105 30 243 10 554 -81 96 -28 96 -28 114 -72 10 -24 29 -52 43 -63 68 -53 177
-46 239 17 29 29 34 40 34 81 0 93 -52 139 -168 148 -45 4 -92 16 -142 38 -41
18 -86 38 -100 43 -22 9 -19 11 34 18 32 4 127 6 212 3 l153 -5 61 -41 c80
-53 133 -62 194 -32 88 42 109 147 41 214 -46 47 -102 61 -181 45 -49 -10 -74
-10 -111 -1 -26 7 -127 17 -223 22 -115 7 -240 23 -365 45 -104 19 -219 39
-255 46 -69 11 -136 41 -210 91 l-45 31 -1 241 c0 192 -5 275 -23 406 -30 226
-85 495 -125 615 -62 186 -255 577 -429 868 l-70 117 5 158 c6 180 20 233 89
338 52 80 170 192 283 269 161 109 182 129 218 202 30 62 33 75 33 163 0 90
-2 100 -43 194 -38 86 -41 100 -29 115 23 26 107 168 133 225 48 106 42 254
-17 384 -38 86 -142 192 -226 234 -35 17 -63 37 -63 44 0 29 -62 84 -113 99
-63 19 -209 18 -297 -1z m-1633 -90 c92 -20 184 -71 305 -169 l107 -86 98 -19
c54 -10 175 -26 268 -34 286 -26 582 -72 692 -107 82 -27 93 -45 94 -156 1
-48 5 -99 9 -113 5 -15 6 15 4 70 l-5 95 21 -74 c24 -88 72 -179 146 -278 60
-80 103 -110 215 -149 40 -14 83 -30 94 -35 19 -10 19 -9 2 5 -10 8 -60 29
-110 48 -74 26 -101 42 -137 79 -84 86 -190 292 -189 369 0 23 1 23 14 -7 22
-52 25 -38 4 17 -25 66 -24 92 5 119 18 17 31 21 52 16 24 -5 26 -4 12 5 -19
12 -91 3 -83 -10 2 -4 -4 -15 -15 -25 -11 -10 -20 -25 -20 -34 0 -12 -6 -9
-20 9 -26 33 -25 43 3 34 12 -3 19 -3 15 1 -4 4 -18 9 -30 11 -13 2 -57 13
-98 24 -113 31 -454 87 -640 105 -176 17 -325 41 -350 56 -15 9 -2 7 105 -11
28 -5 91 -12 140 -15 212 -15 445 -53 790 -129 39 -9 79 -15 90 -15 20 0 -54
19 -312 78 -203 47 -534 89 -712 91 -8 0 -12 2 -9 5 3 3 167 10 366 15 345 10
362 9 394 -9 18 -10 64 -26 102 -35 119 -29 253 -86 300 -127 41 -37 50 -53
99 -184 25 -65 135 -216 229 -311 94 -96 101 -106 128 -185 16 -46 28 -85 26
-87 -2 -1 -26 11 -52 28 -53 33 -144 65 -306 105 -57 14 -128 35 -158 46 -84
31 -171 34 -260 9 -134 -37 -302 -69 -425 -80 -464 -41 -763 -108 -1248 -279
-122 -43 -264 -88 -316 -101 -125 -31 -158 -65 -113 -120 16 -20 27 -23 88
-22 113 2 212 24 349 77 321 125 742 229 1090 270 187 22 517 39 562 29 32 -7
20 -9 -72 -15 -288 -17 -594 -56 -830 -105 -206 -42 -542 -152 -735 -239 -89
-40 -255 -85 -314 -85 -91 1 -158 31 -184 83 -19 38 -6 71 55 140 96 110 92
128 -8 32 -78 -75 -97 -139 -62 -212 22 -47 73 -79 157 -98 81 -19 154 -11
260 29 68 26 226 103 226 111 0 3 -35 -12 -77 -33 -108 -54 -200 -89 -253 -96
-33 -5 -22 1 38 19 45 14 113 40 150 59 118 59 297 125 323 120 16 -4 20 -3
11 3 -14 11 123 56 297 97 260 63 842 153 1106 171 77 6 97 4 137 -13 25 -12
57 -19 70 -16 20 4 20 3 3 -4 -14 -7 4 -13 74 -26 102 -18 159 -49 206 -110
20 -26 24 -40 19 -66 l-7 -33 -18 35 c-10 19 -25 41 -35 49 -11 8 -7 -3 10
-29 15 -24 25 -49 23 -55 -2 -7 -14 8 -26 31 -12 24 -25 41 -28 38 -3 -3 0
-12 7 -21 7 -9 11 -18 8 -20 -11 -11 -30 26 -25 47 8 29 5 44 -7 40 -5 -2 -18
6 -30 17 -11 11 -34 22 -51 25 -29 6 -29 6 5 -10 53 -24 82 -54 69 -71 -9 -10
-15 -10 -25 -2 -8 6 -14 8 -14 3 0 -5 14 -17 30 -26 17 -9 30 -22 30 -27 0 -6
-16 1 -36 14 -20 14 -42 25 -48 25 -6 -1 0 -7 14 -15 24 -14 23 -15 -20 -10
-36 4 -39 3 -14 -4 47 -12 59 -21 43 -33 -11 -8 -10 -9 4 -4 9 3 17 1 17 -5 0
-6 5 -7 10 -4 6 4 8 11 4 16 -3 6 5 8 20 5 16 -3 26 0 26 7 0 7 5 4 11 -6 8
-14 7 -23 -6 -37 -10 -11 -22 -17 -27 -14 -4 3 -7 0 -6 -7 2 -8 -7 -14 -20
-15 -13 -1 -31 -9 -40 -19 -16 -17 -16 -17 11 0 50 32 28 9 -38 -40 -36 -26
-63 -51 -60 -55 3 -5 0 -12 -6 -16 -8 -4 -9 -3 -5 4 15 25 -3 9 -89 -75 -48
-49 -113 -122 -143 -163 -31 -41 -81 -106 -113 -145 -58 -72 -151 -218 -124
-195 8 7 29 36 45 66 17 29 59 88 93 131 35 43 80 103 101 133 46 64 124 148
181 193 29 24 15 3 -52 -78 -59 -70 -106 -138 -130 -187 -20 -42 -40 -75 -45
-72 -4 3 -8 -2 -8 -10 0 -9 -11 -41 -25 -73 -14 -31 -27 -71 -30 -89 -2 -17
-11 -49 -20 -69 -8 -21 -14 -40 -11 -42 2 -2 14 22 26 52 33 82 57 125 64 118
3 -4 6 1 6 10 0 9 5 19 10 22 7 4 9 -3 5 -22 -5 -19 2 -12 19 22 31 59 24 25
-11 -60 -28 -68 -46 -175 -34 -206 5 -15 8 2 9 49 1 39 7 81 12 94 7 17 8 7 4
-37 -9 -83 2 -66 14 22 6 40 17 82 26 95 15 21 16 14 17 -112 l2 -135 8 144
c10 169 17 198 20 86 6 -234 -7 -345 -56 -475 -26 -68 -77 -136 -95 -125 -23
14 -3 142 33 212 21 40 22 67 1 33 -15 -25 -15 -25 -9 10 10 59 15 116 10 105
-2 -5 -18 -77 -35 -160 -25 -120 -31 -165 -26 -225 3 -41 2 -68 -1 -60 -4 8
-14 38 -24 65 -22 61 -24 43 -4 -50 8 -38 13 -71 11 -72 -6 -6 -75 146 -87
190 -19 73 -2 146 61 254 l22 38 -23 -25 c-34 -39 -70 -124 -76 -183 -6 -60 1
-90 50 -202 19 -44 38 -90 42 -102 11 -39 -11 -25 -31 18 -22 50 -31 36 -10
-15 8 -20 11 -34 5 -30 -19 12 -100 198 -109 250 -11 65 4 182 29 235 13 26
15 36 6 29 -27 -23 -49 -112 -49 -205 0 -95 9 -127 75 -256 32 -63 35 -74 17
-62 -7 4 -16 8 -19 8 -3 0 -37 23 -76 52 -60 44 -74 59 -91 105 -12 29 -21 45
-21 36 -1 -16 23 -72 55 -131 9 -15 38 -44 65 -65 27 -20 45 -38 39 -40 -27
-9 -116 23 -154 56 -39 35 -40 35 -12 4 17 -18 26 -32 20 -32 -16 1 -41 24
-68 64 -14 21 -26 34 -26 29 0 -6 10 -25 23 -44 27 -41 112 -85 170 -87 22 -1
46 -7 52 -13 7 -9 -1 -10 -32 -5 -24 3 -44 2 -48 -4 -3 -5 -23 -11 -43 -11
-26 -1 -29 -3 -12 -6 14 -2 36 -6 50 -9 23 -6 24 -7 5 -14 -21 -9 -58 -3 -89
12 -15 8 -16 12 -5 19 11 7 10 9 -5 9 -10 0 -34 9 -52 21 -19 11 -34 17 -34
12 1 -12 43 -41 105 -72 l53 -27 -56 -2 c-66 -3 -136 18 -191 59 -47 34 -65
38 -33 8 42 -39 133 -73 212 -79 71 -6 74 -7 45 -19 -49 -20 -168 -51 -199
-51 -23 0 -27 -3 -19 -11 9 -9 36 -5 110 15 131 36 144 38 106 21 -40 -18 -43
-27 -5 -20 28 6 -114 -66 -156 -80 -13 -4 -22 -9 -19 -11 5 -6 117 35 135 49
7 5 26 11 43 13 l30 4 -24 -33 c-14 -17 -22 -38 -19 -46 3 -9 0 -11 -8 -6 -8
5 -11 4 -7 -2 4 -6 -11 -51 -34 -100 -54 -116 -131 -314 -125 -321 3 -2 10 6
15 19 8 21 45 113 137 337 15 34 30 62 34 62 5 0 -4 -29 -21 -65 -47 -105 -32
-88 27 30 73 146 83 152 30 19 -110 -277 -260 -585 -360 -739 -136 -209 -346
-431 -514 -544 -173 -116 -510 -270 -607 -278 -43 -3 -33 2 70 35 118 38 260
100 251 109 -2 2 -24 -6 -47 -18 -68 -34 -181 -70 -203 -63 -15 4 -17 3 -8 -4
11 -7 8 -11 -9 -15 -13 -4 -27 -3 -32 2 -4 4 -29 4 -54 0 -51 -10 -56 -9 -48
13 3 9 38 20 93 31 102 19 245 58 239 64 -3 2 -40 -5 -84 -16 -115 -30 -225
-52 -230 -47 -12 12 20 46 43 46 29 0 237 51 231 56 -2 3 -53 -7 -113 -22 -60
-14 -119 -23 -131 -21 -13 2 -23 -1 -23 -6 0 -19 -80 -147 -92 -147 -6 0 -5 7
4 18 24 26 78 139 77 159 0 11 -3 13 -6 6 -2 -7 -12 -13 -21 -14 -14 0 -13 -2
2 -8 18 -7 18 -8 -5 -24 -13 -9 -18 -17 -11 -17 20 0 -2 -33 -24 -36 -11 -1
-63 -8 -116 -15 -79 -10 -116 -11 -195 -1 -129 17 -231 44 -285 78 -95 59
-205 153 -210 179 -3 14 -4 25 -3 25 2 0 21 -25 44 -55 23 -30 47 -55 53 -55
7 0 32 -17 57 -38 25 -22 61 -47 79 -56 51 -26 174 -47 307 -51 l120 -4 -100
8 c-139 11 -242 30 -295 52 -68 30 -270 230 -270 267 0 8 44 -27 98 -79 120
-117 172 -153 248 -173 61 -16 292 -42 300 -33 3 3 -32 8 -78 12 -136 11 -210
25 -263 49 -62 29 -161 110 -215 179 -23 29 -46 52 -52 52 -14 0 -44 53 -35
62 5 4 12 2 16 -5 4 -8 15 -14 24 -16 9 -1 61 -45 115 -98 54 -53 118 -106
140 -117 23 -12 42 -19 42 -16 0 2 -13 11 -30 20 -16 8 -58 41 -93 73 -71 63
-240 252 -233 260 7 6 79 -50 156 -123 162 -153 326 -223 535 -230 l110 -4
-105 8 c-170 13 -304 58 -422 143 -26 19 -96 79 -155 135 -93 87 -111 109
-130 160 -13 32 -23 63 -23 68 0 22 94 -85 121 -137 37 -72 46 -75 15 -5 -13
28 -31 76 -41 105 -19 58 -30 67 -15 11 9 -34 9 -34 -40 20 -28 30 -48 56 -46
59 2 2 -2 19 -10 37 -25 60 -15 61 44 4 87 -84 115 -101 45 -29 -38 40 -72 87
-87 123 -14 31 -24 57 -22 57 2 0 41 -37 86 -82 l83 -83 -63 74 c-88 105 -112
145 -117 193 -6 51 -10 54 102 -82 97 -119 165 -194 165 -185 0 4 -25 37 -55
74 -104 126 -223 278 -234 300 -7 12 -10 27 -8 34 2 7 0 20 -5 30 -18 35 1 15
30 -31 32 -52 112 -148 112 -134 0 4 -14 21 -30 37 -17 16 -30 32 -30 36 0 3
-21 43 -46 88 -26 45 -44 85 -40 89 9 8 38 -29 168 -218 183 -265 179 -247 -9
37 -63 95 -118 175 -124 178 -12 8 -12 25 1 25 39 0 214 -230 272 -358 30 -66
68 -124 68 -105 0 6 -6 16 -14 22 -8 7 -26 42 -41 79 -36 90 -178 305 -227
343 -26 21 -36 35 -29 42 6 6 19 2 38 -12 15 -12 48 -36 73 -54 48 -35 123
-136 171 -231 17 -32 33 -56 36 -53 6 7 -87 174 -133 238 -19 25 -31 48 -29
51 3 2 -12 20 -33 39 l-37 34 34 -37 c19 -21 31 -38 26 -38 -13 0 -115 70
-115 79 0 3 12 14 27 23 26 15 27 15 89 -34 58 -45 130 -132 182 -218 11 -20
33 -47 48 -60 l28 -25 -30 40 c-17 22 -56 79 -87 127 -40 60 -77 102 -122 137
-68 54 -75 65 -49 75 29 11 144 -78 238 -186 37 -43 71 -78 75 -78 21 0 -188
219 -238 250 -22 14 -41 28 -41 32 0 4 20 21 44 37 l43 30 49 -31 c27 -17 69
-42 94 -55 l45 -24 -26 23 c-15 13 -55 40 -89 61 -45 27 -60 41 -52 49 7 7 30
0 79 -26 37 -21 57 -28 43 -17 -14 11 -42 28 -62 37 -29 13 -35 20 -28 30 9 9
33 2 113 -36 120 -56 147 -65 147 -51 0 6 -8 11 -17 11 -24 1 -207 87 -211 99
-9 26 48 20 135 -13 51 -20 103 -36 115 -36 15 1 7 6 -22 16 -50 17 -172 66
-180 72 -3 2 8 14 24 27 l29 23 64 -29 c36 -16 75 -29 86 -28 14 0 7 5 -18 13
-22 7 -58 23 -80 35 l-40 22 45 -6 c40 -5 43 -4 26 8 -16 12 -14 13 20 10 33
-2 35 -1 14 7 -23 8 -22 8 10 8 19 -1 53 4 75 9 22 6 91 19 154 29 62 10 108
20 102 22 -6 2 -55 -3 -109 -12 -53 -9 -126 -21 -162 -27 -36 -6 -76 -9 -90
-7 -24 4 -24 5 5 12 32 7 216 62 410 121 115 35 255 100 255 118 0 5 -12 0
-27 -11 -16 -11 -43 -27 -62 -37 -56 -28 -361 -117 -387 -112 -13 2 -25 0 -26
-5 -4 -11 -106 -46 -156 -52 -20 -3 -29 -3 -19 0 20 6 23 24 5 25 -28 1 30 18
67 19 32 1 36 3 20 10 -20 8 -20 9 1 9 11 1 47 10 80 21 69 24 338 156 353
173 5 7 -70 -27 -168 -75 -103 -51 -200 -92 -231 -98 -30 -6 -64 -13 -74 -16
-44 -14 21 34 119 88 288 160 403 238 475 323 28 33 24 30 -26 -15 -33 -30
-94 -79 -135 -109 -78 -55 -283 -171 -304 -171 -7 0 -18 -7 -25 -15 -7 -8 -16
-15 -20 -15 -14 0 -4 34 11 38 24 6 63 26 77 39 7 7 54 35 105 64 105 59 202
123 213 141 4 6 -8 0 -27 -14 -47 -35 -187 -118 -198 -118 -6 0 -52 -25 -103
-56 -51 -31 -108 -66 -126 -77 -18 -10 -36 -17 -39 -13 -4 3 -1 6 6 6 7 0 9 5
5 12 -4 6 -3 8 4 4 6 -3 13 -2 17 4 3 5 -2 10 -12 10 -15 0 -14 4 7 20 14 11
30 20 37 20 7 0 16 6 20 13 4 7 37 28 73 46 100 52 242 136 270 160 14 12 -7
2 -46 -23 -99 -62 -284 -160 -284 -149 0 5 3 13 8 19 4 5 -11 -10 -34 -33 -22
-24 -43 -43 -45 -43 -2 0 -4 53 -4 118 l0 117 -54 123 c-30 68 -63 137 -75
155 -25 37 -90 83 -128 92 -16 4 -28 10 -28 14 0 8 36 59 50 71 39 34 125 174
142 228 2 7 18 -32 36 -87 18 -56 38 -101 44 -101 6 0 7 8 3 18 -10 24 -36
112 -41 136 -17 88 -11 83 50 -39 35 -71 65 -128 65 -125 1 3 -10 38 -23 78
-13 40 -22 72 -20 72 2 0 11 -14 20 -31 14 -29 113 -169 136 -194 6 -6 6 -2 2
10 -10 29 64 -44 134 -130 65 -82 78 -96 67 -75 -18 33 -71 98 -131 160 -67
71 -154 194 -154 220 0 9 -6 22 -12 30 -7 8 2 2 20 -14 43 -40 41 -26 -5 26
l-37 43 34 -31 c19 -18 51 -42 71 -55 20 -13 65 -43 100 -67 35 -24 48 -30 29
-15 -19 15 -62 51 -96 80 -34 28 -64 50 -66 48 -2 -3 -20 12 -39 33 l-34 37
33 -29 c39 -36 42 -24 5 18 -15 17 -1 6 31 -24 44 -42 54 -48 40 -25 l-18 30
25 -22 c28 -25 180 -116 185 -110 2 2 -25 20 -60 41 -66 38 -89 58 -92 81 -1
10 5 11 29 4 17 -5 32 -7 35 -5 4 5 -22 13 -66 21 -26 4 -32 2 -26 -7 4 -8 3
-10 -2 -5 -5 5 -9 12 -9 17 0 4 -11 17 -25 28 l-25 21 45 -12 c52 -14 241 -12
285 3 23 7 11 8 -45 3 -97 -8 -182 -6 -250 8 -54 11 -94 34 -85 49 3 4 -3 14
-13 21 -15 13 -16 12 -3 -3 19 -25 -1 -22 -22 3 -45 52 -87 119 -107 169 -28
69 -30 192 -5 298 16 70 18 73 35 57 10 -9 37 -19 59 -22 38 -5 44 -3 85 38
54 54 82 135 73 212 -7 58 -26 82 -70 91 -31 6 -31 6 -9 22 20 14 25 12 72
-20 56 -39 121 -62 195 -71 93 -12 260 39 330 100 28 24 26 23 -19 -4 -110
-68 -264 -94 -371 -63 -101 29 -186 107 -210 192 -6 20 -1 16 22 -15 81 -110
149 -149 281 -161 116 -11 252 37 324 114 l33 36 -34 -28 c-18 -15 -50 -35
-71 -46 -45 -23 -159 -50 -203 -49 l-32 1 35 10 c176 50 314 159 382 304 33
71 53 206 45 301 -12 123 -109 258 -225 311 -78 35 -212 42 -299 14 -35 -11
-63 -18 -63 -16 0 10 102 53 150 63 110 22 191 21 307 -5z m1880 20 c29 -6 30
-7 17 -33 -22 -45 -34 -127 -33 -230 l1 -96 13 98 c15 105 46 223 52 195 2 -9
-3 -42 -12 -75 -25 -90 -30 -273 -11 -363 25 -118 85 -231 161 -306 67 -66 74
-89 10 -33 -48 42 -128 166 -165 255 -16 40 -43 124 -60 186 l-29 113 -1 -62
c0 -34 4 -64 10 -68 5 -3 6 -13 3 -21 -3 -8 -1 -25 5 -37 17 -36 64 -151 68
-167 3 -8 -19 32 -49 90 -35 70 -58 104 -67 102 -8 -2 -12 0 -8 3 9 10 -9 45
-23 45 -6 0 -25 11 -43 25 -43 33 -159 86 -276 126 -52 17 -99 35 -103 40 -12
10 114 113 193 157 35 20 85 42 110 48 48 13 188 18 237 8z m-2008 -143 c113
-58 200 -170 216 -281 10 -64 -7 -40 -35 50 -20 64 -32 83 -80 130 -30 30 -83
69 -115 85 -56 28 -68 30 -165 29 -91 0 -112 -3 -161 -26 -30 -14 -73 -40 -95
-59 l-39 -33 30 33 c76 84 153 113 285 108 84 -3 102 -7 159 -36z m2131 29
c11 -7 4 -10 -27 -10 -24 0 -43 5 -43 10 0 13 50 13 70 0z m-2153 -70 c96 -44
168 -128 188 -217 l7 -33 -55 0 c-38 0 -76 9 -123 29 -38 15 -91 36 -119 46
-27 10 -71 35 -96 56 -26 21 -63 46 -82 55 -35 17 -37 16 -91 -10 -45 -22 -62
-38 -96 -92 -23 -36 -45 -75 -50 -87 -9 -22 -9 -22 -9 -1 -2 42 59 142 112
187 81 67 94 73 212 101 44 10 142 -6 202 -34z m2271 -11 c49 -26 69 -41 58
-45 -8 -3 -20 -21 -26 -39 -26 -79 -85 -135 -157 -148 -59 -12 -63 -5 -63 105
0 108 14 152 53 168 28 11 46 6 135 -41z m6 25 c25 -14 46 -30 46 -35 0 -8
-67 31 -99 58 -14 11 13 -1 53 -23z m-275 -409 c0 -5 -8 6 -19 25 -11 19 -19
40 -19 45 0 6 8 -6 19 -25 11 -19 19 -39 19 -45z m195 -4 c13 -6 42 -34 64
-63 21 -29 54 -69 72 -88 l32 -34 -21 -17 c-18 -15 -27 -16 -54 -7 -42 15
-117 92 -145 148 -21 42 -21 46 -5 58 20 15 25 15 57 3z m-2032 -36 c-4 -48
-57 -146 -104 -194 -150 -153 -330 -169 -478 -43 -34 29 -33 29 45 -9 92 -46
166 -58 243 -40 78 19 154 73 211 149 48 64 73 115 30 62 -55 -68 -125 -130
-177 -155 -141 -71 -333 -23 -412 102 -51 79 -38 91 28 25 61 -62 105 -82 184
-82 60 0 124 34 228 120 52 44 102 76 130 85 62 19 76 16 72 -20z m1856 0 c-3
-3 -9 2 -12 12 -6 14 -5 15 5 6 7 -7 10 -15 7 -18z m268 -187 c23 -11 33 -28
16 -28 -20 0 -112 76 -112 93 0 5 16 -5 36 -23 20 -17 47 -36 60 -42z m-2837
-89 c22 -49 22 -52 4 -72 -13 -14 -14 -18 -3 -13 8 4 -1 -6 -20 -23 -19 -17
-38 -31 -42 -31 -21 -1 -59 -119 -83 -260 -47 -275 -50 -307 -31 -408 24 -135
21 -196 -15 -297 -30 -83 -90 -178 -139 -220 l-23 -20 7 20 c4 11 12 61 17
110 38 356 41 370 104 570 7 22 25 96 40 165 82 372 128 530 156 530 4 0 16
-23 28 -51z m2372 -134 c46 -14 127 -37 179 -51 251 -66 340 -117 340 -196 0
-36 -10 -35 -64 6 -50 38 -132 68 -251 92 -99 20 -586 28 -806 13 -390 -26
-862 -129 -1209 -264 -258 -100 -319 -117 -424 -119 -85 -1 -100 1 -110 17
-16 27 21 54 86 62 75 9 171 37 333 95 429 155 775 233 1236 280 195 20 321
41 434 74 77 23 161 19 256 -9z m-2546 -27 c-27 -130 -86 -293 -126 -350 -11
-15 -18 -31 -15 -36 2 -4 0 -14 -6 -22 -8 -12 -9 -12 -4 3 8 26 3 22 -47 -40
-25 -32 -62 -78 -83 -103 -27 -31 -30 -37 -10 -20 15 14 51 53 79 87 28 35 53
61 55 58 12 -12 -250 -319 -359 -420 l-42 -40 29 36 c16 20 54 65 84 100 30
35 47 58 37 50 -26 -21 -152 -173 -150 -181 3 -10 -75 -84 -219 -207 -128
-109 -188 -152 -188 -135 0 15 199 269 390 497 212 255 344 421 438 554 42 58
80 111 86 117 6 6 20 27 31 47 24 45 29 46 20 5z m269 0 c9 -12 16 -34 16 -48
0 -24 -1 -23 -16 8 -9 17 -20 32 -23 32 -4 0 -16 7 -27 15 -18 14 -18 14 8 15
17 0 33 -8 42 -22z m-7 -56 c12 -30 13 -43 3 -77 -19 -65 -55 -112 -96 -125
-35 -12 -39 -11 -56 10 -20 25 -22 55 -7 120 28 125 117 166 156 72z m2436
-106 c148 -24 210 -50 280 -115 45 -42 47 -63 8 -90 -37 -27 -41 -26 -41 4 0
37 -61 98 -127 128 -32 14 -107 35 -168 47 -60 12 -117 26 -125 31 -24 14 74
11 173 -5z m-2807 -272 c-43 -157 -65 -294 -80 -504 -14 -199 -32 -288 -55
-283 -6 2 -11 -3 -11 -10 0 -7 -9 -18 -20 -25 -25 -15 -25 -8 -5 68 8 30 13
56 11 57 -5 5 -23 -45 -37 -104 -7 -29 -16 -53 -20 -53 -5 0 -2 21 6 48 17 55
18 62 5 42 -6 -8 -15 -33 -21 -55 -19 -69 -49 -89 -49 -32 0 50 27 241 59 417
27 152 30 207 10 194 -5 -3 -9 -19 -9 -36 0 -17 -9 -65 -20 -107 -25 -95 -65
-264 -95 -398 -17 -79 -28 -107 -46 -123 -33 -26 -40 -25 -34 8 5 24 4 23 -7
-5 -15 -37 -38 -63 -59 -66 -8 -2 -20 -6 -27 -11 -11 -7 -11 -4 -1 13 8 12 16
16 20 10 4 -7 9 -4 12 6 4 10 3 14 -4 9 -13 -8 -4 27 17 66 11 21 13 22 14 6
0 -10 13 8 30 40 35 70 36 75 10 41 -11 -14 -20 -30 -20 -37 0 -6 -5 -8 -10
-5 -6 4 -23 -22 -40 -59 -16 -35 -35 -68 -41 -71 -8 -6 -8 -2 0 13 16 30 13
40 -4 15 -8 -12 -12 -28 -9 -37 6 -16 -43 -69 -56 -61 -4 3 -11 -2 -14 -11 -4
-9 -9 -14 -13 -10 -4 3 -18 -4 -31 -16 -14 -13 -22 -17 -18 -10 4 6 2 12 -4
12 -6 0 -8 5 -4 12 6 9 9 9 12 0 2 -7 22 7 45 35 69 77 84 101 36 57 -24 -22
-68 -63 -97 -90 -30 -27 -60 -53 -68 -57 -8 -4 -14 -14 -14 -21 0 -12 -70 -66
-86 -66 -3 0 -3 7 0 16 3 8 2 12 -4 9 -6 -3 -10 -14 -10 -23 0 -17 -38 -48
-47 -38 -3 3 -14 -5 -24 -17 l-18 -22 5 35 c17 127 34 295 34 332 0 68 9 88
38 88 51 0 113 43 264 184 284 265 441 440 559 624 35 55 65 98 67 97 2 -2 -8
-43 -22 -91z m2874 16 c0 -5 -2 -10 -4 -10 -3 0 -8 5 -11 10 -3 6 -1 10 4 10
6 0 11 -4 11 -10z m-2519 -667 c13 -16 12 -17 -3 -4 -10 7 -18 15 -18 17 0 8
8 3 21 -13z m29 -43 c6 -11 8 -20 6 -20 -3 0 -10 9 -16 20 -6 11 -8 20 -6 20
3 0 10 -9 16 -20z m-371 -155 c38 -19 76 -66 112 -137 40 -80 89 -228 89 -271
0 -42 4 -38 -225 -202 -93 -66 -197 -141 -231 -167 -109 -82 -263 -179 -302
-190 -32 -9 -34 -12 -17 -19 15 -6 11 -8 -18 -8 -25 -1 -55 9 -85 27 -91 53
-108 62 -177 98 -80 42 -167 74 -202 74 -22 0 -23 -3 -23 -67 0 -83 26 -450
41 -588 16 -149 74 -472 120 -673 23 -97 43 -179 45 -181 9 -9 3 27 -30 177
-101 459 -121 620 -160 1250 -5 85 -14 83 117 27 140 -60 281 -157 346 -240
57 -72 110 -310 191 -845 36 -244 43 -435 16 -478 -10 -16 -68 -45 -136 -67
-73 -24 -159 -67 -199 -101 -37 -31 -96 -108 -131 -172 -13 -23 -28 -41 -34
-39 -25 8 -136 253 -194 427 -106 321 -161 580 -232 1100 -46 333 -42 450 14
517 26 31 180 137 376 259 69 42 181 114 250 159 251 164 291 188 442 265 84
44 166 79 181 79 15 1 41 -6 56 -14z m-959 -177 c-6 -40 -15 -113 -20 -163 -9
-78 -13 -93 -35 -110 -32 -27 -126 -83 -144 -87 -8 -2 -26 -14 -40 -28 -14
-14 -34 -32 -44 -39 -21 -17 130 283 202 398 28 45 51 85 51 87 0 3 8 17 18
32 16 25 17 25 20 5 2 -12 -2 -55 -8 -95z m3599 -16 c187 -328 370 -700 356
-722 -4 -6 -11 -10 -17 -10 -6 0 -44 -29 -85 -65 -41 -36 -79 -62 -85 -59 -7
4 -8 2 -4 -4 12 -19 22 -14 80 39 31 28 56 47 56 41 0 -5 -24 -32 -54 -61 -30
-28 -52 -51 -49 -51 4 0 4 -3 1 -6 -4 -3 -20 1 -36 10 -31 16 -82 86 -127 175
-15 30 -72 122 -126 205 -55 82 -102 159 -105 171 -3 14 3 39 15 61 l21 39 -6
-52 c-9 -70 2 -67 16 5 7 31 25 89 40 128 16 39 34 107 41 152 7 45 15 82 18
82 3 0 26 -35 50 -78z m-3329 -27 c0 -9 -63 -65 -68 -61 -2 3 11 18 30 35 34
32 38 34 38 26z m885 -302 c-4 -32 -16 -76 -27 -98 -11 -24 -17 -30 -14 -15
16 68 15 71 -3 26 -24 -58 -36 -72 -27 -31 5 27 4 26 -14 -10 -31 -61 -64
-105 -77 -105 -7 0 -13 -4 -13 -8 0 -15 -88 -107 -96 -100 -9 9 -34 -10 -34
-26 0 -6 7 -2 15 8 8 11 15 15 15 9 0 -13 -30 -39 -30 -27 -1 5 -9 0 -18 -11
-10 -11 -29 -29 -42 -40 l-24 -20 24 40 c13 22 29 47 35 55 16 21 27 40 22 40
-2 0 -29 -33 -60 -73 -54 -71 -107 -116 -176 -151 -18 -10 -30 -13 -27 -7 4 6
2 11 -3 11 -6 0 -11 -5 -11 -10 0 -12 -76 -49 -99 -50 -8 0 5 13 30 30 24 16
71 55 104 86 62 58 53 56 -25 -7 -68 -54 -123 -89 -140 -89 -8 1 -1 9 16 18
44 23 172 124 178 140 8 20 -23 0 -80 -51 -68 -60 -95 -77 -121 -77 -13 0 -23
2 -23 4 0 2 -2 11 -5 19 -3 7 0 14 7 15 7 0 27 5 43 10 22 8 25 11 10 11 -14
1 -9 7 20 21 24 12 30 17 15 14 -14 -3 11 17 55 44 44 28 153 109 242 181 90
72 166 131 169 131 4 0 15 9 25 21 10 11 23 18 29 14 6 -3 9 -1 8 6 -2 6 3 14
11 17 9 3 11 0 6 -8 -5 -9 -4 -11 3 -6 7 4 12 14 12 23 0 10 6 13 16 9 8 -3
12 -2 9 3 -3 5 3 12 13 15 10 4 25 18 32 31 23 42 33 29 25 -32z m2307 -191
c48 -73 138 -231 173 -302 15 -30 36 -65 48 -77 11 -13 16 -23 10 -23 -13 0
-59 58 -96 120 -15 25 -27 41 -27 36 0 -35 101 -165 129 -167 12 0 13 -2 2 -6
-11 -5 -11 -7 0 -14 10 -6 11 -9 2 -9 -7 0 -13 -5 -13 -11 0 -5 5 -7 10 -4 6
3 10 4 10 1 0 -16 -64 -36 -106 -32 -42 3 -52 9 -95 57 -29 32 -72 100 -107
169 l-57 114 -2 116 c-2 126 4 115 31 -60 13 -85 14 -68 1 55 -2 22 4 2 15
-45 18 -82 18 -83 13 -25 -2 33 -13 97 -24 143 -10 46 -19 91 -19 100 0 15 31
-25 102 -136z m-2228 84 c-6 -17 -34 -30 -34 -16 0 5 8 14 18 19 22 13 22 13
16 -3z m1946 -46 c40 -37 42 -39 12 -23 -18 10 -47 33 -65 52 -43 45 -6 25 53
-29z m-4255 -181 c115 -14 258 -50 336 -85 45 -20 65 -36 80 -63 14 -26 18
-29 13 -11 l-6 25 21 -22 c11 -12 21 -27 21 -33 0 -6 4 -9 8 -6 4 3 17 -12 27
-32 11 -20 27 -48 37 -61 10 -13 18 -29 18 -35 0 -6 -4 -5 -9 2 -19 31 -20
-40 -1 -129 10 -52 22 -123 26 -159 4 -36 11 -70 15 -76 11 -13 14 -120 5
-179 -3 -22 2 -11 10 23 16 62 15 69 -11 215 -15 84 -33 177 -41 208 -15 63
-18 102 -3 54 15 -48 68 -315 75 -376 7 -60 -15 -188 -40 -238 -33 -63 -201
-211 -239 -211 -2 0 0 26 5 58 44 264 -100 574 -401 864 -100 97 -205 179
-248 195 -10 3 9 -12 42 -35 88 -60 225 -186 297 -272 79 -96 222 -314 246
-376 11 -27 24 -71 30 -99 12 -55 24 -265 13 -225 -6 22 -8 20 -14 -17 -11
-66 -42 -78 -197 -78 -99 1 -140 5 -195 23 -87 27 -174 78 -245 145 l-55 52
60 -63 c47 -49 80 -73 150 -107 102 -50 174 -65 301 -66 103 0 164 17 181 52
12 23 13 23 13 2 0 -77 -49 -99 -205 -90 -117 7 -230 35 -334 83 -59 27 -91
52 -160 121 -140 142 -281 375 -281 465 0 68 79 292 96 275 3 -3 -2 -19 -10
-36 -43 -81 -57 -227 -31 -302 16 -43 156 -262 176 -275 6 -4 -18 36 -53 87
-106 153 -123 191 -122 279 0 91 29 191 78 273 30 50 32 57 16 57 -10 0 -22
-4 -25 -10 -4 -6 1 -7 11 -3 15 6 15 4 -1 -20 -20 -31 -30 -35 -21 -10 10 25
2 15 -48 -62 -53 -79 -87 -173 -89 -244 -1 -28 -5 -51 -10 -51 -4 0 -1 -10 8
-23 19 -29 12 -37 -34 -37 -66 0 -105 46 -116 135 -6 50 19 150 35 140 4 -3
14 9 21 27 7 17 31 59 54 92 23 34 52 81 65 106 73 143 131 165 445 169 66 0
161 -4 210 -10z m4359 -106 c14 -27 53 -96 88 -154 l64 -107 -18 -142 c-9 -79
-19 -145 -22 -147 -2 -2 -57 11 -122 30 -66 19 -147 40 -182 47 -74 15 -74 2
5 170 30 63 75 165 100 225 48 117 52 125 58 125 3 0 16 -21 29 -47z m720 -51
c55 -165 112 -461 142 -737 14 -133 19 -441 7 -484 l-6 -24 -141 7 c-212 9
-190 0 -198 76 -35 347 -42 467 -42 742 l-1 297 100 103 c55 57 103 102 107
101 3 -2 18 -38 32 -81z m-914 48 c-6 -11 -13 -20 -16 -20 -2 0 0 9 6 20 6 11
13 20 16 20 2 0 0 -9 -6 -20z m-3585 -292 c8 -31 26 -121 41 -199 29 -158 29
-264 0 -329 -19 -45 -20 -29 -1 34 8 27 15 75 15 106 0 53 -40 297 -59 365
-15 51 -23 90 -17 84 4 -3 13 -31 21 -61z m4182 -44 c-3 -3 -1 -18 4 -32 7
-17 6 -29 -1 -36 -12 -12 -14 -29 -2 -22 4 2 6 -14 5 -37 -2 -39 -1 -40 7 -12
5 19 6 -12 3 -80 -4 -87 0 -145 20 -275 14 -91 24 -181 23 -200 -2 -19 1 -46
6 -60 10 -26 18 -120 10 -120 -3 0 -11 8 -19 18 -9 10 -8 4 3 -18 10 -19 19
-29 21 -22 7 19 23 3 23 -23 0 -17 -9 -29 -29 -39 -34 -18 -39 -14 -70 55 -11
24 -21 38 -21 31 0 -7 11 -35 25 -61 22 -45 23 -49 7 -55 -9 -3 -22 -8 -28
-11 -15 -7 -55 85 -109 247 -66 201 -75 260 -75 471 l0 184 26 12 c15 6 24 14
21 18 -4 3 -14 0 -23 -8 -15 -12 -17 -12 -13 0 3 8 15 18 28 22 14 6 20 5 16
-1 -8 -13 1 -13 28 1 14 6 9 -2 -13 -22 -34 -30 -34 -31 -5 -14 17 10 42 29
58 43 30 29 37 20 10 -13 -10 -12 0 -2 21 22 22 24 42 43 44 43 3 0 3 -3 -1
-6z m-526 -258 c24 -8 35 -15 24 -15 -17 -1 -17 -3 -5 -11 17 -11 9 -13 -15
-4 -13 5 -14 8 -3 15 9 6 6 9 -12 9 -14 0 -36 7 -50 16 -28 17 -20 15 61 -10z
m29 -56 c123 -54 158 -60 64 -11 -62 32 -67 41 -9 17 52 -22 123 -74 136 -99
9 -17 3 -14 -23 11 -47 44 -60 40 -16 -5 19 -21 38 -46 41 -55 10 -28 1 -21
-22 17 -11 19 -25 35 -31 35 -6 0 2 -18 16 -40 33 -50 42 -117 19 -145 -16
-19 -16 -19 -4 4 6 13 9 40 5 59 -6 38 -50 112 -67 112 -6 0 0 -13 13 -29 41
-48 53 -86 39 -130 -16 -55 -14 -61 20 -61 16 0 28 -4 25 -9 -3 -5 -77 -12
-164 -16 -87 -4 -174 -11 -193 -16 -24 -6 -5 -7 61 -4 291 14 324 15 305 6
-11 -5 -81 -12 -155 -16 -74 -4 -236 -17 -360 -30 -124 -12 -227 -20 -229 -19
-12 10 19 16 150 30 79 8 149 17 154 19 12 5 -218 -4 -255 -10 -23 -4 -22 -3
5 10 17 8 38 14 48 15 10 0 16 4 13 8 -2 4 9 17 25 27 27 18 135 133 152 161
3 6 -31 -26 -76 -71 -71 -70 -144 -122 -155 -110 -5 4 79 119 90 123 4 2 8 10
8 17 0 20 48 89 68 97 28 11 41 9 62 -12 14 -14 20 -16 20 -6 0 7 -14 19 -32
27 -17 7 -26 15 -20 17 6 2 20 -2 31 -8 12 -6 21 -8 21 -6 0 3 -17 14 -37 25
-21 11 -32 20 -25 21 7 0 10 5 7 10 -8 14 5 13 54 -5 23 -8 39 -10 36 -5 -3 6
-12 10 -19 10 -7 0 -21 6 -32 14 -17 13 -14 14 25 5 24 -5 53 -14 65 -20 20
-10 20 -10 2 5 -11 9 -25 16 -31 16 -7 0 -24 11 -39 25 l-28 25 44 -6 c24 -4
58 -13 77 -20 48 -20 52 -16 9 7 -54 28 -47 32 15 7 28 -11 75 -30 102 -40 28
-11 65 -31 83 -45 18 -14 36 -23 39 -20 6 7 -85 67 -101 67 -15 0 -164 70
-151 70 6 0 62 -22 125 -50z m-4931 -17 c10 -35 15 -42 19 -28 5 21 8 16 77
-120 13 -27 25 -46 25 -41 0 13 97 -151 120 -202 25 -56 75 -119 95 -119 17 0
19 8 6 23 -5 5 -12 20 -15 34 -4 14 7 0 24 -30 17 -30 54 -79 83 -107 28 -29
48 -53 44 -53 -14 0 -89 74 -104 104 -9 17 -18 25 -20 18 -3 -6 -10 -9 -15 -6
-7 4 -8 2 -4 -5 4 -6 12 -9 17 -6 5 4 9 2 9 -4 0 -6 14 -26 32 -46 l31 -36
-39 18 c-139 63 -295 220 -383 385 -42 78 -81 193 -81 237 1 25 1 26 17 6 13
-16 15 -17 10 -2 -4 9 -2 17 3 17 6 0 10 -10 11 -22 0 -13 5 -32 10 -43 6 -14
7 -5 3 28 -4 26 -2 47 3 47 5 0 15 -21 22 -47z m5458 -5 c-3 -7 -5 -2 -5 12 0
14 2 19 5 13 2 -7 2 -19 0 -25z m-4185 -340 c-15 -15 -16 -32 -2 -23 15 9 12
-6 -4 -24 -7 -9 -16 -27 -20 -41 -4 -17 -1 -14 10 9 24 53 26 31 3 -48 -24
-89 -19 -107 7 -22 21 73 29 74 13 2 -6 -29 -9 -55 -6 -57 3 -3 10 21 17 53 6
32 18 78 25 103 l15 45 -6 -60 c-2 -32 -7 -71 -10 -85 -5 -20 -3 -22 6 -10 12
16 13 18 -9 -65 -15 -55 -66 -142 -94 -157 -12 -6 -58 -15 -102 -18 l-80 -7
68 -1 c116 -3 159 28 207 149 35 88 36 86 10 -16 -11 -43 -18 -80 -16 -83 7
-6 35 96 45 163 8 59 9 59 10 15 1 -68 -11 -180 -19 -175 -5 3 -11 -2 -14 -11
-3 -8 -2 -12 4 -9 16 10 12 -5 -11 -41 -22 -36 -27 -38 -132 -54 -53 -8 -81
-7 -133 5 -63 15 -112 34 -87 35 6 0 20 3 30 6 15 5 16 4 3 -5 -12 -9 -9 -10
15 -5 17 3 25 2 18 -3 -6 -5 8 -8 37 -8 26 0 46 3 43 8 -2 4 -15 7 -29 7 -13
0 -57 11 -96 25 -83 29 -100 31 -43 6 l40 -18 -32 1 c-17 1 -28 5 -25 10 3 5
-2 7 -11 3 -10 -4 -16 -2 -14 5 1 6 -4 13 -12 16 -9 3 -11 0 -6 -8 6 -10 3
-10 -10 -2 -10 5 -20 17 -21 26 -3 20 1 20 30 1 18 -12 23 -12 23 -2 0 8 -5
14 -11 15 -46 6 -70 14 -130 46 -82 44 -70 48 15 5 34 -17 63 -28 65 -26 3 2
-9 10 -26 17 -20 8 -27 16 -20 20 8 5 7 9 -5 13 -9 4 -13 3 -10 -3 8 -14 -1
-13 -33 4 -45 22 -76 30 -67 16 6 -9 3 -9 -14 -1 -25 14 -28 23 -4 14 12 -5
14 -3 8 7 -6 10 -4 12 10 6 22 -8 57 2 50 15 -9 13 -2 12 55 -11 69 -27 76
-24 15 6 -27 13 -42 22 -32 19 10 -3 44 -7 75 -10 49 -3 51 -3 15 4 -70 12
-61 21 21 21 79 0 131 15 155 44 8 9 23 22 34 28 18 9 18 7 -3 -23 -13 -19 9
-1 49 39 40 41 75 71 78 69 9 -10 -65 -155 -102 -198 -32 -37 -30 -36 12 7 27
28 64 82 82 120 33 67 79 129 90 119 2 -3 -1 -11 -7 -17z m-988 -63 c-3 17 6
4 20 -30 14 -33 26 -62 26 -65 0 -14 -53 61 -70 98 -27 60 -24 66 5 12 22 -39
24 -41 19 -15z m2135 -28 l25 -32 -32 29 c-33 31 -37 36 -24 35 4 0 18 -14 31
-32z m2591 7 c-8 -3 -42 -8 -75 -13 -48 -7 -37 -8 55 -4 63 2 127 6 143 8 47
6 30 -11 -30 -29 -32 -9 -74 -23 -93 -31 -19 -8 -48 -19 -64 -25 -47 -17 -26
-20 34 -4 52 13 108 19 99 9 -3 -2 -68 -18 -144 -35 -77 -17 -223 -51 -325
-75 -102 -24 -207 -46 -235 -50 l-50 -6 70 25 c81 28 77 31 -15 11 -36 -8 -72
-14 -80 -14 -30 0 108 39 209 59 58 11 107 23 110 26 8 7 -45 -1 -197 -32
-185 -38 -168 -24 29 24 96 23 150 40 120 37 -30 -4 -101 -17 -158 -31 -58
-14 -107 -23 -109 -21 -3 2 21 14 53 25 56 20 122 34 226 47 27 4 47 8 45 11
-4 4 -137 -10 -203 -22 l-30 -5 33 16 c19 8 66 17 105 21 81 7 100 14 41 15
-34 0 -32 2 26 15 36 8 103 19 150 25 47 7 105 15 130 19 47 8 156 11 130 4z
m-4556 -151 c39 -42 53 -63 45 -69 -7 -4 -10 -3 -6 3 3 5 -14 30 -39 54 -25
24 -50 53 -56 64 -6 11 -9 18 -6 15 2 -3 30 -33 62 -67z m463 61 c-3 -3 -12
-4 -19 -1 -8 3 -5 6 6 6 11 1 17 -2 13 -5z m-134 -11 c-7 -2 -19 -2 -25 0 -7
3 -2 5 12 5 14 0 19 -2 13 -5z m3604 -19 c-3 -3 -12 -4 -19 -1 -8 3 -5 6 6 6
11 1 17 -2 13 -5z m-3022 -211 c-11 -28 -27 -49 -45 -58 -33 -17 -95 -20 -85
-5 3 6 17 10 29 10 56 0 105 71 108 157 l2 48 3 -55 c3 -34 -2 -70 -12 -97z
m32 95 c-2 -13 -4 -5 -4 17 -1 22 1 32 4 23 2 -10 2 -28 0 -40z m-1099 -61
c86 -38 207 -77 239 -77 73 -1 264 -50 367 -94 95 -41 300 -106 377 -120 15
-2 71 -25 125 -51 55 -26 127 -60 162 -76 61 -28 78 -41 45 -35 -75 14 -116
17 -229 18 -93 0 -141 -5 -173 -16 -44 -16 -71 -10 -71 18 0 6 -14 27 -31 46
l-31 35 23 -40 c19 -34 20 -38 5 -25 -11 8 -21 14 -23 12 -3 -2 -8 0 -11 4 -4
4 -1 4 6 0 23 -13 12 10 -25 55 -21 24 -29 37 -18 29 11 -8 25 -22 32 -30 8
-9 12 -11 13 -3 0 14 -55 55 -63 46 -4 -3 -13 0 -21 6 -8 7 -21 9 -27 5 -7 -4
-9 -3 -5 4 4 6 -11 19 -36 31 -24 11 -54 29 -68 40 -14 11 -36 22 -50 26 -17
5 22 -40 121 -137 140 -138 269 -280 269 -297 0 -4 -16 -13 -36 -19 -36 -11
-38 -10 -98 44 -34 30 -90 69 -125 86 -62 31 -69 32 -215 36 -142 3 -154 2
-196 -20 -39 -20 -50 -34 -84 -100 -36 -74 -40 -78 -71 -78 -19 0 -36 3 -39 8
-2 4 2 34 9 67 7 33 20 114 30 180 9 66 21 130 26 143 17 44 11 136 -14 182
-12 24 -29 44 -37 46 -8 1 -24 5 -35 9 -11 3 -5 -2 14 -13 44 -25 70 -75 71
-135 0 -55 -14 -55 -25 -1 -3 20 -8 34 -11 31 -3 -2 0 -24 6 -48 7 -27 8 -53
2 -68 -8 -23 -9 -22 -25 17 -9 23 -39 70 -67 104 -52 64 -70 107 -70 169 0 43
23 74 28 36 2 -19 16 -30 60 -50z m29 44 c40 -25 43 -29 21 -28 -14 1 -24 5
-22 9 3 4 -9 14 -26 23 -27 14 -38 25 -25 25 3 0 26 -13 52 -29z m5571 -7 c12
-14 27 -22 32 -19 6 4 9 1 8 -7 -2 -7 5 -12 15 -11 10 0 16 -2 13 -5 -7 -7 13
-32 26 -32 5 0 6 5 2 12 -4 7 -3 8 5 4 6 -4 9 -11 6 -15 -8 -15 113 -92 198
-125 83 -33 325 -158 495 -256 77 -45 91 -56 80 -67 -12 -11 -28 -8 -97 17
-46 17 -154 49 -240 71 -131 34 -173 41 -266 42 -103 2 -113 0 -157 -25 -25
-15 -55 -39 -65 -54 l-19 -25 -2 67 c-3 85 -14 100 -12 19 1 -50 -22 -227 -36
-272 -2 -8 -20 -13 -43 -13 l-39 0 -7 88 c-8 97 -29 154 -69 192 -27 24 -33
25 -159 25 -144 0 -197 -12 -365 -81 -79 -32 -84 -33 -112 -19 -17 9 -30 17
-30 19 0 7 216 163 277 200 58 35 99 74 88 84 -2 3 -11 -1 -20 -8 -34 -28 -11
6 45 68 40 43 57 68 49 73 -6 4 -9 11 -5 17 3 5 -2 13 -11 16 -24 10 -6 23 57
40 42 12 87 14 195 10 133 -5 141 -7 163 -30z m-4492 -59 c-9 -23 -26 -51 -38
-61 -18 -16 -17 -13 5 21 14 22 30 60 34 85 5 32 8 38 11 21 2 -13 -4 -43 -12
-66z m3864 49 c33 -7 49 -29 33 -45 -5 -5 -48 -20 -95 -32 l-86 -23 -143 22
c-79 13 -157 23 -174 24 -52 1 -7 18 96 34 150 25 303 33 369 20z m205 -14 c4
-6 -1 -23 -11 -38 l-17 -27 24 20 23 20 -19 -30 c-10 -16 -38 -50 -62 -74 -24
-24 -43 -48 -43 -53 0 -5 -6 -8 -12 -6 -7 1 -28 -6 -45 -15 -19 -10 -33 -13
-33 -7 0 20 32 60 43 53 6 -4 8 0 4 10 -4 10 -2 16 6 14 7 -1 11 4 10 11 -2 6
2 12 7 12 6 0 10 7 10 15 0 8 5 15 11 15 5 0 7 6 3 13 -4 6 -4 9 1 5 9 -9 35
9 35 24 0 6 -7 5 -15 -2 -13 -11 -14 -10 -10 3 4 8 21 22 38 31 38 19 44 19
52 6z m-2954 -57 c13 -16 12 -17 -3 -4 -10 7 -18 15 -18 17 0 8 8 3 21 -13z
m3584 -46 c16 -15 -48 20 -70 38 -11 9 -2 7 20 -6 22 -12 45 -26 50 -32z
m-1280 4 c66 -11 147 -23 180 -27 l60 -7 -35 -15 c-28 -13 -66 -16 -190 -13
-85 1 -166 4 -180 6 -14 1 -65 4 -115 5 -68 2 -80 4 -50 9 54 9 -192 23 -272
16 -49 -4 -53 -3 -23 5 65 17 224 22 340 11 201 -21 207 -21 125 -5 -44 8
-109 22 -145 29 l-65 15 125 -5 c69 -2 179 -13 245 -24z m-3622 -18 c-7 -2
-19 -2 -25 0 -7 3 -2 5 12 5 14 0 19 -2 13 -5z m5202 -33 c108 -23 276 -40
401 -40 50 0 131 -7 180 -15 148 -25 145 -24 142 -48 -3 -18 -9 -22 -38 -19
-19 1 -156 6 -305 10 -252 8 -301 13 -316 34 -3 4 -17 9 -32 10 -15 1 -27 6
-27 11 0 5 -7 7 -15 3 -18 -7 -47 3 -40 14 3 5 -17 19 -45 31 -34 15 -46 25
-38 31 7 4 20 5 28 3 9 -3 56 -14 105 -25z m-4018 1 c22 -11 67 -35 98 -55 31
-20 60 -34 65 -31 5 3 51 -6 102 -19 156 -41 419 -69 615 -67 174 2 243 -24
195 -72 -20 -19 -24 -20 -75 -7 -73 17 -365 9 -422 -12 -35 -13 -45 -13 -84 0
-30 10 -39 17 -30 23 11 7 11 9 1 9 -7 0 -17 10 -22 23 -6 16 -9 17 -9 5 -1
-9 -6 -20 -13 -24 -7 -5 -9 -1 -6 13 4 16 2 19 -14 15 -15 -4 -17 -7 -6 -13
24 -16 -3 -9 -53 12 -50 22 -70 47 -23 28 15 -5 29 -7 32 -5 3 3 -3 8 -12 11
-9 3 -22 7 -28 9 -7 2 -37 13 -65 25 -65 26 -70 18 -7 -10 25 -12 44 -23 41
-25 -3 -3 -82 33 -176 80 -170 86 -221 107 -148 63 22 -13 39 -28 38 -33 0 -5
7 -9 17 -10 37 -2 43 -4 37 -14 -4 -6 1 -7 11 -3 12 4 15 3 10 -5 -5 -8 -1
-10 10 -5 12 4 15 3 10 -5 -5 -8 -1 -10 10 -5 12 4 15 3 10 -5 -9 -14 260
-147 459 -228 353 -142 403 -162 440 -174 52 -16 61 -25 45 -45 -15 -18 -28
-17 -120 9 -80 24 -317 63 -463 77 -222 22 -495 -10 -544 -63 -10 -11 -22 -45
-28 -76 l-10 -57 -43 -3 c-36 -3 -43 0 -51 20 -5 13 -6 30 -3 38 3 8 2 12 -3
8 -4 -4 -24 19 -45 51 -45 70 -77 95 -197 155 -50 25 -94 50 -98 56 -7 12 92
169 139 218 39 42 128 89 226 118 92 28 133 29 187 5z m831 -43 c-3 -7 -20
-16 -39 -19 l-34 -6 30 -2 c28 -2 29 -2 11 -16 -13 -10 -32 -13 -55 -9 -20 3
-74 9 -121 13 -76 7 -79 8 -30 10 30 1 84 10 120 20 81 23 123 26 118 9z
m2012 7 c0 -3 -10 -19 -22 -35 -16 -22 -35 -32 -77 -41 -31 -7 -48 -14 -38
-17 10 -2 32 1 49 7 30 11 31 10 14 -8 -14 -16 -27 -18 -74 -14 -51 5 -152 -5
-239 -23 -26 -5 -33 -3 -33 9 0 8 3 17 8 20 4 2 2 3 -4 1 -5 -1 -21 7 -35 18
l-24 19 60 -4 c66 -4 224 20 325 52 69 21 90 24 90 16z m-2333 -11 c-3 -3 -12
-4 -19 -1 -8 3 -5 6 6 6 11 1 17 -2 13 -5z m16 -21 c-7 -2 -21 -2 -30 0 -10 3
-4 5 12 5 17 0 24 -2 18 -5z m445 2 c-3 -3 -29 -9 -57 -14 -29 -5 -49 -5 -44
0 7 7 42 14 87 18 11 0 17 -1 14 -4z m3941 -31 c26 -33 27 -56 4 -76 -56 -48
-142 -15 -143 54 0 33 22 47 77 48 33 0 46 -5 62 -26z m-2614 4 c27 -12 55
-54 55 -82 0 -47 -105 -62 -146 -21 -33 33 -28 63 15 92 39 27 41 27 76 11z
m-2160 -28 c3 -6 -1 -7 -9 -4 -18 7 -21 14 -7 14 6 0 13 -4 16 -10z m1122
-132 c26 -25 30 -60 8 -78 -38 -31 -145 -4 -145 37 0 9 10 27 22 40 28 30 83
31 115 1z m1400 -113 c29 -33 29 -40 -3 -72 -22 -22 -32 -25 -70 -20 -24 2
-51 10 -59 17 -22 18 -18 60 8 88 18 20 29 23 62 19 26 -4 48 -15 62 -32z
m1921 -5 c29 -27 29 -74 0 -94 -32 -23 -100 -20 -132 5 -33 26 -33 53 -1 84
32 33 101 35 133 5z m-3334 -192 c38 -35 42 -63 12 -93 -53 -53 -166 -20 -166
49 0 62 102 91 154 44z m-2345 -9 c39 -14 51 -51 26 -79 -26 -28 -103 -27
-139 1 -67 53 17 111 113 78z m4627 -42 c58 -50 -7 -109 -97 -88 -51 12 -59
18 -59 51 0 60 102 83 156 37z m-5501 -12 c48 -47 18 -95 -61 -95 -47 0 -94
30 -94 60 0 29 47 60 92 60 28 0 46 -7 63 -25z m1879 -126 c14 -11 26 -29 26
-39 0 -40 -102 -73 -149 -48 -40 21 -48 44 -26 69 39 43 106 51 149 18z"/>
<path d="M5315 7695 c34 -105 32 -300 -4 -380 -12 -27 -17 -45 -12 -39 20 18
52 125 58 188 6 71 -11 189 -33 226 -11 17 -13 19 -9 5z"/>
<path d="M5400 7625 c13 -14 26 -25 28 -25 3 0 -5 11 -18 25 -13 14 -26 25
-28 25 -3 0 5 -11 18 -25z"/>
<path d="M5442 7595 c4 -4 62 -11 130 -16 68 -5 186 -18 263 -28 77 -11 164
-23 193 -26 28 -4 49 -11 46 -16 -3 -5 -24 -7 -47 -4 -44 5 -41 1 7 -10 22 -5
27 -10 23 -26 -3 -11 -1 -35 4 -54 32 -116 227 -92 254 32 15 75 -45 121 -143
108 -94 -12 -159 -10 -327 13 -174 23 -414 39 -403 27z m822 -76 c47 -37 30
-111 -34 -144 -98 -51 -182 35 -125 126 27 43 114 53 159 18z"/>
<path d="M6140 7500 c-54 -54 11 -138 84 -110 53 20 60 96 11 118 -38 18 -72
15 -95 -8z"/>
<path d="M5538 7543 c29 -2 74 -2 100 0 26 2 2 3 -53 3 -55 0 -76 -1 -47 -3z"/>
<path d="M5738 7533 c18 -2 45 -2 60 0 15 2 0 4 -33 4 -33 0 -45 -2 -27 -4z"/>
<path d="M6827 7526 c-3 -8 1 -17 9 -20 8 -3 14 -16 14 -29 0 -34 25 -65 41
-50 24 24 -18 113 -54 113 -3 0 -7 -6 -10 -14z"/>
<path d="M5858 7523 c12 -2 30 -2 40 0 9 3 -1 5 -23 4 -22 0 -30 -2 -17 -4z"/>
<path d="M5938 7513 c6 -2 18 -2 25 0 6 3 1 5 -13 5 -14 0 -19 -2 -12 -5z"/>
<path d="M6228 7013 c7 -3 16 -2 19 1 4 3 -2 6 -13 5 -11 0 -14 -3 -6 -6z"/>
<path d="M6148 7003 c6 -2 18 -2 25 0 6 3 1 5 -13 5 -14 0 -19 -2 -12 -5z"/>
<path d="M5928 6973 c7 -3 16 -2 19 1 4 3 -2 6 -13 5 -11 0 -14 -3 -6 -6z"/>
<path d="M5858 6963 c6 -2 18 -2 25 0 6 3 1 5 -13 5 -14 0 -19 -2 -12 -5z"/>
<path d="M5788 6953 c6 -2 18 -2 25 0 6 3 1 5 -13 5 -14 0 -19 -2 -12 -5z"/>
<path d="M4680 6940 c8 -5 22 -9 30 -9 10 0 8 3 -5 9 -27 12 -43 12 -25 0z"/>
<path d="M5688 6933 c7 -3 16 -2 19 1 4 3 -2 6 -13 5 -11 0 -14 -3 -6 -6z"/>
<path d="M7257 6929 c7 -7 15 -10 18 -7 3 3 -2 9 -12 12 -14 6 -15 5 -6 -5z"/>
<path d="M6522 6759 c-50 -19 -226 -50 -349 -59 -70 -6 -159 -17 -198 -25 -38
-8 -137 -26 -220 -40 -162 -28 -306 -63 -264 -64 14 -1 48 5 75 13 27 8 110
24 184 36 74 11 173 27 220 35 47 8 146 22 220 31 136 16 280 44 355 69 22 8
31 14 20 14 -11 0 -30 -4 -43 -10z"/>
<path d="M6701 6726 c2 -2 15 -9 29 -15 24 -11 24 -11 6 3 -16 13 -49 24 -35
12z"/>
<path d="M6830 6726 c0 -9 105 -36 156 -40 27 -2 58 -7 69 -11 15 -6 17 -5 9
4 -6 7 -53 19 -105 27 -52 8 -102 17 -111 20 -10 3 -18 3 -18 0z"/>
<path d="M6513 6683 c9 -2 25 -2 35 0 9 3 1 5 -18 5 -19 0 -27 -2 -17 -5z"/>
<path d="M6443 6673 c9 -2 23 -2 30 0 6 3 -1 5 -18 5 -16 0 -22 -2 -12 -5z"/>
<path d="M6240 6659 c-53 -4 -179 -21 -281 -38 -102 -17 -197 -31 -211 -31
-15 0 -30 -5 -34 -11 -4 -8 3 -9 22 -5 48 10 291 45 424 61 264 33 296 42 80
24z"/>
<path d="M6913 6653 c9 -2 23 -2 30 0 6 3 -1 5 -18 5 -16 0 -22 -2 -12 -5z"/>
<path d="M7126 6630 c11 -14 28 -36 37 -50 10 -13 17 -19 17 -12 0 7 -17 30
-37 50 -21 21 -29 26 -17 12z"/>
<path d="M6973 6643 c9 -2 23 -2 30 0 6 3 -1 5 -18 5 -16 0 -22 -2 -12 -5z"/>
<path d="M6710 6636 c0 -2 7 -7 16 -10 8 -3 12 -2 9 4 -6 10 -25 14 -25 6z"/>
<path d="M7020 6636 c0 -2 7 -7 16 -10 8 -3 12 -2 9 4 -6 10 -25 14 -25 6z"/>
<path d="M6280 6610 c-55 -7 -55 -7 -10 -7 25 -1 68 2 95 7 47 7 48 7 10 7
-22 0 -65 -3 -95 -7z"/>
<path d="M6168 6593 c12 -2 30 -2 40 0 9 3 -1 5 -23 4 -22 0 -30 -2 -17 -4z"/>
<path d="M5625 6580 c-22 -4 -51 -12 -65 -19 l-25 -12 25 7 c14 3 47 10 74 14
27 5 51 12 54 15 6 6 -10 5 -63 -5z"/>
<path d="M6035 6580 c-34 -6 -35 -7 -10 -8 17 0 50 3 75 7 40 8 41 8 10 8 -19
0 -53 -3 -75 -7z"/>
<path d="M6853 6583 c26 -2 67 -2 90 0 23 2 2 3 -48 3 -49 0 -68 -1 -42 -3z"/>
<path d="M6663 6573 c9 -14 47 -24 47 -12 0 5 -4 9 -9 9 -5 0 -17 3 -27 7 -11
4 -15 3 -11 -4z"/>
<path d="M5446 6558 c5 -7 -1 -9 -17 -5 -13 3 -33 2 -44 -2 -17 -7 -17 -8 8
-15 15 -3 36 -2 47 4 10 5 31 10 46 10 34 0 29 5 -14 13 -23 5 -31 3 -26 -5z"/>
<path d="M5938 6563 c12 -2 30 -2 40 0 9 3 -1 5 -23 4 -22 0 -30 -2 -17 -4z"/>
<path d="M5863 6553 c9 -2 25 -2 35 0 9 3 1 5 -18 5 -19 0 -27 -2 -17 -5z"/>
<path d="M6908 6553 c7 -3 16 -2 19 1 4 3 -2 6 -13 5 -11 0 -14 -3 -6 -6z"/>
<path d="M5778 6543 c12 -2 30 -2 40 0 9 3 -1 5 -23 4 -22 0 -30 -2 -17 -4z"/>
<path d="M6188 6543 c12 -2 30 -2 40 0 9 3 -1 5 -23 4 -22 0 -30 -2 -17 -4z"/>
<path d="M6398 6543 c7 -3 16 -2 19 1 4 3 -2 6 -13 5 -11 0 -14 -3 -6 -6z"/>
<path d="M6848 6543 c6 -2 18 -2 25 0 6 3 1 5 -13 5 -14 0 -19 -2 -12 -5z"/>
<path d="M6098 6533 c12 -2 32 -2 45 0 12 2 2 4 -23 4 -25 0 -35 -2 -22 -4z"/>
<path d="M6338 6533 c7 -3 16 -2 19 1 4 3 -2 6 -13 5 -11 0 -14 -3 -6 -6z"/>
<path d="M6864 6515 c-88 -29 -75 -32 17 -4 85 26 102 19 24 -10 -59 -22 -135
-59 -135 -65 0 -2 46 16 101 40 56 24 107 44 115 44 7 0 15 3 18 8 10 16 -74
8 -140 -13z"/>
<path d="M5450 6520 c-11 -8 -7 -9 15 -4 37 8 45 14 19 14 -10 0 -26 -5 -34
-10z"/>
<path d="M5658 6523 c7 -3 16 -2 19 1 4 3 -2 6 -13 5 -11 0 -14 -3 -6 -6z"/>
<path d="M6008 6523 c12 -2 30 -2 40 0 9 3 -1 5 -23 4 -22 0 -30 -2 -17 -4z"/>
<path d="M6288 6523 c6 -2 18 -2 25 0 6 3 1 5 -13 5 -14 0 -19 -2 -12 -5z"/>
<path d="M5232 6483 c-46 -19 -81 -37 -78 -40 2 -3 15 1 27 8 13 6 59 25 103
40 45 16 70 28 56 28 -14 0 -62 -16 -108 -36z"/>
<path d="M5908 6513 c12 -2 32 -2 45 0 12 2 2 4 -23 4 -25 0 -35 -2 -22 -4z"/>
<path d="M6213 6513 c9 -2 25 -2 35 0 9 3 1 5 -18 5 -19 0 -27 -2 -17 -5z"/>
<path d="M5175 6481 c-79 -39 -66 -39 16 -1 35 16 60 29 54 30 -5 0 -37 -13
-70 -29z"/>
<path d="M5390 6500 c-18 -12 -2 -12 25 0 13 6 15 9 5 9 -8 0 -22 -4 -30 -9z"/>
<path d="M5568 6503 c7 -3 16 -2 19 1 4 3 -2 6 -13 5 -11 0 -14 -3 -6 -6z"/>
<path d="M5823 6503 c9 -2 23 -2 30 0 6 3 -1 5 -18 5 -16 0 -22 -2 -12 -5z"/>
<path d="M6138 6503 c7 -3 16 -2 19 1 4 3 -2 6 -13 5 -11 0 -14 -3 -6 -6z"/>
<path d="M6988 6503 c6 -2 18 -2 25 0 6 3 1 5 -13 5 -14 0 -19 -2 -12 -5z"/>
<path d="M5758 6493 c6 -2 18 -2 25 0 6 3 1 5 -13 5 -14 0 -19 -2 -12 -5z"/>
<path d="M6866 6454 c-49 -24 -83 -44 -75 -43 8 0 52 20 99 44 47 24 81 44 75
44 -5 0 -50 -20 -99 -45z"/>
<path d="M7025 6490 c-3 -5 -12 -7 -19 -4 -13 5 -96 -31 -96 -41 0 -3 18 4 40
15 21 11 45 20 52 20 7 0 -42 -31 -108 -70 -67 -38 -128 -77 -135 -87 -8 -9 6
-3 31 13 25 17 79 49 120 72 83 45 150 92 133 92 -7 0 -14 -4 -18 -10z"/>
<path d="M5295 6465 c-66 -31 -54 -31 21 0 32 13 52 24 44 24 -8 0 -37 -11
-65 -24z"/>
<path d="M5698 6483 c7 -3 16 -2 19 1 4 3 -2 6 -13 5 -11 0 -14 -3 -6 -6z"/>
<path d="M5968 6483 c7 -3 16 -2 19 1 4 3 -2 6 -13 5 -11 0 -14 -3 -6 -6z"/>
<path d="M6990 6439 c-86 -58 -98 -68 -55 -46 46 24 151 97 140 97 -5 -1 -44
-23 -85 -51z"/>
<path d="M5658 6473 c7 -3 16 -2 19 1 4 3 -2 6 -13 5 -11 0 -14 -3 -6 -6z"/>
<path d="M5898 6473 c6 -2 18 -2 25 0 6 3 1 5 -13 5 -14 0 -19 -2 -12 -5z"/>
<path d="M6678 6454 c-27 -13 -48 -27 -48 -29 0 -5 99 42 109 51 13 11 -20 0
-61 -22z"/>
<path d="M5050 6409 c-82 -45 -86 -56 -5 -14 74 39 84 45 69 45 -5 0 -34 -14
-64 -31z"/>
<path d="M5155 6407 c-87 -40 -155 -76 -155 -82 0 -3 229 103 239 112 14 11
-23 -3 -84 -30z"/>
<path d="M6858 6419 c-21 -11 -38 -22 -38 -24 0 -3 18 4 40 15 22 11 40 23 40
25 0 7 0 7 -42 -16z"/>
<path d="M6928 6362 c-42 -31 -96 -72 -120 -90 -51 -39 -190 -173 -185 -178 2
-2 36 30 77 71 78 79 118 104 56 35 -69 -77 -35 -53 54 38 50 51 115 110 145
132 47 35 64 51 53 50 -2 0 -38 -26 -80 -58z"/>
<path d="M6550 6400 c-8 -5 -10 -10 -5 -10 6 0 17 5 25 10 8 5 11 10 5 10 -5
0 -17 -5 -25 -10z"/>
<path d="M5495 6359 c-54 -22 -75 -36 -35 -24 37 12 107 44 95 44 -5 0 -32 -9
-60 -20z"/>
<path d="M6749 6363 c-13 -17 -13 -17 6 -3 11 8 22 16 24 17 2 2 0 3 -6 3 -6
0 -17 -8 -24 -17z"/>
<path d="M6818 6321 c-40 -33 -89 -76 -108 -97 -19 -21 1 -7 45 32 45 38 96
81 115 96 19 15 32 27 28 28 -4 0 -40 -27 -80 -59z"/>
<path d="M4905 6329 c-33 -16 -54 -29 -47 -29 15 0 112 48 112 55 0 6 5 8 -65
-26z"/>
<path d="M6544 6318 l-19 -23 23 19 c12 11 22 21 22 23 0 8 -8 2 -26 -19z"/>
<path d="M6679 6323 c-13 -16 -12 -17 4 -4 16 13 21 21 13 21 -2 0 -10 -8 -17
-17z"/>
<path d="M5400 6320 c-8 -5 -10 -10 -5 -10 6 0 17 5 25 10 8 5 11 10 5 10 -5
0 -17 -5 -25 -10z"/>
<path d="M5028 6289 c-21 -11 -38 -22 -38 -24 0 -3 18 4 40 15 22 11 40 23 40
25 0 7 0 7 -42 -16z"/>
<path d="M4808 6293 c6 -2 18 -2 25 0 6 3 1 5 -13 5 -14 0 -19 -2 -12 -5z"/>
<path d="M6695 6258 l-40 -43 43 40 c39 36 47 45 39 45 -2 0 -21 -19 -42 -42z"/>
<path d="M4527 6279 c7 -7 15 -10 18 -7 3 3 -2 9 -12 12 -14 6 -15 5 -6 -5z"/>
<path d="M4900 6270 c-19 -11 -31 -19 -27 -20 11 0 67 29 67 35 0 7 -1 7 -40
-15z"/>
<path d="M4494 6252 c38 -43 96 -55 224 -49 64 3 131 11 147 17 l30 10 -35 -5
c-74 -12 -219 -17 -263 -11 -25 4 -63 19 -84 33 -31 21 -35 22 -19 5z"/>
<path d="M5029 6230 c-72 -51 -146 -70 -298 -77 -70 -3 -116 -9 -105 -13 41
-16 300 17 351 44 40 20 130 86 118 85 -6 0 -35 -18 -66 -39z"/>
<path d="M6024 6070 c-81 -110 -154 -200 -161 -200 -7 0 -132 25 -279 55 -262
55 -363 70 -181 27 224 -53 395 -91 430 -97 l37 -6 0 -125 c0 -158 -27 -298
-76 -400 -20 -39 -44 -81 -54 -92 -19 -20 -19 -20 -84 -1 -35 11 -139 46 -231
79 -92 33 -170 59 -172 56 -6 -5 376 -150 454 -172 9 -2 10 -10 4 -26 -5 -13
-93 -230 -196 -483 -205 -507 -204 -503 -179 -460 26 46 148 336 280 669 l119
299 40 16 c135 53 562 270 533 271 -4 0 -56 -24 -115 -54 -129 -65 -379 -180
-410 -190 -29 -9 -29 -4 2 42 59 89 85 199 94 395 l8 168 40 57 c104 150 254
372 250 372 -2 0 -71 -90 -153 -200z"/>
<path d="M4615 6251 c31 -9 102 -14 94 -7 -2 2 -31 6 -64 9 -39 4 -50 3 -30
-2z"/>
<path d="M4758 6253 c7 -3 16 -2 19 1 4 3 -2 6 -13 5 -11 0 -14 -3 -6 -6z"/>
<path d="M6530 6245 c-14 -8 -20 -14 -14 -15 5 0 19 7 30 15 24 18 16 19 -16
0z"/>
<path d="M6590 6229 c0 -5 5 -7 10 -4 6 3 10 8 10 11 0 2 -4 4 -10 4 -5 0 -10
-5 -10 -11z"/>
<path d="M5100 6189 c0 -5 11 -9 25 -9 14 0 25 2 25 4 0 2 -11 6 -25 8 -14 3
-25 1 -25 -3z"/>
<path d="M6679 6113 c-13 -16 -12 -17 4 -4 9 7 17 15 17 17 0 8 -8 3 -21 -13z"/>
<path d="M4934 6095 c11 -8 27 -15 35 -15 9 0 3 7 -13 15 -36 19 -47 19 -22 0z"/>
<path d="M5085 6090 c-3 -5 -2 -10 4 -10 5 0 16 -2 24 -5 8 -4 14 0 14 10 0
17 -32 21 -42 5z"/>
<path d="M6640 6079 c0 -5 5 -7 10 -4 6 3 10 8 10 11 0 2 -4 4 -10 4 -5 0 -10
-5 -10 -11z"/>
<path d="M6525 6040 c-3 -5 -2 -10 4 -10 5 0 13 5 16 10 3 6 2 10 -4 10 -5 0
-13 -4 -16 -10z"/>
<path d="M6403 5994 l-48 -46 53 43 c28 23 52 44 52 46 0 8 -12 0 -57 -43z"/>
<path d="M6677 6005 c-9 -20 -17 -41 -17 -48 0 -7 9 8 20 32 24 52 21 66 -3
16z"/>
<path d="M4867 6013 c65 -3 95 -8 103 -18 7 -8 17 -15 23 -15 5 0 0 9 -13 20
-20 17 -36 20 -114 18 l-91 -2 92 -3z"/>
<path d="M5068 6013 c7 -3 16 -2 19 1 4 3 -2 6 -13 5 -11 0 -14 -3 -6 -6z"/>
<path d="M4660 6003 c61 -24 153 -52 145 -44 -14 13 -123 51 -143 50 -14 0
-14 -2 -2 -6z"/>
<path d="M4838 5973 c6 -2 18 -2 25 0 6 3 1 5 -13 5 -14 0 -19 -2 -12 -5z"/>
<path d="M5155 5970 c3 -5 8 -10 11 -10 2 0 4 5 4 10 0 6 -5 10 -11 10 -5 0
-7 -4 -4 -10z"/>
<path d="M4421 5925 c0 -5 8 -26 19 -45 11 -19 19 -30 19 -25 0 6 -8 26 -19
45 -11 19 -19 31 -19 25z"/>
<path d="M4897 5894 c18 -16 52 -39 75 -52 26 -14 34 -16 19 -5 -13 10 -36 30
-52 44 -15 15 -30 24 -33 21 -3 -3 -14 1 -23 8 -10 7 -4 -1 14 -16z"/>
<path d="M4600 5896 c0 -2 8 -10 18 -17 15 -13 16 -12 3 4 -13 16 -21 21 -21
13z"/>
<path d="M4640 5856 c0 -2 8 -10 18 -17 15 -13 16 -12 3 4 -13 16 -21 21 -21
13z"/>
<path d="M4830 5835 c0 -8 7 -15 16 -15 14 0 14 3 4 15 -7 8 -14 15 -16 15 -2
0 -4 -7 -4 -15z"/>
<path d="M4725 5778 c59 -53 115 -91 121 -85 3 3 -19 21 -48 41 -30 19 -64 46
-78 61 -13 14 -28 25 -33 25 -5 0 12 -19 38 -42z"/>
<path d="M4930 5782 c6 -13 14 -21 18 -18 3 4 -2 14 -12 24 -18 16 -18 16 -6
-6z"/>
<path d="M6513 5788 c-15 -20 -25 -38 -20 -38 3 0 12 11 21 25 17 26 16 35 -1
13z"/>
<path d="M6705 5745 c-3 -31 -5 -59 -2 -61 3 -3 8 20 12 51 3 31 5 59 2 61 -3
3 -8 -20 -12 -51z"/>
<path d="M4215 5780 c27 -12 43 -12 25 0 -8 5 -22 9 -30 9 -10 0 -8 -3 5 -9z"/>
<path d="M6626 5734 c-4 -20 -5 -38 -3 -40 3 -3 8 11 11 32 4 20 5 38 3 40 -3
3 -8 -11 -11 -32z"/>
<path d="M4436 5727 c3 -10 9 -15 12 -12 3 3 0 11 -7 18 -10 9 -11 8 -5 -6z"/>
<path d="M4905 5710 c10 -11 20 -20 23 -20 3 0 -3 9 -13 20 -10 11 -20 20 -23
20 -3 0 3 -9 13 -20z"/>
<path d="M4450 5696 c0 -11 40 -86 45 -86 3 0 -4 19 -16 43 -23 45 -29 54 -29
43z"/>
<path d="M4590 5666 c0 -2 8 -10 18 -17 15 -13 16 -12 3 4 -13 16 -21 21 -21
13z"/>
<path d="M4540 5640 c6 -11 13 -20 16 -20 2 0 0 9 -6 20 -6 11 -13 20 -16 20
-2 0 0 -9 6 -20z"/>
<path d="M6692 5640 c0 -14 2 -19 5 -12 2 6 2 18 0 25 -3 6 -5 1 -5 -13z"/>
<path d="M6546 5625 c-9 -26 -7 -32 5 -12 6 10 9 21 6 23 -2 3 -7 -2 -11 -11z"/>
<path d="M4628 5615 c6 -11 21 -29 34 -40 22 -19 22 -19 -2 10 -40 48 -43 51
-32 30z"/>
<path d="M4570 5590 c6 -11 13 -20 16 -20 2 0 0 9 -6 20 -6 11 -13 20 -16 20
-2 0 0 -9 6 -20z"/>
<path d="M6671 5534 c0 -11 3 -14 6 -6 3 7 2 16 -1 19 -3 4 -6 -2 -5 -13z"/>
<path d="M4715 5520 c10 -11 20 -20 23 -20 3 0 -3 9 -13 20 -10 11 -20 20 -23
20 -3 0 3 -9 13 -20z"/>
<path d="M6661 5484 c0 -11 3 -14 6 -6 3 7 2 16 -1 19 -3 4 -6 -2 -5 -13z"/>
<path d="M4857 5426 c11 -15 21 -20 25 -13 4 6 -1 17 -10 24 -27 20 -34 15
-15 -11z"/>
<path d="M5100 5425 c14 -8 30 -14 35 -14 6 0 -1 6 -15 14 -14 8 -29 14 -35
14 -5 0 1 -6 15 -14z"/>
<path d="M5160 5400 c8 -5 20 -10 25 -10 6 0 3 5 -5 10 -8 5 -19 10 -25 10 -5
0 -3 -5 5 -10z"/>
<path d="M5210 5380 c8 -5 20 -10 25 -10 6 0 3 5 -5 10 -8 5 -19 10 -25 10 -5
0 -3 -5 5 -10z"/>
<path d="M6315 5339 c10 -90 25 -127 18 -44 -3 39 -10 77 -15 85 -6 10 -7 -5
-3 -41z"/>
<path d="M4945 5350 c-10 -11 -16 -22 -14 -24 2 -2 12 7 22 20 22 29 17 32 -8
4z"/>
<path d="M5020 5285 c-24 -25 -42 -45 -39 -45 3 0 25 20 49 45 24 25 42 45 39
45 -3 0 -25 -20 -49 -45z"/>
<path d="M4559 5248 c-30 -40 -31 -41 -5 -18 26 24 52 60 42 60 -2 0 -19 -19
-37 -42z"/>
<path d="M6251 5280 c0 -8 4 -22 9 -30 12 -18 12 -2 0 25 -6 13 -9 15 -9 5z"/>
<path d="M6340 5216 c0 -11 40 -86 45 -86 3 0 -4 19 -16 43 -23 45 -29 54 -29
43z"/>
<path d="M6390 5116 c0 -2 8 -10 18 -17 15 -13 16 -12 3 4 -13 16 -21 21 -21
13z"/>
<path d="M4768 4903 c12 -2 30 -2 40 0 9 3 -1 5 -23 4 -22 0 -30 -2 -17 -4z"/>
<path d="M4718 4853 c6 -2 18 -2 25 0 6 3 1 5 -13 5 -14 0 -19 -2 -12 -5z"/>
<path d="M4533 4803 c20 -2 54 -2 75 0 20 2 3 4 -38 4 -41 0 -58 -2 -37 -4z"/>
<path d="M4408 4793 c18 -2 45 -2 60 0 15 2 0 4 -33 4 -33 0 -45 -2 -27 -4z"/>
<path d="M4458 4733 c7 -3 16 -2 19 1 4 3 -2 6 -13 5 -11 0 -14 -3 -6 -6z"/>
<path d="M6284 4725 c-10 -8 -15 -15 -11 -15 4 0 3 -9 -3 -21 -7 -11 -14 -18
-18 -15 -7 8 -72 -54 -72 -68 0 -6 14 6 31 27 46 56 47 38 2 -30 -47 -69 -60
-92 -46 -78 23 21 124 178 119 183 -3 3 2 11 12 18 9 7 14 14 11 14 -3 0 -14
-7 -25 -15z"/>
<path d="M4498 4723 c7 -3 16 -2 19 1 4 3 -2 6 -13 5 -11 0 -14 -3 -6 -6z"/>
<path d="M6149 4647 c-14 -12 -35 -28 -45 -35 -11 -7 -7 -6 11 2 17 8 39 23
49 35 25 27 18 26 -15 -2z"/>
<path d="M4040 4596 c0 -3 34 -26 77 -52 42 -27 94 -66 116 -89 32 -31 36 -34
20 -10 -30 43 -59 67 -137 114 -68 41 -76 45 -76 37z"/>
<path d="M4260 4577 c0 -5 87 -67 95 -67 9 0 -46 45 -72 59 -13 6 -23 10 -23
8z"/>
<path d="M6117 4538 c-27 -36 -70 -118 -62 -118 2 0 14 19 26 43 12 23 32 57
46 75 13 17 22 32 19 32 -3 0 -16 -15 -29 -32z"/>
<path d="M6190 4530 c-6 -11 -8 -20 -6 -20 3 0 10 9 16 20 6 11 8 20 6 20 -3
0 -10 -9 -16 -20z"/>
<path d="M5296 4340 c-220 -551 -444 -1048 -466 -1035 -6 4 -7 -1 -3 -10 9
-25 53 50 151 260 127 274 409 961 398 972 -2 2 -38 -82 -80 -187z"/>
<path d="M6140 4437 c-15 -34 -40 -108 -54 -165 -31 -123 -41 -148 -94 -235
-22 -37 -37 -67 -33 -67 11 0 89 140 116 208 13 31 26 78 29 103 7 51 35 138
60 187 9 18 14 32 11 32 -4 0 -19 -28 -35 -63z"/>
<path d="M6030 4390 c-6 -11 -8 -20 -6 -20 3 0 10 9 16 20 6 11 8 20 6 20 -3
0 -10 -9 -16 -20z"/>
<path d="M6005 4349 c-4 -6 -5 -12 -2 -15 2 -3 7 2 10 11 7 17 1 20 -8 4z"/>
<path d="M3800 4308 c0 -9 5 -20 10 -23 13 -8 13 5 0 25 -8 13 -10 13 -10 -2z"/>
<path d="M5999 4178 c-23 -46 -50 -96 -61 -111 -11 -16 -18 -30 -15 -33 2 -3
16 14 30 38 37 64 98 188 92 188 -3 0 -23 -37 -46 -82z"/>
<path d="M5302 4165 c-17 -37 -14 -45 4 -12 9 16 14 31 11 33 -2 2 -9 -7 -15
-21z"/>
<path d="M5272 4095 c-17 -37 -14 -45 4 -12 9 16 14 31 11 33 -2 2 -9 -7 -15
-21z"/>
<path d="M4039 3877 c36 -39 41 -42 41 -29 0 4 -17 20 -38 36 l-37 29 34 -36z"/>
<path d="M5804 3824 l-89 -86 81 71 c78 68 111 101 102 101 -2 0 -44 -39 -94
-86z"/>
<path d="M5669 3703 c-13 -16 -12 -17 4 -4 9 7 17 15 17 17 0 8 -8 3 -21 -13z"/>
<path d="M4120 3707 c0 -2 15 -16 33 -33 l32 -29 -29 33 c-28 30 -36 37 -36
29z"/>
<path d="M5615 3664 c-44 -37 -119 -85 -220 -143 -49 -28 -85 -51 -79 -51 29
0 334 197 334 216 0 7 -3 5 -35 -22z"/>
<path d="M4115 3601 c17 -18 48 -47 70 -64 l40 -31 -30 33 c-16 18 -48 47 -70
64 l-40 31 30 -33z"/>
<path d="M5625 3577 c-33 -29 -78 -67 -100 -85 l-40 -34 45 31 c44 30 170 140
160 140 -3 0 -32 -24 -65 -52z"/>
<path d="M4234 3501 c7 -11 46 -35 46 -28 0 3 -12 12 -26 22 -15 9 -23 12 -20
6z"/>
<path d="M5594 3488 l-19 -23 23 19 c21 18 27 26 19 26 -2 0 -12 -10 -23 -22z"/>
<path d="M5173 3409 c-62 -32 -108 -59 -103 -59 12 0 120 54 190 94 82 47 27
25 -87 -35z"/>
<path d="M5475 3409 c-49 -33 -112 -72 -138 -85 -27 -14 -47 -28 -44 -31 11
-11 277 155 277 172 0 7 4 9 -95 -56z"/>
<path d="M5320 3370 c-52 -27 -92 -49 -87 -49 10 -1 187 88 187 94 0 7 5 9
-100 -45z"/>
<path d="M4770 3330 l-25 -8 25 0 c14 0 34 3 45 8 l20 9 -20 -1 c-11 0 -31 -4
-45 -8z"/>
<path d="M5185 3310 c-13 -6 -15 -9 -5 -9 8 0 22 4 30 9 18 12 2 12 -25 0z"/>
<path d="M4318 3293 c7 -3 16 -2 19 1 4 3 -2 6 -13 5 -11 0 -14 -3 -6 -6z"/>
<path d="M4788 3293 c7 -3 16 -2 19 1 4 3 -2 6 -13 5 -11 0 -14 -3 -6 -6z"/>
<path d="M5138 3293 c7 -3 16 -2 19 1 4 3 -2 6 -13 5 -11 0 -14 -3 -6 -6z"/>
<path d="M4358 3283 c7 -3 16 -2 19 1 4 3 -2 6 -13 5 -11 0 -14 -3 -6 -6z"/>
<path d="M5098 3283 c7 -3 16 -2 19 1 4 3 -2 6 -13 5 -11 0 -14 -3 -6 -6z"/>
<path d="M4398 3273 c6 -2 18 -2 25 0 6 3 1 5 -13 5 -14 0 -19 -2 -12 -5z"/>
<path d="M5240 3255 c-25 -13 -41 -24 -37 -25 11 0 87 39 87 45 0 7 0 7 -50
-20z"/>
<path d="M4463 3263 c9 -2 25 -2 35 0 9 3 1 5 -18 5 -19 0 -27 -2 -17 -5z"/>
<path d="M4628 3263 c7 -3 16 -2 19 1 4 3 -2 6 -13 5 -11 0 -14 -3 -6 -6z"/>
<path d="M4623 3223 c15 -2 39 -2 55 0 15 2 2 4 -28 4 -30 0 -43 -2 -27 -4z"/>
<path d="M6603 7869 c-83 -63 -90 -69 -76 -69 7 0 40 23 75 52 80 65 83 68 76
68 -4 0 -38 -23 -75 -51z"/>
<path d="M6992 7755 c0 -16 2 -22 5 -12 2 9 2 23 0 30 -3 6 -5 -1 -5 -18z"/>
<path d="M4780 7830 c-19 -5 -49 -16 -65 -25 -27 -15 -27 -16 -5 -11 104 26
167 26 233 1 27 -11 20 3 -10 18 -38 19 -110 27 -153 17z"/>
<path d="M4273 6400 c0 -47 2 -66 4 -42 2 23 2 61 0 85 -2 23 -4 4 -4 -43z"/>
<path d="M3949 6323 c-13 -16 -12 -17 4 -4 16 13 21 21 13 21 -2 0 -10 -8 -17
-17z"/>
<path d="M4537 6896 c11 -57 -47 -163 -82 -150 -17 7 -21 -11 -5 -21 19 -12
48 15 74 67 26 51 34 112 17 122 -4 3 -6 -5 -4 -18z"/>
<path d="M4080 5898 c-3 -53 -1 -94 3 -89 4 4 6 48 5 97 l-3 89 -5 -97z"/>
<path d="M4061 5890 c-1 -22 -19 -101 -37 -165 -4 -13 -3 -17 4 -10 14 15 44
149 39 176 -4 24 -4 23 -6 -1z"/>
<path d="M4061 5764 c0 -11 3 -14 6 -6 3 7 2 16 -1 19 -3 4 -6 -2 -5 -13z"/>
<path d="M3940 5700 c-7 -17 -10 -33 -8 -36 3 -2 11 9 18 26 7 17 10 33 8 36
-3 2 -11 -9 -18 -26z"/>
<path d="M3796 5705 c-3 -9 -6 -24 -5 -33 0 -9 5 -4 10 12 9 32 6 48 -5 21z"/>
<path d="M3735 5619 c-4 -6 -5 -12 -2 -15 2 -3 7 2 10 11 7 17 1 20 -8 4z"/>
<path d="M3815 5474 c-39 -26 -119 -81 -180 -124 -286 -199 -438 -301 -525
-352 -196 -115 -227 -163 -216 -331 14 -213 88 -667 161 -987 70 -304 186
-617 264 -711 11 -13 -4 21 -34 75 -99 182 -171 412 -255 816 -88 428 -144
854 -121 936 16 58 65 104 183 171 57 32 173 107 258 168 85 61 238 169 340
239 102 71 189 133 195 138 22 20 -5 5 -70 -38z"/>
<path d="M3925 4914 l-30 -26 33 22 c17 12 32 23 32 26 0 7 -4 5 -35 -22z"/>
<path d="M3850 4859 c-22 -18 -22 -19 -3 -10 12 6 25 16 28 21 9 15 3 12 -25
-11z"/>
<path d="M3395 4823 c26 -27 147 -102 173 -108 31 -6 107 9 116 24 3 5 -12 2
-34 -5 -54 -19 -102 -7 -176 43 -70 47 -93 60 -79 46z"/>
<path d="M3612 4510 c0 -14 2 -19 5 -12 2 6 2 18 0 25 -3 6 -5 1 -5 -13z"/>
<path d="M3621 4475 c-1 -5 8 -50 19 -100 38 -170 99 -502 121 -656 27 -183
32 -410 10 -449 -13 -24 -13 -24 5 -7 26 25 30 175 10 357 -20 176 -108 665
-141 781 -13 46 -24 80 -24 74z"/>
<path d="M3132 4285 c0 -16 2 -22 5 -12 2 9 2 23 0 30 -3 6 -5 -1 -5 -18z"/>
<path d="M3141 4220 c-2 -30 39 -328 59 -428 31 -161 87 -371 89 -339 1 5 -11
54 -25 110 -14 56 -48 230 -74 387 -27 157 -49 278 -49 270z"/>
<path d="M3311 3364 c0 -11 3 -14 6 -6 3 7 2 16 -1 19 -3 4 -6 -2 -5 -13z"/>
<path d="M3655 3220 c-34 -17 -36 -19 -11 -15 16 4 43 12 60 20 23 10 26 14
11 14 -11 0 -38 -8 -60 -19z"/>
<path d="M3525 3170 c-22 -11 -31 -17 -20 -14 11 4 30 9 43 11 12 3 25 9 28
14 8 14 -7 10 -51 -11z"/>
<path d="M3120 5300 c-6 -11 -8 -20 -6 -20 3 0 10 9 16 20 6 11 8 20 6 20 -3
0 -10 -9 -16 -20z"/>
<path d="M6916 4752 c10 -19 32 -48 47 -65 20 -23 18 -17 -9 23 -46 67 -64 87
-38 42z"/>
<path d="M4177 5003 c-4 -3 -7 -11 -7 -17 0 -6 5 -5 12 2 6 6 9 14 7 17 -3 3
-9 2 -12 -2z"/>
<path d="M4081 4883 c-27 -32 -48 -59 -46 -61 4 -4 48 44 87 93 36 46 10 25
-41 -32z"/>
<path d="M4158 4874 c-15 -24 -24 -44 -19 -44 8 0 55 79 50 85 -2 1 -16 -17
-31 -41z"/>
<path d="M4126 4893 c-6 -14 -5 -15 5 -6 7 7 10 15 7 18 -3 3 -9 -2 -12 -12z"/>
<path d="M3940 4719 c-104 -110 -105 -111 -54 -68 36 29 152 159 142 159 -1 0
-41 -41 -88 -91z"/>
<path d="M3939 4783 c-13 -16 -12 -17 4 -4 9 7 17 15 17 17 0 8 -8 3 -21 -13z"/>
<path d="M6776 4817 c3 -10 9 -15 12 -12 3 3 0 11 -7 18 -10 9 -11 8 -5 -6z"/>
<path d="M6780 4606 c0 -2 8 -10 18 -17 15 -13 16 -12 3 4 -13 16 -21 21 -21
13z"/>
<path d="M6765 4566 c9 -13 24 -27 33 -31 10 -4 5 6 -12 24 -36 37 -42 39 -21
7z"/>
<path d="M6820 4566 c0 -2 8 -10 18 -17 15 -13 16 -12 3 4 -13 16 -21 21 -21
13z"/>
<path d="M6810 4500 c6 -11 16 -20 22 -20 6 0 3 9 -7 20 -10 11 -20 20 -22 20
-2 0 1 -9 7 -20z"/>
<path d="M1720 4641 c-18 -6 -1 -9 55 -13 94 -5 168 -32 257 -91 79 -53 183
-151 239 -225 57 -76 67 -85 39 -37 -71 121 -228 272 -335 321 -98 45 -196 62
-255 45z"/>
<path d="M2612 4530 c0 -14 2 -19 5 -12 2 6 2 18 0 25 -3 6 -5 1 -5 -13z"/>
<path d="M2691 4514 c0 -11 3 -14 6 -6 3 7 2 16 -1 19 -3 4 -6 -2 -5 -13z"/>
<path d="M2672 4495 c0 -11 4 -33 8 -50 7 -27 8 -27 8 -5 0 14 -4 36 -8 50 -6
20 -8 21 -8 5z"/>
<path d="M2622 4470 c0 -14 2 -19 5 -12 2 6 2 18 0 25 -3 6 -5 1 -5 -13z"/>
<path d="M2691 4394 c0 -11 3 -14 6 -6 3 7 2 16 -1 19 -3 4 -6 -2 -5 -13z"/>
<path d="M1362 4365 c0 -16 2 -22 5 -12 2 9 2 23 0 30 -3 6 -5 -1 -5 -18z"/>
<path d="M2701 4344 c0 -11 3 -14 6 -6 3 7 2 16 -1 19 -3 4 -6 -2 -5 -13z"/>
<path d="M2711 4294 c0 -11 3 -14 6 -6 3 7 2 16 -1 19 -3 4 -6 -2 -5 -13z"/>
<path d="M2693 4215 c0 -44 2 -61 4 -37 2 23 2 59 0 80 -2 20 -4 1 -4 -43z"/>
<path d="M1410 4211 c19 -17 43 -31 55 -30 18 0 18 1 -4 10 -13 5 -37 18 -55
30 -30 20 -30 20 4 -10z"/>
<path d="M2727 4089 c6 -145 -9 -218 -59 -284 l-30 -40 35 37 c61 63 80 179
57 353 -5 40 -6 18 -3 -66z"/>
<path d="M2672 4150 c0 -14 2 -19 5 -12 2 6 2 18 0 25 -3 6 -5 1 -5 -13z"/>
<path d="M2622 4120 c-1 -8 5 -42 13 -75 7 -33 14 -49 14 -35 0 14 -6 48 -13
75 -8 28 -14 43 -14 35z"/>
<path d="M1670 4076 c0 -2 8 -10 18 -17 15 -13 16 -12 3 4 -13 16 -21 21 -21
13z"/>
<path d="M1700 4036 c0 -2 8 -10 18 -17 15 -13 16 -12 3 4 -13 16 -21 21 -21
13z"/>
<path d="M1745 3980 c10 -11 20 -20 23 -20 3 0 -3 9 -13 20 -10 11 -20 20 -23
20 -3 0 3 -9 13 -20z"/>
<path d="M2681 3934 c0 -11 3 -14 6 -6 3 7 2 16 -1 19 -3 4 -6 -2 -5 -13z"/>
<path d="M1775 3890 c10 -11 20 -20 23 -20 3 0 -3 9 -13 20 -10 11 -20 20 -23
20 -3 0 3 -9 13 -20z"/>
<path d="M7132 4630 c-46 -50 -81 -96 -79 -102 4 -9 6 -8 6 2 1 9 33 47 72 85
59 59 99 106 87 105 -2 -1 -41 -41 -86 -90z"/>
<path d="M7043 4410 c0 -47 2 -66 4 -42 2 23 2 61 0 85 -2 23 -4 4 -4 -43z"/>
<path d="M7031 4214 c0 -11 3 -14 6 -6 3 7 2 16 -1 19 -3 4 -6 -2 -5 -13z"/>
<path d="M7043 4070 c0 -47 2 -66 4 -42 2 23 2 61 0 85 -2 23 -4 4 -4 -43z"/>
<path d="M7332 4090 c0 -14 2 -19 5 -12 2 6 2 18 0 25 -3 6 -5 1 -5 -13z"/>
<path d="M7342 4020 c0 -19 2 -27 5 -17 2 9 2 25 0 35 -3 9 -5 1 -5 -18z"/>
<path d="M7352 3950 c0 -19 2 -27 5 -17 2 9 2 25 0 35 -3 9 -5 1 -5 -18z"/>
<path d="M7053 3905 c0 -38 2 -53 4 -32 2 20 2 52 0 70 -2 17 -4 1 -4 -38z"/>
<path d="M7362 3885 c0 -16 6 -97 13 -180 l14 -150 -5 120 c-5 120 -21 267
-22 210z"/>
<path d="M7063 3765 c0 -33 2 -45 4 -27 2 18 2 45 0 60 -2 15 -4 0 -4 -33z"/>
<path d="M7071 3619 c0 -30 4 -74 9 -99 5 -31 6 -15 3 50 -6 105 -13 134 -12
49z"/>
<path d="M7238 3443 c12 -2 30 -2 40 0 9 3 -1 5 -23 4 -22 0 -30 -2 -17 -4z"/>
<path d="M6901 4317 c-13 -23 -47 -71 -74 -107 -28 -36 -39 -54 -24 -41 15 14
44 50 64 80 52 79 52 79 48 32 -2 -26 0 -39 6 -35 6 3 8 17 5 29 -3 13 -2 27
4 30 5 3 10 11 10 16 0 6 -5 7 -11 3 -8 -4 -9 0 -4 15 10 32 3 25 -24 -22z"/>
<path d="M6829 4253 c-13 -16 -12 -17 4 -4 9 7 17 15 17 17 0 8 -8 3 -21 -13z"/>
<path d="M6792 4209 c-19 -30 -11 -32 11 -3 10 13 14 24 10 24 -5 0 -14 -9
-21 -21z"/>
<path d="M6881 4189 c-6 -18 -11 -37 -10 -43 0 -6 7 7 15 28 8 22 12 41 10 43
-2 2 -9 -10 -15 -28z"/>
<path d="M6856 4115 c-3 -9 -6 -22 -5 -28 0 -7 5 -1 10 12 5 13 8 26 5 28 -2
2 -6 -3 -10 -12z"/>
<path d="M6921 3885 c12 -22 26 -44 32 -50 15 -16 -20 48 -38 70 -9 11 -7 2 6
-20z"/>
<path d="M6911 3785 c12 -22 26 -44 32 -50 15 -16 -20 48 -38 70 -9 11 -7 2 6
-20z"/>
<path d="M6856 3757 c3 -10 9 -15 12 -12 3 3 0 11 -7 18 -10 9 -11 8 -5 -6z"/>
<path d="M6959 3705 c17 -33 31 -51 31 -40 0 6 -10 21 -21 35 -13 17 -17 18
-10 5z"/>
<path d="M6981 3595 c0 -5 6 -21 14 -35 8 -14 14 -20 14 -15 0 6 -6 21 -14 35
-8 14 -14 21 -14 15z"/>
<path d="M6900 3555 c0 -5 5 -17 10 -25 5 -8 10 -10 10 -5 0 6 -5 17 -10 25
-5 8 -10 11 -10 5z"/>
<path d="M6979 3453 c12 -24 31 -39 31 -25 0 5 -10 17 -21 28 -22 19 -22 19
-10 -3z"/>
<path d="M6110 3907 l-23 -32 29 27 c15 15 26 30 23 33 -3 2 -16 -10 -29 -28z"/>
<path d="M6564 3760 c-5 -5 -38 -11 -74 -13 l-65 -3 65 -2 c60 -2 102 9 89 22
-3 3 -10 1 -15 -4z"/>
<path d="M1490 3985 c0 -5 5 -17 10 -25 5 -8 10 -10 10 -5 0 6 -5 17 -10 25
-5 8 -10 11 -10 5z"/>
<path d="M1540 3961 c0 -6 4 -13 10 -16 6 -3 7 1 4 9 -7 18 -14 21 -14 7z"/>
<path d="M1491 3925 c0 -5 6 -21 13 -34 12 -21 14 -21 20 -6 3 10 4 20 1 23
-3 3 -5 -1 -5 -9 -1 -8 -7 -3 -15 11 -8 14 -14 21 -14 15z"/>
<path d="M1572 3888 c3 -7 13 -37 23 -66 9 -29 19 -52 21 -49 5 5 -36 127 -43
127 -3 0 -3 -6 -1 -12z"/>
<path d="M1531 3870 c0 -8 6 -28 14 -45 17 -39 18 -21 0 25 -7 19 -14 28 -14
20z"/>
<path d="M1665 3753 c15 -36 25 -52 25 -41 0 11 -30 78 -35 78 -3 0 2 -17 10
-37z"/>
<path d="M1696 3680 c10 -38 41 -95 60 -111 14 -10 13 -6 -4 18 -12 17 -31 51
-42 75 -11 23 -17 32 -14 18z"/>
<path d="M1780 3546 c0 -2 8 -10 18 -17 15 -13 16 -12 3 4 -13 16 -21 21 -21
13z"/>
<path d="M2762 3443 c-10 -34 -10 -36 3 -19 13 17 21 56 12 56 -2 0 -9 -17
-15 -37z"/>
<path d="M2399 3373 c39 -19 75 -27 125 -29 l71 -3 -65 8 c-36 5 -89 18 -118
30 -72 29 -79 25 -13 -6z"/>
<path d="M2635 3369 c-22 -10 -34 -19 -27 -19 15 0 72 28 72 35 0 6 3 7 -45
-16z"/>
<path d="M2440 3332 c8 -5 26 -13 40 -16 17 -5 20 -4 10 2 -8 5 -26 13 -40 16
-17 5 -20 4 -10 -2z"/>
<path d="M2518 3303 c7 -3 16 -2 19 1 4 3 -2 6 -13 5 -11 0 -14 -3 -6 -6z"/>
<path d="M2794 3285 c-10 -8 -14 -15 -8 -15 6 0 17 7 24 15 16 19 9 19 -16 0z"/>
<path d="M2573 3243 c9 -2 23 -2 30 0 6 3 -1 5 -18 5 -16 0 -22 -2 -12 -5z"/>
<path d="M2663 3243 c9 -2 23 -2 30 0 6 3 -1 5 -18 5 -16 0 -22 -2 -12 -5z"/>
<path d="M6293 3576 c-28 -6 -54 -14 -58 -17 -6 -6 118 16 140 25 20 8 -31 3
-82 -8z"/>
<path d="M6178 3563 c7 -3 16 -2 19 1 4 3 -2 6 -13 5 -11 0 -14 -3 -6 -6z"/>
<path d="M6138 3553 c7 -3 16 -2 19 1 4 3 -2 6 -13 5 -11 0 -14 -3 -6 -6z"/>
<path d="M6388 3493 c6 -2 18 -2 25 0 6 3 1 5 -13 5 -14 0 -19 -2 -12 -5z"/>
<path d="M6328 3483 c6 -2 18 -2 25 0 6 3 1 5 -13 5 -14 0 -19 -2 -12 -5z"/>
<path d="M6258 3473 c12 -2 30 -2 40 0 9 3 -1 5 -23 4 -22 0 -30 -2 -17 -4z"/>
<path d="M6193 3463 c9 -2 23 -2 30 0 6 3 -1 5 -18 5 -16 0 -22 -2 -12 -5z"/>
<path d="M6148 3453 c7 -3 16 -2 19 1 4 3 -2 6 -13 5 -11 0 -14 -3 -6 -6z"/>
<path d="M1770 3290 c8 -5 20 -10 25 -10 6 0 3 5 -5 10 -8 5 -19 10 -25 10 -5
0 -3 -5 5 -10z"/>
<path d="M1840 3158 c0 -3 7 -21 15 -39 16 -34 16 -34 10 -4 -6 26 -25 60 -25
43z"/>
<path d="M2476 3099 c5 -9 134 -53 139 -47 2 2 -29 15 -70 29 -41 14 -72 22
-69 18z"/>
<path d="M1871 3064 c0 -11 3 -14 6 -6 3 7 2 16 -1 19 -3 4 -6 -2 -5 -13z"/>
<path d="M2082 3064 c-21 -14 -33 -42 -13 -29 6 3 6 -6 1 -25 -5 -19 -5 -28 1
-25 5 4 9 14 9 23 0 9 7 29 14 45 17 32 17 32 -12 11z"/>
<path d="M2237 3032 c1 -8 3 -17 3 -20 0 -4 5 0 10 8 8 12 10 10 11 -10 0 -14
7 -41 14 -60 l14 -35 -3 40 c-3 45 -22 88 -36 80 -4 -3 -10 -2 -13 2 -2 5 -2
2 0 -5z"/>
<path d="M2029 3024 c-9 -12 -10 -15 -1 -10 18 11 16 4 -22 -86 -9 -21 -14
-38 -11 -38 3 0 13 16 21 36 8 20 18 34 20 31 3 -3 0 -15 -6 -27 -6 -12 -10
-24 -8 -26 3 -2 12 12 21 32 10 19 13 33 7 29 -13 -8 -13 -2 2 30 15 33 -2 54
-23 29z"/>
<path d="M2698 3023 c7 -3 16 -2 19 1 4 3 -2 6 -13 5 -11 0 -14 -3 -6 -6z"/>
<path d="M2226 2969 c-11 -11 -15 -19 -8 -19 6 0 13 -8 15 -17 3 -13 5 -12 6
5 0 13 6 20 11 17 12 -7 13 5 2 21 -5 8 -13 5 -26 -7z"/>
<path d="M2600 2984 c1 -5 15 -26 33 -47 31 -35 35 -37 62 -27 15 6 34 9 42 6
7 -3 13 -1 13 4 0 10 -25 14 -66 11 -12 -1 -34 12 -52 30 -18 18 -32 29 -32
23z"/>
<path d="M2301 2956 c7 -15 15 -23 17 -16 3 7 -3 19 -13 28 -15 16 -16 15 -4
-12z"/>
<path d="M2640 2973 c0 -13 29 -38 35 -31 3 3 -4 13 -15 23 -11 10 -20 13 -20
8z"/>
<path d="M2168 2954 c-3 -11 1 -25 9 -32 15 -15 17 -1 4 32 -8 20 -8 20 -13 0z"/>
<path d="M2083 2883 c9 -2 23 -2 30 0 6 3 -1 5 -18 5 -16 0 -22 -2 -12 -5z"/>
<path d="M2138 2883 c6 -2 18 -2 25 0 6 3 1 5 -13 5 -14 0 -19 -2 -12 -5z"/>
<path d="M2018 2873 c-9 -2 -19 -11 -22 -20 -5 -12 -3 -13 7 -5 7 6 24 16 38
21 24 10 9 13 -23 4z"/>
<path d="M1956 2834 c-4 -20 -5 -38 -3 -40 3 -3 8 11 11 32 4 20 5 38 3 40 -3
3 -8 -11 -11 -32z"/>
<path d="M2467 2825 c28 -13 73 -43 99 -67 37 -33 43 -36 25 -13 -28 38 -129
105 -156 104 -12 0 1 -10 32 -24z"/>
<path d="M7370 3266 c0 -2 16 -14 36 -26 19 -13 83 -67 141 -121 59 -55 110
-99 115 -99 5 0 -8 14 -29 32 -21 18 -74 66 -118 109 -68 64 -145 121 -145
105z"/>
<path d="M6974 3218 l-29 -33 33 29 c17 17 32 31 32 33 0 8 -8 1 -36 -29z"/>
<path d="M7360 3170 c0 -5 5 -10 11 -10 5 0 7 5 4 10 -3 6 -8 10 -11 10 -2 0
-4 -4 -4 -10z"/>
<path d="M7080 3130 c-9 -6 -10 -10 -3 -10 6 0 15 5 18 10 8 12 4 12 -15 0z"/>
<path d="M7131 3083 c-34 -62 -36 -84 -3 -31 22 35 44 88 38 88 -3 0 -18 -26
-35 -57z"/>
<path d="M7386 3127 c3 -10 9 -15 12 -12 3 3 0 11 -7 18 -10 9 -11 8 -5 -6z"/>
<path d="M7416 3115 c16 -50 16 -58 4 -65 -8 -5 -9 -13 -3 -24 8 -14 11 -15
28 -2 19 14 19 15 -5 9 -23 -5 -23 -4 -8 8 16 13 16 16 -3 54 -10 22 -16 31
-13 20z"/>
<path d="M7030 3064 c-25 -26 -67 -57 -95 -70 -53 -25 -47 -34 8 -10 37 16
113 79 127 107 16 28 9 24 -40 -27z"/>
<path d="M6995 3058 l-40 -43 43 40 c23 21 42 40 42 42 0 8 -9 0 -45 -39z"/>
<path d="M7374 2930 c0 -85 2 -120 3 -77 2 42 2 112 0 155 -1 42 -3 7 -3 -78z"/>
<path d="M7073 3058 c-20 -26 -26 -41 -15 -34 12 7 36 46 29 46 -3 0 -9 -6
-14 -12z"/>
<path d="M7725 3036 c22 -20 46 -36 54 -36 12 0 -1 10 -79 62 -8 6 3 -6 25
-26z"/>
<path d="M7076 3001 c-3 -5 16 -6 42 -4 69 7 74 11 15 12 -28 1 -54 -3 -57 -8z"/>
<path d="M7201 2996 c2 -2 15 -9 29 -15 24 -11 24 -11 6 3 -16 13 -49 24 -35
12z"/>
<path d="M7618 2993 c23 -2 59 -2 80 0 20 2 1 4 -43 4 -44 0 -61 -2 -37 -4z"/>
<path d="M7805 2991 c6 -5 24 -13 40 -17 39 -9 30 0 -15 15 -19 6 -30 7 -25 2z"/>
<path d="M7548 2983 c7 -3 16 -2 19 1 4 3 -2 6 -13 5 -11 0 -14 -3 -6 -6z"/>
<path d="M7480 2970 c-8 -5 -10 -10 -5 -10 6 0 17 5 25 10 8 5 11 10 5 10 -5
0 -17 -5 -25 -10z"/>
<path d="M7487 2945 c-20 -14 -37 -31 -37 -38 1 -7 5 -6 13 4 7 9 28 26 47 38
19 11 30 21 25 21 -6 0 -27 -11 -48 -25z"/>
<path d="M6895 3219 c-4 -6 -5 -12 -2 -15 2 -3 7 2 10 11 7 17 1 20 -8 4z"/>
<path d="M6328 3183 c6 -2 18 -2 25 0 6 3 1 5 -13 5 -14 0 -19 -2 -12 -5z"/>
<path d="M7994 3122 c4 -7 16 -12 27 -12 10 0 19 -4 19 -10 0 -5 17 -9 38 -8
37 1 37 1 4 5 -18 2 -30 9 -27 14 4 5 -3 9 -14 9 -10 0 -27 3 -37 7 -12 4 -15
3 -10 -5z"/>
<path d="M3800 3160 c8 -5 20 -10 25 -10 6 0 3 5 -5 10 -8 5 -19 10 -25 10 -5
0 -3 -5 5 -10z"/>
<path d="M4255 2990 c-3 -5 -2 -10 4 -10 5 0 13 5 16 10 3 6 2 10 -4 10 -5 0
-13 -4 -16 -10z"/>
<path d="M4623 2953 c37 -2 97 -2 135 0 37 2 6 3 -68 3 -74 0 -105 -1 -67 -3z"/>
<path d="M3985 2890 c-3 -5 -1 -10 4 -10 6 0 11 5 11 10 0 6 -2 10 -4 10 -3 0
-8 -4 -11 -10z"/>
<path d="M3641 2870 c7 -14 16 -43 20 -65 l6 -40 2 41 c1 29 -5 49 -20 65
l-20 24 12 -25z"/>
<path d="M4015 2870 c3 -5 10 -10 16 -10 5 0 9 5 9 10 0 6 -7 10 -16 10 -8 0
-12 -4 -9 -10z"/>
<path d="M3394 2861 c4 -6 33 -28 64 -49 72 -49 82 -54 82 -48 0 3 -34 29 -76
57 -42 28 -74 46 -70 40z"/>
<path d="M3591 2858 c-1 -12 31 -89 35 -85 3 2 -4 24 -15 48 -11 24 -20 41
-20 37z"/>
<path d="M3616 2847 c3 -10 9 -15 12 -12 3 3 0 11 -7 18 -10 9 -11 8 -5 -6z"/>
<path d="M3820 2837 c0 -16 -3 -26 -7 -24 -5 3 -9 -25 -10 -61 0 -37 1 -58 4
-47 23 97 29 136 22 147 -6 9 -9 4 -9 -15z"/>
<path d="M4020 2846 c0 -2 8 -10 18 -17 15 -13 16 -12 3 4 -13 16 -21 21 -21
13z"/>
<path d="M3630 2815 c0 -5 5 -17 10 -25 5 -8 10 -10 10 -5 0 6 -5 17 -10 25
-5 8 -10 11 -10 5z"/>
<path d="M3841 2804 c0 -11 3 -14 6 -6 3 7 2 16 -1 19 -3 4 -6 -2 -5 -13z"/>
<path d="M3590 2789 c0 -9 12 -33 26 -54 14 -21 28 -55 31 -74 3 -20 12 -45
19 -55 12 -18 13 -18 13 5 0 13 -3 53 -6 89 l-5 65 -19 -24 -19 -23 -20 43
c-11 24 -20 37 -20 28z m77 -151 c-2 -13 -4 -5 -4 17 -1 22 1 32 4 23 2 -10 2
-28 0 -40z"/>
<path d="M3550 2756 c0 -2 8 -10 18 -17 15 -13 16 -12 3 4 -13 16 -21 21 -21
13z"/>
<path d="M4075 2754 c-6 -2 -37 -8 -70 -14 l-60 -9 67 5 c65 4 140 23 93 23
-11 -1 -25 -3 -30 -5z"/>
<path d="M4303 2753 c9 -2 23 -2 30 0 6 3 -1 5 -18 5 -16 0 -22 -2 -12 -5z"/>
<path d="M4378 2743 c6 -2 18 -2 25 0 6 3 1 5 -13 5 -14 0 -19 -2 -12 -5z"/>
<path d="M4518 2743 c7 -3 16 -2 19 1 4 3 -2 6 -13 5 -11 0 -14 -3 -6 -6z"/>
<path d="M4443 2733 c9 -2 25 -2 35 0 9 3 1 5 -18 5 -19 0 -27 -2 -17 -5z"/>
<path d="M4558 2733 c7 -3 16 -2 19 1 4 3 -2 6 -13 5 -11 0 -14 -3 -6 -6z"/>
<path d="M3864 2714 c-10 -8 -13 -12 -6 -9 8 4 26 11 40 15 22 7 23 8 6 9 -11
1 -29 -6 -40 -15z"/>
<path d="M4508 2723 c7 -3 16 -2 19 1 4 3 -2 6 -13 5 -11 0 -14 -3 -6 -6z"/>
<path d="M4600 2721 c8 -5 33 -12 55 -15 l40 -6 -45 15 c-50 16 -73 19 -50 6z"/>
<path d="M3815 2680 c-10 -11 -16 -22 -13 -25 3 -3 13 6 22 20 20 30 16 32 -9
5z"/>
<path d="M4608 3103 c6 -2 18 -2 25 0 6 3 1 5 -13 5 -14 0 -19 -2 -12 -5z"/>
</g>
</svg>
