<?xml version="1.0" standalone="no"?>
<!DOCTYPE svg PUBLIC "-//W3C//DTD SVG 20010904//EN"
 "http://www.w3.org/TR/2001/REC-SVG-20010904/DTD/svg10.dtd">
<svg version="1.0" xmlns="http://www.w3.org/2000/svg"
 width="1024.000000pt" height="1024.000000pt" viewBox="0 0 1024.000000 1024.000000"
 preserveAspectRatio="xMidYMid meet">
<metadata>
Created by potrace 1.16, written by Peter Selinger 2001-2019
</metadata>
<g transform="translate(0.000000,1024.000000) scale(0.100000,-0.100000)"
fill="#000000" stroke="none">
<path d="M5100 8686 c-53 -14 -114 -49 -133 -77 -13 -18 -15 -17 -36 11 -49
68 -167 23 -241 -92 -23 -34 -43 -73 -47 -86 -4 -19 -10 -22 -33 -17 -48 10
-106 -12 -142 -54 -51 -60 -73 -130 -71 -232 l1 -86 -107 -47 c-413 -180 -696
-483 -897 -962 -92 -220 -162 -492 -211 -814 -24 -162 -25 -485 -1 -595 55
-254 159 -456 327 -635 l79 -85 -71 -140 c-62 -121 -83 -152 -157 -230 -170
-179 -269 -324 -341 -501 -72 -177 -99 -321 -99 -533 0 -303 59 -491 155 -491
26 0 42 9 76 45 24 25 46 45 50 45 3 0 9 -19 13 -42 12 -75 83 -271 135 -376
93 -186 200 -332 361 -493 154 -155 291 -256 453 -335 l77 -38 0 -72 0 -71
-36 -6 c-20 -4 -74 -25 -120 -48 -76 -37 -113 -67 -154 -126 -14 -20 -27 -22
-308 -32 -613 -24 -932 -62 -932 -111 0 -15 18 -21 125 -40 197 -36 581 -63
1140 -80 277 -9 358 -14 387 -27 26 -11 48 -13 80 -8 56 10 1220 10 1274 0 30
-5 48 -3 65 8 19 12 81 16 294 21 355 9 732 23 930 37 294 19 552 60 570 89
34 55 -356 95 -1126 116 l-246 7 -19 35 c-34 62 -166 143 -273 167 -31 7 -31
7 -31 73 l1 67 96 45 c275 129 561 395 736 686 76 126 170 355 202 494 10 41
19 77 21 79 2 2 25 -19 52 -48 42 -44 53 -51 87 -51 106 0 168 178 168 480 -1
295 -73 537 -229 770 -67 101 -88 127 -203 245 -108 111 -117 124 -206 295
l-71 137 50 59 c148 176 253 388 302 610 26 117 23 433 -5 612 -84 534 -259
975 -523 1318 -70 91 -236 244 -340 314 -119 79 -288 162 -426 209 l-108 37
12 29 c15 36 18 114 5 148 -15 40 -70 95 -100 102 -27 6 -29 11 -39 77 -14 90
-47 155 -98 190 -49 34 -87 40 -144 24z m81 -106 c10 -6 28 -29 40 -52 18 -35
20 -53 16 -117 -3 -42 -9 -89 -13 -105 -6 -27 -5 -29 17 -22 57 18 115 18 128
2 22 -26 9 -114 -27 -184 -18 -34 -32 -63 -32 -66 0 -2 19 -7 43 -11 77 -13
250 -75 373 -134 223 -108 400 -247 539 -426 194 -250 349 -606 439 -1005 53
-238 60 -302 60 -545 0 -221 -1 -234 -27 -330 -77 -280 -276 -553 -514 -709
-435 -284 -1058 -392 -1643 -285 -413 75 -725 225 -957 461 -178 179 -285 387
-329 638 -63 353 52 1000 250 1415 204 427 495 695 915 845 l89 32 -21 35
c-43 73 -31 235 21 296 26 29 39 19 67 -50 15 -38 31 -74 37 -80 16 -20 38
-15 38 8 0 43 52 226 77 268 60 102 85 105 113 11 11 -38 24 -71 29 -74 4 -3
37 29 72 71 38 46 82 86 108 100 49 26 64 28 92 13z m1298 -3813 c85 -161 131
-224 242 -337 257 -261 391 -567 391 -897 -1 -155 -10 -187 -36 -120 -9 25
-64 116 -122 203 -95 142 -146 211 -243 324 -20 23 16 -57 104 -232 132 -265
200 -421 211 -488 5 -34 1 -31 -97 70 -183 189 -311 356 -384 499 -50 99 -112
275 -150 424 -24 90 -42 144 -48 138 -16 -16 -21 -205 -7 -288 38 -240 194
-528 408 -755 l65 -68 -28 -118 c-57 -242 -114 -381 -222 -543 -94 -140 -176
-241 -263 -322 -115 -109 -291 -231 -407 -282 l-56 -25 -26 24 c-95 90 -267
40 -287 -83 l-6 -38 -97 -18 c-142 -27 -538 -33 -691 -10 -123 18 -150 27
-150 52 0 33 -42 103 -74 123 -62 37 -195 16 -224 -36 -8 -14 -16 -12 -73 16
-93 47 -210 127 -321 220 -185 154 -327 332 -428 535 -67 136 -100 229 -131
368 l-21 96 97 113 c186 216 292 393 367 608 31 90 32 102 33 240 0 130 -8
210 -20 198 -3 -2 -11 -39 -19 -80 -55 -288 -169 -544 -340 -761 -104 -133
-287 -327 -308 -327 -8 0 5 48 21 78 6 11 23 53 37 94 15 40 40 100 56 133 16
33 56 116 87 185 32 69 77 158 100 199 86 152 -44 -6 -212 -258 -64 -95 -124
-192 -134 -216 -10 -25 -21 -45 -24 -45 -13 0 -20 218 -9 310 33 284 148 519
374 760 106 113 192 239 240 353 11 26 24 47 29 47 4 0 50 -27 100 -61 346
-228 845 -352 1352 -335 472 15 925 162 1235 400 25 19 47 35 50 35 3 0 29
-45 59 -102z m-2025 -2868 c25 -20 26 -23 26 -140 0 -105 2 -120 18 -125 118
-38 295 -164 268 -191 -11 -11 -126 17 -193 47 l-64 29 -8 -22 c-5 -12 -12
-38 -16 -57 -18 -84 -68 -138 -105 -115 -23 14 -50 90 -50 143 0 28 -1 52 -3
52 -2 0 -43 -14 -93 -30 -95 -33 -204 -50 -204 -33 0 38 145 127 268 164 50
14 49 13 55 162 3 64 10 113 17 122 17 21 53 19 84 -6z m1271 7 c20 -14 34
-97 34 -212 l1 -61 63 -17 c80 -22 197 -86 232 -128 l28 -33 -40 -3 c-49 -4
-142 19 -215 53 l-53 25 -6 -68 c-8 -79 -29 -128 -61 -138 -31 -10 -62 30 -89
116 -13 38 -27 70 -32 70 -5 0 -39 -13 -77 -30 -74 -32 -166 -57 -176 -47 -4
3 -4 17 0 31 6 26 109 97 222 154 l61 31 5 117 c4 109 6 117 29 135 29 22 49
24 74 5z m-215 -199 c0 -7 -35 -29 -77 -50 -102 -49 -170 -100 -190 -141 -19
-41 -45 -46 -232 -46 l-126 0 -30 46 c-32 48 -121 112 -212 154 -29 13 -53 28
-53 33 0 6 21 7 53 3 28 -3 99 -11 157 -17 160 -17 542 -1 703 30 4 0 7 -5 7
-12z"/>
<path d="M4132 6258 c-50 -17 -122 -86 -148 -143 -17 -36 -24 -68 -24 -113 0
-104 44 -181 133 -232 104 -60 254 -32 328 61 106 134 64 334 -86 411 -47 25
-153 33 -203 16z m110 -85 c11 -10 18 -30 18 -54 0 -89 -119 -92 -136 -3 -5
25 -1 36 17 53 27 25 75 27 101 4z"/>
<path d="M5715 6246 c-84 -39 -143 -127 -152 -226 -14 -155 99 -280 253 -280
75 0 127 20 177 68 60 58 81 105 81 187 0 158 -108 275 -254 275 -37 0 -72 -8
-105 -24z m149 -67 c50 -39 23 -129 -39 -129 -62 0 -89 90 -39 129 15 12 32
21 39 21 7 0 24 -9 39 -21z"/>
<path d="M4947 5984 c-36 -11 -62 -30 -105 -75 -104 -111 -248 -254 -286 -284
-29 -23 -39 -39 -43 -70 -7 -56 19 -85 100 -113 63 -23 66 -26 177 -163 133
-165 174 -199 239 -199 26 1 56 6 68 13 12 7 67 68 123 137 172 212 161 201
209 211 126 28 142 122 35 202 -27 20 -87 78 -134 128 -163 176 -188 198 -243
214 -61 18 -78 18 -140 -1z m107 -113 c13 -6 81 -66 150 -134 69 -68 141 -135
161 -148 41 -28 43 -35 12 -43 -46 -11 -134 -104 -323 -339 -14 -17 -18 -17
-37 -4 -12 8 -51 52 -87 98 -85 112 -185 210 -238 233 -23 10 -42 22 -42 25 1
3 26 26 57 51 30 25 99 92 152 149 113 122 135 134 195 112z"/>
<path d="M5080 5680 c0 -14 99 -77 134 -86 48 -12 26 17 -45 59 -65 38 -89 45
-89 27z"/>
<path d="M4885 5651 c-61 -35 -87 -61 -60 -61 21 0 117 54 135 75 21 26 -19
18 -75 -14z"/>
</g>
</svg>
