<?xml version="1.0" standalone="no"?>
<!DOCTYPE svg PUBLIC "-//W3C//DTD SVG 20010904//EN"
 "http://www.w3.org/TR/2001/REC-SVG-20010904/DTD/svg10.dtd">
<svg version="1.0" xmlns="http://www.w3.org/2000/svg"
 width="1024.000000pt" height="1024.000000pt" viewBox="0 0 1024.000000 1024.000000"
 preserveAspectRatio="xMidYMid meet">
<metadata>
Created by potrace 1.16, written by Peter Selinger 2001-2019
</metadata>
<g transform="translate(0.000000,1024.000000) scale(0.100000,-0.100000)"
fill="#000000" stroke="none">
<path d="M2746 8768 c-8 -13 -29 -54 -47 -93 l-32 -70 -16 70 c-21 86 -26 95
-56 95 -34 0 -52 -32 -80 -145 -13 -53 -26 -99 -28 -102 -3 -2 -11 13 -17 34
-26 78 -50 114 -73 111 -29 -4 -65 -77 -79 -162 -6 -36 -15 -63 -19 -60 -4 2
-20 27 -35 54 -49 90 -99 56 -111 -74 -6 -63 -6 -63 -25 -44 -17 17 -22 18
-41 5 -36 -23 -48 -57 -45 -124 3 -55 1 -62 -14 -57 -27 8 -45 -34 -52 -123
-4 -47 -15 -100 -26 -125 -25 -55 -25 -75 0 -116 23 -37 19 -52 -25 -92 -40
-36 -103 -125 -126 -173 -10 -23 -19 -64 -19 -90 l0 -49 48 6 c131 17 307 25
311 14 2 -6 22 -31 44 -55 l39 -43 -12 -79 c-21 -137 21 -245 121 -313 44 -29
126 -58 166 -58 13 0 23 -5 23 -11 0 -7 -32 -60 -71 -118 -76 -114 -164 -287
-199 -390 -11 -35 -27 -107 -35 -159 -8 -52 -22 -118 -31 -145 -9 -28 -14 -63
-11 -83 3 -18 -3 -69 -13 -112 -67 -280 -47 -570 56 -820 80 -194 207 -402
347 -565 149 -174 411 -404 602 -530 111 -72 435 -240 583 -301 184 -77 469
-216 554 -272 84 -54 106 -75 167 -156 38 -51 93 -111 122 -133 29 -22 75 -64
103 -94 28 -29 75 -71 103 -93 29 -21 55 -48 58 -61 11 -41 -24 -170 -70 -262
-50 -100 -225 -379 -301 -478 -27 -36 -65 -75 -84 -88 -19 -13 -52 -39 -74
-57 -81 -71 -106 -77 -341 -77 l-210 0 -76 -36 c-70 -34 -119 -78 -119 -108 0
-7 34 -8 103 -5 92 5 100 4 82 -10 -11 -8 -37 -27 -57 -43 -34 -26 -97 -137
-85 -150 3 -2 19 3 35 11 53 28 176 56 235 55 32 -1 60 1 64 5 9 8 33 -14 33
-30 0 -7 -11 -19 -24 -26 -30 -16 -109 -135 -102 -154 7 -17 34 -8 62 22 35
37 88 46 284 50 222 4 272 8 370 35 52 14 90 31 120 56 25 20 36 33 25 28 -45
-17 -161 -45 -189 -45 -24 0 -27 -3 -16 -10 10 -7 -29 -10 -120 -10 -174 0
-331 11 -324 22 3 5 0 7 -7 6 -21 -5 -22 32 -2 47 43 32 96 36 235 15 175 -26
318 -26 376 0 l42 19 30 -29 c36 -36 62 -44 108 -35 l37 7 -51 18 c-70 24
-116 49 -109 60 3 5 28 23 55 41 27 18 56 42 64 55 29 44 117 289 153 428 36
136 37 147 37 311 0 94 -3 189 -8 213 -7 34 -6 42 6 42 18 0 51 -34 41 -43 -3
-4 3 -7 15 -7 11 0 24 5 27 10 9 15 31 12 49 -6 9 -8 21 -12 28 -8 6 4 47 9
90 11 l79 4 -7 -28 c-4 -15 -19 -46 -33 -68 -15 -22 -39 -74 -53 -115 -15 -41
-34 -92 -43 -113 l-15 -37 -63 0 c-44 0 -58 -3 -47 -10 8 -5 32 -10 54 -10 35
0 38 -2 32 -22 -52 -179 -98 -408 -113 -572 l-8 -79 -42 -15 c-24 -7 -43 -18
-43 -23 0 -13 14 -11 62 8 33 13 43 14 46 4 18 -55 98 -66 203 -30 l62 22 18
-24 c14 -19 20 -21 32 -11 12 11 20 8 43 -12 16 -13 27 -26 24 -29 -3 -2 -38
-8 -79 -11 -71 -7 -74 -7 -61 11 10 13 10 15 1 6 -7 -6 -21 -9 -30 -5 -13 5
-14 3 -4 -9 10 -12 5 -19 -24 -39 -35 -24 -45 -25 -232 -31 -138 -4 -212 -11
-251 -23 -72 -21 -212 -44 -328 -52 -84 -6 -94 -5 -107 12 -14 17 -15 18 -9 1
6 -16 3 -18 -32 -11 -22 3 -47 11 -56 16 -10 5 -18 5 -18 0 0 -15 24 -32 46
-32 12 0 39 -7 60 -16 31 -13 59 -15 148 -9 61 3 131 12 156 20 53 16 129 34
185 46 22 4 59 12 82 18 23 6 75 9 115 7 109 -5 213 11 255 40 40 27 131 33
169 11 12 -6 31 -18 43 -25 21 -12 21 -12 15 15 -4 15 -19 51 -35 79 -38 68
-72 79 -184 59 -102 -18 -146 -19 -171 -1 -17 13 -19 25 -17 104 2 95 19 223
31 232 4 3 22 66 41 140 41 168 76 259 162 427 38 73 71 149 75 168 5 27 17
43 48 64 57 40 114 105 121 138 3 16 10 42 15 58 9 29 9 29 6 3 -4 -35 11 -27
19 11 5 23 19 36 71 62 35 18 86 49 112 69 43 32 47 40 50 82 3 39 7 47 27 52
13 3 37 12 52 18 15 7 35 12 43 12 10 1 16 14 18 39 3 32 0 38 -23 47 -14 6
-43 10 -63 9 l-37 0 48 -15 c39 -12 46 -18 38 -28 -13 -16 -125 -46 -173 -47
-18 0 -42 -4 -53 -9 -16 -7 -11 -9 22 -9 23 -1 44 -5 47 -10 8 -12 -28 -21
-89 -22 l-50 -1 30 -13 30 -14 -30 -2 c-26 -2 -25 -3 10 -8 39 -6 38 -7 -27
-15 -37 -4 -72 -14 -79 -22 -7 -9 -32 -14 -68 -15 -31 0 -74 -4 -96 -8 -30 -7
-8 -9 87 -10 69 0 135 -4 145 -7 10 -3 7 1 -7 10 l-25 14 27 11 c15 6 50 13
77 17 35 4 48 10 44 19 -5 16 22 14 38 -2 17 -17 -27 -50 -100 -74 -36 -12
-87 -32 -113 -46 -39 -19 -48 -28 -49 -51 0 -24 -1 -24 -8 -7 -7 16 -13 5 -30
-53 -24 -79 -60 -129 -124 -169 -41 -26 -56 -21 -57 17 -1 8 -7 0 -15 -18 -13
-31 -17 -33 -46 -27 -21 5 -34 3 -39 -6 -6 -9 -15 -2 -30 24 -25 42 -33 47
-25 15 3 -13 1 -30 -4 -38 -9 -12 -14 -11 -40 8 -17 12 -37 22 -45 22 -18 0
-27 13 -37 54 l-7 31 -1 -37 c-1 -21 -5 -38 -10 -38 -29 0 -63 24 -96 67 -20
26 -64 66 -98 89 -77 53 -180 163 -227 243 -59 101 -153 255 -163 266 -32 38
85 -202 128 -260 l37 -50 -59 61 c-78 80 -117 152 -198 369 -37 99 -82 203
-100 230 -32 50 -63 83 -74 77 -3 -2 -7 2 -10 9 -2 7 1 9 9 4 9 -6 11 -4 6 4
-5 7 -11 10 -14 7 -3 -3 -11 -1 -19 5 -24 20 -14 -1 26 -54 36 -48 81 -128 81
-143 0 -3 -8 0 -17 7 -17 13 -17 13 0 -7 20 -24 52 -112 43 -121 -3 -4 -6 -1
-6 6 0 7 -4 10 -9 7 -5 -4 -25 15 -44 42 -38 51 -77 90 -77 77 0 -5 12 -21 27
-37 14 -15 24 -30 21 -34 -4 -3 -36 23 -73 58 -96 90 -104 84 -13 -9 89 -89
101 -103 73 -83 -34 25 -166 133 -220 181 -45 39 -111 89 -152 113 -7 4 -13 3
-13 -1 0 -5 52 -49 115 -98 63 -49 115 -91 115 -94 0 -4 21 -23 48 -44 26 -20
56 -44 67 -53 34 -27 -7 -3 -65 38 -30 21 -95 65 -145 97 -49 32 -99 68 -110
81 -11 12 -33 31 -50 43 -16 11 -7 -1 20 -27 28 -26 42 -45 32 -42 -11 3 -15
2 -12 -4 3 -6 11 -10 17 -10 6 0 29 -15 52 -33 23 -18 75 -52 116 -75 41 -24
91 -57 110 -73 l35 -31 -45 25 c-25 13 -72 41 -104 61 -60 36 -82 45 -71 26
10 -17 0 -12 -78 40 -42 27 -81 50 -87 50 -21 0 -4 -23 30 -41 31 -17 66 -46
45 -38 -5 3 -84 41 -175 85 -238 116 -351 186 -444 273 -56 53 -70 63 -47 34
37 -46 117 -116 216 -189 36 -26 63 -49 61 -52 -7 -6 -190 98 -309 177 -62 40
-163 119 -225 175 -63 55 -142 126 -176 156 -168 149 -275 295 -443 607 -100
185 -143 361 -143 583 0 229 29 380 104 534 24 50 48 102 54 116 6 14 21 41
33 60 16 28 10 23 -30 -20 -28 -30 -56 -64 -63 -75 -11 -20 -11 -20 11 -1 28
25 27 18 -3 -23 l-24 -33 4 64 c13 167 130 440 255 588 26 32 25 30 -48 -120
-93 -191 -134 -282 -129 -287 3 -3 16 21 30 52 15 31 31 53 36 50 6 -3 10 0
10 8 0 27 69 172 82 172 7 0 14 9 16 20 2 11 8 32 14 47 8 23 13 26 29 18 15
-9 21 -5 34 19 8 16 21 33 27 37 16 10 -18 -46 -41 -66 -17 -16 -44 -70 -38
-76 2 -2 36 46 76 107 40 61 74 109 76 107 2 -2 -12 -52 -33 -112 -20 -59 -38
-104 -40 -98 -2 6 4 27 12 47 30 70 15 50 -24 -34 -22 -46 -37 -87 -34 -92 3
-5 2 -9 -3 -9 -4 0 -8 -11 -8 -25 0 -23 1 -24 13 -8 12 16 12 14 6 -12 -4 -16
-13 -50 -20 -74 -13 -43 -13 -44 5 -25 10 10 31 55 45 100 58 175 174 426 184
396 6 -19 -35 -202 -73 -322 -74 -237 -98 -347 -110 -502 -9 -107 14 -240 59
-348 44 -104 28 -93 -28 18 -69 139 -81 182 -81 304 0 59 -3 100 -7 90 -4 -9
-7 -51 -7 -91 -1 -58 -4 -72 -13 -63 -8 8 -11 46 -11 109 1 76 7 116 27 178
29 90 34 147 6 70 -9 -27 -28 -77 -40 -110 -20 -55 -22 -72 -17 -200 6 -144
31 -286 62 -345 24 -46 29 -30 11 32 -8 29 -14 60 -13 68 1 8 -4 48 -12 87 -7
40 -11 78 -8 85 2 7 8 -5 12 -27 12 -70 47 -189 65 -225 19 -37 182 -200 200
-200 15 0 13 6 -25 63 -45 68 -133 271 -145 338 -24 128 -1 370 54 544 37 122
62 217 95 361 25 113 61 214 76 214 7 0 -6 -71 -47 -245 -48 -212 -52 -231
-45 -224 4 3 16 41 27 85 11 43 18 61 16 39 -3 -22 -7 -69 -10 -105 l-5 -65
10 60 c23 143 101 560 105 564 2 2 4 -3 4 -12 0 -10 3 -16 8 -16 22 4 30 -5
41 -43 11 -42 37 -211 67 -428 20 -148 24 -159 18 -50 -7 120 -40 367 -59 443
-19 74 -19 83 0 67 8 -7 15 -9 16 -4 0 5 7 -4 15 -21 l15 -30 -6 30 c-4 23 -3
26 5 13 18 -29 58 -268 69 -413 6 -77 13 -158 14 -180 2 -22 4 6 5 63 1 56 -3
145 -9 198 -11 106 -44 301 -53 324 -5 11 0 16 18 18 20 1 27 -7 49 -56 14
-31 35 -91 47 -132 41 -145 95 -286 148 -390 30 -58 69 -140 87 -182 32 -75
112 -188 159 -225 37 -29 178 -184 173 -189 -18 -18 -144 81 -237 187 -69 78
-72 80 -66 48 3 -19 11 -72 16 -119 8 -62 20 -104 45 -155 18 -38 33 -71 31
-72 -1 -1 -30 23 -64 55 -110 101 -161 214 -187 412 -13 106 -41 227 -50 218
-2 -2 3 -37 11 -78 8 -41 14 -110 14 -153 0 -82 -31 -256 -55 -311 -13 -30
-13 -27 -14 52 -1 92 -15 109 -24 30 -6 -50 -17 -120 -33 -217 -7 -42 -6 -43
15 -31 31 16 86 135 107 228 9 43 18 84 21 92 2 8 13 -11 24 -42 54 -159 170
-277 299 -302 l35 -7 -31 19 c-32 21 -64 59 -64 77 0 5 11 -7 25 -28 14 -20
30 -37 36 -37 5 0 -3 19 -19 43 -42 61 -49 76 -72 158 l-20 74 45 -52 c55 -63
87 -83 187 -117 82 -28 121 -32 162 -16 l26 9 -29 43 c-30 46 -47 90 -56 151
l-6 37 79 -40 c99 -49 177 -70 262 -69 l65 1 -41 11 c-28 8 -66 35 -119 85
-43 39 -76 72 -73 72 3 0 23 -7 44 -16 54 -23 176 -43 259 -44 108 0 189 29
118 43 -16 3 -39 8 -53 11 -22 6 -22 5 -5 -4 14 -7 -14 -8 -94 -4 -185 9 -287
63 -422 222 -39 46 -73 81 -76 78 -10 -10 109 -175 164 -227 32 -30 57 -57 56
-60 -1 -4 29 -36 67 -73 38 -36 66 -66 61 -66 -4 0 -31 7 -59 15 -91 27 -223
106 -288 173 -23 23 -32 29 -25 15 6 -12 16 -34 22 -49 7 -20 12 -25 18 -15 6
9 10 7 14 -8 3 -14 1 -19 -6 -14 -7 4 -8 0 -2 -13 13 -33 45 -135 45 -146 0
-18 -37 21 -71 73 -29 46 -107 218 -150 334 -35 92 -9 -11 33 -135 44 -130
134 -297 182 -337 l31 -26 -34 7 c-41 8 -80 31 -88 53 -4 9 -42 50 -85 91
-110 105 -131 137 -263 397 -96 189 -129 266 -186 435 -72 216 -75 225 -59
215 6 -3 13 1 16 10 5 13 9 14 15 4 6 -10 11 -6 18 12 12 34 43 46 56 24 6
-10 26 -38 46 -64 20 -25 49 -71 64 -101 34 -68 85 -143 92 -136 9 9 -85 171
-142 247 -30 40 -55 77 -55 83 0 18 17 39 26 33 5 -3 10 9 11 26 2 18 5 59 9
92 8 75 -9 154 -47 221 -15 27 -44 80 -62 117 -31 62 -32 67 -13 61 38 -12 90
-42 145 -83 30 -23 59 -41 64 -41 6 0 7 -3 4 -7 -10 -9 13 -33 32 -32 10 0 6
4 -9 10 -19 8 -21 12 -11 18 11 7 9 10 -6 15 -11 4 -45 30 -76 60 -86 83 -141
118 -215 137 -37 10 -61 18 -53 18 8 1 12 4 9 7 -4 3 -20 -2 -38 -11 -31 -16
-75 -90 -64 -107 3 -4 0 -8 -7 -8 -8 0 -8 -4 1 -15 10 -13 9 -15 -11 -16 l-24
-1 25 -8 c21 -7 22 -8 5 -9 -28 -1 -62 -41 -45 -51 9 -6 8 -9 -6 -13 -13 -3
-10 -5 9 -6 17 -1 26 3 22 9 -3 6 3 10 14 10 28 0 16 -30 -13 -31 -11 0 -15
-3 -8 -6 27 -11 9 -22 -40 -25 l-53 -3 45 -12 45 -11 -55 -2 -55 -2 40 -13
c41 -14 30 -19 -30 -15 -40 3 -29 -7 21 -19 36 -8 37 -9 9 -10 -24 -1 -27 -3
-15 -12 11 -8 4 -9 -30 -6 l-45 6 30 -25 c23 -18 26 -24 13 -24 -10 0 -18 4
-18 8 0 9 -44 32 -58 32 -4 0 2 -7 13 -16 11 -8 20 -20 20 -26 0 -6 10 -12 23
-13 12 -1 28 -8 35 -15 10 -10 7 -10 -13 0 -25 13 -25 12 3 -17 31 -34 67
-119 67 -161 0 -15 -13 -55 -29 -89 -23 -48 -39 -67 -73 -86 -102 -60 -185
-42 -289 62 -61 60 -69 75 -94 151 -32 101 -42 202 -25 254 9 29 15 34 25 26
7 -6 28 -13 46 -15 17 -2 36 -10 40 -17 7 -10 9 -10 9 0 0 19 20 14 21 -5 0
-15 2 -15 9 2 8 21 8 21 23 -25 3 -8 6 -1 7 15 1 29 1 29 15 11 15 -19 15 -19
15 5 1 24 1 24 17 4 15 -20 15 -19 10 5 -5 24 -5 24 8 5 35 -51 45 -58 26 -20
-25 49 -45 75 -58 75 -5 0 -18 9 -28 20 -10 11 -23 20 -28 20 -6 0 -1 -9 11
-20 12 -12 22 -23 22 -25 0 -3 -32 12 -71 33 -69 36 -76 37 -188 40 -64 2
-133 0 -154 -5 -27 -6 0 -8 95 -8 129 0 135 -1 217 -35 82 -34 114 -60 73 -60
-11 0 -64 17 -118 37 -96 36 -103 37 -234 37 -151 1 -201 -12 -301 -80 -28
-19 -53 -34 -56 -34 -12 0 10 78 32 115 13 22 55 71 93 109 56 55 73 66 87 59
15 -9 16 -11 1 -16 -25 -10 -21 -72 6 -91 12 -9 29 -16 38 -16 9 1 4 7 -11 15
-31 17 -44 44 -30 58 7 7 12 5 17 -6 4 -12 18 -17 46 -17 35 0 39 -2 28 -15
-32 -38 51 -2 89 39 l24 25 21 -32 c18 -27 30 -33 76 -40 30 -4 73 -12 95 -16
l40 -9 -23 18 c-13 11 -23 23 -23 27 0 4 -3 10 -6 13 -4 3 -3 -1 1 -7 4 -7 2
-13 -3 -13 -6 0 -11 5 -11 11 0 5 -4 7 -10 4 -5 -3 -10 -2 -10 4 0 6 -7 8 -15
5 -8 -3 -19 -3 -25 1 -15 9 30 44 52 40 18 -4 30 17 22 39 -3 8 -1 17 5 21 6
3 11 0 11 -7 0 -10 2 -10 9 1 5 7 14 11 20 7 7 -5 9 -1 5 11 -4 13 -3 14 4 5
7 -10 13 -8 25 11 13 20 14 25 2 23 -8 -1 -22 -10 -33 -19 -10 -9 -21 -15 -24
-12 -3 3 -26 -17 -51 -44 -26 -28 -47 -45 -47 -39 0 7 -4 7 -14 -1 -10 -9 -16
-8 -26 4 -10 13 -10 27 4 79 28 101 65 171 110 206 18 13 19 13 12 0 -5 -8 3
-1 18 15 l26 30 -15 -42 c-8 -24 -12 -43 -10 -43 3 0 18 26 35 58 28 51 33 46
14 -15 -3 -10 5 0 16 21 24 43 60 85 60 70 0 -5 -7 -21 -17 -34 -11 -18 -5
-14 23 11 57 54 93 68 217 89 95 15 116 16 142 5 30 -13 30 -13 -25 -15 l-55
-2 60 -9 c179 -26 213 -32 247 -46 22 -9 35 -20 32 -27 -3 -9 8 -15 35 -20 22
-3 44 -12 48 -19 4 -7 25 -21 46 -32 35 -18 36 -20 15 -24 -16 -2 1 -11 52
-26 41 -12 74 -26 73 -32 -1 -6 4 -14 13 -17 10 -4 13 -1 9 7 -4 6 2 1 13 -12
12 -15 24 -21 32 -16 8 5 11 4 6 -3 -4 -6 6 -18 24 -27 39 -20 201 -147 196
-153 -5 -4 -57 35 -124 90 -31 27 -108 71 -87 51 6 -6 47 -38 93 -73 46 -34
81 -65 78 -68 -3 -3 -16 3 -28 14 l-23 19 19 -23 c12 -14 26 -20 37 -17 13 4
36 -12 81 -57 161 -161 305 -353 448 -593 29 -49 66 -109 81 -132 16 -24 25
-43 21 -43 -4 0 -25 28 -46 63 -64 101 -331 448 -387 502 l-53 50 37 -44 c20
-25 37 -53 37 -64 0 -13 5 -17 15 -13 9 3 24 -7 40 -28 27 -36 32 -51 13 -40
-8 4 -10 3 -5 -2 5 -5 13 -9 19 -9 6 0 38 -39 72 -87 33 -47 99 -139 145 -203
46 -64 92 -133 102 -154 10 -22 51 -69 91 -105 40 -36 68 -66 62 -66 -5 0 -14
3 -20 8 -5 4 7 -8 26 -26 60 -56 151 -124 157 -118 3 3 -2 9 -11 12 -11 4 -14
9 -7 13 6 4 -32 43 -89 89 -95 78 -187 178 -175 190 3 3 54 -41 113 -99 139
-137 235 -217 291 -241 34 -14 42 -21 33 -30 -9 -9 -15 -8 -24 3 -12 15 -83
59 -94 59 -3 0 -2 -6 2 -12 4 -8 3 -10 -2 -5 -5 5 -9 12 -9 15 0 13 -16 32
-27 32 -7 0 -7 -4 1 -13 6 -8 8 -16 5 -20 -3 -3 3 -10 14 -16 11 -6 22 -7 26
-4 3 3 6 0 6 -7 0 -7 8 -19 18 -26 20 -16 36 -18 27 -4 -9 15 1 12 18 -4 8 -8
41 -21 73 -30 57 -15 58 -14 37 3 -13 11 -33 17 -50 15 -15 -2 -20 -1 -10 2 9
3 15 10 12 15 -19 30 101 -19 241 -99 65 -38 126 -69 134 -69 8 0 49 -12 90
-26 155 -53 398 -74 455 -38 19 11 19 12 -2 6 -13 -3 -33 -7 -45 -10 -21 -5
-21 -4 -3 4 11 6 44 20 73 32 29 12 48 25 43 29 -11 6 67 57 82 52 4 -1 7 2 7
7 0 4 14 26 31 47 17 21 64 109 106 194 61 127 95 182 189 305 109 144 184
230 184 209 0 -9 -3 -15 -111 -191 -82 -133 -94 -157 -154 -308 -26 -66 -53
-129 -60 -140 -7 -11 -21 -47 -30 -80 -9 -33 -26 -76 -36 -97 -26 -50 -11 -49
62 6 92 69 155 94 318 126 82 15 171 38 197 49 25 12 48 21 51 21 6 0 -28 -64
-54 -98 -14 -18 -43 -47 -66 -63 -36 -26 -48 -29 -126 -30 l-86 -2 90 -8 c93
-8 259 -55 249 -70 -3 -5 2 -6 10 -3 9 3 16 1 16 -5 0 -15 -74 -51 -103 -51
-14 0 -40 -6 -58 -14 -19 -8 -58 -17 -86 -21 -67 -9 -69 -25 -3 -25 104 0 246
-43 328 -98 8 -5 -50 -7 -140 -5 -84 2 -180 0 -213 -6 -57 -10 -56 -10 31 -5
50 2 118 1 150 -3 56 -7 57 -8 24 -14 -26 -5 -16 -7 40 -8 84 -1 150 -10 150
-20 0 -4 -62 -6 -137 -4 l-138 2 100 -15 c55 -8 127 -18 160 -23 47 -7 65 -6
83 6 l23 14 -23 21 c-13 11 -36 27 -53 35 -28 15 -29 17 -10 25 19 8 18 8 -2
4 -12 -2 -30 2 -40 9 -17 13 -12 20 61 93 80 82 238 187 264 177 7 -2 10 -1 7
5 -16 27 234 102 520 157 162 31 196 35 209 24 26 -22 0 -41 -58 -43 l-51 -2
48 -3 c26 -2 47 -9 47 -14 0 -14 -88 -98 -160 -154 -129 -99 -426 -257 -536
-285 -83 -21 -179 -58 -254 -98 -33 -18 -66 -25 -125 -28 -44 -3 -102 -9 -130
-13 l-50 -9 55 -1 c30 0 82 3 114 9 33 5 62 7 64 5 10 -10 -69 -35 -110 -35
l-43 -1 50 -17 c63 -22 194 -104 218 -137 18 -24 17 -25 -5 -34 -13 -6 -72
-13 -133 -18 -120 -8 -113 -8 -170 1 l-40 6 40 -14 c94 -31 292 -177 361 -265
60 -76 55 -85 -9 -19 -64 65 -102 84 -204 104 -42 8 -93 23 -113 34 l-35 20
30 -25 c17 -14 46 -32 65 -41 174 -77 178 -79 234 -143 73 -83 72 -102 -1 -24
-32 33 -69 65 -83 72 -15 7 -6 -6 26 -36 79 -74 154 -163 181 -216 13 -27 22
-51 20 -53 -2 -3 -25 20 -50 49 -41 48 -215 181 -307 234 -19 11 -53 30 -75
43 -54 31 -35 14 50 -46 147 -102 291 -260 345 -376 25 -54 57 -214 45 -226
-1 -2 -12 28 -24 67 -27 90 -106 207 -184 274 -33 28 -88 77 -121 107 -115
105 -210 185 -202 170 5 -8 24 -33 41 -55 34 -42 111 -175 134 -233 8 -18 16
-31 18 -28 8 8 -18 75 -53 138 -19 33 -34 63 -34 66 0 9 59 -49 81 -80 11 -15
25 -55 31 -89 7 -41 13 -57 19 -48 5 9 9 -23 9 -78 0 -51 -4 -93 -9 -93 -14 0
-51 50 -51 70 0 16 -74 107 -177 216 -26 29 -100 96 -163 150 -247 211 -357
313 -684 635 -186 184 -355 346 -375 360 -35 26 -131 72 -131 64 0 -3 17 -13
38 -24 53 -27 160 -114 207 -169 l40 -46 -50 34 c-27 18 -108 75 -180 125 -71
51 -159 104 -195 118 -64 26 -98 31 -41 6 16 -7 28 -16 26 -19 -2 -3 10 -5 25
-6 18 -1 65 -27 129 -73 56 -40 101 -74 101 -77 0 -2 -39 22 -87 54 -117 79
-152 96 -149 77 2 -15 34 -44 49 -45 5 0 5 5 1 12 -4 7 -3 8 5 4 6 -4 9 -11 6
-16 -3 -5 27 -28 67 -51 159 -91 368 -240 495 -352 73 -65 133 -123 133 -129
0 -6 -9 -3 -20 7 -11 10 -20 16 -20 13 0 -3 33 -33 73 -66 39 -34 99 -86 132
-118 l60 -56 -50 28 c-55 30 -206 135 -360 250 -55 41 -117 86 -137 99 -42 28
-68 65 -45 65 8 0 38 -17 68 -38 30 -21 62 -41 72 -45 9 -3 45 -25 80 -49 34
-23 56 -34 48 -25 -7 10 -46 38 -85 63 -149 97 -178 119 -254 186 -42 38 -96
81 -118 94 -42 25 -157 54 -204 53 -14 -1 7 -7 45 -14 102 -19 138 -37 220
-110 76 -68 97 -94 109 -133 6 -18 -4 -14 -59 28 -62 47 -135 90 -151 90 -4 0
20 -17 54 -37 92 -56 182 -140 204 -190 10 -24 16 -48 13 -54 -4 -6 0 -16 8
-22 8 -7 17 -23 20 -37 2 -14 8 -33 12 -42 5 -13 2 -18 -10 -18 -14 0 -15 -3
-6 -14 7 -8 11 -30 9 -48 -3 -31 -5 -33 -47 -36 -36 -3 -48 1 -65 20 -12 13
-17 18 -12 11 4 -7 14 -30 22 -50 10 -29 13 -32 14 -15 0 21 4 23 29 17 47
-10 71 9 71 55 0 21 5 40 11 42 8 3 6 14 -5 37 -26 50 -15 57 33 20 63 -48 83
-93 88 -196 2 -47 6 -90 9 -94 3 -5 -5 -14 -18 -19 -22 -9 -21 -10 7 -7 29 2
30 3 32 62 2 35 -3 75 -12 98 -28 70 -18 75 38 20 140 -136 285 -218 471 -267
55 -15 115 -36 135 -48 48 -29 203 -149 199 -154 -2 -2 -49 19 -104 46 -148
73 -168 71 -25 -3 68 -36 135 -77 150 -92 l26 -27 -25 7 c-14 4 -52 22 -85 40
-33 18 -109 54 -170 80 -106 46 -155 77 -155 99 0 16 -71 76 -107 92 -57 25
-68 16 -22 -17 24 -17 67 -53 94 -79 56 -54 199 -133 380 -210 113 -49 150
-68 142 -77 -2 -2 -48 13 -102 32 -136 49 -142 39 -8 -13 92 -35 117 -49 153
-89 l44 -46 -42 7 c-23 3 -124 33 -225 65 -100 33 -209 67 -242 76 -64 18
-199 79 -252 115 -18 12 -33 20 -33 17 0 -12 131 -86 201 -114 78 -32 442
-145 540 -169 70 -16 185 -87 204 -125 19 -36 19 -42 -2 -35 -10 3 -6 -3 10
-15 36 -27 34 -46 -5 -54 -18 -4 -100 -27 -183 -51 -188 -54 -337 -87 -485
-109 -63 -9 -120 -21 -125 -25 -35 -29 -400 -54 -565 -39 -145 13 -289 42
-382 76 l-71 27 38 13 c34 11 46 10 124 -12 183 -54 309 -70 521 -68 107 1
227 6 265 11 58 9 49 9 -55 4 -253 -14 -428 -1 -652 48 -106 23 -124 34 -82
51 41 17 74 14 204 -14 126 -28 226 -43 340 -51 105 -7 79 -1 -92 23 -173 25
-350 59 -361 70 -11 11 47 31 88 31 18 0 88 -11 156 -25 338 -70 719 -82 912
-28 76 21 67 27 -14 9 -220 -50 -597 -35 -929 35 -101 22 -104 23 -75 36 17 7
46 11 65 9 19 -3 27 -2 18 0 -10 3 -18 10 -18 15 0 19 57 21 168 5 177 -24
298 -36 391 -36 47 0 135 -5 196 -11 61 -6 124 -9 141 -7 45 5 -198 27 -421
38 -191 9 -380 33 -398 50 -11 10 40 26 122 39 35 6 74 17 86 25 24 16 93 5
384 -64 162 -38 273 -53 334 -46 54 6 70 13 61 27 -3 6 -10 6 -17 1 -23 -18
-83 -20 -180 -5 -111 16 -534 118 -552 133 -7 6 -15 7 -19 3 -10 -10 -99 -4
-155 11 -28 7 -48 9 -46 5 6 -9 97 -29 135 -29 32 0 40 -14 14 -24 -52 -20
-203 8 -295 54 -48 24 -249 171 -271 197 -11 15 -11 16 7 9 11 -4 55 -17 97
-28 73 -20 79 -20 127 -4 l50 16 133 -74 c73 -41 160 -84 193 -95 82 -27 255
-48 280 -34 16 9 9 12 -40 18 -177 19 -324 65 -481 151 -64 35 -84 51 -84 67
0 73 -51 182 -124 267 -37 43 -21 50 49 20 26 -11 68 -25 92 -31 41 -9 47 -7
76 17 20 17 38 24 55 21 15 -3 30 3 43 16 10 11 18 22 16 23 -1 1 -20 -2 -42
-6 -34 -7 -36 -8 -11 -9 37 -1 31 -7 -16 -14 -32 -5 -38 -3 -44 16 -6 21 -64
117 -70 117 -4 0 17 -46 45 -99 23 -43 23 -45 5 -58 -21 -16 -71 -10 -116 13
l-28 15 19 27 c22 31 38 87 21 77 -5 -3 -10 -12 -10 -19 0 -26 -41 -66 -68
-66 -39 0 -217 93 -194 102 16 6 16 7 0 7 -11 1 -21 15 -29 39 -6 21 -20 49
-31 63 l-19 24 15 -31 c25 -51 24 -86 -2 -100 -22 -11 -21 -12 15 -17 44 -7
127 -48 163 -80 41 -36 132 -187 152 -250 27 -89 24 -94 -29 -50 -67 55 -213
151 -213 140 0 -3 24 -20 52 -38 29 -19 86 -61 127 -93 69 -55 73 -60 56 -72
-26 -19 -66 -17 -159 6 -69 18 -114 39 -203 98 -48 31 -19 1 65 -67 48 -39
122 -99 164 -133 110 -90 172 -125 284 -158 l99 -30 -95 4 c-160 7 -278 58
-409 179 -99 92 -119 106 -72 52 120 -138 212 -200 361 -246 66 -20 71 -23 55
-35 -26 -19 -62 -17 -141 7 -125 38 -383 189 -502 294 -39 34 -43 36 -27 12
26 -40 201 -164 330 -235 108 -59 212 -101 257 -103 13 -1 1 -5 -27 -10 -29
-5 -68 -4 -93 2 -70 15 -221 91 -343 171 -63 41 -139 90 -169 109 -30 18 -80
56 -111 84 -53 48 -53 47 6 -10 136 -134 397 -298 574 -361 60 -21 63 -23 37
-30 -15 -3 -46 -1 -68 5 -60 19 -383 183 -468 239 -41 27 -91 57 -110 67 -19
9 -44 25 -55 34 -18 15 -19 15 -7 -1 22 -29 283 -194 387 -246 169 -84 232
-112 251 -113 29 -2 -56 -18 -97 -18 -50 -1 -186 43 -308 101 -57 26 -106 47
-108 45 -7 -7 221 -115 280 -133 31 -9 56 -19 53 -21 -2 -2 -44 3 -92 12 -91
17 -307 102 -298 117 3 4 -3 5 -12 1 -10 -4 -15 -2 -11 4 3 5 -9 17 -28 26
-19 9 -37 12 -40 7 -6 -10 -17 -4 125 -78 131 -68 163 -80 252 -91 l63 -8 -57
-2 c-103 -2 -185 22 -380 113 -54 25 -98 43 -98 41 0 -3 53 -32 118 -65 85
-43 108 -58 82 -54 -26 3 -30 2 -15 -4 11 -5 58 -15 104 -21 46 -6 87 -13 89
-16 12 -11 -136 -3 -168 9 -203 78 -245 98 -321 151 l-84 58 49 -51 c30 -31
72 -61 108 -77 33 -15 58 -28 56 -30 -2 -2 -42 7 -88 20 -46 13 -86 22 -89 20
-8 -9 137 -58 237 -80 40 -9 72 -19 72 -22 0 -8 -106 6 -180 24 -71 16 -170
56 -211 85 -14 9 -29 15 -32 12 -6 -6 -89 34 -97 46 -3 5 -36 23 -75 42 l-70
33 45 4 c44 3 43 4 -48 27 -104 26 -222 76 -249 107 -18 20 -18 20 14 4 90
-47 246 -86 259 -65 3 4 -3 8 -13 8 -46 1 -282 122 -393 204 -70 51 -52 28 85
-109 78 -78 129 -120 175 -144 36 -19 87 -49 113 -67 39 -25 45 -33 30 -37
-12 -3 -9 -5 10 -6 15 0 67 -23 115 -51 236 -134 466 -189 745 -176 77 3 137
2 137 -3 0 -14 144 -71 244 -96 120 -30 315 -55 434 -55 101 0 383 23 487 40
68 11 156 13 179 4 24 -9 19 -23 -6 -18 -17 4 -14 1 7 -9 17 -8 40 -24 52 -36
26 -25 46 -27 64 -5 8 10 21 13 38 9 l26 -6 -25 21 -25 20 23 0 c13 0 32 -5
43 -10 10 -6 19 -8 19 -6 0 3 -18 15 -41 26 -23 12 -39 24 -36 26 15 15 86 10
122 -8 l39 -21 -28 37 c-34 46 -27 56 21 31 20 -11 39 -20 42 -20 3 0 12 -4
19 -8 20 -13 14 0 -18 37 l-30 34 36 7 c44 8 63 -7 99 -78 28 -57 34 -36 10
34 -19 53 -5 42 30 -25 35 -67 55 -157 53 -246 0 -41 -3 -61 -5 -45 -2 17 -8
39 -13 50 -5 11 -16 45 -24 75 -15 52 -15 53 -9 10 3 -25 6 -72 5 -105 -1 -33
2 -76 7 -95 l8 -35 11 35 12 35 -5 -35 c-3 -19 -14 -44 -25 -55 -20 -19 -20
-19 -21 60 -1 56 -3 72 -9 55 -4 -14 -8 -19 -9 -12 -1 6 -5 12 -10 12 -5 0
-13 -25 -16 -55 -8 -63 -15 -63 -32 -2 -6 25 -11 33 -12 20 -1 -16 -6 -21 -21
-18 -15 3 -20 -2 -20 -18 0 -20 -2 -19 -19 8 -30 49 -83 92 -128 106 -50 14
-58 34 -10 24 29 -6 27 -4 -18 23 -59 35 -96 71 -74 73 15 2 -38 12 -111 23
l-45 6 43 -16 c52 -19 49 -31 -4 -14 -39 13 -124 8 -166 -10 -17 -7 -10 -8 27
-3 70 10 111 6 160 -16 46 -20 74 -48 36 -36 -32 10 -25 0 17 -25 32 -20 34
-24 18 -29 -17 -6 -15 -9 12 -20 17 -7 37 -20 44 -29 12 -14 8 -15 -37 -8
-135 18 -190 18 -290 -4 -137 -29 -221 -39 -350 -40 -85 -1 -103 -4 -80 -11
36 -12 273 -9 298 3 9 5 48 13 85 17 l67 9 43 -41 c23 -23 42 -46 42 -51 0 -6
-21 10 -47 34 l-48 45 44 -47 c24 -26 48 -45 53 -42 4 3 6 -1 3 -8 -2 -7 9
-38 25 -68 77 -147 102 -209 79 -194 -8 5 -23 10 -34 11 -15 3 -17 1 -7 -9 19
-19 14 -30 -7 -18 -21 11 -116 130 -104 130 4 0 26 -17 48 -37 23 -21 16 -13
-16 17 -48 47 -159 121 -159 107 0 -3 22 -19 50 -37 29 -18 63 -53 83 -83 38
-59 57 -94 30 -57 -10 13 -28 36 -41 50 l-23 25 21 -42 c11 -24 23 -64 27 -90
l6 -46 -29 30 c-16 17 -34 28 -40 26 -6 -2 -16 7 -22 19 -10 20 -11 18 -5 -16
l6 -38 -54 4 c-61 6 -209 -11 -209 -23 0 -4 33 -5 73 -2 72 5 127 -7 127 -27
0 -5 -12 -10 -26 -10 -24 0 -25 -2 -13 -17 8 -10 -1 -5 -19 10 -19 15 -40 27
-47 27 -7 0 -22 2 -32 6 -10 3 0 -4 22 -16 26 -13 47 -33 56 -54 l15 -33 -32
13 c-34 14 -117 17 -169 5 -20 -5 -4 -7 48 -8 81 -1 137 -16 137 -38 0 -11 -9
-10 -45 0 -25 8 -73 17 -107 20 l-63 6 76 -24 c79 -24 129 -50 129 -67 0 -6
-11 -10 -23 -10 -22 0 -22 -3 16 -41 45 -48 57 -42 57 27 0 29 6 47 21 60 12
10 29 35 40 54 l18 35 -6 -32 c-3 -18 -3 -33 1 -33 4 0 24 12 46 26 38 26 44
36 53 94 3 14 5 3 6 -23 0 -27 -4 -58 -10 -69 -8 -16 -8 -19 2 -16 27 9 50 56
56 111 6 61 17 71 35 33 11 -26 38 -43 38 -24 0 7 5 7 14 -1 31 -26 48 72 27
162 -5 20 -7 37 -5 37 1 0 21 -25 42 -55 22 -30 42 -52 46 -48 3 3 6 21 6 39
0 43 -46 97 -111 130 -27 13 -55 36 -63 52 -8 15 -41 55 -73 90 -56 59 -58 64
-39 74 46 25 247 -13 270 -51 12 -19 28 -12 21 9 -5 16 -2 20 14 20 21 0 29
24 12 35 -6 3 -9 14 -8 25 2 24 27 26 67 5 29 -15 80 -89 80 -116 -1 -10 -4
-9 -11 4 -14 24 -33 22 -19 -2 5 -11 10 -32 9 -48 l-1 -28 -10 33 c-14 42 -23
41 -24 -3 0 -19 -3 -38 -7 -41 -3 -4 -32 16 -64 43 -64 55 -84 67 -128 77
l-30 6 25 -15 c19 -11 21 -14 8 -15 -26 0 -22 -12 20 -61 46 -54 73 -139 76
-241 1 -21 4 -38 7 -38 13 0 38 37 55 80 9 25 25 54 35 65 19 19 19 19 19 -3
0 -24 24 -30 36 -10 4 7 13 35 20 63 8 34 13 41 13 23 1 -15 6 -30 12 -34 11
-7 9 41 -7 126 l-4 25 9 -25 c5 -14 14 -45 21 -70 12 -42 14 -43 21 -20 4 16
7 19 8 8 1 -20 31 -14 31 6 0 7 7 21 15 32 13 18 14 18 8 -5 -8 -33 6 -26 71
37 75 72 79 98 43 232 -27 99 -29 112 -16 104 9 -5 10 -2 5 12 -33 81 -55 144
-51 144 3 0 23 -9 45 -20 79 -40 57 -8 -31 46 -33 19 -59 39 -59 42 0 9 91 42
113 42 26 0 29 18 12 71 -24 71 -10 73 21 3 15 -32 33 -66 40 -75 8 -8 28 -40
44 -70 17 -30 28 -43 24 -29 -11 42 -84 181 -129 247 -24 35 -48 85 -55 115
-7 29 -19 65 -27 81 -7 15 -9 27 -4 27 8 0 41 -75 56 -128 14 -49 15 -11 2 41
-8 31 -12 58 -9 61 3 3 0 6 -6 6 -13 0 -54 65 -56 88 -1 10 -7 27 -14 40 -22
39 3 24 68 -40 89 -89 132 -159 166 -274 29 -98 29 -102 29 -349 l0 -250 -40
-145 c-38 -137 -40 -142 -43 -96 -2 26 2 62 7 79 6 16 11 42 10 56 0 23 -1 24
-9 6 -8 -19 -9 -19 -9 2 -1 11 -15 50 -31 85 l-30 63 6 -65 c3 -36 9 -103 15
-150 5 -47 9 -124 9 -172 0 -49 4 -88 9 -88 15 0 69 141 100 262 32 124 56
303 47 346 -11 54 47 -86 89 -213 58 -175 73 -253 86 -451 14 -225 -3 -390
-53 -507 -12 -26 -18 -50 -15 -53 3 -3 31 7 63 22 82 39 170 131 216 225 116
237 120 519 14 878 -39 130 -62 185 -103 239 -69 91 50 -15 177 -158 130 -148
232 -331 301 -542 50 -151 69 -263 69 -399 0 -98 2 -109 18 -109 37 0 129 56
183 111 100 101 143 223 142 404 0 125 -8 177 -59 360 -52 187 -97 281 -209
445 -158 233 -175 258 -175 270 0 6 -4 9 -9 6 -5 -4 -37 24 -71 61 -54 59 -59
62 -39 28 12 -22 38 -61 57 -87 62 -88 24 -49 -53 52 -130 172 -287 292 -465
356 -63 22 -124 44 -135 48 -18 7 -18 6 -3 -6 9 -7 25 -18 35 -25 31 -20 -95
-15 -137 5 -42 21 -47 53 -10 63 14 4 19 7 13 8 -7 1 -13 6 -13 12 0 9 22 10
78 6 220 -18 424 -116 606 -292 23 -21 45 -38 49 -37 5 1 5 -2 2 -8 -4 -6 0
-19 8 -28 8 -9 29 -42 46 -72 31 -56 43 -63 16 -10 -9 17 -13 30 -10 30 3 0
22 -34 42 -76 39 -80 54 -84 33 -8 -7 25 -10 47 -6 51 3 3 6 0 6 -8 1 -8 7
-27 15 -44 l14 -30 -5 35 -5 35 16 -25 c16 -25 16 -24 9 18 -3 23 -4 42 -1 42
2 0 14 -27 26 -59 12 -33 40 -81 62 -108 22 -26 60 -88 83 -138 54 -115 128
-204 197 -238 62 -31 79 -26 111 36 35 68 36 174 4 289 -33 115 -118 290 -188
383 -59 79 -279 305 -297 305 -7 0 -9 -5 -5 -12 4 -8 3 -10 -2 -5 -5 5 -9 14
-9 20 0 5 -6 12 -14 15 -9 3 -11 0 -6 -8 5 -9 4 -11 -4 -6 -6 4 -9 11 -6 16 6
9 -38 40 -57 40 -7 -1 -1 -8 15 -16 29 -16 37 -27 12 -18 -30 12 -14 -4 40
-40 111 -73 292 -277 374 -421 54 -94 86 -172 111 -272 30 -117 23 -120 -14
-8 -111 336 -376 636 -702 795 -220 107 -390 153 -617 165 -64 4 -119 11 -122
16 -3 4 37 29 90 55 115 56 200 69 340 53 113 -12 183 -30 315 -80 112 -42
344 -156 362 -176 16 -20 -6 -16 -53 8 -61 31 -185 59 -253 58 -34 -1 -52 -4
-42 -6 14 -4 16 -7 6 -13 -8 -5 8 -11 41 -16 43 -6 49 -9 29 -14 -24 -6 -23
-7 21 -33 34 -20 60 -27 100 -27 30 -1 90 -7 134 -15 99 -18 95 -18 95 0 0 38
-37 79 -137 155 -117 87 -266 170 -307 170 -40 0 -31 13 29 39 90 39 217 121
213 138 -5 26 -300 109 -423 120 l-76 6 58 31 c148 79 304 206 362 293 56 84
38 114 -83 140 -66 14 -93 15 -189 6 -62 -6 -113 -10 -114 -9 -1 1 77 38 175
81 97 44 211 102 252 129 227 148 380 315 343 375 -29 49 -164 80 -378 88
-260 9 -428 -23 -692 -133 -73 -31 -138 -52 -144 -48 -8 4 -7 9 2 15 23 14 -6
10 -42 -6 l-34 -14 30 -1 c27 0 23 -4 -40 -41 -78 -47 -212 -115 -265 -135
l-35 -14 35 6 c19 4 47 13 62 20 43 22 57 16 18 -7 -19 -12 -116 -104 -215
-205 -164 -167 -210 -204 -251 -204 -19 0 130 234 242 379 100 129 343 378
480 491 149 123 341 258 476 336 37 21 66 40 64 41 -6 6 -192 -104 -311 -183
-135 -90 -214 -152 -374 -297 -229 -207 -397 -404 -529 -621 -37 -60 -81 -123
-97 -140 -37 -37 -136 -109 -142 -103 -2 3 6 31 17 63 12 33 25 71 30 86 20
65 194 402 254 492 42 63 66 109 66 127 0 22 21 52 88 124 355 391 826 626
1196 598 42 -3 78 -9 81 -13 7 -11 -24 -89 -66 -163 -120 -212 -294 -361 -604
-516 -90 -45 -143 -77 -132 -79 24 -5 317 133 393 185 203 139 363 330 424
508 23 66 20 90 -13 99 -42 11 -282 6 -348 -8 -100 -21 -243 -72 -344 -121
-115 -55 -302 -180 -428 -285 -54 -45 -100 -80 -101 -78 -2 1 8 64 21 138 37
212 44 294 32 394 -16 151 -37 216 -67 216 -31 0 -118 -57 -179 -117 -188
-186 -276 -415 -311 -808 l-8 -90 -17 40 c-21 47 -51 81 -89 101 -37 19 -37
19 -58 -29 -47 -106 -35 -268 35 -475 l47 -136 -23 -48 c-52 -112 -154 -228
-228 -260 -118 -50 -256 -47 -428 11 -93 31 -513 230 -598 284 -78 49 -183
137 -260 218 -74 79 -132 161 -264 376 -136 220 -243 357 -424 542 -111 112
-192 173 -342 256 -38 21 -113 64 -166 96 -97 58 -178 91 -256 104 -24 4 -45
10 -47 14 -3 4 20 20 51 35 85 41 120 73 149 132 23 48 26 63 22 128 -5 83
-29 134 -71 154 -23 11 -33 10 -71 -7 l-45 -19 -3 56 c-3 51 -5 57 -26 60 -17
3 -40 -12 -85 -55 l-62 -58 -6 57 c-4 32 -12 65 -19 73 -18 22 -47 18 -64 -7z
m44 -92 c0 -104 41 -110 121 -17 24 28 47 51 52 51 4 0 7 -25 7 -55 0 -70 13
-76 85 -39 33 16 59 24 64 18 33 -36 42 -183 15 -240 -33 -69 -116 -121 -230
-143 -347 -68 -478 -131 -575 -276 -39 -57 -79 -152 -79 -185 0 -13 -15 -24
-57 -40 -55 -20 -59 -21 -100 -5 -34 13 -51 29 -78 71 -48 74 -51 95 -26 154
13 30 21 70 21 104 0 30 3 62 6 71 6 14 9 13 30 -6 19 -18 26 -20 38 -9 13 10
14 31 9 121 -7 127 3 139 44 54 28 -56 42 -66 62 -41 8 10 8 33 0 88 -11 73 0
158 19 158 5 0 16 -22 25 -48 23 -64 44 -92 68 -92 24 0 35 26 48 124 11 77
24 116 40 116 8 0 17 -28 41 -117 9 -35 15 -43 34 -43 34 0 44 17 67 116 37
157 40 165 52 161 6 -2 16 -37 22 -78 12 -87 18 -99 50 -99 29 0 43 21 80 118
15 39 31 72 36 72 5 0 9 -29 9 -64z m3807 -593 c10 -38 10 -138 -1 -193 -11
-57 3 -46 21 17 12 45 13 40 9 -87 -2 -80 -12 -178 -24 -240 -12 -58 -23 -134
-25 -170 -5 -64 -5 -66 -77 -147 -39 -44 -81 -84 -92 -86 -19 -5 -20 -2 -15
36 4 23 19 76 35 117 16 41 32 91 36 110 12 59 -9 13 -49 -110 -56 -172 -69
-203 -116 -267 -63 -88 -62 -88 -56 17 10 162 98 473 191 675 20 43 35 80 33
82 -7 6 -98 -198 -134 -297 -52 -143 -91 -307 -108 -448 -8 -70 -15 -132 -15
-138 0 -6 -14 -31 -32 -55 l-32 -44 -7 30 c-10 46 -10 246 1 380 16 200 60
376 128 511 63 124 176 254 273 313 44 27 47 26 56 -6z m-3475 -351 c32 -29
70 -121 70 -168 0 -35 -39 -116 -77 -163 -33 -39 -120 -82 -135 -67 -5 5 -10
34 -10 63 0 41 9 71 38 131 35 73 37 81 35 170 l-1 93 26 -17 c15 -9 39 -28
54 -42z m-712 44 c0 -2 -8 -10 -17 -17 -16 -13 -17 -12 -4 4 13 16 21 21 21
13z m608 -73 c-4 -64 -10 -86 -33 -123 -16 -25 -30 -54 -31 -65 -2 -11 -5 -31
-9 -45 -3 -14 -7 -43 -10 -65 -4 -40 -4 -40 4 -5 l8 35 3 -45 c2 -25 3 -50 3
-57 0 -6 6 -9 13 -6 8 3 14 1 14 -5 0 -5 11 -12 25 -14 13 -3 22 -1 19 3 -7
12 3 11 26 -1 16 -9 19 -8 13 7 -5 15 -3 16 8 6 19 -18 34 -16 19 2 -17 20 -1
19 24 -2 12 -10 15 -11 9 -3 -19 21 -16 32 7 20 16 -9 19 -8 13 7 -5 13 -3 15
12 10 15 -6 16 -5 6 7 -10 12 -5 28 29 83 22 37 38 73 36 80 -9 22 13 24 25 2
7 -14 10 -53 7 -108 -7 -127 -44 -190 -137 -227 -60 -24 -129 -24 -165 -1 -40
26 -67 96 -73 186 -6 76 -5 78 29 127 55 76 69 111 72 173 3 53 18 101 33 101
3 0 4 -35 1 -77z m-65 -60 c-7 -2 -19 -2 -25 0 -7 3 -2 5 12 5 14 0 19 -2 13
-5z m277 -68 c7 -8 8 -15 2 -15 -5 0 -15 7 -22 15 -7 8 -8 15 -2 15 5 0 15 -7
22 -15z m-915 -19 l40 -12 -55 -16 c-30 -9 -80 -16 -110 -17 -30 -1 -102 -6
-159 -11 -58 -5 -106 -8 -109 -6 -7 7 94 55 135 65 56 13 212 11 258 -3z m-90
-86 c10 -11 14 -20 9 -20 -12 1 -44 25 -44 34 0 12 17 6 35 -14z m86 -39 c5 9
9 -10 9 -53 0 -178 59 -293 192 -375 56 -35 58 -37 36 -46 -61 -23 -189 22
-245 86 -42 48 -66 125 -61 195 5 66 51 226 56 198 3 -15 6 -16 13 -5z m3669
-208 c2 -62 38 -238 65 -317 31 -91 48 -164 25 -111 -7 15 -9 10 -10 -25 0
-25 -7 -56 -15 -70 l-13 -25 -21 47 c-11 26 -32 84 -46 130 -46 143 -46 378 1
378 8 0 14 -3 14 -7z m60 -109 c18 -52 34 -93 36 -91 2 2 -7 37 -21 78 -28 84
-33 114 -11 84 18 -27 43 -110 50 -165 5 -34 4 -40 -4 -25 -9 18 -10 17 -5 -5
29 -132 29 -159 1 -85 -10 25 -21 43 -25 41 -11 -7 -39 87 -50 170 -6 39 -14
79 -17 89 -5 12 -4 16 4 12 6 -4 25 -50 42 -103z m1944 86 c105 -12 176 -29
176 -41 0 -5 -14 -9 -30 -9 -47 0 -345 -68 -442 -101 -174 -59 -446 -201 -680
-354 -124 -82 -226 -163 -342 -274 -58 -55 -58 -56 -28 -13 17 23 38 66 49 94
12 36 47 84 113 160 125 142 160 193 160 231 l0 30 -63 -6 c-34 -3 -71 -9 -81
-13 -12 -5 -17 -4 -13 3 4 6 33 21 64 33 32 13 119 51 193 86 345 159 612 209
924 174z m221 -82 c-23 -76 -102 -150 -190 -178 -58 -18 -59 -18 -15 -13 42 5
36 0 -75 -57 -66 -34 -122 -64 -125 -67 -3 -3 13 -2 35 2 l40 8 -25 -20 c-48
-37 -79 -53 -217 -112 -400 -171 -590 -289 -796 -493 -55 -54 -102 -98 -106
-98 -14 1 -145 48 -135 49 14 1 113 90 125 112 7 15 1 20 -44 34 -28 10 -55
21 -60 24 -8 8 221 226 308 293 208 158 602 377 800 444 118 39 362 93 428 93
56 1 58 0 52 -21z m-1285 -252 c0 -32 -192 -246 -268 -298 -58 -40 -154 -77
-220 -85 l-54 -6 142 146 c155 160 226 219 286 241 52 20 114 20 114 2z
m-2290 -283 c0 -7 -53 33 -95 72 -22 20 -10 13 28 -16 37 -29 67 -54 67 -56z
m3163 -43 c5 -4 -43 -15 -105 -24 -230 -34 -412 -79 -477 -117 -59 -35 -44
-13 21 29 70 46 152 84 219 103 82 23 321 29 342 9z m-2688 -240 c3 -6 -1 -7
-9 -4 -18 7 -21 14 -7 14 6 0 13 -4 16 -10z m-1251 -159 c-2 -3 -12 3 -22 13
-16 17 -16 18 5 5 12 -7 20 -15 17 -18z m3704 -76 c82 -12 307 -73 277 -74 -5
-1 -77 8 -160 19 -82 10 -197 22 -255 26 l-105 7 40 18 c49 23 78 23 203 4z
m157 -84 l50 -8 -52 -2 c-28 0 -55 -6 -59 -12 -4 -8 5 -9 32 -5 103 15 131 17
153 8 22 -8 17 -12 -62 -55 -140 -77 -189 -97 -237 -97 -57 0 -210 21 -210 29
0 14 158 106 190 112 27 4 15 7 -50 13 -64 5 -101 3 -150 -8 -50 -12 -54 -14
-20 -10 25 2 62 7 83 11 20 3 37 2 37 -3 0 -5 -26 -25 -58 -45 -109 -70 -170
-99 -206 -99 -20 0 -36 -4 -36 -9 0 -5 -30 -21 -68 -35 -79 -30 -105 -34 -47
-7 52 25 43 26 -19 2 -27 -10 -43 -20 -35 -23 9 -3 6 -7 -9 -10 -13 -4 -20 -2
-16 4 3 5 -2 9 -12 8 -43 -5 -48 -1 -28 23 10 12 12 16 4 10 -17 -15 -50 -17
-50 -3 0 6 -6 10 -13 10 -7 0 -21 6 -31 13 -15 11 -9 17 60 57 42 24 142 68
223 97 l146 53 220 -5 c121 -3 243 -9 270 -14z m-2002 -260 c87 -73 161 -130
165 -127 4 2 19 -5 32 -16 14 -11 19 -16 11 -12 -8 4 -12 3 -8 -3 8 -12 71
-39 122 -52 27 -7 56 -27 90 -61 46 -46 47 -50 25 -50 -84 1 -382 137 -426
195 -15 20 -33 34 -40 31 -7 -3 -16 -1 -19 4 -4 6 -1 10 5 10 6 0 -16 25 -49
56 -41 38 -70 77 -91 120 -16 35 -30 67 -30 70 0 9 47 -27 213 -165z m1948 60
c77 -26 151 -65 247 -129 85 -57 110 -81 45 -42 -104 62 -148 83 -268 128 -71
28 -139 52 -150 55 -11 2 1 5 26 6 25 0 70 -7 100 -18z m-408 -165 c181 -30
422 -130 597 -249 166 -113 371 -349 464 -534 37 -74 86 -209 86 -237 0 -9
-48 37 -107 101 -59 65 -140 151 -180 191 -87 86 -334 302 -345 302 -4 0 -5
-8 -2 -17 4 -10 -4 -3 -15 16 -29 45 -36 35 -11 -17 28 -57 25 -64 -6 -17 -30
45 -51 69 -40 45 4 -8 -7 2 -24 23 -18 20 -37 37 -43 37 -6 0 0 -12 14 -27 23
-27 23 -27 -8 1 -18 16 -41 30 -51 31 -10 0 -32 10 -48 21 -70 49 -320 120
-458 130 -61 4 -93 10 -85 15 11 7 9 9 -5 9 -11 0 -30 9 -42 21 -12 11 -54 37
-94 58 l-73 39 59 17 c32 9 68 22 79 30 12 7 30 15 40 18 42 10 214 6 298 -7z
m-1139 -243 c84 -21 176 -55 176 -66 0 -9 -185 36 -240 59 -71 29 -160 72
-160 78 0 2 28 -8 62 -21 33 -14 106 -36 162 -50z m817 -60 c13 -16 12 -17 -3
-4 -10 7 -18 15 -18 17 0 8 8 3 21 -13z m187 -60 c-10 -2 -26 -2 -35 0 -10 3
-2 5 17 5 19 0 27 -2 18 -5z m22 -14 c118 -2 187 -18 275 -61 83 -42 158 -100
142 -110 -8 -5 -7 -8 5 -8 17 0 172 -129 165 -137 -2 -2 -16 1 -30 6 -14 5
-54 12 -89 16 l-63 5 53 -15 c90 -26 148 -55 188 -96 21 -21 44 -39 50 -39 7
0 16 -5 20 -12 5 -7 3 -8 -7 -3 -8 5 6 -11 30 -36 56 -56 145 -183 132 -187
-5 -2 -19 1 -30 7 -11 6 -25 11 -32 11 -7 0 12 -12 42 -27 42 -22 63 -42 97
-91 42 -63 52 -90 30 -76 -7 4 -8 3 -4 -5 4 -6 12 -9 17 -6 8 6 13 -8 10 -28
-1 -5 5 -20 13 -35 8 -15 24 -46 36 -69 l20 -42 -57 58 c-32 32 -65 62 -74 67
-9 5 -41 47 -72 94 -30 47 -69 104 -87 128 -17 23 -30 42 -27 42 2 0 -42 45
-97 101 -89 88 -97 100 -71 95 23 -5 18 0 -20 19 -78 40 -170 109 -169 128 1
9 -3 17 -10 17 -6 0 -90 38 -186 84 -216 104 -257 121 -241 102 6 -8 37 -24
68 -37 87 -36 260 -127 333 -174 168 -108 340 -283 471 -478 88 -131 114 -178
170 -312 21 -49 39 -84 39 -77 0 8 -22 66 -50 130 -27 63 -48 117 -46 119 2 2
19 -9 37 -25 100 -87 171 -350 155 -571 -4 -52 -10 -100 -15 -105 -5 -6 -11
-27 -15 -47 -9 -51 -73 -147 -132 -197 -52 -44 -81 -55 -69 -24 47 113 49 125
49 282 1 138 -2 167 -28 265 -16 61 -29 117 -30 126 -1 9 -9 27 -18 41 -9 13
-39 71 -68 128 -61 122 -129 225 -215 330 -102 122 -242 249 -325 295 -23 12
-2 -5 60 -52 60 -46 153 -140 215 -218 21 -27 55 -68 76 -90 20 -22 63 -83 96
-135 157 -249 216 -438 217 -695 1 -118 -3 -152 -22 -215 -13 -41 -26 -82 -29
-90 -4 -8 -12 46 -18 120 -29 331 -156 633 -374 893 -73 87 -272 269 -371 339
-96 68 -104 79 -111 161 -4 40 -11 83 -15 97 -6 21 -5 23 7 14 8 -6 32 -17 54
-24 22 -7 58 -22 80 -33 70 -34 27 -4 -53 38 -70 37 -77 43 -84 78 -5 22 -24
68 -44 103 -36 64 -36 64 -12 65 l23 0 -25 10 c-24 10 -24 11 -6 25 20 14 20
14 -1 14 -11 0 -28 10 -39 22 -10 12 -14 19 -9 15 6 -3 58 -7 115 -8z m706
-199 c4 -16 10 -27 15 -25 10 7 15 -3 23 -48 5 -27 4 -37 -3 -32 -6 3 -11 23
-12 43 0 28 -2 32 -8 18 -7 -18 -9 -17 -18 10 -6 16 -14 37 -18 47 -4 10 -3
17 4 17 6 0 14 -13 17 -30z m239 -179 c154 -151 242 -251 266 -305 20 -44 26
-141 9 -151 -6 -3 -34 18 -63 47 -102 102 -166 208 -168 276 0 24 -1 25 -9 7
-7 -19 -9 -18 -19 8 -6 15 -13 27 -16 27 -4 0 -3 -6 0 -12 26 -52 -40 49 -79
121 -28 49 -53 88 -56 86 -4 -2 -7 3 -7 11 0 8 4 13 8 12 4 -2 65 -59 134
-127z m-1377 44 c-3 -3 -9 2 -12 12 -6 14 -5 15 5 6 7 -7 10 -15 7 -18z m157
-89 c6 -31 5 -38 -6 -34 -9 3 -15 23 -17 54 -2 56 12 44 23 -20z m308 -115
c23 -22 65 -58 93 -80 51 -40 104 -101 108 -124 1 -7 16 -34 34 -62 82 -130
162 -464 162 -675 0 -122 -37 -289 -86 -388 -32 -66 -137 -192 -149 -180 -3 3
10 38 29 79 49 107 67 201 73 377 6 168 4 167 62 57 18 -33 29 -49 25 -35 -4
14 -27 59 -51 101 -38 66 -46 90 -58 175 -7 54 -11 101 -8 104 3 3 25 -17 51
-45 25 -27 40 -41 34 -30 -5 11 -25 34 -42 50 -41 39 -53 62 -85 170 -41 137
-45 157 -32 152 7 -2 23 -7 37 -11 l25 -6 -26 13 c-46 21 -61 40 -96 116 -19
42 -47 93 -63 116 -43 63 -95 165 -84 165 3 0 24 -18 47 -39z m-3 -111 c203
-368 282 -710 238 -1035 -7 -49 -12 -106 -13 -127 0 -20 -4 -34 -9 -31 -5 3
-7 -6 -4 -21 3 -15 3 -24 0 -22 -3 3 -14 -15 -26 -40 l-21 -46 -1 244 c-1 270
-12 366 -66 553 -17 61 -49 153 -71 205 -74 181 -76 188 -77 299 0 57 2 102 5
100 2 -3 23 -39 45 -79z m-689 -597 c13 -17 13 -17 -6 -3 -11 8 -22 16 -24 17
-2 2 0 3 6 3 6 0 17 -8 24 -17z m63 -158 c5 -19 4 -26 -2 -20 -5 6 -12 26 -16
45 -7 41 8 21 18 -25z m-2960 -25 c47 -22 86 -42 86 -45 0 -5 -86 32 -145 63
-65 34 -34 25 59 -18z m346 -136 c0 -2 -13 2 -30 11 -16 9 -30 18 -30 21 0 2
14 -2 30 -11 17 -9 30 -18 30 -21z m55 6 c3 -5 2 -10 -4 -10 -5 0 -13 5 -16
10 -3 6 -2 10 4 10 5 0 13 -4 16 -10z m261 -57 c-7 -7 -26 7 -26 19 0 6 6 6
15 -2 9 -7 13 -15 11 -17z m1304 -707 c-6 -18 -22 -44 -36 -57 l-26 -24 20 35
c11 19 26 53 33 75 8 26 14 34 17 22 2 -9 -1 -32 -8 -51z m-647 -216 c-5 -18
-1 -20 33 -20 l39 1 -30 13 -30 13 29 7 c33 8 35 7 42 -27 4 -26 4 -26 -47
-20 -38 5 -50 3 -45 -5 4 -7 27 -12 51 -12 24 0 47 -5 51 -11 5 -9 -9 -10 -51
-4 -50 6 -57 5 -52 -9 3 -8 1 -18 -5 -22 -16 -10 12 -24 50 -24 17 0 32 5 32
10 0 6 -9 10 -19 10 -11 0 -22 4 -25 9 -3 4 13 8 35 8 49 0 55 -9 31 -44 -104
-150 -282 -454 -282 -483 0 -10 -14 -11 -62 -7 -51 5 -59 4 -43 -5 11 -7 36
-14 55 -18 25 -4 36 -11 38 -25 5 -37 26 -100 39 -120 7 -10 32 -27 55 -36 23
-9 43 -20 45 -25 6 -18 -15 -36 -53 -46 -98 -25 -314 -38 -314 -18 0 15 -36
12 -50 -5 -11 -13 -7 -15 26 -15 37 0 34 -3 -56 -45 l-95 -45 -113 0 c-77 0
-124 -5 -149 -15 -21 -9 -67 -15 -117 -15 -44 0 -108 -7 -141 -15 -74 -18 -75
-18 -75 -2 0 10 87 74 138 102 7 3 67 10 134 16 79 6 155 18 213 35 106 31
195 69 195 83 0 18 -34 16 -80 -5 -75 -36 -215 -63 -340 -65 -131 -3 -286 9
-273 22 4 4 37 19 73 32 62 23 74 24 250 20 164 -4 192 -2 250 16 36 11 59 20
51 20 -13 1 65 81 78 81 4 0 14 9 24 20 9 11 23 20 30 20 17 0 98 85 124 130
11 19 64 107 118 195 121 196 192 320 200 346 8 25 25 25 18 -1z m88 -390
c-11 -102 -73 -313 -107 -365 -15 -23 -22 -26 -53 -20 -52 9 -71 36 -71 101 0
46 8 70 58 167 65 125 133 231 160 246 24 14 26 -9 13 -129z m-184 -526 c-3
-3 -12 -4 -19 -1 -8 3 -5 6 6 6 11 1 17 -2 13 -5z m-64 -39 c3 -7 -2 -24 -12
-37 -17 -20 -33 -24 -142 -34 l-124 -11 100 -2 c74 -1 95 -4 82 -12 -20 -12
-286 -1 -267 11 6 4 10 11 9 16 -7 39 30 51 186 59 61 3 114 10 120 16 14 14
42 11 48 -6z m-733 -185 c0 -5 12 -10 28 -11 15 0 -2 -7 -37 -15 -36 -7 -66
-12 -68 -10 -4 4 59 46 70 46 4 0 7 -4 7 -10z"/>
<path d="M7324 6968 l-19 -23 23 19 c21 18 27 26 19 26 -2 0 -12 -10 -23 -22z"/>
<path d="M7218 5933 c6 -2 18 -2 25 0 6 3 1 5 -13 5 -14 0 -19 -2 -12 -5z"/>
<path d="M6949 5823 c-13 -16 -12 -17 4 -4 9 7 17 15 17 17 0 8 -8 3 -21 -13z"/>
<path d="M7060 5790 c-18 -12 -2 -12 25 0 13 6 15 9 5 9 -8 0 -22 -4 -30 -9z"/>
<path d="M6028 5493 c7 -3 16 -2 19 1 4 3 -2 6 -13 5 -11 0 -14 -3 -6 -6z"/>
<path d="M7305 5091 c6 -6 60 -13 120 -15 l110 -5 -85 9 c-47 5 -101 12 -120
15 -25 5 -32 3 -25 -4z"/>
<path d="M7610 4590 c6 -11 13 -20 16 -20 2 0 0 9 -6 20 -6 11 -13 20 -16 20
-2 0 0 -9 6 -20z"/>
<path d="M8096 3961 c43 -59 107 -189 129 -261 23 -77 25 -80 21 -35 -6 57
-89 232 -134 281 -15 17 -22 23 -16 15z"/>
<path d="M7330 4506 c28 -17 50 -21 35 -7 -6 5 -21 12 -35 15 l-25 7 25 -15z"/>
<path d="M4870 2567 c0 -6 -8 -16 -17 -23 -16 -12 -15 -13 12 -14 17 0 41 -3
54 -7 17 -4 22 -3 17 5 -4 7 -16 12 -27 12 -29 0 -23 18 9 22 24 3 22 4 -10 9
-21 3 -38 1 -38 -4z"/>
<path d="M4858 2503 c6 -2 18 -2 25 0 6 3 1 5 -13 5 -14 0 -19 -2 -12 -5z"/>
<path d="M4830 2460 c8 -5 26 -10 40 -10 20 0 22 2 10 10 -8 5 -26 10 -40 10
-20 0 -22 -2 -10 -10z"/>
<path d="M4792 2429 c5 -16 68 -25 68 -10 0 6 -9 11 -19 11 -11 0 -27 3 -37 7
-12 4 -15 2 -12 -8z"/>
<path d="M4750 2370 c0 -5 19 -10 43 -9 36 1 38 2 17 9 -36 12 -60 12 -60 0z"/>
<path d="M4715 2320 c-3 -6 6 -15 20 -20 39 -15 54 -11 25 6 -25 14 -24 14 13
8 21 -4 37 -2 37 3 0 13 -87 16 -95 3z"/>
<path d="M4705 2250 c28 -12 65 -12 65 0 0 6 -19 10 -42 9 -33 0 -38 -2 -23
-9z"/>
<path d="M4665 2210 c-4 -6 7 -10 25 -10 20 0 29 -4 24 -11 -3 -6 -19 -9 -35
-7 -15 3 -26 1 -23 -4 9 -13 51 -9 64 7 10 12 8 16 -15 25 -32 12 -32 12 -40
0z"/>
<path d="M4620 2136 c0 -8 71 -12 76 -4 3 4 -13 8 -35 8 -23 0 -41 -2 -41 -4z"/>
<path d="M4615 2011 c-17 -7 -15 -10 17 -20 40 -13 58 -9 58 15 0 15 -41 18
-75 5z"/>
<path d="M4405 1964 c-22 -13 -33 -24 -24 -24 8 0 30 11 49 25 42 31 28 31
-25 -1z"/>
<path d="M4635 1930 c-15 -6 -8 -9 29 -9 27 -1 46 2 42 6 -11 11 -49 13 -71 3z"/>
<path d="M4356 1911 c-7 -11 17 -21 51 -21 21 0 24 2 13 15 -14 16 -56 20 -64
6z"/>
<path d="M3860 1835 c0 -9 5 -13 11 -9 6 3 15 0 21 -7 7 -11 8 -9 6 6 -4 24
-38 34 -38 10z"/>
<path d="M3947 1828 c-7 -4 4 -8 26 -8 21 0 36 4 32 9 -6 11 -40 10 -58 -1z"/>
<path d="M4068 1833 c7 -3 16 -2 19 1 4 3 -2 6 -13 5 -11 0 -14 -3 -6 -6z"/>
<path d="M4575 1820 c3 -5 13 -10 21 -10 8 0 14 5 14 10 0 6 -9 10 -21 10 -11
0 -17 -4 -14 -10z"/>
<path d="M4638 1823 c6 -2 18 -2 25 0 6 3 1 5 -13 5 -14 0 -19 -2 -12 -5z"/>
<path d="M4525 1810 c3 -5 13 -10 21 -10 8 0 14 5 14 10 0 6 -9 10 -21 10 -11
0 -17 -4 -14 -10z"/>
<path d="M4247 1764 c-12 -13 -7 -26 7 -21 10 4 16 -2 19 -16 4 -15 5 -12 4 7
-2 29 -16 43 -30 30z"/>
<path d="M4200 1741 c0 -6 5 -13 10 -16 6 -3 10 1 10 9 0 9 -4 16 -10 16 -5 0
-10 -4 -10 -9z"/>
<path d="M3977 1717 c4 -6 0 -8 -9 -4 -15 5 -38 -9 -38 -25 0 -4 18 -8 40 -8
33 0 40 4 40 19 0 10 -9 21 -20 24 -13 3 -18 1 -13 -6z"/>
<path d="M4052 1700 c0 -14 2 -19 5 -12 2 6 2 18 0 25 -3 6 -5 1 -5 -13z"/>
<path d="M2399 7983 c-5 -14 -8 -30 -6 -36 1 -5 8 7 14 27 13 42 7 49 -8 9z"/>
<path d="M2610 7988 c-35 -19 -35 -19 -5 -12 17 4 51 8 76 8 28 1 45 5 42 12
-6 17 -77 13 -113 -8z"/>
<path d="M2751 7981 c-10 -7 -4 -12 22 -22 20 -7 34 -15 32 -17 -3 -3 5 -14
18 -26 24 -23 33 -100 15 -123 -14 -18 -2 -16 28 4 19 12 22 18 12 24 -7 4
-10 11 -6 14 3 4 12 0 19 -8 10 -11 20 -11 44 -3 30 11 48 26 40 35 -3 2 -12
-2 -22 -10 -14 -12 -16 -12 -8 0 6 11 4 13 -7 9 -14 -6 -40 15 -49 39 -6 16
-99 93 -112 93 -7 0 -18 -4 -26 -9z m139 -121 c0 -5 -2 -10 -4 -10 -3 0 -8 5
-11 10 -3 6 -1 10 4 10 6 0 11 -4 11 -10z"/>
<path d="M3380 7960 c8 -5 22 -9 30 -9 10 0 8 3 -5 9 -27 12 -43 12 -25 0z"/>
<path d="M2709 7937 c34 -13 91 -63 91 -79 0 -5 -3 -7 -7 -5 -5 3 -9 -9 -9
-26 -2 -42 -71 -107 -114 -107 -44 0 -96 24 -116 55 -15 22 -15 31 -5 67 7 22
27 54 44 71 34 32 21 28 -28 -8 -17 -13 -44 -44 -60 -69 -16 -26 -35 -44 -42
-42 -7 3 -15 1 -18 -5 -4 -5 -11 -7 -16 -4 -5 3 -6 0 -4 -7 6 -16 45 -19 45
-3 0 5 5 3 10 -5 7 -11 10 -12 10 -2 0 8 20 -4 46 -26 58 -51 106 -61 166 -34
85 38 133 106 110 157 -14 31 -70 72 -107 79 -29 6 -28 6 4 -7z m-90 -224 l36
-12 -35 6 c-38 6 -70 23 -70 37 0 4 7 2 16 -5 9 -8 33 -19 53 -26z"/>
<path d="M2618 7894 c-32 -17 -58 -62 -58 -100 0 -19 4 -25 15 -21 8 4 17 2
20 -4 4 -5 20 -16 37 -25 37 -19 78 -6 108 36 59 83 -29 165 -122 114z m83
-24 c26 -21 15 -26 -26 -10 -20 8 -35 7 -56 -4 -34 -17 -39 -4 -7 18 30 21 61
20 89 -4z"/>
<path d="M3500 7880 c8 -5 20 -10 25 -10 6 0 3 5 -5 10 -8 5 -19 10 -25 10 -5
0 -3 -5 5 -10z"/>
<path d="M3420 7859 c0 -5 9 -9 20 -9 11 0 20 2 20 4 0 2 -9 6 -20 9 -11 3
-20 1 -20 -4z"/>
<path d="M2325 7779 c-4 -6 -5 -12 -2 -15 2 -3 7 2 10 11 7 17 1 20 -8 4z"/>
<path d="M3590 7786 c0 -3 15 -15 33 -27 23 -17 28 -18 18 -6 -14 18 -51 42
-51 33z"/>
<path d="M2347 7773 c-4 -3 -7 -11 -7 -17 0 -6 5 -5 12 2 6 6 9 14 7 17 -3 3
-9 2 -12 -2z"/>
<path d="M3258 7773 c6 -2 18 -2 25 0 6 3 1 5 -13 5 -14 0 -19 -2 -12 -5z"/>
<path d="M3340 7760 c45 -9 147 -13 139 -6 -2 2 -44 6 -94 9 -63 4 -77 3 -45
-3z"/>
<path d="M3520 7766 c0 -3 9 -10 20 -16 11 -6 20 -8 20 -6 0 3 -9 10 -20 16
-11 6 -20 8 -20 6z"/>
<path d="M3647 7694 c3 -8 9 -12 13 -9 11 7 41 -30 33 -40 -5 -4 -3 -5 4 -2 6
4 28 -12 51 -39 29 -35 41 -43 47 -33 5 8 5 11 1 7 -5 -4 -32 22 -62 56 -49
59 -100 94 -87 60z"/>
<path d="M3730 7692 c0 -5 10 -17 21 -28 22 -19 22 -19 10 3 -12 24 -31 39
-31 25z"/>
<path d="M3610 7639 c8 -9 56 -48 107 -88 105 -82 203 -184 283 -294 30 -42
58 -76 62 -76 13 -1 -112 171 -161 223 -25 26 -86 80 -136 120 -102 82 -177
137 -155 115z"/>
<path d="M7215 7603 c-236 -174 -334 -250 -420 -324 -138 -119 -191 -168 -184
-169 6 0 69 51 245 200 49 41 157 126 239 189 83 63 157 120 165 127 26 25 6
14 -45 -23z"/>
<path d="M3766 7430 c50 -52 121 -131 159 -175 94 -111 170 -193 159 -173 -18
34 -235 275 -321 358 l-88 85 91 -95z"/>
<path d="M2654 7481 c4 -6 16 -16 28 -22 15 -8 18 -8 14 0 -4 6 -16 16 -28 22
-15 8 -18 8 -14 0z"/>
<path d="M2371 7434 c0 -11 3 -14 6 -6 3 7 2 16 -1 19 -3 4 -6 -2 -5 -13z"/>
<path d="M2401 7425 c1 -19 18 -51 18 -35 0 8 -4 22 -9 30 -5 8 -9 11 -9 5z"/>
<path d="M3721 7366 c20 -23 56 -66 80 -97 107 -137 213 -261 296 -349 50 -52
116 -133 147 -180 89 -135 128 -185 182 -231 27 -23 48 -46 47 -50 -2 -5 3 -6
10 -4 6 3 26 -4 42 -15 32 -21 27 -27 -7 -9 -11 6 -22 8 -25 6 -8 -8 60 -40
199 -95 123 -49 178 -66 178 -58 0 2 -17 10 -37 17 -93 30 -143 51 -143 62 -1
7 -44 32 -97 57 -121 57 -222 147 -301 270 -61 95 -101 146 -212 270 -42 47
-114 132 -160 190 -47 58 -118 139 -160 181 -41 41 -59 57 -39 35z"/>
<path d="M2619 7363 c33 -44 49 -58 56 -51 3 2 -16 24 -42 49 l-47 44 33 -42z"/>
<path d="M3350 7375 c40 -48 43 -51 32 -30 -6 11 -21 29 -34 40 -22 19 -22 19
2 -10z"/>
<path d="M3476 7340 c27 -36 51 -67 54 -70 14 -12 102 -171 130 -235 18 -38
40 -106 51 -150 19 -78 19 -79 14 -23 -12 138 -152 408 -265 513 -26 24 -23
17 16 -35z"/>
<path d="M3600 7331 c30 -35 85 -91 122 -125 67 -59 126 -138 184 -241 65
-119 238 -347 272 -360 9 -3 -1 10 -21 30 -53 52 -149 184 -214 294 -31 53
-69 115 -85 139 -43 62 -28 62 23 0 61 -75 59 -73 59 -61 0 21 -85 113 -180
194 -52 45 -122 107 -154 138 l-60 56 54 -64z"/>
<path d="M2421 7354 c0 -11 3 -14 6 -6 3 7 2 16 -1 19 -3 4 -6 -2 -5 -13z"/>
<path d="M2469 7352 c5 -10 18 -25 27 -33 11 -9 9 -2 -6 19 -26 35 -36 42 -21
14z"/>
<path d="M2599 7343 c12 -24 31 -39 31 -25 0 5 -10 17 -21 28 -22 19 -22 19
-10 -3z"/>
<path d="M2700 7326 c0 -2 8 -10 18 -17 15 -13 16 -12 3 4 -13 16 -21 21 -21
13z"/>
<path d="M2590 7316 c0 -2 8 -10 18 -17 15 -13 16 -12 3 4 -13 16 -21 21 -21
13z"/>
<path d="M3428 7261 c20 -33 38 -58 40 -57 4 5 -62 116 -70 116 -4 0 9 -27 30
-59z"/>
<path d="M2500 7293 c0 -6 8 -17 18 -24 16 -13 16 -13 2 6 -8 11 -16 22 -17
24 -2 2 -3 0 -3 -6z"/>
<path d="M2559 7278 c16 -18 20 -28 11 -28 -7 0 11 -26 41 -57 30 -32 62 -69
72 -83 l18 -25 -12 25 c-7 13 -34 48 -61 77 -28 28 -47 56 -44 61 3 5 -7 20
-22 33 l-27 24 24 -27z"/>
<path d="M2710 7266 c0 -2 8 -10 18 -17 15 -13 16 -12 3 4 -13 16 -21 21 -21
13z"/>
<path d="M2641 7237 c2 -1 13 -9 24 -17 19 -14 19 -14 6 3 -7 9 -18 17 -24 17
-6 0 -8 -1 -6 -3z"/>
<path d="M2710 7216 c0 -2 8 -10 18 -17 15 -13 16 -12 3 4 -13 16 -21 21 -21
13z"/>
<path d="M2779 7195 c17 -33 31 -51 31 -40 0 6 -10 21 -21 35 -13 17 -17 18
-10 5z"/>
<path d="M2655 7180 c10 -11 20 -20 23 -20 3 0 -3 9 -13 20 -10 11 -20 20 -23
20 -3 0 3 -9 13 -20z"/>
<path d="M2712 7165 c9 -11 21 -31 27 -45 7 -17 10 -20 10 -8 1 10 -11 30 -26
46 -16 15 -20 19 -11 7z"/>
<path d="M2755 7157 c10 -15 20 -25 23 -22 3 3 -5 16 -17 28 l-23 22 17 -28z"/>
<path d="M4080 7164 c0 -13 64 -122 99 -169 21 -27 78 -106 127 -174 96 -134
178 -229 228 -263 17 -12 -10 21 -59 73 -50 52 -107 119 -129 149 -21 30 -76
109 -123 175 -47 66 -96 141 -109 168 -22 42 -34 57 -34 41z"/>
<path d="M3340 7146 c0 -2 8 -10 18 -17 15 -13 16 -12 3 4 -13 16 -21 21 -21
13z"/>
<path d="M3411 7130 c14 -31 19 -36 19 -24 0 6 -7 19 -16 30 -14 18 -14 18 -3
-6z"/>
<path d="M3430 7085 c0 -5 10 -26 21 -45 43 -70 101 -193 141 -298 83 -218 89
-232 82 -187 -7 45 -90 256 -140 356 -40 81 -104 187 -104 174z"/>
<path d="M3243 7040 c77 -142 99 -180 103 -180 8 0 -84 171 -107 200 -16 20
-16 16 4 -20z"/>
<path d="M3551 7035 c12 -22 52 -94 89 -160 37 -66 79 -157 95 -203 15 -46 29
-81 32 -79 5 6 -38 159 -50 172 -4 6 -40 67 -80 136 -40 70 -80 137 -90 150
-13 17 -11 12 4 -16z"/>
<path d="M6875 7035 c-39 -14 -40 -14 -5 -8 41 7 82 22 60 22 -8 0 -33 -7 -55
-14z"/>
<path d="M2942 6995 c0 -16 2 -22 5 -12 2 9 2 23 0 30 -3 6 -5 -1 -5 -18z"/>
<path d="M2958 6895 c11 -109 6 -261 -12 -364 -18 -100 -15 -139 3 -49 35 167
40 294 16 413 l-14 70 7 -70z"/>
<path d="M3896 6835 c58 -83 228 -284 325 -385 56 -58 84 -83 62 -57 -21 26
-38 51 -39 55 0 4 -40 47 -88 96 -48 49 -113 123 -145 165 -32 42 -78 96 -101
121 l-42 45 28 -40z"/>
<path d="M4124 6781 c58 -94 66 -101 27 -25 -17 33 -40 69 -52 80 -12 10 -1
-13 25 -55z"/>
<path d="M3846 6795 c40 -74 101 -153 168 -217 34 -32 57 -58 51 -58 -5 0 6
-16 25 -35 18 -18 36 -33 39 -32 11 3 101 -77 101 -89 0 -12 107 -64 131 -64
8 0 21 -5 29 -11 24 -17 -116 -3 -175 17 -27 9 -74 32 -102 50 -29 19 -53 30
-53 26 0 -10 20 -39 20 -28 0 4 18 -10 41 -33 40 -42 124 -101 143 -101 6 0
-17 18 -51 41 -83 54 -86 62 -11 32 69 -28 223 -63 281 -63 l38 0 -21 22 c-11
12 -20 24 -20 28 0 3 -14 14 -32 24 -17 11 -67 48 -111 83 -58 47 -74 56 -58
35 12 -17 49 -51 82 -76 34 -25 54 -46 46 -46 -8 0 -26 9 -40 21 -15 11 -36
22 -47 24 -53 10 -329 266 -420 390 -25 34 -53 72 -63 85 -10 14 -6 3 9 -25z
m260 -307 l29 -33 -32 29 c-31 28 -38 36 -30 36 2 0 16 -15 33 -32z"/>
<path d="M3331 6806 c-1 -5 22 -74 49 -153 28 -79 62 -181 75 -226 40 -138 98
-248 119 -226 15 16 -145 541 -160 526 -3 -2 2 -19 10 -38 24 -57 127 -421
124 -437 -2 -8 -43 97 -92 234 -88 246 -124 338 -125 320z"/>
<path d="M3522 6795 c0 -11 3 -29 8 -40 11 -25 11 1 0 35 -6 20 -8 21 -8 5z"/>
<path d="M4268 6755 c26 -39 98 -107 84 -80 -6 11 -32 40 -58 65 -36 34 -42
38 -26 15z"/>
<path d="M4210 6696 c0 -2 8 -10 18 -17 15 -13 16 -12 3 4 -13 16 -21 21 -21
13z"/>
<path d="M4380 6647 c0 -9 4 -17 10 -17 5 0 16 -15 24 -33 21 -51 187 -163
255 -172 14 -2 66 -13 115 -25 48 -12 90 -19 92 -17 2 2 -34 16 -80 31 -47 15
-110 40 -141 57 -31 17 -53 25 -49 18 4 -7 -7 -3 -24 10 -18 12 -37 19 -42 16
-6 -4 -9 -1 -8 6 2 6 -3 14 -11 17 -9 3 -11 0 -6 -9 5 -8 -11 7 -34 34 -24 26
-48 44 -53 40 -6 -3 -8 -2 -5 4 4 6 -5 21 -18 33 -21 20 -25 21 -25 7z m280
-213 c0 -2 -13 2 -30 11 -16 9 -30 18 -30 21 0 2 14 -2 30 -11 17 -9 30 -18
30 -21z"/>
<path d="M4230 6640 c0 -5 4 -11 9 -14 5 -4 23 -36 40 -73 30 -64 34 -90 9
-65 -7 7 -17 12 -22 12 -17 0 75 -89 139 -135 63 -45 183 -86 248 -84 23 0 14
5 -32 15 -36 7 -88 25 -115 39 -77 38 -222 182 -203 201 2 2 18 -14 35 -36 52
-64 377 -226 472 -235 l45 -5 -50 16 c-171 52 -416 190 -483 271 -20 24 -35
50 -34 56 2 7 0 9 -4 5 -8 -9 -34 10 -34 24 0 6 8 4 18 -3 14 -11 15 -11 5 1
-15 16 -43 22 -43 10z"/>
<path d="M3586 6597 c3 -10 9 -15 12 -12 3 3 0 11 -7 18 -10 9 -11 8 -5 -6z"/>
<path d="M6116 6595 c-9 -26 -7 -32 5 -12 6 10 9 21 6 23 -2 3 -7 -2 -11 -11z"/>
<path d="M3840 6576 c0 -41 245 -309 310 -340 34 -17 33 -16 -10 20 -66 55
-205 200 -256 268 -24 32 -44 55 -44 52z"/>
<path d="M2727 6435 c-32 -144 -46 -302 -37 -445 2 -42 6 -7 10 100 5 101 16
209 30 278 24 124 22 177 -3 67z"/>
<path d="M3848 6465 c27 -41 96 -115 83 -90 -6 11 -31 43 -57 70 -25 28 -37
37 -26 20z"/>
<path d="M4710 6475 c15 -14 141 -57 148 -50 2 2 -19 12 -46 21 -28 10 -49 21
-46 25 2 4 -4 5 -15 2 -10 -3 -22 0 -25 6 -4 6 -12 11 -19 11 -7 0 -6 -5 3
-15z"/>
<path d="M7683 6443 c9 -2 23 -2 30 0 6 3 -1 5 -18 5 -16 0 -22 -2 -12 -5z"/>
<path d="M7580 6430 c-34 -7 -34 -7 -5 -8 17 0 44 4 60 8 27 7 27 8 5 8 -14
-1 -41 -4 -60 -8z"/>
<path d="M7503 6413 c9 -2 23 -2 30 0 6 3 -1 5 -18 5 -16 0 -22 -2 -12 -5z"/>
<path d="M7448 6403 c7 -3 16 -2 19 1 4 3 -2 6 -13 5 -11 0 -14 -3 -6 -6z"/>
<path d="M4708 6388 c5 -5 16 -8 23 -6 8 3 3 7 -10 11 -17 4 -21 3 -13 -5z"/>
<path d="M7398 6393 c7 -3 16 -2 19 1 4 3 -2 6 -13 5 -11 0 -14 -3 -6 -6z"/>
<path d="M2467 6373 c-4 -3 -7 -11 -7 -17 0 -6 5 -5 12 2 6 6 9 14 7 17 -3 3
-9 2 -12 -2z"/>
<path d="M3776 6345 c28 -48 134 -163 178 -193 63 -42 75 -46 31 -10 -48 40
-102 93 -173 173 -30 33 -46 47 -36 30z"/>
<path d="M2390 6243 c-18 -27 -26 -42 -18 -35 13 10 17 10 21 0 3 -7 6 -3 6
10 1 12 8 34 17 47 29 44 9 26 -26 -22z"/>
<path d="M2958 6216 c-5 -43 -8 -113 -8 -155 0 -111 -41 -396 -67 -461 -9 -23
-32 37 -33 85 0 22 -3 58 -7 80 -7 40 -7 40 -13 10 -5 -24 -8 -15 -19 48 -22
133 -23 77 -2 -74 25 -171 34 -208 62 -238 27 -29 42 -23 51 23 10 49 29 83
74 137 20 24 54 80 76 124 45 94 68 234 66 400 l-1 100 -8 -92 c-11 -128 -37
-266 -59 -326 -11 -28 -45 -94 -77 -146 -53 -87 -58 -93 -61 -67 -2 16 1 47 7
70 20 83 32 245 29 401 -3 145 -4 153 -10 81z"/>
<path d="M3052 6260 c0 -14 2 -19 5 -12 2 6 2 18 0 25 -3 6 -5 1 -5 -13z"/>
<path d="M6530 6231 l-75 -6 65 -6 c39 -3 79 0 100 7 40 14 36 14 -90 5z"/>
<path d="M3057 6150 c-4 -47 -10 -101 -13 -120 -10 -57 11 -22 24 40 7 33 8
77 4 110 l-8 55 -7 -85z"/>
<path d="M2432 6077 c-39 -84 -56 -145 -33 -121 13 14 83 193 79 204 -2 5 -22
-33 -46 -83z"/>
<path d="M6245 6113 c-73 -12 -108 -13 -185 -4 -119 14 -150 12 -85 -4 92 -24
342 -11 372 19 4 3 2 5 -3 5 -5 -1 -49 -8 -99 -16z"/>
<path d="M5700 6093 c29 -26 142 -87 180 -97 14 -4 -22 18 -80 49 -58 31 -110
60 -115 63 -6 4 1 -3 15 -15z"/>
<path d="M5020 6097 c0 -3 9 -21 19 -39 32 -55 36 -118 12 -173 -12 -26 -21
-56 -21 -65 0 -32 -12 -50 -31 -50 -13 0 -19 7 -20 23 0 12 -4 31 -9 42 -6 14
-7 7 -3 -22 5 -36 2 -43 -21 -58 -22 -15 -33 -16 -68 -7 -53 14 -63 7 -11 -7
53 -15 78 -14 93 4 7 9 20 13 28 10 31 -12 61 23 83 97 l21 73 38 -43 c63 -70
78 -204 29 -253 -25 -25 -8 -25 22 0 21 17 24 28 24 88 -1 80 -33 153 -84 191
-20 15 -31 31 -31 48 0 31 -23 87 -50 121 -11 14 -20 23 -20 20z"/>
<path d="M6960 6080 c-8 -5 -10 -10 -5 -10 6 0 17 5 25 10 8 5 11 10 5 10 -5
0 -17 -5 -25 -10z"/>
<path d="M4905 5919 c28 -29 51 -55 51 -57 1 -2 5 1 8 6 3 5 -20 31 -52 58
l-57 47 50 -54z"/>
<path d="M5283 5914 c27 -14 87 -62 133 -106 46 -44 84 -78 84 -75 0 3 -34 38
-75 78 -70 68 -156 129 -180 128 -5 0 12 -11 38 -25z"/>
<path d="M2255 5886 c-3 -14 -7 -38 -10 -52 -4 -15 -2 -23 4 -20 11 7 26 85
17 93 -3 3 -7 -6 -11 -21z"/>
<path d="M4591 5842 c-1 -21 -10 -42 -25 -57 -13 -13 -22 -26 -20 -28 11 -11
-45 -43 -104 -59 l-67 -19 58 5 c83 7 136 39 161 98 15 37 17 52 8 70 -10 22
-11 21 -11 -10z"/>
<path d="M5265 5823 c35 -37 151 -126 176 -135 30 -10 59 2 59 24 0 5 -7 3
-15 -6 -20 -19 -51 -9 -108 37 -54 43 -125 94 -112 80z"/>
<path d="M4701 5819 c-1 -4 6 -23 14 -42 8 -20 15 -47 15 -61 0 -41 -54 -49
-103 -14 -32 22 -32 22 -14 1 29 -33 68 -43 105 -27 19 8 32 20 32 31 0 17
-48 125 -49 112z"/>
<path d="M4178 5737 c4 -70 -21 -109 -83 -132 -42 -17 -50 -17 -100 -3 -67 19
-63 6 5 -17 115 -38 208 27 198 137 -7 68 -24 80 -20 15z"/>
<path d="M5750 5786 c0 -2 8 -10 18 -17 15 -13 16 -12 3 4 -13 16 -21 21 -21
13z"/>
<path d="M3397 5738 c8 -32 85 -139 127 -176 32 -28 152 -92 172 -92 5 0 -39
31 -97 69 -114 75 -151 112 -181 179 -21 46 -29 54 -21 20z"/>
<path d="M2380 5729 c0 -5 5 -7 10 -4 6 3 10 8 10 11 0 2 -4 4 -10 4 -5 0 -10
-5 -10 -11z"/>
<path d="M4261 5672 c-1 -81 -18 -146 -43 -168 -25 -23 -78 -21 -146 4 -29 11
-50 16 -47 12 9 -15 114 -50 149 -50 33 0 71 31 95 77 13 25 14 90 2 148 -8
38 -9 37 -10 -23z"/>
<path d="M2243 5650 c0 -30 2 -43 4 -27 2 15 2 39 0 55 -2 15 -4 2 -4 -28z"/>
<path d="M4821 5645 c20 -50 57 -115 65 -115 2 0 -8 21 -21 46 -14 26 -25 52
-25 58 0 6 -9 22 -20 36 -20 24 -20 24 1 -25z"/>
<path d="M7523 5683 c9 -2 23 -2 30 0 6 3 -1 5 -18 5 -16 0 -22 -2 -12 -5z"/>
<path d="M5000 5647 c0 -33 -18 -58 -50 -70 -12 -4 -11 -6 3 -6 28 -2 57 35
57 74 0 19 -2 35 -5 35 -3 0 -5 -15 -5 -33z"/>
<path d="M4760 5656 c0 -2 7 -9 15 -16 13 -11 14 -10 9 4 -5 14 -24 23 -24 12z"/>
<path d="M4310 5645 c0 -5 10 -21 21 -35 13 -17 17 -18 10 -5 -17 33 -31 51
-31 40z"/>
<path d="M2357 5626 c-4 -10 -7 -34 -6 -54 l1 -37 9 45 c10 48 7 75 -4 46z"/>
<path d="M2871 5624 c0 -11 3 -14 6 -6 3 7 2 16 -1 19 -3 4 -6 -2 -5 -13z"/>
<path d="M5056 5603 c16 -33 18 -86 4 -114 -13 -23 -42 -19 -110 17 l-45 24
28 -25 c16 -14 49 -31 75 -38 40 -10 48 -17 65 -56 14 -33 18 -59 15 -108 -6
-90 -17 -98 -126 -97 -72 1 -105 7 -189 35 -57 19 -103 33 -103 31 0 -1 28
-16 63 -32 172 -80 338 -80 366 0 21 62 9 160 -25 200 -10 12 -10 19 2 35 20
27 16 126 -5 142 -26 20 -31 15 -15 -14z"/>
<path d="M5291 5582 c-2 -67 -24 -109 -63 -121 l-33 -9 31 -1 c57 -2 93 66 75
139 l-9 35 -1 -43z"/>
<path d="M4400 5603 c0 -2 25 -15 56 -29 100 -44 232 -45 255 -1 12 22 12 22
-10 3 -33 -30 -157 -27 -239 7 -34 13 -62 23 -62 20z"/>
<path d="M3440 5586 c0 -30 98 -186 136 -217 10 -7 2 9 -17 36 -20 28 -53 80
-73 118 -33 59 -46 77 -46 63z"/>
<path d="M4389 5501 c42 -83 77 -224 67 -266 -11 -44 -43 -31 -124 51 -59 61
-68 67 -44 32 41 -58 80 -94 124 -112 33 -14 38 -14 52 0 21 21 20 65 -5 154
-18 65 -92 220 -105 220 -2 0 14 -35 35 -79z"/>
<path d="M4820 5540 c-3 -50 0 -103 6 -109 12 -13 14 15 6 80 -8 66 -10 69
-12 29z"/>
<path d="M2583 5507 c-7 -16 -8 -40 -2 -72 14 -74 20 -67 17 18 -2 42 -3 77
-4 77 0 0 -6 -10 -11 -23z"/>
<path d="M3410 5513 c0 -17 113 -182 153 -223 61 -63 83 -76 31 -18 -28 31
-81 100 -117 154 -37 54 -67 93 -67 87z"/>
<path d="M4760 5506 c7 -7 13 -7 20 0 6 6 3 10 -10 10 -13 0 -16 -4 -10 -10z"/>
<path d="M5452 5480 c0 -14 2 -19 5 -12 2 6 2 18 0 25 -3 6 -5 1 -5 -13z"/>
<path d="M2481 5469 c-1 -37 19 -89 34 -89 11 0 10 9 -4 43 -10 23 -21 49 -24
57 -3 9 -6 4 -6 -11z"/>
<path d="M4601 5486 c13 -12 99 -43 99 -36 0 4 -21 15 -47 24 -47 16 -60 19
-52 12z"/>
<path d="M4753 5462 c-7 -5 -3 -11 13 -19 23 -11 24 -10 13 5 -8 9 -14 18 -14
19 0 1 -6 -1 -12 -5z"/>
<path d="M4971 5441 c6 -16 9 -44 7 -63 l-3 -33 -17 45 -16 45 1 -40 c2 -38 1
-40 -26 -38 -15 1 -47 16 -70 34 l-42 33 29 -32 c30 -32 62 -46 129 -55 32 -5
37 -3 37 14 0 30 -21 109 -31 115 -4 2 -4 -9 2 -25z"/>
<path d="M5566 5427 c3 -10 9 -15 12 -12 3 3 0 11 -7 18 -10 9 -11 8 -5 -6z"/>
<path d="M2355 5385 c4 -27 11 -54 15 -58 4 -5 3 15 -2 45 -13 68 -22 78 -13
13z"/>
<path d="M4736 5395 c16 -22 29 -42 31 -44 2 -2 3 0 3 5 0 5 -14 25 -31 44
l-30 35 27 -40z"/>
<path d="M5580 5395 c0 -5 5 -17 10 -25 5 -8 10 -10 10 -5 0 6 -5 17 -10 25
-5 8 -10 11 -10 5z"/>
<path d="M2237 5320 c3 -41 7 -77 9 -79 7 -8 2 94 -6 124 -5 18 -6 1 -3 -45z"/>
<path d="M4510 5366 c21 -20 108 -57 114 -48 3 5 -15 14 -39 21 -24 7 -49 19
-56 27 -6 8 -16 14 -22 14 -7 0 -5 -6 3 -14z"/>
<path d="M5735 5353 c16 -9 76 -33 131 -53 56 -20 132 -56 169 -79 37 -24 64
-38 60 -32 -12 21 -159 101 -225 122 -36 12 -81 30 -100 40 -19 11 -42 19 -50
19 -8 -1 -2 -8 15 -17z"/>
<path d="M3450 5345 c0 -5 8 -23 19 -38 10 -15 16 -38 14 -51 -7 -33 37 -97
96 -144 49 -39 234 -136 281 -147 14 -4 -12 14 -57 38 -45 25 -115 70 -156
100 -41 31 -77 54 -80 51 -5 -5 -47 49 -66 84 -21 39 -7 34 47 -18 28 -27 66
-56 84 -66 l33 -17 -20 23 c-33 38 -115 117 -115 111 -1 -3 -19 14 -40 39 -22
25 -40 41 -40 35z"/>
<path d="M4775 5337 c-11 -7 -40 -17 -65 -24 l-45 -12 49 3 c32 3 55 11 69 25
24 24 21 26 -8 8z"/>
<path d="M7295 5300 c10 -11 20 -20 23 -20 3 0 -3 9 -13 20 -10 11 -20 20 -23
20 -3 0 3 -9 13 -20z"/>
<path d="M3716 5280 c14 -14 147 -67 185 -74 20 -3 7 4 -31 19 -36 14 -84 34
-108 45 -47 22 -61 25 -46 10z"/>
<path d="M2630 5274 c0 -5 7 -19 15 -30 8 -10 15 -14 15 -8 0 5 -7 19 -15 30
-8 10 -15 14 -15 8z"/>
<path d="M2491 5253 c2 -19 38 -86 38 -72 1 24 -20 79 -30 79 -5 0 -9 -3 -8
-7z"/>
<path d="M5802 5256 c3 -4 46 -36 94 -71 95 -70 133 -82 227 -72 43 4 67 -1
142 -30 50 -19 100 -39 112 -45 13 -6 25 -9 29 -6 3 3 -50 27 -118 53 -68 26
-131 55 -140 63 -16 14 -18 13 -18 -1 0 -13 -9 -17 -38 -17 -60 0 -132 26
-202 73 -74 49 -98 63 -88 53z"/>
<path d="M2250 5209 c0 -13 5 -31 10 -39 7 -11 8 -5 4 20 -8 43 -14 51 -14 19z"/>
<path d="M7530 5196 c0 -3 9 -10 20 -16 11 -6 20 -8 20 -6 0 3 -9 10 -20 16
-11 6 -20 8 -20 6z"/>
<path d="M2411 5154 c0 -11 3 -14 6 -6 3 7 2 16 -1 19 -3 4 -6 -2 -5 -13z"/>
<path d="M2770 5137 c0 -24 32 -85 37 -70 2 6 -5 29 -16 50 -12 23 -20 31 -21
20z"/>
<path d="M2426 5088 c9 -59 14 -60 14 -5 0 26 -5 47 -10 47 -6 0 -8 -16 -4
-42z"/>
<path d="M3690 5116 c0 -3 14 -12 30 -21 17 -9 30 -13 30 -11 0 3 -13 12 -30
21 -16 9 -30 13 -30 11z"/>
<path d="M5555 5065 c39 -34 234 -129 305 -149 30 -8 111 -30 180 -50 120 -33
184 -45 460 -86 98 -14 145 -27 214 -57 50 -22 91 -44 93 -50 9 -26 -191 -82
-300 -84 l-62 -2 60 -8 c49 -6 78 -3 159 17 95 24 168 54 180 73 11 18 -5 37
-57 69 -55 33 -133 52 -306 72 -122 14 -270 42 -451 86 -233 56 -338 95 -465
171 l-40 24 30 -26z m1275 -375 c0 -5 -17 2 -37 16 -53 36 -54 40 -5 15 23
-12 42 -26 42 -31z"/>
<path d="M5850 5056 c0 -9 109 -76 148 -91 123 -46 505 -137 566 -134 12 0
-69 20 -179 44 -194 42 -413 109 -461 140 -13 8 -35 22 -49 31 -14 9 -25 14
-25 10z"/>
<path d="M2660 5034 c1 -27 37 -104 49 -104 12 0 9 8 -24 74 -14 27 -25 41
-25 30z"/>
<path d="M2360 5034 c0 -4 5 -25 12 -48 13 -47 28 -69 28 -42 0 29 -22 96 -32
96 -4 0 -8 -3 -8 -6z"/>
<path d="M4348 5025 c29 -56 186 -175 231 -175 23 0 22 2 -14 19 -43 19 -125
80 -189 140 -22 21 -34 28 -28 16z"/>
<path d="M5030 4960 c64 -61 128 -110 144 -110 6 0 -7 12 -29 27 -22 14 -69
51 -105 81 l-65 54 55 -52z"/>
<path d="M4477 4965 c5 -15 59 -53 122 -84 55 -28 64 -22 11 8 -22 12 -62 37
-89 55 -27 19 -47 28 -44 21z"/>
<path d="M2575 4900 c4 -14 16 -41 26 -60 19 -35 19 -35 12 -5 -3 17 -15 44
-25 60 -18 27 -19 28 -13 5z"/>
<path d="M2505 4785 c6 -39 60 -161 77 -171 10 -7 -10 46 -24 64 -6 7 -22 43
-35 80 -19 54 -22 59 -18 27z"/>
<path d="M4740 4776 c0 -2 7 -7 16 -10 8 -3 12 -2 9 4 -6 10 -25 14 -25 6z"/>
<path d="M2740 4748 c0 -9 5 -20 11 -23 17 -11 20 0 4 21 -13 17 -14 17 -15 2z"/>
<path d="M4785 4751 c40 -39 348 -171 401 -171 32 0 11 18 -29 24 -23 4 -66
18 -96 31 -29 14 -57 25 -62 25 -6 0 -58 23 -117 50 -59 28 -102 47 -97 41z"/>
<path d="M4420 4746 c0 -3 14 -12 30 -21 17 -9 30 -13 30 -11 0 3 -13 12 -30
21 -16 9 -30 13 -30 11z"/>
<path d="M2650 4716 c0 -8 5 -18 10 -21 6 -3 10 1 10 9 0 8 -4 18 -10 21 -5 3
-10 -1 -10 -9z"/>
<path d="M4257 4699 c7 -7 15 -10 18 -7 3 3 -2 9 -12 12 -14 6 -15 5 -6 -5z"/>
<path d="M2895 4611 c14 -29 35 -49 35 -36 0 13 -34 65 -42 65 -5 0 -2 -13 7
-29z"/>
<path d="M5585 4609 c55 -16 293 -49 347 -48 46 2 43 3 -27 9 -81 8 -191 24
-278 41 -59 11 -82 10 -42 -2z"/>
<path d="M2780 4553 c0 -27 177 -223 201 -223 4 0 -24 30 -62 67 -38 36 -83
88 -100 115 -30 47 -39 56 -39 41z"/>
<path d="M6018 4553 c12 -2 32 -2 45 0 12 2 2 4 -23 4 -25 0 -35 -2 -22 -4z"/>
<path d="M3140 4535 c34 -42 220 -179 220 -161 0 2 -17 15 -37 28 -21 12 -74
52 -118 87 -44 36 -73 57 -65 46z"/>
<path d="M3049 4414 c12 -26 68 -74 83 -74 6 0 9 1 7 3 -2 1 -26 22 -53 47
-28 26 -44 36 -37 24z"/>
<path d="M2800 4396 c0 -2 8 -10 18 -17 15 -13 16 -12 3 4 -13 16 -21 21 -21
13z"/>
<path d="M6811 4324 c0 -11 3 -14 6 -6 3 7 2 16 -1 19 -3 4 -6 -2 -5 -13z"/>
<path d="M2995 4310 c3 -5 11 -10 16 -10 6 0 7 5 4 10 -3 6 -11 10 -16 10 -6
0 -7 -4 -4 -10z"/>
<path d="M3206 4296 c3 -9 13 -16 22 -16 8 0 13 1 11 3 -2 1 -12 9 -22 16 -15
12 -17 12 -11 -3z"/>
<path d="M3570 4266 c0 -2 30 -24 68 -47 83 -53 517 -272 501 -253 -6 8 -114
65 -240 128 -125 64 -245 126 -266 139 -58 36 -63 39 -63 33z"/>
<path d="M2990 4235 c0 -11 55 -54 69 -55 10 0 11 3 3 13 -13 15 -72 50 -72
42z"/>
<path d="M3380 4213 c0 -5 14 -22 31 -39 23 -21 29 -23 21 -9 -13 25 -52 62
-52 48z"/>
<path d="M3315 4110 c21 -22 41 -40 44 -40 3 0 -13 18 -34 40 -21 22 -41 40
-44 40 -3 0 13 -18 34 -40z"/>
<path d="M5805 4113 c25 -9 85 -16 160 -19 l120 -3 -140 19 c-169 23 -193 23
-140 3z"/>
<path d="M6721 4114 c0 -11 3 -14 6 -6 3 7 2 16 -1 19 -3 4 -6 -2 -5 -13z"/>
<path d="M3460 4073 c0 -5 10 -18 23 -29 l22 -19 -20 25 c-11 14 -21 27 -22
29 -2 2 -3 0 -3 -6z"/>
<path d="M3550 4069 c26 -18 70 -40 70 -35 0 6 -66 46 -76 46 -5 0 -2 -5 6
-11z"/>
<path d="M6025 4012 c6 -5 33 -22 60 -37 28 -15 81 -48 118 -72 72 -47 103
-53 45 -10 -37 28 -239 136 -223 119z"/>
<path d="M3550 3926 c0 -2 16 -13 36 -25 19 -12 32 -16 29 -11 -7 11 -65 43
-65 36z"/>
<path d="M4050 3860 c25 -23 62 -61 82 -84 21 -22 38 -37 38 -33 0 12 -101
117 -135 139 -20 13 -15 6 15 -22z"/>
<path d="M3630 3876 c0 -2 7 -7 16 -10 8 -3 12 -2 9 4 -6 10 -25 14 -25 6z"/>
<path d="M5857 3865 c76 -17 158 -59 184 -97 11 -15 26 -44 34 -65 10 -29 14
-32 14 -15 2 43 -27 91 -74 124 -58 41 -128 67 -180 67 -36 -1 -34 -2 22 -14z"/>
<path d="M4296 3840 c18 -19 39 -49 47 -65 8 -17 34 -50 56 -75 39 -42 38 -39
-14 36 -31 45 -71 95 -88 110 l-32 29 31 -35z"/>
<path d="M3670 3854 c0 -2 15 -11 33 -20 27 -14 30 -15 19 -2 -11 14 -52 31
-52 22z"/>
<path d="M4025 3830 c10 -11 20 -20 23 -20 3 0 -3 9 -13 20 -10 11 -20 20 -23
20 -3 0 3 -9 13 -20z"/>
<path d="M4415 3780 c21 -22 41 -40 44 -40 3 0 -13 18 -34 40 -21 22 -41 40
-44 40 -3 0 13 -18 34 -40z"/>
<path d="M4210 3742 c0 -5 11 -26 25 -45 13 -20 31 -49 39 -64 8 -16 15 -23
16 -17 0 6 -14 36 -31 67 -29 55 -49 78 -49 59z"/>
<path d="M5858 3393 c6 -2 18 -2 25 0 6 3 1 5 -13 5 -14 0 -19 -2 -12 -5z"/>
<path d="M4661 3254 c-1 -17 53 -95 99 -144 46 -49 39 -35 -30 58 -25 33 -50
69 -57 79 -6 10 -12 13 -12 7z"/>
<path d="M5050 2721 c0 -5 5 -13 10 -16 6 -3 10 -2 10 4 0 5 -4 13 -10 16 -5
3 -10 2 -10 -4z"/>
<path d="M5149 2673 c-42 -17 -33 -25 13 -11 29 9 42 8 68 -6 32 -16 33 -16
16 3 -23 26 -58 31 -97 14z"/>
<path d="M5280 2681 c0 -6 5 -13 10 -16 6 -3 10 1 10 9 0 9 -4 16 -10 16 -5 0
-10 -4 -10 -9z"/>
<path d="M5215 2590 l-40 -7 47 -2 c26 0 50 4 53 9 7 11 1 11 -60 0z"/>
<path d="M5185 2510 c-44 -3 -64 -9 -54 -13 25 -12 132 -4 137 11 2 6 0 11 -5
10 -4 -1 -39 -4 -78 -8z"/>
<path d="M5105 2430 c-4 -6 18 -10 59 -10 37 0 66 4 66 10 0 6 -26 10 -59 10
-33 0 -63 -4 -66 -10z"/>
<path d="M5080 2280 c0 -12 34 -12 70 0 20 7 16 8 -22 9 -27 1 -48 -3 -48 -9z"/>
<path d="M5083 2203 c9 -2 25 -2 35 0 9 3 1 5 -18 5 -19 0 -27 -2 -17 -5z"/>
<path d="M5073 2183 c9 -2 25 -2 35 0 9 3 1 5 -18 5 -19 0 -27 -2 -17 -5z"/>
<path d="M5050 2125 c0 -10 11 -15 35 -15 36 0 47 13 19 24 -28 11 -54 6 -54
-9z"/>
<path d="M5030 2050 c0 -5 15 -10 34 -10 19 0 38 5 41 10 4 6 -10 10 -34 10
-23 0 -41 -4 -41 -10z"/>
<path d="M5000 1980 c0 -5 20 -10 45 -10 25 0 45 5 45 10 0 6 -20 10 -45 10
-25 0 -45 -4 -45 -10z"/>
<path d="M4998 1913 c-16 -2 -28 -8 -28 -12 0 -11 102 -1 115 10 9 9 -34 10
-87 2z"/>
<path d="M5050 1845 c-6 -7 -33 -17 -58 -21 -69 -10 -89 -26 -22 -18 71 8 100
20 100 39 0 19 -4 19 -20 0z"/>
<path d="M4955 1718 c-38 -12 -73 -17 -95 -13 -29 4 -32 3 -16 -6 11 -7 37 -9
67 -5 46 6 119 31 119 41 0 7 -8 5 -75 -17z"/>
<path d="M4805 1691 c5 -10 108 -51 125 -51 6 0 10 5 10 10 0 6 -10 10 -22 10
-13 0 -43 9 -67 20 -49 23 -55 24 -46 11z"/>
<path d="M4110 1611 c0 -11 5 -23 10 -26 6 -4 10 5 10 19 0 14 -4 26 -10 26
-5 0 -10 -9 -10 -19z"/>
<path d="M4229 1600 c-4 -22 -9 -25 -41 -24 -21 1 -38 -3 -38 -7 0 -5 36 -9
80 -9 62 0 80 3 80 14 0 15 -21 26 -50 26 -10 0 -20 6 -23 13 -2 6 -6 1 -8
-13z"/>
<path d="M4360 1580 c0 -5 9 -10 20 -10 11 0 20 5 20 10 0 6 -9 10 -20 10 -11
0 -20 -4 -20 -10z"/>
<path d="M4866 1525 c4 -8 11 -15 16 -15 6 0 5 6 -2 15 -7 8 -14 15 -16 15 -2
0 -1 -7 2 -15z"/>
<path d="M5090 1530 c0 -5 -16 -7 -35 -5 -20 3 -35 0 -35 -5 0 -6 18 -10 40
-10 29 0 40 4 40 15 0 8 -2 15 -5 15 -3 0 -5 -4 -5 -10z"/>
<path d="M5190 1533 c0 -5 5 -15 10 -23 8 -12 10 -11 10 8 0 12 -4 22 -10 22
-5 0 -10 -3 -10 -7z"/>
<path d="M5236 1531 c-4 -7 -5 -15 -2 -18 9 -9 19 4 14 18 -4 11 -6 11 -12 0z"/>
<path d="M4917 1518 c-6 -4 9 -7 36 -6 26 1 47 6 47 10 0 10 -66 7 -83 -4z"/>
<path d="M5123 1503 c9 -2 23 -2 30 0 6 3 -1 5 -18 5 -16 0 -22 -2 -12 -5z"/>
<path d="M4736 1482 c-3 -6 -1 -14 5 -17 15 -10 25 3 12 16 -7 7 -13 7 -17 1z"/>
<path d="M4520 1450 c0 -11 5 -20 10 -20 6 0 10 9 10 20 0 11 -4 20 -10 20 -5
0 -10 -9 -10 -20z"/>
<path d="M4665 1460 c-3 -5 1 -10 10 -10 9 0 13 5 10 10 -3 6 -8 10 -10 10 -2
0 -7 -4 -10 -10z"/>
<path d="M4322 1447 c-9 -10 -4 -12 23 -9 19 2 32 8 29 13 -8 13 -40 11 -52
-4z"/>
<path d="M4448 1453 c25 -5 28 -13 10 -32 -11 -11 -9 -11 9 -2 30 15 19 41
-16 40 -23 -2 -24 -2 -3 -6z"/>
<path d="M4590 1440 c-18 -12 -2 -12 25 0 13 6 15 9 5 9 -8 0 -22 -4 -30 -9z"/>
</g>
</svg>
